<svg width="268" height="70" viewBox="0 0 268 70" fill="none" xmlns="http://www.w3.org/2000/svg">
<g clip-path="url(#clip0_4324_19525)">
<path d="M46.8443 46.8352C45.9777 46.8352 45.236 46.6518 44.6193 46.2852C44.0027 45.9185 43.5277 45.3977 43.1943 44.7227C42.8693 44.0477 42.7068 43.2435 42.7068 42.3102C42.7068 41.3852 42.8693 40.5852 43.1943 39.9102C43.5277 39.2352 44.0027 38.7143 44.6193 38.3477C45.236 37.981 45.9777 37.7977 46.8443 37.7977C47.4527 37.7977 48.011 37.8935 48.5193 38.0852C49.036 38.2768 49.4735 38.556 49.8318 38.9227L49.4318 39.7602C49.0485 39.4018 48.6485 39.1435 48.2318 38.9852C47.8235 38.8185 47.3693 38.7352 46.8693 38.7352C45.8777 38.7352 45.1193 39.0477 44.5943 39.6727C44.0693 40.2977 43.8068 41.1768 43.8068 42.3102C43.8068 43.4518 44.0693 44.3352 44.5943 44.9602C45.1193 45.5852 45.8777 45.8977 46.8693 45.8977C47.3693 45.8977 47.8235 45.8185 48.2318 45.6602C48.6485 45.4935 49.0485 45.231 49.4318 44.8727L49.8318 45.7102C49.4735 46.0685 49.036 46.3477 48.5193 46.5477C48.011 46.7393 47.4527 46.8352 46.8443 46.8352ZM53.1675 46.8352C52.5508 46.8352 52.0841 46.656 51.7675 46.2977C51.4591 45.931 51.305 45.4018 51.305 44.7102V37.9102H52.3175V44.6352C52.3175 45.5268 52.6716 45.9727 53.38 45.9727C53.5883 45.9727 53.7758 45.9477 53.9425 45.8977L53.9175 46.7477C53.6591 46.806 53.4091 46.8352 53.1675 46.8352ZM57.1537 46.8352C55.6954 46.8352 54.9662 46.031 54.9662 44.4227V40.6477H55.9787V44.4102C55.9787 44.9518 56.087 45.3518 56.3037 45.6102C56.5287 45.8685 56.8787 45.9977 57.3537 45.9977C57.8704 45.9977 58.2912 45.8268 58.6162 45.4852C58.9412 45.1352 59.1037 44.6727 59.1037 44.0977V40.6477H60.1162V46.7227H59.1287V45.6977C58.937 46.0643 58.6662 46.3477 58.3162 46.5477C57.9745 46.7393 57.587 46.8352 57.1537 46.8352ZM64.448 46.8352C63.7314 46.8352 63.1939 46.6477 62.8355 46.2727C62.4772 45.8893 62.298 45.3393 62.298 44.6227V41.4352H61.1105V40.6477H62.298V38.7852H63.3105V40.6477H65.2355V41.4352H63.3105V44.5227C63.3105 44.9977 63.4105 45.3602 63.6105 45.6102C63.8105 45.8518 64.1355 45.9727 64.5855 45.9727C64.7189 45.9727 64.8522 45.956 64.9855 45.9227C65.1189 45.8893 65.2397 45.856 65.348 45.8227L65.523 46.5977C65.4147 46.656 65.2564 46.7102 65.048 46.7602C64.8397 46.8102 64.6397 46.8352 64.448 46.8352ZM68.8946 46.8352C68.2863 46.8352 67.7613 46.706 67.3196 46.4477C66.878 46.181 66.5363 45.8102 66.2946 45.3352C66.0613 44.8518 65.9446 44.2893 65.9446 43.6477C65.9446 42.681 66.2071 41.9227 66.7321 41.3727C67.2571 40.8143 67.978 40.5352 68.8946 40.5352C69.2696 40.5352 69.6405 40.6018 70.0071 40.7352C70.3738 40.8685 70.678 41.056 70.9196 41.2977L70.5696 42.0352C70.328 41.8018 70.0613 41.631 69.7696 41.5227C69.4863 41.4143 69.2155 41.3602 68.9571 41.3602C68.3238 41.3602 67.8363 41.5602 67.4946 41.9602C67.153 42.3518 66.9821 42.9185 66.9821 43.6602C66.9821 44.3852 67.153 44.9602 67.4946 45.3852C67.8363 45.8018 68.3238 46.0102 68.9571 46.0102C69.2155 46.0102 69.4863 45.956 69.7696 45.8477C70.0613 45.7393 70.328 45.5643 70.5696 45.3227L70.9196 46.0602C70.678 46.3018 70.3696 46.4935 69.9946 46.6352C69.628 46.7685 69.2613 46.8352 68.8946 46.8352ZM72.1058 46.7227V37.9102H73.1183V41.6477C73.3183 41.281 73.5974 41.006 73.9558 40.8227C74.3224 40.631 74.7308 40.5352 75.1808 40.5352C76.6224 40.5352 77.3433 41.3352 77.3433 42.9352V46.7227H76.3308V42.9977C76.3308 42.431 76.2183 42.0185 75.9933 41.7602C75.7766 41.4935 75.4266 41.3602 74.9433 41.3602C74.3849 41.3602 73.9391 41.5352 73.6058 41.8852C73.2808 42.2268 73.1183 42.6852 73.1183 43.2602V46.7227H72.1058ZM86.2582 46.8352C85.4415 46.8352 84.729 46.6518 84.1207 46.2852C83.5207 45.9102 83.054 45.3852 82.7207 44.7102C82.3957 44.0352 82.2332 43.2352 82.2332 42.3102C82.2332 41.3852 82.3957 40.5852 82.7207 39.9102C83.0457 39.2352 83.5082 38.7143 84.1082 38.3477C84.7165 37.981 85.4332 37.7977 86.2582 37.7977C87.0915 37.7977 87.8082 37.981 88.4082 38.3477C89.0165 38.7143 89.4832 39.2352 89.8082 39.9102C90.1415 40.5768 90.3082 41.3727 90.3082 42.2977C90.3082 43.2227 90.1415 44.0268 89.8082 44.7102C89.4749 45.3852 89.004 45.9102 88.3957 46.2852C87.7957 46.6518 87.0832 46.8352 86.2582 46.8352ZM86.2582 45.9227C87.1999 45.9227 87.929 45.606 88.4457 44.9727C88.9624 44.3393 89.2207 43.4518 89.2207 42.3102C89.2207 41.1685 88.9624 40.2852 88.4457 39.6602C87.929 39.0268 87.1999 38.7102 86.2582 38.7102C85.3332 38.7102 84.6124 39.0268 84.0957 39.6602C83.579 40.2852 83.3207 41.1685 83.3207 42.3102C83.3207 43.4435 83.579 44.331 84.0957 44.9727C84.6124 45.606 85.3332 45.9227 86.2582 45.9227ZM93.7907 46.7227L91.1782 40.6477H92.2782L94.2907 45.5727L96.3282 40.6477H97.3657L94.7407 46.7227H93.7907ZM101.088 46.8352C100.13 46.8352 99.3717 46.556 98.8134 45.9977C98.255 45.431 97.9759 44.6643 97.9759 43.6977C97.9759 43.0727 98.1009 42.5227 98.3509 42.0477C98.6009 41.5643 98.9425 41.1935 99.3759 40.9352C99.8175 40.6685 100.326 40.5352 100.901 40.5352C101.726 40.5352 102.372 40.8018 102.838 41.3352C103.305 41.8602 103.538 42.5852 103.538 43.5102V43.8977H98.9634C98.9967 44.5893 99.1967 45.1185 99.5634 45.4852C99.93 45.8435 100.438 46.0227 101.088 46.0227C101.455 46.0227 101.805 45.9685 102.138 45.8602C102.472 45.7435 102.788 45.556 103.088 45.2977L103.438 46.0102C103.163 46.2685 102.813 46.4727 102.388 46.6227C101.963 46.7643 101.53 46.8352 101.088 46.8352ZM100.926 41.2852C100.351 41.2852 99.8967 41.4643 99.5634 41.8227C99.23 42.181 99.0342 42.6518 98.9759 43.2352H102.663C102.638 42.6185 102.476 42.1393 102.176 41.7977C101.884 41.456 101.468 41.2852 100.926 41.2852ZM105.004 46.7227V40.6477H105.991V41.7352C106.316 41.0018 106.983 40.5977 107.991 40.5227L108.354 40.4852L108.429 41.3602L107.791 41.4352C107.216 41.4852 106.779 41.6685 106.479 41.9852C106.179 42.2935 106.029 42.7185 106.029 43.2602V46.7227H105.004ZM111.335 46.8352C110.918 46.8352 110.543 46.756 110.21 46.5977C109.885 46.431 109.627 46.206 109.435 45.9227C109.243 45.6393 109.148 45.3227 109.148 44.9727C109.148 44.531 109.26 44.181 109.485 43.9227C109.718 43.6643 110.098 43.481 110.623 43.3727C111.156 43.256 111.881 43.1977 112.798 43.1977H113.198V42.8102C113.198 42.2935 113.089 41.9227 112.873 41.6977C112.664 41.4643 112.327 41.3477 111.86 41.3477C111.493 41.3477 111.139 41.4018 110.798 41.5102C110.456 41.6102 110.106 41.7768 109.748 42.0102L109.398 41.2727C109.714 41.0477 110.098 40.8685 110.548 40.7352C111.006 40.6018 111.443 40.5352 111.86 40.5352C112.643 40.5352 113.223 40.7268 113.598 41.1102C113.981 41.4935 114.173 42.0893 114.173 42.8977V46.7227H113.223V45.6727C113.064 46.031 112.818 46.3143 112.485 46.5227C112.16 46.731 111.777 46.8352 111.335 46.8352ZM111.498 46.0727C111.998 46.0727 112.406 45.9018 112.723 45.5602C113.039 45.2102 113.198 44.7685 113.198 44.2352V43.8602H112.81C112.135 43.8602 111.602 43.8935 111.21 43.9602C110.827 44.0185 110.556 44.1268 110.398 44.2852C110.248 44.4352 110.173 44.6435 110.173 44.9102C110.173 45.2518 110.289 45.531 110.523 45.7477C110.764 45.9643 111.089 46.0727 111.498 46.0727ZM117.914 46.8352C117.297 46.8352 116.83 46.656 116.514 46.2977C116.205 45.931 116.051 45.4018 116.051 44.7102V37.9102H117.064V44.6352C117.064 45.5268 117.418 45.9727 118.126 45.9727C118.334 45.9727 118.522 45.9477 118.689 45.8977L118.664 46.7477C118.405 46.806 118.155 46.8352 117.914 46.8352ZM121.612 46.8352C120.996 46.8352 120.529 46.656 120.212 46.2977C119.904 45.931 119.75 45.4018 119.75 44.7102V37.9102H120.762V44.6352C120.762 45.5268 121.116 45.9727 121.825 45.9727C122.033 45.9727 122.221 45.9477 122.387 45.8977L122.362 46.7477C122.104 46.806 121.854 46.8352 121.612 46.8352ZM126.796 46.7227V37.9102H130.284C131.234 37.9102 131.959 38.131 132.459 38.5727C132.967 39.0143 133.221 39.6435 133.221 40.4602C133.221 41.1102 133.042 41.6435 132.684 42.0602C132.334 42.4768 131.834 42.7477 131.184 42.8727C131.567 43.006 131.896 43.331 132.171 43.8477L133.721 46.7227H132.596L131.071 43.8977C130.88 43.5477 130.659 43.3102 130.409 43.1852C130.159 43.0602 129.83 42.9977 129.421 42.9977H127.821V46.7227H126.796ZM127.821 42.1852H130.134C131.517 42.1852 132.209 41.6102 132.209 40.4602C132.209 39.3268 131.517 38.7602 130.134 38.7602H127.821V42.1852ZM136.909 46.8352C136.492 46.8352 136.117 46.756 135.784 46.5977C135.459 46.431 135.201 46.206 135.009 45.9227C134.817 45.6393 134.721 45.3227 134.721 44.9727C134.721 44.531 134.834 44.181 135.059 43.9227C135.292 43.6643 135.671 43.481 136.196 43.3727C136.73 43.256 137.455 43.1977 138.371 43.1977H138.771V42.8102C138.771 42.2935 138.663 41.9227 138.446 41.6977C138.238 41.4643 137.901 41.3477 137.434 41.3477C137.067 41.3477 136.713 41.4018 136.371 41.5102C136.03 41.6102 135.68 41.7768 135.321 42.0102L134.971 41.2727C135.288 41.0477 135.671 40.8685 136.121 40.7352C136.58 40.6018 137.017 40.5352 137.434 40.5352C138.217 40.5352 138.796 40.7268 139.171 41.1102C139.555 41.4935 139.746 42.0893 139.746 42.8977V46.7227H138.796V45.6727C138.638 46.031 138.392 46.3143 138.059 46.5227C137.734 46.731 137.351 46.8352 136.909 46.8352ZM137.071 46.0727C137.571 46.0727 137.98 45.9018 138.296 45.5602C138.613 45.2102 138.771 44.7685 138.771 44.2352V43.8602H138.384C137.709 43.8602 137.176 43.8935 136.784 43.9602C136.401 44.0185 136.13 44.1268 135.971 44.2852C135.821 44.4352 135.746 44.6435 135.746 44.9102C135.746 45.2518 135.863 45.531 136.096 45.7477C136.338 45.9643 136.663 46.0727 137.071 46.0727ZM144.062 46.8352C143.346 46.8352 142.808 46.6477 142.45 46.2727C142.091 45.8893 141.912 45.3393 141.912 44.6227V41.4352H140.725V40.6477H141.912V38.7852H142.925V40.6477H144.85V41.4352H142.925V44.5227C142.925 44.9977 143.025 45.3602 143.225 45.6102C143.425 45.8518 143.75 45.9727 144.2 45.9727C144.333 45.9727 144.466 45.956 144.6 45.9227C144.733 45.8893 144.854 45.856 144.962 45.8227L145.137 46.5977C145.029 46.656 144.871 46.7102 144.662 46.7602C144.454 46.8102 144.254 46.8352 144.062 46.8352ZM145.87 39.1352V37.9977H147.12V39.1352H145.87ZM145.995 46.7227V40.6477H147.007V46.7227H145.995ZM148.9 46.7227V40.6477H149.888V41.6852C150.088 41.3018 150.371 41.0143 150.738 40.8227C151.104 40.631 151.517 40.5352 151.975 40.5352C153.417 40.5352 154.138 41.3352 154.138 42.9352V46.7227H153.125V42.9977C153.125 42.431 153.013 42.0185 152.788 41.7602C152.571 41.4935 152.221 41.3602 151.738 41.3602C151.179 41.3602 150.734 41.5352 150.4 41.8852C150.075 42.2268 149.913 42.6852 149.913 43.2602V46.7227H148.9ZM158.692 49.0852C158.167 49.0852 157.671 49.0143 157.205 48.8727C156.746 48.7393 156.338 48.5352 155.98 48.2602L156.317 47.5227C156.692 47.7893 157.063 47.981 157.43 48.0977C157.805 48.2143 158.209 48.2727 158.642 48.2727C159.842 48.2727 160.442 47.656 160.442 46.4227V45.3477C160.267 45.731 159.992 46.0352 159.617 46.2602C159.251 46.4768 158.83 46.5852 158.355 46.5852C157.796 46.5852 157.313 46.456 156.905 46.1977C156.496 45.9393 156.18 45.5852 155.955 45.1352C155.738 44.6768 155.63 44.1477 155.63 43.5477C155.63 42.9477 155.738 42.4227 155.955 41.9727C156.18 41.5143 156.496 41.1602 156.905 40.9102C157.313 40.6602 157.796 40.5352 158.355 40.5352C158.83 40.5352 159.251 40.6435 159.617 40.8602C159.992 41.0768 160.267 41.3727 160.442 41.7477V40.6477H161.43V46.2852C161.43 47.2185 161.196 47.9185 160.73 48.3852C160.271 48.8518 159.592 49.0852 158.692 49.0852ZM158.542 45.7602C159.126 45.7602 159.588 45.5602 159.93 45.1602C160.271 44.7602 160.442 44.2227 160.442 43.5477C160.442 42.8727 160.271 42.3393 159.93 41.9477C159.588 41.5477 159.126 41.3477 158.542 41.3477C157.967 41.3477 157.509 41.5477 157.167 41.9477C156.826 42.3393 156.655 42.8727 156.655 43.5477C156.655 44.2227 156.826 44.7602 157.167 45.1602C157.509 45.5602 157.967 45.7602 158.542 45.7602ZM166.539 46.7227V40.6477H167.527V41.7352C167.852 41.0018 168.519 40.5977 169.527 40.5227L169.889 40.4852L169.964 41.3602L169.327 41.4352C168.752 41.4852 168.314 41.6685 168.014 41.9852C167.714 42.2935 167.564 42.7185 167.564 43.2602V46.7227H166.539ZM173.684 46.8352C172.725 46.8352 171.967 46.556 171.409 45.9977C170.85 45.431 170.571 44.6643 170.571 43.6977C170.571 43.0727 170.696 42.5227 170.946 42.0477C171.196 41.5643 171.538 41.1935 171.971 40.9352C172.413 40.6685 172.921 40.5352 173.496 40.5352C174.321 40.5352 174.967 40.8018 175.434 41.3352C175.9 41.8602 176.134 42.5852 176.134 43.5102V43.8977H171.559C171.592 44.5893 171.792 45.1185 172.159 45.4852C172.525 45.8435 173.034 46.0227 173.684 46.0227C174.05 46.0227 174.4 45.9685 174.734 45.8602C175.067 45.7435 175.384 45.556 175.684 45.2977L176.034 46.0102C175.759 46.2685 175.409 46.4727 174.984 46.6227C174.559 46.7643 174.125 46.8352 173.684 46.8352ZM173.521 41.2852C172.946 41.2852 172.492 41.4643 172.159 41.8227C171.825 42.181 171.629 42.6518 171.571 43.2352H175.259C175.234 42.6185 175.071 42.1393 174.771 41.7977C174.479 41.456 174.063 41.2852 173.521 41.2852ZM179.313 46.7227L176.701 40.6477H177.801L179.813 45.5727L181.851 40.6477H182.888L180.263 46.7227H179.313ZM183.834 39.1352V37.9977H185.084V39.1352H183.834ZM183.959 46.7227V40.6477H184.971V46.7227H183.959ZM189.602 46.8352C188.643 46.8352 187.885 46.556 187.327 45.9977C186.768 45.431 186.489 44.6643 186.489 43.6977C186.489 43.0727 186.614 42.5227 186.864 42.0477C187.114 41.5643 187.456 41.1935 187.889 40.9352C188.331 40.6685 188.839 40.5352 189.414 40.5352C190.239 40.5352 190.885 40.8018 191.352 41.3352C191.818 41.8602 192.052 42.5852 192.052 43.5102V43.8977H187.477C187.51 44.5893 187.71 45.1185 188.077 45.4852C188.443 45.8435 188.952 46.0227 189.602 46.0227C189.968 46.0227 190.318 45.9685 190.652 45.8602C190.985 45.7435 191.302 45.556 191.602 45.2977L191.952 46.0102C191.677 46.2685 191.327 46.4727 190.902 46.6227C190.477 46.7643 190.043 46.8352 189.602 46.8352ZM189.439 41.2852C188.864 41.2852 188.41 41.4643 188.077 41.8227C187.743 42.181 187.547 42.6518 187.489 43.2352H191.177C191.152 42.6185 190.989 42.1393 190.689 41.7977C190.397 41.456 189.981 41.2852 189.439 41.2852ZM195.056 46.7227L192.794 40.6477H193.856L195.569 45.5352L197.344 40.6477H198.206L199.956 45.5477L201.694 40.6477H202.706L200.431 46.7227H199.469L197.756 42.0102L196.031 46.7227H195.056ZM210.152 46.8352C209.585 46.8352 209.044 46.7435 208.527 46.5602C208.01 46.3768 207.573 46.1185 207.214 45.7852L207.602 44.9727C208.377 45.606 209.223 45.9227 210.139 45.9227C210.748 45.9227 211.227 45.7518 211.577 45.4102C211.927 45.0685 212.102 44.6185 212.102 44.0602C212.102 43.4852 211.935 43.0143 211.602 42.6477C211.269 42.281 210.81 42.0977 210.227 42.0977C209.385 42.0977 208.723 42.4477 208.239 43.1477H207.489V37.9102H212.602V38.7852H208.502V41.9352C208.985 41.4518 209.623 41.2102 210.414 41.2102C210.964 41.2102 211.444 41.3268 211.852 41.5602C212.26 41.7935 212.573 42.1227 212.789 42.5477C213.014 42.9643 213.127 43.4518 213.127 44.0102C213.127 44.5602 213.006 45.0477 212.764 45.4727C212.523 45.8977 212.177 46.231 211.727 46.4727C211.285 46.7143 210.76 46.8352 210.152 46.8352ZM214.497 46.7227V45.4477H215.772V46.7227H214.497ZM220.304 46.8352C219.295 46.8352 218.529 46.4477 218.004 45.6727C217.479 44.8977 217.216 43.7768 217.216 42.3102C217.216 40.8352 217.479 39.7143 218.004 38.9477C218.529 38.181 219.295 37.7977 220.304 37.7977C221.32 37.7977 222.087 38.181 222.604 38.9477C223.129 39.706 223.391 40.8227 223.391 42.2977C223.391 43.7727 223.125 44.8977 222.591 45.6727C222.066 46.4477 221.304 46.8352 220.304 46.8352ZM220.304 45.9477C221.004 45.9477 221.52 45.6518 221.854 45.0602C222.195 44.4685 222.366 43.5477 222.366 42.2977C222.366 41.0477 222.2 40.1352 221.866 39.5602C221.533 38.9768 221.012 38.6852 220.304 38.6852C219.604 38.6852 219.083 38.9768 218.741 39.5602C218.408 40.1435 218.241 41.056 218.241 42.2977C218.241 43.5477 218.408 44.4685 218.741 45.0602C219.083 45.6518 219.604 45.9477 220.304 45.9477Z" fill="#828282"/>
<g clip-path="url(#clip1_4324_19525)">
<path d="M97.0469 15.8506C98.3996 15.8506 99.4963 14.7853 99.4963 13.4712C99.4963 12.1571 98.3996 11.0918 97.0469 11.0918C95.6941 11.0918 94.5974 12.1571 94.5974 13.4712C94.5974 14.7853 95.6941 15.8506 97.0469 15.8506Z" fill="#E62415"/>
<path d="M61.3925 0H64.6339V20.3052H61.3925V0ZM76.4391 14.0437C76.4391 17.1923 73.7871 17.4428 72.9767 17.4428C70.9509 17.4428 70.6562 15.6001 70.6562 14.4909V6.63721H67.3964V14.4731C67.378 16.4231 67.9489 18.0332 69.0539 19.1066C70.0575 19.9756 71.336 20.4864 72.6786 20.5546C74.0211 20.6229 75.3476 20.2447 76.4391 19.4823V20.3052H79.6989V6.63721H76.4391V14.0437ZM86.7341 2.03947H83.4743V6.63721H81.209V9.62485H83.4743V20.3052H86.7341V9.62485H89.4045V6.63721H86.7341V2.03947ZM99.9574 16.4231C99.2207 17.0671 98.2446 17.4249 97.1764 17.4249C96.6338 17.4398 96.0937 17.3467 95.5895 17.1513C95.0853 16.9558 94.6276 16.6622 94.2446 16.2885C93.8616 15.9148 93.5614 15.4689 93.3624 14.9782C93.1635 14.4875 93.0701 13.9625 93.0879 13.4354C93.0879 11.1276 94.7638 9.51751 97.1764 9.51751C98.2262 9.51751 99.2207 9.85742 99.9758 10.5015L100.491 10.9308L102.775 8.71246L102.204 8.21153C100.821 7.01332 99.0295 6.35665 97.1764 6.36886C92.9406 6.36886 89.865 9.33861 89.865 13.4175C89.8425 14.3579 90.0159 15.2929 90.3749 16.1665C90.7339 17.0401 91.271 17.8341 91.954 18.5009C92.637 19.1676 93.4517 19.6934 94.3491 20.0465C95.2466 20.3996 96.2083 20.5728 97.1764 20.5557C99.1102 20.5557 100.915 19.8937 102.241 18.6951L102.794 18.1942L100.473 15.9758L99.9574 16.4231ZM115.004 7.83584C114 6.96684 112.722 6.45607 111.379 6.38777C110.037 6.31947 108.71 6.69773 107.619 7.46015V0H104.359V20.3052H107.619V12.9166C107.619 9.76797 110.271 9.51751 111.081 9.51751C113.107 9.51751 113.402 11.3602 113.402 12.4694V20.3231H116.661V12.4694C116.76 10.7729 116.164 9.10749 115.004 7.83584ZM56.5857 15.4391C55.9515 16.072 55.1924 16.574 54.3539 16.9152C53.5153 17.2564 52.6144 17.4298 51.7053 17.4249C47.9298 17.4249 45.1857 14.5446 45.1857 10.5909C45.1857 6.61932 47.9298 3.73902 51.7053 3.73902C53.5285 3.73902 55.2597 4.43673 56.5673 5.70693L57.083 6.20785L59.3483 4.00737L58.851 3.50645C57.9165 2.58321 56.8012 1.85112 55.5707 1.35335C54.3403 0.855593 53.0197 0.602247 51.6868 0.608262C46.1434 0.608262 41.9443 4.90187 41.9443 10.6088C41.9443 16.2799 46.1434 20.5736 51.6868 20.5736C54.431 20.5736 56.9725 19.5359 58.851 17.6575L59.3483 17.1566L57.1014 14.9203L56.5857 15.4391Z" fill="#272727"/>
</g>
<path d="M161.984 10.657C161.922 10.5306 161.793 10.4506 161.652 10.4506C161.511 10.4506 161.382 10.5306 161.32 10.657L159.804 13.7292L156.414 14.2215C156.274 14.2418 156.158 14.3395 156.115 14.4736C156.071 14.6077 156.107 14.7549 156.208 14.8533L158.661 17.2445L158.082 20.6214C158.058 20.7603 158.115 20.9008 158.23 20.9836C158.344 21.0665 158.495 21.0774 158.62 21.0118L161.652 19.4175L164.684 21.0118C164.809 21.0774 164.96 21.0665 165.074 20.9836C165.189 20.9008 165.246 20.7603 165.222 20.6214L164.643 17.2445L167.096 14.8533C167.197 14.7549 167.233 14.6077 167.189 14.4736C167.146 14.3395 167.03 14.2418 166.89 14.2215L163.5 13.7292L161.984 10.657Z" fill="#FFB45A"/>
<path d="M176.567 10.657C176.505 10.5306 176.376 10.4506 176.235 10.4506C176.094 10.4506 175.966 10.5306 175.903 10.657L174.387 13.7292L170.997 14.2215C170.857 14.2418 170.741 14.3395 170.698 14.4736C170.654 14.6077 170.691 14.7549 170.792 14.8533L173.245 17.2445L172.665 20.6214C172.642 20.7603 172.699 20.9008 172.813 20.9836C172.927 21.0665 173.078 21.0774 173.203 21.0118L176.235 19.4175L179.268 21.0118C179.392 21.0774 179.544 21.0665 179.658 20.9836C179.772 20.9008 179.829 20.7603 179.805 20.6214L179.226 17.2445L181.679 14.8533C181.78 14.7549 181.816 14.6077 181.773 14.4736C181.729 14.3395 181.613 14.2418 181.474 14.2215L178.084 13.7292L176.567 10.657Z" fill="#FFB45A"/>
<path d="M191.151 10.657C191.088 10.5306 190.96 10.4506 190.819 10.4506C190.678 10.4506 190.549 10.5306 190.487 10.657L188.97 13.7292L185.58 14.2215C185.441 14.2418 185.325 14.3395 185.281 14.4736C185.238 14.6077 185.274 14.7549 185.375 14.8533L187.828 17.2445L187.249 20.6214C187.225 20.7603 187.282 20.9008 187.396 20.9836C187.51 21.0665 187.662 21.0774 187.786 21.0118L190.819 19.4175L193.851 21.0118C193.976 21.0774 194.127 21.0665 194.241 20.9836C194.355 20.9008 194.412 20.7603 194.389 20.6214L193.809 17.2445L196.262 14.8533C196.363 14.7549 196.4 14.6077 196.356 14.4736C196.313 14.3395 196.197 14.2418 196.057 14.2215L192.667 13.7292L191.151 10.657Z" fill="#FFB45A"/>
<path d="M205.734 10.657C205.672 10.5306 205.543 10.4506 205.402 10.4506C205.261 10.4506 205.132 10.5306 205.07 10.657L203.554 13.7292L200.164 14.2215C200.024 14.2418 199.908 14.3395 199.865 14.4736C199.821 14.6077 199.857 14.7549 199.958 14.8533L202.411 17.2445L201.832 20.6214C201.808 20.7603 201.865 20.9008 201.98 20.9836C202.094 21.0665 202.245 21.0774 202.37 21.0118L205.402 19.4175L208.434 21.0118C208.559 21.0774 208.71 21.0665 208.824 20.9836C208.939 20.9008 208.996 20.7603 208.972 20.6214L208.393 17.2445L210.846 14.8533C210.947 14.7549 210.983 14.6077 210.939 14.4736C210.896 14.3395 210.78 14.2418 210.64 14.2215L207.25 13.7292L205.734 10.657Z" fill="#FFB45A"/>
<path d="M220.317 10.657C220.255 10.5306 220.126 10.4506 219.985 10.4506C219.844 10.4506 219.716 10.5306 219.653 10.657L218.137 13.7292L214.747 14.2215C214.607 14.2418 214.491 14.3395 214.448 14.4736C214.404 14.6077 214.441 14.7549 214.542 14.8533L216.995 17.2445L216.415 20.6214C216.392 20.7603 216.449 20.9008 216.563 20.9836C216.677 21.0665 216.828 21.0774 216.953 21.0118L219.985 19.4175L223.018 21.0118C223.142 21.0774 223.294 21.0665 223.408 20.9836C223.522 20.9008 223.579 20.7603 223.555 20.6214L222.976 17.2445L225.429 14.8533C225.53 14.7549 225.566 14.6077 225.523 14.4736C225.479 14.3395 225.363 14.2418 225.224 14.2215L221.834 13.7292L220.317 10.657Z" fill="#FFB45A"/>
<path d="M128.011 23.2296C127.381 22.2018 126.923 21.1648 126.636 20.1185C126.358 19.0629 126.219 17.9842 126.219 16.8824C126.219 15.7805 126.358 14.7065 126.636 13.6602C126.923 12.6046 127.381 11.5629 128.011 10.5352L128.997 10.924C128.553 11.9703 128.229 12.9703 128.025 13.924C127.821 14.8777 127.719 15.8639 127.719 16.8824C127.719 17.8916 127.821 18.8777 128.025 19.8407C128.229 20.7944 128.553 21.7944 128.997 22.8407L128.011 23.2296ZM133.802 20.6602C133.172 20.6602 132.561 20.5629 131.969 20.3685C131.385 20.1648 130.899 19.8824 130.51 19.5213L130.996 18.4102C131.848 19.0953 132.774 19.4379 133.774 19.4379C134.413 19.4379 134.913 19.2666 135.274 18.924C135.635 18.5722 135.816 18.1139 135.816 17.549C135.816 16.9657 135.644 16.4889 135.302 16.1185C134.959 15.7481 134.482 15.5629 133.871 15.5629C133.01 15.5629 132.32 15.9194 131.802 16.6324H130.802V10.7435H136.635V11.9518H132.205V15.049C132.723 14.5953 133.381 14.3685 134.177 14.3685C134.797 14.3685 135.334 14.4981 135.788 14.7574C136.242 15.0166 136.594 15.3824 136.844 15.8546C137.094 16.3176 137.219 16.8592 137.219 17.4796C137.219 18.1092 137.08 18.6648 136.802 19.1463C136.524 19.6185 136.131 19.9889 135.621 20.2574C135.112 20.5259 134.506 20.6602 133.802 20.6602ZM138.63 20.5352V18.8824H140.283V20.5352H138.63ZM145.273 20.6602C144.134 20.6602 143.264 20.2296 142.662 19.3685C142.069 18.4981 141.773 17.2527 141.773 15.6324C141.773 13.9842 142.069 12.7389 142.662 11.8963C143.264 11.0444 144.134 10.6185 145.273 10.6185C146.421 10.6185 147.291 11.0444 147.884 11.8963C148.477 12.7389 148.773 13.9796 148.773 15.6185C148.773 17.2481 148.472 18.4981 147.87 19.3685C147.278 20.2296 146.412 20.6602 145.273 20.6602ZM145.273 19.4657C145.977 19.4657 146.5 19.1555 146.842 18.5352C147.185 17.9148 147.356 16.9426 147.356 15.6185C147.356 14.2944 147.185 13.3315 146.842 12.7296C146.509 12.1185 145.986 11.8129 145.273 11.8129C144.569 11.8129 144.046 12.1185 143.703 12.7296C143.361 13.3407 143.19 14.3037 143.19 15.6185C143.19 16.9426 143.361 17.9148 143.703 18.5352C144.046 19.1555 144.569 19.4657 145.273 19.4657ZM150.906 23.2296L149.92 22.8407C150.355 21.7759 150.675 20.7666 150.879 19.8129C151.082 18.8592 151.184 17.8824 151.184 16.8824C151.184 15.8824 151.082 14.9055 150.879 13.9518C150.675 12.9981 150.355 11.9889 149.92 10.924L150.906 10.5352C151.536 11.5722 151.99 12.6185 152.267 13.674C152.555 14.7203 152.698 15.7898 152.698 16.8824C152.698 17.9842 152.555 19.0629 152.267 20.1185C151.99 21.1648 151.536 22.2018 150.906 23.2296Z" fill="#272727"/>
</g>
<path d="M14.1129 6.75391C13.1218 8.3818 12.0843 10.3103 11.4148 12.2367C10.227 15.6546 9.19355 19.3672 8.47488 22.9367C7.98937 25.3479 7.53825 28.8756 7.52502 31.3236C7.5075 34.5817 7.62776 36.8032 8.28166 40.0727C9.20292 44.6789 11.2504 48.8986 14.0189 52.4907C18.0922 57.7753 24.8438 60.6577 31.1734 62.6064C36.1249 64.1308 41.8071 64.0032 46.6666 63.594L46.5801 62.2376C41.7657 62.6439 36.4773 62.6608 31.73 61.1962C25.6231 59.3119 19.4667 56.4199 15.1945 51.5628C12.5932 48.6064 10.6551 44.9411 9.57176 41.0263C8.62278 37.5969 8.40745 33.8212 8.29107 30.3517C8.19551 27.4994 8.50021 25.1031 9.01139 22.4914C9.65944 19.18 10.51 15.8501 11.5776 12.6755C12.2688 10.6206 13.4734 8.49809 14.4707 6.86009L14.1129 6.75391Z" fill="#828282"/>
<path d="M37.388 63.5977C37.388 63.5977 34.03 64.0083 31.8239 65.3586C28.3216 67.502 29.0235 69.9879 29.0235 69.9879C29.0235 69.9879 30.9261 70.2389 33.9505 68.4181C37.4935 66.2851 37.388 63.5977 37.388 63.5977Z" fill="#828282"/>
<path d="M30.8299 62.4222C30.8299 62.4222 27.8223 62.3714 25.4839 63.4694C21.4358 65.37 22.172 67.6695 22.172 67.6695C22.172 67.6695 24.1239 68.0682 27.3572 66.5262C31.0859 64.748 30.8299 62.4222 30.8299 62.4222Z" fill="#828282"/>
<path d="M25.4926 60.4674C25.4926 60.4674 22.2032 59.4598 19.6683 59.9295C15.2798 60.7426 15.0159 63.668 15.0159 63.668C15.0159 63.668 17.2785 64.7753 20.7893 64.1027C24.8382 63.327 25.4926 60.4674 25.4926 60.4674Z" fill="#828282"/>
<path d="M18.7918 56.7574C18.7918 56.7574 15.8163 55.5333 12.6774 55.9434C8.58092 56.4787 7.876 59.4553 7.85132 59.533C7.85132 59.533 10.1663 60.7347 13.6087 60.1438C18.2261 59.3513 18.7918 56.7574 18.7918 56.7574Z" fill="#828282"/>
<path d="M14.794 53.1899C14.794 53.1899 11.6238 51.1592 8.21683 51.0803C4.90689 51.0031 3.42955 53.0469 3.40015 53.1138C3.40015 53.1138 5.95265 55.0563 9.07361 55.1133C13.314 55.1907 14.794 53.1899 14.794 53.1899Z" fill="#828282"/>
<path d="M12.4279 49.5335C11.0003 49.0399 9.76423 46.4808 7.39195 45.0347C4.08242 43.0171 0.887661 44.7448 0.85083 44.7951C0.85083 44.7951 2.84132 48.2907 6.32572 49.3531C10.0288 50.4821 12.4279 49.5335 12.4279 49.5335Z" fill="#828282"/>
<path d="M9.39045 43.496C9.39045 43.496 8.06361 40.272 6.15546 38.2384C3.49361 35.4018 0.048778 36.1903 0 36.2287C0 36.2287 1.10232 40.0651 4.18306 42.0279C7.45719 44.1139 9.39045 43.496 9.39045 43.496Z" fill="#828282"/>
<path d="M8.05512 36.9247C8.05512 36.9247 7.48779 33.9666 6.03411 31.578C3.84318 27.9778 0.548416 28.519 0.494873 28.5504C0.494873 28.5504 1.07469 32.5522 3.86187 34.9236C6.82398 37.444 8.05512 36.9247 8.05512 36.9247Z" fill="#828282"/>
<path d="M7.77345 29.3377C7.77345 29.3377 7.71339 26.4532 6.43947 23.9614C4.67139 20.503 1.63413 20.0965 1.57703 20.1203C1.57703 20.1203 0.229271 23.2576 3.55175 27.1455C5.56716 29.5037 7.77345 29.3377 7.77345 29.3377Z" fill="#828282"/>
<path d="M8.70438 22.5658C8.70438 22.5658 9.16035 19.4966 8.45155 16.7834C7.78611 14.2362 5.68512 12.0946 5.36773 11.9551C5.36773 11.9551 3.39113 14.1925 5.37522 18.3734C6.70969 21.1854 8.70438 22.5658 8.70438 22.5658Z" fill="#828282"/>
<path d="M10.4688 15.6308C10.4688 15.6308 11.4032 12.8438 10.678 9.95514C10.0765 7.56161 8.60566 5.33681 7.92553 4.92566C7.92553 4.92566 6.23126 7.49931 7.74403 11.3387C8.88582 14.2365 10.0981 15.3074 10.4688 15.6308Z" fill="#828282"/>
<path d="M12.0041 11.1697C12.0041 11.1697 15.5094 9.70826 16.7714 7.9101C18.1841 5.89734 18.9689 2.57898 18.7969 1.79492C18.7969 1.79492 15.1748 1.84267 13.4573 5.59239C12.161 8.42247 11.9819 10.6745 12.0041 11.1697Z" fill="#828282"/>
<path d="M10.0935 17.1373C10.0935 17.1373 10.866 14.4196 13.4739 12.6086C15.4841 11.2127 17.325 10.7994 18.6886 10.94C18.6886 10.94 17.9931 13.8672 14.9378 15.6333C12.2642 17.1787 10.5824 17.1247 10.0935 17.1373Z" fill="#828282"/>
<path d="M8.70679 23.2215C8.70679 23.2215 9.43613 20.62 12.0441 18.809C14.0544 17.4132 15.2826 17.3302 16.6464 17.4708C16.6464 17.4708 16.241 20.1439 13.1857 21.91C10.5121 23.4554 9.19564 23.209 8.70679 23.2215Z" fill="#828282"/>
<path d="M8.03613 30.6349C8.03613 30.6349 8.46651 27.6443 10.6129 25.2914C12.8123 22.8804 14.4565 22.7912 15.824 22.6953C15.7052 23.4341 15.238 26.5008 13.0818 28.3495C10.7319 30.3644 8.51579 30.5385 8.03613 30.6349Z" fill="#828282"/>
<path d="M8.41504 36.7713C8.41504 36.7713 8.63337 33.757 10.6082 31.2546C12.6318 28.6901 14.2655 28.4819 15.6228 28.2871C15.5563 29.0327 15.3067 32.1253 13.2865 34.1258C11.0847 36.3059 8.88666 36.6403 8.41504 36.7713Z" fill="#828282"/>
<path d="M10.1677 43.4625C10.6378 41.4816 10.5452 39.6275 11.5754 37.2653C12.8446 34.3551 14.9501 34.1271 16.248 33.6797C16.1581 35.1258 16.065 37.3906 14.7893 39.6519C13.2613 42.3606 10.6071 43.2449 10.1677 43.4625Z" fill="#828282"/>
<path d="M12.8733 49.1254C13.1218 47.1038 13.0238 45.6621 13.7869 43.198C14.727 40.1619 16.7063 39.7129 17.9466 39.1211C18.0169 40.5681 18.031 42.7747 17.0129 45.1668C15.7934 48.0317 13.2858 48.8594 12.8733 49.1254Z" fill="#828282"/>
<path d="M16.1489 53.1267C16.5791 50.2107 16.1691 49.7844 16.7411 47.2675C17.3555 44.5644 19.2913 43.7397 20.4807 43.0488C20.6652 44.4856 20.8609 46.4539 20.0176 48.915C19.1184 51.5395 17.2235 52.1273 16.1489 53.1267Z" fill="#828282"/>
<path d="M20.5188 56.5137C20.5333 54.1024 19.8192 52.9297 20.0182 51.1335C20.344 48.1957 21.6334 47.4817 22.8231 46.791C23.1215 50.1268 23.357 50.0343 23.0514 52.2905C22.754 54.486 21.4143 55.3797 20.5188 56.5137Z" fill="#828282"/>
<path d="M25.0554 58.9648C24.6177 56.5945 23.8005 56.1838 23.6592 54.3819C23.4282 51.4349 24.5604 50.4854 25.5988 49.5781C26.2221 51.3407 26.9128 52.323 26.7984 54.5975C26.7177 56.2035 25.7221 57.6789 25.0554 58.9648Z" fill="#828282"/>
<path d="M28.927 52.1326C28.927 52.1326 30.8735 53.6855 31.5829 56.1972C32.5882 59.7561 31.0546 61.0648 31.0546 61.0648C31.0546 61.0648 29.3752 60.0101 28.0996 56.8883C26.7373 53.5537 28.927 52.1326 28.927 52.1326Z" fill="#828282"/>
<path d="M34.192 53.8047C34.192 53.8047 36.1507 55.3824 36.9841 57.8548C38.0522 61.0233 36.7533 62.5373 36.7533 62.5373C36.7533 62.5373 34.9622 61.3186 33.7731 58.7822C31.9574 54.9091 34.192 53.8047 34.192 53.8047Z" fill="#828282"/>
<g clip-path="url(#clip2_4324_19525)">
<path d="M254.015 6.75391C255.006 8.3818 256.043 10.3103 256.713 12.2367C257.901 15.6546 258.935 19.3672 259.653 22.9367C260.139 25.3479 260.59 28.8756 260.602 31.3236C260.62 34.5817 260.5 36.8032 259.847 40.0727C258.926 44.6789 256.878 48.8986 254.108 52.4907C250.036 57.7753 243.283 60.6577 236.955 62.6064C232.003 64.1308 226.32 64.0032 221.461 63.594L221.548 62.2376C226.363 62.6439 231.651 62.6608 236.398 61.1962C242.504 59.3119 248.661 56.4199 252.933 51.5628C255.535 48.6064 257.474 44.9411 258.556 41.0263C259.506 37.5969 259.721 33.8212 259.838 30.3517C259.933 27.4994 259.628 25.1031 259.116 22.4914C258.468 19.18 257.617 15.8501 256.551 12.6755C255.858 10.6206 254.654 8.49809 253.658 6.86009L254.015 6.75391Z" fill="#828282"/>
<path d="M230.741 63.5977C230.741 63.5977 234.097 64.0083 236.303 65.3586C239.807 67.502 239.105 69.9879 239.105 69.9879C239.105 69.9879 237.203 70.2389 234.178 68.4181C230.635 66.2851 230.741 63.5977 230.741 63.5977Z" fill="#828282"/>
<path d="M237.298 62.4222C237.298 62.4222 240.306 62.3714 242.645 63.4694C246.692 65.37 245.956 67.6695 245.956 67.6695C245.956 67.6695 244.003 68.0682 240.771 66.5262C237.043 64.748 237.298 62.4222 237.298 62.4222Z" fill="#828282"/>
<path d="M242.636 60.4674C242.636 60.4674 245.926 59.4598 248.46 59.9295C252.849 60.7426 253.112 63.668 253.112 63.668C253.112 63.668 250.849 64.7753 247.338 64.1027C243.291 63.327 242.636 60.4674 242.636 60.4674Z" fill="#828282"/>
<path d="M249.336 56.7574C249.336 56.7574 252.312 55.5333 255.451 55.9434C259.547 56.4787 260.252 59.4553 260.277 59.533C260.277 59.533 257.962 60.7347 254.52 60.1438C249.903 59.3513 249.336 56.7574 249.336 56.7574Z" fill="#828282"/>
<path d="M253.335 53.1899C253.335 53.1899 256.505 51.1592 259.911 51.0803C263.221 51.0031 264.698 53.0469 264.729 53.1138C264.729 53.1138 262.175 55.0563 259.055 55.1133C254.814 55.1907 253.335 53.1899 253.335 53.1899Z" fill="#828282"/>
<path d="M255.7 49.5335C257.127 49.0399 258.364 46.4808 260.737 45.0347C264.045 43.0171 267.24 44.7448 267.277 44.7951C267.277 44.7951 265.287 48.2907 261.803 49.3531C258.1 50.4821 255.7 49.5335 255.7 49.5335Z" fill="#828282"/>
<path d="M258.738 43.496C258.738 43.496 260.064 40.272 261.974 38.2384C264.635 35.4018 268.08 36.1903 268.128 36.2287C268.128 36.2287 267.026 40.0651 263.944 42.0279C260.671 44.1139 258.738 43.496 258.738 43.496Z" fill="#828282"/>
<path d="M260.073 36.9247C260.073 36.9247 260.64 33.9666 262.094 31.578C264.285 27.9778 267.579 28.519 267.633 28.5504C267.633 28.5504 267.053 32.5522 264.266 34.9236C261.304 37.444 260.073 36.9247 260.073 36.9247Z" fill="#828282"/>
<path d="M260.355 29.3377C260.355 29.3377 260.416 26.4532 261.688 23.9614C263.456 20.503 266.495 20.0965 266.551 20.1203C266.551 20.1203 267.899 23.2576 264.576 27.1455C262.561 29.5037 260.355 29.3377 260.355 29.3377Z" fill="#828282"/>
<path d="M259.423 22.5658C259.423 22.5658 258.967 19.4966 259.676 16.7834C260.342 14.2362 262.444 12.0946 262.76 11.9551C262.76 11.9551 264.738 14.1925 262.753 18.3734C261.419 21.1854 259.423 22.5658 259.423 22.5658Z" fill="#828282"/>
<path d="M257.659 15.6308C257.659 15.6308 256.725 12.8438 257.45 9.95514C258.052 7.56161 259.522 5.33681 260.202 4.92566C260.202 4.92566 261.896 7.49931 260.383 11.3387C259.242 14.2365 258.03 15.3074 257.659 15.6308Z" fill="#828282"/>
<path d="M256.124 11.1697C256.124 11.1697 252.619 9.70826 251.357 7.9101C249.944 5.89734 249.16 2.57898 249.332 1.79492C249.332 1.79492 252.954 1.84267 254.67 5.59239C255.968 8.42247 256.146 10.6745 256.124 11.1697Z" fill="#828282"/>
<path d="M258.036 17.1373C258.036 17.1373 257.262 14.4196 254.654 12.6086C252.644 11.2127 250.804 10.7994 249.44 10.94C249.44 10.94 250.135 13.8672 253.191 15.6333C255.864 17.1787 257.546 17.1247 258.036 17.1373Z" fill="#828282"/>
<path d="M259.421 23.2215C259.421 23.2215 258.693 20.62 256.085 18.809C254.074 17.4132 252.845 17.3302 251.483 17.4708C251.483 17.4708 251.887 20.1439 254.943 21.91C257.616 23.4554 258.933 23.209 259.421 23.2215Z" fill="#828282"/>
<path d="M260.093 30.6349C260.093 30.6349 259.662 27.6443 257.515 25.2914C255.316 22.8804 253.672 22.7912 252.305 22.6953C252.423 23.4341 252.89 26.5008 255.047 28.3495C257.397 30.3644 259.613 30.5385 260.093 30.6349Z" fill="#828282"/>
<path d="M259.714 36.7713C259.714 36.7713 259.495 33.757 257.52 31.2546C255.496 28.6901 253.863 28.4819 252.506 28.2871C252.572 29.0327 252.822 32.1253 254.843 34.1258C257.043 36.3059 259.242 36.6403 259.714 36.7713Z" fill="#828282"/>
<path d="M257.96 43.4625C257.49 41.4816 257.583 39.6275 256.553 37.2653C255.284 34.3551 253.179 34.1271 251.881 33.6797C251.971 35.1258 252.062 37.3906 253.339 39.6519C254.868 42.3606 257.521 43.2449 257.96 43.4625Z" fill="#828282"/>
<path d="M255.255 49.1254C255.006 47.1038 255.105 45.6621 254.342 43.198C253.401 40.1619 251.422 39.7129 250.181 39.1211C250.111 40.5681 250.097 42.7747 251.115 45.1668C252.335 48.0317 254.843 48.8594 255.255 49.1254Z" fill="#828282"/>
<path d="M251.98 53.1267C251.549 50.2107 251.96 49.7844 251.388 47.2675C250.774 44.5644 248.837 43.7397 247.647 43.0488C247.464 44.4856 247.267 46.4539 248.11 48.915C249.009 51.5395 250.905 52.1273 251.98 53.1267Z" fill="#828282"/>
<path d="M247.609 56.5137C247.595 54.1024 248.309 52.9297 248.11 51.1335C247.783 48.1957 246.495 47.4817 245.305 46.791C245.007 50.1268 244.772 50.0343 245.077 52.2905C245.375 54.486 246.714 55.3797 247.609 56.5137Z" fill="#828282"/>
<path d="M243.074 58.9648C243.51 56.5945 244.328 56.1838 244.47 54.3819C244.7 51.4349 243.567 50.4854 242.53 49.5781C241.907 51.3407 241.216 52.323 241.329 54.5975C241.412 56.2035 242.406 57.6789 243.074 58.9648Z" fill="#828282"/>
<path d="M239.202 52.1326C239.202 52.1326 237.255 53.6855 236.546 56.1972C235.541 59.7561 237.073 61.0648 237.073 61.0648C237.073 61.0648 238.753 60.0101 240.028 56.8883C241.392 53.5537 239.202 52.1326 239.202 52.1326Z" fill="#828282"/>
<path d="M233.936 53.8047C233.936 53.8047 231.978 55.3824 231.145 57.8548C230.075 61.0233 231.375 62.5373 231.375 62.5373C231.375 62.5373 233.166 61.3186 234.356 58.7822C236.17 54.9091 233.936 53.8047 233.936 53.8047Z" fill="#828282"/>
</g>
<defs>
<clipPath id="clip0_4324_19525">
<rect width="187" height="50" fill="white" transform="translate(41)"/>
</clipPath>
<clipPath id="clip1_4324_19525">
<rect width="75.409" height="20.8333" fill="white" transform="translate(41.9443)"/>
</clipPath>
<clipPath id="clip2_4324_19525">
<rect width="48" height="70" fill="white" transform="translate(220)"/>
</clipPath>
</defs>
</svg>
