<svg width="200" height="70" viewBox="0 0 200 70" fill="none" xmlns="http://www.w3.org/2000/svg">
<g clip-path="url(#clip0_4324_19590)">
<g clip-path="url(#clip1_4324_19590)">
<path d="M98.1175 5.71536C94.4585 5.73292 91.4778 8.74036 91.4946 12.4849C91.5114 16.2295 94.5219 19.2087 98.1809 19.1919C101.84 19.1751 104.821 16.1669 104.804 12.4238C104.786 8.68077 101.777 5.69931 98.116 5.71688L98.1175 5.71536ZM98.1679 16.4457C97.1305 16.4518 96.1337 16.0447 95.3965 15.3151C94.6594 14.5856 94.2507 13.5918 94.2392 12.5545C94.2278 11.5171 94.6403 10.5202 95.3698 9.78306C96.0993 9.04591 97.0931 8.63723 98.1305 8.62577C99.1678 8.61431 100.165 9.02681 100.902 9.75633C101.639 10.4858 102.048 11.4797 102.059 12.517C102.07 14.5986 100.249 16.435 98.1679 16.4457ZM112.942 8.88931C111.028 8.89848 109.538 10.4858 109.547 12.3994L109.577 18.8046L106.665 18.8183L106.607 6.08966L109.519 6.07591L109.528 8.07195C109.528 8.07195 110.766 6.07056 113.262 6.05911L114.095 6.05452L114.109 8.88244L112.942 8.88931ZM83.8939 6.19813L86.0985 14.9233L88.3871 6.17674L91.299 6.16376L87.6965 18.9169L84.8686 18.9299L82.5815 10.0397L80.3769 18.9505L77.5482 18.9635L73.7456 6.25237L76.5735 6.23938L79.1096 14.963L81.1492 6.21799L83.8939 6.19813ZM122.604 11.8402C124.594 10.6669 125.999 8.49668 125.988 6.00105L123.076 6.0148C123.087 8.17813 121.347 9.93355 119.267 9.94119L118.851 9.94272L118.805 -0.123047L115.893 -0.109297L115.983 18.774L118.893 18.761L118.865 12.7722L119.198 12.7706C119.531 12.7691 119.865 12.9341 119.949 13.1831L124.052 18.7366L127.462 18.7213L122.604 11.8402Z" fill="#272727"/>
<path d="M67.0067 5.8618C63.8465 5.87708 61.4433 7.96785 60.5442 11.2992C59.0355 8.97694 57.8583 6.3209 57.1831 4.07812L53.8563 4.0934L53.8976 12.911C53.9012 13.7493 53.5719 14.5548 52.9818 15.1504C52.3918 15.746 51.5895 16.083 50.7511 16.0872C49.9128 16.0909 49.1073 15.7615 48.5117 15.1715C47.9161 14.5815 47.5791 13.7791 47.5749 12.9408L47.5329 4.12319L44.2046 4.13847L44.2458 12.956C44.2634 16.6151 47.1868 19.5148 50.7649 19.4972C54.3429 19.4797 57.2411 16.5547 57.2243 12.8949L57.2167 11.3977C57.8874 12.7246 58.7261 14.1347 59.6481 15.3791L57.6139 25.121L61.0239 25.1057L62.4906 18.0275C63.8251 18.854 65.317 19.3452 67.0708 19.3368C70.7314 19.3192 73.7129 16.3118 73.6938 12.4847C73.6798 10.7215 72.9689 9.03531 71.7162 7.79434C70.4635 6.55337 68.7708 5.85836 67.0074 5.86104L67.0067 5.8618ZM67.054 15.9276C65.7233 15.9337 64.3904 15.3577 63.3049 14.4472L63.631 13.1157V13.0393C63.8755 11.6231 64.6104 9.20764 67.1067 9.19694C67.987 9.19549 68.8321 9.54174 69.4583 10.1603C70.0845 10.7789 70.441 11.6198 70.4503 12.5C70.3754 14.4135 68.8026 15.9184 67.0548 15.9268L67.054 15.9276Z" fill="#6FDA44"/>
</g>
<path d="M159.444 15.2778V1.38892L149.028 8.33336L138.611 15.2778L149.028 23.2639L159.444 15.2778Z" fill="#FF057B"/>
<path d="M159.444 1.38892H138.611L149.028 8.33336L159.444 1.38892Z" fill="#FF9CBE"/>
<path d="M138.611 1.38892V15.2778L149.028 8.33336L138.611 1.38892Z" fill="#FF619C"/>
<path d="M47.7779 46.334V37.5284H44.2223V36.5423H52.4862V37.5284H48.9306V46.334H47.7779ZM57.2309 46.459C56.3235 46.459 55.5318 46.2553 54.8559 45.8479C54.1892 45.4312 53.6707 44.8479 53.3003 44.0979C52.9392 43.3479 52.7587 42.459 52.7587 41.4312C52.7587 40.4034 52.9392 39.5145 53.3003 38.7645C53.6614 38.0145 54.1753 37.4358 54.842 37.0284C55.5179 36.621 56.3142 36.4173 57.2309 36.4173C58.1568 36.4173 58.9531 36.621 59.6198 37.0284C60.2957 37.4358 60.8142 38.0145 61.1753 38.7645C61.5457 39.5053 61.7309 40.3895 61.7309 41.4173C61.7309 42.4451 61.5457 43.3386 61.1753 44.0979C60.8049 44.8479 60.2818 45.4312 59.6059 45.8479C58.9392 46.2553 58.1475 46.459 57.2309 46.459ZM57.2309 45.4451C58.2772 45.4451 59.0874 45.0932 59.6614 44.3895C60.2355 43.6858 60.5225 42.6997 60.5225 41.4312C60.5225 40.1627 60.2355 39.1812 59.6614 38.4868C59.0874 37.7831 58.2772 37.4312 57.2309 37.4312C56.2031 37.4312 55.4022 37.7831 54.8281 38.4868C54.254 39.1812 53.967 40.1627 53.967 41.4312C53.967 42.6905 54.254 43.6766 54.8281 44.3895C55.4022 45.0932 56.2031 45.4451 57.2309 45.4451ZM63.767 46.334V36.5423H67.642C68.6976 36.5423 69.5031 36.7969 70.0587 37.3062C70.6235 37.8155 70.9059 38.5423 70.9059 39.4868C70.9059 40.4219 70.6235 41.1488 70.0587 41.6673C69.5031 42.1766 68.6976 42.4312 67.642 42.4312H64.9059V46.334H63.767ZM64.9059 41.4729H67.5031C69.0216 41.4729 69.7809 40.8108 69.7809 39.4868C69.7809 38.1534 69.0216 37.4868 67.5031 37.4868H64.9059V41.4729ZM76.1232 46.334V36.5423H79.9982C81.0538 36.5423 81.8593 36.7877 82.4149 37.2784C82.9797 37.7692 83.2621 38.4682 83.2621 39.3757C83.2621 40.0979 83.063 40.6905 82.6649 41.1534C82.276 41.6164 81.7205 41.9173 80.9982 42.0562C81.4242 42.2044 81.7899 42.5655 82.0955 43.1395L83.8177 46.334H82.5677L80.8732 43.1951C80.6603 42.8062 80.4149 42.5423 80.1371 42.4034C79.8593 42.2645 79.4936 42.1951 79.0399 42.1951H77.2621V46.334H76.1232ZM77.2621 41.2923H79.8316C81.3686 41.2923 82.1371 40.6534 82.1371 39.3757C82.1371 38.1164 81.3686 37.4868 79.8316 37.4868H77.2621V41.2923ZM84.3205 46.334L88.6399 36.5423H89.6122L93.9316 46.334H92.7511L91.6677 43.834H86.5705L85.5011 46.334H84.3205ZM89.1122 37.8757L86.9872 42.8757H91.2649L89.1399 37.8757H89.1122ZM96.7281 46.334V37.5284H93.1725V36.5423H101.436V37.5284H97.8808V46.334H96.7281ZM102.68 46.334V36.5423H108.861V37.5007H103.791V40.8895H108.569V41.8479H103.791V45.3757H108.861V46.334H102.68ZM110.778 46.334V36.5423H114.083C115.667 36.5423 116.889 36.9636 117.75 37.8062C118.611 38.6395 119.042 39.8479 119.042 41.4312C119.042 43.0145 118.611 44.2275 117.75 45.0701C116.889 45.9127 115.667 46.334 114.083 46.334H110.778ZM111.917 45.3618H114C116.555 45.3618 117.833 44.0516 117.833 41.4312C117.833 38.8201 116.555 37.5145 114 37.5145H111.917V45.3618ZM124.653 46.334V36.5423H128.528C129.584 36.5423 130.389 36.7969 130.945 37.3062C131.509 37.8155 131.792 38.5423 131.792 39.4868C131.792 40.4219 131.509 41.1488 130.945 41.6673C130.389 42.1766 129.584 42.4312 128.528 42.4312H125.792V46.334H124.653ZM125.792 41.4729H128.389C129.908 41.4729 130.667 40.8108 130.667 39.4868C130.667 38.1534 129.908 37.4868 128.389 37.4868H125.792V41.4729ZM133.442 46.334V36.5423H134.581V45.334H139.567V46.334H133.442ZM144.478 46.459C143.191 46.459 142.214 46.121 141.548 45.4451C140.881 44.7599 140.548 43.7645 140.548 42.459V36.5423H141.686V42.4034C141.686 44.4312 142.617 45.4451 144.478 45.4451C146.321 45.4451 147.242 44.4312 147.242 42.4034V36.5423H148.381V42.459C148.381 43.7645 148.048 44.7599 147.381 45.4451C146.724 46.121 145.756 46.459 144.478 46.459ZM153.888 46.459C153.12 46.459 152.425 46.3618 151.805 46.1673C151.185 45.9636 150.648 45.6719 150.194 45.2923L150.597 44.3757C151.069 44.7368 151.564 45.0053 152.083 45.1812C152.601 45.3571 153.203 45.4451 153.888 45.4451C154.722 45.4451 155.337 45.2923 155.736 44.9868C156.143 44.6719 156.347 44.2599 156.347 43.7507C156.347 43.3432 156.199 43.0192 155.902 42.7784C155.615 42.5377 155.129 42.3479 154.444 42.209L153 41.9173C152.129 41.7321 151.476 41.4312 151.041 41.0145C150.615 40.5886 150.402 40.0238 150.402 39.3201C150.402 38.7368 150.55 38.2275 150.847 37.7923C151.152 37.3571 151.574 37.0192 152.111 36.7784C152.648 36.5377 153.268 36.4173 153.972 36.4173C154.629 36.4173 155.24 36.5238 155.805 36.7368C156.37 36.9405 156.847 37.2368 157.236 37.6257L156.833 38.5145C156.416 38.1349 155.976 37.8618 155.513 37.6951C155.05 37.5192 154.532 37.4312 153.958 37.4312C153.226 37.4312 152.643 37.6025 152.208 37.9451C151.773 38.2784 151.555 38.7229 151.555 39.2784C151.555 39.7229 151.689 40.0747 151.958 40.334C152.236 40.5932 152.685 40.7831 153.305 40.9034L154.75 41.209C155.685 41.4034 156.375 41.6997 156.819 42.0979C157.273 42.4868 157.5 43.0192 157.5 43.6951C157.5 44.2414 157.351 44.7229 157.055 45.1395C156.768 45.5562 156.351 45.8803 155.805 46.1118C155.268 46.3432 154.629 46.459 153.888 46.459Z" fill="#828282"/>
</g>
<path d="M14.1129 6.75391C13.1218 8.3818 12.0843 10.3103 11.4148 12.2367C10.227 15.6546 9.19355 19.3672 8.47488 22.9367C7.98937 25.3479 7.53825 28.8756 7.52502 31.3236C7.5075 34.5817 7.62776 36.8032 8.28166 40.0727C9.20292 44.6789 11.2504 48.8986 14.0189 52.4907C18.0922 57.7753 24.8438 60.6577 31.1734 62.6064C36.1249 64.1308 41.8071 64.0032 46.6666 63.594L46.5801 62.2376C41.7657 62.6439 36.4773 62.6608 31.73 61.1962C25.6231 59.3119 19.4667 56.4199 15.1945 51.5628C12.5932 48.6064 10.6551 44.9411 9.57176 41.0263C8.62278 37.5969 8.40745 33.8212 8.29107 30.3517C8.19551 27.4994 8.50021 25.1031 9.01139 22.4914C9.65944 19.18 10.51 15.8501 11.5776 12.6755C12.2688 10.6206 13.4734 8.49809 14.4707 6.86009L14.1129 6.75391Z" fill="#828282"/>
<path d="M37.388 63.5977C37.388 63.5977 34.03 64.0083 31.8239 65.3586C28.3216 67.502 29.0235 69.9879 29.0235 69.9879C29.0235 69.9879 30.9261 70.2389 33.9505 68.4181C37.4935 66.2851 37.388 63.5977 37.388 63.5977Z" fill="#828282"/>
<path d="M30.8299 62.4222C30.8299 62.4222 27.8223 62.3714 25.4839 63.4694C21.4358 65.37 22.172 67.6695 22.172 67.6695C22.172 67.6695 24.1239 68.0682 27.3572 66.5262C31.0859 64.748 30.8299 62.4222 30.8299 62.4222Z" fill="#828282"/>
<path d="M25.4926 60.4674C25.4926 60.4674 22.2032 59.4598 19.6683 59.9295C15.2798 60.7426 15.0159 63.668 15.0159 63.668C15.0159 63.668 17.2785 64.7753 20.7893 64.1027C24.8382 63.327 25.4926 60.4674 25.4926 60.4674Z" fill="#828282"/>
<path d="M18.7918 56.7574C18.7918 56.7574 15.8163 55.5333 12.6774 55.9434C8.58092 56.4787 7.876 59.4553 7.85132 59.533C7.85132 59.533 10.1663 60.7347 13.6087 60.1438C18.2261 59.3513 18.7918 56.7574 18.7918 56.7574Z" fill="#828282"/>
<path d="M14.794 53.1899C14.794 53.1899 11.6238 51.1592 8.21683 51.0803C4.90689 51.0031 3.42955 53.0469 3.40015 53.1138C3.40015 53.1138 5.95265 55.0563 9.07361 55.1133C13.314 55.1907 14.794 53.1899 14.794 53.1899Z" fill="#828282"/>
<path d="M12.4279 49.5335C11.0003 49.0399 9.76423 46.4808 7.39195 45.0347C4.08242 43.0171 0.887661 44.7448 0.85083 44.7951C0.85083 44.7951 2.84132 48.2907 6.32572 49.3531C10.0288 50.4821 12.4279 49.5335 12.4279 49.5335Z" fill="#828282"/>
<path d="M9.39045 43.496C9.39045 43.496 8.06361 40.272 6.15546 38.2384C3.49361 35.4018 0.048778 36.1903 0 36.2287C0 36.2287 1.10232 40.0651 4.18306 42.0279C7.45719 44.1139 9.39045 43.496 9.39045 43.496Z" fill="#828282"/>
<path d="M8.05512 36.9247C8.05512 36.9247 7.48779 33.9666 6.03411 31.578C3.84318 27.9778 0.548416 28.519 0.494873 28.5504C0.494873 28.5504 1.07469 32.5522 3.86187 34.9236C6.82398 37.444 8.05512 36.9247 8.05512 36.9247Z" fill="#828282"/>
<path d="M7.77345 29.3377C7.77345 29.3377 7.71339 26.4532 6.43947 23.9614C4.67139 20.503 1.63413 20.0965 1.57703 20.1203C1.57703 20.1203 0.229271 23.2576 3.55175 27.1455C5.56716 29.5037 7.77345 29.3377 7.77345 29.3377Z" fill="#828282"/>
<path d="M8.70438 22.5658C8.70438 22.5658 9.16035 19.4966 8.45155 16.7834C7.78611 14.2362 5.68512 12.0946 5.36773 11.9551C5.36773 11.9551 3.39113 14.1925 5.37522 18.3734C6.70969 21.1854 8.70438 22.5658 8.70438 22.5658Z" fill="#828282"/>
<path d="M10.4688 15.6308C10.4688 15.6308 11.4032 12.8438 10.678 9.95514C10.0765 7.56161 8.60566 5.33681 7.92553 4.92566C7.92553 4.92566 6.23126 7.49931 7.74403 11.3387C8.88582 14.2365 10.0981 15.3074 10.4688 15.6308Z" fill="#828282"/>
<path d="M12.0041 11.1697C12.0041 11.1697 15.5094 9.70826 16.7714 7.9101C18.1841 5.89734 18.9689 2.57898 18.7969 1.79492C18.7969 1.79492 15.1748 1.84267 13.4573 5.59239C12.161 8.42247 11.9819 10.6745 12.0041 11.1697Z" fill="#828282"/>
<path d="M10.0935 17.1373C10.0935 17.1373 10.866 14.4196 13.4739 12.6086C15.4841 11.2127 17.325 10.7994 18.6886 10.94C18.6886 10.94 17.9931 13.8672 14.9378 15.6333C12.2642 17.1787 10.5824 17.1247 10.0935 17.1373Z" fill="#828282"/>
<path d="M8.70679 23.2215C8.70679 23.2215 9.43613 20.62 12.0441 18.809C14.0544 17.4132 15.2826 17.3302 16.6464 17.4708C16.6464 17.4708 16.241 20.1439 13.1857 21.91C10.5121 23.4554 9.19564 23.209 8.70679 23.2215Z" fill="#828282"/>
<path d="M8.03613 30.6349C8.03613 30.6349 8.46651 27.6443 10.6129 25.2914C12.8123 22.8804 14.4565 22.7912 15.824 22.6953C15.7052 23.4341 15.238 26.5008 13.0818 28.3495C10.7319 30.3644 8.51579 30.5385 8.03613 30.6349Z" fill="#828282"/>
<path d="M8.41504 36.7713C8.41504 36.7713 8.63337 33.757 10.6082 31.2546C12.6318 28.6901 14.2655 28.4819 15.6228 28.2871C15.5563 29.0327 15.3067 32.1253 13.2865 34.1258C11.0847 36.3059 8.88666 36.6403 8.41504 36.7713Z" fill="#828282"/>
<path d="M10.1677 43.4625C10.6378 41.4816 10.5452 39.6275 11.5754 37.2653C12.8446 34.3551 14.9501 34.1271 16.248 33.6797C16.1581 35.1258 16.065 37.3906 14.7893 39.6519C13.2613 42.3606 10.6071 43.2449 10.1677 43.4625Z" fill="#828282"/>
<path d="M12.8733 49.1254C13.1218 47.1038 13.0238 45.6621 13.7869 43.198C14.727 40.1619 16.7063 39.7129 17.9466 39.1211C18.0169 40.5681 18.031 42.7747 17.0129 45.1668C15.7934 48.0317 13.2858 48.8594 12.8733 49.1254Z" fill="#828282"/>
<path d="M16.1489 53.1267C16.5791 50.2107 16.1691 49.7844 16.7411 47.2675C17.3555 44.5644 19.2913 43.7397 20.4807 43.0488C20.6652 44.4856 20.8609 46.4539 20.0176 48.915C19.1184 51.5395 17.2235 52.1273 16.1489 53.1267Z" fill="#828282"/>
<path d="M20.5188 56.5137C20.5333 54.1024 19.8192 52.9297 20.0182 51.1335C20.344 48.1957 21.6334 47.4817 22.8231 46.791C23.1215 50.1268 23.357 50.0343 23.0514 52.2905C22.754 54.486 21.4143 55.3797 20.5188 56.5137Z" fill="#828282"/>
<path d="M25.0554 58.9648C24.6177 56.5945 23.8005 56.1838 23.6592 54.3819C23.4282 51.4349 24.5604 50.4854 25.5988 49.5781C26.2221 51.3407 26.9128 52.323 26.7984 54.5975C26.7177 56.2035 25.7221 57.6789 25.0554 58.9648Z" fill="#828282"/>
<path d="M28.927 52.1326C28.927 52.1326 30.8735 53.6855 31.5829 56.1972C32.5882 59.7561 31.0546 61.0648 31.0546 61.0648C31.0546 61.0648 29.3752 60.0101 28.0996 56.8883C26.7373 53.5537 28.927 52.1326 28.927 52.1326Z" fill="#828282"/>
<path d="M34.192 53.8047C34.192 53.8047 36.1507 55.3824 36.9841 57.8548C38.0522 61.0233 36.7533 62.5373 36.7533 62.5373C36.7533 62.5373 34.9622 61.3186 33.7731 58.7822C31.9574 54.9091 34.192 53.8047 34.192 53.8047Z" fill="#828282"/>
<g clip-path="url(#clip2_4324_19590)">
<path d="M186.015 6.75391C187.006 8.3818 188.043 10.3103 188.713 12.2367C189.901 15.6546 190.935 19.3672 191.653 22.9367C192.139 25.3479 192.59 28.8756 192.602 31.3236C192.62 34.5817 192.5 36.8032 191.847 40.0727C190.926 44.6789 188.878 48.8986 186.108 52.4907C182.036 57.7753 175.283 60.6577 168.955 62.6064C164.003 64.1308 158.32 64.0032 153.461 63.594L153.548 62.2376C158.363 62.6439 163.651 62.6608 168.398 61.1962C174.504 59.3119 180.661 56.4199 184.933 51.5628C187.535 48.6064 189.474 44.9411 190.556 41.0263C191.506 37.5969 191.721 33.8212 191.838 30.3517C191.933 27.4994 191.628 25.1031 191.116 22.4914C190.468 19.18 189.617 15.8501 188.551 12.6755C187.858 10.6206 186.654 8.49809 185.658 6.86009L186.015 6.75391Z" fill="#828282"/>
<path d="M162.741 63.5977C162.741 63.5977 166.097 64.0083 168.303 65.3586C171.807 67.502 171.105 69.9879 171.105 69.9879C171.105 69.9879 169.203 70.2389 166.178 68.4181C162.635 66.2851 162.741 63.5977 162.741 63.5977Z" fill="#828282"/>
<path d="M169.298 62.4222C169.298 62.4222 172.306 62.3714 174.645 63.4694C178.692 65.37 177.956 67.6695 177.956 67.6695C177.956 67.6695 176.003 68.0682 172.771 66.5262C169.043 64.748 169.298 62.4222 169.298 62.4222Z" fill="#828282"/>
<path d="M174.636 60.4674C174.636 60.4674 177.926 59.4598 180.46 59.9295C184.849 60.7426 185.112 63.668 185.112 63.668C185.112 63.668 182.849 64.7753 179.338 64.1027C175.291 63.327 174.636 60.4674 174.636 60.4674Z" fill="#828282"/>
<path d="M181.336 56.7574C181.336 56.7574 184.312 55.5333 187.451 55.9434C191.547 56.4787 192.252 59.4553 192.277 59.533C192.277 59.533 189.962 60.7347 186.52 60.1438C181.903 59.3513 181.336 56.7574 181.336 56.7574Z" fill="#828282"/>
<path d="M185.335 53.1899C185.335 53.1899 188.505 51.1592 191.911 51.0803C195.221 51.0031 196.698 53.0469 196.729 53.1138C196.729 53.1138 194.175 55.0563 191.055 55.1133C186.814 55.1907 185.335 53.1899 185.335 53.1899Z" fill="#828282"/>
<path d="M187.7 49.5335C189.127 49.0399 190.364 46.4808 192.737 45.0347C196.045 43.0171 199.24 44.7448 199.277 44.7951C199.277 44.7951 197.287 48.2907 193.803 49.3531C190.1 50.4821 187.7 49.5335 187.7 49.5335Z" fill="#828282"/>
<path d="M190.738 43.496C190.738 43.496 192.064 40.272 193.974 38.2384C196.635 35.4018 200.08 36.1903 200.128 36.2287C200.128 36.2287 199.026 40.0651 195.944 42.0279C192.671 44.1139 190.738 43.496 190.738 43.496Z" fill="#828282"/>
<path d="M192.073 36.9247C192.073 36.9247 192.64 33.9666 194.094 31.578C196.285 27.9778 199.579 28.519 199.633 28.5504C199.633 28.5504 199.053 32.5522 196.266 34.9236C193.304 37.444 192.073 36.9247 192.073 36.9247Z" fill="#828282"/>
<path d="M192.355 29.3377C192.355 29.3377 192.416 26.4532 193.688 23.9614C195.456 20.503 198.495 20.0965 198.551 20.1203C198.551 20.1203 199.899 23.2576 196.576 27.1455C194.561 29.5037 192.355 29.3377 192.355 29.3377Z" fill="#828282"/>
<path d="M191.423 22.5658C191.423 22.5658 190.967 19.4966 191.676 16.7834C192.342 14.2362 194.444 12.0946 194.76 11.9551C194.76 11.9551 196.738 14.1925 194.753 18.3734C193.419 21.1854 191.423 22.5658 191.423 22.5658Z" fill="#828282"/>
<path d="M189.659 15.6308C189.659 15.6308 188.725 12.8438 189.45 9.95514C190.052 7.56161 191.522 5.33681 192.202 4.92566C192.202 4.92566 193.896 7.49931 192.383 11.3387C191.242 14.2365 190.03 15.3074 189.659 15.6308Z" fill="#828282"/>
<path d="M188.124 11.1697C188.124 11.1697 184.619 9.70826 183.357 7.9101C181.944 5.89734 181.16 2.57898 181.332 1.79492C181.332 1.79492 184.954 1.84267 186.67 5.59239C187.968 8.42247 188.146 10.6745 188.124 11.1697Z" fill="#828282"/>
<path d="M190.036 17.1373C190.036 17.1373 189.262 14.4196 186.654 12.6086C184.644 11.2127 182.804 10.7994 181.44 10.94C181.44 10.94 182.135 13.8672 185.191 15.6333C187.864 17.1787 189.546 17.1247 190.036 17.1373Z" fill="#828282"/>
<path d="M191.421 23.2215C191.421 23.2215 190.693 20.62 188.085 18.809C186.074 17.4132 184.845 17.3302 183.483 17.4708C183.483 17.4708 183.887 20.1439 186.943 21.91C189.616 23.4554 190.933 23.209 191.421 23.2215Z" fill="#828282"/>
<path d="M192.093 30.6349C192.093 30.6349 191.662 27.6443 189.515 25.2914C187.316 22.8804 185.672 22.7912 184.305 22.6953C184.423 23.4341 184.89 26.5008 187.047 28.3495C189.397 30.3644 191.613 30.5385 192.093 30.6349Z" fill="#828282"/>
<path d="M191.714 36.7713C191.714 36.7713 191.495 33.757 189.52 31.2546C187.496 28.6901 185.863 28.4819 184.506 28.2871C184.572 29.0327 184.822 32.1253 186.843 34.1258C189.043 36.3059 191.242 36.6403 191.714 36.7713Z" fill="#828282"/>
<path d="M189.96 43.4625C189.49 41.4816 189.583 39.6275 188.553 37.2653C187.284 34.3551 185.179 34.1271 183.881 33.6797C183.971 35.1258 184.062 37.3906 185.339 39.6519C186.868 42.3606 189.521 43.2449 189.96 43.4625Z" fill="#828282"/>
<path d="M187.255 49.1254C187.006 47.1038 187.105 45.6621 186.342 43.198C185.401 40.1619 183.422 39.7129 182.181 39.1211C182.111 40.5681 182.097 42.7747 183.115 45.1668C184.335 48.0317 186.843 48.8594 187.255 49.1254Z" fill="#828282"/>
<path d="M183.98 53.1267C183.549 50.2107 183.96 49.7844 183.388 47.2675C182.774 44.5644 180.837 43.7397 179.647 43.0488C179.464 44.4856 179.267 46.4539 180.11 48.915C181.009 51.5395 182.905 52.1273 183.98 53.1267Z" fill="#828282"/>
<path d="M179.609 56.5137C179.595 54.1024 180.309 52.9297 180.11 51.1335C179.783 48.1957 178.495 47.4817 177.305 46.791C177.007 50.1268 176.772 50.0343 177.077 52.2905C177.375 54.486 178.714 55.3797 179.609 56.5137Z" fill="#828282"/>
<path d="M175.074 58.9648C175.51 56.5945 176.328 56.1838 176.47 54.3819C176.7 51.4349 175.567 50.4854 174.53 49.5781C173.907 51.3407 173.216 52.323 173.329 54.5975C173.412 56.2035 174.406 57.6789 175.074 58.9648Z" fill="#828282"/>
<path d="M171.202 52.1326C171.202 52.1326 169.255 53.6855 168.546 56.1972C167.541 59.7561 169.073 61.0648 169.073 61.0648C169.073 61.0648 170.753 60.0101 172.028 56.8883C173.392 53.5537 171.202 52.1326 171.202 52.1326Z" fill="#828282"/>
<path d="M165.936 53.8047C165.936 53.8047 163.978 55.3824 163.145 57.8548C162.075 61.0233 163.375 62.5373 163.375 62.5373C163.375 62.5373 165.166 61.3186 166.356 58.7822C168.17 54.9091 165.936 53.8047 165.936 53.8047Z" fill="#828282"/>
</g>
<defs>
<clipPath id="clip0_4324_19590">
<rect width="120" height="50" fill="white" transform="translate(40)"/>
</clipPath>
<clipPath id="clip1_4324_19590">
<rect width="91.6667" height="23.6111" fill="white" transform="translate(40)"/>
</clipPath>
<clipPath id="clip2_4324_19590">
<rect width="48" height="70" fill="white" transform="translate(152)"/>
</clipPath>
</defs>
</svg>
