<svg width="268" height="70" viewBox="0 0 268 70" fill="none" xmlns="http://www.w3.org/2000/svg">
<g clip-path="url(#clip0_4267_11115)">
<path d="M46.8444 46.8348C45.9778 46.8348 45.2361 46.6515 44.6194 46.2848C44.0028 45.9181 43.5278 45.3973 43.1944 44.7223C42.8694 44.0473 42.7069 43.2431 42.7069 42.3098C42.7069 41.3848 42.8694 40.5848 43.1944 39.9098C43.5278 39.2348 44.0028 38.714 44.6194 38.3473C45.2361 37.9806 45.9778 37.7973 46.8444 37.7973C47.4528 37.7973 48.0111 37.8931 48.5194 38.0848C49.0361 38.2765 49.4736 38.5556 49.8319 38.9223L49.4319 39.7598C49.0486 39.4015 48.6486 39.1431 48.2319 38.9848C47.8236 38.8181 47.3694 38.7348 46.8694 38.7348C45.8778 38.7348 45.1194 39.0473 44.5944 39.6723C44.0694 40.2973 43.8069 41.1765 43.8069 42.3098C43.8069 43.4515 44.0694 44.3348 44.5944 44.9598C45.1194 45.5848 45.8778 45.8973 46.8694 45.8973C47.3694 45.8973 47.8236 45.8181 48.2319 45.6598C48.6486 45.4931 49.0486 45.2306 49.4319 44.8723L49.8319 45.7098C49.4736 46.0681 49.0361 46.3473 48.5194 46.5473C48.0111 46.739 47.4528 46.8348 46.8444 46.8348ZM53.1676 46.8348C52.5509 46.8348 52.0842 46.6556 51.7676 46.2973C51.4592 45.9306 51.3051 45.4015 51.3051 44.7098V37.9098H52.3176V44.6348C52.3176 45.5265 52.6717 45.9723 53.3801 45.9723C53.5884 45.9723 53.7759 45.9473 53.9426 45.8973L53.9176 46.7473C53.6592 46.8056 53.4092 46.8348 53.1676 46.8348ZM57.1538 46.8348C55.6955 46.8348 54.9663 46.0306 54.9663 44.4223V40.6473H55.9788V44.4098C55.9788 44.9515 56.0871 45.3515 56.3038 45.6098C56.5288 45.8681 56.8788 45.9973 57.3538 45.9973C57.8705 45.9973 58.2913 45.8265 58.6163 45.4848C58.9413 45.1348 59.1038 44.6723 59.1038 44.0973V40.6473H60.1163V46.7223H59.1288V45.6973C58.9371 46.064 58.6663 46.3473 58.3163 46.5473C57.9746 46.739 57.5871 46.8348 57.1538 46.8348ZM64.4481 46.8348C63.7315 46.8348 63.194 46.6473 62.8356 46.2723C62.4773 45.889 62.2981 45.339 62.2981 44.6223V41.4348H61.1106V40.6473H62.2981V38.7848H63.3106V40.6473H65.2356V41.4348H63.3106V44.5223C63.3106 44.9973 63.4106 45.3598 63.6106 45.6098C63.8106 45.8515 64.1356 45.9723 64.5856 45.9723C64.719 45.9723 64.8523 45.9556 64.9856 45.9223C65.119 45.889 65.2398 45.8556 65.3481 45.8223L65.5231 46.5973C65.4148 46.6556 65.2565 46.7098 65.0481 46.7598C64.8398 46.8098 64.6398 46.8348 64.4481 46.8348ZM68.8947 46.8348C68.2864 46.8348 67.7614 46.7056 67.3197 46.4473C66.8781 46.1806 66.5364 45.8098 66.2947 45.3348C66.0614 44.8515 65.9447 44.289 65.9447 43.6473C65.9447 42.6806 66.2072 41.9223 66.7322 41.3723C67.2572 40.814 67.9781 40.5348 68.8947 40.5348C69.2697 40.5348 69.6406 40.6015 70.0072 40.7348C70.3739 40.8681 70.6781 41.0556 70.9197 41.2973L70.5697 42.0348C70.3281 41.8015 70.0614 41.6306 69.7697 41.5223C69.4864 41.414 69.2156 41.3598 68.9572 41.3598C68.3239 41.3598 67.8364 41.5598 67.4947 41.9598C67.1531 42.3515 66.9822 42.9181 66.9822 43.6598C66.9822 44.3848 67.1531 44.9598 67.4947 45.3848C67.8364 45.8015 68.3239 46.0098 68.9572 46.0098C69.2156 46.0098 69.4864 45.9556 69.7697 45.8473C70.0614 45.739 70.3281 45.564 70.5697 45.3223L70.9197 46.0598C70.6781 46.3015 70.3697 46.4931 69.9947 46.6348C69.6281 46.7681 69.2614 46.8348 68.8947 46.8348ZM72.1059 46.7223V37.9098H73.1184V41.6473C73.3184 41.2806 73.5975 41.0056 73.9559 40.8223C74.3225 40.6306 74.7309 40.5348 75.1809 40.5348C76.6225 40.5348 77.3434 41.3348 77.3434 42.9348V46.7223H76.3309V42.9973C76.3309 42.4306 76.2184 42.0181 75.9934 41.7598C75.7767 41.4931 75.4267 41.3598 74.9434 41.3598C74.385 41.3598 73.9392 41.5348 73.6059 41.8848C73.2809 42.2265 73.1184 42.6848 73.1184 43.2598V46.7223H72.1059ZM86.2583 46.8348C85.4416 46.8348 84.7291 46.6515 84.1208 46.2848C83.5208 45.9098 83.0541 45.3848 82.7208 44.7098C82.3958 44.0348 82.2333 43.2348 82.2333 42.3098C82.2333 41.3848 82.3958 40.5848 82.7208 39.9098C83.0458 39.2348 83.5083 38.714 84.1083 38.3473C84.7166 37.9806 85.4333 37.7973 86.2583 37.7973C87.0916 37.7973 87.8083 37.9806 88.4083 38.3473C89.0166 38.714 89.4833 39.2348 89.8083 39.9098C90.1416 40.5765 90.3083 41.3723 90.3083 42.2973C90.3083 43.2223 90.1416 44.0265 89.8083 44.7098C89.475 45.3848 89.0041 45.9098 88.3958 46.2848C87.7958 46.6515 87.0833 46.8348 86.2583 46.8348ZM86.2583 45.9223C87.2 45.9223 87.9291 45.6056 88.4458 44.9723C88.9625 44.339 89.2208 43.4515 89.2208 42.3098C89.2208 41.1681 88.9625 40.2848 88.4458 39.6598C87.9291 39.0265 87.2 38.7098 86.2583 38.7098C85.3333 38.7098 84.6125 39.0265 84.0958 39.6598C83.5791 40.2848 83.3208 41.1681 83.3208 42.3098C83.3208 43.4431 83.5791 44.3306 84.0958 44.9723C84.6125 45.6056 85.3333 45.9223 86.2583 45.9223ZM93.7908 46.7223L91.1783 40.6473H92.2783L94.2908 45.5723L96.3283 40.6473H97.3658L94.7408 46.7223H93.7908ZM101.088 46.8348C100.13 46.8348 99.3718 46.5556 98.8135 45.9973C98.2551 45.4306 97.976 44.664 97.976 43.6973C97.976 43.0723 98.101 42.5223 98.351 42.0473C98.601 41.564 98.9426 41.1931 99.376 40.9348C99.8176 40.6681 100.326 40.5348 100.901 40.5348C101.726 40.5348 102.372 40.8015 102.838 41.3348C103.305 41.8598 103.538 42.5848 103.538 43.5098V43.8973H98.9635C98.9968 44.589 99.1968 45.1181 99.5635 45.4848C99.9301 45.8431 100.438 46.0223 101.088 46.0223C101.455 46.0223 101.805 45.9681 102.138 45.8598C102.472 45.7431 102.788 45.5556 103.088 45.2973L103.438 46.0098C103.163 46.2681 102.813 46.4723 102.388 46.6223C101.963 46.764 101.53 46.8348 101.088 46.8348ZM100.926 41.2848C100.351 41.2848 99.8968 41.464 99.5635 41.8223C99.2301 42.1806 99.0343 42.6515 98.976 43.2348H102.663C102.638 42.6181 102.476 42.139 102.176 41.7973C101.884 41.4556 101.468 41.2848 100.926 41.2848ZM105.004 46.7223V40.6473H105.991V41.7348C106.316 41.0015 106.983 40.5973 107.991 40.5223L108.354 40.4848L108.429 41.3598L107.791 41.4348C107.216 41.4848 106.779 41.6681 106.479 41.9848C106.179 42.2931 106.029 42.7181 106.029 43.2598V46.7223H105.004ZM111.335 46.8348C110.919 46.8348 110.544 46.7556 110.21 46.5973C109.885 46.4306 109.627 46.2056 109.435 45.9223C109.244 45.639 109.148 45.3223 109.148 44.9723C109.148 44.5306 109.26 44.1806 109.485 43.9223C109.719 43.664 110.098 43.4806 110.623 43.3723C111.156 43.2556 111.881 43.1973 112.798 43.1973H113.198V42.8098C113.198 42.2931 113.089 41.9223 112.873 41.6973C112.664 41.464 112.327 41.3473 111.86 41.3473C111.494 41.3473 111.139 41.4015 110.798 41.5098C110.456 41.6098 110.106 41.7765 109.748 42.0098L109.398 41.2723C109.714 41.0473 110.098 40.8681 110.548 40.7348C111.006 40.6015 111.444 40.5348 111.86 40.5348C112.644 40.5348 113.223 40.7265 113.598 41.1098C113.981 41.4931 114.173 42.089 114.173 42.8973V46.7223H113.223V45.6723C113.064 46.0306 112.819 46.314 112.485 46.5223C112.16 46.7306 111.777 46.8348 111.335 46.8348ZM111.498 46.0723C111.998 46.0723 112.406 45.9015 112.723 45.5598C113.039 45.2098 113.198 44.7681 113.198 44.2348V43.8598H112.81C112.135 43.8598 111.602 43.8931 111.21 43.9598C110.827 44.0181 110.556 44.1265 110.398 44.2848C110.248 44.4348 110.173 44.6431 110.173 44.9098C110.173 45.2515 110.289 45.5306 110.523 45.7473C110.764 45.964 111.089 46.0723 111.498 46.0723ZM117.914 46.8348C117.297 46.8348 116.83 46.6556 116.514 46.2973C116.205 45.9306 116.051 45.4015 116.051 44.7098V37.9098H117.064V44.6348C117.064 45.5265 117.418 45.9723 118.126 45.9723C118.334 45.9723 118.522 45.9473 118.689 45.8973L118.664 46.7473C118.405 46.8056 118.155 46.8348 117.914 46.8348ZM121.612 46.8348C120.996 46.8348 120.529 46.6556 120.212 46.2973C119.904 45.9306 119.75 45.4015 119.75 44.7098V37.9098H120.762V44.6348C120.762 45.5265 121.117 45.9723 121.825 45.9723C122.033 45.9723 122.221 45.9473 122.387 45.8973L122.362 46.7473C122.104 46.8056 121.854 46.8348 121.612 46.8348ZM126.797 46.7223V37.9098H130.284C131.234 37.9098 131.959 38.1306 132.459 38.5723C132.967 39.014 133.222 39.6431 133.222 40.4598C133.222 41.1098 133.042 41.6431 132.684 42.0598C132.334 42.4765 131.834 42.7473 131.184 42.8723C131.567 43.0056 131.897 43.3306 132.172 43.8473L133.722 46.7223H132.597L131.072 43.8973C130.88 43.5473 130.659 43.3098 130.409 43.1848C130.159 43.0598 129.83 42.9973 129.422 42.9973H127.822V46.7223H126.797ZM127.822 42.1848H130.134C131.517 42.1848 132.209 41.6098 132.209 40.4598C132.209 39.3265 131.517 38.7598 130.134 38.7598H127.822V42.1848ZM136.909 46.8348C136.492 46.8348 136.117 46.7556 135.784 46.5973C135.459 46.4306 135.201 46.2056 135.009 45.9223C134.817 45.639 134.721 45.3223 134.721 44.9723C134.721 44.5306 134.834 44.1806 135.059 43.9223C135.292 43.664 135.671 43.4806 136.196 43.3723C136.73 43.2556 137.455 43.1973 138.371 43.1973H138.771V42.8098C138.771 42.2931 138.663 41.9223 138.446 41.6973C138.238 41.464 137.901 41.3473 137.434 41.3473C137.067 41.3473 136.713 41.4015 136.371 41.5098C136.03 41.6098 135.68 41.7765 135.321 42.0098L134.971 41.2723C135.288 41.0473 135.671 40.8681 136.121 40.7348C136.58 40.6015 137.017 40.5348 137.434 40.5348C138.217 40.5348 138.796 40.7265 139.171 41.1098C139.555 41.4931 139.746 42.089 139.746 42.8973V46.7223H138.796V45.6723C138.638 46.0306 138.392 46.314 138.059 46.5223C137.734 46.7306 137.351 46.8348 136.909 46.8348ZM137.071 46.0723C137.571 46.0723 137.98 45.9015 138.296 45.5598C138.613 45.2098 138.771 44.7681 138.771 44.2348V43.8598H138.384C137.709 43.8598 137.176 43.8931 136.784 43.9598C136.401 44.0181 136.13 44.1265 135.971 44.2848C135.821 44.4348 135.746 44.6431 135.746 44.9098C135.746 45.2515 135.863 45.5306 136.096 45.7473C136.338 45.964 136.663 46.0723 137.071 46.0723ZM144.062 46.8348C143.346 46.8348 142.808 46.6473 142.45 46.2723C142.092 45.889 141.912 45.339 141.912 44.6223V41.4348H140.725V40.6473H141.912V38.7848H142.925V40.6473H144.85V41.4348H142.925V44.5223C142.925 44.9973 143.025 45.3598 143.225 45.6098C143.425 45.8515 143.75 45.9723 144.2 45.9723C144.333 45.9723 144.467 45.9556 144.6 45.9223C144.733 45.889 144.854 45.8556 144.962 45.8223L145.137 46.5973C145.029 46.6556 144.871 46.7098 144.662 46.7598C144.454 46.8098 144.254 46.8348 144.062 46.8348ZM145.87 39.1348V37.9973H147.12V39.1348H145.87ZM145.995 46.7223V40.6473H147.008V46.7223H145.995ZM148.9 46.7223V40.6473H149.888V41.6848C150.088 41.3015 150.371 41.014 150.738 40.8223C151.104 40.6306 151.517 40.5348 151.975 40.5348C153.417 40.5348 154.138 41.3348 154.138 42.9348V46.7223H153.125V42.9973C153.125 42.4306 153.013 42.0181 152.788 41.7598C152.571 41.4931 152.221 41.3598 151.738 41.3598C151.179 41.3598 150.734 41.5348 150.4 41.8848C150.075 42.2265 149.913 42.6848 149.913 43.2598V46.7223H148.9ZM158.692 49.0848C158.167 49.0848 157.671 49.014 157.205 48.8723C156.746 48.739 156.338 48.5348 155.98 48.2598L156.317 47.5223C156.692 47.789 157.063 47.9806 157.43 48.0973C157.805 48.214 158.209 48.2723 158.642 48.2723C159.842 48.2723 160.442 47.6556 160.442 46.4223V45.3473C160.267 45.7306 159.992 46.0348 159.617 46.2598C159.251 46.4765 158.83 46.5848 158.355 46.5848C157.796 46.5848 157.313 46.4556 156.905 46.1973C156.496 45.939 156.18 45.5848 155.955 45.1348C155.738 44.6765 155.63 44.1473 155.63 43.5473C155.63 42.9473 155.738 42.4223 155.955 41.9723C156.18 41.514 156.496 41.1598 156.905 40.9098C157.313 40.6598 157.796 40.5348 158.355 40.5348C158.83 40.5348 159.251 40.6431 159.617 40.8598C159.992 41.0765 160.267 41.3723 160.442 41.7473V40.6473H161.43V46.2848C161.43 47.2181 161.196 47.9181 160.73 48.3848C160.271 48.8515 159.592 49.0848 158.692 49.0848ZM158.542 45.7598C159.126 45.7598 159.588 45.5598 159.93 45.1598C160.271 44.7598 160.442 44.2223 160.442 43.5473C160.442 42.8723 160.271 42.339 159.93 41.9473C159.588 41.5473 159.126 41.3473 158.542 41.3473C157.967 41.3473 157.509 41.5473 157.167 41.9473C156.826 42.339 156.655 42.8723 156.655 43.5473C156.655 44.2223 156.826 44.7598 157.167 45.1598C157.509 45.5598 157.967 45.7598 158.542 45.7598ZM166.539 46.7223V40.6473H167.527V41.7348C167.852 41.0015 168.519 40.5973 169.527 40.5223L169.889 40.4848L169.964 41.3598L169.327 41.4348C168.752 41.4848 168.314 41.6681 168.014 41.9848C167.714 42.2931 167.564 42.7181 167.564 43.2598V46.7223H166.539ZM173.684 46.8348C172.725 46.8348 171.967 46.5556 171.409 45.9973C170.85 45.4306 170.571 44.664 170.571 43.6973C170.571 43.0723 170.696 42.5223 170.946 42.0473C171.196 41.564 171.538 41.1931 171.971 40.9348C172.413 40.6681 172.921 40.5348 173.496 40.5348C174.321 40.5348 174.967 40.8015 175.434 41.3348C175.9 41.8598 176.134 42.5848 176.134 43.5098V43.8973H171.559C171.592 44.589 171.792 45.1181 172.159 45.4848C172.525 45.8431 173.034 46.0223 173.684 46.0223C174.05 46.0223 174.4 45.9681 174.734 45.8598C175.067 45.7431 175.384 45.5556 175.684 45.2973L176.034 46.0098C175.759 46.2681 175.409 46.4723 174.984 46.6223C174.559 46.764 174.125 46.8348 173.684 46.8348ZM173.521 41.2848C172.946 41.2848 172.492 41.464 172.159 41.8223C171.825 42.1806 171.63 42.6515 171.571 43.2348H175.259C175.234 42.6181 175.071 42.139 174.771 41.7973C174.48 41.4556 174.063 41.2848 173.521 41.2848ZM179.313 46.7223L176.701 40.6473H177.801L179.813 45.5723L181.851 40.6473H182.888L180.263 46.7223H179.313ZM183.834 39.1348V37.9973H185.084V39.1348H183.834ZM183.959 46.7223V40.6473H184.971V46.7223H183.959ZM189.602 46.8348C188.643 46.8348 187.885 46.5556 187.327 45.9973C186.768 45.4306 186.489 44.664 186.489 43.6973C186.489 43.0723 186.614 42.5223 186.864 42.0473C187.114 41.564 187.456 41.1931 187.889 40.9348C188.331 40.6681 188.839 40.5348 189.414 40.5348C190.239 40.5348 190.885 40.8015 191.352 41.3348C191.818 41.8598 192.052 42.5848 192.052 43.5098V43.8973H187.477C187.51 44.589 187.71 45.1181 188.077 45.4848C188.443 45.8431 188.952 46.0223 189.602 46.0223C189.968 46.0223 190.318 45.9681 190.652 45.8598C190.985 45.7431 191.302 45.5556 191.602 45.2973L191.952 46.0098C191.677 46.2681 191.327 46.4723 190.902 46.6223C190.477 46.764 190.043 46.8348 189.602 46.8348ZM189.439 41.2848C188.864 41.2848 188.41 41.464 188.077 41.8223C187.743 42.1806 187.547 42.6515 187.489 43.2348H191.177C191.152 42.6181 190.989 42.139 190.689 41.7973C190.397 41.4556 189.981 41.2848 189.439 41.2848ZM195.056 46.7223L192.794 40.6473H193.856L195.569 45.5348L197.344 40.6473H198.206L199.956 45.5473L201.694 40.6473H202.706L200.431 46.7223H199.469L197.756 42.0098L196.031 46.7223H195.056ZM210.152 46.8348C209.585 46.8348 209.044 46.7431 208.527 46.5598C208.01 46.3765 207.573 46.1181 207.214 45.7848L207.602 44.9723C208.377 45.6056 209.223 45.9223 210.139 45.9223C210.748 45.9223 211.227 45.7515 211.577 45.4098C211.927 45.0681 212.102 44.6181 212.102 44.0598C212.102 43.4848 211.935 43.014 211.602 42.6473C211.269 42.2806 210.81 42.0973 210.227 42.0973C209.385 42.0973 208.723 42.4473 208.239 43.1473H207.489V37.9098H212.602V38.7848H208.502V41.9348C208.985 41.4515 209.623 41.2098 210.414 41.2098C210.964 41.2098 211.444 41.3265 211.852 41.5598C212.26 41.7931 212.573 42.1223 212.789 42.5473C213.014 42.964 213.127 43.4515 213.127 44.0098C213.127 44.5598 213.006 45.0473 212.764 45.4723C212.523 45.8973 212.177 46.2306 211.727 46.4723C211.285 46.714 210.76 46.8348 210.152 46.8348ZM214.497 46.7223V45.4473H215.772V46.7223H214.497ZM220.304 46.8348C219.295 46.8348 218.529 46.4473 218.004 45.6723C217.479 44.8973 217.216 43.7765 217.216 42.3098C217.216 40.8348 217.479 39.714 218.004 38.9473C218.529 38.1806 219.295 37.7973 220.304 37.7973C221.32 37.7973 222.087 38.1806 222.604 38.9473C223.129 39.7056 223.391 40.8223 223.391 42.2973C223.391 43.7723 223.125 44.8973 222.591 45.6723C222.066 46.4473 221.304 46.8348 220.304 46.8348ZM220.304 45.9473C221.004 45.9473 221.52 45.6515 221.854 45.0598C222.195 44.4681 222.366 43.5473 222.366 42.2973C222.366 41.0473 222.2 40.1348 221.866 39.5598C221.533 38.9765 221.012 38.6848 220.304 38.6848C219.604 38.6848 219.083 38.9765 218.741 39.5598C218.408 40.1431 218.241 41.0556 218.241 42.2973C218.241 43.5473 218.408 44.4681 218.741 45.0598C219.083 45.6515 219.604 45.9473 220.304 45.9473Z" fill="#828282"/>
<g clip-path="url(#clip1_4267_11115)">
<path d="M97.0469 15.8509C98.3997 15.8509 99.4963 14.7856 99.4963 13.4715C99.4963 12.1574 98.3997 11.0922 97.0469 11.0922C95.6941 11.0922 94.5974 12.1574 94.5974 13.4715C94.5974 14.7856 95.6941 15.8509 97.0469 15.8509Z" fill="#E62415"/>
<path d="M61.3926 0H64.634V20.3052H61.3926V0ZM76.4392 14.0437C76.4392 17.1923 73.7872 17.4428 72.9768 17.4428C70.951 17.4428 70.6563 15.6001 70.6563 14.4909V6.63721H67.3965V14.4731C67.3781 16.4231 67.949 18.0332 69.054 19.1066C70.0576 19.9756 71.3361 20.4864 72.6787 20.5546C74.0213 20.6229 75.3477 20.2447 76.4392 19.4823V20.3052H79.699V6.63721H76.4392V14.0437ZM86.7342 2.03947H83.4744V6.63721H81.2092V9.62485H83.4744V20.3052H86.7342V9.62485H89.4047V6.63721H86.7342V2.03947ZM99.9575 16.4231C99.2208 17.0671 98.2447 17.4249 97.1766 17.4249C96.6339 17.4398 96.0938 17.3467 95.5896 17.1513C95.0854 16.9558 94.6277 16.6622 94.2447 16.2885C93.8617 15.9148 93.5615 15.4689 93.3626 14.9782C93.1636 14.4875 93.0702 13.9625 93.088 13.4354C93.088 11.1276 94.764 9.51751 97.1766 9.51751C98.2263 9.51751 99.2208 9.85742 99.9759 10.5015L100.492 10.9308L102.775 8.71246L102.204 8.21153C100.821 7.01332 99.0297 6.35665 97.1766 6.36886C92.9407 6.36886 89.8651 9.33861 89.8651 13.4175C89.8426 14.3579 90.016 15.2929 90.375 16.1665C90.734 17.0401 91.2712 17.8341 91.9541 18.5009C92.6371 19.1676 93.4518 19.6934 94.3493 20.0465C95.2467 20.3996 96.2084 20.5728 97.1766 20.5557C99.1103 20.5557 100.915 19.8937 102.241 18.6951L102.794 18.1942L100.473 15.9758L99.9575 16.4231ZM115.004 7.83584C114.001 6.96684 112.722 6.45607 111.379 6.38777C110.037 6.31947 108.71 6.69773 107.619 7.46015V0H104.359V20.3052H107.619V12.9166C107.619 9.76797 110.271 9.51751 111.081 9.51751C113.107 9.51751 113.402 11.3602 113.402 12.4694V20.3231H116.662V12.4694C116.76 10.7729 116.164 9.10749 115.004 7.83584ZM56.5858 15.4391C55.9517 16.072 55.1926 16.574 54.354 16.9152C53.5154 17.2564 52.6146 17.4298 51.7054 17.4249C47.9299 17.4249 45.1858 14.5446 45.1858 10.5909C45.1858 6.61932 47.9299 3.73902 51.7054 3.73902C53.5287 3.73902 55.2598 4.43673 56.5674 5.70693L57.0831 6.20785L59.3484 4.00737L58.8511 3.50645C57.9166 2.58321 56.8013 1.85112 55.5709 1.35335C54.3404 0.855593 53.0198 0.602247 51.687 0.608262C46.1435 0.608262 41.9445 4.90187 41.9445 10.6088C41.9445 16.2799 46.1435 20.5736 51.687 20.5736C54.4311 20.5736 56.9726 19.5359 58.8511 17.6575L59.3484 17.1566L57.1015 14.9203L56.5858 15.4391Z" fill="#E3E3E3"/>
</g>
<path d="M161.984 10.657C161.922 10.5306 161.793 10.4506 161.652 10.4506C161.511 10.4506 161.382 10.5306 161.32 10.657L159.804 13.7292L156.414 14.2215C156.274 14.2418 156.158 14.3395 156.115 14.4736C156.071 14.6077 156.107 14.7549 156.208 14.8533L158.661 17.2445L158.082 20.6214C158.058 20.7603 158.115 20.9008 158.23 20.9836C158.344 21.0665 158.495 21.0774 158.62 21.0118L161.652 19.4175L164.684 21.0118C164.809 21.0774 164.96 21.0665 165.075 20.9836C165.189 20.9008 165.246 20.7603 165.222 20.6214L164.643 17.2445L167.096 14.8533C167.197 14.7549 167.233 14.6077 167.189 14.4736C167.146 14.3395 167.03 14.2418 166.89 14.2215L163.5 13.7292L161.984 10.657Z" fill="#FFB45A"/>
<path d="M176.567 10.657C176.505 10.5306 176.376 10.4506 176.235 10.4506C176.094 10.4506 175.966 10.5306 175.903 10.657L174.387 13.7292L170.997 14.2215C170.857 14.2418 170.742 14.3395 170.698 14.4736C170.654 14.6077 170.691 14.7549 170.792 14.8533L173.245 17.2445L172.666 20.6214C172.642 20.7603 172.699 20.9008 172.813 20.9836C172.927 21.0665 173.078 21.0774 173.203 21.0118L176.235 19.4175L179.268 21.0118C179.393 21.0774 179.544 21.0665 179.658 20.9836C179.772 20.9008 179.829 20.7603 179.805 20.6214L179.226 17.2445L181.679 14.8533C181.78 14.7549 181.816 14.6077 181.773 14.4736C181.729 14.3395 181.613 14.2418 181.474 14.2215L178.084 13.7292L176.567 10.657Z" fill="#FFB45A"/>
<path d="M191.151 10.657C191.088 10.5306 190.96 10.4506 190.819 10.4506C190.678 10.4506 190.549 10.5306 190.487 10.657L188.97 13.7292L185.58 14.2215C185.441 14.2418 185.325 14.3395 185.281 14.4736C185.238 14.6077 185.274 14.7549 185.375 14.8533L187.828 17.2445L187.249 20.6214C187.225 20.7603 187.282 20.9008 187.396 20.9836C187.51 21.0665 187.661 21.0774 187.786 21.0118L190.819 19.4175L193.851 21.0118C193.976 21.0774 194.127 21.0665 194.241 20.9836C194.355 20.9008 194.412 20.7603 194.389 20.6214L193.809 17.2445L196.262 14.8533C196.363 14.7549 196.4 14.6077 196.356 14.4736C196.313 14.3395 196.197 14.2418 196.057 14.2215L192.667 13.7292L191.151 10.657Z" fill="#FFB45A"/>
<path d="M205.734 10.657C205.672 10.5306 205.543 10.4506 205.402 10.4506C205.261 10.4506 205.132 10.5306 205.07 10.657L203.554 13.7292L200.164 14.2215C200.024 14.2418 199.908 14.3395 199.865 14.4736C199.821 14.6077 199.857 14.7549 199.958 14.8533L202.411 17.2445L201.832 20.6214C201.808 20.7603 201.865 20.9008 201.98 20.9836C202.094 21.0665 202.245 21.0774 202.37 21.0118L205.402 19.4175L208.434 21.0118C208.559 21.0774 208.71 21.0665 208.825 20.9836C208.939 20.9008 208.996 20.7603 208.972 20.6214L208.393 17.2445L210.846 14.8533C210.947 14.7549 210.983 14.6077 210.939 14.4736C210.896 14.3395 210.78 14.2418 210.64 14.2215L207.25 13.7292L205.734 10.657Z" fill="#FFB45A"/>
<path d="M220.317 10.657C220.255 10.5306 220.126 10.4506 219.985 10.4506C219.844 10.4506 219.716 10.5306 219.653 10.657L218.137 13.7292L214.747 14.2215C214.607 14.2418 214.492 14.3395 214.448 14.4736C214.404 14.6077 214.441 14.7549 214.542 14.8533L216.995 17.2445L216.416 20.6214C216.392 20.7603 216.449 20.9008 216.563 20.9836C216.677 21.0665 216.828 21.0774 216.953 21.0118L219.985 19.4175L223.018 21.0118C223.143 21.0774 223.294 21.0665 223.408 20.9836C223.522 20.9008 223.579 20.7603 223.555 20.6214L222.976 17.2445L225.429 14.8533C225.53 14.7549 225.566 14.6077 225.523 14.4736C225.479 14.3395 225.363 14.2418 225.224 14.2215L221.834 13.7292L220.317 10.657Z" fill="#FFB45A"/>
<path d="M128.011 23.2302C127.381 22.2024 126.923 21.1654 126.636 20.1191C126.358 19.0635 126.219 17.9848 126.219 16.883C126.219 15.7811 126.358 14.7071 126.636 13.6608C126.923 12.6052 127.381 11.5635 128.011 10.5358L128.997 10.9247C128.553 11.971 128.229 12.971 128.025 13.9247C127.821 14.8784 127.719 15.8645 127.719 16.883C127.719 17.8922 127.821 18.8784 128.025 19.8413C128.229 20.795 128.553 21.795 128.997 22.8413L128.011 23.2302ZM133.802 20.6608C133.172 20.6608 132.561 20.5635 131.969 20.3691C131.385 20.1654 130.899 19.883 130.51 19.5219L130.996 18.4108C131.848 19.096 132.774 19.4385 133.774 19.4385C134.413 19.4385 134.913 19.2672 135.274 18.9247C135.635 18.5728 135.816 18.1145 135.816 17.5497C135.816 16.9663 135.644 16.4895 135.302 16.1191C134.959 15.7487 134.482 15.5635 133.871 15.5635C133.01 15.5635 132.32 15.92 131.802 16.633H130.802V10.7441H136.635V11.9524H132.205V15.0497C132.723 14.596 133.381 14.3691 134.177 14.3691C134.797 14.3691 135.334 14.4987 135.788 14.758C136.242 15.0172 136.594 15.383 136.844 15.8552C137.094 16.3182 137.219 16.8598 137.219 17.4802C137.219 18.1098 137.08 18.6654 136.802 19.1469C136.524 19.6191 136.131 19.9895 135.621 20.258C135.112 20.5265 134.506 20.6608 133.802 20.6608ZM138.63 20.5358V18.883H140.283V20.5358H138.63ZM145.273 20.6608C144.134 20.6608 143.264 20.2302 142.662 19.3691C142.069 18.4987 141.773 17.2534 141.773 15.633C141.773 13.9848 142.069 12.7395 142.662 11.8969C143.264 11.045 144.134 10.6191 145.273 10.6191C146.421 10.6191 147.291 11.045 147.884 11.8969C148.477 12.7395 148.773 13.9802 148.773 15.6191C148.773 17.2487 148.472 18.4987 147.87 19.3691C147.278 20.2302 146.412 20.6608 145.273 20.6608ZM145.273 19.4663C145.977 19.4663 146.5 19.1561 146.842 18.5358C147.185 17.9154 147.356 16.9432 147.356 15.6191C147.356 14.295 147.185 13.3321 146.842 12.7302C146.509 12.1191 145.986 11.8135 145.273 11.8135C144.569 11.8135 144.046 12.1191 143.703 12.7302C143.361 13.3413 143.19 14.3043 143.19 15.6191C143.19 16.9432 143.361 17.9154 143.703 18.5358C144.046 19.1561 144.569 19.4663 145.273 19.4663ZM150.906 23.2302L149.92 22.8413C150.355 21.7765 150.675 20.7672 150.879 19.8135C151.082 18.8598 151.184 17.883 151.184 16.883C151.184 15.883 151.082 14.9061 150.879 13.9524C150.675 12.9987 150.355 11.9895 149.92 10.9247L150.906 10.5358C151.536 11.5728 151.99 12.6191 152.267 13.6747C152.555 14.721 152.698 15.7904 152.698 16.883C152.698 17.9848 152.555 19.0635 152.267 20.1191C151.99 21.1654 151.536 22.2024 150.906 23.2302Z" fill="#E3E3E3"/>
</g>
<g clip-path="url(#clip2_4267_11115)">
<path d="M14.113 6.75305C13.1219 8.38095 12.0844 10.3094 11.415 12.2358C10.2271 15.6538 9.19367 19.3664 8.475 22.9358C7.98949 25.3471 7.53837 28.8747 7.52514 31.3227C7.50762 34.5808 7.62788 36.8023 8.28179 40.0719C9.20304 44.678 11.2505 48.8978 14.0191 52.4898C18.0923 57.7745 24.8439 60.6569 31.1735 62.6056C36.1251 64.1299 41.8073 64.0023 46.6667 63.5931L46.5802 62.2367C41.7658 62.6431 36.4774 62.66 31.7301 61.1953C25.6233 59.3111 19.4669 56.419 15.1946 51.5619C12.5933 48.6056 10.6552 44.9403 9.57189 41.0255C8.6229 37.596 8.40757 33.8203 8.29119 30.3508C8.19563 27.4986 8.50033 25.1023 9.01151 22.4905C9.65957 19.1792 10.5101 15.8492 11.5778 12.6747C12.2689 10.6197 13.4735 8.49724 14.4708 6.85924L14.113 6.75305Z" fill="#828282"/>
<path d="M37.3881 63.5981C37.3881 63.5981 34.03 64.0088 31.824 65.3591C28.3216 67.5025 29.0236 69.9884 29.0236 69.9884C29.0236 69.9884 30.9262 70.2393 33.9505 68.4186C37.4936 66.2856 37.3881 63.5981 37.3881 63.5981Z" fill="#828282"/>
<path d="M30.83 62.4226C30.83 62.4226 27.8223 62.3718 25.484 63.4697C21.4358 65.3703 22.1721 67.6699 22.1721 67.6699C22.1721 67.6699 24.124 68.0686 27.3573 66.5266C31.0859 64.7484 30.83 62.4226 30.83 62.4226Z" fill="#828282"/>
<path d="M25.4926 60.4684C25.4926 60.4684 22.2031 59.4607 19.6682 59.9305C15.2797 60.7435 15.0158 63.669 15.0158 63.669C15.0158 63.669 17.2784 64.7762 20.7893 64.1037C24.8382 63.328 25.4926 60.4684 25.4926 60.4684Z" fill="#828282"/>
<path d="M18.7918 56.7579C18.7918 56.7579 15.8163 55.5338 12.6773 55.9439C8.58085 56.4791 7.87594 59.4558 7.85126 59.5335C7.85126 59.5335 10.1663 60.7351 13.6087 60.1443C18.226 59.3518 18.7918 56.7579 18.7918 56.7579Z" fill="#828282"/>
<path d="M14.794 53.1907C14.794 53.1907 11.6239 51.16 8.21689 51.081C4.90695 51.0038 3.42961 53.0476 3.40021 53.1146C3.40021 53.1146 5.95271 55.057 9.07367 55.1141C13.3141 55.1914 14.794 53.1907 14.794 53.1907Z" fill="#828282"/>
<path d="M12.428 49.5344C11.0003 49.0408 9.76429 46.4817 7.39201 45.0355C4.08248 43.0179 0.887722 44.7457 0.850891 44.7959C0.850891 44.7959 2.84138 48.2916 6.32578 49.354C10.0288 50.483 12.428 49.5344 12.428 49.5344Z" fill="#828282"/>
<path d="M9.39045 43.4963C9.39045 43.4963 8.06361 40.2724 6.15546 38.2388C3.49361 35.4022 0.048778 36.1907 0 36.2291C0 36.2291 1.10232 40.0654 4.18306 42.0283C7.45719 44.1143 9.39045 43.4963 9.39045 43.4963Z" fill="#828282"/>
<path d="M8.05518 36.9244C8.05518 36.9244 7.48786 33.9662 6.03417 31.5776C3.84324 27.9775 0.548477 28.5186 0.494934 28.55C0.494934 28.55 1.07475 32.5519 3.86193 34.9233C6.82404 37.4436 8.05518 36.9244 8.05518 36.9244Z" fill="#828282"/>
<path d="M7.77339 29.3377C7.77339 29.3377 7.71333 26.4532 6.4394 23.9614C4.67133 20.503 1.63407 20.0965 1.57697 20.1203C1.57697 20.1203 0.22921 23.2576 3.55169 27.1455C5.5671 29.5037 7.77339 29.3377 7.77339 29.3377Z" fill="#828282"/>
<path d="M8.70438 22.5651C8.70438 22.5651 9.16035 19.4959 8.45155 16.7827C7.78611 14.2354 5.68512 12.0939 5.36773 11.9543C5.36773 11.9543 3.39113 14.1918 5.37522 18.3726C6.70969 21.1847 8.70438 22.5651 8.70438 22.5651Z" fill="#828282"/>
<path d="M10.4688 15.6308C10.4688 15.6308 11.4032 12.8438 10.678 9.95514C10.0766 7.56161 8.60572 5.33681 7.92559 4.92566C7.92559 4.92566 6.23132 7.49931 7.7441 11.3387C8.88589 14.2365 10.0982 15.3074 10.4688 15.6308Z" fill="#828282"/>
<path d="M12.004 11.1697C12.004 11.1697 15.5092 9.70826 16.7713 7.9101C18.184 5.89734 18.9687 2.57898 18.7968 1.79492C18.7968 1.79492 15.1747 1.84267 13.4572 5.59239C12.1609 8.42247 11.9818 10.6745 12.004 11.1697Z" fill="#828282"/>
<path d="M10.0934 17.1378C10.0934 17.1378 10.8659 14.4201 13.4738 12.6091C15.484 11.2132 17.3249 10.7999 18.6886 10.9405C18.6886 10.9405 17.9931 13.8677 14.9377 15.6338C12.2641 17.1792 10.5823 17.1252 10.0934 17.1378Z" fill="#828282"/>
<path d="M8.70679 23.2223C8.70679 23.2223 9.43613 20.6208 12.0441 18.8097C14.0544 17.414 15.2826 17.3309 16.6464 17.4715C16.6464 17.4715 16.241 20.1446 13.1857 21.9107C10.5121 23.4561 9.19564 23.2097 8.70679 23.2223Z" fill="#828282"/>
<path d="M8.03607 30.6359C8.03607 30.6359 8.46645 27.6453 10.6128 25.2924C12.8122 22.8813 14.4565 22.7921 15.824 22.6963C15.7051 23.4351 15.2379 26.5018 13.0817 28.3505C10.7318 30.3654 8.51573 30.5395 8.03607 30.6359Z" fill="#828282"/>
<path d="M8.41504 36.7713C8.41504 36.7713 8.63337 33.757 10.6082 31.2546C12.6318 28.6901 14.2655 28.4819 15.6228 28.2871C15.5563 29.0327 15.3067 32.1253 13.2865 34.1258C11.0847 36.3059 8.88666 36.6403 8.41504 36.7713Z" fill="#828282"/>
<path d="M10.1678 43.4627C10.6378 41.4819 10.5452 39.6278 11.5754 37.2655C12.8447 34.3553 14.9502 34.1274 16.248 33.6799C16.1581 35.1261 16.0651 37.3908 14.7894 39.6522C13.2614 42.3608 10.6072 43.2452 10.1678 43.4627Z" fill="#828282"/>
<path d="M12.8732 49.1263C13.1218 47.1048 13.0238 45.6631 13.7868 43.1989C14.7269 40.1629 16.7062 39.7138 17.9465 39.1221C18.0168 40.5691 18.031 42.7757 17.0129 45.1677C15.7934 48.0327 13.2857 48.8603 12.8732 49.1263Z" fill="#828282"/>
<path d="M16.149 53.1269C16.5792 50.211 16.1691 49.7847 16.7412 47.2677C17.3555 44.5647 19.2913 43.7399 20.4808 43.0491C20.6653 44.4859 20.8609 46.4541 20.0177 48.9153C19.1185 51.5397 17.2235 52.1275 16.149 53.1269Z" fill="#828282"/>
<path d="M20.5188 56.5137C20.5333 54.1024 19.8192 52.9297 20.0182 51.1335C20.344 48.1957 21.6334 47.4817 22.8231 46.791C23.1215 50.1268 23.357 50.0343 23.0514 52.2905C22.754 54.486 21.4143 55.3797 20.5188 56.5137Z" fill="#828282"/>
<path d="M25.0553 58.9645C24.6176 56.5942 23.8004 56.1835 23.6591 54.3817C23.4281 51.4347 24.5603 50.4852 25.5986 49.5779C26.222 51.3404 26.9127 52.3228 26.7983 54.5972C26.7176 56.2033 25.7219 57.6787 25.0553 58.9645Z" fill="#828282"/>
<path d="M28.9271 52.1326C28.9271 52.1326 30.8736 53.6855 31.5829 56.1972C32.5882 59.7561 31.0547 61.0648 31.0547 61.0648C31.0547 61.0648 29.3752 60.0101 28.0996 56.8883C26.7373 53.5537 28.9271 52.1326 28.9271 52.1326Z" fill="#828282"/>
<path d="M34.192 53.8054C34.192 53.8054 36.1507 55.3831 36.9841 57.8555C38.0522 61.024 36.7533 62.538 36.7533 62.538C36.7533 62.538 34.9622 61.3193 33.7731 58.783C31.9574 54.9098 34.192 53.8054 34.192 53.8054Z" fill="#828282"/>
</g>
<g clip-path="url(#clip3_4267_11115)">
<path d="M254.015 6.75305C255.006 8.38095 256.043 10.3094 256.713 12.2358C257.901 15.6538 258.935 19.3664 259.653 22.9358C260.139 25.3471 260.59 28.8747 260.602 31.3227C260.62 34.5808 260.5 36.8023 259.847 40.0719C258.926 44.678 256.878 48.8978 254.108 52.4898C250.036 57.7745 243.284 60.6569 236.955 62.6056C232.003 64.1299 226.32 64.0023 221.462 63.5931L221.548 62.2367C226.363 62.6431 231.651 62.66 236.398 61.1953C242.505 59.3111 248.661 56.419 252.933 51.5619C255.535 48.6056 257.474 44.9403 258.556 41.0255C259.506 37.596 259.721 33.8203 259.838 30.3508C259.933 27.4986 259.628 25.1023 259.116 22.4905C258.468 19.1792 257.617 15.8492 256.551 12.6747C255.858 10.6197 254.654 8.49724 253.658 6.85924L254.015 6.75305Z" fill="#828282"/>
<path d="M230.741 63.5981C230.741 63.5981 234.097 64.0088 236.303 65.3591C239.807 67.5025 239.105 69.9884 239.105 69.9884C239.105 69.9884 237.203 70.2393 234.178 68.4186C230.635 66.2856 230.741 63.5981 230.741 63.5981Z" fill="#828282"/>
<path d="M237.298 62.4226C237.298 62.4226 240.306 62.3718 242.645 63.4697C246.692 65.3703 245.956 67.6699 245.956 67.6699C245.956 67.6699 244.003 68.0686 240.771 66.5266C237.043 64.7484 237.298 62.4226 237.298 62.4226Z" fill="#828282"/>
<path d="M242.636 60.4684C242.636 60.4684 245.926 59.4607 248.46 59.9305C252.848 60.7435 253.112 63.669 253.112 63.669C253.112 63.669 250.849 64.7762 247.338 64.1037C243.291 63.328 242.636 60.4684 242.636 60.4684Z" fill="#828282"/>
<path d="M249.336 56.7579C249.336 56.7579 252.312 55.5338 255.451 55.9439C259.547 56.4791 260.252 59.4558 260.277 59.5335C260.277 59.5335 257.962 60.7351 254.519 60.1443C249.903 59.3518 249.336 56.7579 249.336 56.7579Z" fill="#828282"/>
<path d="M253.335 53.1907C253.335 53.1907 256.505 51.16 259.911 51.081C263.221 51.0038 264.698 53.0476 264.729 53.1146C264.729 53.1146 262.175 55.057 259.055 55.1141C254.814 55.1914 253.335 53.1907 253.335 53.1907Z" fill="#828282"/>
<path d="M255.701 49.5344C257.127 49.0408 258.364 46.4817 260.737 45.0355C264.045 43.0179 267.24 44.7457 267.277 44.7959C267.277 44.7959 265.287 48.2916 261.803 49.354C258.1 50.483 255.701 49.5344 255.701 49.5344Z" fill="#828282"/>
<path d="M258.737 43.4963C258.737 43.4963 260.064 40.2724 261.974 38.2388C264.635 35.4022 268.08 36.1907 268.128 36.2291C268.128 36.2291 267.026 40.0654 263.944 42.0283C260.671 44.1143 258.737 43.4963 258.737 43.4963Z" fill="#828282"/>
<path d="M260.073 36.9244C260.073 36.9244 260.64 33.9662 262.094 31.5776C264.285 27.9775 267.579 28.5186 267.633 28.55C267.633 28.55 267.053 32.5519 264.266 34.9233C261.304 37.4436 260.073 36.9244 260.073 36.9244Z" fill="#828282"/>
<path d="M260.355 29.3377C260.355 29.3377 260.416 26.4532 261.688 23.9614C263.456 20.503 266.495 20.0965 266.551 20.1203C266.551 20.1203 267.898 23.2576 264.576 27.1455C262.561 29.5037 260.355 29.3377 260.355 29.3377Z" fill="#828282"/>
<path d="M259.423 22.5651C259.423 22.5651 258.967 19.4959 259.676 16.7827C260.342 14.2354 262.444 12.0939 262.76 11.9543C262.76 11.9543 264.738 14.1918 262.753 18.3726C261.419 21.1847 259.423 22.5651 259.423 22.5651Z" fill="#828282"/>
<path d="M257.659 15.6308C257.659 15.6308 256.725 12.8438 257.451 9.95514C258.052 7.56161 259.522 5.33681 260.202 4.92566C260.202 4.92566 261.896 7.49931 260.383 11.3387C259.242 14.2365 258.03 15.3074 257.659 15.6308Z" fill="#828282"/>
<path d="M256.124 11.1697C256.124 11.1697 252.619 9.70826 251.357 7.9101C249.944 5.89734 249.16 2.57898 249.332 1.79492C249.332 1.79492 252.954 1.84267 254.67 5.59239C255.968 8.42247 256.146 10.6745 256.124 11.1697Z" fill="#828282"/>
<path d="M258.036 17.1378C258.036 17.1378 257.262 14.4201 254.654 12.6091C252.644 11.2132 250.804 10.7999 249.44 10.9405C249.44 10.9405 250.135 13.8677 253.191 15.6338C255.864 17.1792 257.546 17.1252 258.036 17.1378Z" fill="#828282"/>
<path d="M259.421 23.2223C259.421 23.2223 258.693 20.6208 256.085 18.8097C254.074 17.414 252.845 17.3309 251.483 17.4715C251.483 17.4715 251.886 20.1446 254.943 21.9107C257.616 23.4561 258.933 23.2097 259.421 23.2223Z" fill="#828282"/>
<path d="M260.093 30.6359C260.093 30.6359 259.662 27.6453 257.515 25.2924C255.316 22.8813 253.672 22.7921 252.305 22.6963C252.423 23.4351 252.89 26.5018 255.047 28.3505C257.397 30.3654 259.613 30.5395 260.093 30.6359Z" fill="#828282"/>
<path d="M259.714 36.7713C259.714 36.7713 259.495 33.757 257.521 31.2546C255.496 28.6901 253.863 28.4819 252.506 28.2871C252.572 29.0327 252.822 32.1253 254.843 34.1258C257.043 36.3059 259.242 36.6403 259.714 36.7713Z" fill="#828282"/>
<path d="M257.96 43.4627C257.49 41.4819 257.583 39.6278 256.553 37.2655C255.284 34.3553 253.179 34.1274 251.881 33.6799C251.971 35.1261 252.062 37.3908 253.338 39.6522C254.868 42.3608 257.521 43.2452 257.96 43.4627Z" fill="#828282"/>
<path d="M255.255 49.1263C255.006 47.1048 255.105 45.6631 254.342 43.1989C253.401 40.1629 251.422 39.7138 250.181 39.1221C250.111 40.5691 250.097 42.7757 251.115 45.1677C252.335 48.0327 254.843 48.8603 255.255 49.1263Z" fill="#828282"/>
<path d="M251.98 53.1269C251.549 50.211 251.96 49.7847 251.387 47.2677C250.774 44.5647 248.837 43.7399 247.647 43.0491C247.464 44.4859 247.266 46.4541 248.11 48.9153C249.009 51.5397 250.905 52.1275 251.98 53.1269Z" fill="#828282"/>
<path d="M247.609 56.5137C247.595 54.1024 248.309 52.9297 248.11 51.1335C247.783 48.1957 246.495 47.4817 245.305 46.791C245.007 50.1268 244.772 50.0343 245.077 52.2905C245.375 54.486 246.714 55.3797 247.609 56.5137Z" fill="#828282"/>
<path d="M243.074 58.9645C243.51 56.5942 244.328 56.1835 244.47 54.3817C244.7 51.4347 243.567 50.4852 242.53 49.5779C241.907 51.3404 241.216 52.3228 241.329 54.5972C241.412 56.2033 242.406 57.6787 243.074 58.9645Z" fill="#828282"/>
<path d="M239.202 52.1326C239.202 52.1326 237.255 53.6855 236.546 56.1972C235.541 59.7561 237.073 61.0648 237.073 61.0648C237.073 61.0648 238.753 60.0101 240.028 56.8883C241.392 53.5537 239.202 52.1326 239.202 52.1326Z" fill="#828282"/>
<path d="M233.936 53.8054C233.936 53.8054 231.978 55.3831 231.145 57.8555C230.075 61.024 231.375 62.538 231.375 62.538C231.375 62.538 233.166 61.3193 234.356 58.783C236.171 54.9098 233.936 53.8054 233.936 53.8054Z" fill="#828282"/>
</g>
<defs>
<clipPath id="clip0_4267_11115">
<rect width="187" height="50" fill="white" transform="translate(41)"/>
</clipPath>
<clipPath id="clip1_4267_11115">
<rect width="75.409" height="20.8333" fill="white" transform="translate(41.9445)"/>
</clipPath>
<clipPath id="clip2_4267_11115">
<rect width="48" height="70" fill="white"/>
</clipPath>
<clipPath id="clip3_4267_11115">
<rect width="48" height="70" fill="white" transform="translate(220)"/>
</clipPath>
</defs>
</svg>
