<svg width="200" height="70" viewBox="0 0 200 70" fill="none" xmlns="http://www.w3.org/2000/svg">
<g clip-path="url(#clip0_4267_11180)">
<g clip-path="url(#clip1_4267_11180)">
<path d="M98.1175 5.71499C94.4585 5.73256 91.4778 8.73999 91.4946 12.4846C91.5114 16.2292 94.5219 19.2083 98.1809 19.1915C101.84 19.1747 104.821 16.1665 104.804 12.4235C104.786 8.68041 101.777 5.69895 98.116 5.71652L98.1175 5.71499ZM98.168 16.4453C97.1306 16.4514 96.1337 16.0443 95.3966 15.3148C94.6594 14.5853 94.2507 13.5914 94.2393 12.5541C94.2278 11.5167 94.6403 10.5199 95.3698 9.7827C96.0993 9.04555 97.0932 8.63686 98.1305 8.62541C99.1679 8.61395 100.165 9.02645 100.902 9.75596C101.639 10.4855 102.048 11.4793 102.059 12.5167C102.07 14.5983 100.249 16.4346 98.168 16.4453ZM112.942 8.88895C111.028 8.89812 109.538 10.4855 109.547 12.399L109.577 18.8042L106.665 18.818L106.607 6.08929L109.519 6.07555L109.529 8.07159C109.529 8.07159 110.766 6.0702 113.262 6.05874L114.095 6.05416L114.109 8.88207L112.942 8.88895ZM83.8939 6.19777L86.0985 14.9229L88.3871 6.17638L91.2991 6.16339L87.6966 18.9165L84.8687 18.9295L82.5816 10.0394L80.377 18.9501L77.5483 18.9631L73.7457 6.252L76.5736 6.23902L79.1097 14.9626L81.1493 6.21763L83.8939 6.19777ZM122.604 11.8399C124.594 10.6665 125.999 8.49631 125.988 6.00068L123.076 6.01443C123.087 8.17777 121.347 9.93318 119.267 9.94082L118.851 9.94235L118.805 -0.123413L115.893 -0.109663L115.983 18.7737L118.893 18.7607L118.866 12.7718L119.198 12.7703C119.531 12.7687 119.865 12.9337 119.949 13.1828L124.052 18.7362L127.462 18.721L122.604 11.8399Z" fill="#E3E3E3"/>
<path d="M67.0067 5.86083C63.8465 5.87611 61.4433 7.96687 60.5442 11.2982C59.0356 8.97597 57.8584 6.31993 57.1831 4.07715L53.8564 4.09243L53.8976 12.91C53.9013 13.7484 53.5719 14.5539 52.9819 15.1495C52.3919 15.745 51.5895 16.082 50.7512 16.0862C49.9128 16.0899 49.1073 15.7605 48.5117 15.1705C47.9161 14.5805 47.5792 13.7781 47.5749 12.9398L47.5329 4.12222L44.2047 4.1375L44.2459 12.9551C44.2635 16.6141 47.1869 19.5138 50.7649 19.4962C54.343 19.4787 57.2412 16.5537 57.2244 12.894L57.2167 11.3967C57.8874 12.7236 58.7262 14.1337 59.6482 15.3781L57.614 25.12L61.024 25.1047L62.4906 18.0265C63.8251 18.8531 65.317 19.3442 67.0709 19.3358C70.7315 19.3183 73.7129 16.3108 73.6938 12.4837C73.6799 10.7205 72.969 9.03433 71.7163 7.79336C70.4636 6.55239 68.7708 5.85739 67.0075 5.86006L67.0067 5.86083ZM67.0541 15.9266C65.7234 15.9327 64.3904 15.3567 63.3049 14.4462L63.6311 13.1147V13.0383C63.8756 11.6221 64.6104 9.20666 67.1068 9.19597C67.987 9.19451 68.8322 9.54076 69.4584 10.1594C70.0846 10.778 70.4411 11.6189 70.4503 12.499C70.3755 14.4126 68.8026 15.9174 67.0549 15.9258L67.0541 15.9266Z" fill="#6FDA44"/>
</g>
<path d="M159.444 15.2778V1.38892L149.028 8.33336L138.611 15.2778L149.028 23.2639L159.444 15.2778Z" fill="#FF057B"/>
<path d="M159.444 1.38892H138.611L149.028 8.33336L159.444 1.38892Z" fill="#FF9CBE"/>
<path d="M138.611 1.38892V15.2778L149.028 8.33336L138.611 1.38892Z" fill="#FF619C"/>
<path d="M47.7778 46.3334V37.5278H44.2222V36.5417H52.4861V37.5278H48.9306V46.3334H47.7778ZM57.2308 46.4584C56.3234 46.4584 55.5317 46.2547 54.8558 45.8473C54.1891 45.4306 53.6706 44.8473 53.3002 44.0973C52.9391 43.3473 52.7586 42.4584 52.7586 41.4306C52.7586 40.4028 52.9391 39.5139 53.3002 38.7639C53.6614 38.0139 54.1752 37.4352 54.8419 37.0278C55.5178 36.6204 56.3141 36.4167 57.2308 36.4167C58.1567 36.4167 58.953 36.6204 59.6197 37.0278C60.2956 37.4352 60.8141 38.0139 61.1752 38.7639C61.5456 39.5047 61.7308 40.3889 61.7308 41.4167C61.7308 42.4445 61.5456 43.338 61.1752 44.0973C60.8049 44.8473 60.2817 45.4306 59.6058 45.8473C58.9391 46.2547 58.1475 46.4584 57.2308 46.4584ZM57.2308 45.4445C58.2771 45.4445 59.0873 45.0926 59.6614 44.3889C60.2354 43.6852 60.5225 42.6991 60.5225 41.4306C60.5225 40.1621 60.2354 39.1806 59.6614 38.4862C59.0873 37.7824 58.2771 37.4306 57.2308 37.4306C56.203 37.4306 55.4021 37.7824 54.828 38.4862C54.2539 39.1806 53.9669 40.1621 53.9669 41.4306C53.9669 42.6899 54.2539 43.676 54.828 44.3889C55.4021 45.0926 56.203 45.4445 57.2308 45.4445ZM63.7669 46.3334V36.5417H67.6419C68.6975 36.5417 69.503 36.7963 70.0586 37.3056C70.6234 37.8149 70.9058 38.5417 70.9058 39.4862C70.9058 40.4213 70.6234 41.1482 70.0586 41.6667C69.503 42.176 68.6975 42.4306 67.6419 42.4306H64.9058V46.3334H63.7669ZM64.9058 41.4723H67.503C69.0216 41.4723 69.7808 40.8102 69.7808 39.4862C69.7808 38.1528 69.0216 37.4862 67.503 37.4862H64.9058V41.4723ZM76.1232 46.3334V36.5417H79.9982C81.0537 36.5417 81.8593 36.7871 82.4148 37.2778C82.9796 37.7686 83.262 38.4676 83.262 39.375C83.262 40.0973 83.063 40.6899 82.6648 41.1528C82.2759 41.6158 81.7204 41.9167 80.9982 42.0556C81.4241 42.2037 81.7898 42.5649 82.0954 43.1389L83.8176 46.3334H82.5676L80.8732 43.1945C80.6602 42.8056 80.4148 42.5417 80.137 42.4028C79.8593 42.2639 79.4935 42.1945 79.0398 42.1945H77.262V46.3334H76.1232ZM77.262 41.2917H79.8315C81.3685 41.2917 82.137 40.6528 82.137 39.375C82.137 38.1158 81.3685 37.4862 79.8315 37.4862H77.262V41.2917ZM84.3204 46.3334L88.6399 36.5417H89.6121L93.9315 46.3334H92.751L91.6676 43.8334H86.5704L85.501 46.3334H84.3204ZM89.1121 37.875L86.9871 42.875H91.2649L89.1399 37.875H89.1121ZM96.728 46.3334V37.5278H93.1724V36.5417H101.436V37.5278H97.8808V46.3334H96.728ZM102.68 46.3334V36.5417H108.861V37.5H103.791V40.8889H108.569V41.8473H103.791V45.375H108.861V46.3334H102.68ZM110.778 46.3334V36.5417H114.083C115.666 36.5417 116.889 36.963 117.75 37.8056C118.611 38.6389 119.041 39.8473 119.041 41.4306C119.041 43.0139 118.611 44.2269 117.75 45.0695C116.889 45.9121 115.666 46.3334 114.083 46.3334H110.778ZM111.916 45.3612H114C116.555 45.3612 117.833 44.051 117.833 41.4306C117.833 38.8195 116.555 37.5139 114 37.5139H111.916V45.3612ZM124.653 46.3334V36.5417H128.528C129.583 36.5417 130.389 36.7963 130.945 37.3056C131.509 37.8149 131.792 38.5417 131.792 39.4862C131.792 40.4213 131.509 41.1482 130.945 41.6667C130.389 42.176 129.583 42.4306 128.528 42.4306H125.792V46.3334H124.653ZM125.792 41.4723H128.389C129.908 41.4723 130.667 40.8102 130.667 39.4862C130.667 38.1528 129.908 37.4862 128.389 37.4862H125.792V41.4723ZM133.442 46.3334V36.5417H134.581V45.3334H139.567V46.3334H133.442ZM144.478 46.4584C143.191 46.4584 142.214 46.1204 141.548 45.4445C140.881 44.7593 140.548 43.7639 140.548 42.4584V36.5417H141.686V42.4028C141.686 44.4306 142.617 45.4445 144.478 45.4445C146.321 45.4445 147.242 44.4306 147.242 42.4028V36.5417H148.381V42.4584C148.381 43.7639 148.048 44.7593 147.381 45.4445C146.723 46.1204 145.756 46.4584 144.478 46.4584ZM153.888 46.4584C153.12 46.4584 152.425 46.3612 151.805 46.1667C151.185 45.963 150.648 45.6713 150.194 45.2917L150.597 44.375C151.069 44.7362 151.564 45.0047 152.083 45.1806C152.601 45.3565 153.203 45.4445 153.888 45.4445C154.722 45.4445 155.337 45.2917 155.736 44.9862C156.143 44.6713 156.347 44.2593 156.347 43.75C156.347 43.3426 156.199 43.0186 155.902 42.7778C155.615 42.5371 155.129 42.3473 154.444 42.2084L152.999 41.9167C152.129 41.7315 151.476 41.4306 151.041 41.0139C150.615 40.588 150.402 40.0232 150.402 39.3195C150.402 38.7362 150.55 38.2269 150.847 37.7917C151.152 37.3565 151.574 37.0186 152.111 36.7778C152.648 36.5371 153.268 36.4167 153.972 36.4167C154.629 36.4167 155.24 36.5232 155.805 36.7362C156.37 36.9399 156.847 37.2362 157.236 37.625L156.833 38.5139C156.416 38.1343 155.976 37.8612 155.513 37.6945C155.05 37.5186 154.532 37.4306 153.958 37.4306C153.226 37.4306 152.643 37.6019 152.208 37.9445C151.773 38.2778 151.555 38.7223 151.555 39.2778C151.555 39.7223 151.689 40.0741 151.958 40.3334C152.236 40.5926 152.685 40.7824 153.305 40.9028L154.749 41.2084C155.685 41.4028 156.374 41.6991 156.819 42.0973C157.273 42.4862 157.499 43.0186 157.499 43.6945C157.499 44.2408 157.351 44.7223 157.055 45.1389C156.768 45.5556 156.351 45.8797 155.805 46.1112C155.268 46.3426 154.629 46.4584 153.888 46.4584Z" fill="#828282"/>
</g>
<g clip-path="url(#clip2_4267_11180)">
<path d="M14.113 6.75305C13.1219 8.38095 12.0844 10.3094 11.415 12.2358C10.2271 15.6538 9.19367 19.3664 8.475 22.9358C7.98949 25.3471 7.53837 28.8747 7.52514 31.3227C7.50762 34.5808 7.62788 36.8023 8.28179 40.0719C9.20304 44.678 11.2505 48.8978 14.0191 52.4898C18.0923 57.7745 24.8439 60.6569 31.1735 62.6056C36.1251 64.1299 41.8073 64.0023 46.6667 63.5931L46.5802 62.2367C41.7658 62.6431 36.4774 62.66 31.7301 61.1953C25.6233 59.3111 19.4669 56.419 15.1946 51.5619C12.5933 48.6056 10.6552 44.9403 9.57189 41.0255C8.6229 37.596 8.40757 33.8203 8.29119 30.3508C8.19563 27.4986 8.50033 25.1023 9.01151 22.4905C9.65957 19.1792 10.5101 15.8492 11.5778 12.6747C12.2689 10.6197 13.4735 8.49724 14.4708 6.85924L14.113 6.75305Z" fill="#828282"/>
<path d="M37.3881 63.5981C37.3881 63.5981 34.03 64.0088 31.824 65.3591C28.3216 67.5025 29.0236 69.9884 29.0236 69.9884C29.0236 69.9884 30.9262 70.2393 33.9505 68.4186C37.4936 66.2856 37.3881 63.5981 37.3881 63.5981Z" fill="#828282"/>
<path d="M30.83 62.4226C30.83 62.4226 27.8223 62.3718 25.484 63.4697C21.4358 65.3703 22.1721 67.6699 22.1721 67.6699C22.1721 67.6699 24.124 68.0686 27.3573 66.5266C31.0859 64.7484 30.83 62.4226 30.83 62.4226Z" fill="#828282"/>
<path d="M25.4926 60.4684C25.4926 60.4684 22.2031 59.4607 19.6682 59.9305C15.2797 60.7435 15.0158 63.669 15.0158 63.669C15.0158 63.669 17.2784 64.7762 20.7893 64.1037C24.8382 63.328 25.4926 60.4684 25.4926 60.4684Z" fill="#828282"/>
<path d="M18.7918 56.7579C18.7918 56.7579 15.8163 55.5338 12.6773 55.9439C8.58085 56.4791 7.87594 59.4558 7.85126 59.5335C7.85126 59.5335 10.1663 60.7351 13.6087 60.1443C18.226 59.3518 18.7918 56.7579 18.7918 56.7579Z" fill="#828282"/>
<path d="M14.794 53.1907C14.794 53.1907 11.6239 51.16 8.21689 51.081C4.90695 51.0038 3.42961 53.0476 3.40021 53.1146C3.40021 53.1146 5.95271 55.057 9.07367 55.1141C13.3141 55.1914 14.794 53.1907 14.794 53.1907Z" fill="#828282"/>
<path d="M12.428 49.5344C11.0003 49.0408 9.76429 46.4817 7.39201 45.0355C4.08248 43.0179 0.887722 44.7457 0.850891 44.7959C0.850891 44.7959 2.84138 48.2916 6.32578 49.354C10.0288 50.483 12.428 49.5344 12.428 49.5344Z" fill="#828282"/>
<path d="M9.39045 43.4963C9.39045 43.4963 8.06361 40.2724 6.15546 38.2388C3.49361 35.4022 0.048778 36.1907 0 36.2291C0 36.2291 1.10232 40.0654 4.18306 42.0283C7.45719 44.1143 9.39045 43.4963 9.39045 43.4963Z" fill="#828282"/>
<path d="M8.05518 36.9244C8.05518 36.9244 7.48786 33.9662 6.03417 31.5776C3.84324 27.9775 0.548477 28.5186 0.494934 28.55C0.494934 28.55 1.07475 32.5519 3.86193 34.9233C6.82404 37.4436 8.05518 36.9244 8.05518 36.9244Z" fill="#828282"/>
<path d="M7.77339 29.3377C7.77339 29.3377 7.71333 26.4532 6.4394 23.9614C4.67133 20.503 1.63407 20.0965 1.57697 20.1203C1.57697 20.1203 0.22921 23.2576 3.55169 27.1455C5.5671 29.5037 7.77339 29.3377 7.77339 29.3377Z" fill="#828282"/>
<path d="M8.70438 22.5651C8.70438 22.5651 9.16035 19.4959 8.45155 16.7827C7.78611 14.2354 5.68512 12.0939 5.36773 11.9543C5.36773 11.9543 3.39113 14.1918 5.37522 18.3726C6.70969 21.1847 8.70438 22.5651 8.70438 22.5651Z" fill="#828282"/>
<path d="M10.4688 15.6308C10.4688 15.6308 11.4032 12.8438 10.678 9.95514C10.0766 7.56161 8.60572 5.33681 7.92559 4.92566C7.92559 4.92566 6.23132 7.49931 7.7441 11.3387C8.88589 14.2365 10.0982 15.3074 10.4688 15.6308Z" fill="#828282"/>
<path d="M12.004 11.1697C12.004 11.1697 15.5092 9.70826 16.7713 7.9101C18.184 5.89734 18.9687 2.57898 18.7968 1.79492C18.7968 1.79492 15.1747 1.84267 13.4572 5.59239C12.1609 8.42247 11.9818 10.6745 12.004 11.1697Z" fill="#828282"/>
<path d="M10.0934 17.1378C10.0934 17.1378 10.8659 14.4201 13.4738 12.6091C15.484 11.2132 17.3249 10.7999 18.6886 10.9405C18.6886 10.9405 17.9931 13.8677 14.9377 15.6338C12.2641 17.1792 10.5823 17.1252 10.0934 17.1378Z" fill="#828282"/>
<path d="M8.70679 23.2223C8.70679 23.2223 9.43613 20.6208 12.0441 18.8097C14.0544 17.414 15.2826 17.3309 16.6464 17.4715C16.6464 17.4715 16.241 20.1446 13.1857 21.9107C10.5121 23.4561 9.19564 23.2097 8.70679 23.2223Z" fill="#828282"/>
<path d="M8.03607 30.6359C8.03607 30.6359 8.46645 27.6453 10.6128 25.2924C12.8122 22.8813 14.4565 22.7921 15.824 22.6963C15.7051 23.4351 15.2379 26.5018 13.0817 28.3505C10.7318 30.3654 8.51573 30.5395 8.03607 30.6359Z" fill="#828282"/>
<path d="M8.41504 36.7713C8.41504 36.7713 8.63337 33.757 10.6082 31.2546C12.6318 28.6901 14.2655 28.4819 15.6228 28.2871C15.5563 29.0327 15.3067 32.1253 13.2865 34.1258C11.0847 36.3059 8.88666 36.6403 8.41504 36.7713Z" fill="#828282"/>
<path d="M10.1678 43.4627C10.6378 41.4819 10.5452 39.6278 11.5754 37.2655C12.8447 34.3553 14.9502 34.1274 16.248 33.6799C16.1581 35.1261 16.0651 37.3908 14.7894 39.6522C13.2614 42.3608 10.6072 43.2452 10.1678 43.4627Z" fill="#828282"/>
<path d="M12.8732 49.1263C13.1218 47.1048 13.0238 45.6631 13.7868 43.1989C14.7269 40.1629 16.7062 39.7138 17.9465 39.1221C18.0168 40.5691 18.031 42.7757 17.0129 45.1677C15.7934 48.0327 13.2857 48.8603 12.8732 49.1263Z" fill="#828282"/>
<path d="M16.149 53.1269C16.5792 50.211 16.1691 49.7847 16.7412 47.2677C17.3555 44.5647 19.2913 43.7399 20.4808 43.0491C20.6653 44.4859 20.8609 46.4541 20.0177 48.9153C19.1185 51.5397 17.2235 52.1275 16.149 53.1269Z" fill="#828282"/>
<path d="M20.5188 56.5137C20.5333 54.1024 19.8192 52.9297 20.0182 51.1335C20.344 48.1957 21.6334 47.4817 22.8231 46.791C23.1215 50.1268 23.357 50.0343 23.0514 52.2905C22.754 54.486 21.4143 55.3797 20.5188 56.5137Z" fill="#828282"/>
<path d="M25.0553 58.9645C24.6176 56.5942 23.8004 56.1835 23.6591 54.3817C23.4281 51.4347 24.5603 50.4852 25.5986 49.5779C26.222 51.3404 26.9127 52.3228 26.7983 54.5972C26.7176 56.2033 25.7219 57.6787 25.0553 58.9645Z" fill="#828282"/>
<path d="M28.9271 52.1326C28.9271 52.1326 30.8736 53.6855 31.5829 56.1972C32.5882 59.7561 31.0547 61.0648 31.0547 61.0648C31.0547 61.0648 29.3752 60.0101 28.0996 56.8883C26.7373 53.5537 28.9271 52.1326 28.9271 52.1326Z" fill="#828282"/>
<path d="M34.192 53.8054C34.192 53.8054 36.1507 55.3831 36.9841 57.8555C38.0522 61.024 36.7533 62.538 36.7533 62.538C36.7533 62.538 34.9622 61.3193 33.7731 58.783C31.9574 54.9098 34.192 53.8054 34.192 53.8054Z" fill="#828282"/>
</g>
<g clip-path="url(#clip3_4267_11180)">
<path d="M186.015 6.75305C187.006 8.38095 188.043 10.3094 188.713 12.2358C189.901 15.6538 190.935 19.3664 191.653 22.9358C192.139 25.3471 192.59 28.8747 192.602 31.3227C192.62 34.5808 192.5 36.8023 191.847 40.0719C190.926 44.678 188.878 48.8978 186.108 52.4898C182.036 57.7745 175.284 60.6569 168.955 62.6056C164.003 64.1299 158.32 64.0023 153.462 63.5931L153.548 62.2367C158.363 62.6431 163.651 62.66 168.398 61.1953C174.505 59.3111 180.661 56.419 184.933 51.5619C187.535 48.6056 189.474 44.9403 190.556 41.0255C191.506 37.596 191.721 33.8203 191.838 30.3508C191.933 27.4986 191.628 25.1023 191.116 22.4905C190.468 19.1792 189.617 15.8492 188.551 12.6747C187.858 10.6197 186.654 8.49724 185.658 6.85924L186.015 6.75305Z" fill="#828282"/>
<path d="M162.741 63.5981C162.741 63.5981 166.097 64.0088 168.303 65.3591C171.807 67.5025 171.105 69.9884 171.105 69.9884C171.105 69.9884 169.203 70.2393 166.178 68.4186C162.635 66.2856 162.741 63.5981 162.741 63.5981Z" fill="#828282"/>
<path d="M169.298 62.4226C169.298 62.4226 172.306 62.3718 174.645 63.4697C178.692 65.3703 177.956 67.6699 177.956 67.6699C177.956 67.6699 176.003 68.0686 172.771 66.5266C169.043 64.7484 169.298 62.4226 169.298 62.4226Z" fill="#828282"/>
<path d="M174.636 60.4684C174.636 60.4684 177.926 59.4607 180.46 59.9305C184.848 60.7435 185.112 63.669 185.112 63.669C185.112 63.669 182.849 64.7762 179.338 64.1037C175.291 63.328 174.636 60.4684 174.636 60.4684Z" fill="#828282"/>
<path d="M181.336 56.7579C181.336 56.7579 184.312 55.5338 187.451 55.9439C191.547 56.4791 192.252 59.4558 192.277 59.5335C192.277 59.5335 189.962 60.7351 186.519 60.1443C181.903 59.3518 181.336 56.7579 181.336 56.7579Z" fill="#828282"/>
<path d="M185.335 53.1907C185.335 53.1907 188.505 51.16 191.911 51.081C195.221 51.0038 196.698 53.0476 196.729 53.1146C196.729 53.1146 194.175 55.057 191.055 55.1141C186.814 55.1914 185.335 53.1907 185.335 53.1907Z" fill="#828282"/>
<path d="M187.701 49.5344C189.127 49.0408 190.364 46.4817 192.737 45.0355C196.045 43.0179 199.24 44.7457 199.277 44.7959C199.277 44.7959 197.287 48.2916 193.803 49.354C190.1 50.483 187.701 49.5344 187.701 49.5344Z" fill="#828282"/>
<path d="M190.737 43.4963C190.737 43.4963 192.064 40.2724 193.974 38.2388C196.635 35.4022 200.08 36.1907 200.128 36.2291C200.128 36.2291 199.026 40.0654 195.944 42.0283C192.671 44.1143 190.737 43.4963 190.737 43.4963Z" fill="#828282"/>
<path d="M192.073 36.9244C192.073 36.9244 192.64 33.9662 194.094 31.5776C196.285 27.9775 199.579 28.5186 199.633 28.55C199.633 28.55 199.053 32.5519 196.266 34.9233C193.304 37.4436 192.073 36.9244 192.073 36.9244Z" fill="#828282"/>
<path d="M192.355 29.3377C192.355 29.3377 192.416 26.4532 193.688 23.9614C195.456 20.503 198.495 20.0965 198.551 20.1203C198.551 20.1203 199.898 23.2576 196.576 27.1455C194.561 29.5037 192.355 29.3377 192.355 29.3377Z" fill="#828282"/>
<path d="M191.423 22.5651C191.423 22.5651 190.967 19.4959 191.676 16.7827C192.342 14.2354 194.444 12.0939 194.76 11.9543C194.76 11.9543 196.738 14.1918 194.753 18.3726C193.419 21.1847 191.423 22.5651 191.423 22.5651Z" fill="#828282"/>
<path d="M189.659 15.6308C189.659 15.6308 188.725 12.8438 189.451 9.95514C190.052 7.56161 191.522 5.33681 192.202 4.92566C192.202 4.92566 193.896 7.49931 192.383 11.3387C191.242 14.2365 190.03 15.3074 189.659 15.6308Z" fill="#828282"/>
<path d="M188.124 11.1697C188.124 11.1697 184.619 9.70826 183.357 7.9101C181.944 5.89734 181.16 2.57898 181.332 1.79492C181.332 1.79492 184.954 1.84267 186.67 5.59239C187.968 8.42247 188.146 10.6745 188.124 11.1697Z" fill="#828282"/>
<path d="M190.036 17.1378C190.036 17.1378 189.262 14.4201 186.654 12.6091C184.644 11.2132 182.804 10.7999 181.44 10.9405C181.44 10.9405 182.135 13.8677 185.191 15.6338C187.864 17.1792 189.546 17.1252 190.036 17.1378Z" fill="#828282"/>
<path d="M191.421 23.2223C191.421 23.2223 190.693 20.6208 188.085 18.8097C186.074 17.414 184.845 17.3309 183.483 17.4715C183.483 17.4715 183.886 20.1446 186.943 21.9107C189.616 23.4561 190.933 23.2097 191.421 23.2223Z" fill="#828282"/>
<path d="M192.093 30.6359C192.093 30.6359 191.662 27.6453 189.515 25.2924C187.316 22.8813 185.672 22.7921 184.305 22.6963C184.423 23.4351 184.89 26.5018 187.047 28.3505C189.397 30.3654 191.613 30.5395 192.093 30.6359Z" fill="#828282"/>
<path d="M191.714 36.7713C191.714 36.7713 191.495 33.757 189.521 31.2546C187.496 28.6901 185.863 28.4819 184.506 28.2871C184.572 29.0327 184.822 32.1253 186.843 34.1258C189.043 36.3059 191.242 36.6403 191.714 36.7713Z" fill="#828282"/>
<path d="M189.96 43.4627C189.49 41.4819 189.583 39.6278 188.553 37.2655C187.284 34.3553 185.179 34.1274 183.881 33.6799C183.971 35.1261 184.062 37.3908 185.338 39.6522C186.868 42.3608 189.521 43.2452 189.96 43.4627Z" fill="#828282"/>
<path d="M187.255 49.1263C187.006 47.1048 187.105 45.6631 186.342 43.1989C185.401 40.1629 183.422 39.7138 182.181 39.1221C182.111 40.5691 182.097 42.7757 183.115 45.1677C184.335 48.0327 186.843 48.8603 187.255 49.1263Z" fill="#828282"/>
<path d="M183.98 53.1269C183.549 50.211 183.96 49.7847 183.387 47.2677C182.774 44.5647 180.837 43.7399 179.647 43.0491C179.464 44.4859 179.266 46.4541 180.11 48.9153C181.009 51.5397 182.905 52.1275 183.98 53.1269Z" fill="#828282"/>
<path d="M179.609 56.5137C179.595 54.1024 180.309 52.9297 180.11 51.1335C179.783 48.1957 178.495 47.4817 177.305 46.791C177.007 50.1268 176.772 50.0343 177.077 52.2905C177.375 54.486 178.714 55.3797 179.609 56.5137Z" fill="#828282"/>
<path d="M175.074 58.9645C175.51 56.5942 176.328 56.1835 176.47 54.3817C176.7 51.4347 175.567 50.4852 174.53 49.5779C173.907 51.3404 173.216 52.3228 173.329 54.5972C173.412 56.2033 174.406 57.6787 175.074 58.9645Z" fill="#828282"/>
<path d="M171.202 52.1326C171.202 52.1326 169.255 53.6855 168.546 56.1972C167.541 59.7561 169.073 61.0648 169.073 61.0648C169.073 61.0648 170.753 60.0101 172.028 56.8883C173.392 53.5537 171.202 52.1326 171.202 52.1326Z" fill="#828282"/>
<path d="M165.936 53.8054C165.936 53.8054 163.978 55.3831 163.145 57.8555C162.075 61.024 163.375 62.538 163.375 62.538C163.375 62.538 165.166 61.3193 166.356 58.783C168.171 54.9098 165.936 53.8054 165.936 53.8054Z" fill="#828282"/>
</g>
<defs>
<clipPath id="clip0_4267_11180">
<rect width="120" height="50" fill="white" transform="translate(40)"/>
</clipPath>
<clipPath id="clip1_4267_11180">
<rect width="91.6667" height="23.6111" fill="white" transform="translate(40)"/>
</clipPath>
<clipPath id="clip2_4267_11180">
<rect width="48" height="70" fill="white"/>
</clipPath>
<clipPath id="clip3_4267_11180">
<rect width="48" height="70" fill="white" transform="translate(152)"/>
</clipPath>
</defs>
</svg>
