<svg width="185" height="70" viewBox="0 0 185 70" fill="none" xmlns="http://www.w3.org/2000/svg">
<g clip-path="url(#clip0_4267_11238)">
<path d="M14.113 6.75305C13.1219 8.38095 12.0844 10.3094 11.415 12.2358C10.2271 15.6538 9.19367 19.3664 8.475 22.9358C7.98949 25.3471 7.53837 28.8747 7.52514 31.3227C7.50762 34.5808 7.62788 36.8023 8.28179 40.0719C9.20304 44.678 11.2505 48.8978 14.0191 52.4898C18.0923 57.7745 24.8439 60.6569 31.1735 62.6056C36.1251 64.1299 41.8073 64.0023 46.6667 63.5931L46.5802 62.2367C41.7658 62.6431 36.4774 62.66 31.7301 61.1953C25.6233 59.3111 19.4669 56.419 15.1946 51.5619C12.5933 48.6056 10.6552 44.9403 9.57189 41.0255C8.6229 37.596 8.40757 33.8203 8.29119 30.3508C8.19563 27.4986 8.50033 25.1023 9.01151 22.4905C9.65957 19.1792 10.5101 15.8492 11.5778 12.6747C12.2689 10.6197 13.4735 8.49724 14.4708 6.85924L14.113 6.75305Z" fill="#828282"/>
<path d="M37.3881 63.5981C37.3881 63.5981 34.03 64.0088 31.824 65.3591C28.3216 67.5025 29.0236 69.9884 29.0236 69.9884C29.0236 69.9884 30.9262 70.2393 33.9505 68.4186C37.4936 66.2856 37.3881 63.5981 37.3881 63.5981Z" fill="#828282"/>
<path d="M30.83 62.4226C30.83 62.4226 27.8223 62.3718 25.484 63.4697C21.4358 65.3703 22.1721 67.6699 22.1721 67.6699C22.1721 67.6699 24.124 68.0686 27.3573 66.5266C31.0859 64.7484 30.83 62.4226 30.83 62.4226Z" fill="#828282"/>
<path d="M25.4926 60.4684C25.4926 60.4684 22.2031 59.4607 19.6682 59.9305C15.2797 60.7435 15.0158 63.669 15.0158 63.669C15.0158 63.669 17.2784 64.7762 20.7893 64.1037C24.8382 63.328 25.4926 60.4684 25.4926 60.4684Z" fill="#828282"/>
<path d="M18.7918 56.7579C18.7918 56.7579 15.8163 55.5338 12.6773 55.9439C8.58085 56.4791 7.87594 59.4558 7.85126 59.5335C7.85126 59.5335 10.1663 60.7351 13.6087 60.1443C18.226 59.3518 18.7918 56.7579 18.7918 56.7579Z" fill="#828282"/>
<path d="M14.794 53.1907C14.794 53.1907 11.6239 51.16 8.21689 51.081C4.90695 51.0038 3.42961 53.0476 3.40021 53.1146C3.40021 53.1146 5.95271 55.057 9.07367 55.1141C13.3141 55.1914 14.794 53.1907 14.794 53.1907Z" fill="#828282"/>
<path d="M12.428 49.5344C11.0003 49.0408 9.76429 46.4817 7.39201 45.0355C4.08248 43.0179 0.887722 44.7457 0.850891 44.7959C0.850891 44.7959 2.84138 48.2916 6.32578 49.354C10.0288 50.483 12.428 49.5344 12.428 49.5344Z" fill="#828282"/>
<path d="M9.39045 43.4963C9.39045 43.4963 8.06361 40.2724 6.15546 38.2388C3.49361 35.4022 0.048778 36.1907 0 36.2291C0 36.2291 1.10232 40.0654 4.18306 42.0283C7.45719 44.1143 9.39045 43.4963 9.39045 43.4963Z" fill="#828282"/>
<path d="M8.05518 36.9244C8.05518 36.9244 7.48786 33.9662 6.03417 31.5776C3.84324 27.9775 0.548477 28.5186 0.494934 28.55C0.494934 28.55 1.07475 32.5519 3.86193 34.9233C6.82404 37.4436 8.05518 36.9244 8.05518 36.9244Z" fill="#828282"/>
<path d="M7.77339 29.3377C7.77339 29.3377 7.71333 26.4532 6.4394 23.9614C4.67133 20.503 1.63407 20.0965 1.57697 20.1203C1.57697 20.1203 0.22921 23.2576 3.55169 27.1455C5.5671 29.5037 7.77339 29.3377 7.77339 29.3377Z" fill="#828282"/>
<path d="M8.70438 22.5651C8.70438 22.5651 9.16035 19.4959 8.45155 16.7827C7.78611 14.2354 5.68512 12.0939 5.36773 11.9543C5.36773 11.9543 3.39113 14.1918 5.37522 18.3726C6.70969 21.1847 8.70438 22.5651 8.70438 22.5651Z" fill="#828282"/>
<path d="M10.4688 15.6308C10.4688 15.6308 11.4032 12.8438 10.678 9.95514C10.0766 7.56161 8.60572 5.33681 7.92559 4.92566C7.92559 4.92566 6.23132 7.49931 7.7441 11.3387C8.88589 14.2365 10.0982 15.3074 10.4688 15.6308Z" fill="#828282"/>
<path d="M12.004 11.1697C12.004 11.1697 15.5092 9.70826 16.7713 7.9101C18.184 5.89734 18.9687 2.57898 18.7968 1.79492C18.7968 1.79492 15.1747 1.84267 13.4572 5.59239C12.1609 8.42247 11.9818 10.6745 12.004 11.1697Z" fill="#828282"/>
<path d="M10.0934 17.1378C10.0934 17.1378 10.8659 14.4201 13.4738 12.6091C15.484 11.2132 17.3249 10.7999 18.6886 10.9405C18.6886 10.9405 17.9931 13.8677 14.9377 15.6338C12.2641 17.1792 10.5823 17.1252 10.0934 17.1378Z" fill="#828282"/>
<path d="M8.70679 23.2223C8.70679 23.2223 9.43613 20.6208 12.0441 18.8097C14.0544 17.414 15.2826 17.3309 16.6464 17.4715C16.6464 17.4715 16.241 20.1446 13.1857 21.9107C10.5121 23.4561 9.19564 23.2097 8.70679 23.2223Z" fill="#828282"/>
<path d="M8.03607 30.6359C8.03607 30.6359 8.46645 27.6453 10.6128 25.2924C12.8122 22.8813 14.4565 22.7921 15.824 22.6963C15.7051 23.4351 15.2379 26.5018 13.0817 28.3505C10.7318 30.3654 8.51573 30.5395 8.03607 30.6359Z" fill="#828282"/>
<path d="M8.41504 36.7713C8.41504 36.7713 8.63337 33.757 10.6082 31.2546C12.6318 28.6901 14.2655 28.4819 15.6228 28.2871C15.5563 29.0327 15.3067 32.1253 13.2865 34.1258C11.0847 36.3059 8.88666 36.6403 8.41504 36.7713Z" fill="#828282"/>
<path d="M10.1678 43.4627C10.6378 41.4819 10.5452 39.6278 11.5754 37.2655C12.8447 34.3553 14.9502 34.1274 16.248 33.6799C16.1581 35.1261 16.0651 37.3908 14.7894 39.6522C13.2614 42.3608 10.6072 43.2452 10.1678 43.4627Z" fill="#828282"/>
<path d="M12.8732 49.1263C13.1218 47.1048 13.0238 45.6631 13.7868 43.1989C14.7269 40.1629 16.7062 39.7138 17.9465 39.1221C18.0168 40.5691 18.031 42.7757 17.0129 45.1677C15.7934 48.0327 13.2857 48.8603 12.8732 49.1263Z" fill="#828282"/>
<path d="M16.149 53.1269C16.5792 50.211 16.1691 49.7847 16.7412 47.2677C17.3555 44.5647 19.2913 43.7399 20.4808 43.0491C20.6653 44.4859 20.8609 46.4541 20.0177 48.9153C19.1185 51.5397 17.2235 52.1275 16.149 53.1269Z" fill="#828282"/>
<path d="M20.5188 56.5137C20.5333 54.1024 19.8192 52.9297 20.0182 51.1335C20.344 48.1957 21.6334 47.4817 22.8231 46.791C23.1215 50.1268 23.357 50.0343 23.0514 52.2905C22.754 54.486 21.4143 55.3797 20.5188 56.5137Z" fill="#828282"/>
<path d="M25.0553 58.9645C24.6176 56.5942 23.8004 56.1835 23.6591 54.3817C23.4281 51.4347 24.5603 50.4852 25.5986 49.5779C26.222 51.3404 26.9127 52.3228 26.7983 54.5972C26.7176 56.2033 25.7219 57.6787 25.0553 58.9645Z" fill="#828282"/>
<path d="M28.9271 52.1326C28.9271 52.1326 30.8736 53.6855 31.5829 56.1972C32.5882 59.7561 31.0547 61.0648 31.0547 61.0648C31.0547 61.0648 29.3752 60.0101 28.0996 56.8883C26.7373 53.5537 28.9271 52.1326 28.9271 52.1326Z" fill="#828282"/>
<path d="M34.192 53.8054C34.192 53.8054 36.1507 55.3831 36.9841 57.8555C38.0522 61.024 36.7533 62.538 36.7533 62.538C36.7533 62.538 34.9622 61.3193 33.7731 58.783C31.9574 54.9098 34.192 53.8054 34.192 53.8054Z" fill="#828282"/>
</g>
<g clip-path="url(#clip1_4267_11238)">
<path d="M171.015 6.75305C172.006 8.38095 173.043 10.3094 173.713 12.2358C174.901 15.6538 175.935 19.3664 176.653 22.9358C177.139 25.3471 177.59 28.8747 177.602 31.3227C177.62 34.5808 177.5 36.8023 176.847 40.0719C175.926 44.678 173.878 48.8978 171.108 52.4898C167.036 57.7745 160.284 60.6569 153.955 62.6056C149.003 64.1299 143.32 64.0023 138.461 63.5931L138.548 62.2367C143.363 62.6431 148.651 62.66 153.398 61.1953C159.505 59.3111 165.661 56.419 169.933 51.5619C172.535 48.6056 174.474 44.9403 175.556 41.0255C176.506 37.596 176.721 33.8203 176.838 30.3508C176.933 27.4986 176.628 25.1023 176.116 22.4905C175.468 19.1792 174.617 15.8492 173.551 12.6747C172.858 10.6197 171.654 8.49724 170.658 6.85924L171.015 6.75305Z" fill="#828282"/>
<path d="M147.741 63.5981C147.741 63.5981 151.097 64.0088 153.303 65.3591C156.807 67.5025 156.105 69.9884 156.105 69.9884C156.105 69.9884 154.202 70.2393 151.178 68.4186C147.635 66.2856 147.741 63.5981 147.741 63.5981Z" fill="#828282"/>
<path d="M154.298 62.4226C154.298 62.4226 157.306 62.3718 159.645 63.4697C163.692 65.3703 162.956 67.6699 162.956 67.6699C162.956 67.6699 161.003 68.0686 157.771 66.5266C154.043 64.7484 154.298 62.4226 154.298 62.4226Z" fill="#828282"/>
<path d="M159.636 60.4684C159.636 60.4684 162.926 59.4607 165.46 59.9305C169.848 60.7435 170.112 63.669 170.112 63.669C170.112 63.669 167.849 64.7762 164.338 64.1037C160.291 63.328 159.636 60.4684 159.636 60.4684Z" fill="#828282"/>
<path d="M166.336 56.7579C166.336 56.7579 169.312 55.5338 172.451 55.9439C176.547 56.4791 177.252 59.4558 177.277 59.5335C177.277 59.5335 174.962 60.7351 171.519 60.1443C166.903 59.3518 166.336 56.7579 166.336 56.7579Z" fill="#828282"/>
<path d="M170.335 53.1907C170.335 53.1907 173.505 51.16 176.911 51.081C180.221 51.0038 181.698 53.0476 181.729 53.1146C181.729 53.1146 179.175 55.057 176.055 55.1141C171.814 55.1914 170.335 53.1907 170.335 53.1907Z" fill="#828282"/>
<path d="M172.7 49.5344C174.127 49.0408 175.364 46.4817 177.737 45.0355C181.045 43.0179 184.24 44.7457 184.277 44.7959C184.277 44.7959 182.287 48.2916 178.803 49.354C175.1 50.483 172.7 49.5344 172.7 49.5344Z" fill="#828282"/>
<path d="M175.737 43.4963C175.737 43.4963 177.064 40.2724 178.974 38.2388C181.635 35.4022 185.08 36.1907 185.128 36.2291C185.128 36.2291 184.026 40.0654 180.944 42.0283C177.671 44.1143 175.737 43.4963 175.737 43.4963Z" fill="#828282"/>
<path d="M177.073 36.9244C177.073 36.9244 177.64 33.9662 179.094 31.5776C181.285 27.9775 184.579 28.5186 184.633 28.55C184.633 28.55 184.053 32.5519 181.266 34.9233C178.304 37.4436 177.073 36.9244 177.073 36.9244Z" fill="#828282"/>
<path d="M177.355 29.3377C177.355 29.3377 177.416 26.4532 178.688 23.9614C180.456 20.503 183.495 20.0965 183.551 20.1203C183.551 20.1203 184.898 23.2576 181.576 27.1455C179.561 29.5037 177.355 29.3377 177.355 29.3377Z" fill="#828282"/>
<path d="M176.423 22.5651C176.423 22.5651 175.967 19.4959 176.676 16.7827C177.342 14.2354 179.444 12.0939 179.76 11.9543C179.76 11.9543 181.738 14.1918 179.753 18.3726C178.419 21.1847 176.423 22.5651 176.423 22.5651Z" fill="#828282"/>
<path d="M174.659 15.6308C174.659 15.6308 173.725 12.8438 174.45 9.95514C175.052 7.56161 176.522 5.33681 177.202 4.92566C177.202 4.92566 178.896 7.49931 177.383 11.3387C176.242 14.2365 175.03 15.3074 174.659 15.6308Z" fill="#828282"/>
<path d="M173.124 11.1697C173.124 11.1697 169.619 9.70826 168.357 7.9101C166.944 5.89734 166.16 2.57898 166.332 1.79492C166.332 1.79492 169.954 1.84267 171.67 5.59239C172.968 8.42247 173.146 10.6745 173.124 11.1697Z" fill="#828282"/>
<path d="M175.036 17.1378C175.036 17.1378 174.262 14.4201 171.654 12.6091C169.644 11.2132 167.804 10.7999 166.44 10.9405C166.44 10.9405 167.135 13.8677 170.191 15.6338C172.864 17.1792 174.546 17.1252 175.036 17.1378Z" fill="#828282"/>
<path d="M176.421 23.2223C176.421 23.2223 175.693 20.6208 173.085 18.8097C171.074 17.414 169.845 17.3309 168.483 17.4715C168.483 17.4715 168.886 20.1446 171.943 21.9107C174.616 23.4561 175.933 23.2097 176.421 23.2223Z" fill="#828282"/>
<path d="M177.093 30.6359C177.093 30.6359 176.662 27.6453 174.515 25.2924C172.316 22.8813 170.672 22.7921 169.305 22.6963C169.423 23.4351 169.89 26.5018 172.047 28.3505C174.397 30.3654 176.613 30.5395 177.093 30.6359Z" fill="#828282"/>
<path d="M176.714 36.7713C176.714 36.7713 176.495 33.757 174.52 31.2546C172.496 28.6901 170.863 28.4819 169.506 28.2871C169.572 29.0327 169.822 32.1253 171.843 34.1258C174.043 36.3059 176.242 36.6403 176.714 36.7713Z" fill="#828282"/>
<path d="M174.96 43.4627C174.49 41.4819 174.583 39.6278 173.553 37.2655C172.284 34.3553 170.179 34.1274 168.881 33.6799C168.971 35.1261 169.062 37.3908 170.338 39.6522C171.868 42.3608 174.52 43.2452 174.96 43.4627Z" fill="#828282"/>
<path d="M172.255 49.1263C172.006 47.1048 172.105 45.6631 171.342 43.1989C170.401 40.1629 168.421 39.7138 167.181 39.1221C167.111 40.5691 167.097 42.7757 168.115 45.1677C169.335 48.0327 171.842 48.8603 172.255 49.1263Z" fill="#828282"/>
<path d="M168.98 53.1269C168.549 50.211 168.96 49.7847 168.387 47.2677C167.774 44.5647 165.837 43.7399 164.647 43.0491C164.464 44.4859 164.266 46.4541 165.11 48.9153C166.009 51.5397 167.905 52.1275 168.98 53.1269Z" fill="#828282"/>
<path d="M164.609 56.5137C164.595 54.1024 165.309 52.9297 165.11 51.1335C164.783 48.1957 163.495 47.4817 162.305 46.791C162.007 50.1268 161.772 50.0343 162.077 52.2905C162.375 54.486 163.714 55.3797 164.609 56.5137Z" fill="#828282"/>
<path d="M160.074 58.9645C160.51 56.5942 161.328 56.1835 161.47 54.3817C161.7 51.4347 160.567 50.4852 159.53 49.5779C158.907 51.3404 158.216 52.3228 158.329 54.5972C158.412 56.2033 159.406 57.6787 160.074 58.9645Z" fill="#828282"/>
<path d="M156.202 52.1326C156.202 52.1326 154.255 53.6855 153.546 56.1972C152.54 59.7561 154.073 61.0648 154.073 61.0648C154.073 61.0648 155.753 60.0101 157.028 56.8883C158.392 53.5537 156.202 52.1326 156.202 52.1326Z" fill="#828282"/>
<path d="M150.936 53.8054C150.936 53.8054 148.978 55.3831 148.145 57.8555C147.075 61.024 148.375 62.538 148.375 62.538C148.375 62.538 150.166 61.3193 151.356 58.783C153.17 54.9098 150.936 53.8054 150.936 53.8054Z" fill="#828282"/>
</g>
<g clip-path="url(#clip2_4267_11238)">
<path d="M74.9794 49.5452L77.3469 36.7577C77.6348 35.1873 77.8587 33.8412 78.0187 32.5593H79.0424L78.6585 35.1232H78.7225C79.7783 33.5208 81.2819 32.399 82.8495 32.399C85.089 32.399 85.9528 34.2579 85.9528 36.2129C85.9528 40.219 83.2014 44.834 79.4263 44.834C78.2746 44.834 77.5068 44.4174 77.0589 44.4174H76.9949L76.0672 49.5452H74.9794ZM77.1869 43.0713C77.7308 43.488 78.5306 43.7444 79.4903 43.7444C82.6256 43.7444 84.801 39.2896 84.801 36.2449C84.801 34.8348 84.2572 33.2644 82.4976 33.2644C80.802 33.2644 78.6265 35.4116 77.9547 39.0011L77.1869 43.0713Z" fill="#E3E3E3"/>
<path d="M93.9837 44.7399C93.9517 43.7784 94.1117 42.8169 94.2717 41.535H94.2077C92.864 44.0989 91.3284 44.836 89.7928 44.836C88.0012 44.836 86.9135 43.2656 86.9135 41.1504C86.9135 37.0802 89.7928 32.3369 94.3996 32.3369C95.2314 32.3369 96.1912 32.4331 96.799 32.6574L95.5514 39.1954C95.1355 41.4388 94.9755 43.4579 95.0395 44.7399H93.9837ZM95.5514 33.4266C95.2954 33.3304 94.8475 33.2663 94.1117 33.2663C90.6885 33.2663 88.0332 37.0802 88.0012 40.8299C87.9692 42.4003 88.4171 43.7784 90.0167 43.7784C91.9362 43.7784 94.1117 40.894 94.6876 37.8173L95.5514 33.4266Z" fill="#E3E3E3"/>
<path d="M97.5667 44.7379L99.0703 36.5975C99.3582 35.0912 99.5502 33.8412 99.6461 32.5593H100.606C100.542 33.5208 100.446 34.1617 100.286 35.4437H100.35C101.054 33.8412 102.238 32.4631 103.741 32.4631C103.901 32.4631 104.061 32.399 104.189 32.399L103.965 33.4887C103.869 33.4567 103.741 33.4567 103.581 33.4567C102.014 33.4567 100.286 35.9565 99.8061 38.5524L98.6544 44.7379H97.5667Z" fill="#E3E3E3"/>
<path d="M109.018 29.9641L108.507 32.5601H111.29L111.098 33.5215H108.315L107.003 40.5723C106.843 41.3735 106.747 41.9825 106.747 42.6234C106.747 43.3285 107.067 43.7452 107.803 43.7452C108.187 43.7452 108.443 43.7131 108.667 43.649L108.731 44.5143C108.411 44.6105 107.995 44.6746 107.579 44.6746C106.171 44.6746 105.627 43.7452 105.627 42.7516C105.627 42.1107 105.691 41.5017 105.883 40.6044L107.227 33.5536H105.531L105.691 32.5921H107.419L107.803 30.4448L109.018 29.9641Z" fill="#E3E3E3"/>
<path d="M111.162 44.7389L112.73 36.2139C112.985 34.8038 113.145 33.5218 113.241 32.5603H114.265L113.913 35.1243H113.977C115.001 33.5218 116.505 32.368 118.136 32.368C119.288 32.368 120.792 33.0731 120.792 35.3165C120.792 35.9255 120.696 36.6306 120.568 37.2715L119.224 44.7069H118.168L119.544 37.2395C119.64 36.6947 119.704 36.0537 119.704 35.4447C119.704 34.1948 119.224 33.2654 117.752 33.2654C116.185 33.2654 113.913 35.3806 113.401 38.265L112.25 44.7069H111.162V44.7389Z" fill="#E3E3E3"/>
<path d="M129.333 43.7784C128.725 44.195 127.573 44.6758 126.102 44.6758C123.318 44.6758 122.358 42.4964 122.358 40.221C122.358 36.7917 124.758 32.3369 128.149 32.3369C130.101 32.3369 130.932 33.5868 130.932 34.9329C130.932 37.9455 127.477 38.7787 123.606 38.7787C123.478 39.3236 123.446 40.894 123.702 41.7593C124.118 43.1054 125.046 43.7784 126.293 43.7784C127.605 43.7784 128.501 43.2976 129.045 42.9772L129.333 43.7784ZM129.845 34.9329C129.845 33.8432 129.077 33.2343 127.957 33.2343C126.134 33.2343 124.502 35.2213 123.766 37.7852C126.869 37.8493 129.845 37.3045 129.845 34.9329Z" fill="#E3E3E3"/>
<path d="M131.638 44.7379L133.141 36.5975C133.429 35.0912 133.621 33.8413 133.717 32.5593H134.677C134.613 33.5208 134.517 34.1617 134.357 35.4437H134.421C135.125 33.8413 136.308 32.4631 137.812 32.4631C137.972 32.4631 138.132 32.399 138.26 32.399L138.036 33.4887C137.94 33.4567 137.812 33.4567 137.652 33.4567C136.085 33.4567 134.357 35.9565 133.877 38.5524L132.725 44.7379H131.638Z" fill="#E3E3E3"/>
<path d="M137.876 43.0733C138.292 43.3938 139.091 43.7463 139.955 43.7463C141.523 43.7463 142.579 42.6246 142.579 41.2786C142.579 40.0928 142.099 39.3877 140.979 38.6506C139.795 37.8814 139.155 36.8238 139.155 35.7021C139.155 33.8432 140.659 32.3369 142.77 32.3369C143.57 32.3369 144.37 32.5933 144.722 32.8497L144.338 33.7791C143.954 33.5548 143.346 33.2984 142.643 33.2984C141.203 33.2984 140.243 34.3239 140.243 35.5418C140.243 36.6635 140.883 37.2725 141.843 37.9455C142.994 38.7147 143.666 39.8043 143.666 41.0222C143.666 43.4258 141.907 44.7399 139.859 44.7399C138.803 44.7399 137.844 44.3553 137.46 44.0348L137.876 43.0733Z" fill="#E3E3E3"/>
<path d="M49.7709 10.2847C49.7389 10.2847 49.7389 10.2847 49.7069 10.2847C49.451 10.2526 49.195 9.99625 49.195 9.73986C49.195 9.48347 49.0351 3.36213 52.6182 1.98402C53.514 1.63148 54.3458 1.72763 55.0496 2.20837C55.9134 2.81729 56.5213 4.00311 56.9052 5.7658C57.1611 7.01571 57.2251 8.07332 57.2251 8.13742C57.2251 8.39381 57.0331 8.5861 56.7452 8.55405C56.4893 8.522 56.2333 8.26561 56.2333 8.00922C56.2013 6.88751 55.8174 3.84286 54.5697 2.97754C54.1858 2.6891 53.7059 2.65705 53.0981 2.91344C50.0268 4.09925 50.1868 9.83601 50.1868 9.90011C50.1868 10.0924 49.9949 10.2847 49.7709 10.2847Z" fill="#96BF47"/>
<path d="M57.3854 4.26022L43.5647 8.55477C43.5647 8.55477 42.9569 8.71502 42.8289 8.87526C42.6689 9.06756 42.6369 9.54829 42.6369 9.54829L40.5255 26.0855L56.5855 29.0981L57.8332 4.26022C57.6413 4.22817 57.4493 4.26022 57.3854 4.26022Z" fill="#96BF47"/>
<path d="M62.1821 6.40753C62.1821 6.40753 62.1501 6.27934 62.0861 6.24729C62.0221 6.21524 61.9262 6.18319 61.9262 6.18319L59.6547 6.02295L57.9911 4.3564C57.9271 4.2923 57.8631 4.2923 57.7672 4.26025L56.5195 29.0982L65.2214 27.2073L62.1821 6.40753Z" fill="#5F8F3E"/>
<path d="M51.6901 18.0721C51.4341 17.7516 51.1462 17.4632 50.8583 17.2068C50.5703 16.9504 50.2504 16.726 49.9305 16.5337C49.7065 16.4055 49.5146 16.2773 49.3546 16.1491C49.1947 16.021 49.0667 15.8928 48.9707 15.7646C48.8747 15.6364 48.7788 15.5082 48.7468 15.38C48.6828 15.2518 48.6828 15.1236 48.6828 14.9954C48.6828 14.8031 48.7468 14.6428 48.8108 14.4826C48.8747 14.3224 48.9707 14.1942 49.0987 14.098C49.2267 14.0019 49.3866 13.9057 49.5466 13.8416C49.7385 13.7775 49.9305 13.7455 50.1544 13.7134C50.4104 13.7134 50.6343 13.7134 50.8583 13.7455C51.0822 13.7775 51.3062 13.8096 51.4981 13.8737C51.6901 13.9378 51.882 13.9698 52.074 14.0339C52.2339 14.098 52.3939 14.1621 52.5219 14.2262L53.5776 11.0213C53.4176 10.9252 53.2257 10.8611 53.0017 10.797C52.7778 10.7329 52.5219 10.6688 52.2659 10.6367C52.01 10.6047 51.6901 10.5726 51.4021 10.5726C51.0822 10.5726 50.7623 10.6047 50.4424 10.6367C49.7065 10.7329 49.0667 10.9252 48.4908 11.2136C47.915 11.5021 47.4351 11.8546 47.0512 12.3033C46.6673 12.7199 46.3474 13.2327 46.1234 13.7775C45.8995 14.3224 45.7715 14.9313 45.7395 15.5723C45.7075 15.9569 45.7715 16.3094 45.8355 16.6619C45.9315 16.9824 46.0594 17.3029 46.2194 17.5913C46.3793 17.8798 46.6033 18.1362 46.8272 18.3926C47.0512 18.649 47.3391 18.8733 47.5951 19.0656C47.819 19.2258 48.011 19.3861 48.1709 19.5463C48.3309 19.7066 48.4588 19.8348 48.5548 19.995C48.6508 20.1553 48.7148 20.2835 48.7788 20.4437C48.8108 20.6039 48.8427 20.7642 48.8427 20.9244C48.8427 21.0847 48.8108 21.2449 48.7468 21.3731C48.6828 21.5013 48.5868 21.6295 48.4588 21.7257C48.3309 21.8218 48.2029 21.8859 48.0429 21.918C47.883 21.95 47.691 21.95 47.4671 21.918C47.2111 21.8859 46.9872 21.8218 46.7633 21.7257C46.5393 21.6295 46.3154 21.5334 46.0914 21.4052C45.8675 21.277 45.6755 21.1488 45.5156 21.0526C45.3556 20.9244 45.1956 20.8283 45.0677 20.7001L44.3318 23.1358C44.4598 23.2961 44.6198 23.4563 44.7797 23.5845C44.9717 23.7447 45.1636 23.8729 45.4196 24.0332C45.6435 24.1614 45.9315 24.2896 46.1874 24.4178C46.4753 24.546 46.7633 24.6421 47.0832 24.7062C47.755 24.8665 48.3949 24.8985 49.0027 24.8024C49.6106 24.7062 50.1864 24.5139 50.6663 24.1934C51.1782 23.8409 51.5941 23.3922 51.882 22.7833C52.2019 22.1743 52.3619 21.4372 52.3939 20.6039C52.4259 20.0912 52.3299 19.6104 52.2019 19.1938C52.1379 18.7772 51.946 18.4246 51.6901 18.0721Z" fill="#E3E3E3"/>
<path d="M46.4118 9.45279C46.3798 9.45279 46.3798 9.45279 46.3478 9.45279C46.0919 9.42074 45.8999 9.16435 45.9319 8.90795C45.9639 8.65156 46.8917 2.53022 50.6987 1.15211C51.6585 0.799575 52.4583 0.895721 53.0981 1.37646C53.834 1.98539 54.2499 3.1712 54.3139 4.93389C54.3458 6.1838 54.2179 7.24141 54.2179 7.30551C54.1859 7.5619 53.9299 7.75419 53.674 7.72214C53.4181 7.69009 53.2261 7.4337 53.2581 7.17731C53.4181 6.0556 53.578 3.01095 52.4903 2.14563C52.1384 1.85719 51.6585 1.82514 51.0506 2.08153C47.7874 3.26734 46.9237 9.0041 46.8917 9.0682C46.8277 9.26049 46.6357 9.45279 46.4118 9.45279Z" fill="#96BF47"/>
<path d="M75.3956 16.9829C74.5318 16.5021 74.0839 16.1175 74.0839 15.5727C74.0839 14.8676 74.6917 14.419 75.6835 14.419C76.5793 14.419 77.3471 14.6753 77.827 14.8997L78.6268 12.464C78.0829 12.1435 77.0592 11.8871 75.7475 11.8871C72.7402 11.8871 70.6927 13.5857 70.6927 16.0214C70.6927 17.3995 71.6525 18.4251 72.9322 19.1622C73.9879 19.7711 74.3398 20.1878 74.3398 20.7967C74.3398 21.4377 73.8279 21.9505 72.8682 21.9505C71.8124 21.9825 70.6927 21.5338 70.0849 21.2133L69.2531 23.649C69.8929 24.0977 71.2046 24.4823 72.6122 24.4823C75.6835 24.5144 77.891 22.976 77.891 20.2519C77.859 18.7776 76.7392 17.752 75.3956 16.9829Z" fill="#E3E3E3"/>
<path d="M87.618 11.8558C86.1144 11.8558 84.9307 12.5609 84.0029 13.6826L83.9389 13.6506L85.2506 6.79211H81.8274L78.5322 24.2588H81.9554L83.1071 18.2656C83.555 16.0222 84.7067 14.6121 85.7945 14.6121C86.5623 14.6121 86.8502 15.1248 86.8502 15.862C86.8502 16.3427 86.7862 16.9196 86.6902 17.3683L85.4106 24.2267H88.8337L90.1774 17.1439C90.3374 16.4068 90.4333 15.5094 90.4333 14.9005C90.4333 13.0417 89.4096 11.8558 87.618 11.8558Z" fill="#E3E3E3"/>
<path d="M98.1432 11.8561C94.0162 11.8561 91.2969 15.5738 91.2969 19.7081C91.2969 22.3681 92.9285 24.4834 95.9997 24.4834C100.031 24.4834 102.75 20.8618 102.75 16.6314C102.782 14.1957 101.342 11.8561 98.1432 11.8561ZM96.4796 21.8874C95.3279 21.8874 94.816 20.8939 94.816 19.644C94.816 17.689 95.8398 14.4841 97.6953 14.4841C98.911 14.4841 99.2949 15.5417 99.2949 16.5352C99.2949 18.6825 98.2712 21.8874 96.4796 21.8874Z" fill="#E3E3E3"/>
<path d="M111.547 11.8561C110.171 11.8561 108.859 12.5932 107.932 13.8752H107.868L108.06 12.0484H105.052C104.892 13.2983 104.636 15.1892 104.349 16.5993L101.981 29.1305H105.404L106.332 24.0667H106.396C106.78 24.3231 107.548 24.5154 108.412 24.5154C112.411 24.5154 115.066 20.3811 115.066 16.2147C115.066 13.9393 114.042 11.8561 111.547 11.8561ZM108.252 21.9515C107.644 21.9515 107.196 21.7592 106.844 21.4708L107.42 18.2659C107.804 16.1186 108.923 14.7084 110.107 14.7084C111.163 14.7084 111.483 15.6699 111.483 16.5993C111.483 18.7786 110.171 21.9515 108.252 21.9515Z" fill="#E3E3E3"/>
<path d="M119.929 6.95129C118.841 6.95129 117.978 7.81662 117.978 8.93833C117.978 9.96389 118.618 10.6369 119.577 10.6369H119.641C120.697 10.6369 121.625 9.93184 121.657 8.64989C121.657 7.65637 120.985 6.95129 119.929 6.95129Z" fill="#E3E3E3"/>
<path d="M115.162 24.2592H118.586L120.889 12.1447H117.466L115.162 24.2592Z" fill="#E3E3E3"/>
<path d="M129.59 12.1122H127.223L127.35 11.5353C127.542 10.3816 128.246 9.32397 129.366 9.32397C129.814 9.32397 130.166 9.38807 130.454 9.48421L131.126 6.7921C130.742 6.63186 130.102 6.50366 129.27 6.50366C128.054 6.50366 126.839 6.8562 125.911 7.65742C124.759 8.65094 124.215 10.0931 123.927 11.5353L123.831 12.1122H122.232L121.752 14.7082H123.351L121.528 24.2908H124.951L126.775 14.7082H129.142L129.59 12.1122Z" fill="#E3E3E3"/>
<path d="M137.813 12.1447L135.734 17.593C135.254 18.907 134.998 19.6762 134.71 20.5094H134.646C134.582 19.7082 134.486 18.8429 134.358 17.625L133.814 12.1767H130.231L132.278 23.3297C132.342 23.5861 132.31 23.7143 132.214 23.9066C131.831 24.6758 131.159 25.4129 130.359 25.9577C129.719 26.4385 128.983 26.7269 128.439 26.9192L129.367 29.8357C130.071 29.6754 131.511 29.1306 132.726 27.9768C134.294 26.5026 135.734 24.2592 137.205 21.1825L141.396 12.2088H137.813V12.1447Z" fill="#E3E3E3"/>
</g>
<defs>
<clipPath id="clip0_4267_11238">
<rect width="48" height="70" fill="white"/>
</clipPath>
<clipPath id="clip1_4267_11238">
<rect width="48" height="70" fill="white" transform="translate(137)"/>
</clipPath>
<clipPath id="clip2_4267_11238">
<rect width="105" height="50" fill="white" transform="translate(39.9999)"/>
</clipPath>
</defs>
</svg>
