<svg width="18" height="18" viewBox="0 0 18 18" fill="none" xmlns="http://www.w3.org/2000/svg">
<path d="M3.5625 1.40625C3.13981 1.40625 2.73443 1.57416 2.43555 1.87305C2.13666 2.17193 1.96875 2.57731 1.96875 3C1.96875 3.42269 2.13666 3.82807 2.43555 4.12695C2.73443 4.42584 3.13981 4.59375 3.5625 4.59375C3.98519 4.59375 4.39057 4.42584 4.68945 4.12695C4.98834 3.82807 5.15625 3.42269 5.15625 3C5.15625 2.57731 4.98834 2.17193 4.68945 1.87305C4.39057 1.57416 3.98519 1.40625 3.5625 1.40625ZM2.0625 5.90625C2.03764 5.90625 2.01379 5.91613 1.99621 5.93371C1.97863 5.95129 1.96875 5.97514 1.96875 6V15.75C1.96875 15.8018 2.01075 15.8438 2.0625 15.8438H5.0625C5.08736 15.8438 5.11121 15.8339 5.12879 15.8163C5.14637 15.7987 5.15625 15.7749 5.15625 15.75V6C5.15625 5.97514 5.14637 5.95129 5.12879 5.93371C5.11121 5.91613 5.08736 5.90625 5.0625 5.90625H2.0625ZM6.9375 5.90625C6.91264 5.90625 6.88879 5.91613 6.87121 5.93371C6.85363 5.95129 6.84375 5.97514 6.84375 6V15.75C6.84375 15.8018 6.88575 15.8438 6.9375 15.8438H9.9375C9.96236 15.8438 9.98621 15.8339 10.0038 15.8163C10.0214 15.7987 10.0312 15.7749 10.0312 15.75V10.5C10.0312 10.127 10.1794 9.76935 10.4431 9.50563C10.7069 9.24191 11.0645 9.09375 11.4375 9.09375C11.8105 9.09375 12.1681 9.24191 12.4319 9.50563C12.6956 9.76935 12.8438 10.127 12.8438 10.5V15.75C12.8438 15.8018 12.8857 15.8438 12.9375 15.8438H15.9375C15.9624 15.8438 15.9862 15.8339 16.0038 15.8163C16.0214 15.7987 16.0312 15.7749 16.0312 15.75V9.285C16.0312 7.46475 14.4488 6.04125 12.6375 6.2055C12.0771 6.25652 11.5281 6.3952 11.0107 6.6165L10.0312 7.0365V6C10.0312 5.97514 10.0214 5.95129 10.0038 5.93371C9.98621 5.91613 9.96236 5.90625 9.9375 5.90625H6.9375Z" fill="#E3E3E3"/>
</svg>
