<svg width="18" height="18" viewBox="0 0 18 18" fill="none" xmlns="http://www.w3.org/2000/svg">
<path d="M15.5325 2.74088C15.5325 2.74088 16.9894 2.17276 16.8675 3.55238C16.8274 4.12051 16.4632 6.10913 16.1797 8.25976L15.2085 14.631C15.2085 14.631 15.1275 15.5644 14.3989 15.7268C13.6706 15.8888 12.5779 15.1586 12.3754 14.9963C12.2134 14.8744 9.34012 13.0481 8.32837 12.1556C8.04487 11.9119 7.72087 11.4251 8.36887 10.857L12.6184 6.79876C13.104 6.31126 13.5896 5.17501 11.5661 6.55501L5.89987 10.41C5.89987 10.41 5.25225 10.8161 4.03837 10.4509L1.40737 9.63901C1.40737 9.63901 0.436125 9.03038 2.0955 8.42176C6.14287 6.51451 11.121 4.56676 15.5321 2.74051" fill="#E3E3E3"/>
</svg>
