<svg width="126" height="50" viewBox="0 0 126 50" fill="none" xmlns="http://www.w3.org/2000/svg">
<path d="M22.5017 35.6017C22.5017 35.6017 19.7392 16.9758 19.7392 16.8503C19.7183 16.7456 19.6346 16.6619 19.509 16.641C19.4253 16.641 17.6255 16.5991 17.6255 16.5991C17.6255 16.5991 16.5373 15.5318 16.1187 15.1342V37.187L22.5017 35.6017Z" fill="#698D48"/>
<path fill-rule="evenodd" clip-rule="evenodd" d="M98.0307 21.7474C96.4402 21.7474 95.1217 22.3125 94.18 23.3589L94.3683 22.4171C94.4311 22.1241 94.2218 21.873 93.9288 21.873C93.6359 21.873 93.3219 22.1241 93.2801 22.4171L90.5176 36.7528C90.4548 37.0458 90.6641 37.2969 90.9571 37.2969C91.2501 37.2969 91.564 37.0458 91.6058 36.7528L92.6313 31.4161C93.008 32.1068 93.887 33.0276 95.8542 33.0276C97.4029 33.0276 98.6795 32.5462 99.684 31.6254C100.73 30.6627 101.442 29.2187 101.798 27.3561C102.154 25.4935 102.007 24.0704 101.337 23.1077C100.689 22.2078 99.5794 21.7474 98.0307 21.7474ZM96.0426 32.044C93.6986 32.044 92.7778 30.4325 93.3638 27.377C93.9498 24.3006 95.4357 22.731 97.7587 22.731C100.312 22.731 101.254 24.2588 100.647 27.377C100.04 30.579 98.5749 32.044 96.0426 32.044ZM121.868 26.791L121.815 26.7712C120.453 26.2555 119.171 25.7701 119.419 24.489C119.545 23.8402 120.068 22.7519 122.203 22.7519C123.395 22.7519 124.149 23.0868 124.798 23.903C124.923 24.0495 125.07 24.0495 125.111 24.0495C125.404 24.0286 125.656 23.8193 125.718 23.5472C125.739 23.4216 125.718 23.2961 125.656 23.1914V23.1705C124.986 22.2287 123.898 21.7474 122.391 21.7474C120.214 21.7474 118.645 22.7938 118.331 24.489C117.936 26.5034 119.705 27.1783 121.287 27.7816L121.324 27.7956L121.377 27.816C122.717 28.3315 123.978 28.8162 123.751 30.0349C123.416 31.7928 121.575 32.044 120.507 32.044C119.042 32.044 118.142 31.6463 117.473 30.7046C117.389 30.5999 117.284 30.5581 117.159 30.5581C116.866 30.579 116.615 30.7883 116.552 31.0604C116.531 31.1859 116.552 31.3115 116.615 31.4161C117.054 32.2323 118.373 33.0694 120.319 33.0694C122.788 33.0694 124.484 31.9393 124.839 30.0558C125.216 28.0258 123.437 27.3561 121.868 26.791ZM118.561 18.9012H117.41L117.64 17.7502C117.703 17.4572 117.494 17.206 117.201 17.206C116.908 17.206 116.615 17.4572 116.552 17.7502L116.322 18.9012H115.171C114.878 18.9012 114.585 19.1523 114.522 19.4453C114.459 19.7383 114.668 19.9895 114.961 19.9895H116.112L115.882 21.1405C115.819 21.4335 116.029 21.6846 116.322 21.6846C116.615 21.6846 116.908 21.4335 116.971 21.1405L117.201 19.9895H118.352C118.645 19.9895 118.938 19.7383 119.001 19.4453C119.063 19.2151 118.917 18.964 118.666 18.9012C118.652 18.9147 118.63 18.9108 118.605 18.9063C118.591 18.9038 118.576 18.9012 118.561 18.9012ZM26.771 30.0349C27.3361 30.3279 28.3406 30.7255 29.3033 30.7046C30.1823 30.7046 30.6427 30.2232 30.6427 29.6582C30.6427 29.0931 30.3079 28.7164 29.3661 28.1723C28.1941 27.5026 27.3152 26.5608 27.3152 25.3261C27.3152 23.1496 29.1777 21.6009 31.8984 21.6009C33.0913 21.6009 34.0121 21.8311 34.5144 22.1241L33.8028 24.3215C33.1959 24.0495 32.5471 23.903 31.8775 23.903C30.9985 23.903 30.4334 24.3006 30.4334 24.9285C30.4334 25.4307 30.8311 25.7865 31.6263 26.2051C32.8401 26.8957 33.8447 27.8374 33.8447 29.1768C33.8447 31.6463 31.8356 33.0485 29.0522 33.0276C27.7756 33.0067 26.5827 32.6718 25.9967 32.2532C26.0176 32.2532 26.771 30.0349 26.771 30.0349ZM34.4725 32.9439L37.4861 17.206H40.5835L39.3906 23.2961L39.4324 23.2542C40.2696 22.2706 41.3369 21.58 42.7181 21.58C44.3296 21.58 45.2504 22.6264 45.2504 24.3634C45.2504 24.9075 45.1667 25.7656 45.0202 26.4562L43.8064 32.9229H40.709L41.881 26.6446C41.9647 26.226 42.0066 25.6609 42.0066 25.2424C42.0066 24.5727 41.7345 24.0704 41.0439 24.0704C40.0603 24.0704 38.993 25.3889 38.5953 27.4398L37.5699 32.9229L34.4725 32.9439ZM56.4678 25.9121C56.4678 29.7628 53.9983 33.0276 50.3359 33.0276C47.5525 33.0276 46.0666 31.1022 46.0666 28.6955C46.0666 24.9494 48.5361 21.58 52.2613 21.58C55.1703 21.58 56.4678 23.6937 56.4678 25.9121ZM49.2477 28.6327C49.2477 29.7628 49.6871 30.6627 50.7545 30.6627C52.3868 30.6627 53.3077 27.7328 53.3077 25.8284C53.3077 24.9075 52.9519 23.9658 51.8427 23.9658C50.1685 23.9448 49.2477 26.8538 49.2477 28.6327ZM55.7353 37.3178L57.8909 25.9749C58.142 24.6983 58.3932 23.0449 58.5187 21.873H61.2603L61.072 23.6309H61.1138C61.9509 22.459 63.1647 21.6846 64.3995 21.6846C66.6597 21.6846 67.5806 23.5054 67.5806 25.5772C67.5806 29.3443 65.1948 33.0694 61.5533 33.0694C60.7999 33.0694 60.0883 32.9439 59.7326 32.6509H59.6698L58.8117 37.3178H55.7353ZM60.1511 30.2442C60.486 30.5162 60.8627 30.6837 61.4277 30.6837C63.1647 30.6837 64.3576 27.8374 64.3576 25.8284C64.3576 24.9912 64.0646 24.1123 63.1229 24.1123C62.0346 24.1123 61.0301 25.3889 60.6743 27.3352L60.1511 30.2442ZM67.6852 32.9439L69.778 21.873H72.8962L70.7825 32.9439H67.6852ZM71.7034 20.7219C70.8244 20.7219 70.2384 19.9685 70.2384 19.0477C70.2384 18.0432 71.0337 17.1851 72.0173 17.1851C72.959 17.1851 73.5659 17.9176 73.5659 18.8175C73.545 19.9685 72.7079 20.701 71.7452 20.701C71.7452 20.7219 71.7034 20.7219 71.7034 20.7219ZM73.4822 32.9439L75.1146 24.196H73.6706L74.1101 21.873H75.5541L75.6378 21.3079C75.889 20.0104 76.3703 18.671 77.4376 17.792C78.2747 17.0805 79.363 16.7456 80.4722 16.7456C81.2256 16.7456 81.7906 16.8503 82.1464 17.0177L81.5395 19.4453C81.2256 19.3407 80.8907 19.2779 80.5559 19.2779C79.5304 19.2779 78.9026 20.2615 78.7142 21.3288L78.6096 21.8939H80.7652L80.3466 24.2169H78.212L76.5796 32.9648L73.4822 32.9439ZM84.6368 21.873L85.1391 26.8329C85.2437 27.7119 85.3275 28.5699 85.4112 29.4489H85.453C85.5854 29.1399 85.712 28.7553 85.8665 28.2859C86.0051 27.865 86.1661 27.3759 86.3738 26.812L88.2574 21.873H91.5012L87.7132 29.9721C86.3738 32.7555 85.0554 34.7855 83.6532 36.104C82.544 37.1295 81.2465 37.6527 80.6187 37.7782L79.7606 35.1413C80.2838 34.953 80.9326 34.6809 81.5186 34.2623C82.2301 33.7601 82.837 33.0904 83.2137 32.3997C83.2974 32.2323 83.3184 32.1277 83.2765 31.9184L81.4141 21.8529C81.4625 21.873 84.6368 21.873 84.6368 21.873ZM116.029 22.9194C115.736 22.9194 115.443 23.1705 115.38 23.4635L114.334 28.9048C113.769 31.6673 112.073 32.044 110.462 32.044C107.595 32.044 107.511 30.4116 107.825 28.8001L109.06 22.4171C109.123 22.1241 108.913 21.873 108.62 21.873C108.327 21.873 108.034 22.1241 107.972 22.4171L106.737 28.8001C106.486 30.0977 106.569 31.0394 107.009 31.73C107.553 32.5881 108.641 33.0276 110.274 33.0276C111.906 33.0276 113.162 32.5881 114.041 31.73C114.731 31.0394 115.192 30.0767 115.443 28.8001L116.468 23.4426C116.531 23.1705 116.322 22.9194 116.029 22.9194ZM106.13 17.227C105.837 17.227 105.523 17.4781 105.481 17.7711L102.677 32.3579C102.614 32.6509 102.823 32.902 103.116 32.902C103.409 32.902 103.702 32.6509 103.765 32.3579L106.569 17.7711C106.632 17.4781 106.423 17.227 106.13 17.227ZM16.0978 37.1922L16.1187 37.187V37.1922H16.0978Z" fill="white"/>
<path fill-rule="evenodd" clip-rule="evenodd" d="M15.4071 14.9249L14.6537 15.1551C14.57 14.8412 14.4445 14.5482 14.298 14.2552C13.7538 13.2297 12.9795 12.6856 12.0377 12.6856C11.975 12.6856 11.9122 12.6856 11.8494 12.7065C11.8389 12.6856 11.8232 12.6699 11.8075 12.6542C11.7918 12.6385 11.7761 12.6228 11.7657 12.6019C11.3471 12.1624 10.8239 11.9531 10.1961 11.9531C8.96133 11.995 7.74751 12.874 6.7639 14.4436C6.07327 15.5527 5.52915 16.934 5.38265 18.0222L2.97594 18.7756C2.26439 19.0058 2.24346 19.0268 2.15975 19.6965C2.09696 20.1987 0.234375 34.5762 0.234375 34.5762L15.6583 37.2341V14.904C15.5327 14.904 15.4699 14.904 15.4071 14.9249ZM9.25432 16.8503L11.8494 16.0341C11.8494 15.3435 11.7866 14.3598 11.4518 13.6483C11.096 13.7948 10.7821 14.0668 10.5728 14.2971C9.9868 14.9249 9.50546 15.8876 9.25432 16.8503ZM10.9076 12.9786C10.6984 12.853 10.4263 12.7693 10.1752 12.7902C8.27071 12.853 6.63833 15.8039 6.19884 17.7711L8.35442 17.1014C8.58463 15.8457 9.19154 14.5482 9.96588 13.7111C10.2379 13.4181 10.5519 13.1669 10.9076 12.9786ZM8.16607 32.8811C10.2379 32.7555 11.661 31.1022 11.5145 28.6746C11.4007 26.8148 10.0937 25.9798 9.05922 25.3191C8.38252 24.8868 7.82247 24.529 7.78937 24.0076C7.76844 23.7774 7.78937 22.8147 9.29618 22.7101C10.3217 22.6473 11.2006 23.0449 11.2006 23.0449L11.975 20.115C11.975 20.115 11.3053 19.7802 9.9868 19.8639C6.55462 20.0732 5.00595 22.4799 5.15245 24.8447C5.25802 26.4166 6.18549 27.0746 6.99873 27.6515C7.63637 28.1038 8.2038 28.5064 8.24978 29.2605C8.29164 29.6791 8.01958 30.2651 7.30803 30.3069C6.21977 30.3907 4.83853 29.3443 4.83853 29.3443L4.31533 31.5835C4.31533 31.5835 5.67564 33.0485 8.16607 32.8811ZM12.2889 13.5436C12.5819 14.2971 12.6656 15.1551 12.6656 15.7829C12.6656 15.7829 13.8585 15.4062 13.8794 15.4062C13.6701 14.7784 13.2097 13.7111 12.2889 13.5436Z" fill="#9EBE58"/>
</svg>
