<svg width="50" height="50" viewBox="0 0 50 50" fill="none" xmlns="http://www.w3.org/2000/svg">
<g clip-path="url(#clip0_3718_8421)">
<path d="M3.55079 24.9985C3.55079 33.4879 8.48413 40.8237 15.6379 44.3006L5.40758 16.2703C4.1812 19.0166 3.54847 21.9909 3.55079 24.9985ZM39.4753 23.9163C39.4753 21.2657 38.5233 19.4302 37.7067 18.0015C36.6196 16.2348 35.601 14.7388 35.601 12.9722C35.601 11.0007 37.0958 9.16556 39.2019 9.16556C39.297 9.16556 39.3872 9.17739 39.4802 9.1827C35.6642 5.68703 30.5807 3.55273 24.9973 3.55273C17.5049 3.55273 10.9131 7.39691 7.07828 13.2195C7.58144 13.2346 8.05605 13.2448 8.45842 13.2448C10.7017 13.2448 14.1741 12.9726 14.1741 12.9726C15.3302 12.9044 15.4665 14.6025 14.312 14.7392C14.312 14.7392 13.1498 14.8759 11.857 14.9437L19.6669 38.174L24.3607 24.0979L21.0189 14.9432C19.864 14.8755 18.7699 14.7388 18.7699 14.7388C17.6142 14.6711 17.7497 12.904 18.9054 12.9722C18.9054 12.9722 22.4472 13.2444 24.5545 13.2444C26.7974 13.2444 30.2702 12.9722 30.2702 12.9722C31.4271 12.904 31.563 14.6021 30.4077 14.7388C30.4077 14.7388 29.2434 14.8755 27.9531 14.9432L35.7034 37.9977L37.8422 30.8492C38.7698 27.8829 39.4753 25.7522 39.4753 23.9163Z" fill="#00749A"/>
<path d="M25.3761 26.8745L18.9414 45.5722C20.9087 46.1519 22.949 46.4463 24.9999 46.4463C27.4974 46.4463 29.8924 46.0141 32.1218 45.2306C32.062 45.137 32.0109 45.0381 31.9692 44.9351L25.3761 26.8745ZM43.8184 14.709C43.9107 15.3921 43.9629 16.1259 43.9629 16.9143C43.9629 19.0906 43.5565 21.5371 42.3322 24.5961L35.7812 43.5366C42.1571 39.8186 46.4457 32.9109 46.4457 24.9985C46.4514 21.402 45.5477 17.8625 43.8184 14.709Z" fill="#00749A"/>
<path d="M25.0002 0C11.2154 0 0 11.2146 0 24.9994C0 38.7858 11.215 50.0004 25.0002 50.0004C38.7846 50.0004 50.0016 38.7862 50.0016 24.9994C50.0012 11.2146 38.7846 0 25.0002 0ZM25.0002 48.8541C11.8476 48.8541 1.14632 38.1528 1.14632 24.9994C1.14632 11.8472 11.8472 1.14672 25.0002 1.14672C38.1524 1.14672 48.8529 11.8472 48.8529 24.9994C48.8529 38.1528 38.152 48.8541 25.0002 48.8541Z" fill="#00749A"/>
</g>
<defs>
<clipPath id="clip0_3718_8421">
<rect width="50" height="50" fill="white"/>
</clipPath>
</defs>
</svg>
