<svg width="50" height="50" viewBox="0 0 50 50" fill="none" xmlns="http://www.w3.org/2000/svg">
<g clip-path="url(#clip0_3718_8358)">
<path d="M25.0392 50.0774C38.8667 50.0774 50.0774 38.8667 50.0774 25.0382C50.0774 11.2098 38.8667 0 25.0382 0C11.2098 0 0 11.2098 0 25.0392C0 38.8667 11.2098 50.0774 25.0392 50.0774Z" fill="#1A171B"/>
<path d="M35.9003 9.2448C33.3581 9.32127 31.1238 10.7085 29.5062 12.634C27.6571 14.7909 26.4238 17.2566 25.5767 19.8762C24.0356 18.5664 22.8032 16.9487 20.2611 16.1781C18.3346 15.6389 16.2542 15.8703 14.4052 17.2566C13.4807 17.9507 12.9414 18.9526 12.6336 19.8762C11.863 22.3419 13.4042 24.4987 14.0973 25.2693L15.6385 26.8869C15.9464 27.1958 16.7169 28.0428 16.3316 29.2752C15.9464 30.585 14.3287 31.432 12.7111 30.9713C12.0179 30.7389 10.9385 30.1997 11.1699 29.4291C11.2473 29.1213 11.4777 28.8899 11.6326 28.582C11.6953 28.3966 11.7723 28.2163 11.863 28.0428C12.1718 27.0409 11.7865 25.8085 10.7081 25.5007C9.70616 25.1919 8.78165 25.4232 8.39635 26.6556C7.93459 28.0428 8.62772 30.6624 12.2493 31.7409C16.4856 33.0507 20.1071 30.7389 20.5689 27.735C20.8767 25.8085 20.0297 24.4213 18.4885 22.6497L17.1787 21.2634C16.4091 20.4928 16.1777 19.183 16.9483 18.1811C17.6414 17.334 18.566 16.9487 20.1836 17.4115C22.4954 18.0271 23.4973 19.6448 25.1915 20.8781C24.4983 23.1889 24.0356 25.5007 23.5738 27.5811L23.3424 29.1213C22.1101 35.5164 21.1856 39.0595 18.7973 41.0624C18.3346 41.4477 17.6414 41.9105 16.562 41.9869C16.0228 41.9869 15.8699 41.6026 15.7924 41.4477C15.7924 41.0624 16.1003 40.9085 16.3316 40.6781C16.6395 40.5232 17.1787 40.2154 17.1022 39.2909C17.1022 38.2124 16.1777 37.2105 14.7905 37.2879C13.7895 37.2879 12.2483 38.2889 12.3258 39.984C12.4022 41.7566 14.0209 43.0664 16.4856 42.9889C17.7954 42.9115 20.7993 42.3722 23.7277 38.9056C27.1179 34.8997 28.1199 30.3536 28.813 27.0409L29.5826 22.6497C30.0454 22.7271 30.5071 22.7271 31.0464 22.7271C35.2836 22.8036 37.4415 20.6468 37.4415 19.0291C37.4415 18.0271 36.8248 17.1026 35.9003 17.1026C35.2071 17.1026 34.4365 17.5654 34.2052 18.4899C33.9738 19.4144 35.5924 20.185 34.3591 20.9546C33.512 21.4938 31.9709 21.8791 29.814 21.5713L30.1993 19.4144C30.9699 15.3311 31.9709 10.2458 35.7464 10.0919C36.0542 10.0919 37.0562 10.0919 37.0562 10.785C37.0562 11.0164 36.9787 11.0938 36.7473 11.5556C36.5169 11.9409 36.363 12.2497 36.363 12.634C36.363 13.7124 37.2101 14.4066 38.366 14.3301C39.9062 14.2517 40.3689 12.7889 40.3689 12.0183C40.3689 10.3232 38.4424 9.16734 35.9003 9.24381V9.2448Z" fill="white"/>
</g>
<defs>
<clipPath id="clip0_3718_8358">
<rect width="50" height="50" fill="white"/>
</clipPath>
</defs>
</svg>
