<svg width="16" height="16" viewBox="0 0 16 16" fill="none" xmlns="http://www.w3.org/2000/svg">
<g clip-path="url(#clip0_3718_8681)">
<path d="M8 14C11.3137 14 14 11.3137 14 8C14 4.68629 11.3137 2 8 2C4.68629 2 2 4.68629 2 8C2 11.3137 4.68629 14 8 14Z" stroke="#9D9B98" stroke-linecap="round" stroke-linejoin="round"/>
<path d="M9.66575 6.00261C9.32897 5.66316 8.91363 5.44199 8.46959 5.36563C8.02554 5.28926 7.57165 5.36096 7.16237 5.57211C6.7531 5.78325 6.40583 6.12488 6.16223 6.556C5.91863 6.98712 5.78906 7.48941 5.78906 8.00261C5.78906 8.5158 5.91863 9.01809 6.16223 9.44921C6.40583 9.88033 6.7531 10.222 7.16237 10.4331C7.57165 10.6443 8.02554 10.7159 8.46959 10.6396C8.91363 10.5632 9.32897 10.3421 9.66575 10.0026" stroke="#9D9B98" stroke-linecap="round" stroke-linejoin="round"/>
</g>
<defs>
<clipPath id="clip0_3718_8681">
<rect width="16" height="16" fill="white"/>
</clipPath>
</defs>
</svg>
