<svg width="246" height="38" viewBox="0 0 246 38" fill="none" xmlns="http://www.w3.org/2000/svg">
<g clip-path="url(#clip0_3718_17482)">
<path d="M10.215 10.1734C6.03381 10.1734 2.09863 13.8725 2.09863 18.3145V18.3913C2.09863 23.1702 5.99561 26.68 10.6259 26.68C12.6396 26.6962 14.6182 26.1534 16.3418 25.112V21.3764H10.2539V16.4106H20.6682V8.84961L17.05 12.8275C15.0325 11.1455 13.2414 10.1734 10.215 10.1734Z" fill="#333333"/>
<path d="M10.4391 31.9073C6.2534 31.9073 2.58284 30.3953 0 27.8789V33.9121C3.04299 35.9944 6.64319 37.1107 10.3304 37.1151C14.0177 37.1196 17.6206 36.0121 20.6686 33.9372V28.5055C17.7235 30.7294 14.1295 31.9248 10.4391 31.9073Z" fill="#333333"/>
<path d="M0 9.12613V3.20307C3.04305 1.12123 6.64297 0.00498879 10.33 1.66831e-05C14.017 -0.00495542 17.62 1.10157 20.6686 3.1752V8.84947C17.944 6.53537 15.1062 4.87782 10.4026 4.87782C8.47447 4.86699 6.56313 5.23666 4.77808 5.96565C2.99303 6.69465 1.36933 7.76865 0 9.12613Z" fill="#333333"/>
<path d="M116.19 13.0594H111.026V26.9612H109.173V13.0594H104.009V11.3389H116.19V13.0594H116.19Z" fill="#333333"/>
<path d="M117.575 10.2783H119.296V18.0681H119.34C119.804 17.2516 121.039 16.369 122.65 16.369C125.365 16.369 126.579 18.0895 126.579 20.5842V26.9619H124.858V20.7608C124.858 19.0402 124.108 17.958 122.497 17.958C120.268 17.958 119.297 19.5691 119.297 21.9304V26.9619H117.577V10.2783H117.575Z" fill="#333333"/>
<path d="M138.444 25.085C137.23 26.6517 135.773 27.2257 133.853 27.2257C130.609 27.2257 128.623 24.798 128.623 21.7971C128.623 18.5969 130.874 16.3682 133.919 16.3682C136.833 16.3682 138.819 18.3543 138.819 21.7747V22.3253H130.477C130.609 24.1129 131.977 25.6356 133.853 25.6356C134.488 25.6664 135.121 25.5394 135.695 25.266C136.269 24.9926 136.766 24.5813 137.142 24.0689L138.444 25.085ZM136.964 20.8697C136.898 19.1265 135.75 17.9569 133.852 17.9569C131.954 17.9569 130.697 19.1268 130.476 20.8697H136.964Z" fill="#333333"/>
<path d="M146.961 11.3379H150.955C153.979 11.3379 157.178 11.779 157.178 15.6413C157.178 17.9141 155.699 19.392 153.272 19.7681L157.708 26.9623H155.435L151.2 19.9446H148.815V26.9623H146.961V11.3379ZM148.815 18.2231H150.47C152.522 18.2231 155.193 18.2231 155.193 15.6423C155.193 13.3912 153.229 13.0615 151.419 13.0615H148.815V18.2231Z" fill="#333333"/>
<path d="M160.287 11.3379C160.452 11.3378 160.615 11.3703 160.768 11.4335C160.921 11.4967 161.059 11.5894 161.176 11.7062C161.293 11.823 161.386 11.9616 161.449 12.1142C161.512 12.2668 161.544 12.4304 161.544 12.5956C161.544 12.9292 161.412 13.2492 161.176 13.4852C160.94 13.7211 160.62 13.8536 160.286 13.8536C159.953 13.8536 159.633 13.7211 159.397 13.4852C159.161 13.2492 159.028 12.9292 159.028 12.5956C159.028 12.4304 159.061 12.2667 159.124 12.1141C159.187 11.9614 159.28 11.8227 159.397 11.7059C159.514 11.5891 159.652 11.4965 159.805 11.4333C159.958 11.3702 160.121 11.3378 160.287 11.3379ZM159.426 16.6343H161.147V26.9623H159.426V16.6343Z" fill="#333333"/>
<path d="M174.121 26.4985C174.121 30.2279 172.112 32.2585 168.493 32.2585C166.485 32.2585 164.874 31.7289 163.418 30.2943L164.653 28.8835C165.735 30.0535 166.904 30.6711 168.493 30.6711C171.583 30.6711 172.399 28.685 172.399 26.5003V25.1744H172.355C171.963 25.7788 171.422 26.2726 170.785 26.6087C170.147 26.9448 169.434 27.1121 168.714 27.0945C165.47 27.0945 163.219 24.8434 163.219 21.7981C163.219 18.4217 165.425 16.3691 168.714 16.3691C170.104 16.3691 171.671 17.0312 172.355 18.3994H172.399V16.6341H174.12V26.4985H174.121ZM168.714 25.5054C171.075 25.5054 172.399 23.7402 172.399 21.7547C172.399 19.5256 170.898 17.9589 168.714 17.9589C166.551 17.9589 165.072 19.6361 165.072 21.7988C165.065 22.2822 165.153 22.7624 165.332 23.2113C165.512 23.6603 165.779 24.0692 166.117 24.4141C166.456 24.759 166.86 25.0331 167.306 25.2205C167.752 25.4078 168.23 25.5047 168.714 25.5054Z" fill="#333333"/>
<path d="M176.742 10.2783H178.463V18.0681H178.507C178.971 17.2516 180.206 16.369 181.817 16.369C184.532 16.369 185.745 18.0895 185.745 20.5842V26.9619H184.025V20.7608C184.025 19.0402 183.275 17.958 181.664 17.958C179.435 17.958 178.464 19.5691 178.464 21.9304V26.9619H176.743V10.2783H176.742Z" fill="#333333"/>
<path d="M193.951 18.091H190.905V23.255C190.905 24.5791 190.927 25.6383 192.45 25.6383C192.978 25.6423 193.5 25.5213 193.972 25.2852L194.038 26.8519C193.4 27.1077 192.718 27.2351 192.03 27.227C189.581 27.227 189.184 25.9029 189.184 23.7622V18.091H186.933V16.6344H189.184V13.6992H190.904V16.6344H193.95V18.091H193.951Z" fill="#333333"/>
<path d="M201.542 11.3379H203.396V26.9623H201.542V11.3379Z" fill="#333333"/>
<path d="M214.915 25.1302H214.871C214.231 26.3001 212.752 27.2268 210.898 27.2268C208.008 27.2268 205.734 24.8869 205.734 21.7982C205.734 18.6645 207.919 16.3693 211.163 16.3693C211.873 16.37 212.574 16.5287 213.216 16.8339C213.857 17.1391 214.422 17.5832 214.871 18.1339H214.915V10.2783H216.635V26.9619H214.915V25.1302ZM211.251 17.958C209.022 17.958 207.588 19.6352 207.588 21.7979C207.588 23.9606 209.023 25.6377 211.251 25.6377C213.48 25.6377 214.915 23.9606 214.915 21.7979C214.915 19.6352 213.48 17.958 211.251 17.958Z" fill="#333333"/>
<path d="M228.574 25.085C227.36 26.6517 225.903 27.2257 223.983 27.2257C220.739 27.2257 218.753 24.798 218.753 21.7971C218.753 18.5969 221.004 16.3682 224.049 16.3682C226.963 16.3682 228.948 18.3543 228.948 21.7747V22.3253H220.607C220.739 24.1129 222.108 25.6356 223.984 25.6356C224.619 25.6664 225.251 25.5394 225.825 25.266C226.399 24.9926 226.896 24.5813 227.272 24.0689L228.574 25.085ZM227.094 20.8697C227.028 19.1265 225.88 17.9569 223.982 17.9569C222.084 17.9569 220.827 19.1268 220.606 20.8697H227.094Z" fill="#333333"/>
<path d="M230.721 17.9588C231.268 17.4373 231.911 17.0285 232.616 16.7559C233.32 16.4832 234.071 16.352 234.826 16.3698C237.871 16.3698 239.151 17.8263 239.151 20.7399V25.175C239.156 25.774 239.208 26.3717 239.306 26.9627H237.651C237.56 26.4531 237.523 25.9353 237.54 25.418H237.496C237.134 25.9876 236.631 26.4537 236.035 26.7709C235.44 27.088 234.772 27.2454 234.097 27.2276C232.001 27.2276 230.258 26.1685 230.258 24.1599C230.258 20.7395 234.23 20.5406 236.768 20.5406H237.43V20.2309C237.43 18.7303 236.481 17.9581 234.87 17.9581C233.744 17.9435 232.652 18.3442 231.803 19.0837L230.721 17.9588ZM235.709 21.9972C233.524 21.9972 232.111 22.5929 232.111 23.9834C232.111 25.2855 233.083 25.7707 234.384 25.7707C236.37 25.7707 237.386 24.3364 237.43 22.6593V21.9972H235.709H235.709Z" fill="#333333"/>
<path d="M239.189 11.2604H238.277V10.5684H240.806V11.2604H239.894V14.1185H239.19L239.189 11.2604Z" fill="#333333"/>
<path d="M241.389 10.5684H242.455L243.191 12.8849H243.2L243.941 10.5684H245.002V14.1185H244.297V11.3956H244.288L243.449 14.1185H242.911L242.103 11.3956H242.094V14.1185H241.389V10.5684Z" fill="#333333"/>
<path d="M49.7647 25.8147C47.7714 26.8596 45.5489 27.3905 43.2986 27.3594C38.4877 27.3594 35.0449 24.0931 35.0449 19.2161C35.0449 14.2067 38.486 10.9404 43.2986 10.9404C45.6819 10.9404 47.8225 11.448 49.4557 12.9046L47.4034 14.9788C46.2865 13.9691 44.8259 13.4244 43.3206 13.4562C40.0988 13.4562 37.9581 15.9279 37.9581 19.0396C37.9581 22.3719 40.0988 24.8436 43.3206 24.8436C44.5912 24.8867 45.8519 24.6057 46.984 24.027V20.3417H43.7838V17.8246H49.7643L49.7647 25.8147Z" fill="#333333"/>
<path d="M52.3242 16.3694H54.9738V18.0466H55.0179C55.2953 17.4536 55.7394 16.9542 56.2958 16.6093C56.8523 16.2645 57.4971 16.089 58.1516 16.1044C58.4737 16.111 58.7932 16.163 59.1007 16.259V18.8191C58.6837 18.7009 58.2538 18.6342 57.8206 18.6205C55.3269 18.6205 54.9738 20.7172 54.9738 21.2908V26.9623H52.3242V16.3694Z" fill="#333333"/>
<path d="M67.0799 25.5054H67.0135C66.2634 26.697 65.0277 27.2259 63.6152 27.2259C61.651 27.2259 59.7529 26.1444 59.7529 24.0481C59.7529 20.6071 63.7693 20.3628 66.4175 20.3628H67.0796V20.0768C67.0796 18.7747 66.0645 18.0907 64.6519 18.0907C63.6052 18.0906 62.5967 18.4845 61.8272 19.1942L60.4367 17.8037C61.6066 16.612 63.2614 16.1045 64.9386 16.1045C69.4625 16.1045 69.4625 19.3707 69.4625 20.8714V26.962H67.0792V25.5054H67.0799ZM66.9254 22.2172H66.3749C64.9186 22.2172 62.4029 22.3276 62.4029 23.8503C62.4029 24.8213 63.396 25.2405 64.2566 25.2405C66.0662 25.2405 66.9268 24.2914 66.9268 22.8128V22.2172H66.9254Z" fill="#333333"/>
<path d="M72.8087 18.6203H70.624V16.3692H72.8087V14.8689C72.8087 11.9337 73.4708 10.0139 76.7591 10.0139C77.3218 10.0096 77.8837 10.0614 78.4362 10.1684L78.2597 12.4195C77.8992 12.325 77.5288 12.2731 77.1562 12.265C75.6765 12.265 75.457 13.2802 75.457 14.4498V16.3699H77.9056V18.621H75.4559V26.9621H72.8063V18.6203H72.8087Z" fill="#333333"/>
<path d="M80.9418 11.1833C81.2524 11.2001 81.5512 11.3076 81.8013 11.4924C82.0515 11.6773 82.242 11.9314 82.3493 12.2233C82.4565 12.5152 82.4759 12.8322 82.405 13.135C82.3341 13.4379 82.1759 13.7133 81.9501 13.9272C81.7244 14.1411 81.4409 14.2841 81.1346 14.3387C80.8284 14.3932 80.513 14.3567 80.2272 14.2339C79.9415 14.111 79.6981 13.9071 79.527 13.6474C79.3559 13.3876 79.2647 13.0834 79.2646 12.7724C79.2699 12.5578 79.3174 12.3463 79.4047 12.1501C79.4919 11.9539 79.617 11.7769 79.7729 11.6292C79.9287 11.4815 80.1122 11.3661 80.3128 11.2896C80.5134 11.2131 80.7272 11.177 80.9418 11.1833ZM79.6397 16.3693H82.2893V26.9622H79.6397V16.3693Z" fill="#333333"/>
<path d="M84.8793 10.2783H87.5289V20.7608L91.6114 16.3693H95.0077L90.4627 21.1799L95.2957 26.9608H91.7858L87.5716 21.5553H87.5275V26.9619H84.8779V10.2783H84.8793Z" fill="#333333"/>
</g>
<defs>
<clipPath id="clip0_3718_17482">
<rect width="246" height="38" fill="white"/>
</clipPath>
</defs>
</svg>
