<svg width="186" height="54" viewBox="0 0 186 54" fill="none" xmlns="http://www.w3.org/2000/svg">
<g clip-path="url(#clip0_3718_17508)">
<path fill-rule="evenodd" clip-rule="evenodd" d="M27 0C41.9117 0 54 12.0883 54 27C54 31.6439 52.8276 36.014 50.7626 39.8304C47.8659 33.4581 43.4196 28.4639 37.4234 24.8473C31.2853 20.5812 24.1144 18.1221 15.9107 17.4698C20.9224 23.8008 22.2622 32.1287 19.93 42.4538C20.6361 43.4323 22.6808 46.0427 26.0643 50.285C22.4213 48.4712 19.9297 47.2924 18.5895 46.7487C18.0724 48.2275 17.486 50.1857 16.8306 52.0201C6.95871 48.0023 0 38.3138 0 27C0 12.0883 12.0883 0 27 0Z" fill="#333333"/>
<path d="M74.5525 37.9926V27.3661V16.7397H71.7188V37.9926H74.5525ZM89.7837 37.9926L78.4488 27.3661L89.7837 16.7397H85.5331L74.5525 27.3661L85.5331 37.9926H89.7837ZM95.8049 37.9926V16.7397H92.9712V37.9926H95.8049ZM108.91 37.9926V19.2192H115.995V16.7397H98.9924V19.2192H106.077V37.9926H108.91ZM122.016 37.9926V31.6167H129.1L134.059 37.9926H137.601L132.288 30.9083C135.476 29.8456 136.893 27.3661 136.893 24.1782C136.893 19.9276 134.059 16.7397 129.1 16.7397H119.182V37.9926H122.016ZM128.746 29.1372H122.016V19.2192H128.746C131.934 19.2192 134.059 21.3445 134.059 24.1782C134.059 27.0119 131.934 29.1372 128.746 29.1372ZM149.998 38.3468C154.957 38.3468 159.208 34.4504 159.208 28.4288V16.7397H156.374V28.4288C156.374 32.6794 153.541 35.8673 149.998 35.8673C146.456 35.8673 143.623 32.6794 143.623 28.4288V16.7397H140.789V28.4288C140.789 34.4504 145.039 38.3468 149.998 38.3468ZM167 37.9926V23.1156L174.793 30.9083L182.586 23.1156V37.9926H185.42V16.0312L174.793 26.6577L164.167 16.0312V37.9926H167Z" fill="#333333"/>
</g>
<defs>
<clipPath id="clip0_3718_17508">
<rect width="185.625" height="54" fill="white"/>
</clipPath>
</defs>
</svg>
