<svg width="242" height="40" viewBox="0 0 242 40" fill="none" xmlns="http://www.w3.org/2000/svg">
<g clip-path="url(#clip0_3718_17397)">
<path d="M0 36.8389H1.30751V29.2946H0V36.8389ZM0 27.4568H1.30751V26.0625H0V27.4568Z" fill="#333333"/>
<mask id="mask0_3718_17397" style="mask-type:luminance" maskUnits="userSpaceOnUse" x="0" y="0" width="242" height="40">
<path d="M0 0H241.999V40H0V0Z" fill="white"/>
</mask>
<g mask="url(#mask0_3718_17397)">
<path d="M11.671 36.8389V32.0248C11.671 31.2213 11.6584 30.3441 10.4811 30.3441C9.70628 30.4347 8.95089 30.6683 8.24672 31.035V36.8389H6.95312V29.2821H8.15441V29.9716C9.0005 29.4435 9.95343 29.1567 10.9262 29.1375C11.204 29.1193 11.4821 29.1665 11.742 29.276C12.0018 29.3855 12.2374 29.5548 12.4329 29.7725C12.6284 29.9902 12.7793 30.2513 12.8756 30.5383C12.9719 30.8253 13.0113 31.1317 12.9912 31.4368V36.8389H11.671ZM20.5302 36.9974C19.7484 36.9884 18.9693 36.8967 18.2035 36.7235V35.5461C18.9098 35.7429 19.6327 35.8584 20.3608 35.8908C21.3268 35.8908 22.2955 35.6322 22.2955 34.7843C22.2955 33.7639 20.8969 33.6777 20.2166 33.4914C19.2632 33.219 18.1643 32.8158 18.1643 31.3506C18.1643 29.6268 19.616 29.1375 20.988 29.1375C21.7284 29.1435 22.4672 29.2156 23.1971 29.353V30.4887C22.547 30.3428 21.8864 30.2609 21.2232 30.2441C20.5568 30.2441 19.4845 30.3594 19.4845 31.2505C19.4845 32.8881 23.6535 31.7107 23.6535 34.598C23.6535 36.0771 22.556 36.9974 20.5302 36.9974ZM33.6495 36.3954C32.9851 36.8405 32.2196 37.0694 31.4417 37.0558C30.9951 37.052 30.5493 37.0134 30.1076 36.9404V39.9987H28.8001V29.2807C29.5588 29.239 30.4478 29.1681 31.051 29.1681C31.9357 29.0992 32.8208 29.2978 33.6103 29.7422C34.0928 30.1033 34.4807 30.5971 34.7352 31.1745C34.9897 31.7519 35.1019 32.3927 35.0607 33.0327C35.1035 33.6787 34.9964 34.326 34.7496 34.9141C34.5028 35.5022 34.1243 36.0119 33.6495 36.3954ZM31.1534 30.2732C30.8041 30.2705 30.455 30.2891 30.1076 30.3289V35.8338C30.5183 35.9049 30.9337 35.9384 31.3494 35.9339C32.6303 35.9339 33.6634 35.1874 33.6634 33.0327C33.7115 32.658 33.6797 32.2761 33.5705 31.9173C33.4613 31.5584 33.2778 31.2323 33.0344 30.9647C32.791 30.6972 32.4944 30.4954 32.168 30.3754C31.8416 30.2554 31.4942 30.2204 31.1534 30.2732ZM40.3793 26.0625H41.6868V27.4568H40.3793V26.0625ZM40.3793 29.296H41.6868V36.8403H40.3793V29.296ZM48.6378 31.1351V36.8389H47.3303V29.296H48.5202V30.03C49.3341 29.438 50.3035 29.1594 51.2768 29.2376V30.5443C50.3617 30.4086 49.4318 30.6168 48.6378 31.1351ZM57.1707 33.5345C57.3933 35.8616 58.9221 35.9339 59.916 35.9339C60.5431 35.9238 61.1682 35.8522 61.7837 35.7198V36.7388C61.0357 36.9393 60.2671 37.0314 59.4974 37.0127C58.9937 37.0729 58.484 37.0086 58.0058 36.8245C57.5275 36.6404 57.0927 36.3412 56.7331 35.9487C56.3735 35.5562 56.0982 35.0803 55.9274 34.5558C55.7565 34.0313 55.6944 33.4715 55.7456 32.9173C55.6917 32.4241 55.7373 31.9238 55.8792 31.4522C56.0211 30.9805 56.2557 30.549 56.5664 30.1883C56.8771 29.8276 57.2563 29.5466 57.677 29.3652C58.0977 29.1838 58.5496 29.1066 59.0005 29.1389C61.3664 29.1389 62.3198 30.7334 62.3198 33.162V33.5345H57.1707ZM59.0005 30.1565C57.8371 30.1565 57.2226 31.035 57.1846 32.5155H60.8429C60.8176 31.149 60.375 30.1565 59.0005 30.1565ZM73.4665 36.7388C72.642 36.8936 71.808 36.98 70.9716 36.9974C70.4829 37.0575 69.9882 37.0008 69.5212 36.8312C69.0543 36.6616 68.6262 36.3832 68.2662 36.0149C67.9062 35.6466 67.6228 35.1972 67.4355 34.6973C67.2481 34.1975 67.1612 33.6591 67.1806 33.1189C67.1273 32.5916 67.1794 32.0578 67.3332 31.5549C67.4871 31.052 67.7391 30.5922 68.0715 30.2075C68.4039 29.8229 68.8088 29.5227 69.2577 29.3281C69.7067 29.1334 70.1889 29.0489 70.6707 29.0805C71.1689 29.0702 71.667 29.1042 72.1603 29.182V26.0625H73.4678L73.4665 36.7388ZM72.1603 30.3163C71.7634 30.2366 71.3612 30.1934 70.9577 30.1871C69.415 30.1871 68.5792 31.1046 68.5792 33.0758C68.5431 33.4449 68.5805 33.8182 68.6887 34.1699C68.7969 34.5216 68.9734 34.8432 69.2059 35.1124C69.4384 35.3817 69.7214 35.5921 70.0352 35.7291C70.3491 35.8662 70.6863 35.9266 71.0235 35.9061C71.2713 35.9061 71.5988 35.8908 72.1603 35.8338V30.3163ZM89.3311 36.9974C88.5077 36.9854 87.6863 36.9041 86.8742 36.7541V26.0639H88.1817V29.2112C88.6883 29.1349 89.1991 29.0964 89.7105 29.0958C90.184 29.0646 90.658 29.1481 91.099 29.3404C91.54 29.5328 91.9371 29.8292 92.2624 30.2088C92.5877 30.5885 92.8332 31.042 92.9816 31.5374C93.1299 32.0328 93.1774 32.558 93.1208 33.0758C93.1378 33.6169 93.0496 34.1558 92.8621 34.6565C92.6745 35.1571 92.3919 35.608 92.0332 35.9791C91.6746 36.3501 91.248 36.6327 90.782 36.8081C90.316 36.9835 89.8214 37.0489 89.3311 36.9974ZM89.3564 30.1871C88.9587 30.193 88.5617 30.2265 88.1677 30.2871V35.8199C88.553 35.8809 88.9419 35.9098 89.3311 35.9061C89.6688 35.9313 90.0074 35.8733 90.3221 35.7363C90.6369 35.5993 90.9198 35.3867 91.1503 35.1142C91.3808 34.8416 91.553 34.5159 91.6543 34.1609C91.7557 33.8058 91.7837 33.4303 91.7362 33.0619C91.7362 31.2074 90.9889 30.1871 89.3564 30.1871Z" fill="#333333"/>
<path d="M100.66 40H99.3019L100.491 36.8388H99.9279L97.3799 29.2959H98.8176L100.869 35.6906L102.855 29.2959H104.255L100.66 40Z" fill="#333333"/>
<path d="M119.229 36.997C117.451 36.997 116.211 36.566 116.211 34.5253C116.211 32.1829 118.38 32.169 119.817 32.169C120.118 32.169 120.471 32.2121 120.928 32.2121C120.928 30.6176 120.863 30.2283 118.955 30.2283C118.19 30.258 117.428 30.3594 116.679 30.5314V29.4096C117.475 29.2295 118.286 29.1382 119.099 29.1371C121.007 29.1371 122.235 29.4235 122.235 31.6366V36.8232C121.237 36.947 120.234 37.005 119.229 36.997ZM120.941 33.2755C120.38 33.2616 119.974 33.2338 119.778 33.2338C118.405 33.2338 117.569 33.4618 117.569 34.5684C117.569 35.8334 118.615 35.9613 119.661 35.9613C120.013 35.9613 120.275 35.9335 120.941 35.8918V33.2755ZM129.173 31.1347V36.8385H127.866V29.2956H129.055V30.0296C129.869 29.4373 130.84 29.1587 131.814 29.2372V30.5439C130.898 30.4078 129.968 30.6161 129.173 31.1347ZM139.993 36.997C139.49 37.0546 138.982 36.9892 138.505 36.8054C138.028 36.6216 137.594 36.324 137.235 35.9339C136.875 35.5438 136.598 35.0709 136.424 34.5493C136.25 34.0277 136.184 33.4702 136.229 32.9169C136.219 32.394 136.31 31.8747 136.495 31.3928C136.68 30.911 136.956 30.4776 137.304 30.1208C137.652 29.7641 138.064 29.4921 138.514 29.3225C138.964 29.153 139.442 29.0898 139.916 29.1371C140.516 29.1275 141.115 29.1858 141.705 29.3109V30.4299C141.261 30.3347 140.811 30.2821 140.359 30.2728C138.804 30.2589 137.614 31.0054 137.614 32.9447C137.579 33.3475 137.627 33.7538 137.754 34.1333C137.882 34.5129 138.086 34.8557 138.351 35.1363C138.617 35.4168 138.936 35.6277 139.286 35.7533C139.636 35.8788 140.007 35.9157 140.372 35.8612C140.841 35.8468 141.309 35.7939 141.771 35.7027V36.8093C141.185 36.938 140.59 37.0009 139.993 36.997ZM149.102 30.359V34.8283C149.102 35.6749 149.337 35.7319 149.991 35.7319H151.024V36.8385H149.874C148.488 36.8385 147.795 36.7384 147.795 34.9715V30.359H146.357V29.2956H147.795V27.0685C148.017 26.9824 148.579 26.7669 149.102 26.5806V29.2956H151.075V30.359H149.102ZM156.079 26.0635H157.386V27.4564H156.079V26.0635ZM156.079 29.2956H157.386V36.8399H156.079V29.2956ZM166.442 36.997C165.94 37.0549 165.432 36.9896 164.955 36.8059C164.478 36.6222 164.043 36.3246 163.684 35.9345C163.324 35.5444 163.047 35.0714 162.873 34.5497C162.699 34.0279 162.632 33.4703 162.678 32.9169C162.668 32.3941 162.759 31.8749 162.944 31.3932C163.129 30.9115 163.404 30.4781 163.752 30.1214C164.1 29.7647 164.512 29.4926 164.962 29.323C165.412 29.1534 165.889 29.09 166.363 29.1371C166.964 29.1275 167.564 29.1858 168.155 29.3109V30.4299C167.711 30.3348 167.26 30.2823 166.808 30.2728C165.253 30.2589 164.064 31.0054 164.064 32.9447C164.028 33.3475 164.076 33.754 164.204 34.1337C164.331 34.5133 164.535 34.8563 164.801 35.1369C165.066 35.4175 165.386 35.6284 165.736 35.7538C166.086 35.8793 166.457 35.916 166.822 35.8612C167.291 35.8468 167.758 35.7938 168.22 35.7027V36.8093C167.635 36.9381 167.039 37.0009 166.442 36.997ZM183.389 36.997C182.566 36.9849 181.745 36.9036 180.933 36.7537V26.0635H182.241V29.2108C182.748 29.1345 183.258 29.096 183.769 29.0954C184.242 29.064 184.717 29.1473 185.158 29.3396C185.599 29.5318 185.996 29.8282 186.322 30.2079C186.647 30.5875 186.893 31.0411 187.041 31.5366C187.189 32.0321 187.237 32.5574 187.18 33.0754C187.197 33.6166 187.109 34.1556 186.922 34.6564C186.734 35.1572 186.451 35.6081 186.092 35.9792C185.734 36.3503 185.307 36.6329 184.841 36.8082C184.375 36.9834 183.88 37.0487 183.389 36.997ZM183.417 30.1866C183.02 30.1926 182.623 30.226 182.229 30.2867V35.8195C182.613 35.8804 183.001 35.9092 183.389 35.9057C183.727 35.9309 184.066 35.8728 184.381 35.7358C184.695 35.5988 184.978 35.3863 185.209 35.1138C185.44 34.8413 185.612 34.5156 185.713 34.1605C185.815 33.8055 185.843 33.43 185.796 33.0615C185.796 31.207 185.049 30.1866 183.417 30.1866ZM193.556 33.5341C193.779 35.8612 195.309 35.9335 196.3 35.9335C196.928 35.9235 197.554 35.8518 198.17 35.7194V36.7384C197.422 36.939 196.652 37.0311 195.882 37.0122C195.378 37.0723 194.868 37.0078 194.39 36.8237C193.912 36.6395 193.478 36.3402 193.118 35.9476C192.759 35.5551 192.484 35.0793 192.313 34.5549C192.143 34.0306 192.081 33.4709 192.132 32.9169C192.078 32.4238 192.124 31.9237 192.266 31.4521C192.408 30.9806 192.642 30.5491 192.953 30.1884C193.263 29.8278 193.642 29.5467 194.063 29.3652C194.483 29.1838 194.935 29.1064 195.386 29.1385C197.751 29.1385 198.707 30.733 198.707 33.1615V33.5341H193.556ZM195.386 30.1561C194.223 30.1561 193.609 31.0346 193.57 32.5151H197.23C197.203 31.1486 196.758 30.1561 195.386 30.1561ZM206.442 36.997C204.665 36.997 203.423 36.566 203.423 34.5253C203.423 32.1829 205.592 32.169 207.03 32.169C207.33 32.169 207.683 32.2121 208.14 32.2121C208.14 30.6176 208.075 30.2283 206.167 30.2283C205.403 30.258 204.642 30.3594 203.894 30.5314V29.4096C204.689 29.2296 205.499 29.1383 206.311 29.1371C208.219 29.1371 209.447 29.4235 209.447 31.6366V36.8232C208.449 36.947 207.446 37.005 206.442 36.997ZM208.154 33.2755C207.592 33.2616 207.188 33.2338 206.99 33.2338C205.618 33.2338 204.781 33.4618 204.781 34.5684C204.781 35.8334 205.827 35.9613 206.873 35.9613C207.227 35.9613 207.487 35.9335 208.154 35.8918V33.2755ZM219.706 36.8385V36.1198C218.925 36.6888 218.003 36.9799 217.066 36.9539C216.784 36.9816 216.501 36.9391 216.236 36.8294C215.972 36.7197 215.733 36.5458 215.538 36.3206C215.344 36.0954 215.198 35.8247 215.111 35.5287C215.025 35.2328 215.001 34.9192 215.04 34.6115V29.2942H216.345V34.0081C216.345 34.7838 216.321 35.7472 217.38 35.7472C218.162 35.7071 218.924 35.4606 219.601 35.0285V29.2942H220.906V36.8385H219.706Z" fill="#333333"/>
</g>
<mask id="mask1_3718_17397" style="mask-type:luminance" maskUnits="userSpaceOnUse" x="0" y="0" width="242" height="40">
<path d="M0 0H241.999V40H0V0Z" fill="white"/>
</mask>
<g mask="url(#mask1_3718_17397)">
<path d="M228.605 30.3595V34.8288C228.605 35.6754 228.84 35.7324 229.494 35.7324H230.525V36.8389H229.376C227.99 36.8389 227.297 36.7388 227.297 34.972V30.3595H225.859V29.296H227.297V27.069C227.52 26.9828 228.082 26.7673 228.605 26.5811V29.296H230.579V30.3595H228.605Z" fill="#333333"/>
<path d="M238.404 40H237.046L238.235 36.8388H237.673L235.124 29.2959H236.562L238.614 35.6906L240.599 29.2959H241.999L238.404 40Z" fill="#333333"/>
</g>
<mask id="mask2_3718_17397" style="mask-type:luminance" maskUnits="userSpaceOnUse" x="0" y="0" width="242" height="40">
<path d="M0 0H241.999V40H0V0Z" fill="white"/>
</mask>
<g mask="url(#mask2_3718_17397)">
<path d="M187.401 2.34977H207.924V0.000426316H187.401C186.982 -0.0128435 186.565 0.0681424 186.175 0.238414C185.786 0.408686 185.432 0.664653 185.136 0.990609C184.839 1.31656 184.607 1.70563 184.452 2.13394C184.298 2.56225 184.224 3.02076 184.237 3.48135V12.5618C184.224 13.0225 184.298 13.4811 184.452 13.9095C184.607 14.3379 184.84 14.727 185.136 15.053C185.432 15.379 185.786 15.6349 186.176 15.8051C186.566 15.9753 186.983 16.0561 187.402 16.0427H207.924V6.1671L195.149 6.16849V8.51784H205.788V13.6933H187.401C187.261 13.7092 187.12 13.691 186.987 13.6401C186.855 13.5892 186.734 13.5067 186.634 13.3987C186.534 13.2906 186.456 13.1596 186.407 13.0149C186.359 12.8703 186.339 12.7156 186.351 12.5618V3.48135C186.338 3.32721 186.356 3.17181 186.405 3.02643C186.453 2.88106 186.53 2.74939 186.631 2.641C186.731 2.5326 186.853 2.45022 186.986 2.39984C187.119 2.34946 187.261 2.33236 187.401 2.34977Z" fill="#333333"/>
<path d="M67.7031 16.0423H88.8458V13.6929H69.8402V8.51741H88.8458V6.16807H69.8402V2.34934H88.8458V0L67.7031 0.00139014V16.0423Z" fill="#333333"/>
<path d="M135.32 0H137.457V16.0423H135.32V0Z" fill="#333333"/>
<path d="M171.062 13.6824L153.07 0.0380969L153.022 0.00195312H149.736V16.0442H151.873V1.98569L170.41 16.0442H173.199V0.00195312H171.062V13.6824Z" fill="#333333"/>
<path d="M57.036 5.02583V3.48972C57.0482 3.02785 56.9745 2.56811 56.8193 2.13869C56.6642 1.70927 56.4308 1.31923 56.1336 0.992503C55.8364 0.665775 55.4816 0.409247 55.091 0.238656C54.7004 0.0680652 54.2822 -0.0129905 53.8621 0.000461231H33.1582V16.0427H53.8595C54.2798 16.0564 54.6981 15.9755 55.0889 15.8049C55.4796 15.6344 55.8346 15.3779 56.1319 15.0512C56.4293 14.7245 56.6627 14.3343 56.818 13.9048C56.9732 13.4753 57.047 13.0154 57.0347 12.5535V9.65918C57.0304 8.81939 56.7674 8.00597 56.2887 7.35154C56.7951 6.70737 57.0628 5.87673 57.036 5.02583ZM54.8977 5.02583C54.9116 5.18015 54.8941 5.33594 54.8464 5.4819C54.7988 5.62786 54.7222 5.76033 54.6222 5.86972C54.5222 5.97911 54.4013 6.06268 54.2683 6.11436C54.1353 6.16604 53.9935 6.18454 53.8532 6.16853L35.2965 6.16714V2.3498H53.8595C53.9989 2.33597 54.1394 2.35595 54.271 2.40832C54.4025 2.46069 54.5221 2.54419 54.6211 2.65291C54.7201 2.76163 54.7962 2.89292 54.844 3.03752C54.8918 3.18211 54.9101 3.33648 54.8977 3.48972V5.02583ZM35.2978 8.51787H53.8608C54.0001 8.50426 54.1404 8.52439 54.2718 8.57686C54.4032 8.62933 54.5226 8.71286 54.6215 8.82156C54.7203 8.93025 54.7963 9.06147 54.8441 9.20595C54.8918 9.35044 54.9101 9.50468 54.8977 9.65779V12.5535C54.9117 12.7077 54.8942 12.8634 54.8465 13.0092C54.7988 13.1551 54.7222 13.2874 54.6221 13.3966C54.5221 13.5058 54.4012 13.5891 54.2682 13.6404C54.1351 13.6917 53.9934 13.7098 53.8532 13.6934H35.2978V8.51787ZM120.607 9.4868C121.026 9.50026 121.443 9.41942 121.833 9.24925C122.223 9.07908 122.577 8.82316 122.873 8.49721C123.17 8.17125 123.402 7.78213 123.557 7.35373C123.712 6.92532 123.785 6.46666 123.773 6.00588V3.48138C123.785 3.02073 123.712 2.56219 123.557 2.13387C123.403 1.70556 123.17 1.31651 122.873 0.990575C122.577 0.664641 122.223 0.408697 121.834 0.23844C121.444 0.0681824 121.027 -0.0127992 120.608 0.000461231H99.4086V16.0427H101.519V9.4868H113.461L121.607 16.0066L121.655 16.0427H124.747L116.595 9.4868H120.607ZM101.519 2.3498H120.608C120.748 2.33412 120.889 2.35245 121.021 2.40349C121.153 2.45453 121.274 2.53701 121.374 2.64507C121.474 2.75313 121.551 2.88411 121.599 3.02866C121.648 3.17322 121.667 3.3278 121.655 3.48138V6.00588C121.671 6.1608 121.654 6.31754 121.606 6.46426C121.558 6.61098 121.481 6.74385 121.379 6.85283C121.278 6.96181 121.155 7.04406 121.021 7.09337C120.887 7.14268 120.744 7.15775 120.603 7.13746H101.519V2.3498Z" fill="#333333"/>
</g>
</g>
<defs>
<clipPath id="clip0_3718_17397">
<rect width="242" height="40" fill="white"/>
</clipPath>
</defs>
</svg>
