<svg width="213" height="100" viewBox="0 0 213 100" fill="none" xmlns="http://www.w3.org/2000/svg">
<path d="M49 50.5125H61.7379V50.9719H57.9374V79.7887H60.9861C66.4989 79.7887 71.3853 76.3223 72.4711 70.7678H72.8052V80.2481H49V79.7887H52.7587V50.9719H49V50.5125Z" fill="white"/>
<path d="M98.3642 51.5983C98.9906 51.5983 99.2412 51.4313 99.6171 50.8048H99.9512V59.4916H99.6171C98.1971 53.2689 95.2319 50.2201 91.0555 50.2201C88.4244 50.2201 86.4616 51.1807 85.1669 53.1436C83.914 55.0647 83.2875 59.2411 83.2875 65.7144C83.2875 73.8583 83.9557 75.7377 85.0834 77.7841C86.1274 79.6634 88.1739 80.5405 91.0555 80.5405C95.1484 80.5405 97.4036 79.4964 97.4036 75.32V69.2643H92.7678V68.8049H106.383V69.2643H102.582V80.2481H102.248C101.956 79.4129 101.371 78.8699 100.327 78.8699C99.5753 78.8699 98.6565 79.2458 97.1112 79.914C95.566 80.5822 93.6449 80.9999 91.3479 80.9999C87.3804 80.9999 83.7469 79.5799 81.1993 76.7817C78.6518 74.0254 77.3571 70.3919 77.3571 66.0068C77.3571 61.5381 78.7771 57.5705 81.617 54.4383C84.4987 51.306 87.9233 49.7607 91.0138 49.7607C94.2713 49.7607 96.6101 51.5983 98.3642 51.5983Z" fill="white"/>
<path d="M108.546 50.5125H131.599V60.0763H131.265C129.887 53.8536 126.42 50.9719 121.2 50.9719H117.483V64.9209L118.485 64.8791C122.119 64.7121 124.207 62.9163 124.499 58.8234H124.833V71.6031H124.499C124.207 67.385 121.868 65.6726 118.527 65.4221C118.193 65.3803 117.859 65.3803 117.483 65.3803V79.7887H121.492V80.2481H108.546V79.7887H112.304V50.9719H108.546V50.5125Z" fill="white"/>
<path d="M156.36 51.5983C156.986 51.5983 157.237 51.4313 157.613 50.8048H157.947V59.4916H157.613C156.193 53.2689 153.228 50.2201 149.051 50.2201C146.42 50.2201 144.457 51.1807 143.163 53.1436C141.91 55.0647 141.283 59.2411 141.283 65.7144C141.283 73.8583 141.952 75.7377 143.079 77.7841C144.123 79.6634 146.17 80.5405 149.051 80.5405C153.144 80.5405 155.399 79.4964 155.399 75.32V69.2643H150.764V68.8049H164.379V69.2643H160.578V80.2481H160.244C159.952 79.4129 159.367 78.8699 158.323 78.8699C157.571 78.8699 156.652 79.2458 155.107 79.914C153.562 80.5822 151.641 80.9999 149.344 80.9999C145.376 80.9999 141.743 79.5799 139.195 76.7817C136.648 74.0254 135.353 70.3919 135.353 66.0068C135.353 61.5381 136.773 57.5705 139.613 54.4383C142.494 51.306 145.919 49.7607 149.01 49.7607C152.267 49.7607 154.606 51.5983 156.36 51.5983Z" fill="white"/>
<path fill-rule="evenodd" clip-rule="evenodd" d="M105.909 20.7383C106.024 21.097 105.929 21.6669 105.96 22.1133C105.446 22.2289 104.817 22.2369 104.271 22.3245C104.346 21.3281 105.004 20.9097 105.909 20.7383Z" fill="white"/>
<path fill-rule="evenodd" clip-rule="evenodd" d="M106.595 20.8451C106.73 21.2197 106.571 21.8893 106.702 22.2719C107.125 22.4513 107.806 22.3676 108.289 22.4832C108.301 22.6864 108.289 22.8738 108.237 23.0132C106.953 22.9056 105.435 23.0332 104.172 22.9096C104.06 22.7821 104.183 22.5709 104.223 22.4353C104.741 22.3198 105.451 22.3955 105.965 22.2759C106.26 21.9371 105.742 20.2871 106.599 20.8491L106.595 20.8451ZM105.379 22.7462C106.16 22.6824 106.623 22.9017 107.332 22.7462C106.702 22.7024 105.766 22.5709 105.379 22.7462Z" fill="white"/>
<path fill-rule="evenodd" clip-rule="evenodd" d="M106.81 20.795C107.623 20.9664 108.126 21.4526 108.237 22.3255C107.866 22.0823 107.659 22.2896 106.97 22.2178C106.79 21.895 106.755 21.1736 106.81 20.791V20.795Z" fill="white"/>
<path fill-rule="evenodd" clip-rule="evenodd" d="M107.075 23.4324C107.219 23.552 107.231 23.0976 107.55 23.2212C107.438 23.7592 107.099 24.0741 106.545 24.1697C106.521 23.8469 106.88 23.9067 106.968 23.6955C106.701 23.823 106.334 24.0502 105.963 23.9067C105.82 24.0422 106.107 23.9824 105.963 24.1179C105.836 24.2295 105.625 24.106 105.489 24.0661C105.533 24.1976 105.704 24.2016 105.804 24.2773C105.756 24.4846 105.537 24.3212 105.381 24.3292C105.409 24.5324 105.772 24.3969 105.752 24.648C104.955 24.4408 104.385 24.0063 104.222 23.1694C105.294 23.1973 106.645 23.0697 107.231 23.2212C107.179 23.2929 107.179 23.4165 107.071 23.4324H107.075Z" fill="white"/>
<path fill-rule="evenodd" clip-rule="evenodd" d="M107.918 23.1709C107.894 23.7727 107.384 24.3187 106.65 24.3865C107.061 24.0238 107.571 23.7568 107.758 23.1709H107.918Z" fill="white"/>
<path fill-rule="evenodd" clip-rule="evenodd" d="M108.079 23.2197H108.238C108.047 24.0129 107.569 24.519 106.708 24.6466C107.266 24.2719 107.904 23.973 108.083 23.2197H108.079Z" fill="white"/>
<path fill-rule="evenodd" clip-rule="evenodd" d="M103.219 23.6947C103.486 24.157 102.932 24.5316 102.585 24.2248C102.318 23.7624 102.872 23.3878 103.219 23.6947ZM102.744 24.1172C102.872 24.0972 102.86 24.2128 103.008 24.169C103.016 24.1052 103.099 24.0494 103.008 24.0095C103.031 24.157 102.721 23.9697 102.744 24.1132V24.1172Z" fill="white"/>
<path fill-rule="evenodd" clip-rule="evenodd" d="M109.872 24.4358C109.585 24.4278 109.434 24.3282 109.398 24.1727C109.203 23.3437 110.662 23.8579 109.872 24.4358ZM109.872 24.1727C109.761 24.2046 109.526 24.1089 109.502 24.2245C109.601 24.36 109.829 24.356 109.872 24.1727Z" fill="white"/>
<path fill-rule="evenodd" clip-rule="evenodd" d="M101.897 23.8567C102.471 23.7012 102.471 24.6139 102.001 24.6498C101.563 24.6817 101.332 24.0121 101.897 23.8567ZM102.161 24.2791C102.033 24.311 101.778 24.2114 101.738 24.3309C101.834 24.4704 102.125 24.4744 102.161 24.2791Z" fill="white"/>
<path fill-rule="evenodd" clip-rule="evenodd" d="M108.5 24.2782C108.604 24.7645 108.073 24.8601 107.866 24.5931V24.2224C108.05 24.0232 108.36 24.055 108.5 24.2742V24.2782ZM108.237 24.4377C108.193 24.5931 108.065 24.4058 107.974 24.4377C107.93 24.7485 108.396 24.605 108.237 24.4377Z" fill="white"/>
<path fill-rule="evenodd" clip-rule="evenodd" d="M106.544 24.3286C106.568 24.5119 106.524 24.6235 106.493 24.751C106.365 24.7829 106.249 24.8268 106.07 24.8028C105.636 24.484 106.225 23.8901 106.544 24.3286ZM106.437 24.488C106.313 24.5039 106.217 24.5916 106.122 24.488C106.098 24.7431 106.429 24.6394 106.437 24.488Z" fill="white"/>
<path fill-rule="evenodd" clip-rule="evenodd" d="M98.9923 24.9136C98.6615 24.9335 98.5181 24.8618 98.4623 24.7024C98.2072 23.9292 99.7018 24.236 98.9923 24.9136ZM98.9923 24.6505C98.8529 24.6505 98.6894 24.6705 98.6217 24.5987C98.5619 24.814 98.9884 24.81 98.9923 24.6505Z" fill="white"/>
<path fill-rule="evenodd" clip-rule="evenodd" d="M99.4133 24.8593C98.9749 24.2057 100.083 23.9984 100.047 24.5962C100.031 24.8434 99.784 25.0107 99.4133 24.8593ZM99.784 24.5962C99.7402 24.7517 99.6126 24.5644 99.521 24.5962C99.4771 24.8473 99.9673 24.7278 99.784 24.5962Z" fill="white"/>
<path fill-rule="evenodd" clip-rule="evenodd" d="M100.789 24.2752C101.491 23.9165 101.495 25.0563 100.893 24.9607C100.793 24.9447 100.291 24.5302 100.789 24.2752ZM101.104 24.59C100.973 24.598 100.849 24.598 100.789 24.5382C100.749 24.7415 101.128 24.857 101.104 24.59Z" fill="white"/>
<path fill-rule="evenodd" clip-rule="evenodd" d="M104.592 24.8061C104.333 24.854 104.234 24.7424 104.118 24.6467C104.042 23.8536 105.158 24.3877 104.592 24.8061ZM104.277 24.5949C104.357 24.6746 104.64 24.6906 104.592 24.4913C104.501 24.5391 104.329 24.5112 104.277 24.5949Z" fill="white"/>
<path fill-rule="evenodd" clip-rule="evenodd" d="M97.7763 24.3294C97.9955 24.2496 98.1988 24.3094 98.2506 24.5406C98.4818 25.529 96.8477 24.6681 97.7763 24.3294ZM98.0394 24.8594C98.0633 24.708 97.6807 24.696 97.6687 24.7518C97.7126 24.8674 97.864 24.8754 98.0394 24.8594Z" fill="white"/>
<path fill-rule="evenodd" clip-rule="evenodd" d="M103.161 24.4365C103.078 24.9188 102.424 24.8271 102.105 25.0702C101.986 24.6119 102.835 24.4485 103.161 24.4365Z" fill="white"/>
<path fill-rule="evenodd" clip-rule="evenodd" d="M111.828 24.3855C112.131 24.6645 111.956 25.0949 111.669 25.1268C111.175 25.1786 111.019 24.2619 111.828 24.3855ZM111.776 24.808C111.645 24.8159 111.521 24.8159 111.462 24.7561C111.462 25.0033 111.709 24.9873 111.776 24.808Z" fill="white"/>
<path fill-rule="evenodd" clip-rule="evenodd" d="M103.377 24.4365C103.537 24.4365 103.581 24.5481 103.692 24.5959C103.64 25.0463 103.21 24.7155 103.377 24.4365Z" fill="white"/>
<path fill-rule="evenodd" clip-rule="evenodd" d="M104.906 24.4365C105.185 24.5999 105.46 24.7633 105.859 24.8072C105.875 25.1619 105.763 25.3213 105.962 25.4927C105.763 25.6999 105.647 26.1065 105.962 26.2858C105.938 26.4572 105.763 26.4731 105.751 26.6565C105.775 26.8438 105.882 26.9474 105.962 27.079C105.659 27.3819 105.803 27.6808 105.962 28.0315C105.795 28.0753 105.799 27.9478 105.699 27.9239C105.631 28.2706 105.823 28.5855 105.699 28.8206C105.58 28.7489 105.679 28.454 105.647 28.2906C105.488 28.4301 105.556 28.7967 105.54 29.0837C105.38 29.1355 105.448 28.9681 105.436 28.8725C105.372 29.2112 105.097 29.3428 105.173 29.825C105.042 29.817 105.006 29.7254 104.962 29.8768C105.022 29.2232 105.344 28.5377 105.384 27.7645C105.452 26.517 104.858 25.6442 104.328 24.9108C104.627 24.859 104.894 24.7713 104.91 24.4365H104.906Z" fill="white"/>
<path fill-rule="evenodd" clip-rule="evenodd" d="M112.512 28.6613C112.337 28.6972 112.225 29.2512 111.982 29.4026C111.859 29.3588 112.026 29.1715 112.034 29.0838C111.839 29.1515 111.862 29.4425 111.611 29.4544C111.751 29.2392 111.404 29.4943 111.348 29.5581C111.584 29.02 112.062 28.5099 112.141 27.7088C112.269 26.4573 111.536 25.5326 110.822 24.9627C110.874 24.7315 110.918 24.4924 111.141 24.4326C110.998 25.0823 111.472 25.2895 111.882 25.2257C111.859 25.708 112.106 25.9192 112.624 25.8595C112.472 26.2102 112.648 26.5848 112.939 26.6526C112.739 27.0232 113.058 27.2982 113.253 27.4457C113.106 27.6171 112.767 28.195 113.146 28.3983C112.927 28.6374 112.819 28.9881 112.672 29.295C112.568 28.9961 112.911 28.6892 112.831 28.2388C112.656 28.5776 112.688 29.1157 112.305 29.2432C112.369 29.0439 112.409 28.8167 112.516 28.6613H112.512Z" fill="white"/>
<path fill-rule="evenodd" clip-rule="evenodd" d="M96.8284 24.5412C97.0955 24.4336 97.3107 24.5293 97.3585 24.8043C97.5299 25.8286 95.9397 24.8959 96.8284 24.5412ZM97.0915 24.9119C96.9241 24.9836 96.7726 24.7804 96.7208 24.9119C96.7806 25.0434 97.0636 25.159 97.0915 24.9119Z" fill="white"/>
<path fill-rule="evenodd" clip-rule="evenodd" d="M108.656 24.6972C108.86 24.7171 108.86 24.7729 108.919 24.5896C109.039 24.5737 109.119 24.6016 109.131 24.6972C109.202 24.6454 109.198 24.5179 109.29 24.486C109.386 24.478 109.402 24.5497 109.501 24.5378C109.573 24.7689 109.322 24.9523 109.187 24.8008C108.983 25.02 108.601 25.0599 108.445 25.3309C107.911 25.0958 108.641 24.9005 108.656 24.6972Z" fill="white"/>
<path fill-rule="evenodd" clip-rule="evenodd" d="M101.577 30.2496C101.374 30.401 101.346 29.867 101.418 29.9865C101.191 29.6278 100.764 29.5441 100.521 29.1416C100.398 29.1575 100.525 29.3369 100.573 29.3528C100.334 29.4485 100.29 28.8945 100.15 28.7191C100.011 28.8427 100.238 29.0539 100.202 29.2492C100.023 29.1296 99.9911 28.8626 99.9393 28.6155C99.8237 28.5398 99.5885 28.5796 99.5168 28.4561C99.7201 28.209 99.7081 27.7466 99.4092 27.6111C99.5088 27.4677 99.6443 27.3521 99.728 27.1887C99.7519 26.9376 99.6722 26.7901 99.5168 26.7144C99.6443 26.5231 99.9711 26.535 100.047 26.2919C100.095 26.0528 99.9592 25.993 99.9393 25.8176C100.545 25.8814 100.701 25.5107 100.573 24.9727C100.952 25.1281 101.402 25.0763 101.418 24.602C101.581 24.5223 101.709 24.618 101.84 24.7096C101.191 25.3234 100.414 26.0607 100.31 27.1926C100.178 28.6035 100.995 29.4883 101.789 30.2018C101.569 30.2416 101.502 29.9586 101.577 30.2536V30.2496Z" fill="white"/>
<path fill-rule="evenodd" clip-rule="evenodd" d="M109.768 24.5967C110.306 24.7123 110.852 25.055 111.035 25.4934C111.462 25.5612 111.342 26.171 111.776 26.2347C111.693 26.5377 112.067 26.7967 111.776 26.9721C111.784 27.0717 111.956 27.004 111.988 27.0797C111.9 27.5301 112.083 27.9804 111.725 28.1877C111.717 28.7895 111.246 29.3594 110.72 29.6145C111.222 28.8732 111.665 28.0442 111.669 27.0797C111.33 25.9916 110.657 25.2384 109.66 24.8079C109.688 24.7282 109.74 24.6724 109.764 24.5967H109.768Z" fill="white"/>
<path fill-rule="evenodd" clip-rule="evenodd" d="M103.692 24.701C103.903 24.5456 104.103 24.9043 103.955 25.1235C103.756 25.1474 103.716 25.0119 103.64 24.9122C103.632 24.8166 103.704 24.8006 103.692 24.701Z" fill="white"/>
<path fill-rule="evenodd" clip-rule="evenodd" d="M100.417 25.0187C100.696 25.5049 100.054 25.8556 99.7832 25.493C99.6358 24.9708 100.118 24.7755 100.417 25.0187ZM100.309 25.2817C100.19 25.3056 100.038 25.3853 99.9387 25.2817C99.8988 25.5288 100.341 25.477 100.309 25.2817Z" fill="white"/>
<path fill-rule="evenodd" clip-rule="evenodd" d="M101.421 26.2861C101.832 25.9712 102.442 25.0904 103.111 25.1781C102.756 25.6444 102.139 25.7321 101.792 26.1824C100.959 27.2586 101.557 29.1238 102.689 29.7216C102.517 29.8691 102.485 30.1521 102.159 30.1441C102.123 29.9488 102.274 29.9408 102.262 29.7734C100.393 28.8289 100.839 25.21 103.107 24.915C102.473 25.3016 101.748 25.6006 101.417 26.2861H101.421Z" fill="white"/>
<path fill-rule="evenodd" clip-rule="evenodd" d="M95.7136 25.6538C95.3828 24.9364 96.3593 24.7411 96.4549 25.2832C96.5147 25.618 96.1321 25.9448 95.7136 25.6538ZM95.873 25.4944C95.9687 25.7096 96.3792 25.5263 96.1879 25.335C96.2118 25.5183 95.9009 25.3669 95.873 25.4944Z" fill="white"/>
<path fill-rule="evenodd" clip-rule="evenodd" d="M101.846 24.9645C102.009 24.9405 102.081 25.0123 102.057 25.1757C101.91 25.3391 101.682 25.1119 101.846 24.9645Z" fill="white"/>
<path fill-rule="evenodd" clip-rule="evenodd" d="M112.724 24.9616C114.421 24.9258 116.199 25.4678 117.056 26.4403C118.2 27.7356 118.12 30.1429 116.741 31.4063C116.438 31.3983 116.083 31.8567 116 31.7251C116.518 30.936 117.347 30.2624 117.478 29.1385C117.741 26.9066 115.824 25.6432 113.676 25.5475C114.21 26.2689 115.219 27.1975 115.103 28.8755C115.043 29.7483 114.76 30.7487 114.047 31.0396C114.318 30.1309 114.744 29.4055 114.681 28.4012C114.589 26.9026 113.485 25.966 112.779 25.125C112.716 25.1171 112.736 25.0294 112.728 24.9656L112.724 24.9616Z" fill="white"/>
<path fill-rule="evenodd" clip-rule="evenodd" d="M104.118 25.0194C104.333 24.9596 104.329 25.3861 104.17 25.3901C103.955 25.4499 103.959 25.0234 104.118 25.0194Z" fill="white"/>
<path fill-rule="evenodd" clip-rule="evenodd" d="M99.3616 25.1224C98.2416 26.33 97.4963 29.4507 98.8873 30.9334C98.7 31.029 98.3612 30.8258 98.146 30.7739C97.2054 29.1837 97.7116 26.609 98.7279 25.4931C96.1492 25.3974 94.5948 27.7489 95.5075 30.2997C95.6311 30.6424 95.9858 31.0968 95.667 31.4076C93.6622 28.4663 95.5394 24.6282 99.3656 25.1224H99.3616Z" fill="white"/>
<path fill-rule="evenodd" clip-rule="evenodd" d="M111.191 27.3929C111.29 26.2889 110.461 25.6591 109.816 25.1211C111.888 25.42 111.809 29.2422 110.027 29.9795C110.035 30.2346 110.294 30.4618 110.186 30.665C109.943 30.6212 109.72 30.2425 109.764 29.9795C109.808 29.7125 110.21 29.6009 110.449 29.294C110.756 28.8994 111.031 28.2298 111.031 27.6041C111.031 26.4244 110.346 25.8823 109.553 25.2287C110.553 25.4957 111.051 26.265 111.191 27.3929Z" fill="white"/>
<path fill-rule="evenodd" clip-rule="evenodd" d="M112.567 25.0712C112.91 25.3382 112.599 25.9321 112.145 25.7049C111.914 25.4259 112.065 24.9317 112.567 25.0712ZM112.515 25.4418H112.201C112.141 25.661 112.575 25.661 112.515 25.4418Z" fill="white"/>
<path fill-rule="evenodd" clip-rule="evenodd" d="M101.527 25.5436C101.392 25.3682 101.543 25.1291 101.739 25.1211C101.846 25.2686 101.782 25.5914 101.527 25.5436Z" fill="white"/>
<path fill-rule="evenodd" clip-rule="evenodd" d="M108.291 25.4936C108.192 25.5175 108.196 25.645 108.028 25.6012C107.909 25.4537 108.016 25.1986 108.188 25.1787C108.22 25.2903 108.319 25.3302 108.295 25.4936H108.291Z" fill="white"/>
<path fill-rule="evenodd" clip-rule="evenodd" d="M104.378 25.335C104.47 25.4028 104.586 25.4427 104.59 25.5981C104.542 25.622 104.494 25.6459 104.482 25.7017C104.295 25.7137 104.207 25.626 104.219 25.4387C104.263 25.3948 104.362 25.4068 104.378 25.3311V25.335Z" fill="white"/>
<path fill-rule="evenodd" clip-rule="evenodd" d="M99.4662 25.3852C99.6734 25.3533 99.7013 25.5047 99.7292 25.6482C99.5897 25.6482 99.4263 25.6681 99.3586 25.5964C99.3187 25.4529 99.4622 25.4888 99.4622 25.3852H99.4662Z" fill="white"/>
<path fill-rule="evenodd" clip-rule="evenodd" d="M101.264 25.9167C101.06 25.7652 101.232 25.546 101.367 25.4424C101.562 25.4982 101.499 25.9685 101.264 25.9167Z" fill="white"/>
<path fill-rule="evenodd" clip-rule="evenodd" d="M112.885 25.4424C113.021 25.4504 113.089 25.5181 113.097 25.6536C112.973 25.6536 112.941 25.7453 112.782 25.7054C112.774 25.5739 112.865 25.542 112.889 25.4424H112.885Z" fill="white"/>
<path fill-rule="evenodd" clip-rule="evenodd" d="M107.812 25.4922C107.903 25.54 107.975 25.6118 108.023 25.7034C108.031 25.8349 107.939 25.8668 107.919 25.9665C107.612 25.9984 107.704 25.6078 107.812 25.4922Z" fill="white"/>
<path fill-rule="evenodd" clip-rule="evenodd" d="M117.005 25.5454C117.647 25.2425 117.611 26.2229 117.165 26.2309C116.953 26.2349 116.523 25.7725 117.005 25.5454ZM117.216 26.0197C117.236 25.8602 117.045 25.9081 116.953 25.8602C116.929 26.0236 117.065 26.0276 117.216 26.0197Z" fill="white"/>
<path fill-rule="evenodd" clip-rule="evenodd" d="M106.547 26.1275C106.395 26.3188 106.065 26.3188 105.913 26.1275C105.71 25.434 106.75 25.434 106.547 26.1275ZM106.073 25.9681C106.029 26.287 106.599 26.0558 106.387 25.9163C106.38 26.0319 106.164 25.9402 106.073 25.9681Z" fill="white"/>
<path fill-rule="evenodd" clip-rule="evenodd" d="M95.2966 25.7047C95.5078 25.6489 95.7828 25.7406 95.7708 26.0754C95.735 27.0319 94.356 25.9478 95.2966 25.7047ZM95.1889 26.1272C95.2886 26.1511 95.2846 26.2786 95.452 26.2308C95.4799 26.1511 95.5317 26.0993 95.5596 26.0196C95.4639 26.0833 95.2527 26.0275 95.1889 26.1232V26.1272Z" fill="white"/>
<path fill-rule="evenodd" clip-rule="evenodd" d="M99.2027 26.2854C99.0831 25.014 100.466 26.1778 99.677 26.4448C99.4498 26.5206 99.3701 26.3771 99.2027 26.2854ZM99.6252 26.2854C99.6531 26.2535 99.8404 26.126 99.677 26.0742C99.661 26.1977 99.4458 26.1061 99.4139 26.0742C99.4219 26.2097 99.4897 26.2814 99.6252 26.2854Z" fill="white"/>
<path fill-rule="evenodd" clip-rule="evenodd" d="M104.538 25.7063C104.821 25.6385 104.861 26.0171 104.75 26.1806C104.538 26.1726 104.415 25.8816 104.538 25.7063Z" fill="white"/>
<path fill-rule="evenodd" clip-rule="evenodd" d="M95.9265 29.9806C95.8628 30.0045 95.8189 30.0483 95.8189 30.14C95.8428 30.2197 95.8867 30.1201 95.9783 30.14C95.8428 30.8096 96.4965 31.1762 96.4526 31.7262C95.4881 30.7657 94.8783 28.2269 95.9225 26.9196C95.9584 27.2146 95.9903 26.9037 96.2374 26.8678C96.1697 26.6167 96.1059 26.5689 96.345 26.4454C96.5762 26.4055 96.3012 26.549 96.4486 26.549C96.5363 26.4733 96.3849 26.266 96.6081 26.2341C96.8552 26.2222 96.5403 26.4374 96.7675 26.4454C96.8592 26.3338 96.7675 26.2899 96.7675 26.1265C96.8791 26.0946 96.9189 25.995 97.0823 26.0229C97.0385 26.0827 97.0106 26.1664 97.0305 26.2859C97.1979 26.2301 97.0305 26.0468 97.19 25.9153C97.453 26.0827 97.4968 25.8276 97.6642 25.7559C97.8157 25.8834 97.9831 26.003 98.2461 26.0189C98.1824 26.3178 97.9671 26.1903 97.8237 26.2301C96.624 26.5729 95.8668 27.0472 95.8149 28.5537C95.7751 29.6777 96.3889 30.4469 96.7117 31.3516C96.2693 31.0726 96.2015 30.415 95.9186 29.9806H95.9265Z" fill="white"/>
<path fill-rule="evenodd" clip-rule="evenodd" d="M113.411 26.3912C113.096 26.6223 112.705 26.4629 112.669 26.1799C112.598 25.5901 113.725 25.5981 113.411 26.3912ZM113.199 26.2318C113.068 26.2397 112.944 26.2397 112.885 26.1799C112.845 26.4549 113.179 26.4151 113.199 26.2318Z" fill="white"/>
<path fill-rule="evenodd" clip-rule="evenodd" d="M101.053 25.8096C101.288 25.8454 101.268 26.4074 101.001 26.3915C100.853 26.1962 100.941 26.0088 101.053 25.8096Z" fill="white"/>
<path fill-rule="evenodd" clip-rule="evenodd" d="M107.708 25.9133C107.824 26.0568 107.8 26.1723 107.708 26.3358C107.429 26.3637 107.429 25.8854 107.708 25.9133Z" fill="white"/>
<path fill-rule="evenodd" clip-rule="evenodd" d="M104.965 26.6012C104.761 26.6451 104.761 26.4896 104.702 26.39C104.678 26.2226 104.845 26.2505 104.861 26.127C105.012 26.1668 105.076 26.4657 104.965 26.6012Z" fill="white"/>
<path fill-rule="evenodd" clip-rule="evenodd" d="M99.0995 26.2296C99.2589 26.5165 98.8205 26.6042 98.7288 26.8115C98.7129 27.0546 98.7288 27.2698 98.8364 27.3934C98.5016 27.6963 98.402 28.3419 98.9401 28.5013C98.7687 29.155 98.968 29.3742 99.2031 30.0318C99.0038 29.9322 98.9401 29.697 98.8882 29.4499C98.7248 29.6532 98.9799 29.8843 98.9959 30.0836C98.8006 30.1035 98.8962 29.8285 98.7328 29.8206C98.7487 30.0358 98.9281 30.0796 98.8922 30.3467C98.131 29.4818 98.135 26.8553 99.1035 26.2256L99.0995 26.2296Z" fill="white"/>
<path fill-rule="evenodd" clip-rule="evenodd" d="M113.519 26.2305C113.642 26.2464 113.638 26.3939 113.73 26.4417C113.607 26.5852 113.395 26.3739 113.519 26.2305Z" fill="white"/>
<path fill-rule="evenodd" clip-rule="evenodd" d="M100.791 26.3369C101.078 26.3648 100.978 26.6837 100.894 26.867C100.591 26.867 100.691 26.4924 100.791 26.3369Z" fill="white"/>
<path fill-rule="evenodd" clip-rule="evenodd" d="M107.495 26.3369C107.699 26.3967 107.639 26.5641 107.599 26.7594C107.32 26.8032 107.352 26.4286 107.495 26.3369Z" fill="white"/>
<path fill-rule="evenodd" clip-rule="evenodd" d="M118.059 26.3398C118.262 26.4873 118.262 26.9297 118.059 27.0812C117.776 27.117 117.588 27.0573 117.477 26.9217C117.401 26.4594 117.596 26.2681 118.059 26.3398ZM117.955 26.7105C117.824 26.7185 117.7 26.7185 117.636 26.6587C117.596 26.8659 117.975 26.9775 117.955 26.7105Z" fill="white"/>
<path fill-rule="evenodd" clip-rule="evenodd" d="M95.1367 26.7089C95.4356 27.3466 94.5548 27.518 94.4512 27.0796C94.3754 26.7607 94.7541 26.4219 95.1367 26.7089ZM94.6106 26.9201C94.6106 27.1115 94.766 27.1513 94.9812 27.1314C94.9095 27.0118 94.7142 26.8444 94.6106 26.9201Z" fill="white"/>
<path fill-rule="evenodd" clip-rule="evenodd" d="M104.963 26.6006C105.162 26.6006 105.142 26.8078 105.174 26.9712C105.074 26.9952 105.078 27.1227 104.911 27.0789C104.803 26.9553 104.859 26.6723 104.963 26.6046V26.6006Z" fill="white"/>
<path fill-rule="evenodd" clip-rule="evenodd" d="M99.4153 26.7078C99.7103 26.9669 99.5349 27.3774 99.2559 27.3933C98.8215 27.4173 98.6501 26.5843 99.4153 26.7078ZM98.9929 27.1303C99.0925 27.2817 99.4313 27.2778 99.4153 27.0267C99.3157 27.1024 99.0646 27.0267 98.9929 27.1303Z" fill="white"/>
<path fill-rule="evenodd" clip-rule="evenodd" d="M107.498 27.2358C107.318 27.196 107.191 26.8811 107.39 26.7615C107.629 26.7137 107.565 27.1402 107.498 27.2358Z" fill="white"/>
<path fill-rule="evenodd" clip-rule="evenodd" d="M100.631 26.8694C100.894 26.8574 100.882 27.3277 100.791 27.5031C100.504 27.527 100.432 27.0089 100.631 26.8694Z" fill="white"/>
<path fill-rule="evenodd" clip-rule="evenodd" d="M113.939 29.7177C113.84 29.6061 113.776 29.9728 113.676 30.0366C113.6 29.5982 114.067 29.088 113.78 28.5579C114.055 28.1673 114.027 27.5655 113.461 27.5018C113.7 27.4061 113.863 27.2347 113.935 26.9717C114.76 27.6293 114.593 29.6301 113.935 30.3514C113.979 30.1721 113.875 30.0685 113.828 30.2478C113.724 30.1402 113.863 29.8293 113.935 29.7177H113.939Z" fill="white"/>
<path fill-rule="evenodd" clip-rule="evenodd" d="M105.228 27.4468C105.128 27.4548 105.052 27.4827 105.016 27.5545C104.614 27.2994 105.375 26.7534 105.228 27.4468Z" fill="white"/>
<path fill-rule="evenodd" clip-rule="evenodd" d="M106.121 27.8143C106.03 27.6469 105.97 27.6629 105.962 27.4995C105.918 26.527 107.48 27.8422 106.121 27.8143ZM106.121 27.5513C106.089 27.8223 106.683 27.7027 106.436 27.4995C106.428 27.6151 106.213 27.5234 106.121 27.5513Z" fill="white"/>
<path fill-rule="evenodd" clip-rule="evenodd" d="M107.548 27.342C107.524 27.4417 107.528 27.5692 107.388 27.5533C107.58 27.7605 107.508 27.9 107.548 28.2388C107.4 28.2826 107.412 28.1631 107.285 28.187C107.289 27.7645 107.189 27.4975 107.285 27.1826C107.42 27.1866 107.468 27.2783 107.548 27.342Z" fill="white"/>
<path fill-rule="evenodd" clip-rule="evenodd" d="M94.3441 27.4434C94.5752 27.3756 94.7506 27.4115 94.8183 27.6546C95.1292 28.7745 93.264 27.7662 94.3441 27.4434ZM94.6071 27.8658C94.4397 27.9376 94.2883 27.7343 94.2365 27.8658C94.3002 27.9535 94.5712 28.0571 94.6071 27.8658Z" fill="white"/>
<path fill-rule="evenodd" clip-rule="evenodd" d="M100.842 27.9743C100.483 28.0102 100.432 27.6993 100.579 27.5C100.794 27.5279 100.874 27.6953 100.842 27.9743Z" fill="white"/>
<path fill-rule="evenodd" clip-rule="evenodd" d="M105.223 27.5537C105.223 27.6932 105.243 27.8566 105.171 27.9244C105.047 27.9403 104.968 27.9164 104.908 27.8726C104.868 27.6215 105.019 27.5617 105.223 27.5577V27.5537Z" fill="white"/>
<path fill-rule="evenodd" clip-rule="evenodd" d="M99.3137 27.6568C99.6884 27.9437 99.3297 28.5734 98.8394 28.2905C98.6362 27.9716 98.7956 27.5492 99.3137 27.6568ZM98.9431 28.0792C99.0427 28.1031 99.0387 28.2307 99.2061 28.1829C99.23 28.0832 99.3217 28.0513 99.3137 27.9198C99.1862 27.9676 99.0586 28.0155 98.9431 28.0792Z" fill="white"/>
<path fill-rule="evenodd" clip-rule="evenodd" d="M113.785 27.8167C113.94 28.0439 113.737 28.4145 113.466 28.3986C112.948 28.3707 113.071 27.3703 113.785 27.8167ZM113.31 28.1873C113.406 28.3348 113.793 28.1834 113.625 28.0837C113.633 28.2352 113.298 28.0399 113.31 28.1873Z" fill="white"/>
<path fill-rule="evenodd" clip-rule="evenodd" d="M104.908 28.289C104.844 28.0379 105.091 27.9183 105.223 28.0259C105.251 28.2451 105.087 28.277 104.908 28.289Z" fill="white"/>
<path fill-rule="evenodd" clip-rule="evenodd" d="M106.494 28.1334C106.574 28.3685 106.522 28.516 106.386 28.6595H106.016C105.605 28.3646 106.107 27.7707 106.49 28.1334H106.494ZM106.334 28.3446C106.299 28.516 106.032 28.3765 106.02 28.4522C106.083 28.6316 106.55 28.5519 106.334 28.3446Z" fill="white"/>
<path fill-rule="evenodd" clip-rule="evenodd" d="M100.576 28.0784C100.875 28.0624 101.015 28.2019 100.999 28.5008C100.712 28.5088 100.616 28.3215 100.576 28.0784Z" fill="white"/>
<path fill-rule="evenodd" clip-rule="evenodd" d="M105.065 28.291C105.293 28.3707 105.109 28.6936 104.854 28.6099C104.81 28.3907 104.998 28.3986 105.065 28.291Z" fill="white"/>
<path fill-rule="evenodd" clip-rule="evenodd" d="M107.339 28.291H107.55C107.614 28.7294 107.813 28.9686 107.813 29.3472C107.55 29.4309 107.502 29.6541 107.231 29.6102C107.247 29.3791 107.55 29.4349 107.602 29.2396C107.447 28.8331 107.431 28.6896 107.339 28.291Z" fill="white"/>
<path fill-rule="evenodd" clip-rule="evenodd" d="M94.2369 28.397C94.4322 28.3492 94.5916 28.3571 94.6594 28.6082C94.9623 29.7481 93.1568 28.664 94.2369 28.397ZM94.1333 28.8713C94.2329 28.8952 94.2648 28.9869 94.3963 28.9789C94.4122 28.9151 94.6115 28.7796 94.4481 28.7158C94.472 28.8992 94.1612 28.7477 94.1293 28.8753L94.1333 28.8713Z" fill="white"/>
<path fill-rule="evenodd" clip-rule="evenodd" d="M101.163 28.821C100.944 28.845 100.776 28.821 100.792 28.6098C100.924 28.5022 101.207 28.5859 101.163 28.821Z" fill="white"/>
<path fill-rule="evenodd" clip-rule="evenodd" d="M99.8357 29.19C99.6882 29.3892 99.2977 29.3892 99.1502 29.19C98.9469 28.4407 100.047 28.4327 99.8357 29.19ZM99.3614 29.1381C99.5009 29.1939 99.6603 29.178 99.6803 28.9787C99.5448 29.0026 99.4372 29.0544 99.3614 29.1381Z" fill="white"/>
<path fill-rule="evenodd" clip-rule="evenodd" d="M105.114 28.7128C104.931 28.9759 104.958 28.9201 104.954 29.2429C104.831 29.2588 104.751 29.2349 104.691 29.1911C104.787 28.9719 104.855 29.0436 104.795 28.7168C104.919 28.7009 105.014 28.6132 105.114 28.7168V28.7128Z" fill="white"/>
<path fill-rule="evenodd" clip-rule="evenodd" d="M101.846 29.8255C101.646 29.69 101.216 29.5067 101.316 29.2436C101.304 29.132 101.084 29.2277 101.052 29.14C100.993 28.9726 101.029 29.0005 101.104 28.877C101.264 28.877 101.312 28.9885 101.423 29.0364C101.3 29.3552 101.969 29.5146 101.846 29.8295V29.8255Z" fill="white"/>
<path fill-rule="evenodd" clip-rule="evenodd" d="M94.2919 29.3487C94.547 29.2252 94.7901 29.3567 94.818 29.6118C94.9296 30.5205 93.5147 29.7273 94.2919 29.3487ZM94.2919 29.7194C94.3636 29.8509 94.7463 29.7313 94.5549 29.6157C94.5789 29.7632 94.268 29.5759 94.2919 29.7194Z" fill="white"/>
<path fill-rule="evenodd" clip-rule="evenodd" d="M104.642 29.293H104.853C104.801 29.5281 104.785 29.5281 104.745 29.7154C104.57 29.6198 104.701 29.5241 104.642 29.293Z" fill="white"/>
<path fill-rule="evenodd" clip-rule="evenodd" d="M99.043 29.4024C99.1904 29.2788 99.322 29.6176 99.306 29.8248C99.1386 29.7651 99.1586 29.514 99.043 29.4024Z" fill="white"/>
<path fill-rule="evenodd" clip-rule="evenodd" d="M113.674 29.4044C113.702 29.6435 113.566 29.7192 113.514 29.8787C113.446 29.512 113.199 29.9384 113.144 29.5598C113.411 29.5997 113.458 29.4163 113.674 29.4004V29.4044Z" fill="white"/>
<path fill-rule="evenodd" clip-rule="evenodd" d="M99.3643 29.4541C99.4918 29.5219 99.5795 29.6255 99.5755 29.8248C99.3882 29.8168 99.3643 29.6494 99.3643 29.4541Z" fill="white"/>
<path fill-rule="evenodd" clip-rule="evenodd" d="M111.036 29.7178C111.164 29.8254 111.176 30.1004 111.036 30.1921C110.889 30.1363 110.973 29.9848 110.773 30.0884C110.781 29.8852 110.989 29.8812 111.036 29.7178Z" fill="white"/>
<path fill-rule="evenodd" clip-rule="evenodd" d="M110.506 29.8252C110.722 29.8929 110.427 30.1002 110.295 30.1401C110.287 29.9527 110.475 29.9647 110.506 29.8252Z" fill="white"/>
<path fill-rule="evenodd" clip-rule="evenodd" d="M118.378 30.6161C118.326 30.6161 118.338 30.6798 118.326 30.7237C118.206 30.8153 118.031 30.8512 117.796 30.8273C117.082 30.3251 118.449 29.6236 118.378 30.6161ZM117.903 30.6161C118.035 30.624 118.122 30.5882 118.166 30.5124C118.003 30.4965 117.927 30.3968 117.796 30.353C117.788 30.4845 117.879 30.5164 117.903 30.6161Z" fill="white"/>
<path fill-rule="evenodd" clip-rule="evenodd" d="M108.71 30.5649C109.013 30.4094 109.292 30.5768 109.292 30.8837C109.288 31.7286 107.992 30.9355 108.71 30.5649ZM109.08 30.9873C108.893 31.0192 108.825 30.9275 108.71 30.8837C108.63 31.1667 109.024 31.1308 109.08 30.9873Z" fill="white"/>
<path fill-rule="evenodd" clip-rule="evenodd" d="M98.9395 30.5638C99.1068 30.5558 99.1228 30.6993 99.1507 30.8268C99.0112 30.8109 98.9713 30.6873 98.9395 30.5638Z" fill="white"/>
<path fill-rule="evenodd" clip-rule="evenodd" d="M103.847 31.2486C103.668 31.3482 103.68 31.42 103.476 31.408C102.623 31.3482 103.871 29.9812 103.847 31.2486ZM103.688 31.145C103.556 31.149 103.524 31.2446 103.425 31.145C103.405 31.3243 103.731 31.3682 103.688 31.145Z" fill="white"/>
<path fill-rule="evenodd" clip-rule="evenodd" d="M111.457 31.7253C110.859 31.1355 111.963 30.6811 112.039 31.3028C112.071 31.5499 111.891 31.7891 111.457 31.7253ZM111.828 31.4623C111.656 31.4942 111.581 31.4264 111.457 31.4105C111.449 31.6137 111.772 31.5978 111.828 31.4623Z" fill="white"/>
<path fill-rule="evenodd" clip-rule="evenodd" d="M100.785 31.1426C102.06 30.9713 100.49 32.3742 100.626 31.3539C100.645 31.2184 100.642 31.2423 100.785 31.1426ZM100.785 31.5133C100.885 31.5372 100.881 31.6648 101.048 31.6209C101.076 31.5412 101.128 31.4894 101.156 31.4097C100.98 31.4934 100.893 31.4575 100.785 31.5133Z" fill="white"/>
<path fill-rule="evenodd" clip-rule="evenodd" d="M117.692 31.7245C117.477 31.8281 117.158 31.7803 117.058 31.6208C116.871 30.7201 118.19 31.1545 117.692 31.7245ZM117.584 31.4614C117.385 31.5172 117.433 31.3299 117.27 31.3538C117.238 31.5411 117.545 31.6607 117.584 31.4614Z" fill="white"/>
<path fill-rule="evenodd" clip-rule="evenodd" d="M98.4119 31.8292C98.95 31.7017 98.9181 32.5666 98.4637 32.5666C98.0931 32.5666 97.8858 31.9528 98.4119 31.8292ZM98.675 32.2517C98.4956 32.3235 98.396 32.2238 98.3043 32.3035C98.4039 32.439 98.6311 32.439 98.675 32.2517Z" fill="white"/>
<path fill-rule="evenodd" clip-rule="evenodd" d="M114.204 31.7768C114.379 31.8685 114.451 32.0598 114.415 32.3587C113.853 33.0163 113.243 31.6772 114.204 31.7768ZM114.152 32.3069C113.969 32.3149 113.977 32.1275 113.837 32.0957C113.785 32.3228 114.08 32.5301 114.152 32.3069Z" fill="white"/>
<path fill-rule="evenodd" clip-rule="evenodd" d="M106.175 32.5713H106.335C106.247 32.659 106.291 32.8822 106.283 33.0456C106.136 33.1014 105.892 33.0934 105.701 33.0456C105.765 32.8981 106.04 32.9619 106.016 32.7307C106.108 32.7108 106.116 32.7706 106.124 32.8383C106.239 32.8463 106.148 32.651 106.175 32.5753V32.5713Z" fill="white"/>
<path fill-rule="evenodd" clip-rule="evenodd" d="M106.389 32.6219C106.604 32.602 106.449 32.9527 106.496 33.0962C106.237 33.1241 106.353 32.7455 106.389 32.6219Z" fill="white"/>
<path fill-rule="evenodd" clip-rule="evenodd" d="M103.852 32.6752C104.111 32.6632 104.063 32.9542 104.063 33.2013C103.824 33.1933 103.852 32.9223 103.852 32.6752Z" fill="white"/>
<path fill-rule="evenodd" clip-rule="evenodd" d="M103.695 32.7324C103.87 32.7523 103.778 33.0353 103.802 33.2067C103.567 33.0951 103.523 33.2824 103.38 33.2067V32.9955C103.671 33.1708 103.567 32.9476 103.695 32.7324Z" fill="white"/>
<path fill-rule="evenodd" clip-rule="evenodd" d="M108.766 32.7324C109.001 32.7364 109.001 33.0353 108.925 33.2067C108.714 33.2067 108.778 32.9317 108.766 32.7324Z" fill="white"/>
<path fill-rule="evenodd" clip-rule="evenodd" d="M106.596 32.7812C106.787 32.8171 106.684 33.0881 106.596 33.1519C106.485 33.12 106.548 32.8251 106.596 32.7812Z" fill="white"/>
<path fill-rule="evenodd" clip-rule="evenodd" d="M108.551 32.7812C108.723 32.7972 108.683 33.1798 108.5 33.1519C108.5 33.0124 108.48 32.849 108.551 32.7812Z" fill="white"/>
<path fill-rule="evenodd" clip-rule="evenodd" d="M104.168 32.8848C104.319 32.8927 104.419 32.9525 104.379 33.1478C104.184 33.1837 104.148 33.0641 104.168 32.8848Z" fill="white"/>
<path fill-rule="evenodd" clip-rule="evenodd" d="M108.292 32.9424H108.451V33.1536C108.276 33.2054 108.28 33.0819 108.292 32.9424Z" fill="white"/>
<path fill-rule="evenodd" clip-rule="evenodd" d="M101.266 32.9922C101.425 33.036 101.393 33.4585 101.369 33.5183C101.266 33.4186 101.146 33.1476 101.266 32.9922Z" fill="white"/>
<path fill-rule="evenodd" clip-rule="evenodd" d="M104.484 32.9922C104.62 32.9962 104.755 33.0002 104.747 33.1516C104.596 33.1636 104.46 33.1596 104.484 32.9922Z" fill="white"/>
<path fill-rule="evenodd" clip-rule="evenodd" d="M101.476 33.0459C101.679 33.0539 101.691 33.2531 101.687 33.4684C101.484 33.4604 101.472 33.2611 101.476 33.0459Z" fill="white"/>
<path fill-rule="evenodd" clip-rule="evenodd" d="M109.188 33.0459C109.216 33.1814 109.28 33.2492 109.081 33.2571C109.053 33.1216 108.993 33.0539 109.188 33.0459Z" fill="white"/>
<path fill-rule="evenodd" clip-rule="evenodd" d="M111.139 33.1523C111.306 33.1603 111.262 33.5429 111.19 33.6266C110.884 33.6147 111.131 33.3118 111.139 33.1523Z" fill="white"/>
<path fill-rule="evenodd" clip-rule="evenodd" d="M101.739 33.2061C101.767 33.6046 102.146 33.222 101.739 33.2061V33.2061Z" fill="white"/>
<path fill-rule="evenodd" clip-rule="evenodd" d="M101.05 33.2555C101.237 33.2236 101.209 33.411 101.209 33.5744C101.105 33.5744 101.141 33.4309 100.998 33.4668C100.99 33.3711 101.061 33.3552 101.05 33.2555Z" fill="white"/>
<path fill-rule="evenodd" clip-rule="evenodd" d="M102.006 33.2568C102.157 33.213 102.141 33.3325 102.269 33.3086C102.221 33.4242 101.974 33.4681 102.006 33.2568Z" fill="white"/>
<path fill-rule="evenodd" clip-rule="evenodd" d="M111.301 33.4677C111.44 33.4517 111.476 33.5394 111.46 33.6789H111.301V33.4677Z" fill="white"/>
<path fill-rule="evenodd" clip-rule="evenodd" d="M99.1504 33.6788C99.1584 33.615 99.246 33.6349 99.3098 33.627C99.3935 33.7545 99.4852 33.8741 99.4692 34.1012C99.2859 34.0375 99.254 33.8262 99.1544 33.6788H99.1504Z" fill="white"/>
<path fill-rule="evenodd" clip-rule="evenodd" d="M99.0426 33.6807C99.1502 33.7843 99.222 33.9238 99.202 34.1549C98.9669 34.1868 98.939 33.8241 99.0426 33.6807Z" fill="white"/>
<path fill-rule="evenodd" clip-rule="evenodd" d="M99.5241 33.7295C99.6317 33.7614 99.7234 33.8092 99.6835 33.9925C99.5201 34.0005 99.4444 33.8052 99.5241 33.7295Z" fill="white"/>
<path fill-rule="evenodd" clip-rule="evenodd" d="M112.991 34.2073C112.863 34.0957 112.963 33.7569 113.15 33.7848C113.258 33.9203 113.067 34.0917 112.991 34.2073Z" fill="white"/>
<path fill-rule="evenodd" clip-rule="evenodd" d="M113.412 33.7881C113.452 34.0392 113.336 34.1348 113.252 34.2624C113.037 34.1827 113.224 33.7961 113.412 33.7881Z" fill="white"/>
<path fill-rule="evenodd" clip-rule="evenodd" d="M112.724 33.8906H112.883C112.899 34.0301 112.863 34.1178 112.724 34.1019V33.8906Z" fill="white"/>
<path fill-rule="evenodd" clip-rule="evenodd" d="M105.961 35.3182C104.853 35.4258 103.673 35.4577 102.633 35.6331C103.287 35.5574 104.052 34.7921 103.318 34.2581C102.76 34.2102 102.418 34.3776 101.892 34.3657C103.071 34.0628 105.004 33.8037 106.224 34.0508C104.889 33.8356 104.558 35.3621 105.961 35.3182ZM104.853 34.6845C104.825 34.3936 104.61 34.1026 104.112 34.2621C102.812 34.6766 104.984 36.1074 104.853 34.6845Z" fill="white"/>
<path fill-rule="evenodd" clip-rule="evenodd" d="M98.887 34.3142C98.7197 34.3023 98.7675 33.9715 98.9389 33.9954C99.0544 34.107 98.9508 34.2305 98.887 34.3142Z" fill="white"/>
<path fill-rule="evenodd" clip-rule="evenodd" d="M107.017 34.1012C107.929 33.9458 108.926 34.165 109.711 34.3124C109.288 34.4121 108.998 34.5556 108.97 34.8943C108.918 35.5639 109.827 35.6755 110.289 35.7911C109.966 35.9226 109.563 35.6596 109.125 35.5798C108.503 35.4683 107.838 35.4443 107.065 35.4204C107.232 35.1534 107.603 35.265 107.698 34.9461C107.842 34.4719 107.475 34.1849 107.013 34.1012H107.017ZM108.336 35.3168C108.99 35.3009 109.061 33.9976 108.176 34.2606C107.555 34.444 107.77 35.3327 108.336 35.3168Z" fill="white"/>
<path fill-rule="evenodd" clip-rule="evenodd" d="M113.414 34.3631C113.398 34.1718 113.402 33.9965 113.625 34.0483C113.641 34.2396 113.637 34.4149 113.414 34.3631Z" fill="white"/>
<path fill-rule="evenodd" clip-rule="evenodd" d="M107.071 35.1598C108.502 34.4066 105.504 33.8645 105.273 34.7374C105.417 35.104 105.911 35.124 106.381 35.1598C105.871 35.2834 105.042 35.2475 105.166 34.6337C105.349 33.741 108.912 34.3827 107.067 35.1598H107.071Z" fill="white"/>
<path fill-rule="evenodd" clip-rule="evenodd" d="M113.831 34.4709C113.727 34.5586 113.763 34.4669 113.62 34.4709C113.596 34.3593 113.656 34.3314 113.672 34.2597C113.811 34.2437 113.843 34.3314 113.831 34.4709Z" fill="white"/>
<path fill-rule="evenodd" clip-rule="evenodd" d="M102.479 34.4222C102.849 34.3863 103.443 34.2229 103.483 34.7929C103.527 35.4066 100.992 36.0603 100.841 35.2672C100.725 34.6534 101.793 34.49 102.479 34.4222ZM101 35.1077C100.952 35.857 103.411 35.4146 103.324 34.7929C103.276 34.4501 102.929 34.5179 102.638 34.5298C102.196 34.5458 101.028 34.6773 101 35.1117V35.1077Z" fill="white"/>
<path fill-rule="evenodd" clip-rule="evenodd" d="M110.191 34.4203C110.363 34.2689 110.63 34.4721 110.773 34.524C110.614 34.6635 110.359 34.4482 110.191 34.4203Z" fill="white"/>
<path fill-rule="evenodd" clip-rule="evenodd" d="M104.542 34.4712C104.881 34.8817 104.267 35.3361 103.96 34.9455C103.857 34.4911 104.199 34.3118 104.542 34.4712ZM104.49 34.79C104.327 34.7701 104.239 34.9136 104.12 34.79C104.14 35.0571 104.458 35.0172 104.49 34.79Z" fill="white"/>
<path fill-rule="evenodd" clip-rule="evenodd" d="M108.656 34.5735C108.68 34.9322 108.592 35.0637 108.393 35.0996C107.695 35.2311 108.01 33.9398 108.656 34.5735ZM108.445 34.8923C108.293 34.968 108.178 34.7488 108.13 34.8923C108.197 34.968 108.409 35.0836 108.445 34.8923Z" fill="white"/>
<path fill-rule="evenodd" clip-rule="evenodd" d="M113.991 34.6293C113.924 34.6093 113.908 34.5376 113.832 34.5217C113.868 34.3024 114.159 34.4977 113.991 34.6293Z" fill="white"/>
<path fill-rule="evenodd" clip-rule="evenodd" d="M107.337 34.7344C107.105 35.1489 105.691 35.2326 105.487 34.7344C105.734 34.3 107.066 34.3956 107.337 34.7344ZM106.914 34.842C106.559 34.8779 106.069 34.7743 105.806 34.8938C106.117 34.9576 106.679 35.0054 106.914 34.842Z" fill="white"/>
<path fill-rule="evenodd" clip-rule="evenodd" d="M110.978 35.6854C112.891 35.3865 109.487 33.9637 109.288 34.8405C109.224 35.1195 109.631 35.3267 109.711 35.3706C109.946 35.4981 110.125 35.514 110.396 35.5818C109.966 35.7412 109.097 35.3546 109.129 34.8963C109.157 34.4977 109.739 34.4818 110.185 34.5256C110.986 34.6053 112.556 35.4981 110.978 35.6894V35.6854Z" fill="white"/>
<path fill-rule="evenodd" clip-rule="evenodd" d="M114.997 34.5771C114.997 34.7684 114.894 34.8601 114.786 34.9478C114.559 34.8402 114.336 34.7286 114.101 34.6329C114.435 34.5094 114.599 34.5652 114.997 34.5811V34.5771Z" fill="white"/>
<path fill-rule="evenodd" clip-rule="evenodd" d="M97.9354 34.5762C97.9553 34.8512 97.501 34.9349 97.5129 34.628C97.7122 34.6678 97.764 34.5642 97.9354 34.5762Z" fill="white"/>
<path fill-rule="evenodd" clip-rule="evenodd" d="M110.926 34.6317C111.065 34.528 111.508 34.5759 111.508 34.7911C111.257 34.7951 111.113 34.6914 110.926 34.6317Z" fill="white"/>
<path fill-rule="evenodd" clip-rule="evenodd" d="M111.302 35.4197C110.648 35.6269 109.628 35.3997 109.4 34.8378C110.002 34.5269 111.142 34.7899 111.302 35.4197ZM110.034 35.2084C110.409 35.1407 110.68 35.4595 110.034 35.2084V35.2084Z" fill="white"/>
<path fill-rule="evenodd" clip-rule="evenodd" d="M111.62 34.7363C111.736 34.7443 111.732 34.8679 111.728 34.9994C111.545 35.0352 111.537 34.816 111.62 34.7363Z" fill="white"/>
<path fill-rule="evenodd" clip-rule="evenodd" d="M100.418 34.7852V35.0482C100.211 34.9605 100.255 34.9605 100.048 35.0482C100.008 35.0004 99.9917 34.9286 99.9957 34.837C100.243 34.7891 100.155 34.8968 100.418 34.7852Z" fill="white"/>
<path fill-rule="evenodd" clip-rule="evenodd" d="M112.197 34.9464C112.221 35.1138 112.053 35.0859 112.037 35.2094C111.91 35.2294 111.922 35.1138 111.774 35.1576C111.766 35.0261 111.766 34.9026 111.826 34.8428C112.081 35.058 111.898 34.9703 112.197 34.9504V34.9464Z" fill="white"/>
<path fill-rule="evenodd" clip-rule="evenodd" d="M99.7826 34.9463H99.942V35.1575C99.8025 35.1735 99.7706 35.0858 99.7826 34.9463Z" fill="white"/>
<path fill-rule="evenodd" clip-rule="evenodd" d="M99.9928 36.3211C99.6899 36.09 99.5703 35.4164 99.5703 35.0537C99.8373 35.3486 99.9091 35.8389 99.9928 36.3211Z" fill="white"/>
<path fill-rule="evenodd" clip-rule="evenodd" d="M112.727 35.2115C112.81 35.3988 112.794 35.7177 112.675 35.8452C111.714 36.2557 111.922 34.6376 112.727 35.2115ZM112.515 35.634C112.332 35.6738 112.292 35.5742 112.201 35.5264C112.109 35.7735 112.496 35.8094 112.515 35.634Z" fill="white"/>
<path fill-rule="evenodd" clip-rule="evenodd" d="M100.419 35.1577C100.61 35.3092 100.61 35.64 100.419 35.7914C99.7889 35.9668 99.7889 34.9824 100.419 35.1577ZM100.1 35.5802C100.231 35.6958 100.49 35.6201 100.47 35.4208C100.331 35.4567 100.203 35.5045 100.1 35.5802Z" fill="white"/>
<path fill-rule="evenodd" clip-rule="evenodd" d="M112.566 36.5313C112.682 36.0331 112.861 35.5947 113.041 35.1562C113.212 35.5389 112.905 36.3121 112.566 36.5313Z" fill="white"/>
<path fill-rule="evenodd" clip-rule="evenodd" d="M114.887 36.3198C114.516 36.284 114.365 36.0329 114.042 35.9492C114.261 36.1525 114.632 36.2043 114.676 36.5829C114.166 36.834 113.444 36.4633 113.301 36.001C113.408 35.8416 113.807 35.8774 113.986 35.9492C113.847 35.7738 113.377 35.726 113.193 35.8974C113.165 36.7184 114.13 36.543 114.409 37.0612C113.819 36.8898 112.599 36.4155 113.245 35.6861C113.062 35.6104 113.189 35.3952 113.245 35.2637C113.385 35.2995 113.512 35.3474 113.616 35.4231C113.699 35.6303 113.389 35.443 113.404 35.5825C113.958 35.7698 114.62 35.8496 114.883 36.3238L114.887 36.3198Z" fill="white"/>
<path fill-rule="evenodd" clip-rule="evenodd" d="M111.723 36.2127C111.607 36.2047 111.607 36.0811 111.615 35.9496C111.516 35.9696 111.575 36.1529 111.404 36.109C111.364 35.6348 111.671 35.8221 111.878 35.6348C112.018 35.842 111.854 36.117 111.719 36.2167L111.723 36.2127Z" fill="white"/>
<path fill-rule="evenodd" clip-rule="evenodd" d="M101.372 35.6864C101.512 35.6705 101.543 35.7582 101.531 35.8977C101.392 35.9136 101.304 35.8777 101.32 35.7382C101.364 35.7462 101.368 35.7183 101.372 35.6864Z" fill="white"/>
<path fill-rule="evenodd" clip-rule="evenodd" d="M100.519 35.7383H100.73C100.77 35.8499 100.857 36.0332 100.782 36.1089C100.582 36.097 100.574 35.8937 100.519 35.7383Z" fill="white"/>
<path fill-rule="evenodd" clip-rule="evenodd" d="M100.842 35.7383H101.002V36.0013C100.838 36.0252 100.834 35.8897 100.842 35.7383Z" fill="white"/>
<path fill-rule="evenodd" clip-rule="evenodd" d="M101.051 35.7395C101.266 35.6797 101.31 35.9029 101.21 36.0026C101.118 35.9547 101.027 35.9029 101.051 35.7395Z" fill="white"/>
<path fill-rule="evenodd" clip-rule="evenodd" d="M110.402 35.842C110.558 35.7264 110.893 35.8778 111.036 35.9456C110.865 36.0771 110.594 35.8619 110.402 35.842Z" fill="white"/>
<path fill-rule="evenodd" clip-rule="evenodd" d="M100.046 35.8447C100.241 35.8527 100.373 36.1118 100.257 36.2672C100.002 36.319 99.9543 35.9723 100.046 35.8447Z" fill="white"/>
<path fill-rule="evenodd" clip-rule="evenodd" d="M111.138 35.8447H111.298C111.31 35.9962 111.306 36.1317 111.138 36.1078C111.102 35.9444 111.102 36.0081 111.138 35.8447Z" fill="white"/>
<path fill-rule="evenodd" clip-rule="evenodd" d="M100.312 35.9502C100.328 35.8785 100.444 35.9064 100.524 35.8984C100.504 36.026 100.619 36.014 100.576 36.1615C100.348 36.2292 100.408 36.01 100.312 35.9502Z" fill="white"/>
<path fill-rule="evenodd" clip-rule="evenodd" d="M111.932 35.9508C112.127 35.9149 112.159 36.0424 112.355 36.0026V36.162C112.478 36.1461 112.454 35.9787 112.618 36.0026C112.634 36.1939 112.518 36.2577 112.51 36.4251C112.37 36.441 112.335 36.3533 112.351 36.2138C112.215 36.4729 112.056 36.2856 111.876 36.2656C111.836 36.1022 111.928 36.0743 111.928 35.9508H111.932Z" fill="white"/>
<path fill-rule="evenodd" clip-rule="evenodd" d="M99.7332 36.4233C99.4542 36.3038 99.5698 36.523 99.3107 36.5309C99.2988 36.228 99.9046 36.0009 99.7332 36.4233Z" fill="white"/>
<path fill-rule="evenodd" clip-rule="evenodd" d="M112.887 36.3193C113.066 36.3353 113.134 36.702 112.835 36.6342C112.827 36.5027 112.827 36.3791 112.887 36.3193Z" fill="white"/>
<path fill-rule="evenodd" clip-rule="evenodd" d="M113.308 36.7418C113.228 36.8254 113.009 36.8175 113.045 36.6341C113.125 36.5504 113.344 36.5584 113.308 36.7418Z" fill="white"/>
<path fill-rule="evenodd" clip-rule="evenodd" d="M109.662 36.9535C109.546 36.9136 109.367 36.8259 109.503 36.6904C109.606 36.7263 109.642 36.8299 109.662 36.9535Z" fill="white"/>
<path fill-rule="evenodd" clip-rule="evenodd" d="M113.411 36.6904C113.503 36.7383 113.594 36.7901 113.57 36.9535C113.399 36.9694 113.287 36.81 113.411 36.6904Z" fill="white"/>
<path fill-rule="evenodd" clip-rule="evenodd" d="M105.016 36.7437C105.032 36.8832 104.944 36.9191 104.805 36.9032C104.789 36.7637 104.876 36.7278 105.016 36.7437Z" fill="white"/>
<path fill-rule="evenodd" clip-rule="evenodd" d="M106.65 36.7458C106.762 36.7219 106.79 36.7817 106.862 36.7976C106.85 36.8893 106.77 36.9172 106.65 36.9012V36.7418V36.7458Z" fill="white"/>
<path fill-rule="evenodd" clip-rule="evenodd" d="M107.285 36.7445C107.453 36.7006 107.449 36.8282 107.548 36.8481C107.524 36.9517 107.178 36.9437 107.285 36.7445Z" fill="white"/>
<path fill-rule="evenodd" clip-rule="evenodd" d="M108.502 36.8975C108.542 37.1007 108.251 37.1007 108.291 36.8975C108.394 36.8098 108.359 36.9015 108.502 36.8975Z" fill="white"/>
<path fill-rule="evenodd" clip-rule="evenodd" d="M114.31 37.2692C114.031 37.4246 113.828 37.0978 113.624 37.0061C113.609 36.9224 113.676 36.9144 113.676 36.8467C113.9 36.9782 114.226 36.9981 114.31 37.2692Z" fill="white"/>
<path fill-rule="evenodd" clip-rule="evenodd" d="M110.349 37.0577C110.205 37.0537 110.241 37.1454 110.138 37.0577C110.098 36.8545 110.389 36.8545 110.349 37.0577Z" fill="white"/>
<path fill-rule="evenodd" clip-rule="evenodd" d="M104.433 37.0084C104.449 37.1479 104.413 37.2356 104.274 37.2196C104.246 37.1758 104.218 37.132 104.222 37.0602C104.27 37.0204 104.342 37.0044 104.433 37.0084Z" fill="white"/>
<path fill-rule="evenodd" clip-rule="evenodd" d="M104.539 37.0078H104.75C104.814 37.1911 104.455 37.2549 104.539 37.0078Z" fill="white"/>
<path fill-rule="evenodd" clip-rule="evenodd" d="M105.489 37.0065C105.629 36.9906 105.752 36.9906 105.7 37.166C105.561 37.1819 105.473 37.146 105.489 37.0065Z" fill="white"/>
<path fill-rule="evenodd" clip-rule="evenodd" d="M106.966 37.0078H107.125C107.117 37.0676 107.137 37.1035 107.177 37.1114C107.165 37.2748 106.914 37.1991 106.966 37.0078Z" fill="white"/>
<path fill-rule="evenodd" clip-rule="evenodd" d="M107.334 37.0058C107.473 36.9898 107.505 37.0775 107.493 37.217C107.354 37.2329 107.266 37.1971 107.282 37.0576C107.326 37.0656 107.33 37.0377 107.334 37.0058Z" fill="white"/>
<path fill-rule="evenodd" clip-rule="evenodd" d="M109.398 37.008C109.55 36.996 109.685 37 109.661 37.1674C109.574 37.2551 109.35 37.2113 109.398 37.008Z" fill="white"/>
<path fill-rule="evenodd" clip-rule="evenodd" d="M110.456 37.0084C110.531 37.0363 110.727 36.9446 110.719 37.0602C110.755 37.2674 110.408 37.1439 110.456 37.0084Z" fill="white"/>
<path fill-rule="evenodd" clip-rule="evenodd" d="M104.116 37.0579V37.2173C104.004 37.2412 103.976 37.1814 103.904 37.1655C103.916 37.0738 103.996 37.0459 104.116 37.0619V37.0579Z" fill="white"/>
<path fill-rule="evenodd" clip-rule="evenodd" d="M106.391 37.1132C106.415 37.0414 106.869 36.9856 106.813 37.165C106.646 37.0534 106.518 37.2128 106.391 37.1132Z" fill="white"/>
<path fill-rule="evenodd" clip-rule="evenodd" d="M107.866 37.0599C107.889 37.1715 107.83 37.1994 107.814 37.2711C107.67 37.311 107.706 37.1675 107.603 37.1635C107.646 37.0838 107.734 37.0479 107.866 37.0599Z" fill="white"/>
<path fill-rule="evenodd" clip-rule="evenodd" d="M108.235 37.1152H108.498C108.549 37.3265 108.183 37.3265 108.235 37.1152Z" fill="white"/>
<path fill-rule="evenodd" clip-rule="evenodd" d="M111.035 37.113C111.175 37.097 111.298 37.097 111.246 37.2724C111.107 37.2883 111.019 37.2525 111.035 37.113Z" fill="white"/>
<path fill-rule="evenodd" clip-rule="evenodd" d="M108.551 37.2206C108.563 37.1449 108.985 37.0971 108.921 37.2724C108.782 37.2724 108.619 37.2923 108.551 37.2206Z" fill="white"/>
<path fill-rule="evenodd" clip-rule="evenodd" d="M109.239 37.3222C109.127 37.4378 109.067 37.3142 108.976 37.2704C108.98 37.115 109.29 37.1309 109.239 37.3222Z" fill="white"/>
<path fill-rule="evenodd" clip-rule="evenodd" d="M106.068 37.271C105.634 37.4384 104.789 37.4703 104.271 37.3786C104.781 37.267 105.598 37.2511 106.068 37.271Z" fill="white"/>
<path fill-rule="evenodd" clip-rule="evenodd" d="M107.233 37.2695C107.381 37.2257 107.369 37.3452 107.496 37.3213C107.492 37.4768 107.182 37.4648 107.233 37.2695Z" fill="white"/>
<path fill-rule="evenodd" clip-rule="evenodd" d="M109.344 37.2715C109.619 37.3353 109.783 37.1798 109.874 37.4309C109.679 37.399 109.316 37.5305 109.344 37.2715Z" fill="white"/>
<path fill-rule="evenodd" clip-rule="evenodd" d="M107.549 37.3213H108.079V37.4289C107.92 37.3771 107.545 37.5405 107.549 37.3213Z" fill="white"/>
<path fill-rule="evenodd" clip-rule="evenodd" d="M108.443 37.4824C108.315 37.5023 108.327 37.3867 108.18 37.4306C108.184 37.2751 108.495 37.2911 108.443 37.4824Z" fill="white"/>
<path fill-rule="evenodd" clip-rule="evenodd" d="M106.493 26.4452C106.844 27.0589 105.779 27.2702 105.963 26.497C106.086 26.3894 106.318 26.3575 106.493 26.4452Z" fill="white"/>
<path fill-rule="evenodd" clip-rule="evenodd" d="M114.519 25.7562C114.695 25.7443 114.726 26.0153 114.627 26.1269C114.838 26.1787 114.647 25.832 114.838 25.8639C115.181 25.8001 115.057 26.1229 115.101 26.2345C115.245 26.2744 115.061 25.9874 115.205 26.0233C115.38 25.9675 115.288 26.1867 115.308 26.2863C115.408 26.2784 115.34 26.107 115.416 26.0751C117.158 26.4019 118.066 29.3393 116.58 30.6186C116.635 30.8179 116.448 30.7701 116.476 30.9375C116.257 30.9813 116.229 31.2205 116.105 31.36C115.862 31.4317 115.803 31.6908 115.524 31.7306C115.763 31.3002 116.181 31.0531 116.472 30.6744C116.105 30.7302 115.934 31.4397 115.416 31.5194C116.046 30.6784 117.022 30.0168 116.843 28.5621C116.695 27.3744 115.898 26.665 114.782 26.3421C114.667 26.1947 114.431 25.9436 114.519 25.7602V25.7562Z" fill="white"/>
<path fill-rule="evenodd" clip-rule="evenodd" d="M118.535 27.2843C118.603 27.4358 118.603 27.659 118.535 27.8144C118.336 27.8861 118.244 27.9459 118.005 27.8662C117.654 27.4916 118.152 26.9256 118.535 27.2843Z" fill="white"/>
<path fill-rule="evenodd" clip-rule="evenodd" d="M110.344 33.3655C110.475 33.3575 110.599 33.3575 110.607 33.4691C110.746 33.2937 110.826 33.3495 111.029 33.2061C111.061 33.3974 110.97 33.4611 110.922 33.5767C110.786 33.3495 110.412 33.7043 110.34 33.3655H110.344Z" fill="white"/>
<path fill-rule="evenodd" clip-rule="evenodd" d="M99.6278 34.5765C101.389 33.9388 104.004 33.6638 106.547 33.7834C108.5 33.8751 110.457 33.9747 111.828 34.6283C107.551 33.4088 101.035 33.5283 97.9379 35.6845C98.1172 35.8639 98.7031 35.6008 98.6234 35.3657C98.8625 35.3776 98.743 35.4972 98.994 35.4175C98.8625 35.3099 99.1535 35.0707 99.3647 35.2062C99.5042 35.4175 99.2013 35.2062 99.1535 35.3139C99.4883 35.4015 99.6198 35.549 99.6278 35.7881C99.6477 36.2584 98.8306 36.4139 98.994 36.7407C98.8825 36.7646 98.8944 36.665 98.8864 36.5813C98.6672 36.6211 98.8227 36.7088 98.727 36.8443C98.5556 36.9121 98.6872 36.6729 98.5158 36.7407C98.3843 36.7805 98.6911 36.9001 98.5158 37.0037C98.3564 37.0556 98.4201 36.8842 98.4082 36.7925C98.1132 36.8443 98.452 36.9519 98.3045 37.1074C98.0734 37.0476 98.169 36.94 98.0415 36.8443C98.3364 36.3581 99.5799 36.4218 99.4683 35.7881C99.3567 35.1544 98.2607 35.9396 97.8821 36.0512C97.8263 35.8559 97.9937 35.8798 98.0415 35.7881C97.89 35.541 97.6071 35.9396 97.356 35.7363C97.1647 35.0787 97.9698 34.8396 98.464 34.6283C102.713 32.779 109.58 32.9066 113.832 34.732C114.378 34.9671 115.132 35.1744 115.207 35.7363C114.769 35.9954 114.247 35.5689 113.781 35.3657C113.282 35.1505 112.768 34.9552 112.302 34.7838C112.342 34.6642 112.597 34.7639 112.724 34.732C109.293 33.3609 103.135 33.0979 99.6238 34.5725L99.6278 34.5765Z" fill="white"/>
<path fill-rule="evenodd" clip-rule="evenodd" d="M101.317 34.4717C101.221 34.6869 101.126 34.5873 100.895 34.6829C100.715 34.9181 100.751 35.1612 100.791 35.5279C100.596 35.3565 100.52 35.0615 100.528 34.6829C100.608 34.7985 100.719 34.934 100.687 34.6311C100.97 34.6909 101.006 34.4876 101.321 34.4717H101.317Z" fill="white"/>
<path fill-rule="evenodd" clip-rule="evenodd" d="M103.162 34.7368C102.955 35.3267 101.811 35.4662 101.153 35.2669C101.349 34.6571 102.504 34.5495 103.162 34.7368Z" fill="white"/>
<path fill-rule="evenodd" clip-rule="evenodd" d="M97.9873 36.3203C98.1587 35.8739 98.6928 35.7942 99.1471 35.6348C99.8047 36.0851 98.3022 36.687 97.9873 36.3203Z" fill="white"/>
<path fill-rule="evenodd" clip-rule="evenodd" d="M103.64 23.7506C104.11 23.6071 104.134 24.3165 103.799 24.3843C103.484 24.444 103.106 23.914 103.64 23.7506Z" fill="white"/>
<path fill-rule="evenodd" clip-rule="evenodd" d="M109.241 23.9627C109.317 24.5007 108.771 24.5844 108.555 24.2815C108.408 23.7196 109.07 23.6199 109.241 23.9627Z" fill="white"/>
<path fill-rule="evenodd" clip-rule="evenodd" d="M110.874 24.0642C110.917 24.1957 110.941 24.3472 110.925 24.5385C110.184 25.2439 110.001 23.5261 110.874 24.0642Z" fill="white"/>
<path fill-rule="evenodd" clip-rule="evenodd" d="M113.731 24.329C113.771 24.5801 113.656 24.6757 113.572 24.8032C113.301 24.8471 113.157 24.7594 113.042 24.6438C112.894 24.0819 113.556 23.9822 113.727 24.325L113.731 24.329Z" fill="white"/>
<path fill-rule="evenodd" clip-rule="evenodd" d="M112.09 24.6496C111.95 23.9681 112.684 23.9601 112.775 24.3307C112.871 24.7094 112.433 24.9923 112.09 24.6496Z" fill="white"/>
<path fill-rule="evenodd" clip-rule="evenodd" d="M114.309 24.1728C114.655 24.0692 114.811 24.2565 114.835 24.4916C114.946 25.5598 113.272 24.4876 114.309 24.1728Z" fill="white"/>
<path fill-rule="evenodd" clip-rule="evenodd" d="M115.262 24.5384C115.557 24.3869 115.808 24.5344 115.844 24.8014C115.956 25.7221 114.489 24.933 115.262 24.5384Z" fill="white"/>
<path fill-rule="evenodd" clip-rule="evenodd" d="M106.493 24.9605C106.485 25.0203 106.505 25.0562 106.545 25.0641C106.649 25.5105 106.127 25.5902 105.963 25.3272C105.892 24.9525 106.214 24.825 106.493 24.9565V24.9605Z" fill="white"/>
<path fill-rule="evenodd" clip-rule="evenodd" d="M116.738 25.0189C117.021 25.7123 116.033 25.8718 115.945 25.3377C115.881 24.9431 116.383 24.6761 116.738 25.0189Z" fill="white"/>
<path fill-rule="evenodd" clip-rule="evenodd" d="M104.327 26.2831C104.151 25.6813 103.577 25.486 103.322 24.9639C104.733 25.4342 105.176 27.9331 104.43 29.4516C104.426 29.7545 104.877 29.8302 104.745 30.0853C103.665 29.7944 104.598 28.7661 104.534 27.6023C104.47 26.4585 103.805 25.9842 103.37 25.2787C103.809 25.4939 104.012 25.9363 104.323 26.2831H104.327Z" fill="white"/>
<path fill-rule="evenodd" clip-rule="evenodd" d="M109.238 25.0178C109.549 25.0059 108.999 25.4005 109.29 25.2291C109.126 25.528 108.7 25.6316 108.445 25.9704C107.847 26.7595 107.859 28.2382 108.285 29.402C108.126 29.4897 108.026 29.6331 107.755 29.6132C107.727 29.4259 107.943 29.4817 107.915 29.2983C107.341 27.5885 107.719 25.4164 109.234 25.0178H109.238Z" fill="white"/>
<path fill-rule="evenodd" clip-rule="evenodd" d="M113.25 26.651C113.908 26.3481 113.824 27.2489 113.461 27.2847C113.274 27.3047 112.724 26.8941 113.25 26.651Z" fill="white"/>
<path fill-rule="evenodd" clip-rule="evenodd" d="M108.024 24.9119C107.087 25.6931 106.76 27.9131 107.442 29.2442C107.207 29.0928 107.059 29.0091 107.019 28.7699C106.868 28.8895 106.86 28.8457 106.704 28.9812C106.677 28.6384 106.816 28.1323 106.493 28.0844C106.792 27.8732 106.848 27.2873 106.545 27.0283C106.732 26.6576 106.748 25.9641 106.545 25.6014C106.645 25.4181 106.808 25.1072 106.597 24.9159C107.099 24.6369 107.761 24.2025 108.024 24.9159V24.9119Z" fill="white"/>
<path fill-rule="evenodd" clip-rule="evenodd" d="M118.328 28.0811C118.528 28.0293 118.779 28.0891 118.803 28.3959C118.882 29.4242 117.332 28.3322 118.328 28.0811Z" fill="white"/>
<path fill-rule="evenodd" clip-rule="evenodd" d="M113.624 28.8227C113.672 29.1854 113.513 29.3448 113.15 29.297C112.716 28.9781 113.306 28.3843 113.624 28.8227Z" fill="white"/>
<path fill-rule="evenodd" clip-rule="evenodd" d="M118.749 29.2423C118.901 29.876 118.259 30.0035 118.008 29.6648C117.84 29.0789 118.486 28.9394 118.749 29.2423Z" fill="white"/>
<path fill-rule="evenodd" clip-rule="evenodd" d="M94.9252 30.2479C95.3756 30.6066 94.4828 31.2324 94.2915 30.6704C94.1958 30.3914 94.3832 30.0486 94.9252 30.2479Z" fill="white"/>
<path fill-rule="evenodd" clip-rule="evenodd" d="M106.227 30.4018C106.434 30.2902 106.669 30.3699 106.649 30.6648C106.61 31.2626 105.713 30.6768 106.227 30.4018Z" fill="white"/>
<path fill-rule="evenodd" clip-rule="evenodd" d="M94.6639 31.1449C94.8711 30.8061 95.3335 30.9575 95.3494 31.2485C95.3733 31.667 94.6001 31.8503 94.6639 31.1449Z" fill="white"/>
<path fill-rule="evenodd" clip-rule="evenodd" d="M113.993 32.6234C113.786 33.0698 113.889 33.8749 114.416 33.9984C115.356 34.2176 115.416 33.4006 114.575 33.3647C114.575 33.1375 114.822 33.1575 114.894 32.994C114.87 32.719 114.758 32.5317 114.734 32.2527C114.97 32.2288 115.129 32.2806 115.316 32.3045C115.448 32.189 115.444 31.9419 115.579 31.8303C115.735 31.8701 115.838 31.9578 115.95 32.0415C116.161 31.9538 116.185 31.6788 116.424 31.619C116.639 31.6669 116.655 31.914 116.847 31.9897C117.174 31.9658 117.369 31.8063 117.743 31.8303C117.484 32.3085 117.114 32.6792 116.635 32.9382C116.616 32.5636 116.954 32.5556 117.058 32.3045C116.62 32.6274 116.416 32.6752 115.894 32.6234C115.814 32.6473 115.914 32.6911 115.894 32.7828C115.763 32.7908 115.731 32.6991 115.631 32.6792C115.512 32.9462 115.639 33.1136 115.472 33.2611C115.583 33.3767 115.783 33.4085 115.842 33.5799C115.615 34.7039 113.527 34.7796 113.519 33.4205C112.734 34.0104 111.434 33.7752 111.247 32.7868C110.653 33.556 109.059 33.2531 108.816 32.3643C108.298 33.2013 106.695 33.1535 106.333 32.2049C106.002 33.0578 104.185 33.2172 103.798 32.3085C103.487 33.2212 101.877 33.5281 101.315 32.6274C101.116 33.568 99.7526 34.1339 98.9914 33.3129C98.9595 34.6441 96.8671 34.7318 96.5602 33.5759C96.6718 33.3886 96.7116 33.1296 97.0345 33.1535C97.0823 32.9821 96.8631 33.0777 96.8232 32.994C96.891 32.7629 97.0664 32.6393 97.1939 32.464C96.9667 32.6513 96.8551 32.4082 96.612 32.5158C96.5682 32.3643 96.6877 32.3803 96.6638 32.2527C96.5163 32.2607 96.5961 32.5038 96.4008 32.464C96.5522 32.1969 96.054 32.5596 96.0819 32.0933C96.0062 32.3205 96.0421 32.452 96.0301 32.6234C95.779 32.6473 95.7989 32.3962 95.6076 32.3603C95.6076 32.6035 95.9105 32.5516 95.8707 32.8346C95.3047 32.6593 95.1493 32.0774 94.7627 31.7266C94.9859 31.5752 95.2569 31.8303 95.504 31.8303C95.6754 31.7386 95.6714 31.4676 95.8747 31.4078C96.1337 31.4636 96.1337 31.7824 96.1895 32.0415C96.612 31.9698 96.6558 31.5234 97.0345 31.4078C97.158 31.5672 97.1182 31.8861 97.1939 32.0933C97.2656 32.1969 97.5167 32.1212 97.6164 32.1969C97.6522 32.5676 97.3573 32.6074 97.2457 32.8306C97.3772 32.9303 97.6203 32.9143 97.72 33.0419C97.6283 33.3009 97.2218 33.2491 96.9787 33.3607C97.1182 33.6596 97.5725 34.0901 98.0348 33.9944C98.6446 33.8669 98.4294 33.0618 98.6167 32.5676C99.1149 32.6393 99.4697 33.3687 100.147 33.2531C100.55 33.1854 101.092 32.5955 100.781 32.0375C100.482 32.2328 100.167 32.4122 99.6729 32.4082V32.0375C99.5254 31.8821 99.2265 31.8861 99.0392 31.7745C99.0113 31.5194 99.2504 31.5274 99.3023 31.352C99.2504 31.2284 99.0392 31.2643 99.0392 31.0889C99.2744 30.9734 99.7447 31.0889 99.9918 30.9853C99.8961 30.6067 99.4178 30.6107 99.1986 30.3516C99.1907 30.1125 99.5135 30.2081 99.6729 30.1404C99.8084 29.9969 99.7965 29.702 99.8842 29.5067C100.215 29.5266 100.291 29.8016 100.518 29.9291C100.789 29.973 100.865 29.8175 101.1 29.8255C101.211 30.0128 101.128 30.3955 101.152 30.6705C101.586 30.6306 101.761 30.3317 102.208 30.2998C102.2 30.4513 102.236 30.6465 102.156 30.7223C102.323 30.9255 102.73 30.8857 102.79 31.1966C102.578 31.3002 102.367 31.4078 102.156 31.5114C102.156 31.7386 102.419 31.7067 102.419 31.9339C102.176 32.1371 101.757 31.9379 101.47 31.8821C101.351 32.9901 103.694 33.2531 103.423 31.6708C103.551 31.5672 103.742 31.4995 103.898 31.5672C103.898 32.7629 106.094 32.9741 105.958 31.5154C105.587 31.5274 105.041 31.7625 104.743 31.5154C104.758 31.3918 104.798 31.2882 104.902 31.2524C104.806 31.0491 104.535 31.0212 104.32 30.9375C104.36 30.6944 104.607 30.6625 104.743 30.515C104.766 30.3476 104.579 30.3955 104.639 30.1962C105.069 30.1882 105.496 30.1842 105.803 30.2998C105.831 29.8654 105.623 29.6701 105.54 29.3512C105.97 29.3751 106.058 29.0603 106.281 28.877C106.508 29.0563 106.58 29.3911 107.022 29.3512C106.955 29.6183 106.843 29.8415 106.759 30.0926C107.042 30.1483 107.449 29.8694 107.923 29.9331C107.907 30.0965 107.807 30.1723 107.764 30.3038C107.895 30.4911 108.126 30.5748 108.238 30.7781C108.138 30.9574 107.923 31.0252 107.712 31.0929C107.668 31.348 107.863 31.3639 107.815 31.623C107.313 31.7824 106.883 31.5274 106.6 31.3042C106.588 31.9299 106.871 32.2647 107.234 32.5198C107.963 32.6154 108.306 32.3245 108.501 31.8861C108.497 31.5473 108.525 31.2404 108.923 31.3042C108.744 32.735 110.797 33.4404 111.143 31.9897C110.868 31.7984 110.41 32.1212 110.139 31.9379C110.454 31.4516 109.948 31.3281 109.768 31.0411C109.976 30.8618 110.354 30.8538 110.613 30.7263C110.701 30.7183 110.558 30.507 110.613 30.3556C110.944 30.3795 111.211 30.4632 111.458 30.5668C111.654 30.3197 111.275 29.961 111.406 29.7737C111.996 29.9331 112.303 29.5226 112.937 29.4549C112.969 29.7338 112.897 29.9092 112.885 30.1404C113.076 30.232 113.379 30.2121 113.571 30.2998C113.475 30.6426 113.08 30.6904 112.829 30.8817C113.08 31.0013 113.523 30.9295 113.674 31.1447C113.81 31.344 113.403 31.3839 113.359 31.5672C113.399 31.7665 113.475 32.0813 113.308 32.2009C113.096 32.2368 113.005 32.1491 112.833 32.1491C112.618 32.2089 112.821 32.3843 112.781 32.5716C112.287 32.5556 112.076 32.2567 111.777 32.0455C111.486 32.4281 111.777 33.0857 112.04 33.2611C112.941 33.5281 113.387 32.9303 113.73 32.4679C113.842 32.4998 113.901 32.5795 113.993 32.6274V32.6234ZM105.384 30.7223C105.249 30.7263 105.133 30.7502 105.065 30.8259C105.348 30.794 105.424 31.0531 105.647 30.9335C105.611 31.0571 105.472 31.073 105.436 31.1966C105.651 31.1447 105.711 31.1408 105.807 31.3042C106.221 31.0252 106.935 31.2404 107.234 31.3042C107.206 31.1726 107.13 31.0531 107.074 30.8299C107.234 30.8139 107.485 30.8897 107.497 30.7263C107.357 30.6426 107.114 30.5668 107.234 30.3038C106.947 30.3357 106.755 30.4234 106.6 30.2002C106.528 30.0487 106.743 29.9331 106.6 29.8853C106.452 29.9331 106.397 29.7498 106.285 29.5665C106.345 29.9889 106.046 29.7498 105.97 29.9889C106.058 30.0407 106.026 30.2121 106.078 30.3038C105.966 30.511 105.332 30.3516 105.233 30.4114C105.404 30.507 105.261 30.5907 105.392 30.7302L105.384 30.7223ZM112.355 30.248C112.347 30.3835 112.279 30.4513 112.144 30.4592C112.144 30.2121 112.024 30.523 111.933 30.511C111.984 30.2799 111.817 30.2759 111.721 30.1922C111.797 30.3875 111.829 30.8139 111.614 30.8777C111.466 30.7781 111.251 30.7462 111.084 30.6665C111.1 30.7701 111.012 30.7701 110.976 30.8259C111.048 30.8618 111.076 30.9375 111.084 31.0371C110.92 31.0331 110.789 31.061 110.713 31.1447C110.844 31.1368 110.932 31.1726 110.976 31.2484C110.701 31.2045 111.096 31.5034 110.817 31.4596C110.813 31.6031 110.904 31.5672 110.817 31.6708C111.418 31.5792 111.793 31.9977 112.192 31.9339C111.988 31.8183 112.463 31.6429 112.614 31.619C112.554 31.6071 112.53 31.5592 112.506 31.5114C112.773 31.4795 112.913 31.639 112.981 31.4078C112.762 31.4237 112.769 31.344 112.821 31.1966C112.678 31.1647 112.403 31.2643 112.347 31.1447C112.339 30.8897 112.674 30.9773 112.666 30.7223C112.435 30.6665 112.494 30.9016 112.295 30.8817C112.387 30.5828 112.307 30.5668 112.347 30.248H112.355ZM100.47 31.9379C100.801 31.8143 101.175 31.7306 101.63 31.7266V31.4078C101.845 31.34 101.953 31.1687 102.212 31.1447C102.052 31.073 102.024 31.1687 101.789 31.1447C101.805 31.073 101.865 31.0451 101.841 30.9335C101.558 30.9893 101.538 30.8418 101.682 30.7223C101.411 30.6984 101.391 30.9255 101.156 30.9335C100.944 30.9335 101.056 30.6107 100.944 30.511C100.849 30.6904 100.689 30.5031 100.629 30.6705C100.518 30.5549 100.466 30.3755 100.315 30.2998C100.223 30.5349 100.378 30.7263 100.155 30.7741C100.247 30.8418 100.362 30.8817 100.366 31.0371C100.386 31.2364 100.036 31.061 99.9957 31.1966C100.151 31.34 99.8483 31.4716 99.7845 31.5672C99.9559 31.5592 100.287 31.5353 100.099 31.7266C100.199 31.7386 100.215 31.6668 100.311 31.6748C100.231 31.8741 100.546 31.6868 100.47 31.8861C100.442 31.8861 100.41 31.9299 100.47 31.9379Z" fill="white"/>
<path fill-rule="evenodd" clip-rule="evenodd" d="M96.1958 32.7298C96.8256 32.5146 96.7219 33.3755 96.3553 33.4153C96.14 33.4392 95.594 32.937 96.1958 32.7298Z" fill="white"/>
<path fill-rule="evenodd" clip-rule="evenodd" d="M115.896 32.9942C115.625 34.3095 117.267 32.771 115.896 32.9942V32.9942Z" fill="white"/>
<path fill-rule="evenodd" clip-rule="evenodd" d="M106.178 35.6855C106.055 35.805 105.704 35.7054 105.493 35.7373C107.577 35.9047 109.594 36.1398 111.355 36.634C110.048 35.9365 108 35.9485 106.286 35.6297C108.849 35.5579 110.758 35.9963 112.731 36.8971C113.201 37.1123 113.962 37.4072 113.998 37.6902C114.074 38.3159 112.081 38.8101 111.252 38.9576C108.94 39.3641 106.82 39.392 104.173 39.2725C102.193 39.1848 99.9209 38.9735 98.785 38.2681C98.5817 38.1406 98.2509 37.7819 98.2549 37.5826C98.2669 37.0007 100.371 36.367 100.949 36.2076C102.5 35.7811 104.289 35.5659 106.178 35.6815V35.6855ZM100.949 36.6898C104.046 35.9485 108.617 36.1398 111.407 36.8492C108.713 35.8329 103.819 35.7572 100.949 36.6898ZM109.61 36.6898C106.003 36.1199 101.443 36.2394 98.8328 37.6424C100.339 38.8101 103.161 38.9098 105.859 38.9098C108.558 38.9098 111.503 38.8859 113.253 37.9572C112.479 37.1083 111.013 36.913 109.61 36.6898Z" fill="white"/>
<path fill-rule="evenodd" clip-rule="evenodd" d="M100.472 37.4824C100.456 37.3429 100.492 37.2552 100.631 37.2711C100.671 37.4146 100.528 37.3787 100.524 37.4824C100.906 37.4624 100.918 37.299 101.106 37.1675C101.129 37.2791 101.07 37.307 101.054 37.3787C101.568 37.2512 102.369 37.1476 102.851 37.1675C102.803 37.2791 102.696 37.3269 102.536 37.3269C102.963 37.5302 103.927 37.0639 104.174 37.4345C103.465 37.4465 102.855 37.5581 102.221 37.6458C104.035 37.5302 106.43 37.4106 108.507 37.5382C108.582 37.5262 108.527 37.3787 108.61 37.3787C109.045 37.4385 109.515 37.4584 109.93 37.5382C110.041 37.5222 109.854 37.3987 109.981 37.3269C110.105 37.3429 110.181 37.4106 110.352 37.3787C110.28 37.2911 110.117 37.295 110.037 37.2193C110.284 37.0798 110.631 37.2911 110.882 37.3229C110.962 37.5103 110.703 37.3548 110.723 37.4824C110.874 37.4943 111.01 37.4903 110.986 37.3229C111.173 37.3987 111.356 37.4784 111.619 37.4824C111.775 37.4385 111.496 37.4027 111.568 37.2711C112.106 37.4186 112.648 37.5621 113.098 37.8012C111.974 38.5625 110.153 38.5943 108.343 38.698C105.011 38.8893 101.042 38.8893 98.9932 37.6418C99.0649 37.4664 99.3359 37.4903 99.4674 37.3787C99.7185 37.6458 100.288 37.1396 100.472 37.4824ZM103.218 37.8012C104.744 37.7932 106.37 37.7614 107.602 37.7494C106.243 37.5382 104.529 37.5501 103.218 37.8012Z" fill="white"/>
<path d="M106.32 20.3595H106.38L107.018 20.4551C107.018 20.4551 107.018 20.3276 107.018 20.2518C107.018 20.1761 107.819 19.5743 107.819 19.5743C107.819 19.5743 107.544 19.5982 107.608 19.379C107.671 19.1598 107.711 19.0004 107.711 19.0004C107.711 19.0004 107.412 19.1359 107.333 19.0402C107.253 18.9446 107.197 18.8529 107.197 18.8529C107.197 18.8529 106.882 19.2993 106.811 19.2236C106.739 19.1518 106.914 18.3428 106.914 18.3428C106.914 18.3428 106.842 18.4783 106.663 18.4703C106.663 18.4703 106.54 18.4623 106.376 18C106.376 18 106.129 18.4862 106.017 18.4942C105.906 18.5022 105.79 18.3467 105.79 18.3467C105.79 18.3467 105.97 19.2196 105.894 19.2515C105.822 19.2834 105.491 18.8489 105.491 18.8489C105.491 18.8489 105.467 19.0681 105.34 19.0681C105.212 19.0681 104.985 18.9884 104.985 18.9884C104.985 18.9884 105.097 19.3113 105.089 19.4428C105.081 19.5703 104.894 19.5703 104.894 19.5703C104.894 19.5703 105.766 20.1602 105.719 20.2718C105.671 20.3834 105.683 20.4511 105.683 20.4511L106.316 20.3475V20.3595H106.32Z" fill="white"/>
</svg>
