<svg width="157" height="75" viewBox="0 0 157 75" fill="none" xmlns="http://www.w3.org/2000/svg">
<g clip-path="url(#clip0_3718_16702)">
<path fill-rule="evenodd" clip-rule="evenodd" d="M154.098 27.2188C155.412 27.2188 156.478 28.284 156.478 29.5982V60.4205C156.478 61.7347 155.412 62.8 154.098 62.8C152.784 62.8 151.719 61.7347 151.719 60.4205V29.5982C151.719 28.284 152.784 27.2188 154.098 27.2188Z" fill="white"/>
<path fill-rule="evenodd" clip-rule="evenodd" d="M53.4185 0C54.7327 0 55.7979 1.06531 55.7979 2.37944V45.0019C55.7979 50.0473 57.4344 54.9567 60.4617 58.993C61.2501 60.0444 61.0371 61.5358 59.9858 62.3242C58.9344 63.1127 57.443 62.8997 56.6545 61.8484C53.0094 56.9882 51.0391 51.0771 51.0391 45.0019V2.37944C51.0391 1.06531 52.1043 0 53.4185 0Z" fill="white"/>
<path fill-rule="evenodd" clip-rule="evenodd" d="M143.824 42.6299C145.138 42.6299 146.203 43.6951 146.203 45.0093V60.4205C146.203 61.7347 145.138 62.7999 143.824 62.7999C142.51 62.7999 141.444 61.7347 141.444 60.4205V45.0093C141.444 43.6951 142.51 42.6299 143.824 42.6299Z" fill="white"/>
<path fill-rule="evenodd" clip-rule="evenodd" d="M43.646 27.2188C44.9603 27.2188 46.0255 28.284 46.0255 29.5982V60.4205C46.0255 61.7347 44.9603 62.8 43.646 62.8C42.3318 62.8 41.2666 61.7347 41.2666 60.4205V29.5982C41.2666 28.284 42.3318 27.2188 43.646 27.2188Z" fill="white"/>
<path fill-rule="evenodd" clip-rule="evenodd" d="M5.56162 32.6886C8.88313 29.4632 13.3307 27.6592 17.9605 27.6592C22.5903 27.6592 27.0378 29.4632 30.3595 32.6886C33.681 35.9137 35.615 40.3064 35.7511 44.9343C35.7517 44.9575 35.7521 44.9808 35.7521 45.0042V60.423C35.7521 61.7372 34.6868 62.8024 33.3726 62.8024C32.0584 62.8024 30.9932 61.7372 30.9932 60.423V45.0405C30.8853 41.6625 29.4696 38.4578 27.0443 36.1026C24.6108 33.7397 21.3524 32.4181 17.9605 32.4181C14.5686 32.4181 11.3102 33.7397 8.87683 36.1026C6.45141 38.4578 5.03586 41.6625 4.92783 45.0405V60.423C4.92783 61.7372 3.86252 62.8024 2.54839 62.8024C1.23426 62.8024 0.168945 61.7372 0.168945 60.423V45.0042C0.168945 44.9808 0.169288 44.9575 0.169974 44.9343C0.306062 40.3064 2.24009 35.9137 5.56162 32.6886Z" fill="white"/>
<path fill-rule="evenodd" clip-rule="evenodd" d="M115.401 44.4635C115.098 51.6544 120.682 57.7292 127.873 58.0319C135.064 58.3343 141.138 52.7504 141.441 45.5596C141.744 38.3687 136.16 32.2941 128.969 31.9914C121.778 31.6888 115.703 37.2727 115.401 44.4635ZM127.673 62.7864C117.856 62.3733 110.233 54.0803 110.646 44.2635C111.059 34.4466 119.352 26.8235 129.169 27.2367C138.986 27.6498 146.609 35.9428 146.196 45.7596C145.783 55.5765 137.49 63.1996 127.673 62.7864Z" fill="white"/>
<path d="M154.098 21.8907C155.516 21.8907 156.666 20.7409 156.666 19.3228C156.666 17.9046 155.516 16.7549 154.098 16.7549C152.68 16.7549 151.53 17.9046 151.53 19.3228C151.53 20.7409 152.68 21.8907 154.098 21.8907Z" fill="white"/>
<path d="M43.646 21.8907C45.0642 21.8907 46.2139 20.7409 46.2139 19.3228C46.2139 17.9046 45.0642 16.7549 43.646 16.7549C42.2279 16.7549 41.0781 17.9046 41.0781 19.3228C41.0781 20.7409 42.2279 21.8907 43.646 21.8907Z" fill="white"/>
<path d="M107.863 62.9883C109.281 62.9883 110.431 61.8386 110.431 60.4204C110.431 59.0023 109.281 57.8525 107.863 57.8525C106.445 57.8525 105.295 59.0023 105.295 60.4204C105.295 61.8386 106.445 62.9883 107.863 62.9883Z" fill="white"/>
<path d="M79.1668 32.4353C81.614 32.4353 84.0062 33.1609 86.0409 34.5204C88.0756 35.8799 89.6616 37.8124 90.598 40.0733C91.5346 42.3341 91.7795 44.8221 91.3021 47.2223C90.8247 49.6223 89.6462 51.827 87.9159 53.5575C86.1856 55.2878 83.9809 56.4663 81.5807 56.9437C79.1805 57.4211 76.6927 57.1761 74.4319 56.2396C72.1708 55.303 70.2386 53.7172 68.8788 51.6825C67.5193 49.6478 66.7937 47.2554 66.7937 44.8084C66.7986 41.5284 68.1039 38.3841 70.4232 36.0648C72.7425 33.7455 75.8868 32.4402 79.1668 32.4353ZM79.1668 26.7246C75.5902 26.7246 72.0938 27.7851 69.12 29.7722C66.1461 31.7593 63.8283 34.5836 62.4595 37.888C61.0908 41.1924 60.7328 44.8284 61.4304 48.3362C62.1283 51.8441 63.8506 55.0664 66.3797 57.5955C68.9087 60.1245 72.1309 61.8469 75.6387 62.5445C79.1468 63.2424 82.7828 62.8843 86.0872 61.5155C89.3915 60.1468 92.2158 57.8291 94.2029 54.8551C96.1899 51.8812 97.2505 48.385 97.2505 44.8084C97.2505 40.0122 95.3453 35.4126 91.9539 32.0212C88.5625 28.6299 83.963 26.7246 79.1668 26.7246Z" fill="url(#paint0_linear_3718_16702)"/>
<path d="M92.1805 74.9449C91.1304 74.9463 90.0903 74.7401 89.1196 74.3388C88.1492 73.9374 87.2675 73.3482 86.5251 72.6055L85.975 72.0553C85.4543 71.5172 85.1658 70.7963 85.1717 70.0477C85.1774 69.299 85.477 68.5825 86.006 68.0525C86.5348 67.5226 87.2507 67.2216 87.9994 67.2144C88.7481 67.2072 89.4695 67.4944 90.0086 68.0141L90.5644 68.5699C90.9579 68.9643 91.4819 69.2013 92.038 69.2364C92.594 69.2714 93.1436 69.1022 93.5835 68.7603C94.5257 68.0253 95.1634 66.9685 95.3743 65.7923C95.5851 64.6161 95.354 63.4035 94.7256 62.3872C91.8356 57.7083 90.6826 52.1621 91.4686 46.719C91.7258 44.9367 91.5971 43.12 91.0908 41.3919C90.5846 39.6639 89.7128 38.0647 88.5345 36.7031C87.3562 35.3415 85.899 34.2489 84.2616 33.4996C82.6241 32.7504 80.8449 32.3619 79.0441 32.3605H78.8766C75.1675 32.2775 71.5715 31.0675 68.5668 28.8913C65.5618 26.7152 63.2907 23.676 62.0549 20.1778C61.9298 19.8241 61.8758 19.4493 61.8956 19.0749C61.9154 18.7004 62.0088 18.3334 62.1706 17.995C62.3323 17.6566 62.559 17.3534 62.8377 17.1026C63.1165 16.8518 63.442 16.6584 63.7957 16.5334C64.1492 16.4084 64.524 16.3543 64.8986 16.3741C65.2731 16.3939 65.6401 16.4874 65.9783 16.649C66.3168 16.8107 66.62 17.0374 66.8709 17.3162C67.1216 17.5951 67.315 17.9206 67.4401 18.2742C68.294 20.6691 69.8517 22.7503 71.9087 24.2449C73.9656 25.7394 76.4264 26.5777 78.968 26.6499H79.0327C81.6533 26.6501 84.2433 27.2141 86.6267 28.3035C89.0102 29.3929 91.1315 30.982 92.8468 32.9634C94.5621 34.9448 95.831 37.2719 96.5677 39.7869C97.3043 42.3018 97.4915 44.9457 97.1165 47.5395C96.5227 51.6548 97.3946 55.8477 99.5797 59.3853C100.949 61.5961 101.454 64.235 100.998 66.7954C100.541 69.3559 99.1548 71.6575 97.105 73.2584C95.6983 74.3552 93.9644 74.9491 92.1805 74.9449Z" fill="white"/>
</g>
<defs>
<linearGradient id="paint0_linear_3718_16702" x1="66.0323" y1="56.7259" x2="101.058" y2="26.6498" gradientUnits="userSpaceOnUse">
<stop offset="0.271789" stop-color="white"/>
<stop offset="0.498542" stop-color="#24272F"/>
</linearGradient>
<clipPath id="clip0_3718_16702">
<rect width="156.662" height="75" fill="white" transform="translate(0.168945)"/>
</clipPath>
</defs>
</svg>
