<svg width="130" height="62" viewBox="0 0 130 62" fill="none" xmlns="http://www.w3.org/2000/svg">
<g clip-path="url(#clip0_3718_16735)">
<g clip-path="url(#clip1_3718_16735)">
<path d="M84.0077 5.14987C83.4542 5.14987 82.9984 4.9536 82.6076 4.56108C82.2169 4.16856 82.0215 3.71061 82.0215 3.15453C82.0215 2.59844 82.2169 2.14051 82.6076 1.74797C82.9984 1.35545 83.4542 1.15918 84.0077 1.15918C84.5613 1.15918 85.0172 1.35545 85.408 1.74797C85.7987 2.14051 85.994 2.59844 85.994 3.15453C85.994 3.71061 85.7987 4.16856 85.408 4.56108C85.0172 4.9536 84.5287 5.14987 84.0077 5.14987Z" fill="white"/>
<path d="M67.167 19.9373V6.72212H70.6186V7.76887C71.1396 7.34364 71.6932 7.01652 72.3118 6.82027C72.9305 6.59129 73.5818 6.49316 74.3307 6.49316C75.8611 6.49316 77.0985 6.98382 78.0753 7.96513C79.0522 8.94645 79.5407 10.2222 79.5407 11.7596V19.9699H76.0891V12.2502C76.0891 11.4325 75.8286 10.7455 75.3402 10.2549C74.8517 9.73151 74.1679 9.50253 73.3538 9.50253C72.7677 9.50253 72.2793 9.60066 71.7908 9.82963C71.3349 10.0586 70.9442 10.3857 70.6511 10.8109V19.9699H67.167V19.9373Z" fill="white"/>
<path d="M85.725 6.72168H82.2734V19.9368H85.725V6.72168Z" fill="white"/>
<path d="M88.6211 19.9373V6.72212H92.0727V7.76887C92.5937 7.34364 93.1471 7.01652 93.7658 6.82027C94.3845 6.59129 95.0358 6.49316 95.7848 6.49316C97.3152 6.49316 98.5526 6.98382 99.5295 7.96513C100.506 8.94645 100.995 10.2222 100.995 11.7596V19.9699H97.5432V12.2502C97.5432 11.4325 97.2826 10.7455 96.7942 10.2549C96.3057 9.73151 95.6219 9.50253 94.8079 9.50253C94.2218 9.50253 93.7007 9.60066 93.2447 9.82963C92.7889 10.0586 92.3982 10.3857 92.1051 10.8109V19.9699H88.6211V19.9373Z" fill="white"/>
<path d="M115.427 18.2675C114.613 18.9218 113.799 19.4123 112.952 19.7068C112.105 20.0012 111.161 20.1647 110.119 20.1647C109.11 20.1647 108.198 20.0012 107.319 19.6414C106.44 19.2815 105.691 18.7909 105.072 18.2021C104.453 17.5806 103.932 16.8609 103.574 16.0432C103.216 15.1927 103.021 14.3095 103.021 13.3282C103.021 12.3796 103.183 11.4964 103.542 10.6459C103.9 9.79546 104.356 9.07584 104.974 8.45434C105.593 7.83283 106.309 7.34217 107.123 6.98235C107.97 6.62254 108.849 6.45898 109.794 6.45898C110.705 6.45898 111.585 6.65524 112.399 7.01506C113.213 7.37488 113.896 7.86553 114.482 8.48703C115.069 9.10854 115.525 9.86089 115.85 10.7441C116.176 11.6273 116.339 12.5431 116.339 13.5572V14.4731H106.505C106.733 15.2909 107.189 15.9778 107.872 16.4684C108.556 16.9918 109.338 17.2208 110.249 17.2208C110.835 17.2208 111.357 17.1226 111.877 16.9264C112.399 16.7301 112.822 16.4684 113.18 16.1413L115.427 18.2675ZM109.728 9.33752C108.947 9.33752 108.263 9.56649 107.677 10.0572C107.091 10.5478 106.7 11.202 106.505 11.9871H112.952C112.724 11.202 112.333 10.5805 111.747 10.0572C111.161 9.59921 110.477 9.33752 109.728 9.33752Z" fill="white"/>
<path d="M82.3771 38.9748H79.0558L75.4414 25.7598H78.7301L80.9118 34.2972L83.5494 25.7598H86.4474L89.0524 34.2972L91.2342 25.7598H94.4578L90.8108 38.9748H87.4895L84.9496 30.5354L82.3771 38.9748Z" fill="white"/>
<path d="M95.0391 32.3658C95.0391 31.4172 95.2345 30.5012 95.5927 29.6508C95.9509 28.8002 96.4394 28.0807 97.0906 27.4591C97.7093 26.8377 98.4582 26.347 99.3373 25.9873C100.184 25.6274 101.128 25.4639 102.105 25.4639C103.082 25.4639 103.994 25.6274 104.873 25.9873C105.72 26.347 106.469 26.8377 107.12 27.4591C107.738 28.0807 108.259 28.8002 108.618 29.6508C108.976 30.5012 109.171 31.3845 109.171 32.3658C109.171 33.3144 108.976 34.2303 108.618 35.0807C108.259 35.9313 107.771 36.6509 107.12 37.2396C106.501 37.8612 105.752 38.3191 104.873 38.6789C104.026 39.0388 103.082 39.2023 102.105 39.2023C101.128 39.2023 100.217 39.0388 99.3373 38.6789C98.4908 38.3191 97.7419 37.8285 97.0906 37.2396C96.4719 36.6182 95.9509 35.8985 95.5927 35.0807C95.2345 34.2303 95.0391 33.3144 95.0391 32.3658ZM102.073 36.193C103.082 36.193 103.929 35.8331 104.645 35.0807C105.361 34.3284 105.72 33.4452 105.72 32.3658C105.72 31.2863 105.361 30.3704 104.645 29.6181C103.929 28.8657 103.082 28.5059 102.073 28.5059C101.063 28.5059 100.217 28.8657 99.5002 29.6181C98.7839 30.3704 98.4257 31.2863 98.4257 32.3658C98.4257 33.4452 98.7839 34.3284 99.5002 35.0807C100.217 35.8331 101.063 36.193 102.073 36.193Z" fill="white"/>
<path d="M67.167 55.4603V43.4881L70.6186 42.7031V45.9741H74.3633V48.8854H70.6186V54.7406C70.6186 55.3621 70.7489 55.82 71.0094 56.049C71.2699 56.3107 71.7583 56.4415 72.4095 56.4415C72.7352 56.4415 73.0282 56.4089 73.3213 56.3761C73.6144 56.3434 73.9074 56.2452 74.2656 56.1472V58.993C73.9074 59.1238 73.4515 59.222 72.9305 59.2874C72.4095 59.3528 71.9537 59.3855 71.5955 59.3855C70.1302 59.3855 69.0231 59.0583 68.2742 58.3714C67.5578 57.7172 67.167 56.7359 67.167 55.4603Z" fill="white"/>
<path d="M67.167 35.2767V23.3046L70.6186 22.5195V25.7905H74.3633V28.7018H70.6186V34.557C70.6186 35.1785 70.7489 35.6364 71.0094 35.8654C71.2699 36.1271 71.7583 36.258 72.4095 36.258C72.7352 36.258 73.0282 36.2253 73.3213 36.1925C73.6144 36.1598 73.9074 36.0616 74.2656 35.9636V38.8094C73.9074 38.9402 73.4515 39.0384 72.9305 39.1038C72.4095 39.1692 71.9537 39.2019 71.5955 39.2019C70.1302 39.2019 69.0231 38.8747 68.2742 38.1878C67.5578 37.5336 67.167 36.5523 67.167 35.2767Z" fill="white"/>
<path d="M76.5117 59.1877V42.5053L79.9633 41.7529V47.0193C80.4844 46.5941 81.0379 46.267 81.6566 46.0707C82.2753 45.8417 82.9264 45.7437 83.6755 45.7437C85.2058 45.7437 86.4432 46.2342 87.4201 47.2156C88.3969 48.1969 88.8854 49.4726 88.8854 51.01V59.2204H85.4338V51.5008C85.4338 50.6829 85.1733 49.996 84.6849 49.5054C84.1964 48.982 83.5126 48.753 82.6986 48.753C82.1124 48.753 81.624 48.8512 81.1357 49.0802C80.6797 49.309 80.289 49.6362 79.9959 50.0614V59.2204H76.5117V59.1877Z" fill="white"/>
<path d="M91.6885 59.1877V45.9726H95.1401V47.4119C95.5633 46.8231 96.0843 46.3978 96.6704 46.1034C97.2565 45.809 97.9404 45.6455 98.6568 45.6455C98.9824 45.6782 99.2755 45.6782 99.5034 45.7437C99.7313 45.7763 99.9266 45.8417 100.089 45.9726V49.0147C99.8289 48.8838 99.5685 48.8184 99.2429 48.753C98.9498 48.6875 98.6241 48.6548 98.2986 48.6548C97.6148 48.6548 96.9961 48.8184 96.4426 49.1782C95.889 49.5054 95.4331 49.996 95.1075 50.6502V59.1877H91.6885Z" fill="white"/>
<path d="M113.47 57.5205C112.656 58.1747 111.842 58.6654 110.995 58.9598C110.148 59.2541 109.204 59.4178 108.162 59.4178C107.153 59.4178 106.241 59.2541 105.362 58.8944C104.483 58.5346 103.734 58.0438 103.115 57.4551C102.496 56.8336 101.975 56.114 101.617 55.2962C101.259 54.4456 101.063 53.5625 101.063 52.5813C101.063 51.6327 101.226 50.7494 101.585 49.899C101.943 49.0484 102.399 48.3288 103.017 47.7073C103.636 47.0859 104.352 46.5952 105.166 46.2353C106.013 45.8756 106.892 45.7119 107.836 45.7119C108.748 45.7119 109.627 45.9083 110.441 46.2681C111.256 46.6278 111.939 47.1185 112.525 47.7401C113.111 48.3615 113.567 49.1139 113.893 49.997C114.219 50.8803 114.382 51.7962 114.382 52.8101V53.7261H104.548C104.776 54.5438 105.232 55.2307 105.915 55.7214C106.599 56.2448 107.381 56.4738 108.292 56.4738C108.878 56.4738 109.4 56.3757 109.92 56.1793C110.441 55.9831 110.865 55.7214 111.223 55.3944L113.47 57.5205ZM107.739 48.5905C106.957 48.5905 106.274 48.8195 105.687 49.3101C105.101 49.8008 104.71 50.455 104.515 51.2401H110.963C110.735 50.455 110.344 49.8335 109.758 49.3101C109.172 48.8522 108.52 48.5905 107.739 48.5905Z" fill="white"/>
<path d="M128.253 57.5205C127.439 58.1747 126.625 58.6654 125.778 58.9598C124.931 59.2541 123.987 59.4178 122.945 59.4178C121.936 59.4178 121.024 59.2541 120.145 58.8944C119.266 58.5346 118.517 58.0438 117.898 57.4551C117.279 56.8336 116.758 56.114 116.4 55.2962C116.042 54.4456 115.847 53.5625 115.847 52.5813C115.847 51.6327 116.009 50.7494 116.368 49.899C116.726 49.0484 117.182 48.3288 117.8 47.7073C118.419 47.0859 119.135 46.5952 119.949 46.2353C120.796 45.8756 121.675 45.7119 122.62 45.7119C123.531 45.7119 124.41 45.9083 125.225 46.2681C126.039 46.6278 126.722 47.1185 127.309 47.7401C127.895 48.3615 128.351 49.1139 128.676 49.997C129.002 50.8803 129.165 51.7962 129.165 52.8101V53.7261H119.363C119.591 54.5438 120.047 55.2307 120.731 55.7214C121.415 56.2448 122.196 56.4738 123.108 56.4738C123.694 56.4738 124.215 56.3757 124.736 56.1793C125.257 55.9831 125.68 55.7214 126.039 55.3944L128.253 57.5205ZM122.522 48.5905C121.74 48.5905 121.056 48.8195 120.47 49.3101C119.884 49.8008 119.494 50.455 119.298 51.2401H125.746C125.518 50.455 125.127 49.8335 124.541 49.3101C123.955 48.8522 123.303 48.5905 122.522 48.5905Z" fill="white"/>
</g>
<g clip-path="url(#clip2_3718_16735)">
<path d="M26.6033 61.1988C11.9178 61.1988 0 49.2267 0 34.4742C0 30.7451 0.748885 27.1797 2.14906 23.9414L37.0884 59.0399C33.8321 60.4464 30.3154 61.1988 26.6033 61.1988Z" fill="white"/>
<path d="M26.573 7.75C17.13 7.75 8.85923 12.6893 4.1377 20.1146H40.868V57.0122C48.2596 52.2691 53.1764 43.9607 53.1764 34.4746V7.75H26.573Z" fill="white"/>
</g>
</g>
<defs>
<clipPath id="clip0_3718_16735">
<rect width="129.167" height="62" fill="white"/>
</clipPath>
<clipPath id="clip1_3718_16735">
<rect width="62" height="59.4167" fill="white" transform="translate(67.167)"/>
</clipPath>
<clipPath id="clip2_3718_16735">
<rect width="54.25" height="54.25" fill="white" transform="translate(0 7.75)"/>
</clipPath>
</defs>
</svg>
