<svg width="1440" height="390" viewBox="0 0 1440 390" fill="none" xmlns="http://www.w3.org/2000/svg">
<rect width="1440" height="390" rx="20" fill="url(#paint0_radial_16918_2864)"/>
<g opacity="0.25" clip-path="url(#clip0_16918_2864)">
<g opacity="0.3">
<path opacity="0.3" d="M2573.54 438.243C2534.57 436.619 2497.41 449.635 2459.4 455.423C2421.57 461.172 2382.96 461.343 2344.69 462.585C2267.02 465.138 2188.51 460.182 2110.74 447.818C2066.77 440.838 2022.98 431.654 1979.49 419.724C1894.37 396.392 1811.34 363.148 1730.91 319.339C1653.19 277.003 1576.2 220.75 1490.41 216.752C1285.78 207.222 1226.24 510.927 1039.41 556.074C826.485 607.508 582.675 372.275 477.291 156.656" stroke="#940680" stroke-width="1.07738" stroke-linecap="round" stroke-linejoin="round"/>
<path opacity="0.31707" d="M2567.22 442.455C2528.15 440.767 2490.85 453.723 2452.73 459.451C2414.79 465.138 2376.06 465.246 2337.69 466.428C2259.8 468.856 2181.07 463.774 2103.11 451.287C2059.04 444.236 2015.14 434.981 1971.55 422.982C1886.24 399.515 1803.05 366.141 1722.48 322.205C1644.63 279.746 1567.53 223.372 1481.51 219.237C1276.33 209.378 1216.02 512.972 1028.58 557.818C814.959 608.906 570.935 373.295 465.685 157.517" stroke="#920A81" stroke-width="1.07738" stroke-linecap="round" stroke-linejoin="round"/>
<path opacity="0.33415" d="M2560.91 446.667C2521.73 444.917 2484.3 457.812 2446.06 463.478C2408 469.104 2369.17 469.151 2330.68 470.272C2252.57 472.575 2173.64 467.366 2095.48 454.755C2051.3 447.635 2007.3 438.311 1963.61 426.243C1878.11 402.641 1794.75 369.133 1714.05 325.07C1636.06 282.49 1558.86 225.995 1472.61 221.722C1266.88 211.534 1205.8 515.018 1017.75 559.561C803.433 610.305 559.196 374.315 454.077 158.379" stroke="#8F0E85" stroke-width="1.07738" stroke-linecap="round" stroke-linejoin="round"/>
<path opacity="0.35122" d="M2554.59 450.878C2515.3 449.067 2477.75 461.9 2439.39 467.507C2401.21 473.072 2362.27 473.056 2323.68 474.117C2245.34 476.293 2166.2 470.96 2087.86 458.224C2043.56 451.033 1999.46 441.639 1955.67 429.503C1869.98 405.764 1786.46 372.127 1705.61 327.935C1627.5 285.233 1550.2 228.617 1463.71 224.205C1257.43 213.692 1195.58 517.064 1006.92 561.304C791.909 611.703 547.458 375.334 442.472 159.241" stroke="#8D1287" stroke-width="1.07738" stroke-linecap="round" stroke-linejoin="round"/>
<path opacity="0.36829" d="M2548.27 455.091C2508.88 453.216 2471.2 465.989 2432.72 471.534C2394.42 477.038 2355.38 476.959 2316.67 477.959C2238.12 480.011 2158.77 474.552 2080.23 461.692C2035.82 454.431 1991.62 444.968 1947.73 432.762C1861.85 408.889 1778.17 375.118 1697.18 330.799C1618.93 287.976 1541.53 231.239 1454.81 226.691C1247.98 215.848 1185.36 519.11 996.088 563.048C780.383 613.103 535.719 376.354 430.866 160.102" stroke="#89178A" stroke-width="1.07738" stroke-linecap="round" stroke-linejoin="round"/>
<path opacity="0.38537" d="M2541.95 459.302C2502.46 457.366 2464.64 470.079 2426.05 475.562C2387.64 481.004 2348.48 480.864 2309.67 481.802C2230.89 483.729 2151.33 478.144 2072.6 465.16C2028.09 457.828 1983.78 448.295 1939.8 436.02C1853.72 412.012 1769.87 378.112 1688.75 333.665C1610.37 290.719 1532.86 233.862 1445.91 229.175C1238.52 218.004 1175.14 521.156 985.258 564.791C768.859 614.501 523.98 377.374 419.262 160.963" stroke="#861B8C" stroke-width="1.07738" stroke-linecap="round" stroke-linejoin="round"/>
<path opacity="0.40244" d="M2535.63 463.513C2496.03 461.514 2458.09 474.168 2419.38 479.589C2380.85 484.972 2341.59 484.77 2302.66 485.646C2223.67 487.448 2143.9 481.738 2064.98 468.631C2020.35 461.228 1975.94 451.625 1931.86 439.279C1845.59 415.137 1761.58 381.105 1680.32 336.531C1601.81 293.463 1524.19 236.485 1437.01 231.66C1229.07 220.161 1164.92 523.202 974.43 566.535C757.334 615.901 512.242 378.395 407.656 161.825" stroke="#83208F" stroke-width="1.07738" stroke-linecap="round" stroke-linejoin="round"/>
<path opacity="0.41951" d="M2529.31 467.726C2489.61 465.664 2451.54 478.256 2412.7 483.618C2374.06 488.938 2334.69 488.673 2295.66 489.489C2216.44 491.166 2136.46 485.33 2057.35 472.098C2012.61 464.626 1968.1 454.953 1923.92 442.538C1837.46 418.26 1753.28 384.097 1671.88 339.396C1593.24 296.205 1515.52 239.107 1428.11 234.144C1219.62 222.317 1154.7 525.247 963.599 568.278C745.806 617.299 500.501 379.413 396.048 162.687" stroke="#812491" stroke-width="1.07738" stroke-linecap="round" stroke-linejoin="round"/>
<path opacity="0.43659" d="M2522.99 471.937C2483.18 469.812 2444.98 482.345 2406.03 487.646C2367.27 492.902 2327.8 492.578 2288.65 493.333C2209.21 494.883 2129.03 488.922 2049.72 475.566C2004.88 468.023 1960.26 458.281 1915.98 445.798C1829.33 421.383 1744.99 387.088 1663.45 342.261C1584.68 298.948 1506.85 241.728 1419.21 236.629C1210.17 224.474 1144.49 527.292 952.769 570.021C734.282 618.697 488.762 380.432 384.443 163.548" stroke="#7F2894" stroke-width="1.07738" stroke-linecap="round" stroke-linejoin="round"/>
<path opacity="0.45366" d="M2516.68 476.148C2476.76 473.962 2438.43 486.433 2399.36 491.673C2360.49 496.87 2320.9 496.483 2281.65 497.176C2201.99 498.603 2121.59 492.514 2042.09 479.035C1997.14 471.421 1952.42 461.61 1908.04 449.059C1821.2 424.508 1736.69 390.082 1655.02 345.127C1576.11 301.691 1498.19 244.351 1410.31 239.113C1200.72 226.631 1134.27 529.337 941.941 571.764C722.756 620.097 477.024 381.453 372.837 164.41" stroke="#7C2C96" stroke-width="1.07738" stroke-linecap="round" stroke-linejoin="round"/>
<path opacity="0.47073" d="M2510.36 480.36C2470.34 478.111 2431.88 490.523 2392.69 495.7C2353.7 500.836 2314.01 500.388 2274.65 501.02C2194.76 502.321 2114.16 496.106 2034.46 482.503C1989.41 474.82 1944.58 464.94 1900.11 452.317C1813.07 427.631 1728.4 393.074 1646.59 347.991C1567.55 304.434 1489.52 246.973 1401.41 241.599C1191.26 228.787 1124.05 531.384 931.111 573.508C711.231 621.494 465.286 382.473 361.233 165.271" stroke="#793198" stroke-width="1.07738" stroke-linecap="round" stroke-linejoin="round"/>
<path opacity="0.4878" d="M2504.04 484.571C2463.91 482.261 2425.32 494.611 2386.02 499.728C2346.91 504.804 2307.11 504.292 2267.64 504.863C2187.54 506.039 2106.72 499.698 2026.84 485.972C1981.67 478.218 1936.74 468.267 1892.17 455.576C1804.95 430.755 1720.1 396.066 1638.16 350.857C1558.98 307.177 1480.85 249.595 1392.51 244.083C1181.81 230.943 1113.83 533.429 920.281 575.251C699.707 622.894 453.547 383.493 349.627 166.131" stroke="#74359B" stroke-width="1.07738" stroke-linecap="round" stroke-linejoin="round"/>
<path opacity="0.50488" d="M2497.72 488.782C2457.49 486.409 2418.77 498.699 2379.35 503.755C2340.12 508.768 2300.22 508.195 2260.64 508.707C2180.31 509.756 2099.29 503.291 2019.21 489.44C1973.93 481.616 1928.9 471.595 1884.23 458.836C1796.81 433.878 1711.81 399.057 1629.72 353.722C1550.42 309.92 1472.18 252.217 1383.61 246.567C1172.36 233.099 1103.61 535.474 909.45 576.995C688.18 624.292 441.806 384.512 338.02 166.993" stroke="#71399D" stroke-width="1.07738" stroke-linecap="round" stroke-linejoin="round"/>
<path opacity="0.52195" d="M2491.4 492.995C2451.06 490.559 2412.22 502.789 2372.68 507.783C2333.34 512.736 2293.32 512.1 2253.63 512.55C2173.08 513.476 2091.85 506.885 2011.58 492.909C1966.2 485.013 1921.06 474.925 1876.29 462.095C1788.69 437.003 1703.51 402.051 1621.29 356.587C1541.85 312.664 1463.51 254.84 1374.71 249.053C1162.91 235.257 1093.39 537.52 898.622 578.738C676.654 625.692 430.069 385.531 326.414 167.855" stroke="#6E3DA0" stroke-width="1.07738" stroke-linecap="round" stroke-linejoin="round"/>
<path opacity="0.53902" d="M2485.09 497.206C2444.64 494.709 2405.67 506.878 2366.01 511.811C2326.55 516.702 2286.43 516.005 2246.63 516.394C2165.86 517.193 2084.42 510.476 2003.95 496.377C1958.46 488.413 1913.22 478.252 1868.36 465.356C1780.56 440.128 1695.22 405.044 1612.86 359.453C1533.29 315.407 1454.84 257.463 1365.81 251.537C1153.46 237.413 1083.17 539.567 887.794 580.481C665.131 627.091 418.33 386.551 314.808 168.718" stroke="#6B41A2" stroke-width="1.07738" stroke-linecap="round" stroke-linejoin="round"/>
<path opacity="0.5561" d="M2478.77 501.417C2438.22 498.857 2399.11 510.966 2359.34 515.839C2319.76 520.668 2279.53 519.91 2239.62 520.239C2158.63 520.911 2076.98 514.069 1996.33 499.846C1950.72 491.81 1905.38 481.582 1860.42 468.614C1772.43 443.251 1686.93 408.036 1604.43 362.317C1524.73 318.15 1446.17 260.085 1356.91 254.022C1144.01 239.569 1072.95 541.612 876.964 582.224C653.605 628.488 406.591 387.571 303.204 169.578" stroke="#6745A5" stroke-width="1.07738" stroke-linecap="round" stroke-linejoin="round"/>
<path opacity="0.57317" d="M2472.45 505.63C2431.79 503.005 2392.56 515.054 2352.67 519.866C2312.97 524.635 2272.63 523.814 2232.62 524.081C2151.4 524.629 2069.54 517.661 1988.7 503.314C1942.98 495.208 1897.54 484.908 1852.48 471.873C1764.3 446.374 1678.63 411.028 1595.99 365.183C1516.16 320.892 1437.51 262.707 1348.01 256.506C1134.55 241.725 1062.73 543.656 866.132 583.968C642.078 629.888 394.851 388.59 291.596 170.439" stroke="#634AA7" stroke-width="1.07738" stroke-linecap="round" stroke-linejoin="round"/>
<path opacity="0.59024" d="M2466.13 509.841C2425.37 507.156 2386.01 519.143 2346 523.895C2306.19 528.601 2265.74 527.719 2225.61 527.924C2144.18 528.347 2062.11 521.253 1981.07 506.784C1935.25 498.607 1889.7 488.239 1844.54 475.133C1756.17 449.499 1670.34 414.021 1587.56 368.047C1507.6 323.636 1428.84 265.329 1339.11 258.991C1125.1 243.881 1052.51 545.702 855.303 585.711C630.553 631.287 383.113 389.61 279.991 171.301" stroke="#5F4EA9" stroke-width="1.07738" stroke-linecap="round" stroke-linejoin="round"/>
<path opacity="0.60732" d="M2459.81 514.054C2418.95 511.306 2379.46 523.231 2339.33 527.923C2299.4 532.567 2258.85 531.624 2218.61 531.768C2136.95 532.066 2054.67 524.846 1973.44 510.253C1927.51 502.005 1881.86 491.566 1836.6 478.392C1748.04 452.623 1662.04 417.015 1579.13 370.913C1499.03 326.38 1420.17 267.952 1330.21 261.476C1115.65 246.039 1042.29 547.75 844.474 587.455C619.029 632.685 371.375 390.631 268.385 172.163" stroke="#5A51AC" stroke-width="1.07738" stroke-linecap="round" stroke-linejoin="round"/>
<path opacity="0.62439" d="M2453.49 518.265C2412.52 515.455 2372.9 527.322 2332.65 531.95C2292.61 536.534 2251.95 535.528 2211.6 535.613C2129.72 535.785 2047.24 528.439 1965.82 513.722C1919.78 505.403 1874.02 494.895 1828.67 481.653C1739.91 455.748 1653.75 420.006 1570.69 373.779C1490.47 329.123 1411.5 270.575 1321.31 263.96C1106.2 248.196 1032.08 549.795 833.644 589.198C607.502 634.084 359.636 391.651 256.779 173.024" stroke="#5555AE" stroke-width="1.07738" stroke-linecap="round" stroke-linejoin="round"/>
<path opacity="0.64146" d="M2447.17 522.475C2406.1 519.603 2366.35 531.408 2325.98 535.977C2285.83 540.499 2245.05 539.431 2204.6 539.455C2122.5 539.502 2039.8 532.031 1958.19 517.188C1912.04 508.8 1866.18 498.224 1820.73 484.911C1731.78 458.87 1645.45 422.998 1562.26 376.643C1481.9 331.864 1402.83 273.196 1312.41 266.444C1096.74 250.351 1021.86 551.838 822.814 590.941C595.976 635.481 347.896 392.67 245.173 173.885" stroke="#515AB1" stroke-width="1.07738" stroke-linecap="round" stroke-linejoin="round"/>
<path opacity="0.65854" d="M2440.85 526.688C2399.67 523.752 2359.8 535.498 2319.31 540.004C2279.04 544.467 2238.16 543.336 2197.59 543.298C2115.27 543.22 2032.37 535.623 1950.56 520.658C1904.3 512.199 1858.34 501.551 1812.79 488.169C1723.65 461.994 1637.16 425.99 1553.83 379.509C1473.34 334.607 1394.16 275.818 1303.51 268.929C1087.29 252.507 1011.64 553.884 811.985 592.684C584.451 636.883 336.158 393.689 233.567 174.747" stroke="#4B5EB3" stroke-width="1.07738" stroke-linecap="round" stroke-linejoin="round"/>
<path opacity="0.67561" d="M2434.54 530.899C2393.25 527.901 2353.24 539.586 2312.64 544.032C2272.25 548.433 2231.26 547.241 2190.59 547.142C2108.05 546.939 2024.93 539.215 1942.93 524.125C1896.57 515.597 1850.5 504.881 1804.85 491.428C1715.52 465.117 1628.86 428.984 1545.4 382.373C1464.77 337.351 1385.49 278.44 1294.61 271.414C1077.84 254.664 1001.42 555.93 801.157 594.427C572.927 638.281 324.42 394.708 221.962 175.608" stroke="#4662B6" stroke-width="1.07738" stroke-linecap="round" stroke-linejoin="round"/>
<path opacity="0.69268" d="M2428.22 535.112C2386.83 532.051 2346.69 543.676 2305.97 548.059C2265.46 552.399 2224.37 551.144 2183.59 550.985C2100.82 550.657 2017.5 542.809 1935.3 527.595C1888.83 518.995 1842.66 508.209 1796.91 494.689C1707.39 468.242 1620.57 431.977 1536.96 385.239C1456.21 340.095 1376.83 281.063 1285.71 273.899C1068.39 256.82 991.199 557.977 790.327 596.171C561.4 639.679 312.68 395.729 210.356 176.469" stroke="#3F66B8" stroke-width="1.07738" stroke-linecap="round" stroke-linejoin="round"/>
<path opacity="0.70976" d="M2421.9 539.323C2380.4 536.199 2340.14 547.764 2299.3 552.088C2258.68 556.367 2217.47 555.049 2176.58 554.829C2093.59 554.375 2010.06 546.401 1927.68 531.062C1881.09 522.393 1834.82 511.537 1788.98 497.949C1699.27 471.365 1612.27 434.969 1528.53 388.105C1447.64 342.838 1368.16 283.685 1276.81 276.383C1058.94 258.978 980.98 560.023 779.497 597.914C549.875 641.077 300.94 396.749 198.75 177.332" stroke="#3769BB" stroke-width="1.07738" stroke-linecap="round" stroke-linejoin="round"/>
<path opacity="0.72683" d="M2415.58 543.533C2373.98 540.349 2333.58 551.853 2292.63 556.115C2251.89 560.331 2210.58 558.954 2169.58 558.671C2086.37 558.094 2002.63 549.992 1920.05 534.532C1873.36 525.791 1826.98 514.866 1781.04 501.207C1691.14 474.49 1603.98 437.961 1520.1 390.968C1439.08 345.579 1359.49 286.307 1267.91 278.867C1049.49 261.133 970.76 562.067 768.667 599.657C538.35 642.476 289.202 397.767 187.144 178.192" stroke="#2F6DBD" stroke-width="1.07738" stroke-linecap="round" stroke-linejoin="round"/>
<path opacity="0.7439" d="M2409.26 547.746C2367.55 544.499 2327.03 555.941 2285.96 560.143C2245.1 564.299 2203.68 562.858 2162.57 562.515C2079.14 561.812 1995.19 553.585 1912.42 538C1865.62 529.19 1819.14 518.195 1773.1 504.466C1683.01 477.613 1595.69 440.954 1511.67 393.835C1430.51 348.324 1350.82 288.93 1259.01 281.353C1040.03 263.29 960.541 564.113 757.837 601.401C526.824 643.875 277.463 398.788 175.538 179.054" stroke="#2472BF" stroke-width="1.07738" stroke-linecap="round" stroke-linejoin="round"/>
<path opacity="0.76098" d="M2402.95 551.957C2361.13 548.648 2320.48 560.03 2279.29 564.172C2238.31 568.265 2196.79 566.763 2155.57 566.359C2071.91 565.53 1987.75 557.177 1904.79 541.469C1857.88 532.587 1811.3 521.523 1765.16 507.725C1674.88 480.738 1587.39 443.946 1503.23 396.701C1421.95 351.066 1342.15 291.552 1250.11 283.837C1030.58 265.446 950.321 566.159 747.008 603.144C515.299 645.274 265.724 399.807 163.932 179.916" stroke="#1476C2" stroke-width="1.07738" stroke-linecap="round" stroke-linejoin="round"/>
<path opacity="0.77805" d="M2396.63 556.169C2354.71 552.796 2313.93 564.12 2272.62 568.198C2231.53 572.231 2189.89 570.668 2148.56 570.203C2064.69 569.247 1980.32 560.771 1897.17 544.938C1850.15 535.987 1803.46 524.851 1757.23 510.986C1666.75 483.862 1579.1 446.939 1494.8 399.565C1413.38 353.81 1333.48 294.175 1241.21 286.321C1021.13 267.602 940.103 568.206 736.179 604.888C503.775 646.672 253.985 400.827 152.328 180.777" stroke="#007AC4" stroke-width="1.07738" stroke-linecap="round" stroke-linejoin="round"/>
<path opacity="0.79512" d="M2390.31 560.381C2348.28 556.946 2307.37 568.207 2265.95 572.227C2224.74 576.197 2183 574.571 2141.56 574.046C2057.46 572.965 1972.89 564.363 1889.54 548.406C1842.41 539.384 1795.62 528.18 1749.29 514.244C1658.62 486.986 1570.8 449.931 1486.37 402.429C1404.82 356.553 1324.81 296.797 1232.31 288.806C1011.68 269.76 929.883 570.25 725.349 606.631C492.249 648.072 242.247 401.847 140.722 181.638" stroke="#007DC7" stroke-width="1.07738" stroke-linecap="round" stroke-linejoin="round"/>
<path opacity="0.8122" d="M2383.99 564.592C2341.86 561.094 2300.82 572.297 2259.28 576.254C2217.95 580.164 2176.1 578.476 2134.55 577.89C2050.24 576.683 1965.45 567.955 1881.91 551.874C1834.67 542.782 1787.78 531.508 1741.35 517.504C1650.49 490.11 1562.51 452.923 1477.94 405.296C1396.26 359.296 1316.15 299.419 1223.41 291.291C1002.23 271.916 919.665 572.296 714.52 608.374C480.722 649.47 230.507 402.866 129.115 182.5" stroke="#0080C9" stroke-width="1.07738" stroke-linecap="round" stroke-linejoin="round"/>
<path opacity="0.82927" d="M2377.67 568.803C2335.44 565.244 2294.27 576.385 2252.61 580.281C2211.16 584.131 2169.2 582.381 2127.55 581.733C2043.01 580.403 1958.01 571.547 1874.28 555.342C1826.94 546.179 1779.94 534.837 1733.41 520.763C1642.36 493.233 1554.21 455.915 1469.5 408.161C1387.69 362.039 1307.48 302.041 1214.51 293.776C992.774 274.072 909.445 574.342 703.69 610.117C469.198 650.87 218.769 403.887 117.51 183.362" stroke="#0084CC" stroke-width="1.07738" stroke-linecap="round" stroke-linejoin="round"/>
<path opacity="0.84634" d="M2371.35 573.016C2329.01 569.393 2287.71 580.474 2245.94 584.309C2204.38 588.096 2162.31 586.285 2120.55 585.577C2035.78 584.122 1950.58 575.139 1866.66 558.811C1819.2 549.577 1772.1 538.165 1725.47 524.022C1634.23 496.356 1545.92 458.908 1461.07 411.027C1379.13 364.782 1298.81 304.663 1205.61 296.26C983.321 276.228 899.227 576.386 692.86 611.861C457.672 652.268 207.03 404.906 105.903 184.222" stroke="#0088CE" stroke-width="1.07738" stroke-linecap="round" stroke-linejoin="round"/>
<path opacity="0.86341" d="M2365.03 577.227C2322.59 573.542 2281.16 584.563 2239.27 588.338C2197.59 592.063 2155.41 590.19 2113.54 589.42C2028.56 587.839 1943.14 578.733 1859.03 562.28C1811.46 552.977 1764.26 541.493 1717.53 527.283C1626.1 499.481 1537.62 461.902 1452.64 413.891C1370.56 367.526 1290.14 307.286 1196.71 298.745C973.869 278.385 889.007 578.433 682.032 613.605C446.146 653.666 195.291 405.926 94.2979 185.085" stroke="#008CCF" stroke-width="1.07738" stroke-linecap="round" stroke-linejoin="round"/>
<path opacity="0.88049" d="M2358.72 581.437C2316.17 577.691 2274.61 588.651 2232.59 592.363C2190.8 596.029 2148.52 594.093 2106.54 593.263C2021.33 591.556 1935.71 582.324 1851.4 565.748C1803.73 556.374 1756.42 544.822 1709.6 530.54C1617.98 502.604 1529.33 464.894 1444.21 416.756C1362 370.268 1281.47 309.908 1187.81 301.229C964.419 280.542 878.79 580.478 671.203 615.347C434.623 655.065 183.553 406.945 82.6929 185.945" stroke="#008FD2" stroke-width="1.07738" stroke-linecap="round" stroke-linejoin="round"/>
<path opacity="0.89756" d="M2352.4 585.65C2309.74 581.841 2268.05 592.741 2225.92 596.392C2184.02 599.996 2141.62 597.998 2099.53 597.106C2014.11 595.275 1928.27 585.917 1843.77 569.216C1795.99 559.773 1748.58 548.15 1701.66 533.801C1609.85 505.729 1521.03 467.887 1435.77 419.621C1353.43 373.011 1272.8 312.53 1178.91 303.714C954.966 282.698 868.569 582.524 660.372 617.091C423.095 656.463 171.813 407.965 71.0864 186.807" stroke="#0093D4" stroke-width="1.07738" stroke-linecap="round" stroke-linejoin="round"/>
<path opacity="0.91463" d="M2346.08 589.862C2303.32 585.99 2261.5 596.828 2219.25 600.42C2177.23 603.962 2134.73 601.903 2092.53 600.949C2006.88 598.993 1920.84 589.509 1836.15 572.685C1788.26 563.171 1740.74 551.48 1693.72 537.06C1601.72 508.853 1512.74 470.879 1427.34 422.487C1344.87 375.755 1264.13 315.153 1170.01 306.199C945.515 284.854 858.35 584.569 649.543 618.834C411.571 657.863 160.074 408.984 59.4805 187.668" stroke="#0097D7" stroke-width="1.07738" stroke-linecap="round" stroke-linejoin="round"/>
<path opacity="0.93171" d="M2339.76 594.075C2296.89 590.139 2254.95 600.917 2212.58 604.447C2170.44 607.928 2127.83 605.807 2085.52 604.794C1999.65 602.712 1913.4 593.102 1828.52 576.154C1780.52 566.569 1732.9 554.808 1685.78 540.32C1593.59 511.978 1504.44 473.872 1418.91 425.353C1336.3 378.498 1255.47 317.776 1161.11 308.683C936.063 287.011 848.13 586.615 638.713 620.578C400.046 659.261 148.335 410.005 47.875 188.53" stroke="#009BD9" stroke-width="1.07738" stroke-linecap="round" stroke-linejoin="round"/>
<path opacity="0.94878" d="M2333.44 598.285C2290.47 594.288 2248.4 605.007 2205.91 608.475C2163.65 611.896 2120.94 609.712 2078.52 608.636C1992.43 606.43 1905.97 596.695 1820.89 579.622C1772.78 569.967 1725.06 558.137 1677.85 543.579C1585.46 515.101 1496.15 476.864 1410.48 428.217C1327.74 381.241 1246.8 320.398 1152.21 311.168C926.611 289.167 837.913 588.661 627.884 622.321C388.521 660.661 136.597 411.024 36.269 189.391" stroke="#009FDC" stroke-width="1.07738" stroke-linecap="round" stroke-linejoin="round"/>
<path opacity="0.96585" d="M2327.12 602.497C2284.05 598.437 2241.85 609.096 2199.24 612.504C2156.87 615.862 2114.04 613.618 2071.51 612.481C1985.2 610.149 1898.53 600.288 1813.26 583.091C1765.05 573.366 1717.22 561.465 1669.91 546.838C1577.33 518.224 1487.86 479.857 1402.04 431.083C1319.18 383.983 1238.13 323.02 1143.31 313.652C917.159 291.325 827.693 590.708 617.056 624.065C376.996 662.059 124.859 412.044 24.6641 190.254" stroke="#00A2DE" stroke-width="1.07738" stroke-linecap="round" stroke-linejoin="round"/>
<path opacity="0.98293" d="M2320.8 606.708C2277.62 602.588 2235.29 613.184 2192.57 616.531C2150.08 619.828 2107.15 617.52 2064.51 616.323C1977.98 613.867 1891.1 603.88 1805.63 586.559C1757.31 576.764 1709.38 564.794 1661.97 550.097C1569.2 521.349 1479.56 482.849 1393.61 433.949C1310.61 386.727 1229.46 325.643 1134.41 316.138C907.705 293.481 817.472 592.752 606.225 625.808C365.468 663.459 113.118 413.064 13.0566 191.115" stroke="#00A7E1" stroke-width="1.07738" stroke-linecap="round" stroke-linejoin="round"/>
<path d="M2314.49 610.92C2271.2 606.736 2228.74 617.272 2185.9 620.558C2143.29 623.794 2100.25 621.425 2057.5 620.167C1970.75 617.585 1883.66 607.471 1798.01 590.027C1749.57 580.161 1701.54 568.122 1654.03 553.357C1561.07 524.472 1471.27 485.841 1385.18 436.813C1302.05 389.47 1220.79 328.264 1125.51 318.622C898.254 295.637 807.254 594.798 595.395 627.551C353.944 664.856 101.38 414.083 1.45166 191.976" stroke="#00ABE3" stroke-width="1.07738" stroke-linecap="round" stroke-linejoin="round"/>
</g>
</g>
<defs>
<radialGradient id="paint0_radial_16918_2864" cx="0" cy="0" r="1" gradientUnits="userSpaceOnUse" gradientTransform="translate(18.0942 12.6486) rotate(14.5449) scale(1468.99 2825.39)">
<stop stop-color="#DDD6D0"/>
<stop offset="1" stop-color="#CFD8DB"/>
</radialGradient>
<clipPath id="clip0_16918_2864">
<rect width="850.277" height="437.949" fill="white" transform="translate(736 85.2532) rotate(-8.26666)"/>
</clipPath>
</defs>
</svg>
