<svg width="421" height="184" viewBox="0 0 421 184" fill="none" xmlns="http://www.w3.org/2000/svg">
<g opacity="0.07">
<mask id="mask0_3718_7833" style="mask-type:alpha" maskUnits="userSpaceOnUse" x="0" y="0" width="421" height="184">
<path d="M406 0H15C6.71573 0 0 6.43591 0 14.375V169.625C0 177.564 6.71573 184 15 184H406C414.284 184 421 177.564 421 169.625V14.375C421 6.43591 414.284 0 406 0Z" fill="#DFEFD7"/>
</mask>
<g mask="url(#mask0_3718_7833)">
<path d="M431 262.897V106.378C431 31.455 344.604 -14.2175 277.647 24.7837L31.9571 167.96C-9.62108 192.592 -35 235.185 -35 281.885V438.916C-35 513.839 51.3963 559.512 118.353 520.51L364.043 377.335C406.161 352.189 431 309.596 431 262.897Z" fill="url(#paint0_linear_3718_7833)"/>
</g>
</g>
<defs>
<linearGradient id="paint0_linear_3718_7833" x1="414.089" y1="330.517" x2="-27.6001" y2="117.547" gradientUnits="userSpaceOnUse">
<stop stop-color="#2A7961"/>
<stop offset="1" stop-color="#DFEFD7"/>
</linearGradient>
</defs>
</svg>
