<?xml version="1.0" encoding="UTF-8"?>
<svg version="1.1" viewBox="0 0 2048 1137" width="540" height="300" xmlns="http://www.w3.org/2000/svg">
<path transform="translate(351,227)" d="m0 0h14l20 3 14 5 14 8 11 9 8 8 10 14 6 13 4 13 1 4v28l-3 19-8 26-41 123 1 5 2 4 5 1 19-8 23-10 34-14 21-9 24-11 10-4 12-38 21-67 16-49 7-12 8-8 9-5 9-3 11-1 12 2 10 4 9 7 6 8 5 12 1 4v13l-5 19-18 55-10 34-8 25-12 39-17 53-2 10 10-5 29-12 23-11 3-24 4-16 8-20 8-16 10-15 10-13 11-11 14-11 9-8 14-7 21-9 9-4 27-5 11-1h16l18 2 23 6 25 10 15 8 17 12 21 9 24 6 15 1 21-1 22-5 25-12 19-11 5-4 6-7 8-7 6-5 10-4 6-1h11l11 3 9 6 6 5 7 10 4 11v15l-9 31-9 28-7 27-14 44-14 43-5 15v5l4 3h6l19-8 31-13 24-10 4-2 4-10 10-35 18-55 21-70 5-14 8-11 7-7 12-6 4-1h19l14 5 11 9 6 9 3 11v9l-5 21-8 27-15 53-13 41-10 31-5 15 9-1 11 2 12 6 9 10 5 11 1 4v16l-4 11-6 9-7 6-18 10-17 8-15 5-7 1h-13l-14-2-13-5-10-7-9-8-5-7v-2l-10 4-24 11-15 6-13 4-6 2h-30l-14-4-16-7-10-6-11-9-8-9-8-14-6-17-3-17 1-21 3-11 4-7 7-21 10-37 2-8-21 3-10 1h-25l2 9v33l-5 23-7 21-10 21-10 14-11 12-16 16-15 11-17 10-19 9-22 6-22 3h-27l-24-4-20-6-34-17-14-10-15-14-9-9-10-13-7-12v-2l-13 6-25 10-30 13-24 9-23 10-4 6-6 18-11 35-12 36-15 47-6 21-7 14-11 16-11 12-11 9-18 11-14 6-17 4h-38l-17-3-12-4-19-9-11-8-12-11-9-10-10-15-9-19-5-20-1-6v-27l2-15 8-22 9-17 13-16 10-10 13-9 10-6 46-16 34-14 26-12 26-11 9-4 7-21 7-25 1-2-6 2-26 11-28 12-15 5-4 1-23 1-19-2-15-5-13-7-12-9-10-9-11-14-7-15-4-16-1-8v-14l3-17 14-46 12-38 21-63 5-14 1-9-20 7-36 15-30 13-21 9-20 8-14 6-4 1h-16l-11-4-10-8-7-10-3-7-1-12 2-11 5-10 9-10 16-8 39-17 19-8 22-9 29-13 15-7 16-5zm468 227-13 4-14 6-10 9-8 8-8 10-9 19-2 10-1 22 2 13-1 5 5 10 8 12 12 14 10 7 12 7 15 5 5 1 23-1 21-6 9-6 17-17 7-10 6-13 3-14 1-23-3-7-2-16-8-16-8-10-8-8-14-9-13-5-5-1zm-363 255-25 9-33 13-16 7-12 11-4 9-2 12 2 10 5 10 7 8 10 6 4 1h22l12-6 7-8 8-19 14-49 3-11v-3z" fill="#FDC70C"/>
<path transform="translate(1127,365)" d="m0 0h11l11 3 9 6 6 5 7 10 4 11v15l-9 31-9 28-7 27-14 44-14 43-5 15v5l4 3h6l19-8 31-13 24-10 4-2 4-10 10-35 18-55 21-70 5-14 8-11 7-7 12-6 4-1h19l14 5 11 9 6 9 3 11v9l-5 21-8 27-15 53-13 41-10 31-5 15 9-1 11 2 12 6 9 10 5 11 1 4v16l-4 11-6 9-7 6-18 10-17 8-15 5-7 1h-13l-14-2-13-5-10-7-9-8-5-7v-2l-10 4-24 11-15 6-13 4-6 2h-30l-14-4-16-7-10-6-11-9-8-9-8-14-6-17-3-17 1-21 3-11 4-7 7-21 10-37 2-8-21 3-10 1h-25l2 9v33l-4 18-2 1h-13l-75-7 1-9 1-6 1-23-3-7-2-16-8-16-8-10-7-7-14-9-13-5-5-1h-29l-13 4-14 6-10 9-7 7-8 10-9 19-2 10-1 12-24-7-50-15-12-4 3-15 8-21 8-16 10-16 8-10 7-8 7-7 14-11 9-8 14-7 21-9 9-4 27-5 11-1h16l18 2 23 6 25 10 15 8 17 12 21 9 24 6 15 1 21-1 22-5 25-12 19-11 5-4 6-7 8-7 6-5 10-4z" fill="#045EC4"/>
<path transform="translate(1294,369)" d="m0 0h19l14 5 11 9 6 9 3 11v9l-5 21-8 27-15 53-13 41-10 31-5 15 9-1 11 2 12 6 9 10 5 11 1 4v16l-4 11-6 9-7 6-18 10-17 8-15 5-7 1h-13l-14-2-13-5-10-7-9-8-5-7v-2l-10 4-24 11-15 6-13 4-6 2h-30l-14-4-16-7-10-6-11-9-8-9-8-14-6-17-3-17 1-21 3-11 5-8 57-3 37-3-3 11-9 27v5l4 3h6l19-8 31-13 24-10 4-2 4-10 10-35 18-55 21-70 5-14 8-11 7-7 12-6z" fill="#EC9708"/>
<path transform="translate(351,227)" d="m0 0h14l20 3 14 5 14 8 11 9 8 8 10 14 6 13 4 13 1 4v28l-3 19-8 26-24 72h-38l-42 3-16 2 4-16 15-47 20-60 5-14 1-9-20 7-36 15-30 13-21 9-20 8-14 6-4 1h-16l-11-4-10-8-7-10-3-7-1-12 2-11 5-10 9-10 16-8 39-17 19-8 22-9 29-13 15-7 16-5z" fill="#045EC4"/>
<path transform="translate(343,672)" d="m0 0 7 1 5-1h6l7 2 2 10 7 10 5 5 10 6 13 3 5 4h-2v2h2v2l-21 14-4 3h-2l-2 4-6 8-6 7-4 16 2 12 5 10 6 7 10 6 4 1v2h26l1-2h5l4 1 2-2 15-1 5 3-2 2-4 2 4 2v1l-9 1 3 3 5 2-4 2-7-1 5 5v2l3 1-5 3 6 3 2 5h2l5 5 4 3-1-5 7 4-2-8-7 4-2-5 6-3 4-1 1 5 4 3 1-5h2l-1-2-3 1-2-9-1-5 1-3 3 3 1 2 1-3 3 1 4 5-2 4h2l1-3 2 1 1 9 6 2 1 8-6 12-9 10-13 13-6 5-17 6-10 2h-38l-17-3-12-4-19-9-11-8-12-11-9-10-10-15-9-19-5-20-1-6v-27l2-15 8-22 9-17 13-16 10-10 10-7z" fill="#EC9708"/>
<path transform="translate(630,271)" d="m0 0 15 2 10 4 9 7 6 8 5 12 1 4v13l-5 19-18 55-10 34-8 25-11 36-2 1-19-5-30-9-34-9-16-4v-3l17-7 12-38 21-67 16-49 7-12 8-8 9-5 9-3z" fill="#045EC4"/>
<path transform="translate(427,643)" d="m0 0 8 1 3 2h6l4 5 2 11 3 6 5 6 3 6 5 3 3 5 1 8 9 3 7 6 5 2v2l5-1 3 2h7l5 2v6l-4 1-1 1 7 6 3 3h2v-5l4-4 2 2 4-10 3 3-1 6-2 8 1 5-2 14-2 9 2 1-1 5v7l1 5-3 4 1 7-2 5-2 14-6 20-11 19-11 14-9 9-14 10-12 7-2-1 5-5 12-11 9-10 5-11-1-8-5-2-2-9-4 2 1-5-5-4-2 3-4-5v6l2 7v3l4-2v3h-2v6l-6-4-2-4-5 3h-3l3 4 4-3h2l3 8h-3l-4-3v4l-4-2-5-4v-2h-2l-3-5-6-3 2-2 3-1-9-9 11 1-5-4-2-3 9-1-6-2 8-4-4-2-15 1-1 2-8-1-2-1-2 4v-2l-6 1-19-1v-1l22-1 12-6 6-7 8-19 18-63-32 12-38 15-8 5h-2l2-4 5-5 10-7 13-9h2v-2h-2v-3l-3-2-15-4-11-7-6-8-4-6-1-6-1-3-8-2h-7l-7 1v-2l-5 3-3-1 12-7 46-16 10-4h6l6-3z" fill="#FAB80B"/>
<path transform="translate(1127,565)" d="m0 0h2l-3 11-9 27v5l4 3h6l19-8 28-12 3 1v3l-3 3-3 1-4 5 1 5 9 4 8 7 3 6-3-1-1-4v3l2 4-1 4-2-1-3-6-3-1 2 7h-2v4h2l1-3 3 9h-3l-3 5-2-1-2 7h-4v8h6l6 2h11l7 4-3 2-30 14-15 6-13 4-6 2h-30l-14-4-16-7-10-6-11-9-8-9-8-14-6-17-3-17 1-21 3-11 5-8 57-3z" fill="#FAB80B"/>
<path transform="translate(1294,369)" d="m0 0h19l14 5 11 9 6 9 3 11v9l-5 21-8 27-15 53-5 16-26 7-37 9-37 8 2-10 14-44 10-31 14-47 9-27 8-11 7-7 12-6z" fill="#0B3FB5"/>
<path transform="translate(1874,287)" d="m0 0h28l1 1v149l-4 1h-28l-1-2v-88l-2 1-4 7-25 37-5 4h-12l-5-5-12-16-12-17-8-10v-2h-2v90l-2 1h-31l-1-1-1-17 1-131h31l7 9 13 18 12 16 13 18 3 5 3 1 2-6 9-16 9-13 18-27z" fill="#045FC5"/>
<path transform="translate(1127,365)" d="m0 0h11l11 3 9 6 6 5 7 10 4 11v15l-9 31-9 28-7 27-14 44-6 19-3 2-8 1h-17l1-2-6-2-1-4 8-3 2-3v-2l-5-2-3-4 1-3-2-4 1-8-1-3 1-1v-9l-2-10v-12l-3-10-1-15-1-2v-9l1-12-1-11 3-6-1-4-1-6-7-2-2-1-10-1-4-1-5-1-2-3 2-2 1-4 14-8 10-6 8-9 8-7 6-5 10-4z" fill="#0B3FB5"/>
<path transform="translate(1646,287)" d="m0 0h27l3 5 15 36 17 41 12 29 14 34v3l-3 1h-31l-3-5-7-18-5-12-48-1-3 11-9 23-1 1-14 1h-14l-8-1 11-29 12-30 19-49 15-38zm12 47-7 25-5 15h27l-2-9-10-30z" fill="#045EC4"/>
<path transform="translate(1489,289)" d="m0 0h88l-1 7-6 21-20 1h-26l-1 31h46v28l-1 1h-45v31h54l1 1v26l-2 2h-86l-2-4v-144z" fill="#045EC4"/>
<path transform="translate(1352,289)" d="m0 0h123l-3 11-5 17-4 1h-33l-1 119-4 1h-29l-1-1-1-81v-22l1-16h-39l-4-1z" fill="#0B3FB5"/>
<path transform="translate(1034,572)" d="m0 0h13l-2 1 1 4 3 1 6 10 14 7 5 6 5 3 1-2 6 5-2 2 4 3 4 1 5 4-1 2h-3l2 7 4-1 2 8-1 3 7 13 3 10 6 16v3l4 1-6 1 1 3h6l1 3 6 1 14-3h11l1 3-16 5-6 2h-30l-14-4-16-7-10-6-11-9-8-9-8-14-6-17-3-17 1-21 3-11z" fill="#FDC70C"/>
<path transform="translate(232,276)" d="m0 0h6l3 4 4-2v5l-3 2-4 8-1 10 2 3 2 7 4 5v2l8 1 7 2v2l5 1 13 4 2 3 5 2-2 1-2 5h-2v3l-53 22-4 1h-16l-11-4-10-8-7-10-3-7-1-12 2-11 5-10 9-10 16-8 23-10z" fill="#0B3FB5"/>
<path transform="translate(321,466)" d="m0 0 5 5 1 2v10h2l3-3 3 1 2 8 2 7 4 2 3 3 4 7 7 8 4 4 6 17 2 4 1 5 2 4 6 2v2l8 7 2 4 4 1 4 5-7 1h-1l18 4 4 2v2l13-1 5-1v2l-4 1-1 2h-5l3 4v2l6 1 1 2-2 1-23 1-19-2-15-5-13-7-12-9-10-9-11-14-7-15-4-16-1-8v-14l3-17 4-7 4-1z" fill="#FAB80B"/>
<path transform="translate(1501,396)" d="m0 0h8l4 6v2h-2v2l5 1 2 7 6-3 1-1h5l1 3 9 1 17-2 3-1 9 4 2 4v8l-1 6 1 2-2 1h-6l-1-2-5-1v2l2 1-40 1h-27v-4h2v-10h2l1-9v-7l1-2 2-7z" fill="#0B3FB5"/>
<path transform="translate(1352,289)" d="m0 0h123l-3 11-5 17-4 1-20-1 1-2 14-1 5-1 2-3h2v-6l2-5-4-2-5-2-6-1-3-2h-8l-22 2h-11l-10-1v-2h-46l-1 20h2v4l22 1-1 2h-20l-4-1z" fill="#045FC5"/>
<path transform="translate(1428,315)" d="m0 0 11 1v1l-9 1-1 119h-1l-1-90-2-4 2-1v-11-3l1-10-2-1h2z" fill="#045FC5"/>
<path transform="translate(1395,320)" d="m0 0 2 4 1 12-1 12v25l-1 41h-1l-1-58v-22z" fill="#045FC5"/>
<path transform="translate(363,449)" d="m0 0h15l9 1 3 4h-15l-1-4-9 1h-16v-1z" fill="#FAB80C"/>
<path transform="translate(329,452)" d="m0 0h8l-2 3-1 3-6-1-4-4z" fill="#FAB80C"/>
<path transform="translate(323,457)" d="m0 0 3 1-3 6-4 1 1-6z" fill="#FABA0C"/>
</svg>
