<svg width="32" height="20" viewBox="0 0 32 20" fill="none" xmlns="http://www.w3.org/2000/svg">
<g clip-path="url(#clip0_14368_971)">
<path d="M9.19113 7.70097C9.19113 8.08291 9.23242 8.39259 9.30468 8.61968C9.38726 8.84678 9.49049 9.09452 9.635 9.36291C9.68661 9.44549 9.70726 9.52807 9.70726 9.60033C9.70726 9.70355 9.64532 9.80678 9.51113 9.91001L8.86081 10.3436C8.76791 10.4055 8.675 10.4365 8.59242 10.4365C8.4892 10.4365 8.38597 10.3848 8.28274 10.2919C8.13823 10.1371 8.01436 9.97194 7.91113 9.80678C7.80791 9.6313 7.70468 9.43517 7.59113 9.19775C6.78597 10.1474 5.77436 10.6223 4.55629 10.6223C3.6892 10.6223 2.99758 10.3745 2.49178 9.87904C1.98597 9.38355 1.72791 8.72291 1.72791 7.8971C1.72791 7.01968 2.03758 6.30742 2.66726 5.77065C3.29694 5.23388 4.13307 4.96549 5.19629 4.96549C5.54726 4.96549 5.90855 4.99646 6.29049 5.04807C6.67242 5.09968 7.06468 5.18226 7.47758 5.27517V4.52162C7.47758 3.7371 7.31242 3.19 6.99242 2.87C6.6621 2.55 6.10468 2.39517 5.30984 2.39517C4.94855 2.39517 4.57694 2.43646 4.195 2.52936C3.81307 2.62226 3.44145 2.73581 3.08016 2.88033C2.915 2.95259 2.79113 2.99388 2.71887 3.01452C2.64661 3.03517 2.595 3.04549 2.55371 3.04549C2.4092 3.04549 2.33694 2.94226 2.33694 2.72549V2.21968C2.33694 2.05452 2.35758 1.93065 2.4092 1.85839C2.46081 1.78613 2.55371 1.71388 2.69823 1.64162C3.05952 1.45581 3.49307 1.30097 3.99887 1.1771C4.50468 1.04291 5.04145 0.980972 5.6092 0.980972C6.83758 0.980972 7.73565 1.25968 8.31371 1.8171C8.88145 2.37452 9.17049 3.22097 9.17049 4.35646V7.70097H9.19113ZM5.00016 9.27001C5.34081 9.27001 5.69178 9.20807 6.06339 9.0842C6.435 8.96033 6.76532 8.73323 7.04403 8.42355C7.2092 8.22742 7.33307 8.01065 7.395 7.76291C7.45694 7.51517 7.49823 7.21581 7.49823 6.86484V6.4313C7.19887 6.35904 6.87887 6.2971 6.54855 6.25581C6.21823 6.21452 5.89823 6.19388 5.57823 6.19388C4.88662 6.19388 4.38081 6.32807 4.04016 6.60678C3.69952 6.88549 3.53436 7.27775 3.53436 7.79388C3.53436 8.27904 3.65823 8.64033 3.91629 8.88807C4.16403 9.14613 4.52532 9.27001 5.00016 9.27001ZM13.2892 10.3848C13.1034 10.3848 12.9795 10.3539 12.8969 10.2816C12.8144 10.2197 12.7421 10.0752 12.6802 9.87904L10.2544 1.89968C10.1924 1.69323 10.1615 1.55904 10.1615 1.48678C10.1615 1.32162 10.244 1.22871 10.4092 1.22871H11.4208C11.6169 1.22871 11.7511 1.25968 11.8234 1.33194C11.906 1.39388 11.9679 1.53839 12.0298 1.73452L13.764 8.56807L15.3744 1.73452C15.426 1.52807 15.4879 1.39388 15.5705 1.33194C15.6531 1.27 15.7976 1.22871 15.9834 1.22871H16.8092C17.0053 1.22871 17.1395 1.25968 17.2221 1.33194C17.3047 1.39388 17.3769 1.53839 17.4182 1.73452L19.0492 8.65065L20.835 1.73452C20.8969 1.52807 20.9692 1.39388 21.0415 1.33194C21.124 1.27 21.2582 1.22871 21.444 1.22871H22.404C22.5692 1.22871 22.6621 1.31129 22.6621 1.48678C22.6621 1.53839 22.6518 1.59 22.6415 1.65194C22.6311 1.71388 22.6105 1.79646 22.5692 1.91L20.0815 9.88936C20.0195 10.0958 19.9473 10.23 19.8647 10.2919C19.7821 10.3539 19.6479 10.3952 19.4724 10.3952H18.5847C18.3885 10.3952 18.2544 10.3642 18.1718 10.2919C18.0892 10.2197 18.0169 10.0855 17.9756 9.87904L16.3756 3.22097L14.786 9.86872C14.7344 10.0752 14.6724 10.2094 14.5898 10.2816C14.5073 10.3539 14.3627 10.3848 14.1769 10.3848H13.2892ZM26.5537 10.6636C26.0169 10.6636 25.4802 10.6016 24.964 10.4777C24.4479 10.3539 24.0453 10.2197 23.7769 10.0648C23.6118 9.97194 23.4982 9.86872 23.4569 9.77581C23.4156 9.68291 23.395 9.57968 23.395 9.48678V8.96033C23.395 8.74355 23.4776 8.64033 23.6324 8.64033C23.6944 8.64033 23.7563 8.65065 23.8182 8.6713C23.8802 8.69194 23.9731 8.73323 24.0763 8.77452C24.4273 8.92936 24.8092 9.05323 25.2118 9.13581C25.6247 9.21839 26.0273 9.25968 26.4402 9.25968C27.0905 9.25968 27.5963 9.14613 27.9473 8.91904C28.2982 8.69194 28.484 8.36162 28.484 7.93839C28.484 7.64936 28.3911 7.41194 28.2053 7.21581C28.0195 7.01968 27.6685 6.8442 27.1627 6.67904L25.666 6.21452C24.9124 5.9771 24.355 5.62613 24.0144 5.16162C23.6737 4.70742 23.4982 4.20162 23.4982 3.66484C23.4982 3.23129 23.5911 2.84936 23.7769 2.51904C23.9627 2.18871 24.2105 1.89968 24.5202 1.67259C24.8298 1.43517 25.1808 1.25968 25.5937 1.13581C26.0066 1.01194 26.4402 0.960327 26.8944 0.960327C27.1215 0.960327 27.3589 0.97065 27.586 1.00162C27.8234 1.03259 28.0402 1.07388 28.2569 1.11517C28.4634 1.16678 28.6595 1.21839 28.8453 1.28033C29.0311 1.34226 29.1756 1.4042 29.2789 1.46613C29.4234 1.54871 29.5266 1.63129 29.5885 1.7242C29.6505 1.80678 29.6815 1.92033 29.6815 2.06484V2.55C29.6815 2.76678 29.5989 2.88033 29.444 2.88033C29.3615 2.88033 29.2273 2.83904 29.0518 2.75646C28.4634 2.48807 27.8027 2.35388 27.0698 2.35388C26.4815 2.35388 26.0169 2.44678 25.6969 2.64291C25.3769 2.83904 25.2118 3.13839 25.2118 3.56162C25.2118 3.85065 25.315 4.09839 25.5215 4.29452C25.7279 4.49065 26.1098 4.68678 26.6569 4.86226L28.1227 5.32678C28.866 5.5642 29.4027 5.89452 29.7227 6.31775C30.0427 6.74097 30.1976 7.22613 30.1976 7.76291C30.1976 8.20678 30.1047 8.60936 29.9292 8.96033C29.7434 9.3113 29.4956 9.62097 29.1756 9.86872C28.8556 10.1268 28.4737 10.3126 28.0298 10.4468C27.5653 10.5913 27.0802 10.6636 26.5537 10.6636Z" fill="#E3E3E3"/>
<path fill-rule="evenodd" clip-rule="evenodd" d="M28.5059 15.6798C25.1098 18.1882 20.1756 19.5198 15.933 19.5198C9.98717 19.5198 4.62975 17.3211 0.583299 13.6669C0.263299 13.3779 0.552332 12.9857 0.934267 13.2128C5.31104 15.7521 10.7098 17.2902 16.2943 17.2902C20.062 17.2902 24.2014 16.5057 28.0104 14.8953C28.5781 14.6373 29.0633 15.2669 28.5059 15.6798Z" fill="#FF9900"/>
<path fill-rule="evenodd" clip-rule="evenodd" d="M29.9201 14.0697C29.4865 13.5123 27.0504 13.8013 25.9459 13.9355C25.6155 13.9768 25.5639 13.6878 25.8633 13.471C27.8039 12.1084 30.9936 12.5007 31.3652 12.9549C31.7368 13.4194 31.262 16.6091 29.4452 18.1368C29.1665 18.3742 28.8981 18.2504 29.022 17.9407C29.4349 16.9188 30.3536 14.6168 29.9201 14.0697Z" fill="#FF9900"/>
</g>
<defs>
<clipPath id="clip0_14368_971">
<rect width="31.6724" height="18.56" fill="white" transform="translate(0.163696 0.960144)"/>
</clipPath>
</defs>
</svg>
