<svg width="32" height="32" viewBox="0 0 32 32" fill="none" xmlns="http://www.w3.org/2000/svg">
<path d="M30.8037 16.0005C30.8037 14.0062 28.2945 12.1163 24.4475 10.9443C25.3353 7.04167 24.9407 3.93678 23.2022 2.94272C22.8014 2.70954 22.3329 2.59909 21.8212 2.59909V3.96746C22.1048 3.96746 22.3329 4.02268 22.524 4.127C23.3625 4.60562 23.7262 6.42806 23.4426 8.77207C23.3748 9.34887 23.2638 9.95635 23.1282 10.5761C21.9198 10.2816 20.6005 10.0545 19.2134 9.90726C18.3811 8.77207 17.518 7.7412 16.6487 6.83918C18.6585 4.97992 20.545 3.96132 21.8274 3.96132V2.59296C20.132 2.59296 17.9125 3.79564 15.6684 5.88194C13.4243 3.80792 11.2049 2.6175 9.50951 2.6175V3.98586C10.7857 3.98586 12.6784 4.99833 14.6882 6.84532C13.8251 7.74733 12.962 8.77207 12.142 9.90726C10.7487 10.0545 9.42936 10.2816 8.22101 10.5822C8.07921 9.96862 7.9744 9.37341 7.90042 8.80275C7.61066 6.45874 7.96824 4.6363 8.80052 4.15154C8.98548 4.04109 9.22591 3.992 9.50951 3.992V2.62364C8.99164 2.62364 8.52309 2.73409 8.1162 2.96726C6.38381 3.96132 5.99541 7.06008 6.88935 10.9504C3.05466 12.1286 0.5578 14.0124 0.5578 16.0005C0.5578 17.9947 3.06699 19.8847 6.91401 21.0567C6.02623 24.9593 6.4208 28.0642 8.15936 29.0582C8.56009 29.2914 9.02863 29.4018 9.5465 29.4018C11.2419 29.4018 13.4613 28.1992 15.7054 26.1129C17.9495 28.1869 20.1689 29.3773 21.8643 29.3773C22.3822 29.3773 22.8508 29.2668 23.2577 29.0337C24.99 28.0396 25.3784 24.9409 24.4845 21.0505C28.3069 19.8785 30.8037 17.9886 30.8037 16.0005ZM22.7768 11.9076C22.5487 12.6992 22.2651 13.5153 21.9445 14.3314C21.6917 13.8405 21.4266 13.3496 21.1369 12.8588C20.8533 12.3679 20.5512 11.8892 20.2491 11.4229C21.1245 11.5518 21.9692 11.7113 22.7768 11.9076ZM19.9532 18.4427C19.4723 19.271 18.9791 20.0565 18.4674 20.7867C17.5488 20.8664 16.6179 20.9094 15.6808 20.9094C14.7498 20.9094 13.8189 20.8664 12.9065 20.7928C12.3948 20.0626 11.8954 19.2833 11.4145 18.4611C10.946 17.6572 10.5206 16.8411 10.1322 16.0189C10.5144 15.1966 10.946 14.3744 11.4084 13.5705C11.8892 12.7422 12.3824 11.9567 12.8941 11.2265C13.8127 11.1468 14.7437 11.1038 15.6808 11.1038C16.6117 11.1038 17.5426 11.1468 18.4551 11.2204C18.9668 11.9506 19.4661 12.7299 19.947 13.5521C20.4156 14.356 20.8409 15.1721 21.2293 15.9943C20.8409 16.8166 20.4156 17.6388 19.9532 18.4427ZM21.9445 17.645C22.2774 18.4672 22.561 19.2895 22.7953 20.0872C21.9876 20.2835 21.1369 20.4492 20.2553 20.578C20.5574 20.1056 20.8594 19.6208 21.143 19.1238C21.4266 18.6329 21.6917 18.1359 21.9445 17.645ZM15.6931 24.1922C15.1197 23.6032 14.5464 22.9466 13.9792 22.2287C14.5341 22.2532 15.1012 22.2716 15.6746 22.2716C16.2541 22.2716 16.8275 22.2594 17.3885 22.2287C16.8336 22.9466 16.2603 23.6032 15.6931 24.1922ZM11.1063 20.578C10.2308 20.4492 9.38621 20.2896 8.57858 20.0933C8.80669 19.3017 9.09028 18.4856 9.41087 17.6695C9.66364 18.1604 9.92874 18.6513 10.2185 19.1422C10.5083 19.6331 10.8042 20.1117 11.1063 20.578ZM15.6623 7.80869C16.2356 8.39777 16.809 9.05433 17.3762 9.77226C16.8213 9.74772 16.2541 9.72931 15.6808 9.72931C15.1012 9.72931 14.5279 9.74158 13.9669 9.77226C14.5217 9.05433 15.0951 8.39777 15.6623 7.80869ZM11.1001 11.4229C10.798 11.8954 10.4959 12.3801 10.2123 12.8772C9.92873 13.3681 9.66364 13.8589 9.41087 14.3498C9.07795 13.5276 8.79436 12.7053 8.56009 11.9076C9.36771 11.7174 10.2185 11.5518 11.1001 11.4229ZM5.5207 19.1054C3.33826 18.1788 1.92645 16.9638 1.92645 16.0005C1.92645 15.0371 3.33826 13.816 5.5207 12.8956C6.0509 12.6685 6.63041 12.466 7.22843 12.2758C7.57984 13.4785 8.04222 14.7303 8.61557 16.0127C8.04838 17.2891 7.59217 18.5347 7.24692 19.7313C6.63658 19.541 6.05706 19.3324 5.5207 19.1054ZM8.83751 27.8739C7.99906 27.3953 7.63532 25.5729 7.91892 23.2289C7.98673 22.6521 8.09771 22.0446 8.23334 21.4248C9.44169 21.7194 10.761 21.9464 12.1482 22.0937C12.9805 23.2289 13.8436 24.2597 14.7128 25.1618C12.703 27.021 10.8165 28.0396 9.53417 28.0396C9.25674 28.0335 9.02247 27.9783 8.83751 27.8739ZM23.4611 23.1982C23.7509 25.5422 23.3933 27.3646 22.561 27.8494C22.376 27.9598 22.1356 28.0089 21.852 28.0089C20.5758 28.0089 18.6832 26.9965 16.6733 25.1495C17.5365 24.2475 18.3996 23.2227 19.2195 22.0875C20.6128 21.9403 21.9322 21.7132 23.1405 21.4126C23.2823 22.0323 23.3933 22.6275 23.4611 23.1982ZM25.8347 19.1054C25.3045 19.3324 24.7249 19.5349 24.1269 19.7251C23.7755 18.5224 23.3131 17.2707 22.7398 15.9882C23.307 14.7119 23.7632 13.4662 24.1084 12.2697C24.7188 12.4599 25.2983 12.6685 25.8408 12.8956C28.0233 13.8221 29.4351 15.0371 29.4351 16.0005C29.4289 16.9638 28.0171 18.1849 25.8347 19.1054Z" fill="#61DAFB"/>
<path d="M15.6737 18.8014C17.2297 18.8014 18.4911 17.5459 18.4911 15.9972C18.4911 14.4485 17.2297 13.193 15.6737 13.193C14.1177 13.193 12.8563 14.4485 12.8563 15.9972C12.8563 17.5459 14.1177 18.8014 15.6737 18.8014Z" fill="#61DAFB"/>
</svg>
