<svg width="32" height="19" viewBox="0 0 32 19" fill="none" xmlns="http://www.w3.org/2000/svg">
<mask id="mask0_14368_842" style="mask-type:luminance" maskUnits="userSpaceOnUse" x="0" y="1" width="32" height="17">
<path d="M0.835938 9.18224C0.835938 13.5795 7.6127 17.1443 15.9719 17.1443C24.3312 17.1443 31.108 13.5795 31.108 9.18224C31.108 4.78498 24.3312 1.22013 15.9719 1.22013C7.6127 1.22013 0.835938 4.78498 0.835938 9.18224Z" fill="white"/>
</mask>
<g mask="url(#mask0_14368_842)">
<path d="M0.834778 9.18205C0.834778 13.5794 7.61154 17.1442 15.9708 17.1442C24.33 17.1442 31.1068 13.5794 31.1068 9.18205C31.1068 4.7848 24.33 1.21994 15.9708 1.21994C7.61154 1.21994 0.834778 4.7848 0.834778 9.18205Z" fill="url(#paint0_radial_14368_842)"/>
</g>
<mask id="mask1_14368_842" style="mask-type:luminance" maskUnits="userSpaceOnUse" x="0" y="0" width="32" height="19">
<path d="M0.210938 0.317184H31.7443V18.0547H0.210938V0.317184Z" fill="white"/>
</mask>
<g mask="url(#mask1_14368_842)">
<path d="M15.9803 16.5547C24.013 16.5547 30.525 13.2546 30.525 9.18371C30.525 5.1129 24.013 1.81274 15.9803 1.81274C7.94756 1.81274 1.43555 5.1129 1.43555 9.18371C1.43555 13.2546 7.94756 16.5547 15.9803 16.5547Z" fill="#777BB3"/>
</g>
<mask id="mask2_14368_842" style="mask-type:luminance" maskUnits="userSpaceOnUse" x="0" y="0" width="32" height="19">
<path d="M0.210938 0.317184H31.7443V18.0547H0.210938V0.317184Z" fill="white"/>
</mask>
<g mask="url(#mask2_14368_842)">
<path d="M9.06777 10.0998C9.72827 10.0998 10.2214 9.97797 10.5334 9.73786C10.842 9.50021 11.0552 9.08847 11.1669 8.51413C11.2711 7.9773 11.2314 7.60246 11.049 7.40017C10.8625 7.19357 10.4592 7.08878 9.85046 7.08878H8.79492L8.20975 10.0998H9.06777ZM5.61536 13.8088C5.56637 13.8088 5.51983 13.7869 5.48868 13.749C5.45748 13.7112 5.44483 13.6613 5.45419 13.6132L7.00502 5.63403C7.02002 5.5569 7.08763 5.50117 7.16624 5.50117H10.5087C11.5591 5.50117 12.341 5.78639 12.8324 6.34901C13.3265 6.91458 13.4791 7.70516 13.2859 8.69873C13.2073 9.10352 13.0721 9.47946 12.884 9.81603C12.6957 10.153 12.4469 10.4648 12.1444 10.7429C11.7822 11.0819 11.3722 11.3277 10.927 11.4723C10.4889 11.615 9.92623 11.6874 9.25467 11.6874H7.90126L7.51475 13.6759C7.49975 13.753 7.4322 13.8088 7.35358 13.8088H5.61536Z" fill="black"/>
<path d="M8.93049 7.25617H9.85065C10.5854 7.25617 10.8406 7.4174 10.9273 7.51347C11.0712 7.673 11.0984 8.00936 11.0059 8.48614C10.902 9.0199 10.7094 9.39836 10.4334 9.61088C10.1508 9.82844 9.69134 9.93869 9.06795 9.93869H8.40915L8.93049 7.25617ZM10.5089 5.34008H7.16637C7.00915 5.34008 6.87398 5.45154 6.84398 5.60587L5.29315 13.5851C5.27443 13.6814 5.29972 13.7809 5.36208 13.8567C5.42449 13.9324 5.51744 13.9762 5.61555 13.9762H7.35371C7.511 13.9762 7.64616 13.8647 7.67616 13.7104L8.03683 11.8548H9.25486C9.94366 11.8548 10.5235 11.7797 10.9782 11.6316C11.4458 11.4797 11.876 11.2221 12.2567 10.866C12.5716 10.5763 12.831 10.2511 13.0275 9.89939C13.2241 9.54754 13.3654 9.15518 13.4473 8.7332C13.6507 7.68735 13.4855 6.84985 12.9563 6.24415C12.4323 5.64425 11.6088 5.34008 10.5089 5.34008ZM8.01066 10.2672H9.06795C9.76875 10.2672 10.2907 10.1352 10.6337 9.87114C10.9768 9.60705 11.2081 9.16629 11.3283 8.54866C11.4434 7.95565 11.391 7.53718 11.1712 7.2934C10.9511 7.04962 10.511 6.9277 9.85065 6.9277H8.65972L8.01066 10.2672ZM10.5089 5.66856C11.5144 5.66856 12.2479 5.93243 12.709 6.46023C13.17 6.98803 13.3088 7.72474 13.1249 8.67057C13.0491 9.0602 12.9211 9.41642 12.7408 9.73915C12.5603 10.0621 12.3246 10.3574 12.0334 10.6251C11.6863 10.95 11.3007 11.1814 10.8765 11.3193C10.4522 11.4575 9.9118 11.5263 9.25486 11.5263H7.766L7.35371 13.6477H5.61555L7.16637 5.66856H10.5089Z" fill="white"/>
<path d="M17.2715 11.6877C17.2224 11.6877 17.1759 11.6658 17.1448 11.6279C17.1135 11.5901 17.1009 11.5403 17.1102 11.4921L17.7963 7.96166C17.8615 7.62591 17.8454 7.38492 17.751 7.28309C17.6932 7.22084 17.5195 7.11644 17.0061 7.11644H15.7632L14.9007 11.5548C14.8857 11.632 14.8181 11.6877 14.7395 11.6877H13.015C12.966 11.6877 12.9195 11.6658 12.8883 11.6279C12.8571 11.5901 12.8444 11.5403 12.8538 11.4921L14.4046 3.51294C14.4196 3.4358 14.4872 3.38007 14.5658 3.38007H16.2903C16.3394 3.38007 16.3859 3.40197 16.4171 3.4398C16.4483 3.47768 16.4609 3.52745 16.4515 3.57562L16.0773 5.50146H17.4143C18.4328 5.50146 19.1235 5.68102 19.5258 6.05044C19.9358 6.42731 20.0638 7.02989 19.9061 7.84166L19.1845 11.5548C19.1695 11.632 19.102 11.6877 19.0233 11.6877H17.2715Z" fill="black"/>
<path d="M16.2905 3.21881H14.566C14.4087 3.21881 14.2736 3.33027 14.2436 3.4846L12.6927 11.4638C12.674 11.5601 12.6993 11.6597 12.7617 11.7354C12.8241 11.8111 12.9171 11.8549 13.0152 11.8549H14.7397C14.8969 11.8549 15.0321 11.7434 15.0621 11.5891L15.8988 7.28365H17.0062C17.5188 7.28365 17.6264 7.39314 17.6307 7.39785C17.6618 7.4313 17.7027 7.58623 17.6352 7.93331L16.9492 11.4638C16.9305 11.5601 16.9558 11.6597 17.0182 11.7354C17.0806 11.8111 17.1735 11.8549 17.2717 11.8549H19.0235C19.1807 11.8549 19.316 11.7434 19.346 11.5891L20.0674 7.876C20.2368 7.00439 20.0919 6.35057 19.6371 5.93253C19.2031 5.53393 18.4761 5.34019 17.4145 5.34019H16.2767L16.613 3.60996C16.6316 3.51367 16.6064 3.41403 16.544 3.33837C16.4816 3.26266 16.3886 3.21881 16.2905 3.21881ZM16.2905 3.54728L15.8782 5.66866H17.4145C18.3811 5.66866 19.0479 5.83739 19.4148 6.1744C19.7818 6.51163 19.8917 7.05804 19.745 7.81337L19.0235 11.5264H17.2717L17.9577 7.996C18.0357 7.59439 18.007 7.32044 17.8715 7.17438C17.7359 7.02832 17.4474 6.95518 17.0062 6.95518H15.628L14.7397 11.5264H13.0152L14.566 3.54728H16.2905Z" fill="white"/>
<path d="M22.6326 10.0998C23.2931 10.0998 23.7862 9.97797 24.0982 9.73786C24.4068 9.50026 24.62 9.08852 24.7318 8.51413C24.836 7.9773 24.7963 7.60246 24.6138 7.40017C24.4273 7.19357 24.024 7.08878 23.4153 7.08878H22.3597L21.7746 10.0998H22.6326ZM19.1802 13.8088C19.1312 13.8088 19.0847 13.7869 19.0535 13.749C19.0223 13.7112 19.0096 13.6613 19.019 13.6132L20.5698 5.63403C20.5849 5.5569 20.6524 5.50117 20.7311 5.50117H24.0735C25.124 5.50117 25.9058 5.78639 26.3973 6.34901C26.8914 6.91453 27.0439 7.70511 26.8508 8.69873C26.772 9.10352 26.6369 9.47946 26.4488 9.81603C26.2606 10.153 26.0117 10.4648 25.7092 10.7429C25.347 11.0819 24.937 11.3277 24.4918 11.4723C24.0537 11.615 23.491 11.6874 22.8195 11.6874H21.466L21.0797 13.6759C21.0646 13.753 20.9971 13.8088 20.9184 13.8088H19.1802Z" fill="black"/>
<path d="M22.4941 7.25599H23.4143C24.149 7.25599 24.4042 7.41721 24.4909 7.51329C24.6349 7.67282 24.662 8.00918 24.5695 8.4859C24.4656 9.01972 24.2729 9.39817 23.997 9.6107C23.7144 9.82825 23.2549 9.93851 22.6316 9.93851H21.9728L22.4941 7.25599ZM24.0725 5.3399H20.73C20.5728 5.3399 20.4376 5.45136 20.4076 5.60569L18.8568 13.5849C18.8381 13.6812 18.8634 13.7808 18.9257 13.8565C18.9881 13.9322 19.0811 13.976 19.1792 13.976H20.9174C21.0746 13.976 21.2098 13.8645 21.2398 13.7102L21.6004 11.8546H22.8185C23.5073 11.8546 24.0871 11.7795 24.5418 11.6314C25.0094 11.4795 25.4397 11.2219 25.8204 10.8657C26.1353 10.5761 26.3946 10.2509 26.5911 9.8992C26.7877 9.54736 26.929 9.155 27.0109 8.73302C27.2143 7.68711 27.0491 6.84961 26.5199 6.24391C25.9959 5.64407 25.1725 5.3399 24.0725 5.3399ZM21.5743 10.267H22.6316C23.3324 10.267 23.8544 10.135 24.1973 9.87096C24.5404 9.60686 24.7717 9.16611 24.8919 8.54847C25.007 7.95547 24.9546 7.537 24.7348 7.29322C24.5147 7.04943 24.0746 6.92752 23.4143 6.92752H22.2233L21.5743 10.267ZM24.0725 5.66837C25.078 5.66837 25.8115 5.93225 26.2726 6.46005C26.7336 6.98785 26.8724 7.72455 26.6885 8.67039C26.6128 9.06001 26.4847 9.41624 26.3044 9.73896C26.1239 10.0619 25.8883 10.3572 25.597 10.625C25.2499 10.9498 24.8643 11.1812 24.4401 11.3191C24.0158 11.4573 23.4754 11.5261 22.8185 11.5261H21.3296L20.9174 13.6475H19.1792L20.73 5.66837H24.0725Z" fill="white"/>
</g>
<defs>
<radialGradient id="paint0_radial_14368_842" cx="0" cy="0" r="1" gradientUnits="userSpaceOnUse" gradientTransform="translate(9.92251 4.01918) scale(19.8757 19.8757)">
<stop stop-color="#AEB2D5"/>
<stop offset="0.3" stop-color="#AEB2D5"/>
<stop offset="0.75" stop-color="#484C89"/>
<stop offset="1" stop-color="#484C89"/>
</radialGradient>
</defs>
</svg>
