<svg width="32" height="32" viewBox="0 0 32 32" fill="none" xmlns="http://www.w3.org/2000/svg">
<path d="M3.44761 23.5489L4.59766 24.2129L17.4097 2.02254L16.2596 1.35854L3.44761 23.5489Z" fill="#E535AB"/>
<path d="M28.8081 21.7761H3.18408V23.1041H28.8081V21.7761Z" fill="#E535AB"/>
<path d="M3.69126 22.5221L16.5081 29.9221L17.1721 28.7721L4.35526 21.3721L3.69126 22.5221Z" fill="#E535AB"/>
<path d="M14.8248 3.23559L27.6416 10.6356L28.3056 9.48554L15.4888 2.08554L14.8248 3.23559Z" fill="#E535AB"/>
<path d="M3.69489 9.48084L4.35889 10.6309L17.1757 3.23089L16.5117 2.08084L3.69489 9.48084Z" fill="#E535AB"/>
<path d="M14.5939 2.02254L27.4059 24.2129L28.5559 23.5489L15.7439 1.35854L14.5939 2.02254Z" fill="#E535AB"/>
<path d="M5.52807 8.6001H4.20007V23.4001H5.52807V8.6001Z" fill="#E535AB"/>
<path d="M27.8002 8.6001H26.4722V23.4001H27.8002V8.6001Z" fill="#E535AB"/>
<path d="M15.7019 28.3554L16.2819 29.36L27.429 22.924L26.849 21.9194L15.7019 28.3554Z" fill="#E535AB"/>
<path d="M29.5601 23.8321C28.7921 25.1681 27.0801 25.6241 25.7441 24.8561C24.4081 24.0881 23.9521 22.3761 24.7201 21.0401C25.4881 19.7041 27.2001 19.2481 28.5361 20.0161C29.8801 20.7921 30.3361 22.4961 29.5601 23.8321Z" fill="#E535AB"/>
<path d="M7.27213 10.9601C6.50413 12.2961 4.79213 12.7521 3.45613 11.9841C2.12013 11.2161 1.66413 9.50411 2.43213 8.16811C3.20013 6.83211 4.91213 6.37611 6.24813 7.14411C7.58413 7.92011 8.04013 9.62411 7.27213 10.9601Z" fill="#E535AB"/>
<path d="M2.44007 23.8321C1.67207 22.4961 2.12807 20.7921 3.46407 20.0161C4.80007 19.2481 6.50407 19.7041 7.28007 21.0401C8.04807 22.3761 7.59207 24.0801 6.25607 24.8561C4.91207 25.6241 3.20807 25.1681 2.44007 23.8321Z" fill="#E535AB"/>
<path d="M24.7282 10.9601C23.9602 9.62411 24.4162 7.92011 25.7522 7.14411C27.0882 6.37611 28.7922 6.83211 29.5682 8.16811C30.3362 9.50411 29.8802 11.2081 28.5442 11.9841C27.2082 12.7521 25.4962 12.2961 24.7282 10.9601Z" fill="#E535AB"/>
<path d="M16.0001 31.6641C14.4561 31.6641 13.2081 30.4161 13.2081 28.8721C13.2081 27.3281 14.4561 26.0801 16.0001 26.0801C17.5441 26.0801 18.7921 27.3281 18.7921 28.8721C18.7921 30.4081 17.5441 31.6641 16.0001 31.6641Z" fill="#E535AB"/>
<path d="M16.0001 5.92012C14.4561 5.92012 13.2081 4.67212 13.2081 3.12812C13.2081 1.58412 14.4561 0.336121 16.0001 0.336121C17.5441 0.336121 18.7921 1.58412 18.7921 3.12812C18.7921 4.67212 17.5441 5.92012 16.0001 5.92012Z" fill="#E535AB"/>
</svg>
