<svg width="32" height="32" viewBox="0 0 32 32" fill="none" xmlns="http://www.w3.org/2000/svg">
<path d="M2.27338 16.0002C2.27338 21.4334 5.43069 26.1282 10.009 28.3534L3.46171 10.4142C2.67684 12.1718 2.2719 14.0753 2.27338 16.0002ZM25.2649 15.3075C25.2649 13.6112 24.6556 12.4365 24.133 11.5221C23.4372 10.3915 22.7853 9.43402 22.7853 8.3034C22.7853 7.04167 23.742 5.86717 25.0899 5.86717C25.1508 5.86717 25.2085 5.87475 25.268 5.87814C22.8258 3.64093 19.5724 2.27499 15.999 2.27499C11.2039 2.27499 6.98519 4.73525 4.53095 8.46167C4.85298 8.47133 5.15672 8.47786 5.41424 8.47786C6.8499 8.47786 9.07222 8.30366 9.07222 8.30366C9.81212 8.26004 9.89935 9.34678 9.1605 9.43428C9.1605 9.43428 8.41668 9.52177 7.58928 9.56512L12.5876 24.4324L15.5916 15.4238L13.4529 9.56486C12.7137 9.52151 12.0135 9.43402 12.0135 9.43402C11.2739 9.39066 11.3606 8.25978 12.1003 8.3034C12.1003 8.3034 14.367 8.4776 15.7157 8.4776C17.1511 8.4776 19.3736 8.3034 19.3736 8.3034C20.1141 8.25978 20.201 9.34652 19.4617 9.43402C19.4617 9.43402 18.7165 9.52151 17.8907 9.56486L22.8509 24.3196L24.2197 19.7446C24.8133 17.8461 25.2649 16.4826 25.2649 15.3075Z" fill="#00749A"/>
<path d="M16.2415 17.2006L12.1233 29.167C13.3823 29.5381 14.6881 29.7265 16.0007 29.7265C17.5991 29.7265 19.1319 29.4499 20.5587 28.9484C20.5204 28.8885 20.4877 28.8252 20.461 28.7593L16.2415 17.2006ZM28.0445 9.41476C28.1035 9.85197 28.1369 10.3216 28.1369 10.8261C28.1369 12.219 27.8768 13.7847 27.0933 15.7425L22.9006 27.8643C26.9812 25.4848 29.7259 21.0639 29.7259 16C29.7296 13.6983 29.1512 11.433 28.0445 9.41476Z" fill="#00749A"/>
<path d="M16 0C7.17783 0 0 7.1773 0 15.9995C0 24.8227 7.17757 32 16 32C24.8219 32 32.0008 24.823 32.0008 15.9995C32.0005 7.1773 24.8219 0 16 0ZM16 31.2664C7.58238 31.2664 0.733636 24.4176 0.733636 15.9995C0.733636 7.58212 7.58212 0.733897 16 0.733897C24.4174 0.733897 31.2656 7.58212 31.2656 15.9995C31.2656 24.4176 24.4171 31.2664 16 31.2664Z" fill="#00749A"/>
</svg>
