<svg width="31" height="25" viewBox="0 0 31 25" fill="none" xmlns="http://www.w3.org/2000/svg">
<path fill-rule="evenodd" clip-rule="evenodd" d="M25.6011 2.22722L26.2339 3.06025C26.4 3.28011 26.3584 3.59525 26.1386 3.76137L25.4668 4.27194C25.5889 4.59685 25.6671 4.94374 25.6989 5.29796L26.4635 5.40301C26.7371 5.43965 26.9277 5.69372 26.891 5.96732L26.7493 7.00556C26.7127 7.27917 26.4586 7.47216 26.185 7.43307L25.3495 7.31826C25.2005 7.64316 25.01 7.9412 24.7852 8.20748L25.2543 8.82309C25.4204 9.04296 25.3764 9.35809 25.1565 9.52421L24.3235 10.1569C24.1036 10.323 23.7885 10.2791 23.6224 10.0617L23.1118 9.38985C22.7845 9.512 22.44 9.59017 22.0833 9.62193L21.9783 10.3866C21.9417 10.6602 21.6876 10.8507 21.414 10.8141L20.3757 10.6724C20.1021 10.6357 19.9116 10.3817 19.9482 10.1081L20.0631 9.27259C19.7406 9.12357 19.4401 8.93302 19.1738 8.71072L18.5582 9.17732C18.3384 9.34343 18.0232 9.3019 17.8571 9.08204L17.2244 8.24901C17.0583 8.02914 17.0998 7.71401 17.3197 7.54789L17.9915 7.03732C17.8693 6.70997 17.7911 6.36552 17.7594 6.01129L16.9947 5.90625C16.7211 5.86961 16.5281 5.61554 16.5672 5.34194L16.7089 4.3037C16.748 4.03009 16.9996 3.83954 17.2732 3.87618L18.1087 3.991C18.2577 3.66854 18.4483 3.36806 18.6706 3.10178L18.204 2.48616C18.0379 2.26875 18.0794 1.95361 18.2993 1.78749L19.1323 1.15477C19.3522 0.988656 19.6673 1.03019 19.8334 1.25005L20.344 1.92185C20.6689 1.7997 21.0158 1.72153 21.37 1.68977L21.4751 0.92514C21.5117 0.651534 21.7658 0.458543 22.0394 0.495187L23.0776 0.636876C23.3512 0.67352 23.5442 0.927583 23.5051 1.20119L23.3903 2.03667C23.7152 2.18569 24.0132 2.37623 24.282 2.60098L24.8976 2.13438C25.1174 1.96582 25.4326 2.00735 25.6011 2.22722ZM7.73853 16.8872V12.8563H9.81501C10.201 12.8563 10.4941 12.8881 10.6969 12.9565C10.8997 13.0225 11.0658 13.1446 11.1879 13.3229C11.3125 13.5037 11.376 13.7211 11.376 13.9776C11.376 14.2 11.3272 14.3954 11.2319 14.5566C11.1366 14.7203 11.0047 14.8522 10.8386 14.9524C10.7336 15.0159 10.587 15.0696 10.4013 15.1112C10.5503 15.1625 10.6578 15.2089 10.7238 15.2602C10.7702 15.2944 10.8362 15.3652 10.9217 15.4727C11.0072 15.5802 11.0658 15.6657 11.0951 15.7243L11.7009 16.8896H10.2938L9.62935 15.6608C9.54385 15.502 9.47056 15.397 9.4046 15.3506C9.31422 15.2895 9.21161 15.2577 9.09924 15.2577H8.98931V16.8896H7.73853V16.8872ZM12.1309 23.9057H9.80524L9.47056 25.0001H7.37454L9.87364 18.3578H12.1211L14.6105 25.0001H12.4607L12.1309 23.9057ZM11.6961 22.4668L10.9705 20.0776L10.2425 22.4668H11.6961ZM15.0942 18.3578H18.5094C19.2544 18.3578 19.8114 18.5337 20.1803 18.8879C20.5492 19.2421 20.7349 19.7478 20.7349 20.4001C20.7349 21.0719 20.5321 21.5971 20.129 21.9758C19.7259 22.3544 19.1079 22.5425 18.2797 22.5425H17.1535V25.0001H15.0942V18.3578ZM17.1535 21.1965H17.6592C18.0574 21.1965 18.3384 21.1281 18.4996 20.9888C18.6608 20.852 18.7414 20.6737 18.7414 20.4612C18.7414 20.2535 18.6706 20.0752 18.5313 19.931C18.3921 19.7869 18.1283 19.7136 17.7423 19.7136H17.1535V21.1965ZM21.5654 18.3578H23.6248V25.0001H21.5654V18.3578ZM8.98931 14.4931H9.51453C9.57072 14.4931 9.68065 14.4736 9.84433 14.4369C9.92739 14.4198 9.99579 14.3783 10.0471 14.3099C10.1008 14.2415 10.1253 14.1633 10.1253 14.0754C10.1253 13.9459 10.0837 13.8433 10.0007 13.7749C9.91762 13.704 9.76371 13.6698 9.53652 13.6698H8.98931V14.4931ZM11.9404 12.8563H15.2749V13.7163H13.1911V14.3587H15.1235V15.1796H13.1911V15.9735H15.336V16.8847H11.9404V12.8563ZM15.6316 15.5533L16.814 15.48C16.8384 15.673 16.8921 15.8172 16.9703 15.9173C17.0998 16.0786 17.283 16.1616 17.52 16.1616C17.6959 16.1616 17.8351 16.1201 17.9304 16.037C18.0257 15.954 18.0745 15.8563 18.0745 15.7463C18.0745 15.6413 18.0281 15.5484 17.9377 15.4654C17.8473 15.3823 17.6348 15.3066 17.3001 15.2309C16.7553 15.1087 16.3669 14.945 16.1324 14.7423C15.8979 14.5395 15.7806 14.2806 15.7806 13.9654C15.7806 13.7578 15.8417 13.5624 15.9614 13.3791C16.0811 13.1959 16.2619 13.0493 16.5037 12.9443C16.7456 12.8392 17.0754 12.7879 17.4955 12.7879C18.011 12.7879 18.4019 12.8832 18.673 13.0762C18.9418 13.2692 19.103 13.5721 19.1543 13.9923L17.9841 14.0632C17.9524 13.8799 17.8864 13.7456 17.7887 13.665C17.6885 13.5819 17.5493 13.5404 17.3758 13.5404C17.2317 13.5404 17.1218 13.5721 17.0485 13.6332C16.9752 13.6943 16.9386 13.77 16.9386 13.8579C16.9386 13.9215 16.9703 13.9776 17.0289 14.0314C17.0876 14.0827 17.2244 14.134 17.4442 14.1804C17.989 14.2977 18.3799 14.4174 18.6144 14.5371C18.8489 14.6568 19.0224 14.8058 19.1274 14.9841C19.2349 15.16 19.2886 15.3603 19.2886 15.5802C19.2886 15.8392 19.2178 16.0761 19.0737 16.2935C18.932 16.511 18.7317 16.6771 18.4752 16.7894C18.2186 16.9018 17.8962 16.958 17.5053 16.958C16.8213 16.958 16.3449 16.8261 16.0811 16.5623C15.8173 16.2935 15.6682 15.9589 15.6316 15.5533ZM19.4694 12.8563H23.2584V13.8531H21.9881V16.8872H20.7422V13.8531H19.4694V12.8563ZM15.2774 3.28988C14.8303 3.25568 14.3784 3.26057 13.9313 3.30454C12.556 3.43646 11.2197 3.93726 10.1155 4.79472C8.83785 5.7841 7.86801 7.26451 7.49424 9.22617L7.37698 9.83935L6.76625 9.94683C6.16774 10.0519 5.63274 10.196 5.1637 10.3792C4.70932 10.5551 4.30379 10.7725 3.94957 11.029C3.66619 11.2343 3.4219 11.4639 3.21425 11.7131C2.57176 12.4826 2.27373 13.4475 2.28106 14.4247C2.28838 15.4165 2.61085 16.4181 3.20692 17.2414C3.42923 17.5468 3.68573 17.8277 3.97888 18.072C4.27692 18.3187 4.6116 18.5239 4.98781 18.6778C5.20034 18.7658 5.42753 18.8391 5.6645 18.8977V20.7274C5.17591 20.6395 4.72642 20.5076 4.30623 20.3341C3.75169 20.1045 3.26067 19.8089 2.82827 19.4473C2.41786 19.1053 2.05875 18.7169 1.75339 18.2943C0.939894 17.1705 0.500169 15.7976 0.490397 14.4296C0.480625 13.0469 0.910579 11.6715 1.83889 10.5576C2.13937 10.196 2.49359 9.86378 2.89911 9.57063C3.3706 9.22862 3.91048 8.94035 4.52121 8.70339C4.94139 8.53971 5.39089 8.40291 5.86482 8.29298C6.40226 6.15787 7.54799 4.51379 9.02106 3.37294C10.3989 2.30539 12.0576 1.68244 13.7652 1.51877C14.6618 1.43327 15.5705 1.47235 16.4597 1.63847C16.4402 1.71909 16.4231 1.7997 16.4133 1.88276L16.4109 1.89742C16.3938 2.03667 16.3865 2.17591 16.3938 2.3176C16.2057 2.39089 16.0298 2.49105 15.871 2.6132L15.8637 2.61808C15.6267 2.79642 15.4264 3.02605 15.2774 3.28988ZM28.2029 7.98029C28.3397 8.10487 28.4716 8.23435 28.601 8.3736C28.8624 8.65453 29.1092 8.97211 29.3413 9.32633C30.123 10.5282 30.5236 12.1332 30.5065 13.704C30.4894 15.2455 30.0741 16.7797 29.224 17.9083C28.6695 18.6436 27.9586 19.2446 27.106 19.7209C26.5221 20.0483 25.865 20.3195 25.1492 20.5393V18.6461C25.5352 18.5019 25.8943 18.3407 26.2241 18.1575C26.8666 17.7984 27.3918 17.3611 27.7851 16.8359C28.3958 16.0224 28.6963 14.8718 28.7085 13.6918C28.7232 12.4533 28.4203 11.2098 27.8315 10.3059C27.663 10.0446 27.4773 9.81003 27.2819 9.59994C27.2061 9.51932 27.1304 9.44359 27.0522 9.37031C27.0645 9.24816 27.0693 9.12357 27.062 8.99898C27.2501 8.9257 27.426 8.82553 27.5848 8.70339L27.5921 8.6985C27.8437 8.50551 28.0538 8.26122 28.2029 7.98029ZM22.0076 3.61724C23.1338 3.77114 23.9204 4.80938 23.7665 5.93556C23.6126 7.06175 22.5744 7.85081 21.4482 7.69691C20.322 7.543 19.5329 6.50476 19.6893 5.37858C19.8456 4.25239 20.8814 3.46333 22.0076 3.61724Z" fill="#408FCA"/>
</svg>
