<svg width="24" height="16" viewBox="0 0 24 16" fill="none" xmlns="http://www.w3.org/2000/svg">
<path d="M0 0H24V16H0V0Z" fill="white"/>
<path d="M0 0H24V1.23077H0V0Z" fill="#BF0A30"/>
<path d="M0 2.46154H24V3.69231H0V2.46154Z" fill="#BF0A30"/>
<path d="M0 4.92308H24V6.15385H0V4.92308Z" fill="#BF0A30"/>
<path d="M0 7.38461H24V8.61538H0V7.38461Z" fill="#BF0A30"/>
<path d="M0 9.84615H24V11.0769H0V9.84615Z" fill="#BF0A30"/>
<path d="M0 12.3077H24V13.5385H0V12.3077Z" fill="#BF0A30"/>
<path d="M0 14.7692H24V16H0V14.7692Z" fill="#BF0A30"/>
<path d="M0 0H12.1583V8.61379H0V0Z" fill="#002868"/>
<path d="M1.15026 0.800549L1.03961 0.460083L0.930177 0.800549H0.571472L0.862084 1.01091L0.750217 1.35137L1.03961 1.1398L1.33022 1.35137L1.21836 1.01091L1.50897 0.800549H1.15026Z" fill="white"/>
<path d="M3.16631 0.800549L3.05566 0.460083L2.94501 0.800549H2.58752L2.87691 1.01091L2.76626 1.35137L3.05566 1.1398L3.34505 1.35137L3.2344 1.01091L3.5238 0.800549H3.16631Z" fill="white"/>
<path d="M5.18235 0.800549L5.0717 0.460083L4.96105 0.800549H4.60234L4.89296 1.01091L4.78231 1.35137L5.0717 1.1398L5.3611 1.35137L5.25045 1.01091L5.53984 0.800549H5.18235Z" fill="white"/>
<path d="M7.19718 0.800549L7.08653 0.460083L6.97709 0.800549H6.61839L6.909 1.01091L6.79713 1.35137L7.08653 1.1398L7.37714 1.35137L7.26527 1.01091L7.55589 0.800549H7.19718Z" fill="white"/>
<path d="M9.28132 1.01091L9.57193 0.800549H9.21322L9.10257 0.460083L8.99192 0.800549H8.63443L8.92383 1.01091L8.81318 1.35137L9.10257 1.1398L9.39197 1.35137L9.28132 1.01091Z" fill="white"/>
<path d="M11.2974 1.01091L11.5868 0.800549H11.2293L11.1186 0.460083L11.008 0.800549H10.6493L10.9399 1.01091L10.8292 1.35137L11.1186 1.1398L11.408 1.35137L11.2974 1.01091Z" fill="white"/>
<path d="M2.04763 1.32341L1.93698 1.66387H1.57949L1.86889 1.87423L1.75824 2.2147L2.04763 2.00434L2.33703 2.2147L2.22638 1.87423L2.51699 1.66387H2.15829L2.04763 1.32341Z" fill="white"/>
<path d="M4.17433 1.66387L4.06368 1.32341L3.95303 1.66387H3.59554L3.88493 1.87423L3.77428 2.2147L4.06368 2.00434L4.35307 2.2147L4.24242 1.87423L4.53182 1.66387H4.17433Z" fill="white"/>
<path d="M6.18916 1.66387L6.07972 1.32341L5.96907 1.66387H5.61037L5.90098 1.87423L5.78911 2.2147L6.07972 2.00434L6.36912 2.2147L6.25847 1.87423L6.54786 1.66387H6.18916Z" fill="white"/>
<path d="M8.2052 1.66387L8.09455 1.32341L7.98512 1.66387H7.62641L7.91581 1.87423L7.80516 2.2147L8.09455 2.00434L8.38395 2.2147L8.2733 1.87423L8.56391 1.66387H8.2052Z" fill="white"/>
<path d="M10.2212 1.66387L10.1106 1.32341L9.99994 1.66387H9.64245L9.93185 1.87423L9.8212 2.2147L10.1106 2.00434L10.4 2.2147L10.2893 1.87423L10.5787 1.66387H10.2212Z" fill="white"/>
<path d="M1.15026 2.52841L1.03961 2.18673L0.930177 2.52841L0.571472 2.5272L0.862084 2.73756L0.750217 3.07924L1.03961 2.86766L1.33022 3.07924L1.21836 2.73756L1.50897 2.5272L1.15026 2.52841Z" fill="white"/>
<path d="M3.16631 2.52841L3.05566 2.18673L2.94501 2.52841L2.58752 2.5272L2.87691 2.73756L2.76626 3.07924L3.05566 2.86766L3.34505 3.07924L3.2344 2.73756L3.5238 2.5272L3.16631 2.52841Z" fill="white"/>
<path d="M5.18235 2.52841L5.0717 2.18673L4.96105 2.52841L4.60234 2.5272L4.89296 2.73756L4.78231 3.07924L5.0717 2.86766L5.3611 3.07924L5.25045 2.73756L5.53984 2.5272L5.18235 2.52841Z" fill="white"/>
<path d="M7.19718 2.52841L7.08653 2.18673L6.97709 2.52841L6.61839 2.5272L6.909 2.73756L6.79713 3.07924L7.08653 2.86766L7.37714 3.07924L7.26527 2.73756L7.55589 2.5272L7.19718 2.52841Z" fill="white"/>
<path d="M9.21322 2.52841L9.10257 2.18673L8.99192 2.52841L8.63443 2.5272L8.92383 2.73756L8.81318 3.07924L9.10257 2.86766L9.39197 3.07924L9.28132 2.73756L9.57193 2.5272L9.21322 2.52841Z" fill="white"/>
<path d="M11.2974 2.73756L11.5868 2.5272L11.2293 2.52841L11.1186 2.18673L11.008 2.52841L10.6493 2.5272L10.9399 2.73756L10.8292 3.07924L11.1186 2.86766L11.408 3.07924L11.2974 2.73756Z" fill="white"/>
<path d="M2.04763 3.0075L1.93698 3.34796H1.57949L1.86889 3.55832L1.75824 3.89879L2.04763 3.68843L2.33703 3.89879L2.22638 3.55832L2.51699 3.34796H2.15829L2.04763 3.0075Z" fill="white"/>
<path d="M4.17433 3.34796L4.06368 3.0075L3.95303 3.34796H3.59554L3.88493 3.55832L3.77428 3.89879L4.06368 3.68843L4.35307 3.89879L4.24242 3.55832L4.53182 3.34796H4.17433Z" fill="white"/>
<path d="M6.18916 3.34796L6.07972 3.0075L5.96907 3.34796H5.61037L5.90098 3.55832L5.78911 3.89879L6.07972 3.68843L6.36912 3.89879L6.25847 3.55832L6.54786 3.34796H6.18916Z" fill="white"/>
<path d="M8.2052 3.34796L8.09455 3.0075L7.98512 3.34796H7.62641L7.91581 3.55832L7.80516 3.89879L8.09455 3.68843L8.38395 3.89879L8.2733 3.55832L8.56391 3.34796H8.2052Z" fill="white"/>
<path d="M10.2212 3.34796L10.1106 3.0075L9.99994 3.34796H9.64245L9.93185 3.55832L9.8212 3.89879L10.1106 3.68843L10.4 3.89879L10.2893 3.55832L10.5787 3.34796H10.2212Z" fill="white"/>
<path d="M1.15026 4.2125L1.03961 3.87082L0.930177 4.2125L0.571472 4.21129L0.862084 4.42165L0.750217 4.76211L1.03961 4.55175L1.33022 4.76211L1.21836 4.42165L1.50897 4.21129L1.15026 4.2125Z" fill="white"/>
<path d="M3.16631 4.2125L3.05566 3.87082L2.94501 4.2125L2.58752 4.21129L2.87691 4.42165L2.76626 4.76211L3.05566 4.55175L3.34505 4.76211L3.2344 4.42165L3.5238 4.21129L3.16631 4.2125Z" fill="white"/>
<path d="M5.18235 4.2125L5.0717 3.87082L4.96105 4.2125L4.60234 4.21129L4.89296 4.42165L4.78231 4.76211L5.0717 4.55175L5.3611 4.76211L5.25045 4.42165L5.53984 4.21129L5.18235 4.2125Z" fill="white"/>
<path d="M7.19718 4.2125L7.08653 3.87082L6.97709 4.2125L6.61839 4.21129L6.909 4.42165L6.79713 4.76211L7.08653 4.55175L7.37714 4.76211L7.26527 4.42165L7.55589 4.21129L7.19718 4.2125Z" fill="white"/>
<path d="M9.21322 4.2125L9.10257 3.87082L8.99192 4.2125L8.63443 4.21129L8.92383 4.42165L8.81318 4.76211L9.10257 4.55175L9.39197 4.76211L9.28132 4.42165L9.57193 4.21129L9.21322 4.2125Z" fill="white"/>
<path d="M11.2974 4.42165L11.5868 4.21129L11.2293 4.2125L11.1186 3.87082L11.008 4.2125L10.6493 4.21129L10.9399 4.42165L10.8292 4.76211L11.1186 4.55175L11.408 4.76211L11.2974 4.42165Z" fill="white"/>
<path d="M2.04763 4.71591L1.93698 5.05637H1.57949L1.86889 5.26673L1.75824 5.6072L2.04763 5.39684L2.33703 5.6072L2.22638 5.26673L2.51699 5.05637H2.15829L2.04763 4.71591Z" fill="white"/>
<path d="M4.17433 5.05637L4.06368 4.71591L3.95303 5.05637H3.59554L3.88493 5.26673L3.77428 5.6072L4.06368 5.39684L4.35307 5.6072L4.24242 5.26673L4.53182 5.05637H4.17433Z" fill="white"/>
<path d="M6.18916 5.05637L6.07972 4.71591L5.96907 5.05637H5.61037L5.90098 5.26673L5.78911 5.6072L6.07972 5.39684L6.36912 5.6072L6.25847 5.26673L6.54786 5.05637H6.18916Z" fill="white"/>
<path d="M8.2052 5.05637L8.09455 4.71591L7.98512 5.05637H7.62641L7.91581 5.26673L7.80516 5.6072L8.09455 5.39684L8.38395 5.6072L8.2733 5.26673L8.56391 5.05637H8.2052Z" fill="white"/>
<path d="M10.2212 5.05637L10.1106 4.71591L9.99994 5.05637H9.64245L9.93185 5.26673L9.8212 5.6072L10.1106 5.39684L10.4 5.6072L10.2893 5.26673L10.5787 5.05637H10.2212Z" fill="white"/>
<path d="M1.15026 5.92091L1.03961 5.57923L0.930177 5.92091L0.571472 5.9197L0.862084 6.13005L0.750217 6.47174L1.03961 6.26016L1.33022 6.47174L1.21836 6.13005L1.50897 5.9197L1.15026 5.92091Z" fill="white"/>
<path d="M3.16631 5.92091L3.05566 5.57923L2.94501 5.92091L2.58752 5.9197L2.87691 6.13005L2.76626 6.47174L3.05566 6.26016L3.34505 6.47174L3.2344 6.13005L3.5238 5.9197L3.16631 5.92091Z" fill="white"/>
<path d="M5.18235 5.92091L5.0717 5.57923L4.96105 5.92091L4.60234 5.9197L4.89296 6.13005L4.78231 6.47174L5.0717 6.26016L5.3611 6.47174L5.25045 6.13005L5.53984 5.9197L5.18235 5.92091Z" fill="white"/>
<path d="M7.19718 5.92091L7.08653 5.57923L6.97709 5.92091L6.61839 5.9197L6.909 6.13005L6.79713 6.47174L7.08653 6.26016L7.37714 6.47174L7.26527 6.13005L7.55589 5.9197L7.19718 5.92091Z" fill="white"/>
<path d="M9.21322 5.92091L9.10257 5.57923L8.99192 5.92091L8.63443 5.9197L8.92383 6.13005L8.81318 6.47174L9.10257 6.26016L9.39197 6.47174L9.28132 6.13005L9.57193 5.9197L9.21322 5.92091Z" fill="white"/>
<path d="M11.2974 6.13005L11.5868 5.9197L11.2293 5.92091L11.1186 5.57923L11.008 5.92091L10.6493 5.9197L10.9399 6.13005L10.8292 6.47174L11.1186 6.26016L11.408 6.47174L11.2974 6.13005Z" fill="white"/>
<path d="M2.04763 6.4L1.93698 6.74046H1.57949L1.86889 6.95082L1.75824 7.29129L2.04763 7.08093L2.33703 7.29129L2.22638 6.95082L2.51699 6.74046H2.15829L2.04763 6.4Z" fill="white"/>
<path d="M4.17433 6.74046L4.06368 6.4L3.95303 6.74046H3.59554L3.88493 6.95082L3.77428 7.29129L4.06368 7.08093L4.35307 7.29129L4.24242 6.95082L4.53182 6.74046H4.17433Z" fill="white"/>
<path d="M6.18916 6.74046L6.07972 6.4L5.96907 6.74046H5.61037L5.90098 6.95082L5.78911 7.29129L6.07972 7.08093L6.36912 7.29129L6.25847 6.95082L6.54786 6.74046H6.18916Z" fill="white"/>
<path d="M8.2052 6.74046L8.09455 6.4L7.98512 6.74046H7.62641L7.91581 6.95082L7.80516 7.29129L8.09455 7.08093L8.38395 7.29129L8.2733 6.95082L8.56391 6.74046H8.2052Z" fill="white"/>
<path d="M10.2212 6.74046L10.1106 6.4L9.99994 6.74046H9.64245L9.93185 6.95082L9.8212 7.29129L10.1106 7.08093L10.4 7.29129L10.2893 6.95082L10.5787 6.74046H10.2212Z" fill="white"/>
<path d="M1.15026 7.605L1.03961 7.26332L0.930177 7.605L0.571472 7.60379L0.862084 7.81414L0.750217 8.15461L1.03961 7.94425L1.33022 8.15461L1.21836 7.81414L1.50897 7.60379L1.15026 7.605Z" fill="white"/>
<path d="M3.16631 7.605L3.05566 7.26332L2.94501 7.605L2.58752 7.60379L2.87691 7.81414L2.76626 8.15461L3.05566 7.94425L3.34505 8.15461L3.2344 7.81414L3.5238 7.60379L3.16631 7.605Z" fill="white"/>
<path d="M5.18235 7.605L5.0717 7.26332L4.96105 7.605L4.60234 7.60379L4.89296 7.81414L4.78231 8.15461L5.0717 7.94425L5.3611 8.15461L5.25045 7.81414L5.53984 7.60379L5.18235 7.605Z" fill="white"/>
<path d="M7.19718 7.605L7.08653 7.26332L6.97709 7.605L6.61839 7.60379L6.909 7.81414L6.79713 8.15461L7.08653 7.94425L7.37714 8.15461L7.26527 7.81414L7.55589 7.60379L7.19718 7.605Z" fill="white"/>
<path d="M9.21322 7.605L9.10257 7.26332L8.99192 7.605L8.63443 7.60379L8.92383 7.81414L8.81318 8.15461L9.10257 7.94425L9.39197 8.15461L9.28132 7.81414L9.57193 7.60379L9.21322 7.605Z" fill="white"/>
<path d="M11.2974 7.81414L11.5868 7.60379L11.2293 7.605L11.1186 7.26332L11.008 7.605L10.6493 7.60379L10.9399 7.81414L10.8292 8.15461L11.1186 7.94425L11.408 8.15461L11.2974 7.81414Z" fill="white"/>
</svg>
