<svg width="70" height="70" viewBox="0 0 70 70" fill="none" xmlns="http://www.w3.org/2000/svg">
<rect width="70" height="70" rx="12" fill="#4733FF"/>
<path d="M21.6667 26.6667H26.6667C27.1087 26.6667 27.5326 26.4911 27.8452 26.1785C28.1577 25.866 28.3333 25.442 28.3333 25V23.3333C28.3333 22.4493 28.6845 21.6014 29.3096 20.9763C29.9348 20.3512 30.7826 20 31.6667 20C32.5507 20 33.3986 20.3512 34.0237 20.9763C34.6488 21.6014 35 22.4493 35 23.3333V25C35 25.442 35.1756 25.866 35.4882 26.1785C35.8007 26.4911 36.2246 26.6667 36.6667 26.6667H41.6667C42.1087 26.6667 42.5326 26.8423 42.8452 27.1548C43.1577 27.4674 43.3333 27.8913 43.3333 28.3333V33.3333C43.3333 33.7754 43.5089 34.1993 43.8215 34.5118C44.134 34.8244 44.558 35 45 35H46.6667C47.5507 35 48.3986 35.3512 49.0237 35.9763C49.6488 36.6014 50 37.4493 50 38.3333C50 39.2174 49.6488 40.0652 49.0237 40.6904C48.3986 41.3155 47.5507 41.6667 46.6667 41.6667H45C44.558 41.6667 44.134 41.8423 43.8215 42.1548C43.5089 42.4674 43.3333 42.8913 43.3333 43.3333V48.3333C43.3333 48.7754 43.1577 49.1993 42.8452 49.5118C42.5326 49.8244 42.1087 50 41.6667 50H36.6667C36.2246 50 35.8007 49.8244 35.4882 49.5118C35.1756 49.1993 35 48.7754 35 48.3333V46.6667C35 45.7826 34.6488 44.9348 34.0237 44.3096C33.3986 43.6845 32.5507 43.3333 31.6667 43.3333C30.7826 43.3333 29.9348 43.6845 29.3096 44.3096C28.6845 44.9348 28.3333 45.7826 28.3333 46.6667V48.3333C28.3333 48.7754 28.1577 49.1993 27.8452 49.5118C27.5326 49.8244 27.1087 50 26.6667 50H21.6667C21.2246 50 20.8007 49.8244 20.4882 49.5118C20.1756 49.1993 20 48.7754 20 48.3333V43.3333C20 42.8913 20.1756 42.4674 20.4882 42.1548C20.8007 41.8423 21.2246 41.6667 21.6667 41.6667H23.3333C24.2174 41.6667 25.0652 41.3155 25.6904 40.6904C26.3155 40.0652 26.6667 39.2174 26.6667 38.3333C26.6667 37.4493 26.3155 36.6014 25.6904 35.9763C25.0652 35.3512 24.2174 35 23.3333 35H21.6667C21.2246 35 20.8007 34.8244 20.4882 34.5118C20.1756 34.1993 20 33.7754 20 33.3333V28.3333C20 27.8913 20.1756 27.4674 20.4882 27.1548C20.8007 26.8423 21.2246 26.6667 21.6667 26.6667Z" stroke="#E3E3E3" stroke-width="1.5" stroke-linecap="round" stroke-linejoin="round"/>
</svg>
