<svg width="70" height="70" viewBox="0 0 70 70" fill="none" xmlns="http://www.w3.org/2000/svg">
<rect width="70" height="70" rx="12" fill="#4733FF"/>
<path d="M20 35H21.6667M35 20V21.6667M48.3333 35H50M24.3333 24.3333L25.5 25.5M45.6667 24.3333L44.5 25.5" stroke="#E3E3E3" stroke-width="1.5" stroke-linecap="round" stroke-linejoin="round"/>
<path d="M29.9998 41.6667C28.6006 40.6173 27.5671 39.1542 27.0456 37.4848C26.5241 35.8153 26.5411 34.0241 27.0941 32.3648C27.6472 30.7055 28.7084 29.2623 30.1273 28.2397C31.5461 27.217 33.2508 26.6667 34.9998 26.6667C36.7489 26.6667 38.4535 27.217 39.8724 28.2397C41.2913 29.2623 42.3524 30.7055 42.9055 32.3648C43.4586 34.0241 43.4756 35.8153 42.9541 37.4848C42.4326 39.1542 41.3991 40.6173 39.9998 41.6667C39.3491 42.3108 38.8592 43.0991 38.5696 43.9677C38.2801 44.8364 38.1991 45.7609 38.3332 46.6667C38.3332 47.5507 37.982 48.3986 37.3569 49.0237C36.7317 49.6488 35.8839 50 34.9998 50C34.1158 50 33.2679 49.6488 32.6428 49.0237C32.0177 48.3986 31.6665 47.5507 31.6665 46.6667C31.8006 45.7609 31.7196 44.8364 31.4301 43.9677C31.1405 43.0991 30.6506 42.3108 29.9998 41.6667Z" stroke="#E3E3E3" stroke-width="1.5" stroke-linecap="round" stroke-linejoin="round"/>
<path d="M31.1665 43.3333H38.8332" stroke="#E3E3E3" stroke-width="1.5" stroke-linecap="round" stroke-linejoin="round"/>
</svg>
