<svg width="70" height="70" viewBox="0 0 70 70" fill="none" xmlns="http://www.w3.org/2000/svg">
<rect width="70" height="70" rx="12" fill="#4733FF"/>
<path d="M44 19.6666C45.3261 19.6666 46.5979 20.1934 47.5355 21.1311C48.4732 22.0688 49 23.3405 49 24.6666V38C49 39.326 48.4732 40.5978 47.5355 41.5355C46.5979 42.4732 45.3261 43 44 43H35.6667L27.3333 48V43H24C22.6739 43 21.4021 42.4732 20.4645 41.5355C19.5268 40.5978 19 39.326 19 38V24.6666C19 23.3405 19.5268 22.0688 20.4645 21.1311C21.4021 20.1934 22.6739 19.6666 24 19.6666H44Z" stroke="#E3E3E3" stroke-width="1.5" stroke-linecap="round" stroke-linejoin="round"/>
<path d="M29.833 28H29.8497" stroke="#E3E3E3" stroke-width="1.5" stroke-linecap="round" stroke-linejoin="round"/>
<path d="M38.167 28H38.1837" stroke="#E3E3E3" stroke-width="1.5" stroke-linecap="round" stroke-linejoin="round"/>
<path d="M29.833 34.6665C30.3761 35.2208 31.0244 35.6612 31.7399 35.9619C32.4554 36.2625 33.2236 36.4174 33.9997 36.4174C34.7757 36.4174 35.544 36.2625 36.2595 35.9619C36.9749 35.6612 37.6232 35.2208 38.1663 34.6665" stroke="#E3E3E3" stroke-width="1.5" stroke-linecap="round" stroke-linejoin="round"/>
</svg>
