<svg width="70" height="70" viewBox="0 0 70 70" fill="none" xmlns="http://www.w3.org/2000/svg">
<rect width="70" height="70" rx="12" fill="#4733FF"/>
<path d="M21.667 23.3332C21.667 22.8911 21.8426 22.4672 22.1551 22.1547C22.4677 21.8421 22.8916 21.6665 23.3337 21.6665H30.0003C30.4424 21.6665 30.8663 21.8421 31.1788 22.1547C31.4914 22.4672 31.667 22.8911 31.667 23.3332V29.9998C31.667 30.4419 31.4914 30.8658 31.1788 31.1783C30.8663 31.4909 30.4424 31.6665 30.0003 31.6665H23.3337C22.8916 31.6665 22.4677 31.4909 22.1551 31.1783C21.8426 30.8658 21.667 30.4419 21.667 29.9998V23.3332Z" stroke="#E3E3E3" stroke-width="1.5" stroke-linecap="round" stroke-linejoin="round"/>
<path d="M21.667 40.0002C21.667 39.5581 21.8426 39.1342 22.1551 38.8217C22.4677 38.5091 22.8916 38.3335 23.3337 38.3335H30.0003C30.4424 38.3335 30.8663 38.5091 31.1788 38.8217C31.4914 39.1342 31.667 39.5581 31.667 40.0002V46.6668C31.667 47.1089 31.4914 47.5328 31.1788 47.8453C30.8663 48.1579 30.4424 48.3335 30.0003 48.3335H23.3337C22.8916 48.3335 22.4677 48.1579 22.1551 47.8453C21.8426 47.5328 21.667 47.1089 21.667 46.6668V40.0002Z" stroke="#E3E3E3" stroke-width="1.5" stroke-linecap="round" stroke-linejoin="round"/>
<path d="M38.333 40.0002C38.333 39.5581 38.5086 39.1342 38.8212 38.8217C39.1337 38.5091 39.5576 38.3335 39.9997 38.3335H46.6663C47.1084 38.3335 47.5323 38.5091 47.8449 38.8217C48.1574 39.1342 48.333 39.5581 48.333 40.0002V46.6668C48.333 47.1089 48.1574 47.5328 47.8449 47.8453C47.5323 48.1579 47.1084 48.3335 46.6663 48.3335H39.9997C39.5576 48.3335 39.1337 48.1579 38.8212 47.8453C38.5086 47.5328 38.333 47.1089 38.333 46.6668V40.0002Z" stroke="#E3E3E3" stroke-width="1.5" stroke-linecap="round" stroke-linejoin="round"/>
<path d="M38.333 26.6665H48.333" stroke="#E3E3E3" stroke-width="1.5" stroke-linecap="round" stroke-linejoin="round"/>
<path d="M43.333 21.6665V31.6665" stroke="#E3E3E3" stroke-width="1.5" stroke-linecap="round" stroke-linejoin="round"/>
</svg>
