<svg width="70" height="70" viewBox="0 0 70 70" fill="none" xmlns="http://www.w3.org/2000/svg">
<rect width="70" height="70" rx="12" fill="#4733FF"/>
<path d="M49.9034 36.7016C50.2445 33.7147 49.6801 30.6942 48.2836 28.032C46.887 25.3697 44.7227 23.1885 42.0714 21.7713C39.4201 20.3541 36.4041 19.7663 33.4146 20.0841C30.4251 20.4019 27.6001 21.6106 25.306 23.5536C23.0119 25.4965 21.3545 28.084 20.5489 30.9803C19.7432 33.8767 19.8265 36.9483 20.7879 39.7968C21.7493 42.6452 23.5444 45.1391 25.9404 46.9549C28.3364 48.7707 31.2228 49.8246 34.2251 49.98" stroke="#E3E3E3" stroke-width="1.5" stroke-linecap="round" stroke-linejoin="round"/>
<path d="M35 26.6667V35.0001L40 40.0001" stroke="#E3E3E3" stroke-width="1.5" stroke-linecap="round" stroke-linejoin="round"/>
<path d="M40 46.6666L43.3333 49.9999L50 43.3333" stroke="#E3E3E3" stroke-width="1.5" stroke-linecap="round" stroke-linejoin="round"/>
</svg>
