<svg width="70" height="70" viewBox="0 0 70 70" fill="none" xmlns="http://www.w3.org/2000/svg">
<rect width="70" height="70" rx="12" fill="#4733FF"/>
<path d="M21.6665 23.3333C21.6665 22.8913 21.8421 22.4673 22.1547 22.1548C22.4672 21.8422 22.8911 21.6666 23.3332 21.6666H29.9998C30.4419 21.6666 30.8658 21.8422 31.1783 22.1548C31.4909 22.4673 31.6665 22.8913 31.6665 23.3333V30C31.6665 30.442 31.4909 30.8659 31.1783 31.1785C30.8658 31.491 30.4419 31.6666 29.9998 31.6666H23.3332C22.8911 31.6666 22.4672 31.491 22.1547 31.1785C21.8421 30.8659 21.6665 30.442 21.6665 30V23.3333Z" stroke="#E3E3E3" stroke-width="1.5" stroke-linecap="round" stroke-linejoin="round"/>
<path d="M21.6665 40C21.6665 39.558 21.8421 39.1341 22.1547 38.8215C22.4672 38.509 22.8911 38.3334 23.3332 38.3334H29.9998C30.4419 38.3334 30.8658 38.509 31.1783 38.8215C31.4909 39.1341 31.6665 39.558 31.6665 40V46.6667C31.6665 47.1087 31.4909 47.5327 31.1783 47.8452C30.8658 48.1578 30.4419 48.3334 29.9998 48.3334H23.3332C22.8911 48.3334 22.4672 48.1578 22.1547 47.8452C21.8421 47.5327 21.6665 47.1087 21.6665 46.6667V40Z" stroke="#E3E3E3" stroke-width="1.5" stroke-linecap="round" stroke-linejoin="round"/>
<path d="M38.3335 40C38.3335 39.558 38.5091 39.1341 38.8217 38.8215C39.1342 38.509 39.5581 38.3334 40.0002 38.3334H46.6668C47.1089 38.3334 47.5328 38.509 47.8453 38.8215C48.1579 39.1341 48.3335 39.558 48.3335 40V46.6667C48.3335 47.1087 48.1579 47.5327 47.8453 47.8452C47.5328 48.1578 47.1089 48.3334 46.6668 48.3334H40.0002C39.5581 48.3334 39.1342 48.1578 38.8217 47.8452C38.5091 47.5327 38.3335 47.1087 38.3335 46.6667V40Z" stroke="#E3E3E3" stroke-width="1.5" stroke-linecap="round" stroke-linejoin="round"/>
<path d="M38.3335 26.6666H48.3335" stroke="#E3E3E3" stroke-width="1.5" stroke-linecap="round" stroke-linejoin="round"/>
<path d="M43.3335 21.6666V31.6666" stroke="#E3E3E3" stroke-width="1.5" stroke-linecap="round" stroke-linejoin="round"/>
</svg>
