<svg width="70" height="70" viewBox="0 0 70 70" fill="none" xmlns="http://www.w3.org/2000/svg">
<rect width="70" height="70" rx="12" fill="#4733FF"/>
<path d="M34.1665 50H24.9998C24.1158 50 23.2679 49.6488 22.6428 49.0237C22.0177 48.3986 21.6665 47.5508 21.6665 46.6667V26.6667C21.6665 25.7827 22.0177 24.9348 22.6428 24.3097C23.2679 23.6846 24.1158 23.3334 24.9998 23.3334H44.9998C45.8839 23.3334 46.7317 23.6846 47.3569 24.3097C47.982 24.9348 48.3332 25.7827 48.3332 26.6667V36.6667" stroke="#E3E3E3" stroke-width="1.5" stroke-linecap="round" stroke-linejoin="round"/>
<path d="M41.6665 20V26.6667" stroke="#E3E3E3" stroke-width="1.5" stroke-linecap="round" stroke-linejoin="round"/>
<path d="M28.3335 20V26.6667" stroke="#E3E3E3" stroke-width="1.5" stroke-linecap="round" stroke-linejoin="round"/>
<path d="M21.6665 33.3334H48.3332" stroke="#E3E3E3" stroke-width="1.5" stroke-linecap="round" stroke-linejoin="round"/>
<path d="M40 46.6667L43.3333 50L50 43.3334" stroke="#E3E3E3" stroke-width="1.5" stroke-linecap="round" stroke-linejoin="round"/>
</svg>
