<svg width="32" height="32" viewBox="0 0 32 32" fill="none" xmlns="http://www.w3.org/2000/svg">
<g clip-path="url(#clip0_14368_959)">
<path d="M31.9251 7.30066C31.9369 7.34306 31.943 7.38678 31.9431 7.4307V14.2576C31.9431 14.3452 31.9192 14.4313 31.8738 14.5071C31.8284 14.583 31.7631 14.6458 31.6845 14.6894L25.7602 17.9884V24.5272C25.7602 24.7052 25.6624 24.8695 25.5029 24.9591L13.1365 31.8445C13.1082 31.86 13.0773 31.87 13.0464 31.8806C13.0348 31.8843 13.0239 31.8911 13.0117 31.8942C12.9252 31.9163 12.8343 31.9163 12.7479 31.8942C12.7337 31.8905 12.7209 31.883 12.7074 31.8781C12.6791 31.8681 12.6495 31.8594 12.6225 31.8445L0.258612 24.9591C0.180068 24.9154 0.114806 24.8525 0.0694036 24.7767C0.024001 24.7009 6.22338e-05 24.6149 0 24.5272L0 4.04649C0 4.00169 0.00643314 3.95813 0.0180128 3.91582C0.0218727 3.90151 0.0308791 3.88844 0.0360256 3.87413C0.0456753 3.848 0.0546817 3.82124 0.0688346 3.79698C0.0784843 3.7808 0.0926372 3.76773 0.104217 3.7528C0.119013 3.73289 0.132523 3.71236 0.149892 3.69493C0.164688 3.68062 0.183988 3.67005 0.200714 3.6576C0.21937 3.64267 0.236096 3.62649 0.257325 3.61467H0.257969L6.44021 0.171965C6.51849 0.128398 6.60722 0.105469 6.69754 0.105469C6.78785 0.105469 6.87658 0.128398 6.95486 0.171965L13.1371 3.61467H13.1384C13.159 3.62711 13.1763 3.64267 13.195 3.65698C13.2117 3.66942 13.2304 3.68062 13.2452 3.69431C13.2632 3.71236 13.2761 3.73289 13.2915 3.7528C13.3024 3.76773 13.3172 3.7808 13.3262 3.79698C13.341 3.82187 13.3494 3.848 13.3597 3.87413C13.3648 3.88844 13.3738 3.90151 13.3777 3.91644C13.3895 3.95884 13.3956 4.00256 13.3957 4.04649V16.8386L18.5474 13.9695V7.43008C18.5474 7.38652 18.5538 7.34235 18.5654 7.30066C18.5699 7.28573 18.5783 7.27266 18.5834 7.25835C18.5937 7.23222 18.6027 7.20546 18.6168 7.18119C18.6265 7.16502 18.6407 7.15195 18.6516 7.13702C18.667 7.11711 18.6799 7.09657 18.6979 7.07915C18.7127 7.06484 18.7314 7.05426 18.7481 7.04182C18.7674 7.02688 18.7841 7.01071 18.8047 6.99889H18.8053L24.9882 3.55618C25.0665 3.51255 25.1552 3.48959 25.2456 3.48959C25.3359 3.48959 25.4246 3.51255 25.5029 3.55618L31.6851 6.99889C31.707 7.01133 31.7237 7.02689 31.743 7.0412C31.7591 7.05364 31.7778 7.06484 31.7926 7.07853C31.8106 7.09657 31.8234 7.11711 31.8389 7.13702C31.8505 7.15195 31.8646 7.16502 31.8736 7.18119C31.8884 7.20546 31.8968 7.23222 31.9071 7.25835C31.9129 7.27266 31.9212 7.28573 31.9251 7.30066ZM30.9125 13.9695V8.29247L28.749 9.49707L25.7602 11.1615V16.8386L30.9131 13.9695H30.9125ZM24.7303 24.2392V18.5584L21.7903 20.1823L13.3951 24.8166V30.5509L24.7303 24.2392ZM1.03059 4.90825V24.2392L12.3645 30.5503V24.8172L6.44343 21.5761L6.4415 21.5748L6.43892 21.5736C6.41898 21.5624 6.40226 21.5462 6.3836 21.5325C6.36752 21.5201 6.34886 21.5101 6.33471 21.4964L6.33342 21.4946C6.3167 21.479 6.30512 21.4597 6.29096 21.4423C6.2781 21.4255 6.26266 21.4112 6.25236 21.3938L6.25172 21.3919C6.24014 21.3732 6.23306 21.3508 6.2247 21.3297C6.21634 21.311 6.2054 21.2936 6.20026 21.2737V21.2731C6.19382 21.2494 6.19254 21.2245 6.18996 21.2003C6.18739 21.1816 6.18224 21.1629 6.18224 21.1443V7.77727L3.19405 6.11223L1.03059 4.90887V4.90825ZM6.69818 1.17871L1.54717 4.04649L6.69689 6.91426L11.8473 4.04586L6.69689 1.17871H6.69818ZM9.37694 19.076L12.3651 17.4122V4.90825L10.2017 6.11285L7.21283 7.77727V20.2813L9.37694 19.076ZM25.2456 4.56292L20.0952 7.4307L25.2456 10.2985L30.3953 7.43008L25.2456 4.56292ZM24.7303 11.1615L21.7414 9.49707L19.578 8.29247V13.9695L22.5662 15.6333L24.7303 16.8386V11.1615ZM12.8791 23.9548L20.4336 19.7835L24.2098 17.6991L19.0633 14.8332L13.1377 18.1328L7.73713 21.1399L12.8791 23.9548Z" fill="#FF2D20"/>
</g>
<defs>
<clipPath id="clip0_14368_959">
<rect width="32" height="32" fill="white"/>
</clipPath>
</defs>
</svg>
