<svg width="60" height="60" viewBox="0 0 60 60" fill="none" xmlns="http://www.w3.org/2000/svg">
<rect width="60" height="60" rx="9" fill="#333333"/>
<g clip-path="url(#clip0_14368_885)">
<path d="M21.6975 38.933H20.4612C20.4175 36.8462 20.2944 34.8912 20.1019 33.0505H20.0931L18.2169 38.933H17.2787L15.4112 33.0499H15.4025C15.2625 34.8124 15.1744 36.7762 15.1394 38.9324H14C14.07 36.3112 14.2544 33.8474 14.5437 31.5593H16.0781L17.8581 36.9774H17.8669L19.6556 31.5593H21.12C21.4431 34.2424 21.6363 36.7062 21.6975 38.933Z" fill="#6A7E91"/>
<path d="M27.0457 33.4886C26.5457 36.2155 25.8794 38.1968 25.0557 39.433C24.4157 40.3886 23.7144 40.8618 22.9426 40.8618C22.7407 40.8618 22.4869 40.8005 22.1888 40.6774V40.0199C22.3376 40.0374 22.5044 40.0549 22.7063 40.0549C23.0657 40.0549 23.3551 39.9586 23.5657 39.7568C23.8288 39.5199 23.9601 39.248 23.9601 38.9499C23.9601 38.748 23.8551 38.3274 23.6532 37.6961L22.2944 33.488H23.5044L24.4776 36.6355C24.6969 37.3543 24.7844 37.8455 24.7494 38.1349C25.2844 36.7149 25.6526 35.163 25.8626 33.488L27.0457 33.4886Z" fill="#6A7E91"/>
<path d="M43.4836 38.933H39.9767V31.5511H41.1604V38.0211H43.4836V38.933Z" fill="#FA8A3B"/>
<path fill-rule="evenodd" clip-rule="evenodd" d="M39.0562 39.108L37.6975 38.4418C37.82 38.3455 37.9343 38.2399 38.0393 38.1086C38.6181 37.4336 38.9075 36.4343 38.9075 35.1018C38.9075 32.6643 37.9518 31.4374 36.0318 31.4374C35.0937 31.4374 34.3575 31.7443 33.8312 32.3668C33.2525 33.0418 32.9718 34.0411 32.9718 35.3649C32.9718 36.6624 33.2262 37.6093 33.7343 38.2143C34.1987 38.758 34.9006 39.0299 35.8475 39.0299C36.1981 39.0299 36.5225 38.9861 36.8118 38.8986L38.5743 39.9243L39.0562 39.108ZM34.6643 37.4511C34.3662 36.9686 34.2175 36.1974 34.2175 35.1368C34.2175 33.278 34.7787 32.3486 35.9093 32.3486C36.4968 32.3486 36.935 32.568 37.2068 33.0149C37.505 33.4974 37.6537 34.2599 37.6537 35.3118C37.6537 37.188 37.0925 38.1174 35.9618 38.1174C35.3743 38.1261 34.9443 37.8986 34.6643 37.4511Z" fill="#FA8A3B"/>
<path d="M32.4551 36.89C32.4551 37.5125 32.227 38.03 31.7713 38.4331C31.3157 38.8362 30.6932 39.0381 29.9213 39.0381C29.2026 39.0381 28.5013 38.81 27.8257 38.3456L28.1413 37.7144C28.7201 38.0037 29.2545 38.1525 29.7282 38.1525C30.1751 38.1525 30.517 38.0562 30.7713 37.8544C31.0257 37.6612 31.1745 37.3812 31.1745 37.0387C31.1745 36.6006 30.8676 36.2231 30.3063 35.9162C29.7888 35.6356 28.7545 35.0394 28.7545 35.0394C28.1932 34.6275 27.9126 34.1887 27.9126 33.47C27.9126 32.8737 28.1232 32.3919 28.5438 32.0231C28.9645 31.6544 29.5082 31.4706 30.1657 31.4706C30.8495 31.4706 31.472 31.655 32.0332 32.0144L31.7438 32.6456C31.2613 32.4437 30.7882 32.3387 30.3238 32.3387C29.947 32.3387 29.6576 32.4262 29.447 32.6106C29.2451 32.795 29.1138 33.0225 29.1138 33.3119C29.1138 33.75 29.4295 34.1275 29.9995 34.4519C30.5257 34.7325 31.5863 35.3375 31.5863 35.3375C32.1745 35.7331 32.4551 36.1712 32.4551 36.89Z" fill="#FA8A3B"/>
<path fill-rule="evenodd" clip-rule="evenodd" d="M44.9658 29.0873C44.2558 29.0698 43.7033 29.1398 43.2389 29.3329C43.1077 29.3854 42.8883 29.3854 42.8708 29.5523C42.9408 29.6223 42.9496 29.7367 43.0108 29.8417C43.1158 30.0173 43.3002 30.2623 43.4752 30.3854C43.6596 30.5254 43.8521 30.666 44.0452 30.7973C44.3958 31.0167 44.7814 31.1392 45.1233 31.3498C45.3164 31.4723 45.5177 31.6304 45.7108 31.7704C45.8071 31.8404 45.8683 31.9548 45.9914 31.9985V31.9723C45.9302 31.8935 45.9127 31.7792 45.8514 31.6829C45.7639 31.5954 45.6758 31.516 45.5796 31.4285C45.3164 31.0779 45.0008 30.7798 44.6502 30.5254C44.3608 30.3323 43.7383 30.061 43.6246 29.7367L43.6071 29.7192C43.8002 29.7017 44.0364 29.6317 44.2208 29.5792C44.5277 29.5004 44.7996 29.5179 45.1152 29.4392C45.2552 29.4042 45.4046 29.3604 45.5446 29.3167V29.2379C45.3871 29.0804 45.2639 28.861 45.0977 28.7117C44.6421 28.3173 44.1421 27.9404 43.6246 27.616C43.3439 27.4404 42.9933 27.3267 42.6952 27.1692C42.5902 27.1167 42.4146 27.0904 42.3446 27.0023C42.1871 26.8092 42.0902 26.5467 41.9764 26.3185C41.7221 25.8273 41.4677 25.2842 41.2489 24.7667C41.0914 24.416 40.9946 24.0742 40.7933 23.7498C39.8727 22.2329 38.8733 21.3123 37.3477 20.4185C37.0146 20.2342 36.6289 20.1467 36.2077 20.0504C35.9883 20.0417 35.7608 20.0242 35.5414 20.0154C35.4014 19.9542 35.2521 19.7873 35.1296 19.6998C34.6208 19.3754 33.3146 18.6829 32.9377 19.6035C32.7008 20.1823 33.2971 20.7523 33.4989 21.0504C33.6477 21.2523 33.8496 21.4885 33.9546 21.7167C34.0158 21.8654 34.0333 22.0323 34.0946 22.1898C34.2346 22.5842 34.3664 23.0229 34.5589 23.3823C34.6552 23.5667 34.7608 23.7679 34.8921 23.9348C34.9621 24.031 35.0852 24.0748 35.1114 24.2417C34.9889 24.4173 34.9802 24.6885 34.9096 24.9079C34.5852 25.916 34.7164 27.161 35.1727 27.906C35.3127 28.1254 35.6552 28.616 36.1108 28.4323C36.5139 28.2748 36.4264 27.766 36.5402 27.3192C36.5664 27.2142 36.5489 27.1435 36.6014 27.0735V27.091C36.7239 27.3367 36.8471 27.5823 36.9696 27.8273C37.2502 28.2654 37.7233 28.7217 38.1271 29.0198C38.3377 29.1773 38.5127 29.4579 38.7758 29.5548V29.5285H38.7583C38.7058 29.4498 38.6271 29.4148 38.5564 29.3529C38.3989 29.1954 38.2146 28.9935 38.0921 28.8179C37.7152 28.3179 37.3908 27.766 37.0927 27.196C36.9527 26.9154 36.8208 26.6173 36.7071 26.3367C36.6546 26.2317 36.6546 26.0735 36.5671 26.0123C36.4358 26.2054 36.2339 26.3804 36.1377 26.6173C35.9708 27.0029 35.9533 27.4767 35.8833 27.9673C35.8483 27.976 35.8658 27.9673 35.8483 27.9848C35.5677 27.9148 35.4627 27.6167 35.3571 27.371C35.0939 26.7398 35.0414 25.7229 35.2783 24.9867C35.3396 24.8023 35.6114 24.2154 35.4977 24.031C35.4452 23.8642 35.2696 23.7679 35.1646 23.6279C35.0508 23.461 34.9189 23.2423 34.8402 23.0579C34.6296 22.5579 34.5158 22.006 34.2877 21.506C34.1827 21.2779 33.9896 21.0329 33.8408 20.8223C33.6739 20.5854 33.4814 20.4104 33.3496 20.1298C33.3058 20.0335 33.2446 19.8667 33.3146 19.7617C33.3321 19.6917 33.3671 19.6654 33.4371 19.6479C33.5508 19.5517 33.8839 19.6742 33.9983 19.7267C34.3314 19.8579 34.6033 19.9898 34.8839 20.1735C35.0064 20.261 35.1471 20.4279 35.3046 20.4804H35.4889C35.7783 20.5417 36.0939 20.4979 36.3658 20.5767C36.8389 20.7254 37.2689 20.9535 37.6458 21.1904C38.8121 21.9267 39.7764 22.9792 40.4252 24.2417C40.5302 24.4435 40.5739 24.636 40.6796 24.8467C40.8639 25.2848 41.1002 25.7323 41.2846 26.1617C41.4689 26.5823 41.6527 27.0123 41.9158 27.3542C42.0471 27.5385 42.5821 27.6348 42.8277 27.7398C43.0033 27.8185 43.2833 27.8885 43.4414 27.9854C43.7483 28.1698 44.0464 28.3885 44.3358 28.5904C44.4921 28.6842 44.9396 28.9029 44.9658 29.0873Z" fill="#6A7E91"/>
<path fill-rule="evenodd" clip-rule="evenodd" d="M35.8739 21.3375C35.7251 21.3375 35.6195 21.355 35.5057 21.3812V21.3987H35.5232C35.5932 21.5387 35.7164 21.6356 35.8126 21.7668C35.8826 21.9068 35.9439 22.0475 36.0145 22.1962L36.032 22.1787C36.1545 22.0912 36.2164 21.9506 36.2164 21.7318C36.1639 21.6706 36.1551 21.6093 36.1114 21.5475C36.0582 21.4512 35.9445 21.4075 35.8739 21.3375Z" fill="#6A7E91"/>
<path d="M45.8158 38.9329H46.0002V38.0298H45.7196L45.4914 38.6435L45.2458 38.0298H44.9827V38.9329H45.1583V38.2404H45.1671L45.4214 38.9242H45.5527L45.8071 38.2404V38.9329H45.8158ZM44.3258 38.9329H44.5189V38.1792H44.7733V38.0217H44.0546V38.1792H44.3177V38.9329H44.3258Z" fill="#FA8A3B"/>
</g>
<defs>
<clipPath id="clip0_14368_885">
<rect width="32" height="32" fill="white" transform="translate(14 14)"/>
</clipPath>
</defs>
</svg>
