<svg width="60" height="60" viewBox="0 0 60 60" fill="none" xmlns="http://www.w3.org/2000/svg">
<rect width="60" height="60" rx="9" fill="#193991"/>
<path d="M29.4273 34.9455C29.3545 34.8727 29.3545 34.9455 29.4273 34.9455L29.0636 34.7273L28.9909 34.6545L20.4091 28.5455C20.4091 28.5455 20.3364 28.5455 20.3364 28.4727L20.1909 28.3273L20.1182 28.2545H19.9727L17.5 26.5091L22.3727 27.2364C22.5909 27.2364 22.6636 27.3091 22.8818 27.3818C22.9545 27.3818 23.1 27.4545 23.1 27.4545C23.3182 27.5273 23.3909 27.6 23.5364 27.6727C23.6818 27.7455 23.7545 27.8182 23.9 27.8909C23.9727 27.9636 24.1182 28.0364 24.1182 28.1091C24.1909 28.1818 24.2636 28.1818 24.3364 28.2545C24.4818 28.3273 24.5545 28.4 24.5545 28.4727C24.7727 28.6909 24.9182 28.9091 25.1364 29.0545L28.9909 34.5091L29.0636 34.5818L29.4273 34.9455Z" fill="#2AD2FF"/>
<path d="M29.4273 43.3818L29.0637 42.8L28.9909 42.7273L17.5728 26.5091L20.0455 28.2545L20.4818 28.5455L29.0637 34.6545H29.1364L29.4273 34.8727C29.4273 34.8727 29.5 34.8727 29.5 34.9455L29.8637 34.6545L41.4273 26.5091L29.7909 42.8L29.7182 42.8727L29.4273 43.3818Z" fill="url(#paint0_linear_14650_3754)"/>
<path d="M29.4272 32.1818L29.0636 31.6L28.9908 31.5273L26.1545 27.6L28.9908 28.1818H29.0636L29.4272 28.2545L29.7908 28.1818L32.5545 27.5273L29.7908 31.6V31.6727L29.4272 32.1818Z" fill="#2AD2FF"/>
<path d="M41.4999 26.4363L37.8636 26.9454L36.4818 27.1636C35.3909 27.3091 34.3727 27.8909 33.7181 28.8363L29.8636 34.3636L29.7909 34.4363L29.4272 34.9454L29.8636 34.5091L29.9363 34.4363L29.4272 34.9454L39.2454 27.9636L41.4999 26.4363Z" fill="#2AD2FF"/>
<path d="M31.2454 14.9454C31.2454 18.1454 25.7182 19.8181 25.7182 23.2363C25.6454 24.0363 25.8636 24.8363 26.2273 25.5636C26.2273 25.5636 24.1182 23.5272 24.1182 21.3454C24.1182 19.1636 26.1545 15.8909 26.1545 15.8909C26.1545 17.3454 26.7363 17.7818 27.3182 17.8545H27.3909C28.0454 17.8545 28.4091 17.3454 28.4091 16.6181C28.4091 15.8909 27.6091 15.1636 27.6091 13.7091C27.6091 12.3272 29.3545 10.0727 29.3545 10.0727C30.5909 11.5272 31.2454 13.2 31.2454 14.9454Z" fill="#2AF4FF"/>
<path d="M29.7182 26.5818C27.9728 26.5818 26.6637 25.2 26.6637 23.5273V23.4545C26.6637 19.7455 31.8273 19.3818 31.8273 14.3636C31.9728 14.5818 33.3546 16.4727 33.3546 18.5091C33.3546 21.0545 30.9546 21.7091 30.9546 22.9455C30.9546 23.4545 31.1728 23.8182 31.9001 23.8182C31.9728 23.8182 32.0455 23.8182 32.1182 23.7455C33.5001 23.1636 34.4455 21.8545 34.5182 20.3273C34.5182 20.4 35.2455 26.5818 29.7182 26.5818Z" fill="#2AF4FF"/>
<path d="M31.9727 23.8182C32.0455 23.8182 32.1182 23.8182 32.1909 23.7455C31.4636 23.9636 28.7727 24.6182 28.7727 22.7273C28.7727 20.4 32.7727 19.8909 32.7727 17.9273C32.7727 16.6909 32.4818 15.4545 31.8273 14.3636C31.9727 14.5818 33.3546 16.4727 33.3546 18.5091C33.3546 21.0545 30.9546 21.7091 30.9546 22.9455C31.0273 23.4545 31.3182 23.8182 31.9727 23.8182Z" fill="#2AD2FF"/>
<path d="M29.7909 16.2545C29.7909 18.0727 27.4636 17.9273 27.3182 17.8545H27.5364C28.1909 17.8545 28.5545 17.3454 28.5545 16.6182C28.5545 15.8909 27.7545 15.1636 27.7545 13.7091C27.7545 12.3273 29.5 10.0727 29.5 10.0727C28.9182 11.0182 28.6273 12.0363 28.5545 13.0545C28.5545 14.7273 29.7909 14.8727 29.7909 16.2545Z" fill="#2AD2FF"/>
<path d="M28.3361 48.0363L26.7361 46.9454H28.6998L29.3543 44.9818L29.9361 46.9454H31.8998L30.2998 48.0363L30.8816 49.9273L29.2816 48.7636L27.6089 49.9273L28.3361 48.0363Z" fill="#2AD2FF"/>
<path d="M36.6998 48.0363L35.0998 46.9454H37.0634L37.718 44.9818L38.2998 46.9454H40.2634L38.6634 48.0363L39.2452 49.9273L37.6452 48.7636L35.9725 49.9273L36.6998 48.0363Z" fill="#2AD2FF"/>
<path d="M20.0453 48.0363L18.4453 46.9454H20.4089L21.0635 44.9818L21.6453 46.9454H23.6089L22.0089 48.0363L22.5908 49.9273L20.9908 48.7636L19.3908 49.9273L20.0453 48.0363Z" fill="#2AD2FF"/>
<defs>
<linearGradient id="paint0_linear_14650_3754" x1="17.5" y1="43.4124" x2="17.5" y2="34.4858" gradientUnits="userSpaceOnUse">
<stop offset="0.73" stop-color="#2AF4FF"/>
<stop offset="0.884" stop-color="#2AF4FF"/>
</linearGradient>
</defs>
</svg>
