<svg width="60" height="60" viewBox="0 0 60 60" fill="none" xmlns="http://www.w3.org/2000/svg">
<rect width="60" height="60" rx="9" fill="#333333"/>
<path fill-rule="evenodd" clip-rule="evenodd" d="M39.6011 18.2272L40.2339 19.0603C40.4 19.2801 40.3584 19.5952 40.1386 19.7614L39.4668 20.2719C39.5889 20.5968 39.6671 20.9437 39.6989 21.298L40.4635 21.403C40.7371 21.4397 40.9277 21.6937 40.891 21.9673L40.7493 23.0056C40.7127 23.2792 40.4586 23.4722 40.185 23.4331L39.3495 23.3183C39.2005 23.6432 39.01 23.9412 38.7852 24.2075L39.2543 24.8231C39.4204 25.043 39.3764 25.3581 39.1565 25.5242L38.3235 26.1569C38.1036 26.323 37.7885 26.2791 37.6224 26.0617L37.1118 25.3898C36.7845 25.512 36.44 25.5902 36.0833 25.6219L35.9783 26.3866C35.9417 26.6602 35.6876 26.8507 35.414 26.8141L34.3757 26.6724C34.1021 26.6357 33.9116 26.3817 33.9482 26.1081L34.0631 25.2726C33.7406 25.1236 33.4401 24.933 33.1738 24.7107L32.5582 25.1773C32.3384 25.3434 32.0232 25.3019 31.8571 25.082L31.2244 24.249C31.0583 24.0291 31.0998 23.714 31.3197 23.5479L31.9915 23.0373C31.8693 22.71 31.7911 22.3655 31.7594 22.0113L30.9947 21.9062C30.7211 21.8696 30.5281 21.6155 30.5672 21.3419L30.7089 20.3037C30.748 20.0301 30.9996 19.8395 31.2732 19.8762L32.1087 19.991C32.2577 19.6685 32.4483 19.3681 32.6706 19.1018L32.204 18.4862C32.0379 18.2687 32.0794 17.9536 32.2993 17.7875L33.1323 17.1548C33.3522 16.9887 33.6673 17.0302 33.8334 17.25L34.344 17.9219C34.6689 17.7997 35.0158 17.7215 35.37 17.6898L35.4751 16.9251C35.5117 16.6515 35.7658 16.4585 36.0394 16.4952L37.0776 16.6369C37.3512 16.6735 37.5442 16.9276 37.5051 17.2012L37.3903 18.0367C37.7152 18.1857 38.0132 18.3762 38.282 18.601L38.8976 18.1344C39.1174 17.9658 39.4326 18.0074 39.6011 18.2272ZM21.7385 32.8872V28.8563H23.815C24.201 28.8563 24.4941 28.8881 24.6969 28.9565C24.8997 29.0225 25.0658 29.1446 25.1879 29.3229C25.3125 29.5037 25.376 29.7211 25.376 29.9776C25.376 30.2 25.3272 30.3954 25.2319 30.5566C25.1366 30.7203 25.0047 30.8522 24.8386 30.9524C24.7336 31.0159 24.587 31.0696 24.4013 31.1112C24.5503 31.1625 24.6578 31.2089 24.7238 31.2602C24.7702 31.2944 24.8362 31.3652 24.9217 31.4727C25.0072 31.5802 25.0658 31.6657 25.0951 31.7243L25.7009 32.8896H24.2938L23.6294 31.6608C23.5438 31.502 23.4706 31.397 23.4046 31.3506C23.3142 31.2895 23.2116 31.2577 23.0992 31.2577H22.9893V32.8896H21.7385V32.8872ZM26.1309 39.9057H23.8052L23.4706 41.0001H21.3745L23.8736 34.3578H26.1211L28.6105 41.0001H26.4607L26.1309 39.9057ZM25.6961 38.4668L24.9705 36.0776L24.2425 38.4668H25.6961ZM29.0942 34.3578H32.5094C33.2544 34.3578 33.8114 34.5337 34.1803 34.8879C34.5492 35.2421 34.7349 35.7478 34.7349 36.4001C34.7349 37.0719 34.5321 37.5971 34.129 37.9758C33.7259 38.3544 33.1079 38.5425 32.2797 38.5425H31.1535V41.0001H29.0942V34.3578ZM31.1535 37.1965H31.6592C32.0574 37.1965 32.3384 37.1281 32.4996 36.9888C32.6608 36.852 32.7414 36.6737 32.7414 36.4612C32.7414 36.2535 32.6706 36.0752 32.5313 35.931C32.3921 35.7869 32.1283 35.7136 31.7423 35.7136H31.1535V37.1965ZM35.5654 34.3578H37.6248V41.0001H35.5654V34.3578ZM22.9893 30.4931H23.5145C23.5707 30.4931 23.6807 30.4736 23.8443 30.4369C23.9274 30.4198 23.9958 30.3783 24.0471 30.3099C24.1008 30.2415 24.1253 30.1633 24.1253 30.0754C24.1253 29.9459 24.0837 29.8433 24.0007 29.7749C23.9176 29.704 23.7637 29.6698 23.5365 29.6698H22.9893V30.4931ZM25.9404 28.8563H29.2749V29.7163H27.1911V30.3587H29.1235V31.1796H27.1911V31.9735H29.336V32.8847H25.9404V28.8563ZM29.6316 31.5533L30.814 31.48C30.8384 31.673 30.8921 31.8172 30.9703 31.9173C31.0998 32.0786 31.283 32.1616 31.52 32.1616C31.6959 32.1616 31.8351 32.1201 31.9304 32.037C32.0257 31.954 32.0745 31.8563 32.0745 31.7463C32.0745 31.6413 32.0281 31.5484 31.9377 31.4654C31.8473 31.3823 31.6348 31.3066 31.3001 31.2309C30.7553 31.1087 30.3669 30.945 30.1324 30.7423C29.8979 30.5395 29.7806 30.2806 29.7806 29.9654C29.7806 29.7578 29.8417 29.5624 29.9614 29.3791C30.0811 29.1959 30.2619 29.0493 30.5037 28.9443C30.7456 28.8392 31.0754 28.7879 31.4955 28.7879C32.011 28.7879 32.4019 28.8832 32.673 29.0762C32.9418 29.2692 33.103 29.5721 33.1543 29.9923L31.9841 30.0632C31.9524 29.8799 31.8864 29.7456 31.7887 29.665C31.6885 29.5819 31.5493 29.5404 31.3758 29.5404C31.2317 29.5404 31.1218 29.5721 31.0485 29.6332C30.9752 29.6943 30.9386 29.77 30.9386 29.8579C30.9386 29.9215 30.9703 29.9776 31.0289 30.0314C31.0876 30.0827 31.2244 30.134 31.4442 30.1804C31.989 30.2977 32.3799 30.4174 32.6144 30.5371C32.8489 30.6568 33.0224 30.8058 33.1274 30.9841C33.2349 31.16 33.2886 31.3603 33.2886 31.5802C33.2886 31.8392 33.2178 32.0761 33.0737 32.2935C32.932 32.511 32.7317 32.6771 32.4752 32.7894C32.2186 32.9018 31.8962 32.958 31.5053 32.958C30.8213 32.958 30.3449 32.8261 30.0811 32.5623C29.8173 32.2935 29.6682 31.9589 29.6316 31.5533ZM33.4694 28.8563H37.2584V29.8531H35.9881V32.8872H34.7422V29.8531H33.4694V28.8563ZM29.2774 19.2899C28.8303 19.2557 28.3784 19.2606 27.9313 19.3045C26.556 19.4365 25.2197 19.9373 24.1155 20.7947C22.8378 21.7841 21.868 23.2645 21.4942 25.2262L21.377 25.8393L20.7663 25.9468C20.1677 26.0519 19.6327 26.196 19.1637 26.3792C18.7093 26.5551 18.3038 26.7725 17.9496 27.029C17.6662 27.2343 17.4219 27.4639 17.2143 27.7131C16.5718 28.4826 16.2737 29.4475 16.2811 30.4247C16.2884 31.4165 16.6108 32.4181 17.2069 33.2414C17.4292 33.5468 17.6857 33.8277 17.9789 34.072C18.2769 34.3187 18.6116 34.5239 18.9878 34.6778C19.2003 34.7658 19.4275 34.8391 19.6645 34.8977V36.7274C19.1759 36.6395 18.7264 36.5076 18.3062 36.3341C17.7517 36.1045 17.2607 35.8089 16.8283 35.4473C16.4179 35.1053 16.0588 34.7169 15.7534 34.2943C14.9399 33.1705 14.5002 31.7976 14.4904 30.4296C14.4806 29.0469 14.9106 27.6715 15.8389 26.5576C16.1394 26.196 16.4936 25.8638 16.8991 25.5706C17.3706 25.2286 17.9105 24.9404 18.5212 24.7034C18.9414 24.5397 19.3909 24.4029 19.8648 24.293C20.4023 22.1579 21.548 20.5138 23.0211 19.3729C24.3989 18.3054 26.0576 17.6824 27.7652 17.5188C28.6618 17.4333 29.5705 17.4724 30.4597 17.6385C30.4402 17.7191 30.4231 17.7997 30.4133 17.8828L30.4109 17.8974C30.3938 18.0367 30.3865 18.1759 30.3938 18.3176C30.2057 18.3909 30.0298 18.4911 29.871 18.6132L29.8637 18.6181C29.6267 18.7964 29.4264 19.026 29.2774 19.2899ZM42.2029 23.9803C42.3397 24.1049 42.4716 24.2343 42.601 24.3736C42.8624 24.6545 43.1092 24.9721 43.3413 25.3263C44.123 26.5282 44.5236 28.1332 44.5065 29.704C44.4894 31.2455 44.0741 32.7797 43.224 33.9083C42.6695 34.6436 41.9586 35.2446 41.106 35.7209C40.5221 36.0483 39.865 36.3195 39.1492 36.5393V34.6461C39.5352 34.5019 39.8943 34.3407 40.2241 34.1575C40.8666 33.7984 41.3918 33.3611 41.7851 32.8359C42.3958 32.0224 42.6963 30.8718 42.7085 29.6918C42.7232 28.4533 42.4203 27.2098 41.8315 26.3059C41.663 26.0446 41.4773 25.81 41.2819 25.5999C41.2061 25.5193 41.1304 25.4436 41.0522 25.3703C41.0645 25.2482 41.0693 25.1236 41.062 24.999C41.2501 24.9257 41.426 24.8255 41.5848 24.7034L41.5921 24.6985C41.8437 24.5055 42.0538 24.2612 42.2029 23.9803ZM36.0076 19.6172C37.1338 19.7711 37.9204 20.8094 37.7665 21.9356C37.6126 23.0617 36.5744 23.8508 35.4482 23.6969C34.322 23.543 33.5329 22.5048 33.6893 21.3786C33.8456 20.2524 34.8814 19.4633 36.0076 19.6172Z" fill="#408FCA"/>
</svg>
