<svg width="32" height="32" viewBox="0 0 32 32" fill="none" xmlns="http://www.w3.org/2000/svg">
<g clip-path="url(#clip0_14368_970)">
<path d="M9.19113 15.701C9.19113 16.0829 9.23242 16.3926 9.30468 16.6197C9.38726 16.8468 9.49049 17.0945 9.635 17.3629C9.68661 17.4455 9.70726 17.5281 9.70726 17.6003C9.70726 17.7036 9.64532 17.8068 9.51113 17.91L8.86081 18.3436C8.76791 18.4055 8.675 18.4365 8.59242 18.4365C8.4892 18.4365 8.38597 18.3848 8.28274 18.2919C8.13823 18.1371 8.01436 17.9719 7.91113 17.8068C7.80791 17.6313 7.70468 17.4352 7.59113 17.1977C6.78597 18.1474 5.77436 18.6223 4.55629 18.6223C3.6892 18.6223 2.99758 18.3745 2.49178 17.879C1.98597 17.3836 1.72791 16.7229 1.72791 15.8971C1.72791 15.0197 2.03758 14.3074 2.66726 13.7707C3.29694 13.2339 4.13307 12.9655 5.19629 12.9655C5.54726 12.9655 5.90855 12.9965 6.29049 13.0481C6.67242 13.0997 7.06468 13.1823 7.47758 13.2752V12.5216C7.47758 11.7371 7.31242 11.19 6.99242 10.87C6.6621 10.55 6.10468 10.3952 5.30984 10.3952C4.94855 10.3952 4.57694 10.4365 4.195 10.5294C3.81307 10.6223 3.44145 10.7358 3.08016 10.8803C2.915 10.9526 2.79113 10.9939 2.71887 11.0145C2.64661 11.0352 2.595 11.0455 2.55371 11.0455C2.4092 11.0455 2.33694 10.9423 2.33694 10.7255V10.2197C2.33694 10.0545 2.35758 9.93065 2.4092 9.85839C2.46081 9.78613 2.55371 9.71388 2.69823 9.64162C3.05952 9.45581 3.49307 9.30097 3.99887 9.1771C4.50468 9.04291 5.04145 8.98097 5.6092 8.98097C6.83758 8.98097 7.73565 9.25968 8.31371 9.8171C8.88145 10.3745 9.17049 11.221 9.17049 12.3565V15.701H9.19113ZM5.00016 17.27C5.34081 17.27 5.69178 17.2081 6.06339 17.0842C6.435 16.9603 6.76532 16.7332 7.04403 16.4236C7.2092 16.2274 7.33307 16.0107 7.395 15.7629C7.45694 15.5152 7.49823 15.2158 7.49823 14.8648V14.4313C7.19887 14.359 6.87887 14.2971 6.54855 14.2558C6.21823 14.2145 5.89823 14.1939 5.57823 14.1939C4.88662 14.1939 4.38081 14.3281 4.04016 14.6068C3.69952 14.8855 3.53436 15.2777 3.53436 15.7939C3.53436 16.279 3.65823 16.6403 3.91629 16.8881C4.16403 17.1461 4.52532 17.27 5.00016 17.27ZM13.2892 18.3848C13.1034 18.3848 12.9795 18.3539 12.8969 18.2816C12.8144 18.2197 12.7421 18.0752 12.6802 17.879L10.2544 9.89968C10.1924 9.69323 10.1615 9.55904 10.1615 9.48678C10.1615 9.32162 10.244 9.22871 10.4092 9.22871H11.4208C11.6169 9.22871 11.7511 9.25968 11.8234 9.33194C11.906 9.39388 11.9679 9.53839 12.0298 9.73452L13.764 16.5681L15.3744 9.73452C15.426 9.52807 15.4879 9.39388 15.5705 9.33194C15.6531 9.27 15.7976 9.22871 15.9834 9.22871H16.8092C17.0053 9.22871 17.1395 9.25968 17.2221 9.33194C17.3047 9.39388 17.3769 9.53839 17.4182 9.73452L19.0492 16.6507L20.835 9.73452C20.8969 9.52807 20.9692 9.39388 21.0415 9.33194C21.124 9.27 21.2582 9.22871 21.444 9.22871H22.404C22.5692 9.22871 22.6621 9.31129 22.6621 9.48678C22.6621 9.53839 22.6518 9.59 22.6415 9.65194C22.6311 9.71388 22.6105 9.79646 22.5692 9.91L20.0815 17.8894C20.0195 18.0958 19.9473 18.23 19.8647 18.2919C19.7821 18.3539 19.6479 18.3952 19.4724 18.3952H18.5847C18.3885 18.3952 18.2544 18.3642 18.1718 18.2919C18.0892 18.2197 18.0169 18.0855 17.9756 17.879L16.3756 11.221L14.786 17.8687C14.7344 18.0752 14.6724 18.2094 14.5898 18.2816C14.5073 18.3539 14.3627 18.3848 14.1769 18.3848H13.2892ZM26.5537 18.6636C26.0169 18.6636 25.4802 18.6016 24.964 18.4777C24.4479 18.3539 24.0453 18.2197 23.7769 18.0648C23.6118 17.9719 23.4982 17.8687 23.4569 17.7758C23.4156 17.6829 23.395 17.5797 23.395 17.4868V16.9603C23.395 16.7436 23.4776 16.6403 23.6324 16.6403C23.6944 16.6403 23.7563 16.6507 23.8182 16.6713C23.8802 16.6919 23.9731 16.7332 24.0763 16.7745C24.4273 16.9294 24.8092 17.0532 25.2118 17.1358C25.6247 17.2184 26.0273 17.2597 26.4402 17.2597C27.0905 17.2597 27.5963 17.1461 27.9473 16.919C28.2982 16.6919 28.484 16.3616 28.484 15.9384C28.484 15.6494 28.3911 15.4119 28.2053 15.2158C28.0195 15.0197 27.6685 14.8442 27.1627 14.679L25.666 14.2145C24.9124 13.9771 24.355 13.6261 24.0144 13.1616C23.6737 12.7074 23.4982 12.2016 23.4982 11.6648C23.4982 11.2313 23.5911 10.8494 23.7769 10.519C23.9627 10.1887 24.2105 9.89968 24.5202 9.67259C24.8298 9.43517 25.1808 9.25968 25.5937 9.13581C26.0066 9.01194 26.4402 8.96033 26.8944 8.96033C27.1215 8.96033 27.3589 8.97065 27.586 9.00162C27.8234 9.03259 28.0402 9.07388 28.2569 9.11517C28.4634 9.16678 28.6595 9.21839 28.8453 9.28033C29.0311 9.34226 29.1756 9.4042 29.2789 9.46613C29.4234 9.54871 29.5266 9.63129 29.5885 9.7242C29.6505 9.80678 29.6815 9.92033 29.6815 10.0648V10.55C29.6815 10.7668 29.5989 10.8803 29.444 10.8803C29.3615 10.8803 29.2273 10.839 29.0518 10.7565C28.4634 10.4881 27.8027 10.3539 27.0698 10.3539C26.4815 10.3539 26.0169 10.4468 25.6969 10.6429C25.3769 10.839 25.2118 11.1384 25.2118 11.5616C25.2118 11.8506 25.315 12.0984 25.5215 12.2945C25.7279 12.4907 26.1098 12.6868 26.6569 12.8623L28.1227 13.3268C28.866 13.5642 29.4027 13.8945 29.7227 14.3177C30.0427 14.741 30.1976 15.2261 30.1976 15.7629C30.1976 16.2068 30.1047 16.6094 29.9292 16.9603C29.7434 17.3113 29.4956 17.621 29.1756 17.8687C28.8556 18.1268 28.4737 18.3126 28.0298 18.4468C27.5653 18.5913 27.0802 18.6636 26.5537 18.6636Z" fill="#E3E3E3"/>
<path fill-rule="evenodd" clip-rule="evenodd" d="M28.5059 23.6798C25.1098 26.1882 20.1756 27.5198 15.933 27.5198C9.98717 27.5198 4.62975 25.3211 0.583299 21.6669C0.263299 21.3779 0.552332 20.9857 0.934267 21.2128C5.31104 23.7521 10.7098 25.2902 16.2943 25.2902C20.062 25.2902 24.2014 24.5057 28.0104 22.8953C28.5781 22.6373 29.0633 23.2669 28.5059 23.6798Z" fill="#FF9900"/>
<path fill-rule="evenodd" clip-rule="evenodd" d="M29.9201 22.0697C29.4865 21.5123 27.0504 21.8013 25.9459 21.9355C25.6155 21.9768 25.5639 21.6878 25.8633 21.471C27.8039 20.1084 30.9936 20.5007 31.3652 20.9549C31.7368 21.4194 31.262 24.6091 29.4452 26.1368C29.1665 26.3742 28.8981 26.2504 29.022 25.9407C29.4349 24.9188 30.3536 22.6168 29.9201 22.0697Z" fill="#FF9900"/>
</g>
<defs>
<clipPath id="clip0_14368_970">
<rect width="31.6724" height="18.56" fill="white" transform="translate(0.163696 8.96014)"/>
</clipPath>
</defs>
</svg>
