<svg width="60" height="60" viewBox="0 0 60 60" fill="none" xmlns="http://www.w3.org/2000/svg">
<rect width="60" height="60" rx="9" fill="#333333"/>
<path d="M16.2734 30.0002C16.2734 35.4334 19.4307 40.1282 24.009 42.3534L17.4617 24.4142C16.6768 26.1718 16.2719 28.0753 16.2734 30.0002ZM39.2649 29.3075C39.2649 27.6112 38.6556 26.4365 38.133 25.5221C37.4372 24.3915 36.7853 23.434 36.7853 22.3034C36.7853 21.0417 37.742 19.8672 39.0899 19.8672C39.1508 19.8672 39.2085 19.8747 39.268 19.8781C36.8258 17.6409 33.5724 16.275 29.999 16.275C25.2039 16.275 20.9852 18.7352 18.531 22.4617C18.853 22.4713 19.1567 22.4779 19.4142 22.4779C20.8499 22.4779 23.0722 22.3037 23.0722 22.3037C23.8121 22.26 23.8994 23.3468 23.1605 23.4343C23.1605 23.4343 22.4167 23.5218 21.5893 23.5651L26.5876 38.4324L29.5916 29.4238L27.4529 23.5649C26.7137 23.5215 26.0135 23.434 26.0135 23.434C25.2739 23.3907 25.3606 22.2598 26.1003 22.3034C26.1003 22.3034 28.367 22.4776 29.7157 22.4776C31.1511 22.4776 33.3736 22.3034 33.3736 22.3034C34.1141 22.2598 34.201 23.3465 33.4617 23.434C33.4617 23.434 32.7165 23.5215 31.8907 23.5649L36.8509 38.3196L38.2197 33.7446C38.8133 31.8461 39.2649 30.4826 39.2649 29.3075Z" fill="#00749A"/>
<path d="M30.2415 31.2006L26.1233 43.167C27.3823 43.5381 28.6881 43.7265 30.0007 43.7265C31.5991 43.7265 33.1319 43.4499 34.5587 42.9484C34.5204 42.8885 34.4877 42.8252 34.461 42.7593L30.2415 31.2006ZM42.0445 23.4148C42.1035 23.852 42.1369 24.3216 42.1369 24.8261C42.1369 26.219 41.8768 27.7847 41.0933 29.7425L36.9006 41.8643C40.9812 39.4848 43.7259 35.0639 43.7259 30C43.7296 27.6983 43.1512 25.433 42.0445 23.4148Z" fill="#00749A"/>
<path d="M30 14C21.1778 14 14 21.1773 14 29.9995C14 38.8227 21.1776 46 30 46C38.8219 46 46.0008 38.823 46.0008 29.9995C46.0005 21.1773 38.8219 14 30 14ZM30 45.2664C21.5824 45.2664 14.7336 38.4176 14.7336 29.9995C14.7336 21.5821 21.5821 14.7339 30 14.7339C38.4174 14.7339 45.2656 21.5821 45.2656 29.9995C45.2656 38.4176 38.4171 45.2664 30 45.2664Z" fill="#00749A"/>
</svg>
