<svg width="60" height="60" viewBox="0 0 60 60" fill="none" xmlns="http://www.w3.org/2000/svg">
<rect width="60" height="60" rx="9" fill="#333333"/>
<mask id="mask0_14368_839" style="mask-type:luminance" maskUnits="userSpaceOnUse" x="14" y="22" width="32" height="17">
<path d="M14.8359 30.1822C14.8359 34.5795 21.6127 38.1443 29.9719 38.1443C38.3312 38.1443 45.108 34.5795 45.108 30.1822C45.108 25.785 38.3312 22.2201 29.9719 22.2201C21.6127 22.2201 14.8359 25.785 14.8359 30.1822Z" fill="white"/>
</mask>
<g mask="url(#mask0_14368_839)">
<path d="M14.8348 30.1821C14.8348 34.5794 21.6115 38.1442 29.9708 38.1442C38.33 38.1442 45.1068 34.5794 45.1068 30.1821C45.1068 25.7848 38.33 22.2199 29.9708 22.2199C21.6115 22.2199 14.8348 25.7848 14.8348 30.1821Z" fill="url(#paint0_radial_14368_839)"/>
</g>
<mask id="mask1_14368_839" style="mask-type:luminance" maskUnits="userSpaceOnUse" x="14" y="21" width="32" height="19">
<path d="M14.2109 21.3172H45.7443V39.0547H14.2109V21.3172Z" fill="white"/>
</mask>
<g mask="url(#mask1_14368_839)">
<path d="M29.9803 37.5547C38.013 37.5547 44.525 34.2546 44.525 30.1837C44.525 26.1129 38.013 22.8127 29.9803 22.8127C21.9476 22.8127 15.4355 26.1129 15.4355 30.1837C15.4355 34.2546 21.9476 37.5547 29.9803 37.5547Z" fill="#777BB3"/>
</g>
<mask id="mask2_14368_839" style="mask-type:luminance" maskUnits="userSpaceOnUse" x="14" y="21" width="32" height="19">
<path d="M14.2109 21.3172H45.7443V39.0547H14.2109V21.3172Z" fill="white"/>
</mask>
<g mask="url(#mask2_14368_839)">
<path d="M23.0678 31.0998C23.7283 31.0998 24.2214 30.978 24.5334 30.7379C24.842 30.5002 25.0552 30.0885 25.1669 29.5141C25.2711 28.9773 25.2314 28.6025 25.049 28.4002C24.8625 28.1936 24.4592 28.0888 23.8505 28.0888H22.7949L22.2097 31.0998H23.0678ZM19.6154 34.8088C19.5664 34.8088 19.5198 34.7869 19.4887 34.749C19.4575 34.7112 19.4448 34.6613 19.4542 34.6132L21.005 26.634C21.02 26.5569 21.0876 26.5012 21.1662 26.5012H24.5087C25.5591 26.5012 26.341 26.7864 26.8324 27.349C27.3265 27.9146 27.4791 28.7052 27.2859 29.6987C27.2073 30.1035 27.0721 30.4795 26.884 30.816C26.6957 31.153 26.4469 31.4648 26.1444 31.7429C25.7822 32.0819 25.3722 32.3277 24.927 32.4723C24.4889 32.615 23.9262 32.6874 23.2547 32.6874H21.9013L21.5148 34.6759C21.4998 34.753 21.4322 34.8088 21.3536 34.8088H19.6154Z" fill="black"/>
<path d="M22.9305 28.2562H23.8506C24.5854 28.2562 24.8406 28.4174 24.9273 28.5135C25.0712 28.673 25.0984 29.0094 25.0059 29.4861C24.902 30.0199 24.7094 30.3984 24.4334 30.6109C24.1508 30.8284 23.6913 30.9387 23.068 30.9387H22.4091L22.9305 28.2562ZM24.5089 26.3401H21.1664C21.0091 26.3401 20.874 26.4515 20.844 26.6059L19.2932 34.5851C19.2744 34.6814 19.2997 34.7809 19.3621 34.8567C19.4245 34.9324 19.5174 34.9762 19.6155 34.9762H21.3537C21.511 34.9762 21.6462 34.8647 21.6762 34.7104L22.0368 32.8548H23.2549C23.9437 32.8548 24.5235 32.7797 24.9782 32.6316C25.4458 32.4797 25.876 32.2221 26.2567 31.866C26.5716 31.5763 26.831 31.2511 27.0275 30.8994C27.2241 30.5475 27.3654 30.1552 27.4473 29.7332C27.6507 28.6873 27.4855 27.8499 26.9563 27.2441C26.4323 26.6442 25.6088 26.3401 24.5089 26.3401ZM22.0107 31.2672H23.068C23.7687 31.2672 24.2907 31.1352 24.6337 30.8711C24.9768 30.607 25.2081 30.1663 25.3283 29.5487C25.4434 28.9557 25.391 28.5372 25.1712 28.2934C24.9511 28.0496 24.511 27.9277 23.8506 27.9277H22.6597L22.0107 31.2672ZM24.5089 26.6686C25.5144 26.6686 26.2479 26.9324 26.709 27.4602C27.17 27.988 27.3088 28.7247 27.1249 29.6706C27.0491 30.0602 26.9211 30.4164 26.7408 30.7391C26.5603 31.0621 26.3246 31.3574 26.0334 31.6251C25.6863 31.95 25.3007 32.1814 24.8765 32.3193C24.4522 32.4575 23.9118 32.5263 23.2549 32.5263H21.766L21.3537 34.6477H19.6155L21.1664 26.6686H24.5089Z" fill="white"/>
<path d="M31.2715 32.6877C31.2224 32.6877 31.1759 32.6658 31.1448 32.6279C31.1135 32.5901 31.1009 32.5403 31.1102 32.4921L31.7963 28.9617C31.8615 28.6259 31.8454 28.3849 31.751 28.2831C31.6932 28.2208 31.5195 28.1164 31.0061 28.1164H29.7632L28.9007 32.5548C28.8857 32.632 28.8181 32.6877 28.7395 32.6877H27.015C26.966 32.6877 26.9195 32.6658 26.8883 32.6279C26.8571 32.5901 26.8444 32.5403 26.8538 32.4921L28.4046 24.5129C28.4196 24.4358 28.4872 24.3801 28.5658 24.3801H30.2903C30.3394 24.3801 30.3859 24.402 30.4171 24.4398C30.4483 24.4777 30.4609 24.5274 30.4515 24.5756L30.0773 26.5015H31.4143C32.4328 26.5015 33.1235 26.681 33.5258 27.0504C33.9358 27.4273 34.0638 28.0299 33.9061 28.8417L33.1845 32.5548C33.1695 32.632 33.102 32.6877 33.0233 32.6877H31.2715Z" fill="black"/>
<path d="M30.2905 24.2188H28.566C28.4087 24.2188 28.2736 24.3303 28.2436 24.4846L26.6927 32.4638C26.674 32.5601 26.6993 32.6597 26.7617 32.7354C26.8241 32.8111 26.9171 32.8549 27.0152 32.8549H28.7397C28.8969 32.8549 29.0321 32.7434 29.0621 32.5891L29.8988 28.2837H31.0062C31.5188 28.2837 31.6264 28.3931 31.6307 28.3978C31.6618 28.4313 31.7027 28.5862 31.6352 28.9333L30.9492 32.4638C30.9305 32.5601 30.9558 32.6597 31.0182 32.7354C31.0806 32.8111 31.1735 32.8549 31.2717 32.8549H33.0235C33.1807 32.8549 33.316 32.7434 33.346 32.5891L34.0674 28.876C34.2368 28.0044 34.0919 27.3506 33.6371 26.9325C33.2031 26.5339 32.4761 26.3402 31.4145 26.3402H30.2767L30.613 24.61C30.6316 24.5137 30.6064 24.414 30.544 24.3384C30.4816 24.2627 30.3886 24.2188 30.2905 24.2188ZM30.2905 24.5473L29.8782 26.6687H31.4145C32.3811 26.6687 33.0479 26.8374 33.4148 27.1744C33.7818 27.5116 33.8917 28.058 33.745 28.8134L33.0235 32.5264H31.2717L31.9577 28.996C32.0357 28.5944 32.007 28.3204 31.8715 28.1744C31.7359 28.0283 31.4474 27.9552 31.0062 27.9552H29.628L28.7397 32.5264H27.0152L28.566 24.5473H30.2905Z" fill="white"/>
<path d="M36.6326 31.0998C37.2931 31.0998 37.7862 30.978 38.0982 30.7379C38.4068 30.5003 38.62 30.0885 38.7318 29.5141C38.836 28.9773 38.7963 28.6025 38.6138 28.4002C38.4273 28.1936 38.024 28.0888 37.4153 28.0888H36.3597L35.7746 31.0998H36.6326ZM33.1802 34.8088C33.1312 34.8088 33.0847 34.7869 33.0535 34.749C33.0223 34.7112 33.0096 34.6613 33.019 34.6132L34.5698 26.634C34.5849 26.5569 34.6524 26.5012 34.7311 26.5012H38.0735C39.124 26.5012 39.9058 26.7864 40.3973 27.349C40.8914 27.9145 41.0439 28.7051 40.8508 29.6987C40.772 30.1035 40.6369 30.4795 40.4488 30.816C40.2606 31.153 40.0117 31.4648 39.7092 31.7429C39.347 32.0819 38.937 32.3277 38.4918 32.4723C38.0537 32.615 37.491 32.6874 36.8195 32.6874H35.466L35.0797 34.6759C35.0646 34.753 34.9971 34.8088 34.9184 34.8088H33.1802Z" fill="black"/>
<path d="M36.4941 28.256H37.4143C38.149 28.256 38.4042 28.4172 38.4909 28.5133C38.6349 28.6728 38.662 29.0092 38.5695 29.4859C38.4656 30.0197 38.2729 30.3982 37.997 30.6107C37.7144 30.8283 37.2549 30.9385 36.6316 30.9385H35.9728L36.4941 28.256ZM38.0725 26.3399H34.73C34.5728 26.3399 34.4376 26.4514 34.4076 26.6057L32.8568 34.5849C32.8381 34.6812 32.8634 34.7808 32.9257 34.8565C32.9881 34.9322 33.0811 34.976 33.1792 34.976H34.9174C35.0746 34.976 35.2098 34.8645 35.2398 34.7102L35.6004 32.8546H36.8185C37.5073 32.8546 38.0871 32.7795 38.5418 32.6314C39.0094 32.4795 39.4397 32.2219 39.8204 31.8657C40.1353 31.5761 40.3946 31.2509 40.5911 30.8992C40.7877 30.5474 40.929 30.155 41.0109 29.733C41.2143 28.6871 41.0491 27.8496 40.5199 27.2439C39.9959 26.6441 39.1725 26.3399 38.0725 26.3399ZM35.5743 31.267H36.6316C37.3324 31.267 37.8544 31.135 38.1973 30.871C38.5404 30.6069 38.7717 30.1661 38.8919 29.5485C39.007 28.9555 38.9546 28.537 38.7348 28.2932C38.5147 28.0494 38.0746 27.9275 37.4143 27.9275H36.2233L35.5743 31.267ZM38.0725 26.6684C39.078 26.6684 39.8115 26.9322 40.2726 27.46C40.7336 27.9878 40.8724 28.7246 40.6885 29.6704C40.6128 30.06 40.4847 30.4162 40.3044 30.739C40.1239 31.0619 39.8883 31.3572 39.597 31.625C39.2499 31.9498 38.8643 32.1812 38.4401 32.3191C38.0158 32.4573 37.4754 32.5261 36.8185 32.5261H35.3296L34.9174 34.6475H33.1792L34.73 26.6684H38.0725Z" fill="white"/>
</g>
<defs>
<radialGradient id="paint0_radial_14368_839" cx="0" cy="0" r="1" gradientUnits="userSpaceOnUse" gradientTransform="translate(23.9225 25.0192) scale(19.8757 19.8757)">
<stop stop-color="#AEB2D5"/>
<stop offset="0.3" stop-color="#AEB2D5"/>
<stop offset="0.75" stop-color="#484C89"/>
<stop offset="1" stop-color="#484C89"/>
</radialGradient>
</defs>
</svg>
