<svg width="60" height="60" viewBox="0 0 60 60" fill="none" xmlns="http://www.w3.org/2000/svg">
<rect width="60" height="60" rx="9" fill="#333333"/>
<g clip-path="url(#clip0_14283_1318)">
<path d="M45.9251 21.3007C45.9369 21.3431 45.943 21.3868 45.9431 21.4307V28.2576C45.9431 28.3452 45.9192 28.4313 45.8738 28.5071C45.8284 28.583 45.7631 28.6458 45.6845 28.6894L39.7602 31.9884V38.5272C39.7602 38.7052 39.6624 38.8695 39.5029 38.9591L27.1365 45.8445C27.1082 45.86 27.0773 45.87 27.0464 45.8806C27.0348 45.8843 27.0239 45.8911 27.0117 45.8942C26.9252 45.9163 26.8343 45.9163 26.7479 45.8942C26.7337 45.8905 26.7209 45.883 26.7074 45.8781C26.6791 45.8681 26.6495 45.8594 26.6225 45.8445L14.2586 38.9591C14.1801 38.9154 14.1148 38.8525 14.0694 38.7767C14.024 38.7009 14.0001 38.6149 14 38.5272V18.0465C14 18.0017 14.0064 17.9581 14.018 17.9158C14.0219 17.9015 14.0309 17.8884 14.036 17.8741C14.0457 17.848 14.0547 17.8212 14.0688 17.797C14.0785 17.7808 14.0926 17.7677 14.1042 17.7528C14.119 17.7329 14.1325 17.7124 14.1499 17.6949C14.1647 17.6806 14.184 17.67 14.2007 17.6576C14.2194 17.6427 14.2361 17.6265 14.2573 17.6147H14.258L20.4402 14.172C20.5185 14.1284 20.6072 14.1055 20.6975 14.1055C20.7879 14.1055 20.8766 14.1284 20.9549 14.172L27.1371 17.6147H27.1384C27.159 17.6271 27.1763 17.6427 27.195 17.657C27.2117 17.6694 27.2304 17.6806 27.2452 17.6943C27.2632 17.7124 27.2761 17.7329 27.2915 17.7528C27.3024 17.7677 27.3172 17.7808 27.3262 17.797C27.341 17.8219 27.3494 17.848 27.3597 17.8741C27.3648 17.8884 27.3738 17.9015 27.3777 17.9164C27.3895 17.9588 27.3956 18.0026 27.3957 18.0465V30.8386L32.5474 27.9695V21.4301C32.5474 21.3865 32.5538 21.3423 32.5654 21.3007C32.5699 21.2857 32.5783 21.2727 32.5834 21.2583C32.5937 21.2322 32.6027 21.2055 32.6168 21.1812C32.6265 21.165 32.6407 21.1519 32.6516 21.137C32.667 21.1171 32.6799 21.0966 32.6979 21.0792C32.7127 21.0648 32.7314 21.0543 32.7481 21.0418C32.7674 21.0269 32.7841 21.0107 32.8047 20.9989H32.8053L38.9882 17.5562C39.0665 17.5126 39.1552 17.4896 39.2456 17.4896C39.3359 17.4896 39.4246 17.5126 39.5029 17.5562L45.6851 20.9989C45.707 21.0113 45.7237 21.0269 45.743 21.0412C45.7591 21.0536 45.7778 21.0648 45.7926 21.0785C45.8106 21.0966 45.8234 21.1171 45.8389 21.137C45.8505 21.1519 45.8646 21.165 45.8736 21.1812C45.8884 21.2055 45.8968 21.2322 45.9071 21.2583C45.9129 21.2727 45.9212 21.2857 45.9251 21.3007ZM44.9125 27.9695V22.2925L42.749 23.4971L39.7602 25.1615V30.8386L44.9131 27.9695H44.9125ZM38.7303 38.2392V32.5584L35.7903 34.1823L27.3951 38.8166V44.5509L38.7303 38.2392ZM15.0306 18.9082V38.2392L26.3645 44.5503V38.8172L20.4434 35.5761L20.4415 35.5748L20.4389 35.5736C20.419 35.5624 20.4023 35.5462 20.3836 35.5325C20.3675 35.5201 20.3489 35.5101 20.3347 35.4964L20.3334 35.4946C20.3167 35.479 20.3051 35.4597 20.291 35.4423C20.2781 35.4255 20.2627 35.4112 20.2524 35.3938L20.2517 35.3919C20.2401 35.3732 20.2331 35.3508 20.2247 35.3297C20.2163 35.311 20.2054 35.2936 20.2003 35.2737V35.2731C20.1938 35.2494 20.1925 35.2245 20.19 35.2003C20.1874 35.1816 20.1822 35.1629 20.1822 35.1443V21.7773L17.1941 20.1122L15.0306 18.9089V18.9082ZM20.6982 15.1787L15.5472 18.0465L20.6969 20.9143L25.8473 18.0459L20.6969 15.1787H20.6982ZM23.3769 33.076L26.3651 31.4122V18.9082L24.2017 20.1129L21.2128 21.7773V34.2813L23.3769 33.076ZM39.2456 18.5629L34.0952 21.4307L39.2456 24.2985L44.3953 21.4301L39.2456 18.5629ZM38.7303 25.1615L35.7414 23.4971L33.578 22.2925V27.9695L36.5662 29.6333L38.7303 30.8386V25.1615ZM26.8791 37.9548L34.4336 33.7835L38.2098 31.6991L33.0633 28.8332L27.1377 32.1328L21.7371 35.1399L26.8791 37.9548Z" fill="#FF2D20"/>
</g>
<defs>
<clipPath id="clip0_14283_1318">
<rect width="32" height="32" fill="white" transform="translate(14 14)"/>
</clipPath>
</defs>
</svg>
