<svg width="40" height="40" viewBox="0 0 40 40" fill="none" xmlns="http://www.w3.org/2000/svg">
<path d="M18.3377 10.9601C20.0073 10.9601 21.6394 11.4551 23.0275 12.3827C24.4157 13.3102 25.4978 14.6286 26.1366 16.1711C26.7756 17.7136 26.9427 19.411 26.617 21.0485C26.2913 22.6859 25.4873 24.1901 24.3068 25.3707C23.1262 26.5512 21.6221 27.3553 19.9846 27.681C18.347 28.0067 16.6498 27.8396 15.1073 27.2006C13.5647 26.5616 12.2464 25.4797 11.3187 24.0915C10.3912 22.7033 9.89612 21.0711 9.89612 19.4016C9.89949 17.1638 10.79 15.0186 12.3724 13.4363C13.9547 11.854 16.0999 10.9634 18.3377 10.9601ZM18.3377 7.06396C15.8975 7.06396 13.5121 7.78747 11.4833 9.14318C9.4543 10.4989 7.873 12.4258 6.9391 14.6802C6.00534 16.9346 5.76105 19.4153 6.23703 21.8085C6.71313 24.2018 7.8882 26.4002 9.61365 28.1257C11.3391 29.8511 13.5374 31.0262 15.9307 31.5021C18.324 31.9782 20.8047 31.734 23.0591 30.8001C25.3135 29.8663 27.2404 28.285 28.5961 26.256C29.9517 24.2271 30.6753 21.8418 30.6753 19.4016C30.6753 16.1294 29.3755 12.9914 27.0617 10.6776C24.7479 8.36383 21.6099 7.06396 18.3377 7.06396Z" fill="url(#paint0_linear_14283_1332)"/>
<path d="M27.2164 39.9627C26.4999 39.9636 25.7903 39.823 25.1281 39.5492C24.466 39.2753 23.8645 38.8734 23.358 38.3666L22.9827 37.9913C22.6275 37.6241 22.4306 37.1323 22.4346 36.6216C22.4385 36.1108 22.6429 35.6219 23.0038 35.2604C23.3646 34.8988 23.853 34.6935 24.3638 34.6886C24.8746 34.6836 25.3668 34.8796 25.7346 35.2342L26.1138 35.6134C26.3823 35.8825 26.7398 36.0442 27.1192 36.068C27.4985 36.0919 27.8734 35.9765 28.1736 35.7432C28.8164 35.2418 29.2515 34.5208 29.3954 33.7183C29.5392 32.9158 29.3815 32.0886 28.9528 31.3952C26.9811 28.203 26.1945 24.4191 26.7307 20.7056C26.9062 19.4896 26.8184 18.2501 26.4729 17.0712C26.1276 15.8922 25.5328 14.8012 24.7289 13.8722C23.925 12.9432 22.9308 12.1978 21.8137 11.6866C20.6966 11.1755 19.4827 10.9104 18.2541 10.9095H18.1398C15.6093 10.8529 13.1559 10.0273 11.1059 8.5426C9.05578 7.05792 7.50629 4.98441 6.66318 2.59779C6.57785 2.35649 6.54097 2.10078 6.55448 1.84532C6.56798 1.58982 6.63175 1.33948 6.74214 1.1086C6.8524 0.877714 7.00707 0.670818 7.1972 0.499727C7.38746 0.328623 7.60954 0.196661 7.85084 0.111389C8.09201 0.026116 8.34772 -0.0108052 8.60331 0.00272731C8.85876 0.0162598 9.10915 0.08 9.33993 0.190273C9.57084 0.300558 9.77772 0.455246 9.94889 0.645493C10.1199 0.835727 10.2519 1.05782 10.3372 1.29905C10.9198 2.93299 11.9825 4.35286 13.3859 5.3726C14.7893 6.39221 16.4681 6.96416 18.2021 7.01338H18.2463C20.0342 7.01351 21.8012 7.39831 23.4273 8.14156C25.0534 8.8848 26.5007 9.96896 27.671 11.3208C28.8412 12.6726 29.7069 14.2603 30.2095 15.9761C30.7121 17.6919 30.8398 19.4957 30.584 21.2653C30.1789 24.073 30.7737 26.9336 32.2645 29.3471C33.199 30.8554 33.5436 32.6558 33.232 34.4027C32.9205 36.1496 31.9746 37.7199 30.5762 38.8121C29.6164 39.5604 28.4334 39.9656 27.2164 39.9627Z" fill="url(#paint1_linear_14283_1332)"/>
<defs>
<linearGradient id="paint0_linear_14283_1332" x1="9.37664" y1="27.5324" x2="33.2727" y2="7.01292" gradientUnits="userSpaceOnUse">
<stop offset="0.271789" stop-color="#353CDD"/>
<stop offset="0.498542" stop-color="#24272F"/>
</linearGradient>
<linearGradient id="paint1_linear_14283_1332" x1="12.493" y1="7.01299" x2="25.3007" y2="7.91883" gradientUnits="userSpaceOnUse">
<stop stop-color="#FF6900"/>
<stop offset="1" stop-color="#353CDD"/>
</linearGradient>
</defs>
</svg>
