<svg width="60" height="60" viewBox="0 0 60 60" fill="none" xmlns="http://www.w3.org/2000/svg">
<rect width="60" height="60" rx="9" fill="#333333"/>
<path d="M17.1123 19.6148H42.8755C44.5058 19.6148 45.8258 21.064 45.8258 22.8544V33.6528C45.8258 35.443 44.506 36.8923 42.8755 36.8923H33.6365L34.9047 40.3022L29.3276 36.8923H17.1254C15.495 36.8923 14.1751 35.4431 14.1751 33.6528V22.8544C14.1621 21.0783 15.482 19.6148 17.1124 19.6148H17.1123Z" fill="#7F54B3"/>
<path d="M15.9761 22.5649C16.1562 22.2965 16.4264 22.1552 16.7866 22.127C17.4428 22.0705 17.8159 22.4095 17.906 23.1442C18.3048 26.0969 18.7423 28.5974 19.2055 30.6459L22.0232 24.7548C22.2805 24.2179 22.6021 23.9354 22.9881 23.9071C23.5542 23.8647 23.9016 24.2603 24.0431 25.0938C24.3648 26.9728 24.7765 28.5692 25.2654 29.9254C25.6 26.337 26.1661 23.7517 26.9638 22.1552C27.1568 21.7597 27.4399 21.5619 27.813 21.5336C28.1089 21.5054 28.3791 21.6043 28.6235 21.8162C28.868 22.0281 28.9967 22.2965 29.0224 22.6214C29.0353 22.8757 28.9967 23.0876 28.8937 23.2996C28.392 24.3167 27.9802 26.0262 27.6458 28.3995C27.3241 30.7024 27.2083 32.4965 27.2855 33.7821C27.3112 34.1353 27.2598 34.4461 27.1311 34.7146C26.9767 35.0254 26.7451 35.1949 26.4492 35.2232C26.1147 35.2514 25.7673 35.0819 25.4328 34.7004C24.2362 33.3583 23.2841 31.3523 22.5894 28.6821C21.7531 30.4903 21.1356 31.8467 20.7367 32.7508C19.9776 34.3472 19.3343 35.1666 18.7939 35.209C18.4465 35.2372 18.1506 34.9123 17.8933 34.2342C17.2371 32.3834 16.5295 28.8092 15.7704 23.5114C15.7189 23.1441 15.7961 22.8192 15.9762 22.5649L15.9761 22.5649ZM43.6259 24.7829C43.1627 23.8929 42.4808 23.356 41.5674 23.1441C41.3229 23.0875 41.0913 23.0593 40.8726 23.0593C39.6375 23.0593 38.6339 23.7657 37.8491 25.1785C37.1801 26.3793 36.8455 27.7073 36.8455 29.1624C36.8455 30.2502 37.0514 31.1826 37.4631 31.9596C37.9263 32.8497 38.6082 33.3866 39.5216 33.5985C39.7661 33.655 39.9977 33.6832 40.2164 33.6832C41.4644 33.6832 42.4679 32.9769 43.2399 31.5641C43.909 30.3491 44.2435 29.0211 44.2435 27.5661C44.2563 26.4641 44.0376 25.5459 43.6259 24.7829ZM42.0048 28.6962C41.8247 29.6286 41.503 30.3208 41.027 30.7872C40.6539 31.1545 40.3065 31.3099 39.9848 31.2392C39.676 31.1686 39.4187 30.8719 39.2257 30.321C39.0713 29.883 38.9941 29.4451 38.9941 29.0354C38.9941 28.6822 39.0199 28.329 39.0842 28.004C39.2 27.4248 39.4187 26.8597 39.7661 26.3228C40.1907 25.6306 40.641 25.348 41.1042 25.4469C41.413 25.5176 41.6703 25.8143 41.8633 26.3652C42.0177 26.8032 42.0949 27.2411 42.0949 27.6508C42.0949 28.0181 42.0691 28.3713 42.0048 28.6963L42.0048 28.6962ZM35.5717 24.7829C35.1085 23.8929 34.4137 23.356 33.5131 23.1441C33.2687 23.0875 33.0371 23.0593 32.8184 23.0593C31.5832 23.0593 30.5797 23.7657 29.7949 25.1785C29.1258 26.3793 28.7913 27.7073 28.7913 29.1624C28.7913 30.2502 28.9971 31.1826 29.4089 31.9596C29.872 32.8497 30.554 33.3866 31.4674 33.5985C31.7119 33.655 31.9434 33.6832 32.1622 33.6832C33.4101 33.6832 34.4137 32.9769 35.1857 31.5641C35.8547 30.3491 36.1892 29.0211 36.1892 27.5661C36.1892 26.4641 35.9834 25.5459 35.5717 24.7829ZM33.9377 28.6962C33.7576 29.6286 33.4359 30.3208 32.9599 30.7872C32.5868 31.1545 32.2394 31.3099 31.9177 31.2392C31.6089 31.1686 31.3516 30.8719 31.1586 30.321C31.0042 29.883 30.927 29.4451 30.927 29.0354C30.927 28.6822 30.9528 28.329 31.0171 28.004C31.1329 27.4248 31.3516 26.8597 31.699 26.3228C32.1236 25.6306 32.5739 25.348 33.0371 25.4469C33.3459 25.5176 33.6032 25.8143 33.7962 26.3652C33.9506 26.8032 34.0278 27.2411 34.0278 27.6508C34.0407 28.0181 34.0021 28.3713 33.9377 28.6963L33.9377 28.6962Z" fill="white"/>
</svg>
