<svg width="60" height="60" viewBox="0 0 60 60" fill="none" xmlns="http://www.w3.org/2000/svg">
<rect width="60" height="60" rx="9" fill="#333333"/>
<g clip-path="url(#clip0_14368_875)">
<path d="M43 14H17C15.3431 14 14 15.3431 14 17V43C14 44.6569 15.3431 46 17 46H43C44.6569 46 46 44.6569 46 43V17C46 15.3431 44.6569 14 43 14Z" fill="#F7DF1E"/>
<path d="M35.4959 39.0001C36.1405 40.0526 36.9791 40.8262 38.4622 40.8262C39.7082 40.8262 40.5041 40.2034 40.5041 39.343C40.5041 38.3119 39.6864 37.9467 38.3149 37.3468L37.5632 37.0243C35.3933 36.0998 33.9518 34.9417 33.9518 32.4935C33.9518 30.2382 35.6701 28.5214 38.3556 28.5214C40.2674 28.5214 41.6419 29.1868 42.6324 30.929L40.2908 32.4325C39.7752 31.5081 39.2191 31.1439 38.3556 31.1439C37.4748 31.1439 36.9166 31.7026 36.9166 32.4325C36.9166 33.3346 37.4753 33.6998 38.7655 34.2585L39.5172 34.5806C42.0721 35.6762 43.5147 36.7931 43.5147 39.3044C43.5147 42.0117 41.3879 43.4949 38.5318 43.4949C35.7392 43.4949 33.935 42.1641 33.0522 40.4198L35.4959 39.0001ZM24.8734 39.2607C25.3458 40.0988 25.7755 40.8074 26.8086 40.8074C27.7966 40.8074 28.4198 40.4208 28.4198 38.9178V28.6931H31.4268V38.9585C31.4268 42.0721 29.6013 43.4893 26.9366 43.4893C24.529 43.4893 23.1347 42.2433 22.4257 40.7426L24.8734 39.2607Z" fill="black"/>
</g>
<defs>
<clipPath id="clip0_14368_875">
<rect x="14" y="14" width="32" height="32" rx="0.253968" fill="white"/>
</clipPath>
</defs>
</svg>
