<svg width="32" height="32" viewBox="0 0 32 32" fill="none" xmlns="http://www.w3.org/2000/svg">
<path d="M15.8166 25.4182C15.711 25.4182 15.6061 25.3905 15.5135 25.3372L14.5488 24.766C14.4047 24.6854 14.475 24.6569 14.5225 24.6405C14.7146 24.5732 14.7536 24.5581 14.9587 24.4416C14.9803 24.4293 15.0085 24.4336 15.0305 24.4467L15.7717 24.8865C15.7985 24.9009 15.8365 24.9009 15.8613 24.8865L18.7511 23.2184C18.7779 23.2032 18.7953 23.1721 18.7953 23.1402V19.8055C18.7953 19.7722 18.7779 19.7426 18.7506 19.7259L15.8618 18.0593C15.8351 18.0433 15.7996 18.0433 15.7729 18.0593L12.8847 19.7259C12.8567 19.7418 12.8389 19.7729 12.8389 19.8048V23.1395C12.8389 23.1713 12.8563 23.2017 12.8838 23.2169L13.6752 23.6741C14.1048 23.8889 14.3674 23.6358 14.3674 23.3811V20.0898C14.3674 20.0428 14.4043 20.0066 14.4513 20.0066H14.8174C14.8629 20.0066 14.9006 20.0428 14.9006 20.0898V23.3826C14.9006 23.9555 14.5881 24.2846 14.0448 24.2846C13.8777 24.2846 13.746 24.2846 13.3786 24.1038L12.6205 23.6669C12.4331 23.5584 12.3174 23.3558 12.3174 23.1395V19.8048C12.3174 19.5877 12.4331 19.3852 12.6205 19.2781L15.5133 17.6093C15.6963 17.5059 15.9393 17.5059 16.1209 17.6093L19.01 19.2789C19.1967 19.3867 19.3131 19.5885 19.3131 19.8055V23.1402C19.3131 23.3565 19.1967 23.5584 19.01 23.6669L16.1209 25.3357C16.0283 25.3892 15.9234 25.4167 15.8163 25.4167" fill="#689F63"/>
<path d="M16.7093 23.1205C15.4448 23.1205 15.1797 22.54 15.1797 22.0532C15.1797 22.0069 15.217 21.97 15.2634 21.97H15.6366C15.6779 21.97 15.7126 22 15.7191 22.0407C15.7755 22.4211 15.9434 22.6129 16.708 22.6129C17.317 22.6129 17.576 22.4753 17.576 22.1524C17.576 21.9665 17.5022 21.8283 16.5561 21.7357C15.7647 21.6576 15.2757 21.4832 15.2757 20.8503C15.2757 20.2672 15.7676 19.92 16.5915 19.92C17.5167 19.92 17.9753 20.2412 18.0332 20.9313C18.0354 20.9552 18.0267 20.9783 18.0108 20.9957C17.9948 21.0123 17.9724 21.0224 17.9493 21.0224H17.5738C17.5348 21.0224 17.5008 20.995 17.4928 20.9573C17.4024 20.5573 17.1839 20.4293 16.5901 20.4293C15.9253 20.4293 15.8479 20.6608 15.8479 20.8344C15.8479 21.0449 15.939 21.1064 16.836 21.225C17.7243 21.3429 18.146 21.5093 18.146 22.1336C18.146 22.7629 17.6209 23.1239 16.7051 23.1239M20.225 19.5873H20.3219C20.4015 19.5873 20.4167 19.5316 20.4167 19.499C20.4167 19.4137 20.3581 19.4137 20.3256 19.4137H20.2257L20.225 19.5873ZM20.1071 19.3138H20.3219C20.3957 19.3138 20.5404 19.3138 20.5404 19.4788C20.5404 19.5938 20.4666 19.6177 20.4225 19.6321C20.5086 19.6379 20.5144 19.6943 20.5259 19.7739C20.5317 19.8238 20.5411 19.9099 20.5585 19.9388H20.4261C20.4225 19.9099 20.4022 19.7508 20.4022 19.7421C20.3936 19.7066 20.3813 19.6893 20.3371 19.6893H20.2279V19.9396H20.1071V19.3138ZM19.8489 19.6249C19.8489 19.8839 20.0579 20.0936 20.3147 20.0936C20.5737 20.0936 20.7827 19.8795 20.7827 19.6249C20.7827 19.3652 20.5708 19.159 20.314 19.159C20.0608 19.159 19.8481 19.3623 19.8481 19.6242M20.8724 19.6263C20.8724 19.933 20.6214 20.1833 20.3154 20.1833C20.0116 20.1833 19.7584 19.9359 19.7584 19.6263C19.7584 19.3109 20.0174 19.0693 20.3154 19.0693C20.6156 19.0693 20.8717 19.3117 20.8717 19.6263" fill="#689F63"/>
<path fill-rule="evenodd" clip-rule="evenodd" d="M6.86743 12.37C6.86743 12.2369 6.79726 12.1146 6.68239 12.0484L3.61846 10.2856C3.56674 10.2552 3.5088 10.2393 3.45006 10.2371H3.41838C3.35964 10.2393 3.3017 10.2552 3.24911 10.2856L0.185329 12.0484C0.0711801 12.115 0 12.2372 0 12.3703L0.00672738 17.1186C0.00672738 17.1844 0.040726 17.2459 0.098596 17.2784C0.155019 17.3131 0.22591 17.3131 0.282333 17.2784L2.10379 16.2353C2.21881 16.1669 2.28897 16.0459 2.28897 15.9141V13.6959C2.28897 13.5635 2.35914 13.4413 2.4738 13.3755L3.24925 12.9288C3.30683 12.8956 3.37006 12.8791 3.43444 12.8791C3.49781 12.8791 3.56248 12.8954 3.61846 12.9288L4.39356 13.3752C4.50829 13.4411 4.57874 13.5633 4.57874 13.6957V15.9138C4.57874 16.0454 4.64985 16.167 4.76429 16.235L6.58459 17.2773C6.64174 17.3113 6.71284 17.3113 6.76977 17.2773C6.82591 17.2448 6.8615 17.1833 6.8615 17.1175L6.86743 12.37ZM21.3254 14.8422C21.3254 14.8752 21.3078 14.9058 21.2791 14.9222L20.2267 15.5288C20.1981 15.5452 20.1628 15.5452 20.1343 15.5288L19.0818 14.9222C19.0529 14.9058 19.0355 14.8752 19.0355 14.8422V13.6272C19.0355 13.5941 19.0529 13.5635 19.0811 13.5469L20.1329 12.9393C20.1618 12.9226 20.1973 12.9226 20.2262 12.9393L21.2787 13.5469C21.3077 13.5635 21.325 13.5941 21.325 13.6272L21.3254 14.8422ZM21.6097 5.84325C21.5522 5.81127 21.4823 5.81214 21.4256 5.8452C21.3692 5.87847 21.3343 5.93924 21.3343 6.00506V10.707C21.3343 10.7533 21.3097 10.796 21.2697 10.8191C21.2299 10.8423 21.1803 10.8423 21.1402 10.8191L20.3727 10.3771C20.2584 10.311 20.1176 10.311 20.0029 10.3771L16.938 12.1459C16.8235 12.2118 16.7528 12.334 16.7528 12.4657V16.0044C16.7528 16.1368 16.8235 16.2583 16.938 16.3249L20.0029 18.095C20.1173 18.1608 20.2583 18.1608 20.3731 18.095L23.438 16.3241C23.5523 16.2576 23.6232 16.1361 23.6232 16.0037V7.18431C23.6232 7.05005 23.5501 6.92657 23.4329 6.86096L21.6097 5.84325ZM31.816 13.5952C31.9298 13.5291 31.9999 13.407 31.9999 13.2753V12.4177C31.9999 12.2858 31.9298 12.164 31.8157 12.0976L28.7703 10.3297C28.6553 10.2631 28.5142 10.2631 28.3992 10.3297L25.335 12.0983C25.2199 12.1649 25.1498 12.2864 25.1498 12.4188V15.9561C25.1498 16.0892 25.2214 16.2122 25.3364 16.278L28.3811 18.0134C28.4932 18.0778 28.6307 18.0785 28.7442 18.0155L30.5859 16.992C30.6438 16.9594 30.6807 16.8979 30.6807 16.8314C30.6807 16.7648 30.6453 16.7026 30.5874 16.6701L27.5044 14.9007C27.4465 14.8681 27.4111 14.8067 27.4111 14.7408V13.6312C27.4111 13.5649 27.4458 13.5039 27.5036 13.4709L28.4628 12.9175C28.52 12.8842 28.5902 12.8842 28.6473 12.9175L29.6072 13.4709C29.6644 13.5034 29.6998 13.5649 29.6998 13.6307V14.5031C29.6998 14.569 29.7353 14.6304 29.7924 14.6637C29.8495 14.6963 29.9204 14.6963 29.9776 14.663L31.816 13.5952Z" fill="#E3E3E3"/>
<path fill-rule="evenodd" clip-rule="evenodd" d="M28.5399 13.43C28.5616 13.4172 28.5888 13.4172 28.6108 13.43L29.1989 13.7693C29.2209 13.782 29.2344 13.8054 29.2344 13.8308V14.51C29.2344 14.5353 29.2209 14.5588 29.1989 14.5715L28.6108 14.9108C28.5888 14.9236 28.5616 14.9236 28.5399 14.9108L27.9522 14.5715C27.9298 14.5588 27.916 14.5353 27.916 14.51V13.8308C27.916 13.8054 27.929 13.782 27.9515 13.7693L28.5399 13.43Z" fill="#689F63"/>
<mask id="mask0_14368_1163" style="mask-type:luminance" maskUnits="userSpaceOnUse" x="8" y="10" width="8" height="9">
<path d="M11.6263 10.347L8.5787 12.1061C8.46455 12.1719 8.39453 12.2934 8.39453 12.4248V15.9453C8.39453 16.0767 8.46455 16.1982 8.5787 16.264L11.6265 18.0244C11.7404 18.09 11.8809 18.09 11.9947 18.0244L15.042 16.264C15.1556 16.1982 15.2257 16.0767 15.2257 15.9453V12.4248C15.2257 12.2934 15.1556 12.1719 15.0413 12.1061L11.9944 10.347C11.9373 10.3143 11.8736 10.2979 11.8099 10.2979C11.7463 10.2979 11.6826 10.3143 11.6255 10.347" fill="white"/>
</mask>
<g mask="url(#mask0_14368_1163)">
<path d="M18.3056 11.8077L9.71806 7.59839L5.31488 16.5808L13.9022 20.7904L18.3056 11.8077Z" fill="url(#paint0_linear_14368_1163)"/>
</g>
<mask id="mask1_14368_1163" style="mask-type:luminance" maskUnits="userSpaceOnUse" x="8" y="10" width="8" height="9">
<path d="M8.47021 16.1692C8.49937 16.207 8.53582 16.2398 8.57872 16.2644L11.193 17.7744L11.6285 18.0247C11.6936 18.0623 11.7678 18.0782 11.8407 18.0728C11.865 18.0708 11.8893 18.0663 11.913 18.0596L15.1273 12.1742C15.1027 12.1474 15.0739 12.125 15.0416 12.1062L13.0461 10.9538L11.9913 10.3469C11.9614 10.3296 11.9289 10.3173 11.8958 10.3086L8.47021 16.1692Z" fill="white"/>
</mask>
<g mask="url(#mask1_14368_1163)">
<path d="M4.75714 13.0527L10.8208 21.2596L18.8402 15.3347L12.7761 7.12805L4.75714 13.0527Z" fill="url(#paint1_linear_14368_1163)"/>
</g>
<mask id="mask2_14368_1163" style="mask-type:luminance" maskUnits="userSpaceOnUse" x="8" y="10" width="8" height="9">
<path d="M11.774 10.3002C11.7229 10.3053 11.6729 10.3212 11.6268 10.3474L8.58789 12.1013L11.8648 18.0699C11.9104 18.0634 11.9552 18.0482 11.9957 18.0248L15.0433 16.2644C15.1373 16.2098 15.2017 16.1175 15.2212 16.0129L11.8807 10.3062C11.8561 10.3014 11.8315 10.2988 11.8062 10.2988C11.7961 10.2988 11.7859 10.2993 11.7758 10.3003" fill="white"/>
</mask>
<g mask="url(#mask2_14368_1163)">
<path d="M8.5874 10.2989V18.0701H15.2195V10.2989H8.5874Z" fill="url(#paint2_linear_14368_1163)"/>
</g>
<defs>
<linearGradient id="paint0_linear_14368_1163" x1="14.0093" y1="9.69643" x2="9.60638" y2="18.6783" gradientUnits="userSpaceOnUse">
<stop offset="0.3" stop-color="#3E863D"/>
<stop offset="0.5" stop-color="#55934F"/>
<stop offset="0.8" stop-color="#5AAD45"/>
</linearGradient>
<linearGradient id="paint1_linear_14368_1163" x1="7.82532" y1="17.2032" x2="15.845" y2="11.2776" gradientUnits="userSpaceOnUse">
<stop offset="0.57" stop-color="#3E863D"/>
<stop offset="0.72" stop-color="#619857"/>
<stop offset="1" stop-color="#76AC64"/>
</linearGradient>
<linearGradient id="paint2_linear_14368_1163" x1="8.58964" y1="14.1847" x2="15.2208" y2="14.1847" gradientUnits="userSpaceOnUse">
<stop offset="0.16" stop-color="#6BBF47"/>
<stop offset="0.38" stop-color="#79B461"/>
<stop offset="0.47" stop-color="#75AC64"/>
<stop offset="0.7" stop-color="#659E5A"/>
<stop offset="0.9" stop-color="#3E863D"/>
</linearGradient>
</defs>
</svg>
