<svg width="70" height="70" viewBox="0 0 70 70" fill="none" xmlns="http://www.w3.org/2000/svg">
<rect width="70" height="70" rx="12" fill="#4733FF"/>
<path d="M32.5001 50H25.0001C24.116 50 23.2682 49.6488 22.6431 49.0237C22.0179 48.3986 21.6667 47.5507 21.6667 46.6667V26.6667C21.6667 25.7826 22.0179 24.9348 22.6431 24.3097C23.2682 23.6845 24.116 23.3333 25.0001 23.3333H45.0001C45.8841 23.3333 46.732 23.6845 47.3571 24.3097C47.9822 24.9348 48.3334 25.7826 48.3334 26.6667V31.6667" stroke="#E3E3E3" stroke-width="1.5" stroke-linecap="round" stroke-linejoin="round"/>
<path d="M41.6667 20V26.6667" stroke="#E3E3E3" stroke-width="1.5" stroke-linecap="round" stroke-linejoin="round"/>
<path d="M28.3333 20V26.6667" stroke="#E3E3E3" stroke-width="1.5" stroke-linecap="round" stroke-linejoin="round"/>
<path d="M21.6667 33.3333H38.3334" stroke="#E3E3E3" stroke-width="1.5" stroke-linecap="round" stroke-linejoin="round"/>
<path d="M38.3333 45C38.3333 46.7681 39.0356 48.4638 40.2859 49.7141C41.5361 50.9643 43.2318 51.6667 44.9999 51.6667C46.768 51.6667 48.4637 50.9643 49.714 49.7141C50.9642 48.4638 51.6666 46.7681 51.6666 45C51.6666 43.2319 50.9642 41.5362 49.714 40.286C48.4637 39.0357 46.768 38.3333 44.9999 38.3333C43.2318 38.3333 41.5361 39.0357 40.2859 40.286C39.0356 41.5362 38.3333 43.2319 38.3333 45Z" stroke="#E3E3E3" stroke-width="1.5" stroke-linecap="round" stroke-linejoin="round"/>
<path d="M45 42.5V45L45.8333 45.8333" stroke="#E3E3E3" stroke-width="1.5" stroke-linecap="round" stroke-linejoin="round"/>
</svg>
