<svg width="70" height="70" viewBox="0 0 70 70" fill="none" xmlns="http://www.w3.org/2000/svg">
<rect width="70" height="70" rx="12" fill="#4733FF"/>
<path d="M41.6667 45C42.5507 45 43.3986 45.3512 44.0237 45.9763C44.6488 46.6014 45 47.4493 45 48.3333C45 47.4493 45.3512 46.6014 45.9763 45.9763C46.6014 45.3512 47.4493 45 48.3333 45C47.4493 45 46.6014 44.6488 45.9763 44.0237C45.3512 43.3986 45 42.5507 45 41.6667C45 42.5507 44.6488 43.3986 44.0237 44.0237C43.3986 44.6488 42.5507 45 41.6667 45ZM41.6667 25C42.5507 25 43.3986 25.3512 44.0237 25.9763C44.6488 26.6014 45 27.4493 45 28.3333C45 27.4493 45.3512 26.6014 45.9763 25.9763C46.6014 25.3512 47.4493 25 48.3333 25C47.4493 25 46.6014 24.6488 45.9763 24.0237C45.3512 23.3986 45 22.5507 45 21.6667C45 22.5507 44.6488 23.3986 44.0237 24.0237C43.3986 24.6488 42.5507 25 41.6667 25ZM30 45C30 42.3478 31.0536 39.8043 32.9289 37.9289C34.8043 36.0536 37.3478 35 40 35C37.3478 35 34.8043 33.9464 32.9289 32.0711C31.0536 30.1957 30 27.6522 30 25C30 27.6522 28.9464 30.1957 27.0711 32.0711C25.1957 33.9464 22.6522 35 20 35C22.6522 35 25.1957 36.0536 27.0711 37.9289C28.9464 39.8043 30 42.3478 30 45Z" stroke="#E3E3E3" stroke-width="1.5" stroke-linecap="round" stroke-linejoin="round"/>
</svg>
