<svg width="70" height="70" viewBox="0 0 70 70" fill="none" xmlns="http://www.w3.org/2000/svg">
<rect width="70" height="70" rx="12" fill="#4733FF"/>
<path d="M33.3333 35C33.3333 35.442 33.5088 35.8659 33.8214 36.1785C34.134 36.4911 34.5579 36.6666 34.9999 36.6666C35.4419 36.6666 35.8659 36.4911 36.1784 36.1785C36.491 35.8659 36.6666 35.442 36.6666 35C36.6666 34.558 36.491 34.134 36.1784 33.8215C35.8659 33.5089 35.4419 33.3333 34.9999 33.3333C34.5579 33.3333 34.134 33.5089 33.8214 33.8215C33.5088 34.134 33.3333 34.558 33.3333 35Z" stroke="#E3E3E3" stroke-width="1.5" stroke-linecap="round" stroke-linejoin="round"/>
<path d="M35.0001 26.6667C33.3519 26.6667 31.7407 27.1554 30.3703 28.0711C28.9999 28.9868 27.9318 30.2883 27.3011 31.811C26.6704 33.3337 26.5053 35.0093 26.8269 36.6258C27.1484 38.2423 27.9421 39.7271 29.1075 40.8926C30.273 42.058 31.7578 42.8517 33.3743 43.1732C34.9908 43.4948 36.6664 43.3297 38.1891 42.699C39.7118 42.0683 41.0133 41.0002 41.929 39.6298C42.8447 38.2594 43.3334 36.6482 43.3334 35" stroke="#E3E3E3" stroke-width="1.5" stroke-linecap="round" stroke-linejoin="round"/>
<path d="M36.6667 20.0917C33.5768 19.745 30.4556 20.3672 27.7347 21.872C25.0139 23.3768 22.8279 25.69 21.4791 28.4915C20.1304 31.293 19.6855 34.4444 20.2062 37.5098C20.7268 40.5751 22.1871 43.403 24.3851 45.6021C26.5832 47.8013 29.4103 49.263 32.4754 49.7852C35.5405 50.3073 38.6921 49.8641 41.4943 48.5167C44.2965 47.1694 46.6107 44.9846 48.1169 42.2645C49.6231 39.5444 50.2468 36.4234 49.9017 33.3334" stroke="#E3E3E3" stroke-width="1.5" stroke-linecap="round" stroke-linejoin="round"/>
<path d="M40 25V30H45L50 25H45V20L40 25Z" stroke="#E3E3E3" stroke-width="1.5" stroke-linecap="round" stroke-linejoin="round"/>
<path d="M40 30L35 35" stroke="#E3E3E3" stroke-width="1.5" stroke-linecap="round" stroke-linejoin="round"/>
</svg>
