<svg width="70" height="70" viewBox="0 0 70 70" fill="none" xmlns="http://www.w3.org/2000/svg">
<rect width="70" height="70" rx="12" fill="#4733FF"/>
<path d="M49.7833 32.4667C49.2885 29.5797 47.9594 26.9007 45.9598 24.7604C43.9603 22.62 41.3778 21.1119 38.5312 20.4221C35.6845 19.7323 32.6981 19.8911 29.9406 20.8788C27.1831 21.8665 24.7751 23.64 23.0138 25.9803C21.2524 28.3206 20.2148 31.1254 20.029 34.0486C19.8432 36.9717 20.5172 39.8853 21.968 42.4299C23.4188 44.9744 25.5828 47.0385 28.1931 48.3674C30.8033 49.6964 33.7455 50.2321 36.6566 49.9084" stroke="#E3E3E3" stroke-width="1.5" stroke-linecap="round" stroke-linejoin="round"/>
<path d="M30 31.6667H30.0167" stroke="#E3E3E3" stroke-width="1.5" stroke-linecap="round" stroke-linejoin="round"/>
<path d="M40 31.6667H40.0167" stroke="#E3E3E3" stroke-width="1.5" stroke-linecap="round" stroke-linejoin="round"/>
<path d="M30.8333 40C31.9299 41.0667 33.4333 41.6667 34.9999 41.6667C35.5949 41.6667 36.1816 41.58 36.7383 41.415" stroke="#E3E3E3" stroke-width="1.5" stroke-linecap="round" stroke-linejoin="round"/>
<path d="M49.9999 40H45.8333C45.1702 40 44.5343 40.2634 44.0655 40.7322C43.5966 41.2011 43.3333 41.837 43.3333 42.5C43.3333 43.163 43.5966 43.7989 44.0655 44.2678C44.5343 44.7366 45.1702 45 45.8333 45H47.4999C48.163 45 48.7988 45.2634 49.2677 45.7322C49.7365 46.2011 49.9999 46.837 49.9999 47.5C49.9999 48.163 49.7365 48.7989 49.2677 49.2678C48.7988 49.7366 48.163 50 47.4999 50H43.3333" stroke="#E3E3E3" stroke-width="1.5" stroke-linecap="round" stroke-linejoin="round"/>
<path d="M46.6667 50V51.6666M46.6667 38.3333V40" stroke="#E3E3E3" stroke-width="1.5" stroke-linecap="round" stroke-linejoin="round"/>
</svg>
