<svg width="32" height="32" viewBox="0 0 32 32" fill="none" xmlns="http://www.w3.org/2000/svg">
<mask id="mask0_14368_841" style="mask-type:luminance" maskUnits="userSpaceOnUse" x="0" y="8" width="32" height="17">
<path d="M0.835938 16.1822C0.835938 20.5795 7.6127 24.1443 15.9719 24.1443C24.3312 24.1443 31.108 20.5795 31.108 16.1822C31.108 11.785 24.3312 8.22013 15.9719 8.22013C7.6127 8.22013 0.835938 11.785 0.835938 16.1822Z" fill="white"/>
</mask>
<g mask="url(#mask0_14368_841)">
<path d="M0.834778 16.1821C0.834778 20.5794 7.61154 24.1442 15.9708 24.1442C24.33 24.1442 31.1068 20.5794 31.1068 16.1821C31.1068 11.7848 24.33 8.21994 15.9708 8.21994C7.61154 8.21994 0.834778 11.7848 0.834778 16.1821Z" fill="url(#paint0_radial_14368_841)"/>
</g>
<mask id="mask1_14368_841" style="mask-type:luminance" maskUnits="userSpaceOnUse" x="0" y="7" width="32" height="19">
<path d="M0.210938 7.31718H31.7443V25.0547H0.210938V7.31718Z" fill="white"/>
</mask>
<g mask="url(#mask1_14368_841)">
<path d="M15.9803 23.5547C24.013 23.5547 30.525 20.2546 30.525 16.1837C30.525 12.1129 24.013 8.81274 15.9803 8.81274C7.94756 8.81274 1.43555 12.1129 1.43555 16.1837C1.43555 20.2546 7.94756 23.5547 15.9803 23.5547Z" fill="#777BB3"/>
</g>
<mask id="mask2_14368_841" style="mask-type:luminance" maskUnits="userSpaceOnUse" x="0" y="7" width="32" height="19">
<path d="M0.210938 7.31718H31.7443V25.0547H0.210938V7.31718Z" fill="white"/>
</mask>
<g mask="url(#mask2_14368_841)">
<path d="M9.06777 17.0998C9.72827 17.0998 10.2214 16.978 10.5334 16.7379C10.842 16.5002 11.0552 16.0885 11.1669 15.5141C11.2711 14.9773 11.2314 14.6025 11.049 14.4002C10.8625 14.1936 10.4592 14.0888 9.85046 14.0888H8.79492L8.20975 17.0998H9.06777ZM5.61536 20.8088C5.56637 20.8088 5.51983 20.7869 5.48868 20.749C5.45748 20.7112 5.44483 20.6613 5.45419 20.6132L7.00502 12.634C7.02002 12.5569 7.08763 12.5012 7.16624 12.5012H10.5087C11.5591 12.5012 12.341 12.7864 12.8324 13.349C13.3265 13.9146 13.4791 14.7052 13.2859 15.6987C13.2073 16.1035 13.0721 16.4795 12.884 16.816C12.6957 17.153 12.4469 17.4648 12.1444 17.7429C11.7822 18.0819 11.3722 18.3277 10.927 18.4723C10.4889 18.615 9.92623 18.6874 9.25467 18.6874H7.90126L7.51475 20.6759C7.49975 20.753 7.4322 20.8088 7.35358 20.8088H5.61536Z" fill="black"/>
<path d="M8.93049 14.2562H9.85065C10.5854 14.2562 10.8406 14.4174 10.9273 14.5135C11.0712 14.673 11.0984 15.0094 11.0059 15.4861C10.902 16.0199 10.7094 16.3984 10.4334 16.6109C10.1508 16.8284 9.69134 16.9387 9.06795 16.9387H8.40915L8.93049 14.2562ZM10.5089 12.3401H7.16637C7.00915 12.3401 6.87398 12.4515 6.84398 12.6059L5.29315 20.5851C5.27443 20.6814 5.29972 20.7809 5.36208 20.8567C5.42449 20.9324 5.51744 20.9762 5.61555 20.9762H7.35371C7.511 20.9762 7.64616 20.8647 7.67616 20.7104L8.03683 18.8548H9.25486C9.94366 18.8548 10.5235 18.7797 10.9782 18.6316C11.4458 18.4797 11.876 18.2221 12.2567 17.866C12.5716 17.5763 12.831 17.2511 13.0275 16.8994C13.2241 16.5475 13.3654 16.1552 13.4473 15.7332C13.6507 14.6873 13.4855 13.8499 12.9563 13.2441C12.4323 12.6442 11.6088 12.3401 10.5089 12.3401ZM8.01066 17.2672H9.06795C9.76875 17.2672 10.2907 17.1352 10.6337 16.8711C10.9768 16.607 11.2081 16.1663 11.3283 15.5487C11.4434 14.9557 11.391 14.5372 11.1712 14.2934C10.9511 14.0496 10.511 13.9277 9.85065 13.9277H8.65972L8.01066 17.2672ZM10.5089 12.6686C11.5144 12.6686 12.2479 12.9324 12.709 13.4602C13.17 13.988 13.3088 14.7247 13.1249 15.6706C13.0491 16.0602 12.9211 16.4164 12.7408 16.7391C12.5603 17.0621 12.3246 17.3574 12.0334 17.6251C11.6863 17.95 11.3007 18.1814 10.8765 18.3193C10.4522 18.4575 9.9118 18.5263 9.25486 18.5263H7.766L7.35371 20.6477H5.61555L7.16637 12.6686H10.5089Z" fill="white"/>
<path d="M17.2715 18.6877C17.2224 18.6877 17.1759 18.6658 17.1448 18.6279C17.1135 18.5901 17.1009 18.5403 17.1102 18.4921L17.7963 14.9617C17.8615 14.6259 17.8454 14.3849 17.751 14.2831C17.6932 14.2208 17.5195 14.1164 17.0061 14.1164H15.7632L14.9007 18.5548C14.8857 18.632 14.8181 18.6877 14.7395 18.6877H13.015C12.966 18.6877 12.9195 18.6658 12.8883 18.6279C12.8571 18.5901 12.8444 18.5403 12.8538 18.4921L14.4046 10.5129C14.4196 10.4358 14.4872 10.3801 14.5658 10.3801H16.2903C16.3394 10.3801 16.3859 10.402 16.4171 10.4398C16.4483 10.4777 16.4609 10.5274 16.4515 10.5756L16.0773 12.5015H17.4143C18.4328 12.5015 19.1235 12.681 19.5258 13.0504C19.9358 13.4273 20.0638 14.0299 19.9061 14.8417L19.1845 18.5548C19.1695 18.632 19.102 18.6877 19.0233 18.6877H17.2715Z" fill="black"/>
<path d="M16.2905 10.2188H14.566C14.4087 10.2188 14.2736 10.3303 14.2436 10.4846L12.6927 18.4638C12.674 18.5601 12.6993 18.6597 12.7617 18.7354C12.8241 18.8111 12.9171 18.8549 13.0152 18.8549H14.7397C14.8969 18.8549 15.0321 18.7434 15.0621 18.5891L15.8988 14.2837H17.0062C17.5188 14.2837 17.6264 14.3931 17.6307 14.3978C17.6618 14.4313 17.7027 14.5862 17.6352 14.9333L16.9492 18.4638C16.9305 18.5601 16.9558 18.6597 17.0182 18.7354C17.0806 18.8111 17.1735 18.8549 17.2717 18.8549H19.0235C19.1807 18.8549 19.316 18.7434 19.346 18.5891L20.0674 14.876C20.2368 14.0044 20.0919 13.3506 19.6371 12.9325C19.2031 12.5339 18.4761 12.3402 17.4145 12.3402H16.2767L16.613 10.61C16.6316 10.5137 16.6064 10.414 16.544 10.3384C16.4816 10.2627 16.3886 10.2188 16.2905 10.2188ZM16.2905 10.5473L15.8782 12.6687H17.4145C18.3811 12.6687 19.0479 12.8374 19.4148 13.1744C19.7818 13.5116 19.8917 14.058 19.745 14.8134L19.0235 18.5264H17.2717L17.9577 14.996C18.0357 14.5944 18.007 14.3204 17.8715 14.1744C17.7359 14.0283 17.4474 13.9552 17.0062 13.9552H15.628L14.7397 18.5264H13.0152L14.566 10.5473H16.2905Z" fill="white"/>
<path d="M22.6326 17.0998C23.2931 17.0998 23.7862 16.978 24.0982 16.7379C24.4068 16.5003 24.62 16.0885 24.7318 15.5141C24.836 14.9773 24.7963 14.6025 24.6138 14.4002C24.4273 14.1936 24.024 14.0888 23.4153 14.0888H22.3597L21.7746 17.0998H22.6326ZM19.1802 20.8088C19.1312 20.8088 19.0847 20.7869 19.0535 20.749C19.0223 20.7112 19.0096 20.6613 19.019 20.6132L20.5698 12.634C20.5849 12.5569 20.6524 12.5012 20.7311 12.5012H24.0735C25.124 12.5012 25.9058 12.7864 26.3973 13.349C26.8914 13.9145 27.0439 14.7051 26.8508 15.6987C26.772 16.1035 26.6369 16.4795 26.4488 16.816C26.2606 17.153 26.0117 17.4648 25.7092 17.7429C25.347 18.0819 24.937 18.3277 24.4918 18.4723C24.0537 18.615 23.491 18.6874 22.8195 18.6874H21.466L21.0797 20.6759C21.0646 20.753 20.9971 20.8088 20.9184 20.8088H19.1802Z" fill="black"/>
<path d="M22.4941 14.256H23.4143C24.149 14.256 24.4042 14.4172 24.4909 14.5133C24.6349 14.6728 24.662 15.0092 24.5695 15.4859C24.4656 16.0197 24.2729 16.3982 23.997 16.6107C23.7144 16.8283 23.2549 16.9385 22.6316 16.9385H21.9728L22.4941 14.256ZM24.0725 12.3399H20.73C20.5728 12.3399 20.4376 12.4514 20.4076 12.6057L18.8568 20.5849C18.8381 20.6812 18.8634 20.7808 18.9257 20.8565C18.9881 20.9322 19.0811 20.976 19.1792 20.976H20.9174C21.0746 20.976 21.2098 20.8645 21.2398 20.7102L21.6004 18.8546H22.8185C23.5073 18.8546 24.0871 18.7795 24.5418 18.6314C25.0094 18.4795 25.4397 18.2219 25.8204 17.8657C26.1353 17.5761 26.3946 17.2509 26.5911 16.8992C26.7877 16.5474 26.929 16.155 27.0109 15.733C27.2143 14.6871 27.0491 13.8496 26.5199 13.2439C25.9959 12.6441 25.1725 12.3399 24.0725 12.3399ZM21.5743 17.267H22.6316C23.3324 17.267 23.8544 17.135 24.1973 16.871C24.5404 16.6069 24.7717 16.1661 24.8919 15.5485C25.007 14.9555 24.9546 14.537 24.7348 14.2932C24.5147 14.0494 24.0746 13.9275 23.4143 13.9275H22.2233L21.5743 17.267ZM24.0725 12.6684C25.078 12.6684 25.8115 12.9322 26.2726 13.46C26.7336 13.9878 26.8724 14.7246 26.6885 15.6704C26.6128 16.06 26.4847 16.4162 26.3044 16.739C26.1239 17.0619 25.8883 17.3572 25.597 17.625C25.2499 17.9498 24.8643 18.1812 24.4401 18.3191C24.0158 18.4573 23.4754 18.5261 22.8185 18.5261H21.3296L20.9174 20.6475H19.1792L20.73 12.6684H24.0725Z" fill="white"/>
</g>
<defs>
<radialGradient id="paint0_radial_14368_841" cx="0" cy="0" r="1" gradientUnits="userSpaceOnUse" gradientTransform="translate(9.92251 11.0192) scale(19.8757 19.8757)">
<stop stop-color="#AEB2D5"/>
<stop offset="0.3" stop-color="#AEB2D5"/>
<stop offset="0.75" stop-color="#484C89"/>
<stop offset="1" stop-color="#484C89"/>
</radialGradient>
</defs>
</svg>
