<svg width="32" height="32" viewBox="0 0 32 32" fill="none" xmlns="http://www.w3.org/2000/svg">
<path fill-rule="evenodd" clip-rule="evenodd" d="M1.50834 19.1052H1.39371C1.32829 19.1052 1.27309 19.1575 1.27309 19.2216V19.5729C1.27309 19.6372 1.32829 19.689 1.39371 19.689H1.50558C1.52422 19.689 1.5421 19.6964 1.55529 19.7096C1.56847 19.7228 1.57588 19.7407 1.57588 19.7593C1.57588 19.778 1.56847 19.7959 1.55529 19.809C1.5421 19.8222 1.52422 19.8296 1.50558 19.8296H1.39371C1.25084 19.8296 1.13281 19.7161 1.13281 19.5778V19.2172C1.13281 19.0786 1.25084 18.9657 1.39371 18.9657H1.50834C1.5473 18.9657 1.57847 18.9981 1.57847 19.0365C1.57847 19.0755 1.5473 19.1052 1.50834 19.1052ZM3.29341 19.8295H2.49496C2.35046 19.8295 2.23422 19.7131 2.23422 19.5809C2.23422 19.4408 2.34754 19.3228 2.49496 19.3228H3.27588C3.31452 19.3228 3.34585 19.3541 3.34585 19.3932C3.34587 19.4024 3.34408 19.4115 3.34057 19.42C3.33707 19.4286 3.33192 19.4363 3.32542 19.4428C3.31892 19.4493 3.31119 19.4545 3.30269 19.458C3.29419 19.4615 3.28508 19.4634 3.27588 19.4634H2.49642C2.42645 19.4634 2.37433 19.515 2.37433 19.5811C2.37433 19.6359 2.42953 19.6892 2.49642 19.6892H3.2952C3.36063 19.6892 3.41583 19.6359 3.41583 19.5747V19.2218C3.4151 19.1904 3.40203 19.1606 3.37944 19.1388C3.35686 19.117 3.32658 19.105 3.2952 19.1054H2.30582C2.2873 19.1054 2.26954 19.098 2.25645 19.0849C2.24336 19.0718 2.236 19.0541 2.236 19.0356C2.236 19.017 2.24336 18.9993 2.25645 18.9862C2.26954 18.9731 2.2873 18.9657 2.30582 18.9657H3.29341C3.43645 18.9657 3.55594 19.0771 3.55594 19.2172V19.5778C3.55578 19.7179 3.43645 19.8295 3.29341 19.8295ZM4.7507 19.8295H3.95208C3.80905 19.8295 3.68988 19.7191 3.68988 19.5746V19.2197C3.68988 19.0786 3.8058 18.9657 3.95046 18.9657H4.73122C4.76986 18.9657 4.80135 18.9964 4.80135 19.0352C4.80135 19.074 4.77002 19.1054 4.73122 19.1054H3.94916C3.88958 19.1054 3.82983 19.1546 3.82983 19.2218V19.5718C3.82983 19.6434 3.89104 19.6892 3.95062 19.6892H4.75086C4.78241 19.6896 4.81283 19.6774 4.83544 19.6554C4.85806 19.6334 4.87102 19.6034 4.87149 19.5718V18.6672C4.87236 18.6492 4.88012 18.6322 4.89316 18.6198C4.9062 18.6073 4.92353 18.6004 4.94155 18.6004C4.95956 18.6004 4.97689 18.6073 4.98993 18.6198C5.00297 18.6322 5.01073 18.6492 5.0116 18.6672V19.5747C5.01144 19.716 4.89373 19.8295 4.7507 19.8295ZM6.20928 19.4075C6.12291 19.4075 6.08882 19.4588 6.08882 19.5242C6.08882 19.5851 6.09174 19.5588 6.08411 19.6184C6.06787 19.7389 5.95747 19.8296 5.82645 19.8296H5.40791C5.26503 19.8296 5.1457 19.7161 5.1457 19.5778V19.0352C5.1457 18.9966 5.17704 18.9657 5.21584 18.9657C5.25416 18.9657 5.28565 18.9964 5.28565 19.0352V19.5729C5.28565 19.6372 5.34085 19.689 5.40791 19.689H5.82645C5.89367 19.689 5.94871 19.6374 5.94871 19.5729V19.5164C5.94871 19.376 6.0708 19.271 6.20798 19.271C6.27666 19.271 6.32861 19.2348 6.32861 19.1559V19.0351C6.32861 18.9964 6.35995 18.9656 6.39859 18.9656C6.43739 18.9656 6.46856 18.9963 6.46856 19.0351V19.1559C6.46856 19.2974 6.35394 19.4075 6.20928 19.4075ZM7.66202 19.8295H6.86324C6.71875 19.8295 6.6025 19.7131 6.6025 19.5809C6.6025 19.4408 6.71599 19.3228 6.86324 19.3228H7.64433C7.65355 19.3228 7.66268 19.3246 7.67119 19.3281C7.6797 19.3317 7.68743 19.3369 7.69392 19.3434C7.70041 19.35 7.70554 19.3578 7.70901 19.3663C7.71248 19.3748 7.71422 19.384 7.71414 19.3932C7.71416 19.4024 7.71237 19.4115 7.70887 19.42C7.70538 19.4285 7.70024 19.4362 7.69376 19.4427C7.68727 19.4493 7.67957 19.4544 7.67109 19.458C7.66261 19.4615 7.65351 19.4633 7.64433 19.4634H6.86487C6.79489 19.4634 6.74278 19.515 6.74278 19.5811C6.74278 19.6359 6.79798 19.6892 6.86487 19.6892H7.66332C7.72907 19.6892 7.78411 19.6359 7.78411 19.5747V19.2218C7.78334 19.1904 7.77023 19.1606 7.74762 19.1388C7.72501 19.117 7.69472 19.105 7.66332 19.1054H6.67426C6.65575 19.1054 6.63799 19.098 6.6249 19.0849C6.61181 19.0718 6.60445 19.0541 6.60445 19.0356C6.60445 19.017 6.61181 18.9993 6.6249 18.9862C6.63799 18.9731 6.65575 18.9657 6.67426 18.9657H7.66202C7.80505 18.9657 7.92422 19.0771 7.92422 19.2172V19.5778C7.92439 19.7179 7.80522 19.8295 7.66202 19.8295ZM9.31007 19.8295C9.30085 19.8295 9.29171 19.8277 9.28318 19.8242C9.27465 19.8207 9.2669 19.8155 9.26038 19.809C9.25386 19.8025 9.2487 19.7947 9.24519 19.7862C9.24168 19.7777 9.23989 19.7685 9.23994 19.7593V19.2216C9.23994 19.1575 9.18474 19.1052 9.11914 19.1052H8.31907C8.25348 19.1052 8.19844 19.1575 8.19844 19.2216V19.7593C8.19848 19.7685 8.1967 19.7777 8.1932 19.7862C8.1897 19.7947 8.18455 19.8024 8.17805 19.809C8.17154 19.8155 8.16381 19.8206 8.1553 19.8242C8.14679 19.8277 8.13767 19.8295 8.12846 19.8295C8.11924 19.8295 8.1101 19.8277 8.10157 19.8242C8.09304 19.8207 8.08529 19.8155 8.07877 19.809C8.07225 19.8025 8.06709 19.7947 8.06358 19.7862C8.06007 19.7777 8.05828 19.7685 8.05833 19.7593V19.2171C8.05833 19.0784 8.17603 18.9656 8.31907 18.9656H9.11914C9.26218 18.9656 9.38005 19.0784 9.38005 19.2171V19.7593C9.38009 19.7685 9.37831 19.7777 9.37481 19.7862C9.37131 19.7947 9.36616 19.8024 9.35966 19.809C9.35315 19.8155 9.34542 19.8206 9.33691 19.8242C9.3284 19.8277 9.31928 19.8295 9.31007 19.8295ZM10.7656 19.8295H9.77489C9.63023 19.8295 9.51399 19.7147 9.51399 19.5777V19.2171C9.51399 19.0784 9.63169 18.9656 9.77489 18.9656H10.7656C10.8044 18.9656 10.8357 18.9963 10.8357 19.0351C10.8357 19.0739 10.8044 19.1052 10.7656 19.1052H9.77635C9.70914 19.1052 9.6541 19.1575 9.6541 19.2216V19.5729C9.6541 19.6372 9.70914 19.689 9.77635 19.689H10.7656C10.7836 19.6899 10.8006 19.6977 10.8131 19.7107C10.8255 19.7238 10.8325 19.7412 10.8325 19.7592C10.8325 19.7773 10.8255 19.7947 10.8131 19.8077C10.8006 19.8208 10.7836 19.8286 10.7656 19.8295ZM11.0398 18.7391C11.0306 18.7392 11.0216 18.7376 11.0131 18.7342C11.0046 18.7308 10.9968 18.7258 10.9903 18.7194C10.9838 18.7129 10.9786 18.7053 10.9751 18.6969C10.9715 18.6885 10.9697 18.6794 10.9696 18.6703V18.667C10.9696 18.6484 10.977 18.6306 10.9902 18.6174C11.0033 18.6043 11.0212 18.5969 11.0398 18.5969C11.0584 18.5969 11.0762 18.6043 11.0894 18.6174C11.1025 18.6306 11.1099 18.6484 11.1099 18.667V18.6703C11.1099 18.7092 11.0786 18.7391 11.0398 18.7391ZM11.0398 19.8295C11.0306 19.8295 11.0214 19.8277 11.0129 19.8242C11.0044 19.8207 10.9966 19.8155 10.9901 19.809C10.9836 19.8025 10.9784 19.7947 10.9749 19.7862C10.9714 19.7777 10.9696 19.7685 10.9696 19.7593V19.0351C10.9697 19.0259 10.9715 19.0168 10.9751 19.0084C10.9786 18.9999 10.9838 18.9923 10.9903 18.9858C10.9968 18.9793 11.0046 18.9742 11.013 18.9708C11.0215 18.9673 11.0306 18.9655 11.0398 18.9656C11.0786 18.9656 11.1099 18.9963 11.1099 19.0351V19.7593C11.11 19.7685 11.1082 19.7777 11.1047 19.7862C11.1012 19.7947 11.096 19.8025 11.0895 19.809C11.083 19.8155 11.0752 19.8207 11.0667 19.8242C11.0581 19.8277 11.049 19.8295 11.0398 19.8295ZM12.4954 19.8295C12.4862 19.8295 12.4771 19.8277 12.4686 19.8242C12.4601 19.8206 12.4524 19.8155 12.4459 19.809C12.4394 19.8024 12.4342 19.7947 12.4307 19.7862C12.4272 19.7777 12.4254 19.7685 12.4255 19.7593V19.2216C12.4255 19.1575 12.3703 19.1052 12.3047 19.1052H11.5046C11.439 19.1052 11.3838 19.1575 11.3838 19.2216V19.7593C11.3838 19.7779 11.3764 19.7957 11.3633 19.8088C11.3502 19.8219 11.3324 19.8293 11.3138 19.8293C11.2953 19.8293 11.2775 19.8219 11.2644 19.8088C11.2512 19.7957 11.2439 19.7779 11.2439 19.7593V19.2171C11.2439 19.0784 11.3614 18.9656 11.5044 18.9656H12.3045C12.4477 18.9656 12.5653 19.0784 12.5653 19.2171V19.7593C12.5653 19.7685 12.5636 19.7777 12.5601 19.7862C12.5567 19.7947 12.5515 19.8025 12.545 19.809C12.5385 19.8155 12.5308 19.8207 12.5223 19.8242C12.5138 19.8277 12.5047 19.8295 12.4954 19.8295ZM13.881 19.2143C13.881 19.2765 13.8334 19.3228 13.759 19.3228H12.9559C12.8948 19.3228 12.8398 19.2812 12.8398 19.2156C12.8398 19.1487 12.8948 19.1052 12.9559 19.1052H13.759C13.8334 19.1052 13.881 19.1534 13.881 19.2143ZM14.0227 19.2143C14.0227 19.0693 13.9006 18.9657 13.759 18.9657H12.9559C12.8323 18.9657 12.6994 19.0653 12.6994 19.2156C12.6994 19.2869 12.7352 19.3478 12.7841 19.3932C12.7581 19.4162 12.7371 19.4443 12.7225 19.4758C12.7079 19.5073 12.7 19.5415 12.6994 19.5762C12.6994 19.7265 12.8335 19.8296 12.9559 19.8296H13.759C13.8274 19.8296 13.881 19.8775 13.881 19.9425C13.881 20.0081 13.8274 20.0563 13.759 20.0563H12.7726C12.7541 20.0563 12.7363 20.0636 12.7232 20.0767C12.7101 20.0898 12.7028 20.1076 12.7028 20.1261C12.7028 20.1446 12.7101 20.1624 12.7232 20.1754C12.7363 20.1885 12.7541 20.1959 12.7726 20.1959H13.759C13.9034 20.1959 14.0212 20.0827 14.0212 19.9425C14.0212 19.803 13.9034 19.689 13.759 19.689H12.9559C12.8976 19.689 12.8398 19.6462 12.8398 19.5762C12.8398 19.5062 12.8976 19.4634 12.9559 19.4634H13.759C13.9006 19.4634 14.0227 19.3603 14.0227 19.2143ZM15.9295 19.8295H14.9403C14.7958 19.8295 14.6781 19.7178 14.6781 19.5777V18.667C14.6781 18.6484 14.6855 18.6306 14.6987 18.6174C14.7118 18.6043 14.7297 18.5969 14.7483 18.5969C14.7669 18.5969 14.7847 18.6043 14.7979 18.6174C14.811 18.6306 14.8184 18.6484 14.8184 18.667V18.9268C14.8184 18.9458 14.8358 18.9657 14.8569 18.9657H15.9295C15.9684 18.9657 15.9997 18.9964 15.9997 19.0352C15.9997 19.074 15.9684 19.1054 15.9295 19.1054H14.8569C14.8468 19.1053 14.8372 19.1091 14.83 19.1161C14.8228 19.1231 14.8186 19.1327 14.8184 19.1427V19.5778C14.8184 19.6434 14.8733 19.6892 14.9403 19.6892H15.9295C15.9684 19.6892 15.9997 19.7208 15.9997 19.7597C15.9997 19.7688 15.9979 19.778 15.9943 19.7864C15.9908 19.7949 15.9856 19.8026 15.9791 19.8091C15.9726 19.8156 15.9649 19.8208 15.9564 19.8242C15.9479 19.8277 15.9387 19.8295 15.9295 19.8295ZM17.3855 19.8295C17.3763 19.8295 17.3672 19.8277 17.3586 19.8242C17.3501 19.8207 17.3424 19.8155 17.3358 19.809C17.3293 19.8025 17.3242 19.7947 17.3207 19.7862C17.3171 19.7777 17.3154 19.7685 17.3154 19.7593V19.2231C17.3154 19.1518 17.2558 19.105 17.1949 19.105H16.7522C16.7206 19.1048 16.6901 19.117 16.6675 19.1392C16.6448 19.1613 16.6319 19.1914 16.6314 19.2231V19.5728C16.6314 19.6996 16.5299 19.8293 16.3827 19.8293C16.2349 19.8293 16.134 19.6996 16.134 19.5728V18.6668C16.134 18.6483 16.1413 18.6306 16.1544 18.6175C16.1675 18.6044 16.1853 18.597 16.2038 18.597C16.2223 18.597 16.24 18.6044 16.2531 18.6175C16.2662 18.6306 16.2736 18.6483 16.2736 18.6668V19.5728C16.2736 19.6238 16.3109 19.6889 16.3828 19.6889C16.4543 19.6889 16.4911 19.6239 16.4911 19.5728V19.2195C16.4911 19.0784 16.6092 18.9656 16.7524 18.9656H17.1951C17.3378 18.9656 17.4552 19.077 17.4552 19.2195V19.7592C17.4552 19.7684 17.4535 19.7775 17.45 19.786C17.4466 19.7945 17.4414 19.8023 17.435 19.8088C17.4285 19.8153 17.4208 19.8205 17.4123 19.8241C17.4038 19.8276 17.3947 19.8294 17.3855 19.8295ZM18.841 19.8295H17.8504C17.7073 19.8295 17.5895 19.716 17.5895 19.5793V19.2172C17.5895 19.0786 17.7075 18.9657 17.852 18.9657H18.6501C18.7951 18.9657 18.9113 19.0818 18.9113 19.213C18.9113 19.3525 18.7962 19.4632 18.6501 19.4632H17.8679C17.8492 19.4632 17.8314 19.4558 17.8182 19.4426C17.805 19.4294 17.7976 19.4115 17.7976 19.3929C17.7976 19.3742 17.805 19.3564 17.8182 19.3432C17.8314 19.33 17.8492 19.3226 17.8679 19.3226H18.649C18.7175 19.3226 18.7694 19.2797 18.7694 19.2128C18.7694 19.1606 18.7162 19.105 18.649 19.105H17.8505C17.782 19.105 17.7294 19.1622 17.7294 19.2179V19.5728C17.7294 19.6371 17.7849 19.6889 17.8489 19.6889H18.841C18.88 19.6889 18.9115 19.7205 18.9115 19.7593C18.9115 19.7686 18.9097 19.7777 18.9062 19.7863C18.9026 19.7948 18.8974 19.8026 18.8909 19.8091C18.8843 19.8156 18.8766 19.8208 18.868 19.8243C18.8594 19.8278 18.8503 19.8295 18.841 19.8295ZM20.6272 19.8295H19.8454C19.8275 19.8283 19.8108 19.8203 19.7986 19.8073C19.7865 19.7942 19.7797 19.777 19.7797 19.7592C19.7797 19.7413 19.7865 19.7241 19.7986 19.7111C19.8108 19.698 19.8275 19.6901 19.8454 19.6889H20.6272C20.6928 19.6889 20.7484 19.6356 20.7484 19.576V19.2231C20.7478 19.1914 20.7348 19.1612 20.7121 19.1391C20.6894 19.117 20.6589 19.1048 20.6272 19.105H19.8272C19.8116 19.1047 19.7961 19.1075 19.7817 19.1132C19.7672 19.1189 19.7539 19.1274 19.7428 19.1382C19.7316 19.149 19.7226 19.162 19.7164 19.1762C19.7102 19.1905 19.7069 19.2059 19.7067 19.2214V20.1258C19.7067 20.1443 19.6993 20.162 19.6863 20.1751C19.6732 20.1882 19.6554 20.1956 19.6369 20.1956C19.6277 20.1957 19.6185 20.1939 19.61 20.1904C19.6014 20.187 19.5937 20.1818 19.5871 20.1754C19.5806 20.1689 19.5754 20.1611 19.5718 20.1526C19.5683 20.1441 19.5664 20.135 19.5664 20.1258V19.2169C19.5664 19.0783 19.6828 18.9654 19.827 18.9654H20.6271C20.7721 18.9654 20.888 19.0783 20.888 19.2213V19.5773C20.8883 19.716 20.7706 19.8295 20.6272 19.8295ZM22.2737 19.8295C22.2645 19.8295 22.2554 19.8276 22.2469 19.8241C22.2384 19.8206 22.2307 19.8154 22.2242 19.8089C22.2177 19.8024 22.2126 19.7947 22.2091 19.7861C22.2056 19.7776 22.2038 19.7685 22.2039 19.7593V19.2231C22.2039 19.1518 22.1443 19.105 22.0834 19.105H21.6407C21.6091 19.1048 21.5786 19.1171 21.5561 19.1392C21.5335 19.1613 21.5206 19.1915 21.5202 19.2231V19.5728C21.5202 19.6996 21.4184 19.8293 21.2713 19.8293C21.1242 19.8293 21.0224 19.6996 21.0224 19.5728V18.6668C21.0236 18.6491 21.0315 18.6324 21.0446 18.6203C21.0576 18.6081 21.0747 18.6013 21.0926 18.6013C21.1104 18.6013 21.1275 18.6081 21.1405 18.6203C21.1536 18.6324 21.1615 18.6491 21.1627 18.6668V19.5728C21.1627 19.6238 21.1995 19.6889 21.2715 19.6889C21.3427 19.6889 21.3802 19.6239 21.3802 19.5728V19.2195C21.3802 19.0784 21.4983 18.9656 21.6408 18.9656H22.0836C22.2266 18.9656 22.3441 19.077 22.3441 19.2195V19.7592C22.3442 19.7684 22.3423 19.7776 22.3388 19.7861C22.3353 19.7947 22.3301 19.8024 22.3235 19.809C22.317 19.8155 22.3092 19.8207 22.3007 19.8242C22.2921 19.8277 22.2829 19.8295 22.2737 19.8295ZM23.7995 19.5778C23.7995 19.7161 23.6818 19.8296 23.5389 19.8296H22.7388C22.5958 19.8296 22.4779 19.7161 22.4779 19.5778V19.0352C22.478 19.0168 22.4854 18.9991 22.4985 18.9861C22.5116 18.9731 22.5293 18.9657 22.5477 18.9657C22.5569 18.9657 22.566 18.9674 22.5746 18.9708C22.5831 18.9743 22.5909 18.9794 22.5974 18.9858C22.6039 18.9923 22.6092 19 22.6127 19.0085C22.6163 19.0169 22.6181 19.026 22.6182 19.0352V19.5729C22.6182 19.6372 22.6731 19.689 22.739 19.689H23.5391C23.6047 19.689 23.6599 19.6374 23.6599 19.5729V19.0352C23.6599 18.9966 23.6912 18.9657 23.73 18.9657C23.7688 18.9657 23.7998 18.9964 23.7998 19.0352V19.5778H23.7995ZM25.1852 19.8295H24.1961C24.0511 19.8295 23.9336 19.7178 23.9336 19.5777V18.667C23.9336 18.6484 23.941 18.6305 23.9542 18.6173C23.9674 18.6041 23.9852 18.5967 24.0039 18.5967C24.0225 18.5967 24.0404 18.6041 24.0536 18.6173C24.0668 18.6305 24.0742 18.6484 24.0742 18.667V18.9268C24.0742 18.9458 24.0915 18.9657 24.1125 18.9657H25.1852C25.2037 18.9657 25.2214 18.9731 25.2345 18.9862C25.2476 18.9993 25.255 19.017 25.255 19.0356C25.255 19.0541 25.2476 19.0718 25.2345 19.0849C25.2214 19.098 25.2037 19.1054 25.1852 19.1054H24.1125C24.1025 19.1053 24.0929 19.1092 24.0857 19.1162C24.0785 19.1232 24.0744 19.1327 24.0742 19.1427V19.5778C24.0742 19.6434 24.1291 19.6892 24.1963 19.6892H25.1853C25.224 19.6892 25.2558 19.7208 25.2558 19.7597C25.2557 19.7783 25.2481 19.7961 25.2349 19.8092C25.2217 19.8222 25.2038 19.8296 25.1852 19.8295ZM26.7111 19.5778C26.7111 19.7161 26.5931 19.8296 26.4502 19.8296H25.6501C25.5071 19.8296 25.3892 19.7161 25.3892 19.5778V19.0352C25.3892 18.9966 25.4206 18.9657 25.4597 18.9657C25.4988 18.9657 25.5298 18.9964 25.5298 19.0352V19.5729C25.5298 19.6372 25.5847 19.689 25.6503 19.689H26.4504C26.516 19.689 26.5715 19.6374 26.5715 19.5729V19.0352C26.5715 18.9966 26.6022 18.9657 26.641 18.9657C26.6502 18.9657 26.6593 18.9674 26.6678 18.9708C26.6763 18.9743 26.6841 18.9794 26.6907 18.9858C26.6972 18.9923 26.7024 19 26.706 19.0085C26.7095 19.0169 26.7114 19.026 26.7114 19.0352V19.5778H26.7111ZM28.0965 19.1052H27.103C27.0876 19.1048 27.0722 19.1075 27.0578 19.1132C27.0434 19.1189 27.0303 19.1275 27.0193 19.1383C27.0083 19.1492 26.9996 19.1622 26.9937 19.1765C26.9878 19.1908 26.9848 19.2061 26.985 19.2216V19.7593C26.985 19.7778 26.9777 19.7956 26.9646 19.8087C26.9515 19.8218 26.9337 19.8291 26.9152 19.8291C26.8967 19.8291 26.8789 19.8218 26.8658 19.8087C26.8527 19.7956 26.8454 19.7778 26.8454 19.7593V19.2171C26.8454 19.077 26.9582 18.9656 27.1029 18.9656H28.0963C28.135 18.9656 28.1665 18.9963 28.1665 19.0351C28.1665 19.0739 28.1351 19.1052 28.0965 19.1052ZM29.5526 19.8295H28.5615C28.4184 19.8295 28.3009 19.716 28.3009 19.5793V19.2172C28.3009 19.0786 28.4186 18.9657 28.5631 18.9657H29.3619C29.5062 18.9657 29.6224 19.0818 29.6224 19.213C29.6224 19.3525 29.5077 19.4632 29.3619 19.4632H28.5796C28.561 19.4632 28.5431 19.4558 28.5299 19.4426C28.5168 19.4294 28.5093 19.4115 28.5093 19.3929C28.5093 19.3742 28.5168 19.3564 28.5299 19.3432C28.5431 19.33 28.561 19.3226 28.5796 19.3226H29.3604C29.4289 19.3226 29.4812 19.2797 29.4812 19.2128C29.4812 19.1606 29.4276 19.105 29.3604 19.105H28.5616C28.4934 19.105 28.4412 19.1622 28.4412 19.2179V19.5728C28.4412 19.6371 28.4964 19.6889 28.5607 19.6889H29.5528C29.5714 19.6889 29.5893 19.6963 29.6025 19.7095C29.6157 19.7227 29.623 19.7406 29.623 19.7592C29.623 19.7779 29.6156 19.7958 29.6024 19.8089C29.5892 19.8221 29.5713 19.8295 29.5526 19.8295ZM30.4626 19.8295H30.3508C30.3321 19.8295 30.3142 19.8221 30.3011 19.8089C30.2879 19.7957 30.2805 19.7778 30.2805 19.7592C30.2805 19.7405 30.2879 19.7226 30.3011 19.7095C30.3142 19.6963 30.3321 19.6889 30.3508 19.6889H30.4626C30.5279 19.6889 30.5837 19.6372 30.5837 19.5728V19.2214C30.5837 19.1573 30.5279 19.105 30.4626 19.105H30.3478C30.3387 19.1052 30.3296 19.1035 30.3212 19.1001C30.3127 19.0967 30.305 19.0917 30.2985 19.0853C30.292 19.0789 30.2868 19.0712 30.2833 19.0628C30.2798 19.0544 30.278 19.0453 30.278 19.0362C30.278 18.9979 30.309 18.9654 30.3478 18.9654H30.4626C30.6057 18.9654 30.7232 19.0783 30.7232 19.2169V19.5775C30.7234 19.716 30.6057 19.8295 30.4626 19.8295ZM6.92023 18.0139H3.78226C3.07635 18.0139 2.48911 17.4761 2.48911 16.7909C2.48911 16.1059 3.06904 15.5678 3.78226 15.5678H6.06057C6.3192 15.5678 6.48691 15.3862 6.48691 15.1978C6.48691 14.9738 6.31221 14.8131 6.06057 14.8131H2.45421C2.21685 14.8131 2.02787 14.9947 2.02787 15.2115V17.5875C2.02787 17.8254 1.83223 18.014 1.59471 18.014C1.35719 18.014 1.16155 17.8254 1.16155 17.5875V15.1904C1.16155 14.5122 1.74829 13.9605 2.45421 13.9605H6.06057C6.78742 13.9605 7.35339 14.5054 7.35339 15.1977C7.35339 15.8335 6.80139 16.4204 6.06057 16.4204H3.78226C3.53045 16.4204 3.35576 16.5814 3.35576 16.7907C3.35576 17.0073 3.55156 17.1613 3.78226 17.1613H6.92023C7.15775 17.1613 7.35339 17.343 7.35339 17.5805C7.35339 17.8181 7.15775 18.0139 6.92023 18.0139ZM13.7482 18.0139H9.27533C8.56942 18.0139 7.98251 17.4619 7.98251 16.7909V15.1904C7.98251 14.5122 8.56958 13.9605 9.28247 13.9605H12.8885C13.6014 13.9605 14.1815 14.5405 14.1815 15.1904C14.1815 15.8823 13.6084 16.4205 12.8885 16.4205H9.74356C9.50603 16.4205 9.31023 16.2319 9.31023 15.9942C9.31023 15.7565 9.50603 15.568 9.74356 15.568H12.8817C13.1402 15.568 13.308 15.4146 13.308 15.1905C13.308 15.03 13.126 14.8132 12.8817 14.8132H9.27533C9.03082 14.8132 8.84915 15.009 8.84915 15.198V16.7633C8.84915 16.9802 9.03781 17.1618 9.26851 17.1618H13.7482C13.9859 17.1618 14.1817 17.3502 14.1817 17.5877C14.1817 17.8252 13.9859 18.0139 13.7482 18.0139ZM21.8342 18.0139C21.5963 18.0139 21.3937 17.8252 21.3937 17.5874V15.2113C21.3937 14.9947 21.2051 14.8129 20.9675 14.8129H20.2683C20.0241 14.8129 19.8278 14.9946 19.8278 15.2113V16.0288C19.8278 16.7074 19.2552 17.2591 18.5423 17.2591C17.8154 17.2591 17.2561 16.7141 17.2561 16.0288V15.2113C17.2561 14.9947 17.0605 14.8129 16.816 14.8129H16.1102C15.8653 14.8129 15.6836 14.9946 15.6836 15.2113V17.5874C15.6836 17.8252 15.4813 18.0139 15.2433 18.0139C15.0059 18.0139 14.8104 17.8252 14.8104 17.5874V15.1904C14.8104 14.5122 15.39 13.9605 16.1102 13.9605H16.823C17.5362 13.9605 18.1228 14.5122 18.1228 15.1904V16.0289C18.1228 16.2525 18.3045 16.4272 18.5423 16.4272C18.7802 16.4272 18.9618 16.2525 18.9618 16.0289V15.1904C18.9618 14.5122 19.5418 13.9605 20.2616 13.9605H20.9675C21.6804 13.9605 22.2673 14.5122 22.2673 15.1904V17.5874C22.2673 17.8252 22.0717 18.0139 21.8342 18.0139ZM23.3293 18.0139C23.0781 18.0139 22.8965 17.8252 22.8965 17.5874V14.3867C22.8965 14.1492 23.0781 13.9605 23.3293 13.9605C23.5814 13.9605 23.7628 14.1492 23.7628 14.3867V17.5874C23.7628 17.8252 23.5814 18.0139 23.3293 18.0139ZM30.1576 18.0139C29.9197 18.0139 29.7241 17.8252 29.7241 17.5874V16.7909C29.7241 16.5743 29.5494 16.4205 29.2979 16.4205H25.6846C25.4188 16.4205 25.2581 16.56 25.2581 16.7982V17.5874C25.2581 17.8252 25.0624 18.0139 24.8252 18.0139C24.5874 18.0139 24.3914 17.8252 24.3914 17.5874V16.8258C24.3914 16.5111 24.5106 16.2319 24.7061 16.0219C24.5177 15.812 24.3914 15.5326 24.3914 15.2253V14.3867C24.3914 14.1492 24.5874 13.9605 24.8252 13.9605C25.0624 13.9605 25.2581 14.1492 25.2581 14.3867V15.1904C25.2581 15.4144 25.4328 15.5678 25.6846 15.5678H29.2979C29.5564 15.5678 29.7241 15.4212 29.7241 15.1831V14.3867C29.7241 14.1492 29.9197 13.9605 30.1576 13.9605C30.3951 13.9605 30.591 14.1492 30.591 14.3867V15.2183C30.5927 15.5165 30.4801 15.8041 30.2764 16.0219C30.4647 16.2317 30.591 16.5111 30.591 16.8188V17.5874C30.591 17.8252 30.3951 18.0139 30.1576 18.0139ZM11.516 12.8741C11.516 13.0489 11.369 13.1955 11.1945 13.1955C11.02 13.1955 10.873 13.0488 10.873 12.8741C10.873 12.6995 11.02 12.5528 11.1945 12.5528C11.369 12.5528 11.516 12.6995 11.516 12.8741ZM11.8514 12.8741C11.8515 12.7878 11.8345 12.7023 11.8015 12.6226C11.7685 12.5429 11.7201 12.4705 11.6591 12.4094C11.5981 12.3484 11.5257 12.3001 11.446 12.2671C11.3662 12.2341 11.2808 12.2171 11.1945 12.2172C11.1082 12.2171 11.0227 12.234 10.943 12.267C10.8633 12.3 10.7908 12.3484 10.7298 12.4094C10.6687 12.4704 10.6204 12.5428 10.5874 12.6226C10.5544 12.7023 10.5374 12.7878 10.5375 12.8741C10.5374 12.9604 10.5543 13.0458 10.5873 13.1256C10.6203 13.2053 10.6687 13.2778 10.7297 13.3388C10.7908 13.3998 10.8632 13.4482 10.943 13.4812C11.0227 13.5141 11.1082 13.5311 11.1945 13.531C11.2808 13.531 11.3663 13.5141 11.446 13.4811C11.5257 13.4481 11.5982 13.3998 11.6592 13.3388C11.7202 13.2777 11.7686 13.2053 11.8016 13.1256C11.8345 13.0458 11.8515 12.9604 11.8514 12.8741ZM23.6048 12.8775C23.6048 13.0522 23.4584 13.1989 23.2835 13.1989C23.1985 13.198 23.1173 13.1639 23.0572 13.1038C22.9972 13.0437 22.963 12.9625 22.9621 12.8775C22.9621 12.703 23.1085 12.5562 23.2835 12.5562C23.3685 12.5571 23.4497 12.5912 23.5097 12.6513C23.5698 12.7113 23.6039 12.7925 23.6048 12.8775ZM23.9406 12.8775C23.9406 12.7912 23.9237 12.7057 23.8907 12.6259C23.8577 12.5462 23.8093 12.4737 23.7483 12.4127C23.6872 12.3516 23.6148 12.3032 23.535 12.2702C23.4553 12.2372 23.3698 12.2202 23.2835 12.2203C23.1972 12.2202 23.1117 12.2371 23.0319 12.2701C22.9521 12.3031 22.8796 12.3515 22.8185 12.4125C22.7574 12.4736 22.709 12.5461 22.676 12.6258C22.643 12.7056 22.6261 12.7911 22.6261 12.8775C22.6261 12.9638 22.643 13.0493 22.6761 13.1291C22.7091 13.2088 22.7575 13.2813 22.8186 13.3423C22.8796 13.4034 22.9521 13.4518 23.0319 13.4847C23.1117 13.5177 23.1972 13.5346 23.2835 13.5345C23.3698 13.5346 23.4553 13.5176 23.535 13.4846C23.6148 13.4516 23.6872 13.4033 23.7483 13.3422C23.8093 13.2812 23.8577 13.2087 23.8907 13.129C23.9237 13.0493 23.9406 12.9638 23.9406 12.8775Z" fill="#E3E3E3"/>
<path fill-rule="evenodd" clip-rule="evenodd" d="M25.4572 12.7144L25.2679 12.9976C25.2593 13.0229 25.2439 13.0352 25.2213 13.0352H24.9625C24.9399 13.0352 24.933 13.0226 24.9419 12.9972L25.0729 12.8282H24.8091L24.8183 13.5004C24.8094 13.5257 24.794 13.5384 24.7717 13.5384H24.494C24.4717 13.5384 24.4641 13.5257 24.4717 13.5004L24.4634 12.8282H24.1964C24.178 12.8282 24.1688 12.8196 24.1688 12.8022C24.1688 12.7982 24.1698 12.7942 24.1717 12.7905L24.1964 12.7139C24.205 12.6889 24.222 12.6766 24.2473 12.6766H24.4496V12.5322C24.4573 12.5071 24.4725 12.4943 24.4962 12.4943H24.775C24.7976 12.4943 24.8045 12.5071 24.7953 12.5322V12.6766H25.4354C25.4588 12.6764 25.4665 12.6892 25.4572 12.7144ZM26.7424 13.0253L26.718 13.1011C26.7091 13.1261 26.6921 13.139 26.6671 13.139H26.1052C26.1121 13.1865 26.1284 13.2279 26.1547 13.263C26.2175 13.3455 26.3237 13.3867 26.473 13.3867H26.632C26.6507 13.3867 26.6599 13.395 26.6599 13.4114C26.6597 13.4159 26.6587 13.4203 26.657 13.4245L26.632 13.5004C26.6237 13.5257 26.6063 13.5384 26.5813 13.5384H26.4297C26.1678 13.5384 25.981 13.4911 25.8691 13.3969C25.7908 13.331 25.7527 13.2451 25.7559 13.139H25.4895C25.4708 13.139 25.4616 13.1302 25.4616 13.1128C25.4615 13.1088 25.462 13.1048 25.4632 13.101L25.4895 13.0252C25.4981 12.9998 25.5145 12.9872 25.54 12.9872H25.7876L25.865 12.7573H25.6843C25.6673 12.7573 25.6584 12.749 25.6584 12.7323C25.6584 12.7285 25.6587 12.724 25.66 12.7193L25.6863 12.6435C25.6939 12.6181 25.711 12.6055 25.7369 12.6055H26.5477C26.5664 12.6055 26.5757 12.6142 26.5757 12.6316C26.5755 12.6358 26.5744 12.6398 26.5724 12.6435L26.5477 12.7193C26.5388 12.7446 26.5221 12.7573 26.4971 12.7573H26.2117L26.1342 12.9872H26.7184C26.7367 12.9872 26.746 12.9956 26.746 13.0122C26.7456 13.0167 26.7443 13.0212 26.7424 13.0253ZM28.1333 13.0536L27.982 13.5007C27.974 13.5257 27.9583 13.5382 27.9354 13.5382H27.7362C27.7133 13.5382 27.7055 13.5258 27.7146 13.5008L27.8659 13.0537C27.8751 13.0284 27.8902 13.0156 27.9125 13.0156H28.1114C28.1344 13.0157 28.1417 13.0284 28.1333 13.0536ZM28.2451 12.7927L28.2205 12.8685C28.2115 12.8938 28.1948 12.9065 28.1698 12.9065H27.7516L27.5509 13.5005C27.5423 13.5258 27.5266 13.5385 27.5043 13.5385H27.2265C27.2028 13.5385 27.196 13.5258 27.2043 13.5005L27.405 12.9065H26.9914C26.9734 12.9065 26.9638 12.8984 26.9638 12.8818C26.9638 12.8772 26.9651 12.8725 26.9668 12.8685L26.9914 12.7927C27.0004 12.7673 27.0174 12.7548 27.0424 12.7548H27.4563L27.5082 12.6004C27.5171 12.5753 27.5326 12.5628 27.5551 12.5628H27.8332C27.8565 12.5628 27.8638 12.5753 27.8552 12.6004L27.8026 12.7548H28.2205C28.2388 12.7548 28.2484 12.7636 28.2484 12.781C28.2482 12.7851 28.2471 12.7891 28.2451 12.7927L27.2204 13.054L27.0666 13.5002C27.0583 13.5258 27.0431 13.5384 27.02 13.5384H26.8211C26.7982 13.5384 26.7906 13.5257 26.7995 13.5008L26.953 13.0545C26.9622 13.0286 26.9773 13.0157 26.9996 13.0157H27.1984C27.2217 13.0157 27.229 13.0286 27.2204 13.054L28.2451 12.7927ZM29.4793 12.7818L29.4581 12.8462C29.4511 12.868 29.4365 12.8787 29.4152 12.8787H29.1574L28.9785 13.4096H29.2366C29.2579 13.4096 29.2649 13.4203 29.2563 13.4414L29.235 13.5065C29.228 13.5278 29.2141 13.5384 29.1925 13.5384H28.2899C28.2674 13.5384 28.2601 13.5278 28.2677 13.5065L28.2899 13.4414C28.2923 13.4319 28.298 13.4235 28.306 13.4177C28.3139 13.4119 28.3236 13.409 28.3335 13.4096H28.6205L28.7997 12.8787H28.513C28.4901 12.8787 28.4831 12.8682 28.4908 12.8462L28.513 12.7818C28.519 12.7607 28.5343 12.7498 28.5565 12.7498H29.4591C29.4805 12.7498 29.4871 12.7605 29.4793 12.7818ZM30.8517 12.6386L30.8082 12.7579C30.7559 12.8977 30.6765 13.0117 30.5707 13.1002C30.6145 13.1487 30.6363 13.2094 30.6363 13.282C30.6363 13.315 30.6316 13.3463 30.6233 13.3752L30.5814 13.5005C30.5721 13.5255 30.5564 13.538 30.5338 13.538H30.3439C30.321 13.538 30.3134 13.5254 30.322 13.4999L30.3629 13.3867L30.3616 13.3864C30.364 13.3725 30.3629 13.3583 30.3587 13.3449C30.3544 13.3315 30.3469 13.3193 30.3369 13.3094C30.1523 13.4619 29.912 13.538 29.6159 13.538H29.5078C29.4891 13.538 29.4805 13.5294 29.4805 13.512C29.4805 13.508 29.4811 13.5039 29.4831 13.5L29.5078 13.4242C29.5167 13.3989 29.5334 13.3864 29.5591 13.3864H29.6738C29.8612 13.3864 30.0495 13.2935 30.2387 13.107C30.2127 13.0708 30.1508 13.0529 30.0538 13.0529H29.951C29.933 13.0529 29.924 13.044 29.924 13.0268C29.924 13.0232 29.925 13.0191 29.9257 13.0151L29.952 12.9402C29.9609 12.9141 29.9776 12.9013 30.0026 12.9013H30.0974C30.1809 12.9013 30.2715 12.916 30.3682 12.9456C30.4022 12.9078 30.4317 12.8539 30.4557 12.7841L30.5049 12.6384C30.5142 12.6131 30.5293 12.6004 30.5515 12.6004H30.83C30.8465 12.6004 30.8546 12.6086 30.8546 12.6253C30.8547 12.6299 30.8537 12.6344 30.8517 12.6386ZM31.3118 12.5064C31.3026 12.5322 31.2868 12.5449 31.263 12.5449H31.1805C31.1582 12.5449 31.1509 12.5321 31.1599 12.5058L31.1772 12.447C31.1862 12.4215 31.2016 12.4087 31.2248 12.4087H31.2651C31.3031 12.4087 31.3227 12.4256 31.3227 12.4595C31.3228 12.4655 31.3223 12.4716 31.3214 12.4775L31.3118 12.5064ZM31.5065 12.4155C31.5065 12.3553 31.4719 12.3249 31.404 12.3249H31.0837C31.0605 12.3249 31.0451 12.3381 31.0375 12.3634L30.9589 12.5949C30.9499 12.6207 30.9576 12.6332 30.9805 12.6332H31.4057C31.4282 12.6332 31.4437 12.6206 31.4523 12.5949L31.5018 12.449C31.505 12.4381 31.5065 12.4268 31.5065 12.4155Z" fill="#B4282E"/>
</svg>
