<svg width="32" height="32" viewBox="0 0 32 32" fill="none" xmlns="http://www.w3.org/2000/svg">
<path d="M23.8936 8.98367C23.8771 8.86805 23.7717 8.80414 23.6845 8.79712C23.5976 8.7901 21.7571 8.65915 21.7571 8.65915C21.7571 8.65915 20.4789 7.44066 20.3387 7.30583C20.1983 7.17099 19.9242 7.212 19.8178 7.2421C19.802 7.24654 19.5385 7.32467 19.1024 7.45414C18.6754 6.27444 17.9219 5.19024 16.5962 5.19024C16.5596 5.19024 16.5219 5.19171 16.4842 5.19375C16.1072 4.71499 15.6402 4.50702 15.2368 4.50702C12.1487 4.50702 10.6733 8.21383 10.2107 10.0976C9.01076 10.4546 8.15823 10.7084 8.04935 10.7413C7.37957 10.943 7.35841 10.9633 7.2705 11.5693C7.20414 12.0281 5.45157 25.0423 5.45157 25.0423L19.108 27.4992L26.5076 25.9621C26.5076 25.9621 23.91 9.0993 23.8936 8.98367ZM18.3476 7.67837C18.0046 7.78033 17.6147 7.89614 17.1921 8.02174C17.1925 7.94361 17.1929 7.86659 17.1929 7.78255C17.1929 7.04927 17.0869 6.45896 16.9168 5.99092C17.5999 6.0733 18.0548 6.8195 18.3476 7.67837ZM16.0695 6.13629C16.2594 6.59324 16.3829 7.24894 16.3829 8.13385C16.3829 8.1791 16.3825 8.22048 16.3821 8.26241C15.6305 8.4859 14.814 8.7286 13.9955 8.97203C14.455 7.26907 15.3164 6.44659 16.0695 6.13629ZM15.152 5.30235C15.2853 5.30235 15.4195 5.34576 15.548 5.43072C14.5583 5.87789 13.4975 7.00421 13.0495 9.25334C12.3947 9.44802 11.7547 9.63826 11.163 9.81428C11.6878 8.09876 12.9339 5.30235 15.152 5.30235Z" fill="#95BF46"/>
<path d="M23.6851 8.79722C23.5981 8.7902 21.7577 8.65925 21.7577 8.65925C21.7577 8.65925 20.4794 7.44076 20.3392 7.30593C20.2867 7.25569 20.2159 7.23002 20.1419 7.21893L19.1093 27.4992L26.5081 25.9622C26.5081 25.9622 23.9105 9.0994 23.8942 8.98377C23.8776 8.86815 23.7722 8.80424 23.6851 8.79722Z" fill="#5E8E3E"/>
<path d="M16.5974 12.7217L15.6851 15.3276C15.6851 15.3276 14.8857 14.918 13.9058 14.918C12.4693 14.918 12.3969 15.7837 12.3969 16.0018C12.3969 17.192 15.6282 17.6481 15.6282 20.436C15.6282 22.6293 14.1793 24.0417 12.2257 24.0417C9.88148 24.0417 8.68271 22.6408 8.68271 22.6408L9.31037 20.6495C9.31037 20.6495 10.5426 21.6654 11.5825 21.6654C12.2619 21.6654 12.5383 21.1517 12.5383 20.7764C12.5383 19.2238 9.88744 19.1545 9.88744 16.6034C9.88744 14.4562 11.4925 12.3783 14.7323 12.3783C15.9807 12.3783 16.5974 12.7217 16.5974 12.7217Z" fill="white"/>
<path d="M27.5559 6.2224L29.3337 0.889069M31.1115 3.55574H25.7781" stroke="#E2C609" stroke-width="0.888889" stroke-linecap="round" stroke-linejoin="round"/>
</svg>
