<svg width="54" height="54" viewBox="0 0 54 54" fill="none" xmlns="http://www.w3.org/2000/svg">
<circle cx="27" cy="27" r="27" fill="#333333"/>
<g clip-path="url(#clip0_9205_1819)">
<path d="M36.29 17.9869C32.6456 18.0045 29.8757 20.4147 28.8387 24.2557C27.0988 21.5782 25.7415 18.5155 24.9632 15.9299L21.1276 15.948L21.1807 26.1151C21.183 26.5937 21.0909 27.0681 20.9098 27.5112C20.7288 27.9543 20.4622 28.3574 20.1253 28.6975C19.7885 29.0375 19.3879 29.3079 18.9466 29.4932C18.5052 29.6784 18.0317 29.775 17.553 29.7772C16.5864 29.7818 15.6574 29.4022 14.9707 28.7219C14.6306 28.385 14.3602 27.9845 14.1749 27.5431C13.9897 27.1018 13.8931 26.6282 13.8909 26.1496L13.8377 15.9825L10 16.0011L10.0531 26.1687C10.068 30.3879 13.4393 33.7311 17.565 33.7098C21.6907 33.6886 25.0317 30.3172 25.0131 26.097L25.0052 24.3704C25.7787 25.9004 26.7455 27.5261 27.808 28.9604L25.4626 40.1932L29.3938 40.1751L31.0832 32.0141C32.6217 32.9666 34.3504 33.5334 36.3638 33.5239C40.5841 33.5053 44.0213 30.0373 44 25.6242C43.9809 21.4029 40.5107 17.9673 36.2905 17.9864L36.29 17.9869ZM36.3447 29.5926C34.8104 29.5995 33.273 28.936 32.0214 27.8857L32.3975 26.3451V26.2484C32.678 24.6153 33.5269 21.8305 36.4042 21.8178C37.4209 21.8159 38.397 22.2165 39.1194 22.932C39.8417 23.6474 40.2516 24.6197 40.2595 25.6364C40.1729 27.8427 38.3592 29.5783 36.3442 29.5873L36.3447 29.5926Z" fill="#E3E3E3"/>
</g>
<defs>
<clipPath id="clip0_9205_1819">
<rect width="34" height="34" fill="white" transform="translate(10 10)"/>
</clipPath>
</defs>
</svg>
