<svg width="54" height="54" viewBox="0 0 54 54" fill="none" xmlns="http://www.w3.org/2000/svg">
<circle cx="27" cy="27" r="27" fill="#333333"/>
<g clip-path="url(#clip0_9205_1810)">
<path d="M35.5013 15.666H18.5013C16.9365 15.666 15.668 16.9345 15.668 18.4993V35.4993C15.668 37.0642 16.9365 38.3327 18.5013 38.3327H35.5013C37.0661 38.3327 38.3346 37.0642 38.3346 35.4993V18.4993C38.3346 16.9345 37.0661 15.666 35.5013 15.666Z" stroke="#E3E3E3" stroke-width="2.125" stroke-linecap="round" stroke-linejoin="round"/>
<path d="M21.332 25.584V32.6673" stroke="#E3E3E3" stroke-width="2.125" stroke-linecap="round" stroke-linejoin="round"/>
<path d="M21.332 21.334V21.3477" stroke="#E3E3E3" stroke-width="2.125" stroke-linecap="round" stroke-linejoin="round"/>
<path d="M27 32.6673V25.584" stroke="#E3E3E3" stroke-width="2.125" stroke-linecap="round" stroke-linejoin="round"/>
<path d="M32.6667 32.6673V28.4173C32.6667 27.6659 32.3682 26.9452 31.8368 26.4138C31.3054 25.8825 30.5848 25.584 29.8333 25.584C29.0819 25.584 28.3612 25.8825 27.8299 26.4138C27.2985 26.9452 27 27.6659 27 28.4173" stroke="#E3E3E3" stroke-width="2.125" stroke-linecap="round" stroke-linejoin="round"/>
</g>
<defs>
<clipPath id="clip0_9205_1810">
<rect width="34" height="34" fill="white" transform="translate(10 10)"/>
</clipPath>
</defs>
</svg>
