<svg width="25" height="25" viewBox="0 0 25 25" fill="none" xmlns="http://www.w3.org/2000/svg">
<path d="M6.188 9.248C7.564 9.248 8.364 8.224 8.364 6.464C8.364 4.768 7.564 3.712 6.188 3.712C4.812 3.712 3.948 4.736 3.948 6.464C3.948 8.288 4.812 9.248 6.188 9.248ZM6.156 12.128C2.764 12.128 0.396 9.728 0.396 6.496C0.396 3.296 2.956 0.895998 6.188 0.895998C9.388 0.895998 11.916 3.2 11.916 6.432C11.916 9.696 9.516 12.128 6.156 12.128ZM3.468 24L18.668 1.12H21.548L6.348 24H3.468ZM18.796 21.44C20.204 21.44 21.004 20.416 21.004 18.688C21.004 16.96 20.204 15.936 18.796 15.936C17.452 15.936 16.588 16.928 16.588 18.688C16.588 20.48 17.452 21.44 18.796 21.44ZM18.796 24.352C15.404 24.352 13.036 21.92 13.036 18.72C13.036 15.488 15.596 13.088 18.796 13.088C22.028 13.088 24.556 15.392 24.556 18.624C24.556 21.888 22.156 24.352 18.796 24.352Z" fill="#4733FF"/>
</svg>
