<svg width="32" height="32" viewBox="0 0 32 32" fill="none" xmlns="http://www.w3.org/2000/svg">
<path d="M3.11229 5.61484H28.8755C30.5058 5.61484 31.8258 7.06404 31.8258 8.8544V19.6528C31.8258 21.443 30.506 22.8923 28.8755 22.8923H19.6365L20.9047 26.3022L15.3276 22.8923H3.1254C1.49501 22.8923 0.175082 21.4431 0.175082 19.6528V8.8544C0.162142 7.07829 1.48203 5.61484 3.11241 5.61484H3.11229Z" fill="#7F54B3"/>
<path d="M1.97606 8.56492C2.15618 8.2965 2.42637 8.15522 2.78662 8.12697C3.44279 8.07046 3.81591 8.40952 3.90598 9.14415C4.30483 12.0969 4.74228 14.5974 5.20551 16.6459L8.02317 10.7548C8.28049 10.2179 8.60214 9.93537 8.98813 9.90712C9.55424 9.86473 9.90162 10.2603 10.0431 11.0938C10.3648 12.9728 10.7765 14.5692 11.2654 15.9254C11.6 12.337 12.1661 9.75174 12.9638 8.15524C13.1568 7.75968 13.4399 7.56189 13.813 7.53363C14.1089 7.50537 14.3791 7.60427 14.6235 7.81618C14.868 8.0281 14.9967 8.29651 15.0224 8.62145C15.0353 8.87575 14.9967 9.08765 14.8937 9.29956C14.392 10.3167 13.9802 12.0262 13.6458 14.3995C13.3241 16.7024 13.2083 18.4965 13.2855 19.7821C13.3112 20.1353 13.2598 20.4461 13.1311 20.7146C12.9767 21.0254 12.7451 21.1949 12.4492 21.2232C12.1147 21.2514 11.7673 21.0819 11.4328 20.7004C10.2362 19.3583 9.28413 17.3523 8.58942 14.6821C7.75312 16.4903 7.13559 17.8467 6.73674 18.7508C5.97764 20.3472 5.33434 21.1666 4.79393 21.209C4.44654 21.2372 4.15062 20.9123 3.8933 20.2342C3.23713 18.3834 2.52947 14.8092 1.77035 9.51144C1.71889 9.14412 1.79608 8.81919 1.9762 8.56489L1.97606 8.56492ZM29.6259 10.7829C29.1627 9.89288 28.4808 9.35597 27.5674 9.14406C27.3229 9.08755 27.0913 9.05929 26.8726 9.05929C25.6375 9.05929 24.6339 9.76567 23.8491 11.1785C23.1801 12.3793 22.8455 13.7073 22.8455 15.1624C22.8455 16.2502 23.0514 17.1826 23.4631 17.9596C23.9263 18.8497 24.6082 19.3866 25.5216 19.5985C25.7661 19.655 25.9977 19.6832 26.2164 19.6832C27.4644 19.6832 28.4679 18.9769 29.2399 17.5641C29.909 16.3491 30.2435 15.0211 30.2435 13.5661C30.2563 12.4641 30.0376 11.5459 29.6259 10.7829ZM28.0048 14.6962C27.8247 15.6286 27.503 16.3208 27.027 16.7872C26.6539 17.1545 26.3065 17.3099 25.9848 17.2392C25.676 17.1686 25.4187 16.8719 25.2257 16.321C25.0713 15.883 24.9941 15.4451 24.9941 15.0354C24.9941 14.6822 25.0199 14.329 25.0842 14.004C25.2 13.4248 25.4187 12.8597 25.7661 12.3228C26.1907 11.6306 26.641 11.348 27.1042 11.4469C27.413 11.5176 27.6703 11.8143 27.8633 12.3652C28.0177 12.8032 28.0949 13.2411 28.0949 13.6508C28.0949 14.0181 28.0691 14.3713 28.0048 14.6963L28.0048 14.6962ZM21.5717 10.7829C21.1085 9.89288 20.4137 9.35597 19.5131 9.14406C19.2687 9.08755 19.0371 9.05929 18.8184 9.05929C17.5832 9.05929 16.5797 9.76567 15.7949 11.1785C15.1258 12.3793 14.7913 13.7073 14.7913 15.1624C14.7913 16.2502 14.9971 17.1826 15.4089 17.9596C15.872 18.8497 16.554 19.3866 17.4674 19.5985C17.7119 19.655 17.9434 19.6832 18.1622 19.6832C19.4101 19.6832 20.4137 18.9769 21.1857 17.5641C21.8547 16.3491 22.1892 15.0211 22.1892 13.5661C22.1892 12.4641 21.9834 11.5459 21.5717 10.7829ZM19.9377 14.6962C19.7576 15.6286 19.4359 16.3208 18.9599 16.7872C18.5868 17.1545 18.2394 17.3099 17.9177 17.2392C17.6089 17.1686 17.3516 16.8719 17.1586 16.321C17.0042 15.883 16.927 15.4451 16.927 15.0354C16.927 14.6822 16.9528 14.329 17.0171 14.004C17.1329 13.4248 17.3516 12.8597 17.699 12.3228C18.1236 11.6306 18.5739 11.348 19.0371 11.4469C19.3459 11.5176 19.6032 11.8143 19.7962 12.3652C19.9506 12.8032 20.0278 13.2411 20.0278 13.6508C20.0407 14.0181 20.0021 14.3713 19.9377 14.6963L19.9377 14.6962Z" fill="white"/>
</svg>
