<svg width="32" height="22" viewBox="0 0 32 22" fill="none" xmlns="http://www.w3.org/2000/svg">
<path d="M7.6975 19.933H6.46125C6.4175 17.8462 6.29437 15.8912 6.10187 14.0505H6.09312L4.21688 19.933H3.27875L1.41125 14.0499H1.4025C1.2625 15.8124 1.17437 17.7762 1.13937 19.9324H0C0.07 17.3112 0.254375 14.8474 0.54375 12.5593H2.07812L3.85812 17.9774H3.86687L5.65562 12.5593H7.12C7.44312 15.2424 7.63625 17.7062 7.6975 19.933Z" fill="#6A7E91"/>
<path d="M13.0457 14.4886C12.5457 17.2155 11.8794 19.1968 11.0557 20.433C10.4157 21.3886 9.71444 21.8618 8.94256 21.8618C8.74069 21.8618 8.48694 21.8005 8.18881 21.6774V21.0199C8.33756 21.0374 8.50444 21.0549 8.70631 21.0549C9.06569 21.0549 9.35506 20.9586 9.56569 20.7568C9.82881 20.5199 9.96006 20.248 9.96006 19.9499C9.96006 19.748 9.85506 19.3274 9.65319 18.6961L8.29444 14.488H9.50444L10.4776 17.6355C10.6969 18.3543 10.7844 18.8455 10.7494 19.1349C11.2844 17.7149 11.6526 16.163 11.8626 14.488L13.0457 14.4886Z" fill="#6A7E91"/>
<path d="M29.4836 19.933H25.9767V12.5511H27.1604V19.0211H29.4836V19.933Z" fill="#FA8A3B"/>
<path fill-rule="evenodd" clip-rule="evenodd" d="M25.0562 20.108L23.6975 19.4418C23.82 19.3455 23.9343 19.2399 24.0393 19.1086C24.6181 18.4336 24.9075 17.4343 24.9075 16.1018C24.9075 13.6643 23.9518 12.4374 22.0318 12.4374C21.0937 12.4374 20.3575 12.7443 19.8312 13.3668C19.2525 14.0418 18.9718 15.0411 18.9718 16.3649C18.9718 17.6624 19.2262 18.6093 19.7343 19.2143C20.1987 19.758 20.9006 20.0299 21.8475 20.0299C22.1981 20.0299 22.5225 19.9861 22.8118 19.8986L24.5743 20.9243L25.0562 20.108ZM20.6643 18.4511C20.3662 17.9686 20.2175 17.1974 20.2175 16.1368C20.2175 14.278 20.7787 13.3486 21.9093 13.3486C22.4968 13.3486 22.935 13.568 23.2068 14.0149C23.505 14.4974 23.6537 15.2599 23.6537 16.3118C23.6537 18.188 23.0925 19.1174 21.9618 19.1174C21.3743 19.1261 20.9443 18.8986 20.6643 18.4511Z" fill="#FA8A3B"/>
<path d="M18.4551 17.89C18.4551 18.5125 18.227 19.03 17.7713 19.4331C17.3157 19.8362 16.6932 20.0381 15.9213 20.0381C15.2026 20.0381 14.5013 19.81 13.8257 19.3456L14.1413 18.7144C14.7201 19.0037 15.2545 19.1525 15.7282 19.1525C16.1751 19.1525 16.517 19.0562 16.7713 18.8544C17.0257 18.6612 17.1745 18.3812 17.1745 18.0387C17.1745 17.6006 16.8676 17.2231 16.3063 16.9162C15.7888 16.6356 14.7545 16.0394 14.7545 16.0394C14.1932 15.6275 13.9126 15.1887 13.9126 14.47C13.9126 13.8737 14.1232 13.3919 14.5438 13.0231C14.9645 12.6544 15.5082 12.4706 16.1657 12.4706C16.8495 12.4706 17.472 12.655 18.0332 13.0144L17.7438 13.6456C17.2613 13.4437 16.7882 13.3387 16.3238 13.3387C15.947 13.3387 15.6576 13.4262 15.447 13.6106C15.2451 13.795 15.1138 14.0225 15.1138 14.3119C15.1138 14.75 15.4295 15.1275 15.9995 15.4519C16.5257 15.7325 17.5863 16.3375 17.5863 16.3375C18.1745 16.7331 18.4551 17.1712 18.4551 17.89Z" fill="#FA8A3B"/>
<path fill-rule="evenodd" clip-rule="evenodd" d="M30.9658 10.0873C30.2558 10.0698 29.7033 10.1398 29.2389 10.3329C29.1077 10.3854 28.8883 10.3854 28.8708 10.5523C28.9408 10.6223 28.9496 10.7367 29.0108 10.8417C29.1158 11.0173 29.3002 11.2623 29.4752 11.3854C29.6596 11.5254 29.8521 11.666 30.0452 11.7973C30.3958 12.0167 30.7814 12.1392 31.1233 12.3498C31.3164 12.4723 31.5177 12.6304 31.7108 12.7704C31.8071 12.8404 31.8683 12.9548 31.9914 12.9985V12.9723C31.9302 12.8935 31.9127 12.7792 31.8514 12.6829C31.7639 12.5954 31.6758 12.516 31.5796 12.4285C31.3164 12.0779 31.0008 11.7798 30.6502 11.5254C30.3608 11.3323 29.7383 11.061 29.6246 10.7367L29.6071 10.7192C29.8002 10.7017 30.0364 10.6317 30.2208 10.5792C30.5277 10.5004 30.7996 10.5179 31.1152 10.4392C31.2552 10.4042 31.4046 10.3604 31.5446 10.3167V10.2379C31.3871 10.0804 31.2639 9.86104 31.0977 9.71167C30.6421 9.31729 30.1421 8.94042 29.6246 8.61604C29.3439 8.44042 28.9933 8.32667 28.6952 8.16917C28.5902 8.11667 28.4146 8.09042 28.3446 8.00229C28.1871 7.80917 28.0902 7.54667 27.9764 7.31854C27.7221 6.82729 27.4677 6.28417 27.2489 5.76667C27.0914 5.41604 26.9946 5.07417 26.7933 4.74979C25.8727 3.23292 24.8733 2.31229 23.3477 1.41854C23.0146 1.23417 22.6289 1.14667 22.2077 1.05042C21.9883 1.04167 21.7608 1.02417 21.5414 1.01542C21.4014 0.954166 21.2521 0.787291 21.1296 0.699791C20.6208 0.375416 19.3146 -0.317084 18.9377 0.603541C18.7008 1.18229 19.2971 1.75229 19.4989 2.05042C19.6477 2.25229 19.8496 2.48854 19.9546 2.71667C20.0158 2.86542 20.0333 3.03229 20.0946 3.18979C20.2346 3.58417 20.3664 4.02292 20.5589 4.38229C20.6552 4.56667 20.7608 4.76792 20.8921 4.93479C20.9621 5.03104 21.0852 5.07479 21.1114 5.24167C20.9889 5.41729 20.9802 5.68854 20.9096 5.90792C20.5852 6.91604 20.7164 8.16104 21.1727 8.90604C21.3127 9.12542 21.6552 9.61604 22.1108 9.43229C22.5139 9.27479 22.4264 8.76604 22.5402 8.31917C22.5664 8.21417 22.5489 8.14354 22.6014 8.07354V8.09104C22.7239 8.33667 22.8471 8.58229 22.9696 8.82729C23.2502 9.26542 23.7233 9.72167 24.1271 10.0198C24.3377 10.1773 24.5127 10.4579 24.7758 10.5548V10.5285H24.7583C24.7058 10.4498 24.6271 10.4148 24.5564 10.3529C24.3989 10.1954 24.2146 9.99354 24.0921 9.81792C23.7152 9.31792 23.3908 8.76604 23.0927 8.19604C22.9527 7.91542 22.8208 7.61729 22.7071 7.33667C22.6546 7.23167 22.6546 7.07354 22.5671 7.01229C22.4358 7.20542 22.2339 7.38042 22.1377 7.61729C21.9708 8.00292 21.9533 8.47667 21.8833 8.96729C21.8483 8.97604 21.8658 8.96729 21.8483 8.98479C21.5677 8.91479 21.4627 8.61667 21.3571 8.37104C21.0939 7.73979 21.0414 6.72292 21.2783 5.98667C21.3396 5.80229 21.6114 5.21542 21.4977 5.03104C21.4452 4.86417 21.2696 4.76792 21.1646 4.62792C21.0508 4.46104 20.9189 4.24229 20.8402 4.05792C20.6296 3.55792 20.5158 3.00604 20.2877 2.50604C20.1827 2.27792 19.9896 2.03292 19.8408 1.82229C19.6739 1.58542 19.4814 1.41042 19.3496 1.12979C19.3058 1.03354 19.2446 0.866666 19.3146 0.761666C19.3321 0.691666 19.3671 0.665416 19.4371 0.647916C19.5508 0.551666 19.8839 0.674166 19.9983 0.726666C20.3314 0.857916 20.6033 0.989791 20.8839 1.17354C21.0064 1.26104 21.1471 1.42792 21.3046 1.48042H21.4889C21.7783 1.54167 22.0939 1.49792 22.3658 1.57667C22.8389 1.72542 23.2689 1.95354 23.6458 2.19042C24.8121 2.92667 25.7764 3.97917 26.4252 5.24167C26.5302 5.44354 26.5739 5.63604 26.6796 5.84667C26.8639 6.28479 27.1002 6.73229 27.2846 7.16167C27.4689 7.58229 27.6527 8.01229 27.9158 8.35417C28.0471 8.53854 28.5821 8.63479 28.8277 8.73979C29.0033 8.81854 29.2833 8.88854 29.4414 8.98542C29.7483 9.16979 30.0464 9.38854 30.3358 9.59042C30.4921 9.68417 30.9396 9.90292 30.9658 10.0873Z" fill="#6A7E91"/>
<path fill-rule="evenodd" clip-rule="evenodd" d="M21.8739 2.33746C21.7251 2.33746 21.6195 2.35496 21.5057 2.38121V2.39871H21.5232C21.5932 2.53871 21.7164 2.63559 21.8126 2.76684C21.8826 2.90684 21.9439 3.04746 22.0145 3.19621L22.032 3.17871C22.1545 3.09121 22.2164 2.95059 22.2164 2.73184C22.1639 2.67059 22.1551 2.60934 22.1114 2.54746C22.0582 2.45121 21.9445 2.40746 21.8739 2.33746Z" fill="#6A7E91"/>
<path d="M31.8158 19.9329H32.0002V19.0298H31.7196L31.4914 19.6435L31.2458 19.0298H30.9827V19.9329H31.1583V19.2404H31.1671L31.4214 19.9242H31.5527L31.8071 19.2404V19.9329H31.8158ZM30.3258 19.9329H30.5189V19.1792H30.7733V19.0217H30.0546V19.1792H30.3177V19.9329H30.3258Z" fill="#FA8A3B"/>
</svg>
