<svg width="53" height="20" viewBox="0 0 53 20" fill="none" xmlns="http://www.w3.org/2000/svg">
<g clip-path="url(#clip0_12692_3421)">
<path d="M13.4997 12.3957L10.928 13.7477L11.4193 10.884L9.33594 8.85607L12.2109 8.4394L13.4968 5.83398L14.7826 8.4394L17.6576 8.85607L15.5743 10.884L16.0655 13.7477L13.4997 12.3957Z" fill="#FFCC00" stroke="#FFCC00" stroke-width="0.625" stroke-linecap="round" stroke-linejoin="round"/>
</g>
<path d="M27.778 15V13.012H22.864V12.186L27.19 4.99H29.976V11.388H31.292V13.012H29.976V15H27.778ZM25.132 11.388H27.82V6.698L25.132 11.388ZM33.5948 15.126C32.8948 15.126 32.3488 14.58 32.3488 13.894C32.3488 13.222 32.8948 12.676 33.5948 12.676C34.3088 12.676 34.8548 13.222 34.8548 13.894C34.8548 14.58 34.3088 15.126 33.5948 15.126ZM39.8589 15.154C37.6469 15.154 35.9389 14.132 35.9389 12.172C35.9389 10.954 36.6389 10.072 37.7869 9.666C36.8769 9.288 36.3309 8.588 36.3309 7.58C36.3309 5.844 37.9969 4.85 39.8729 4.85C41.7909 4.85 43.3869 5.858 43.3869 7.566C43.3869 8.574 42.8129 9.26 41.9309 9.652C43.1069 10.058 43.7649 10.926 43.7649 12.116C43.7649 14.076 42.0849 15.154 39.8589 15.154ZM39.8589 13.502C40.8109 13.502 41.5249 12.942 41.5249 11.948C41.5249 10.968 40.8109 10.422 39.8729 10.422C38.9489 10.422 38.1929 10.968 38.1929 11.962C38.1929 12.956 38.9349 13.502 39.8589 13.502ZM39.8869 9.036C40.6989 9.036 41.2869 8.546 41.2869 7.72C41.2869 6.95 40.6709 6.432 39.8729 6.432C39.0749 6.432 38.4449 6.922 38.4449 7.734C38.4449 8.546 39.1029 9.036 39.8869 9.036Z" fill="white"/>
<defs>
<clipPath id="clip0_12692_3421">
<rect width="10" height="10" fill="white" transform="translate(8.5 5)"/>
</clipPath>
</defs>
</svg>
