<svg width="140" height="66" viewBox="0 0 140 66" fill="none" xmlns="http://www.w3.org/2000/svg">
<path d="M65.3955 31.374V29.2759C65.3955 28.6954 65.884 28.2423 66.5089 28.2423C67.1353 28.2423 67.6229 28.6954 67.6229 29.2759V31.3743C67.6229 31.9543 67.1353 32.409 66.5089 32.409C65.884 32.409 65.3955 31.9468 65.3955 31.374ZM64.2383 29.2759V31.374C64.2383 32.5905 65.2565 33.5801 66.5089 33.5801C67.7624 33.5801 68.7817 32.5905 68.7817 31.3743V29.2759C68.7817 28.0592 67.7624 27.0699 66.5089 27.0699C65.2565 27.0699 64.2383 28.0592 64.2383 29.2759Z" fill="#272727"/>
<path d="M78.2265 30.3262L80.4472 28.0729C80.6727 27.8435 80.6727 27.4731 80.4465 27.2437C80.2201 27.0154 79.8545 27.0154 79.6283 27.2439L77.2452 29.6643V27.6592C77.2452 27.3357 76.9853 27.0731 76.6655 27.0731C76.346 27.0731 76.0859 27.3357 76.0859 27.6592V31.0811V32.9979C76.0859 33.3215 76.346 33.584 76.6655 33.584C76.9853 33.584 77.2452 33.3215 77.2452 32.9979V31.3234L77.407 31.1495L79.5954 33.3556C79.8214 33.5846 80.2188 33.6411 80.4447 33.4125C80.6716 33.184 80.672 32.8133 80.4465 32.5841L78.2265 30.3262Z" fill="#272727"/>
<path d="M74.2015 31.3051C73.9281 31.2293 73.6285 31.3654 73.4982 31.669C73.483 31.7047 73.4608 31.7449 73.4455 31.7806C73.2756 32.156 72.8722 32.408 72.4225 32.408C72.1117 32.408 71.8319 32.2942 71.6312 32.1066C71.4306 31.9213 71.3073 31.6624 71.3073 31.3721V29.2758C71.3073 28.9855 71.4306 28.7266 71.6312 28.5412C71.8319 28.3537 72.1117 28.2398 72.4225 28.2398C72.8722 28.2398 73.2756 28.4919 73.4455 28.8672C73.4608 28.9029 73.483 28.9431 73.4982 28.9789C73.6285 29.2824 73.9281 29.4186 74.2015 29.3427C74.5078 29.2556 74.7055 28.9411 74.5806 28.5747C74.2831 27.7021 73.4765 27.1111 72.5209 27.0716C72.5156 27.0714 72.5117 27.0702 72.5063 27.0699C72.4798 27.0678 72.4512 27.0677 72.4225 27.0677C72.3453 27.0677 72.269 27.0717 72.194 27.0791C72.1696 27.0814 72.1462 27.0863 72.1222 27.0895C72.0717 27.096 72.0209 27.1022 71.9714 27.112C71.9442 27.1174 71.918 27.1253 71.8911 27.1317C71.8459 27.1422 71.8005 27.1522 71.7565 27.1654C71.7287 27.1737 71.7023 27.1844 71.6749 27.1938C71.6332 27.208 71.591 27.2217 71.5503 27.2384C71.5232 27.2494 71.4971 27.2627 71.4706 27.2747C71.4313 27.2925 71.3916 27.3098 71.3535 27.3297C71.3279 27.3431 71.3034 27.3585 71.2784 27.3729C71.2412 27.3941 71.2035 27.4151 71.1678 27.4384C71.1435 27.4541 71.1208 27.4715 71.0972 27.4881C71.0625 27.5126 71.0274 27.5368 70.9943 27.5632C70.9714 27.5812 70.9501 27.6007 70.9282 27.6195C70.8961 27.6469 70.864 27.6741 70.8337 27.7031C70.8128 27.7233 70.7932 27.7446 70.773 27.7655C70.7439 27.7955 70.7149 27.8254 70.6875 27.857C70.6683 27.8793 70.6507 27.9026 70.6324 27.9256C70.6066 27.9578 70.5808 27.99 70.557 28.0236C70.5394 28.0482 70.5235 28.0737 70.5071 28.099C70.4852 28.1328 70.4632 28.1665 70.443 28.2015C70.4275 28.2287 70.4133 28.2568 70.3989 28.2847C70.3808 28.3195 70.3629 28.3541 70.3465 28.3899C70.3332 28.4197 70.3211 28.4504 70.3091 28.4809C70.2951 28.5161 70.2811 28.5513 70.2688 28.5874C70.2578 28.6202 70.2483 28.6536 70.2387 28.6871C70.2288 28.7221 70.2191 28.7571 70.2107 28.7927C70.2025 28.8287 70.1959 28.8651 70.1894 28.9018C70.1833 28.9361 70.1776 28.9703 70.1732 29.0052C70.1683 29.0445 70.1651 29.0843 70.1623 29.1242C70.1608 29.1443 70.1575 29.1639 70.1566 29.1842C70.1543 29.2132 70.1543 29.2445 70.1543 29.2758V31.3721C70.1543 31.4033 70.1543 31.4347 70.1566 31.4636C70.1575 31.4839 70.1608 31.5035 70.1623 31.5237C70.1651 31.5636 70.1683 31.6034 70.1732 31.6426C70.1776 31.6775 70.1833 31.7117 70.1894 31.7461C70.1959 31.7827 70.2025 31.8191 70.2107 31.8551C70.2191 31.8907 70.2288 31.9257 70.2387 31.9607C70.2483 31.9942 70.2578 32.0276 70.2688 32.0605C70.2811 32.0965 70.2951 32.1318 70.3091 32.1671C70.3211 32.1975 70.3332 32.2281 70.3465 32.2579C70.3629 32.2937 70.3808 32.3284 70.3989 32.3632C70.4133 32.3911 70.4275 32.4192 70.443 32.4463C70.4632 32.4813 70.4852 32.515 70.5071 32.5488C70.5235 32.5741 70.5394 32.5996 70.557 32.6243C70.5808 32.6578 70.6066 32.69 70.6324 32.7223C70.6507 32.7453 70.6683 32.7686 70.6875 32.7908C70.7149 32.8224 70.7439 32.8523 70.773 32.8823C70.7932 32.9032 70.8128 32.9246 70.8337 32.9447C70.864 32.9738 70.8961 33.0009 70.9282 33.0284C70.9501 33.0471 70.9714 33.0666 70.9943 33.0846C71.0274 33.111 71.0625 33.1352 71.0972 33.1597C71.1208 33.1763 71.1435 33.1938 71.1678 33.2095C71.2035 33.2328 71.2412 33.2537 71.2784 33.275C71.3034 33.2894 71.3279 33.3047 71.3535 33.3181C71.3919 33.3382 71.4317 33.3556 71.4713 33.3735C71.4976 33.3854 71.5232 33.3985 71.5501 33.4095C71.591 33.4262 71.6334 33.4399 71.6756 33.4543C71.7025 33.4635 71.729 33.4741 71.7565 33.4824C71.8005 33.4956 71.8459 33.5056 71.8911 33.5162C71.918 33.5225 71.9442 33.5305 71.9714 33.5358C72.0209 33.5456 72.0717 33.5518 72.1222 33.5584C72.1462 33.5615 72.1696 33.5665 72.194 33.5687C72.269 33.5762 72.3453 33.5801 72.4225 33.5801C72.4512 33.5801 72.4798 33.5801 72.5063 33.5779C72.5117 33.5777 72.5156 33.5765 72.5209 33.5763C73.4765 33.5367 74.2717 32.9537 74.5806 32.0731C74.7087 31.7079 74.5078 31.3922 74.2015 31.3051Z" fill="#272727"/>
<path d="M60.8544 20.0007C58.3816 20.0007 56.0742 22.0106 56.0742 24.8368V38.1413C56.0742 40.8483 58.2437 43.002 60.8613 43.002H79.4329C82.1947 43.002 84.1956 40.7275 84.1956 38.154V36.0793V35.7902C84.1956 35.4305 83.9205 35.0735 83.4895 35.0735H62.5445V27.6552C62.5445 27.3257 62.2812 27.0581 61.9559 27.0581C61.6307 27.0581 61.3665 27.3257 61.3665 27.6552V35.5087C61.3665 35.9716 61.6569 36.2682 62.0769 36.2682H83.0154C83.0152 36.5232 83.0149 38.1457 83.0149 38.1604C83.0149 40.1081 81.4885 41.8109 79.4329 41.8109H60.8613C59.029 41.8109 57.2524 40.339 57.2524 38.1553V24.8298C57.2524 22.9196 58.8142 21.1939 60.8613 21.1939H79.4318C81.5096 21.1939 83.009 22.9262 83.009 24.8399V25.8232C83.009 26.1526 83.2779 26.4205 83.6048 26.4205C83.9291 26.4205 84.1956 26.1519 84.1956 25.8237C84.1956 25.472 84.1956 24.8404 84.1956 24.8404C84.1956 22.0194 81.8859 20.0007 79.4318 20.0007H60.8544Z" fill="#272727"/>
<path d="M53 49.9355V46.0715H54.5077C55.3341 46.0715 55.9255 46.4064 55.9255 47.2809C55.9255 48.1817 55.3341 48.5 54.5077 48.5H53.8206V49.9355H53ZM54.4545 47.8093C54.833 47.8093 55.0728 47.6745 55.0728 47.2809C55.0728 46.9131 54.833 46.7624 54.4545 46.7624H53.8206V47.8093H54.4545Z" fill="#272727"/>
<path d="M56.6289 49.9355V46.0715H59.4691V46.7624H57.4495V47.5557H59.3253V48.252H57.4495V49.2453H59.5384V49.9355H56.6289Z" fill="#272727"/>
<path d="M62.6782 49.9355L62.22 49.1316C61.7724 48.344 61.5647 48.3002 61.3836 48.3002H61.0691V49.9355H60.2539V46.0715H61.9804C62.6942 46.0715 63.3869 46.2983 63.3869 47.1293C63.3869 47.8039 62.9555 48.1332 62.412 48.2091V48.2196C62.6464 48.2842 62.8276 48.565 62.9661 48.7972L63.6323 49.9355H62.6782ZM61.9429 47.6854C62.3958 47.6854 62.5347 47.5072 62.5347 47.2212C62.5347 46.9732 62.3958 46.7678 61.9858 46.7678H61.0691V47.6854H61.9429Z" fill="#272727"/>
<path d="M64.1836 49.9355V46.0715H66.8048V46.7624H65.004V47.6262H66.5598V48.3168H65.004V49.9355H64.1836Z" fill="#272727"/>
<path d="M67.5078 49.9355V46.0715H70.3483V46.7624H68.3284V47.5557H70.204V48.252H68.3284V49.2453H70.4169V49.9355H67.5078Z" fill="#272727"/>
<path d="M74.3857 48.8128C74.1616 49.6441 73.597 50 72.7815 50C71.6359 50 70.9434 49.1905 70.9434 47.9764C70.9434 46.7675 71.7422 46.0067 72.8239 46.0067C73.6127 46.0067 74.1616 46.39 74.348 47.1075L73.597 47.3127C73.4796 46.8756 73.1651 46.7135 72.7815 46.7135C72.2005 46.7135 71.79 47.1939 71.79 47.9764C71.79 48.8078 72.1949 49.2389 72.7815 49.2389C73.197 49.2389 73.4953 49.0608 73.6127 48.5701L74.3857 48.8128Z" fill="#272727"/>
<path d="M75.9018 49.9355V46.7624H74.7988V46.0715H77.8257V46.7624H76.7224V49.9355H75.9018Z" fill="#272727"/>
<path d="M78.3691 49.9355V46.0715H79.1898V49.9355H78.3691Z" fill="#272727"/>
<path d="M79.8262 48.0305C79.8262 46.7889 80.4603 46.0067 81.6754 46.0067C82.9647 46.0067 83.5294 46.897 83.5294 48.0088C83.5294 48.9797 83.0875 50 81.6857 50C80.1724 50 79.8262 48.8558 79.8262 48.0305ZM82.6823 47.9925C82.6823 47.6581 82.6508 46.719 81.6804 46.719C80.7853 46.719 80.6735 47.5181 80.6735 48.0037C80.6735 48.6134 80.9082 49.2389 81.6804 49.2881C82.0109 49.2881 82.6823 49.1367 82.6823 47.9925Z" fill="#272727"/>
<path d="M86.4328 49.9355L85.0044 47.5289H84.9942V49.9355H84.2324V46.0715H85.0264L86.4859 48.5489H86.4967V46.0715H87.2585V49.9355H86.4328Z" fill="#272727"/>
<path d="M87.0843 20.7118C87.2907 20.8243 87.454 20.9861 87.5675 21.1954C87.6855 21.4051 87.743 21.6235 87.743 21.8504C87.743 22.076 87.6861 22.292 87.5706 22.499C87.4575 22.7063 87.2995 22.867 87.0945 22.9827C86.8888 23.0985 86.6739 23.1559 86.4537 23.1559C86.2286 23.1559 86.0172 23.0985 85.8118 22.9827C85.607 22.867 85.4476 22.7063 85.3312 22.499C85.2195 22.292 85.1608 22.076 85.1608 21.8504C85.1608 21.6235 85.2206 21.4051 85.3341 21.1954C85.4511 20.9861 85.6114 20.8243 85.8171 20.7118C86.0221 20.5984 86.2357 20.5425 86.4537 20.5425C86.6701 20.5425 86.8785 20.5984 87.0843 20.7118ZM85.6925 20.4856C85.4436 20.6203 85.2505 20.8125 85.1128 21.0636C84.9757 21.3164 84.9062 21.5773 84.9062 21.8504C84.9062 22.12 84.9719 22.3794 85.1115 22.6286C85.2459 22.878 85.4381 23.0711 85.6817 23.209C85.9268 23.3465 86.1861 23.416 86.4537 23.416C86.7197 23.416 86.9755 23.3465 87.2206 23.209C87.4683 23.0711 87.659 22.878 87.7948 22.6286C87.9293 22.3794 87.9991 22.12 87.9991 21.8504C87.9991 21.5773 87.9284 21.3164 87.7926 21.0636C87.6519 20.8125 87.4591 20.6203 87.2142 20.4856C86.9646 20.3506 86.7111 20.2831 86.4537 20.2831C86.1914 20.2831 85.9379 20.3506 85.6925 20.4856Z" fill="#272727"/>
<path d="M86.0732 21.1844H86.3928C86.531 21.1844 86.6245 21.1952 86.6756 21.2154C86.7263 21.2357 86.7684 21.2667 86.7973 21.3078C86.8239 21.35 86.8381 21.3965 86.8381 21.4487C86.8381 21.5305 86.8105 21.5958 86.7486 21.6457C86.6893 21.6945 86.5797 21.7195 86.4162 21.7195H86.0732V21.1844ZM86.0732 22.7168V21.9637H86.2383C86.3388 21.9637 86.4146 21.9839 86.4658 22.0256C86.5405 22.0802 86.6361 22.2182 86.7601 22.4377L86.9135 22.7168H87.2393L87.0446 22.3697C86.943 22.2057 86.8592 22.0877 86.7863 22.0189C86.7492 21.9822 86.6994 21.9507 86.6375 21.9244C86.7882 21.9127 86.9119 21.8591 87.0014 21.763C87.092 21.6669 87.1403 21.5538 87.1403 21.4246C87.1403 21.3332 87.1127 21.2469 87.0567 21.1651C87.0019 21.0833 86.9282 21.0259 86.8365 20.9935C86.7464 20.961 86.5956 20.9448 86.3908 20.9448H85.791V22.7168H86.0732Z" fill="#272727"/>
</svg>
