<svg width="140" height="66" viewBox="0 0 140 66" fill="none" xmlns="http://www.w3.org/2000/svg">
<path d="M43.1738 31.5592H49.2077V31.7768H47.4074V45.4272H48.8516C51.4629 45.4272 53.7776 43.7852 54.2919 41.154H54.4502V45.6448H43.1738V45.4272H44.9543V31.7768H43.1738V31.5592Z" fill="black"/>
<path d="M66.5573 32.0736C66.854 32.0736 66.9727 31.9944 67.1508 31.6977H67.3091V35.8126H67.1508C66.4782 32.8649 65.0736 31.4207 63.0953 31.4207C61.8489 31.4207 60.9191 31.8758 60.3058 32.8056C59.7123 33.7156 59.4156 35.6939 59.4156 38.7603C59.4156 42.618 59.7321 43.5082 60.2663 44.4776C60.7608 45.3678 61.7302 45.7833 63.0953 45.7833C65.034 45.7833 66.1023 45.2887 66.1023 43.3104V40.4418H63.9064V40.2242H70.3557V40.4418H68.5554V45.6448H68.3971C68.2586 45.2491 67.9817 44.9919 67.4871 44.9919C67.131 44.9919 66.6958 45.17 65.9638 45.4865C65.2318 45.8031 64.3218 46.0009 63.2337 46.0009C61.3543 46.0009 59.6332 45.3283 58.4264 44.0028C57.2197 42.6971 56.6064 40.976 56.6064 38.8988C56.6064 36.782 57.279 34.9026 58.6243 33.4188C59.9893 31.9351 61.6115 31.2031 63.0755 31.2031C64.6186 31.2031 65.7264 32.0736 66.5573 32.0736Z" fill="black"/>
<path d="M71.3802 31.5592H82.3005V36.0896H82.1422C81.4894 33.1419 79.8474 31.7768 77.3745 31.7768H75.6138V38.3844L76.0886 38.3646C77.8097 38.2855 78.7989 37.4348 78.9373 35.4961H79.0956V41.5497H78.9373C78.7989 39.5516 77.691 38.7405 76.1084 38.6218C75.9501 38.602 75.7918 38.602 75.6138 38.602V45.4272H77.513V45.6448H71.3802V45.4272H73.1607V31.7768H71.3802V31.5592Z" fill="black"/>
<path d="M94.0295 32.0736C94.3263 32.0736 94.445 31.9944 94.623 31.6977H94.7813V35.8126H94.623C93.9504 32.8649 92.5458 31.4207 90.5675 31.4207C89.3212 31.4207 88.3913 31.8758 87.7781 32.8056C87.1846 33.7156 86.8878 35.6939 86.8878 38.7603C86.8878 42.618 87.2044 43.5082 87.7385 44.4776C88.2331 45.3678 89.2025 45.7833 90.5675 45.7833C92.5062 45.7833 93.5745 45.2887 93.5745 43.3104V40.4418H91.3786V40.2242H97.8279V40.4418H96.0276V45.6448H95.8694C95.7309 45.2491 95.4539 44.9919 94.9593 44.9919C94.6032 44.9919 94.168 45.17 93.436 45.4865C92.7041 45.8031 91.794 46.0009 90.706 46.0009C88.8266 46.0009 87.1054 45.3283 85.8987 44.0028C84.6919 42.6971 84.0786 40.976 84.0786 38.8988C84.0786 36.782 84.7513 34.9026 86.0965 33.4188C87.4615 31.9351 89.0838 31.2031 90.5477 31.2031C92.0908 31.2031 93.1986 32.0736 94.0295 32.0736Z" fill="black"/>
<path fill-rule="evenodd" clip-rule="evenodd" d="M70.1314 17.4551C70.1862 17.625 70.1409 17.895 70.156 18.1064C69.9124 18.1612 69.6141 18.1649 69.3555 18.2065C69.3913 17.7345 69.7028 17.5363 70.1314 17.4551Z" fill="black"/>
<path fill-rule="evenodd" clip-rule="evenodd" d="M70.4566 17.506C70.5207 17.6835 70.4452 18.0007 70.5075 18.1819C70.7077 18.2669 71.0305 18.2272 71.2589 18.282C71.2646 18.3783 71.2589 18.467 71.2344 18.5331C70.6265 18.4821 69.9072 18.5425 69.3087 18.484C69.2558 18.4236 69.3144 18.3235 69.3332 18.2593C69.5787 18.2046 69.9147 18.2404 70.1583 18.1838C70.298 18.0233 70.0525 17.2417 70.4584 17.5079L70.4566 17.506ZM69.8807 18.4066C70.2508 18.3764 70.4698 18.4802 70.8058 18.4066C70.5075 18.3858 70.0639 18.3235 69.8807 18.4066Z" fill="black"/>
<path fill-rule="evenodd" clip-rule="evenodd" d="M70.5583 17.4824C70.9435 17.5635 71.1813 17.7939 71.2342 18.2073C71.0586 18.0922 70.9605 18.1903 70.6338 18.1564C70.5489 18.0034 70.5319 17.6617 70.5583 17.4805V17.4824Z" fill="black"/>
<path fill-rule="evenodd" clip-rule="evenodd" d="M70.6838 18.7316C70.7518 18.7882 70.7574 18.573 70.9085 18.6315C70.8556 18.8864 70.6951 19.0356 70.4327 19.0809C70.4214 18.928 70.5913 18.9563 70.6328 18.8562C70.5063 18.9166 70.3326 19.0242 70.1571 18.9563C70.0891 19.0205 70.225 18.9921 70.1571 19.0563C70.0966 19.1092 69.9966 19.0507 69.9324 19.0318C69.9532 19.0941 70.0343 19.096 70.0815 19.1318C70.0589 19.23 69.9551 19.1526 69.8814 19.1564C69.8946 19.2527 70.0664 19.1885 70.057 19.3074C69.6794 19.2093 69.4094 19.0035 69.332 18.607C69.8399 18.6202 70.4799 18.5598 70.7574 18.6315C70.7329 18.6655 70.7329 18.7241 70.6819 18.7316H70.6838Z" fill="black"/>
<path fill-rule="evenodd" clip-rule="evenodd" d="M71.0828 18.6074C71.0715 18.8925 70.8298 19.1511 70.4824 19.1832C70.6769 19.0114 70.9185 18.8849 71.0073 18.6074H71.0828Z" fill="black"/>
<path fill-rule="evenodd" clip-rule="evenodd" d="M71.1592 18.6309H71.2347C71.1441 19.0066 70.9176 19.2463 70.5098 19.3067C70.7741 19.1293 71.0761 18.9877 71.1611 18.6309H71.1592Z" fill="black"/>
<path fill-rule="evenodd" clip-rule="evenodd" d="M68.857 18.8556C68.9835 19.0746 68.721 19.2521 68.5568 19.1067C68.4303 18.8877 68.6927 18.7103 68.857 18.8556ZM68.6323 19.0558C68.6927 19.0463 68.6871 19.1011 68.7569 19.0803C68.7607 19.0501 68.8003 19.0237 68.7569 19.0048C68.7682 19.0746 68.621 18.9859 68.6323 19.0539V19.0558Z" fill="black"/>
<path fill-rule="evenodd" clip-rule="evenodd" d="M72.0087 19.2069C71.8727 19.2031 71.801 19.1559 71.784 19.0823C71.6915 18.6896 72.3825 18.9331 72.0087 19.2069ZM72.0087 19.0823C71.9558 19.0974 71.8444 19.0521 71.8331 19.1068C71.8803 19.171 71.9879 19.1691 72.0087 19.0823Z" fill="black"/>
<path fill-rule="evenodd" clip-rule="evenodd" d="M68.2309 18.9323C68.5028 18.8586 68.5028 19.291 68.28 19.308C68.0724 19.3231 67.9629 19.0059 68.2309 18.9323ZM68.3555 19.1324C68.2951 19.1475 68.1743 19.1003 68.1554 19.1569C68.2007 19.223 68.3385 19.2249 68.3555 19.1324Z" fill="black"/>
<path fill-rule="evenodd" clip-rule="evenodd" d="M71.3588 19.1322C71.4079 19.3625 71.1568 19.4078 71.0586 19.2814V19.1058C71.1454 19.0114 71.2927 19.0265 71.3588 19.1303V19.1322ZM71.2342 19.2077C71.2134 19.2814 71.153 19.1926 71.1096 19.2077C71.0888 19.355 71.3097 19.287 71.2342 19.2077Z" fill="black"/>
<path fill-rule="evenodd" clip-rule="evenodd" d="M70.4324 19.1558C70.4437 19.2426 70.4229 19.2955 70.4078 19.3559C70.3474 19.371 70.2927 19.3918 70.2077 19.3805C70.0019 19.2294 70.2814 18.9481 70.4324 19.1558ZM70.3814 19.2313C70.3229 19.2389 70.2776 19.2804 70.2323 19.2313C70.2209 19.3521 70.3776 19.303 70.3814 19.2313Z" fill="black"/>
<path fill-rule="evenodd" clip-rule="evenodd" d="M66.855 19.4329C66.6983 19.4424 66.6303 19.4084 66.6039 19.3329C66.4831 18.9666 67.191 19.112 66.855 19.4329ZM66.855 19.3083C66.7889 19.3083 66.7115 19.3178 66.6794 19.2838C66.6511 19.3857 66.8531 19.3838 66.855 19.3083Z" fill="black"/>
<path fill-rule="evenodd" clip-rule="evenodd" d="M67.0546 19.4076C66.8469 19.0979 67.3717 18.9998 67.3547 19.283C67.3472 19.4 67.2301 19.4793 67.0546 19.4076ZM67.2301 19.283C67.2094 19.3566 67.149 19.2678 67.1055 19.283C67.0848 19.4019 67.317 19.3453 67.2301 19.283Z" fill="black"/>
<path fill-rule="evenodd" clip-rule="evenodd" d="M67.7063 19.1309C68.0385 18.9609 68.0404 19.5009 67.7554 19.4556C67.7082 19.448 67.4703 19.2517 67.7063 19.1309ZM67.8554 19.28C67.7931 19.2838 67.7346 19.2838 67.7063 19.2555C67.6874 19.3517 67.8667 19.4065 67.8554 19.28Z" fill="black"/>
<path fill-rule="evenodd" clip-rule="evenodd" d="M69.5077 19.3823C69.385 19.4049 69.3378 19.3521 69.283 19.3068C69.2471 18.9311 69.7758 19.184 69.5077 19.3823ZM69.3585 19.2822C69.3963 19.32 69.5303 19.3275 69.5077 19.2331C69.4642 19.2558 69.3831 19.2426 69.3585 19.2822Z" fill="black"/>
<path fill-rule="evenodd" clip-rule="evenodd" d="M66.279 19.1565C66.3829 19.1187 66.4791 19.147 66.5037 19.2565C66.6132 19.7247 65.8391 19.3169 66.279 19.1565ZM66.4036 19.4076C66.415 19.3358 66.2337 19.3302 66.2281 19.3566C66.2488 19.4113 66.3206 19.4151 66.4036 19.4076Z" fill="black"/>
<path fill-rule="evenodd" clip-rule="evenodd" d="M68.8299 19.207C68.7903 19.4355 68.4807 19.392 68.3296 19.5072C68.273 19.2901 68.6751 19.2127 68.8299 19.207Z" fill="black"/>
<path fill-rule="evenodd" clip-rule="evenodd" d="M72.9353 19.1832C73.0788 19.3153 72.9957 19.5192 72.8598 19.5343C72.6257 19.5589 72.552 19.1246 72.9353 19.1832ZM72.9107 19.3833C72.8484 19.3871 72.7899 19.3871 72.7616 19.3587C72.7616 19.4758 72.8786 19.4682 72.9107 19.3833Z" fill="black"/>
<path fill-rule="evenodd" clip-rule="evenodd" d="M68.9323 19.207C69.0078 19.207 69.0286 19.2599 69.0814 19.2825C69.0569 19.4959 68.853 19.3392 68.9323 19.207Z" fill="black"/>
<path fill-rule="evenodd" clip-rule="evenodd" d="M69.6566 19.207C69.7887 19.2844 69.919 19.3618 70.1078 19.3826C70.1153 19.5506 70.0625 19.6262 70.1569 19.7073C70.0625 19.8055 70.0077 19.9981 70.1569 20.083C70.1455 20.1642 70.0625 20.1718 70.0568 20.2586C70.0681 20.3473 70.1191 20.3964 70.1569 20.4587C70.0134 20.6022 70.0813 20.7438 70.1569 20.91C70.0776 20.9307 70.0795 20.8703 70.0323 20.859C70.0002 21.0232 70.0908 21.1724 70.0323 21.2838C69.9756 21.2498 70.0228 21.1101 70.0077 21.0327C69.9322 21.0987 69.9643 21.2724 69.9567 21.4084C69.8812 21.4329 69.9133 21.3536 69.9077 21.3083C69.8775 21.4688 69.7472 21.5311 69.7831 21.7595C69.7208 21.7557 69.7038 21.7123 69.683 21.7841C69.7113 21.4744 69.8642 21.1497 69.8831 20.7835C69.9152 20.1925 69.6339 19.7791 69.3828 19.4317C69.5244 19.4072 69.6509 19.3656 69.6585 19.207H69.6566Z" fill="black"/>
<path fill-rule="evenodd" clip-rule="evenodd" d="M73.2595 21.2082C73.1764 21.2252 73.1235 21.4876 73.0084 21.5593C72.9498 21.5386 73.0291 21.4498 73.0329 21.4083C72.9404 21.4404 72.9517 21.5782 72.8328 21.5839C72.8989 21.4819 72.7346 21.6028 72.7082 21.633C72.8196 21.3781 73.0461 21.1364 73.0839 20.757C73.1443 20.1642 72.7969 19.7261 72.459 19.4562C72.4835 19.3467 72.5043 19.2334 72.61 19.2051C72.5421 19.5128 72.7667 19.611 72.9612 19.5808C72.9498 19.8092 73.0669 19.9093 73.3123 19.881C73.2406 20.0471 73.3237 20.2246 73.4615 20.2567C73.3671 20.4322 73.5181 20.5625 73.6106 20.6324C73.5408 20.7135 73.3803 20.9873 73.5597 21.0836C73.4558 21.1969 73.4048 21.363 73.335 21.5084C73.2859 21.3668 73.4483 21.2214 73.4105 21.0081C73.3274 21.1685 73.3425 21.4234 73.1613 21.4838C73.1915 21.3894 73.2104 21.2818 73.2614 21.2082H73.2595Z" fill="black"/>
<path fill-rule="evenodd" clip-rule="evenodd" d="M65.8299 19.2568C65.9564 19.2058 66.0584 19.2511 66.081 19.3814C66.1622 19.8666 65.4089 19.4248 65.8299 19.2568ZM65.9545 19.4324C65.8752 19.4663 65.8035 19.3701 65.7789 19.4324C65.8073 19.4947 65.9413 19.5494 65.9545 19.4324Z" fill="black"/>
<path fill-rule="evenodd" clip-rule="evenodd" d="M71.4328 19.3308C71.529 19.3403 71.529 19.3667 71.5574 19.2798C71.614 19.2723 71.6518 19.2855 71.6574 19.3308C71.6914 19.3063 71.6895 19.2459 71.7329 19.2308C71.7783 19.227 71.7858 19.261 71.833 19.2553C71.867 19.3648 71.7481 19.4517 71.6839 19.3799C71.5876 19.4837 71.4063 19.5026 71.3327 19.631C71.0797 19.5196 71.4252 19.4271 71.4328 19.3308Z" fill="black"/>
<path fill-rule="evenodd" clip-rule="evenodd" d="M68.0798 21.9608C67.9835 22.0325 67.9703 21.7795 68.0043 21.8362C67.8966 21.6663 67.6946 21.6266 67.5795 21.4359C67.5209 21.4435 67.5814 21.5285 67.604 21.536C67.4907 21.5813 67.47 21.3189 67.4039 21.2358C67.3378 21.2943 67.4454 21.3944 67.4284 21.4869C67.3435 21.4303 67.3284 21.3038 67.3038 21.1867C67.2491 21.1509 67.1377 21.1697 67.1037 21.1112C67.2 20.9942 67.1943 20.7752 67.0527 20.711C67.0999 20.643 67.1641 20.5883 67.2038 20.5109C67.2151 20.3919 67.1773 20.3221 67.1037 20.2862C67.1641 20.1956 67.3189 20.2012 67.3548 20.0861C67.3775 19.9728 67.3133 19.9445 67.3038 19.8614C67.5908 19.8916 67.6644 19.716 67.604 19.4612C67.7834 19.5348 67.9967 19.5102 68.0043 19.2856C68.0817 19.2478 68.1421 19.2931 68.2044 19.3366C67.8966 19.6273 67.5285 19.9766 67.4794 20.5127C67.4171 21.1811 67.8041 21.6002 68.1798 21.9381C68.076 21.957 68.0439 21.823 68.0798 21.9627V21.9608Z" fill="black"/>
<path fill-rule="evenodd" clip-rule="evenodd" d="M71.9592 19.2832C72.214 19.338 72.4727 19.5003 72.5595 19.708C72.7616 19.7401 72.7049 20.0289 72.9107 20.0591C72.8711 20.2026 73.0485 20.3253 72.9107 20.4084C72.9145 20.4556 72.9957 20.4235 73.0108 20.4594C72.9692 20.6727 73.0561 20.8861 72.8862 20.9842C72.8824 21.2693 72.6596 21.5393 72.4104 21.6601C72.6483 21.309 72.8578 20.9163 72.8597 20.4594C72.6992 19.944 72.3802 19.5872 71.9082 19.3833C71.9214 19.3455 71.946 19.3191 71.9573 19.2832H71.9592Z" fill="black"/>
<path fill-rule="evenodd" clip-rule="evenodd" d="M69.0815 19.3324C69.1815 19.2588 69.2759 19.4287 69.2061 19.5325C69.1117 19.5439 69.0928 19.4797 69.0569 19.4325C69.0532 19.3872 69.0871 19.3796 69.0815 19.3324Z" fill="black"/>
<path fill-rule="evenodd" clip-rule="evenodd" d="M67.5299 19.4827C67.6621 19.713 67.3581 19.8791 67.2298 19.7073C67.1599 19.46 67.3884 19.3675 67.5299 19.4827ZM67.479 19.6073C67.4223 19.6186 67.3506 19.6564 67.3034 19.6073C67.2845 19.7243 67.4941 19.6998 67.479 19.6073Z" fill="black"/>
<path fill-rule="evenodd" clip-rule="evenodd" d="M68.0058 20.083C68.2002 19.9339 68.4891 19.5167 68.8062 19.5582C68.6382 19.7791 68.3456 19.8206 68.1813 20.034C67.7868 20.5437 68.0699 21.4273 68.6061 21.7104C68.5249 21.7803 68.5098 21.9143 68.355 21.9106C68.338 21.8181 68.4098 21.8143 68.4041 21.735C67.5187 21.2875 67.7301 19.5733 68.8044 19.4336C68.5042 19.6167 68.1606 19.7583 68.0039 20.083H68.0058Z" fill="black"/>
<path fill-rule="evenodd" clip-rule="evenodd" d="M65.3018 19.7836C65.1451 19.4438 65.6076 19.3513 65.653 19.608C65.6813 19.7666 65.5 19.9214 65.3018 19.7836ZM65.3773 19.7081C65.4226 19.81 65.6171 19.7232 65.5265 19.6326C65.5378 19.7194 65.3905 19.6477 65.3773 19.7081Z" fill="black"/>
<path fill-rule="evenodd" clip-rule="evenodd" d="M68.2065 19.4572C68.2839 19.4459 68.3179 19.4799 68.3066 19.5573C68.2367 19.6347 68.1291 19.5271 68.2065 19.4572Z" fill="black"/>
<path fill-rule="evenodd" clip-rule="evenodd" d="M73.3594 19.4559C74.1636 19.4389 75.0057 19.6956 75.4116 20.1563C75.9534 20.7699 75.9156 21.9102 75.2624 22.5087C75.1189 22.5049 74.9509 22.722 74.9113 22.6597C75.1567 22.2859 75.5494 21.9668 75.6117 21.4344C75.7363 20.3772 74.8282 19.7787 73.8106 19.7334C74.0636 20.0751 74.5412 20.515 74.4865 21.3098C74.4582 21.7233 74.3241 22.1972 73.9862 22.335C74.1146 21.9045 74.3166 21.5609 74.2864 21.0852C74.2429 20.3753 73.72 19.9316 73.3858 19.5333C73.3556 19.5295 73.365 19.488 73.3613 19.4578L73.3594 19.4559Z" fill="black"/>
<path fill-rule="evenodd" clip-rule="evenodd" d="M69.2831 19.4832C69.385 19.4549 69.3831 19.6569 69.3076 19.6588C69.2057 19.6871 69.2075 19.4851 69.2831 19.4832Z" fill="black"/>
<path fill-rule="evenodd" clip-rule="evenodd" d="M67.03 19.5322C66.4995 20.1043 66.1464 21.5825 66.8053 22.2848C66.7166 22.3302 66.5561 22.2339 66.4542 22.2093C66.0086 21.456 66.2484 20.2364 66.7298 19.7078C65.5083 19.6625 64.772 20.7764 65.2043 21.9847C65.2629 22.147 65.4309 22.3623 65.2799 22.5095C64.3302 21.1162 65.2194 19.2981 67.0319 19.5322H67.03Z" fill="black"/>
<path fill-rule="evenodd" clip-rule="evenodd" d="M72.6334 20.6074C72.6806 20.0844 72.2879 19.7861 71.982 19.5312C72.9638 19.6728 72.926 21.4834 72.0821 21.8326C72.0859 21.9535 72.2086 22.0611 72.1576 22.1574C72.0424 22.1366 71.9367 21.9572 71.9575 21.8326C71.9783 21.7062 72.1689 21.6533 72.2822 21.5079C72.4276 21.321 72.5578 21.0038 72.5578 20.7074C72.5578 20.1486 72.2331 19.8918 71.8574 19.5822C72.3313 19.7087 72.5673 20.0731 72.6334 20.6074Z" fill="black"/>
<path fill-rule="evenodd" clip-rule="evenodd" d="M73.2853 19.5076C73.4477 19.6341 73.3004 19.9154 73.0852 19.8078C72.9757 19.6756 73.0474 19.4415 73.2853 19.5076ZM73.2608 19.6832H73.1116C73.0833 19.787 73.2891 19.787 73.2608 19.6832Z" fill="black"/>
<path fill-rule="evenodd" clip-rule="evenodd" d="M68.0558 19.7314C67.9916 19.6483 68.0633 19.535 68.1558 19.5312C68.2068 19.6011 68.1766 19.754 68.0558 19.7314Z" fill="black"/>
<path fill-rule="evenodd" clip-rule="evenodd" d="M71.2599 19.7077C71.2128 19.7191 71.2146 19.7795 71.1353 19.7587C71.0787 19.6889 71.1297 19.568 71.2109 19.5586C71.226 19.6115 71.2732 19.6303 71.2618 19.7077H71.2599Z" fill="black"/>
<path fill-rule="evenodd" clip-rule="evenodd" d="M69.4061 19.6327C69.4495 19.6648 69.5043 19.6837 69.5062 19.7574C69.4835 19.7687 69.4609 19.78 69.4552 19.8064C69.3665 19.8121 69.3249 19.7706 69.3306 19.6818C69.3514 19.6611 69.3986 19.6667 69.4061 19.6309V19.6327Z" fill="black"/>
<path fill-rule="evenodd" clip-rule="evenodd" d="M67.0797 19.6563C67.1779 19.6412 67.1911 19.713 67.2043 19.7809C67.1382 19.7809 67.0608 19.7904 67.0287 19.7564C67.0098 19.6884 67.0778 19.7054 67.0778 19.6563H67.0797Z" fill="black"/>
<path fill-rule="evenodd" clip-rule="evenodd" d="M67.9311 19.9083C67.8348 19.8365 67.9159 19.7327 67.9801 19.6836C68.0726 19.71 68.0424 19.9328 67.9311 19.9083Z" fill="black"/>
<path fill-rule="evenodd" clip-rule="evenodd" d="M73.436 19.6836C73.5002 19.6874 73.5323 19.7195 73.5361 19.7837C73.4776 19.7837 73.4625 19.8271 73.387 19.8082C73.3832 19.7459 73.4266 19.7308 73.4379 19.6836H73.436Z" fill="black"/>
<path fill-rule="evenodd" clip-rule="evenodd" d="M71.0325 19.707C71.076 19.7297 71.1099 19.7637 71.1326 19.8071C71.1364 19.8694 71.093 19.8845 71.0835 19.9317C70.9381 19.9468 70.9816 19.7618 71.0325 19.707Z" fill="black"/>
<path fill-rule="evenodd" clip-rule="evenodd" d="M75.3874 19.7326C75.6913 19.5891 75.6744 20.0535 75.4629 20.0573C75.3628 20.0592 75.1589 19.8402 75.3874 19.7326ZM75.4874 19.9572C75.4969 19.8817 75.4063 19.9044 75.3628 19.8817C75.3515 19.9591 75.4157 19.961 75.4874 19.9572Z" fill="black"/>
<path fill-rule="evenodd" clip-rule="evenodd" d="M70.4338 20.0081C70.3621 20.0987 70.2054 20.0987 70.1336 20.0081C70.0374 19.6796 70.5301 19.6796 70.4338 20.0081ZM70.2092 19.9326C70.1884 20.0836 70.4584 19.9741 70.3583 19.908C70.3545 19.9628 70.2526 19.9194 70.2092 19.9326Z" fill="black"/>
<path fill-rule="evenodd" clip-rule="evenodd" d="M65.1045 19.808C65.2046 19.7816 65.3348 19.825 65.3292 19.9836C65.3122 20.4367 64.6589 19.9232 65.1045 19.808ZM65.0535 20.0081C65.1007 20.0194 65.0988 20.0799 65.1781 20.0572C65.1913 20.0194 65.2159 19.9949 65.2291 19.9571C65.1838 19.9874 65.0837 19.9609 65.0535 20.0062V20.0081Z" fill="black"/>
<path fill-rule="evenodd" clip-rule="evenodd" d="M66.9547 20.0829C66.898 19.4807 67.5531 20.032 67.1793 20.1584C67.0717 20.1943 67.034 20.1264 66.9547 20.0829ZM67.1548 20.0829C67.168 20.0678 67.2567 20.0074 67.1793 19.9829C67.1718 20.0414 67.0698 19.998 67.0547 19.9829C67.0585 20.0471 67.0906 20.081 67.1548 20.0829Z" fill="black"/>
<path fill-rule="evenodd" clip-rule="evenodd" d="M69.4823 19.8085C69.6163 19.7764 69.6352 19.9558 69.5823 20.0332C69.4823 20.0294 69.4238 19.8916 69.4823 19.8085Z" fill="black"/>
<path fill-rule="evenodd" clip-rule="evenodd" d="M65.4029 21.8332C65.3727 21.8446 65.3519 21.8653 65.3519 21.9088C65.3633 21.9465 65.384 21.8993 65.4275 21.9088C65.3633 22.2259 65.6729 22.3996 65.6521 22.6602C65.1952 22.2052 64.9064 21.0026 65.401 20.3833C65.418 20.523 65.4331 20.3758 65.5502 20.3588C65.5181 20.2398 65.4879 20.2172 65.6011 20.1586C65.7106 20.1398 65.5804 20.2077 65.6502 20.2077C65.6918 20.1719 65.62 20.0737 65.7257 20.0586C65.8428 20.0529 65.6937 20.1549 65.8013 20.1586C65.8447 20.1058 65.8013 20.085 65.8013 20.0076C65.8541 19.9925 65.873 19.9453 65.9504 19.9585C65.9296 19.9868 65.9164 20.0265 65.9259 20.0831C66.0052 20.0567 65.9259 19.9699 66.0014 19.9075C66.126 19.9868 66.1468 19.866 66.2261 19.832C66.2978 19.8924 66.3771 19.9491 66.5017 19.9566C66.4715 20.0982 66.3695 20.0378 66.3016 20.0567C65.7333 20.2191 65.3746 20.4437 65.35 21.1574C65.3312 21.6898 65.6219 22.0541 65.7748 22.4827C65.5653 22.3505 65.5332 22.039 65.3991 21.8332H65.4029Z" fill="black"/>
<path fill-rule="evenodd" clip-rule="evenodd" d="M73.6847 20.1332C73.5356 20.2427 73.3506 20.1672 73.3336 20.0331C73.2996 19.7537 73.8339 19.7575 73.6847 20.1332ZM73.5847 20.0577C73.5224 20.0614 73.4639 20.0614 73.4355 20.0331C73.4167 20.1634 73.5752 20.1445 73.5847 20.0577Z" fill="black"/>
<path fill-rule="evenodd" clip-rule="evenodd" d="M67.8309 19.8574C67.9423 19.8744 67.9329 20.1406 67.8064 20.1331C67.7365 20.0406 67.7781 19.9518 67.8309 19.8574Z" fill="black"/>
<path fill-rule="evenodd" clip-rule="evenodd" d="M70.9839 19.9068C71.0386 19.9748 71.0273 20.0295 70.9839 20.1069C70.8517 20.1201 70.8517 19.8936 70.9839 19.9068Z" fill="black"/>
<path fill-rule="evenodd" clip-rule="evenodd" d="M69.6843 20.2325C69.588 20.2532 69.588 20.1796 69.5597 20.1324C69.5484 20.0531 69.6277 20.0663 69.6352 20.0078C69.707 20.0267 69.7372 20.1683 69.6843 20.2325Z" fill="black"/>
<path fill-rule="evenodd" clip-rule="evenodd" d="M66.9054 20.0566C66.9809 20.1925 66.7733 20.234 66.7298 20.3322C66.7223 20.4474 66.7298 20.5493 66.7808 20.6079C66.6222 20.7513 66.575 21.0572 66.8299 21.1327C66.7487 21.4423 66.8431 21.5462 66.9545 21.8577C66.8601 21.8105 66.8299 21.6991 66.8054 21.582C66.728 21.6783 66.8488 21.7878 66.8563 21.8822C66.7638 21.8916 66.8091 21.7614 66.7317 21.7576C66.7393 21.8596 66.8242 21.8803 66.8073 22.0068C66.4467 21.5971 66.4485 20.353 66.9073 20.0547L66.9054 20.0566Z" fill="black"/>
<path fill-rule="evenodd" clip-rule="evenodd" d="M73.7365 20.0566C73.795 20.0642 73.7931 20.134 73.8366 20.1567C73.778 20.2247 73.678 20.1246 73.7365 20.0566Z" fill="black"/>
<path fill-rule="evenodd" clip-rule="evenodd" d="M67.7071 20.1074C67.8431 20.1206 67.7959 20.2717 67.7562 20.3585C67.6127 20.3585 67.6599 20.1811 67.7071 20.1074Z" fill="black"/>
<path fill-rule="evenodd" clip-rule="evenodd" d="M70.8831 20.1074C70.9794 20.1357 70.951 20.215 70.9322 20.3075C70.8 20.3283 70.8151 20.1508 70.8831 20.1074Z" fill="black"/>
<path fill-rule="evenodd" clip-rule="evenodd" d="M75.8867 20.1085C75.983 20.1784 75.983 20.3879 75.8867 20.4597C75.7526 20.4767 75.6639 20.4483 75.611 20.3841C75.5752 20.1651 75.6677 20.0745 75.8867 20.1085ZM75.8376 20.2841C75.7753 20.2879 75.7168 20.2879 75.6866 20.2595C75.6677 20.3577 75.847 20.4106 75.8376 20.2841Z" fill="black"/>
<path fill-rule="evenodd" clip-rule="evenodd" d="M65.0286 20.2837C65.1702 20.5858 64.7529 20.667 64.7038 20.4593C64.668 20.3083 64.8473 20.1478 65.0286 20.2837ZM64.7794 20.3838C64.7794 20.4744 64.853 20.4933 64.9549 20.4839C64.9209 20.4272 64.8284 20.3479 64.7794 20.3838Z" fill="black"/>
<path fill-rule="evenodd" clip-rule="evenodd" d="M69.683 20.2324C69.7774 20.2324 69.7679 20.3306 69.783 20.408C69.7358 20.4193 69.7377 20.4797 69.6584 20.459C69.6075 20.4004 69.6339 20.2664 69.683 20.2343V20.2324Z" fill="black"/>
<path fill-rule="evenodd" clip-rule="evenodd" d="M67.0556 20.2833C67.1953 20.406 67.1122 20.6004 66.98 20.608C66.7742 20.6193 66.6931 20.2247 67.0556 20.2833ZM66.8554 20.4834C66.9026 20.5551 67.0631 20.5532 67.0556 20.4343C67.0084 20.4702 66.8894 20.4343 66.8554 20.4834Z" fill="black"/>
<path fill-rule="evenodd" clip-rule="evenodd" d="M70.884 20.5331C70.799 20.5142 70.7386 20.365 70.833 20.3084C70.9463 20.2858 70.9161 20.4878 70.884 20.5331Z" fill="black"/>
<path fill-rule="evenodd" clip-rule="evenodd" d="M67.6316 20.3595C67.7562 20.3538 67.7505 20.5766 67.7071 20.6597C67.5712 20.671 67.5372 20.4256 67.6316 20.3595Z" fill="black"/>
<path fill-rule="evenodd" clip-rule="evenodd" d="M73.9355 21.709C73.8883 21.6561 73.8581 21.8298 73.8109 21.86C73.7751 21.6524 73.996 21.4107 73.86 21.1596C73.9903 20.9746 73.9771 20.6895 73.709 20.6593C73.8223 20.614 73.8997 20.5328 73.9336 20.4082C74.3245 20.7197 74.2452 21.6675 73.9336 22.0092C73.9544 21.9242 73.9053 21.8751 73.8827 21.9601C73.8336 21.9091 73.8997 21.7619 73.9336 21.709H73.9355Z" fill="black"/>
<path fill-rule="evenodd" clip-rule="evenodd" d="M69.8087 20.633C69.7615 20.6368 69.7256 20.65 69.7086 20.684C69.518 20.5631 69.8786 20.3045 69.8087 20.633Z" fill="black"/>
<path fill-rule="evenodd" clip-rule="evenodd" d="M70.2322 20.8074C70.1888 20.7281 70.1605 20.7357 70.1567 20.6583C70.1359 20.1976 70.876 20.8206 70.2322 20.8074ZM70.2322 20.6828C70.2171 20.8112 70.4984 20.7546 70.3813 20.6583C70.3776 20.713 70.2756 20.6696 70.2322 20.6828Z" fill="black"/>
<path fill-rule="evenodd" clip-rule="evenodd" d="M70.908 20.5833C70.8967 20.6305 70.8986 20.6909 70.8325 20.6834C70.9231 20.7816 70.8891 20.8476 70.908 21.0081C70.8381 21.0289 70.8438 20.9722 70.7834 20.9836C70.7853 20.7835 70.7381 20.657 70.7834 20.5078C70.8476 20.5097 70.8702 20.5531 70.908 20.5833Z" fill="black"/>
<path fill-rule="evenodd" clip-rule="evenodd" d="M64.6533 20.6315C64.7628 20.5994 64.8459 20.6164 64.878 20.7316C65.0252 21.2621 64.1417 20.7845 64.6533 20.6315ZM64.7779 20.8317C64.6986 20.8656 64.6269 20.7694 64.6023 20.8317C64.6325 20.8732 64.7609 20.9223 64.7779 20.8317Z" fill="black"/>
<path fill-rule="evenodd" clip-rule="evenodd" d="M67.7314 20.8829C67.5615 20.8999 67.537 20.7526 67.6068 20.6582C67.7088 20.6714 67.7465 20.7507 67.7314 20.8829Z" fill="black"/>
<path fill-rule="evenodd" clip-rule="evenodd" d="M69.8065 20.6836C69.8065 20.7497 69.8159 20.8271 69.7819 20.8592C69.7234 20.8667 69.6856 20.8554 69.6573 20.8346C69.6384 20.7157 69.7102 20.6874 69.8065 20.6855V20.6836Z" fill="black"/>
<path fill-rule="evenodd" clip-rule="evenodd" d="M67.0074 20.7327C67.1848 20.8686 67.0149 21.1669 66.7827 21.0329C66.6864 20.8819 66.7619 20.6817 67.0074 20.7327ZM66.8318 20.9328C66.879 20.9442 66.8771 21.0046 66.9564 20.9819C66.9677 20.9347 67.0111 20.9196 67.0074 20.8573C66.947 20.88 66.8865 20.9026 66.8318 20.9328Z" fill="black"/>
<path fill-rule="evenodd" clip-rule="evenodd" d="M73.8619 20.8082C73.9355 20.9158 73.8392 21.0914 73.7108 21.0838C73.4654 21.0706 73.5239 20.5967 73.8619 20.8082ZM73.6372 20.9837C73.6825 21.0536 73.8656 20.9819 73.7864 20.9347C73.7901 21.0064 73.6315 20.9139 73.6372 20.9837Z" fill="black"/>
<path fill-rule="evenodd" clip-rule="evenodd" d="M69.6572 21.032C69.627 20.9131 69.7441 20.8565 69.8064 20.9074C69.8196 21.0113 69.7422 21.0264 69.6572 21.032Z" fill="black"/>
<path fill-rule="evenodd" clip-rule="evenodd" d="M70.4085 20.9582C70.4463 21.0696 70.4218 21.1395 70.3576 21.2074H70.182C69.9875 21.0677 70.2254 20.7864 70.4067 20.9582H70.4085ZM70.333 21.0583C70.316 21.1395 70.1895 21.0734 70.1839 21.1093C70.2141 21.1942 70.435 21.1565 70.333 21.0583Z" fill="black"/>
<path fill-rule="evenodd" clip-rule="evenodd" d="M67.6055 20.9322C67.7471 20.9247 67.8131 20.9907 67.8056 21.1323C67.6697 21.1361 67.6243 21.0474 67.6055 20.9322Z" fill="black"/>
<path fill-rule="evenodd" clip-rule="evenodd" d="M69.7321 21.0332C69.8397 21.071 69.7528 21.2239 69.632 21.1842C69.6113 21.0804 69.7 21.0842 69.7321 21.0332Z" fill="black"/>
<path fill-rule="evenodd" clip-rule="evenodd" d="M70.8088 21.0332H70.9088C70.9391 21.2409 71.0335 21.3542 71.0335 21.5335C70.9088 21.5732 70.8862 21.6789 70.7578 21.6581C70.7654 21.5486 70.9088 21.575 70.9334 21.4825C70.8598 21.29 70.8522 21.222 70.8088 21.0332Z" fill="black"/>
<path fill-rule="evenodd" clip-rule="evenodd" d="M64.6024 21.0831C64.695 21.0605 64.7705 21.0643 64.8026 21.1832C64.946 21.7232 64.0908 21.2096 64.6024 21.0831ZM64.5534 21.3078C64.6006 21.3191 64.6157 21.3626 64.678 21.3588C64.6855 21.3286 64.7799 21.2644 64.7025 21.2342C64.7138 21.321 64.5666 21.2493 64.5515 21.3097L64.5534 21.3078Z" fill="black"/>
<path fill-rule="evenodd" clip-rule="evenodd" d="M67.8831 21.2841C67.7793 21.2954 67.7 21.2841 67.7075 21.1841C67.7698 21.1331 67.9039 21.1727 67.8831 21.2841Z" fill="black"/>
<path fill-rule="evenodd" clip-rule="evenodd" d="M67.2546 21.459C67.1848 21.5534 66.9998 21.5534 66.9299 21.459C66.8336 21.1041 67.3547 21.1003 67.2546 21.459ZM67.03 21.4345C67.096 21.4609 67.1716 21.4534 67.181 21.359C67.1168 21.3703 67.0658 21.3948 67.03 21.4345Z" fill="black"/>
<path fill-rule="evenodd" clip-rule="evenodd" d="M69.7548 21.2326C69.668 21.3572 69.6812 21.3308 69.6793 21.4837C69.6208 21.4913 69.583 21.48 69.5547 21.4592C69.6 21.3554 69.6321 21.3893 69.6038 21.2345C69.6623 21.227 69.7076 21.1854 69.7548 21.2345V21.2326Z" fill="black"/>
<path fill-rule="evenodd" clip-rule="evenodd" d="M68.2063 21.7599C68.1119 21.6957 67.908 21.6088 67.9552 21.4842C67.9496 21.4314 67.8457 21.4767 67.8306 21.4352C67.8023 21.3559 67.8193 21.3691 67.8552 21.3105C67.9307 21.3105 67.9533 21.3634 68.0062 21.3861C67.9477 21.5371 68.2648 21.6126 68.2063 21.7618V21.7599Z" fill="black"/>
<path fill-rule="evenodd" clip-rule="evenodd" d="M64.6286 21.534C64.7494 21.4754 64.8645 21.5377 64.8778 21.6586C64.9306 22.089 64.2604 21.7133 64.6286 21.534ZM64.6286 21.7095C64.6625 21.7718 64.8438 21.7152 64.7532 21.6605C64.7645 21.7303 64.6172 21.6416 64.6286 21.7095Z" fill="black"/>
<path fill-rule="evenodd" clip-rule="evenodd" d="M69.5312 21.5078H69.6313C69.6068 21.6192 69.5992 21.6192 69.5803 21.7079C69.4973 21.6626 69.5596 21.6173 69.5312 21.5078Z" fill="black"/>
<path fill-rule="evenodd" clip-rule="evenodd" d="M66.8789 21.5594C66.9488 21.5009 67.0111 21.6613 67.0035 21.7595C66.9242 21.7312 66.9337 21.6122 66.8789 21.5594Z" fill="black"/>
<path fill-rule="evenodd" clip-rule="evenodd" d="M73.8097 21.5605C73.8229 21.6738 73.7587 21.7096 73.7342 21.7851C73.7021 21.6115 73.585 21.8135 73.5586 21.6341C73.6851 21.653 73.7077 21.5661 73.8097 21.5586V21.5605Z" fill="black"/>
<path fill-rule="evenodd" clip-rule="evenodd" d="M67.0312 21.584C67.0917 21.6161 67.1332 21.6652 67.1313 21.7596C67.0426 21.7558 67.0312 21.6765 67.0312 21.584Z" fill="black"/>
<path fill-rule="evenodd" clip-rule="evenodd" d="M72.5602 21.709C72.6206 21.76 72.6262 21.8902 72.5602 21.9336C72.4903 21.9072 72.5299 21.8355 72.4355 21.8846C72.4393 21.7883 72.5375 21.7864 72.5602 21.709Z" fill="black"/>
<path fill-rule="evenodd" clip-rule="evenodd" d="M72.3092 21.7598C72.4111 21.7919 72.2714 21.89 72.2091 21.9089C72.2053 21.8202 72.2941 21.8258 72.3092 21.7598Z" fill="black"/>
<path fill-rule="evenodd" clip-rule="evenodd" d="M76.0377 22.1342C76.0131 22.1342 76.0188 22.1644 76.0131 22.1852C75.9565 22.2286 75.8734 22.2456 75.762 22.2342C75.4241 21.9964 76.0717 21.6641 76.0377 22.1342ZM75.813 22.1342C75.8753 22.138 75.9168 22.121 75.9376 22.0851C75.8602 22.0775 75.8243 22.0303 75.762 22.0096C75.7583 22.0719 75.8017 22.087 75.813 22.1342Z" fill="black"/>
<path fill-rule="evenodd" clip-rule="evenodd" d="M71.458 22.11C71.6015 22.0363 71.7336 22.1156 71.7336 22.261C71.7318 22.6613 71.1182 22.2856 71.458 22.11ZM71.6336 22.3101C71.5448 22.3252 71.5128 22.2818 71.458 22.261C71.4202 22.3951 71.6072 22.3781 71.6336 22.3101Z" fill="black"/>
<path fill-rule="evenodd" clip-rule="evenodd" d="M66.8301 22.1095C66.9094 22.1057 66.9169 22.1737 66.9301 22.2341C66.8641 22.2266 66.8452 22.1681 66.8301 22.1095Z" fill="black"/>
<path fill-rule="evenodd" clip-rule="evenodd" d="M69.1549 22.4339C69.07 22.4811 69.0756 22.5151 68.9794 22.5094C68.5753 22.4811 69.1663 21.8336 69.1549 22.4339ZM69.0794 22.3848C69.0171 22.3867 69.002 22.432 68.9548 22.3848C68.9454 22.4698 69.1002 22.4906 69.0794 22.3848Z" fill="black"/>
<path fill-rule="evenodd" clip-rule="evenodd" d="M72.7595 22.6596C72.4763 22.3802 72.9993 22.165 73.0352 22.4595C73.0503 22.5766 72.9653 22.6898 72.7595 22.6596ZM72.9351 22.535C72.8539 22.5501 72.818 22.518 72.7595 22.5105C72.7557 22.6068 72.9087 22.5992 72.9351 22.535Z" fill="black"/>
<path fill-rule="evenodd" clip-rule="evenodd" d="M67.7045 22.3839C68.3086 22.3027 67.5648 22.9673 67.629 22.484C67.6384 22.4198 67.6365 22.4311 67.7045 22.3839ZM67.7045 22.5595C67.7517 22.5708 67.7498 22.6312 67.8291 22.6105C67.8423 22.5727 67.8669 22.5482 67.8801 22.5104C67.797 22.5501 67.7555 22.5331 67.7045 22.5595Z" fill="black"/>
<path fill-rule="evenodd" clip-rule="evenodd" d="M75.7132 22.6594C75.6112 22.7085 75.4602 22.6858 75.413 22.6103C75.3243 22.1836 75.9492 22.3894 75.7132 22.6594ZM75.6622 22.5348C75.5678 22.5612 75.5905 22.4725 75.5131 22.4838C75.498 22.5725 75.6433 22.6292 75.6622 22.5348Z" fill="black"/>
<path fill-rule="evenodd" clip-rule="evenodd" d="M66.5799 22.7092C66.8348 22.6488 66.8197 23.0585 66.6045 23.0585C66.4289 23.0585 66.3307 22.7677 66.5799 22.7092ZM66.7045 22.9093C66.6196 22.9433 66.5724 22.8961 66.529 22.9339C66.5762 22.9981 66.6838 22.9981 66.7045 22.9093Z" fill="black"/>
<path fill-rule="evenodd" clip-rule="evenodd" d="M74.0608 22.6842C74.1439 22.7276 74.1778 22.8182 74.1608 22.9598C73.8946 23.2713 73.6058 22.637 74.0608 22.6842ZM74.0362 22.9353C73.9494 22.939 73.9532 22.8503 73.8871 22.8352C73.8625 22.9428 74.0023 23.041 74.0362 22.9353Z" fill="black"/>
<path fill-rule="evenodd" clip-rule="evenodd" d="M70.2579 23.0605H70.3334C70.2919 23.1021 70.3126 23.2078 70.3088 23.2852C70.239 23.3116 70.1238 23.3079 70.0332 23.2852C70.0634 23.2154 70.1937 23.2456 70.1824 23.1361C70.2258 23.1266 70.2295 23.1549 70.2333 23.187C70.2881 23.1908 70.2447 23.0983 70.2579 23.0624V23.0605Z" fill="black"/>
<path fill-rule="evenodd" clip-rule="evenodd" d="M70.3589 23.0844C70.4609 23.0749 70.3873 23.2411 70.4099 23.309C70.2872 23.3223 70.342 23.1429 70.3589 23.0844Z" fill="black"/>
<path fill-rule="evenodd" clip-rule="evenodd" d="M69.1567 23.1095C69.2794 23.1039 69.2568 23.2417 69.2568 23.3588C69.1435 23.355 69.1567 23.2266 69.1567 23.1095Z" fill="black"/>
<path fill-rule="evenodd" clip-rule="evenodd" d="M69.0827 23.1367C69.1658 23.1462 69.1224 23.2802 69.1337 23.3614C69.0223 23.3085 69.0016 23.3973 68.9336 23.3614V23.2613C69.0714 23.3444 69.0223 23.2387 69.0827 23.1367Z" fill="black"/>
<path fill-rule="evenodd" clip-rule="evenodd" d="M71.4845 23.1367C71.5959 23.1386 71.5959 23.2802 71.56 23.3614C71.46 23.3614 71.4902 23.2311 71.4845 23.1367Z" fill="black"/>
<path fill-rule="evenodd" clip-rule="evenodd" d="M70.4571 23.1602C70.5477 23.1771 70.4986 23.3055 70.4571 23.3357C70.4042 23.3206 70.4345 23.1809 70.4571 23.1602Z" fill="black"/>
<path fill-rule="evenodd" clip-rule="evenodd" d="M71.3832 23.1602C71.4644 23.1677 71.4455 23.3489 71.3586 23.3357C71.3586 23.2697 71.3492 23.1923 71.3832 23.1602Z" fill="black"/>
<path fill-rule="evenodd" clip-rule="evenodd" d="M69.307 23.209C69.3787 23.2128 69.4259 23.2411 69.407 23.3336C69.3145 23.3506 69.2975 23.2939 69.307 23.209Z" fill="black"/>
<path fill-rule="evenodd" clip-rule="evenodd" d="M71.2601 23.2363H71.3357V23.3364C71.2526 23.3609 71.2545 23.3024 71.2601 23.2363Z" fill="black"/>
<path fill-rule="evenodd" clip-rule="evenodd" d="M67.9319 23.2598C68.0074 23.2805 67.9923 23.4807 67.9809 23.509C67.9319 23.4618 67.8752 23.3334 67.9319 23.2598Z" fill="black"/>
<path fill-rule="evenodd" clip-rule="evenodd" d="M69.4564 23.2598C69.5206 23.2617 69.5848 23.2635 69.581 23.3353C69.5092 23.3409 69.4451 23.3391 69.4564 23.2598Z" fill="black"/>
<path fill-rule="evenodd" clip-rule="evenodd" d="M68.0315 23.2852C68.1278 23.2889 68.1335 23.3833 68.1316 23.4853C68.0353 23.4815 68.0296 23.3871 68.0315 23.2852Z" fill="black"/>
<path fill-rule="evenodd" clip-rule="evenodd" d="M71.6848 23.2852C71.698 23.3493 71.7282 23.3814 71.6338 23.3852C71.6206 23.321 71.5922 23.2889 71.6848 23.2852Z" fill="black"/>
<path fill-rule="evenodd" clip-rule="evenodd" d="M72.6087 23.3359C72.688 23.3397 72.6672 23.521 72.6332 23.5606C72.4878 23.5549 72.6049 23.4115 72.6087 23.3359Z" fill="black"/>
<path fill-rule="evenodd" clip-rule="evenodd" d="M68.1562 23.3613C68.1695 23.5501 68.3488 23.3689 68.1562 23.3613V23.3613Z" fill="black"/>
<path fill-rule="evenodd" clip-rule="evenodd" d="M67.8295 23.3845C67.9183 23.3694 67.905 23.4581 67.905 23.5355C67.856 23.5355 67.8729 23.4676 67.805 23.4846C67.8012 23.4393 67.8352 23.4317 67.8295 23.3845Z" fill="black"/>
<path fill-rule="evenodd" clip-rule="evenodd" d="M68.2826 23.3855C68.3543 23.3647 68.3468 23.4214 68.4072 23.41C68.3845 23.4648 68.2675 23.4855 68.2826 23.3855Z" fill="black"/>
<path fill-rule="evenodd" clip-rule="evenodd" d="M72.6855 23.4853C72.7516 23.4777 72.7686 23.5192 72.7611 23.5853H72.6855V23.4853Z" fill="black"/>
<path fill-rule="evenodd" clip-rule="evenodd" d="M66.9297 23.5851C66.9335 23.5549 66.975 23.5643 67.0052 23.5605C67.0449 23.621 67.0883 23.6776 67.0807 23.7852C66.9939 23.755 66.9788 23.6549 66.9316 23.5851H66.9297Z" fill="black"/>
<path fill-rule="evenodd" clip-rule="evenodd" d="M66.8787 23.5859C66.9297 23.635 66.9636 23.7011 66.9542 23.8106C66.8428 23.8257 66.8296 23.6539 66.8787 23.5859Z" fill="black"/>
<path fill-rule="evenodd" clip-rule="evenodd" d="M67.1069 23.6094C67.1579 23.6245 67.2013 23.6471 67.1824 23.734C67.105 23.7378 67.0692 23.6452 67.1069 23.6094Z" fill="black"/>
<path fill-rule="evenodd" clip-rule="evenodd" d="M73.4861 23.8357C73.4257 23.7828 73.4729 23.6223 73.5616 23.6355C73.6126 23.6997 73.522 23.7809 73.4861 23.8357Z" fill="black"/>
<path fill-rule="evenodd" clip-rule="evenodd" d="M73.6855 23.6367C73.7044 23.7557 73.6496 23.801 73.61 23.8614C73.508 23.8236 73.5968 23.6405 73.6855 23.6367Z" fill="black"/>
<path fill-rule="evenodd" clip-rule="evenodd" d="M73.3594 23.6855H73.4349C73.4424 23.7516 73.4255 23.7932 73.3594 23.7856V23.6855Z" fill="black"/>
<path fill-rule="evenodd" clip-rule="evenodd" d="M70.1561 24.3619C69.6313 24.4129 69.0724 24.428 68.5797 24.5111C68.8893 24.4752 69.2518 24.1127 68.9044 23.8598C68.6401 23.8371 68.4777 23.9164 68.2285 23.9107C68.7873 23.7672 69.703 23.6445 70.2807 23.7616C69.6482 23.6596 69.4915 24.3827 70.1561 24.3619ZM69.6313 24.0618C69.618 23.9239 69.5161 23.7861 69.2801 23.8616C68.6646 24.058 69.6936 24.7358 69.6313 24.0618Z" fill="black"/>
<path fill-rule="evenodd" clip-rule="evenodd" d="M66.8051 23.886C66.7258 23.8803 66.7484 23.7236 66.8296 23.735C66.8843 23.7878 66.8353 23.8463 66.8051 23.886Z" fill="black"/>
<path fill-rule="evenodd" clip-rule="evenodd" d="M70.6562 23.785C71.0885 23.7114 71.5605 23.8152 71.9324 23.8851C71.7323 23.9323 71.5945 24.0003 71.5813 24.1607C71.5567 24.4779 71.9872 24.5308 72.2062 24.5855C72.0533 24.6478 71.8626 24.5232 71.6549 24.4855C71.3604 24.4326 71.0451 24.4213 70.6788 24.4099C70.7581 24.2835 70.9337 24.3363 70.979 24.1853C71.047 23.9606 70.8733 23.8247 70.6543 23.785H70.6562ZM71.2811 24.3609C71.5907 24.3533 71.6247 23.736 71.2056 23.8606C70.9111 23.9474 71.013 24.3684 71.2811 24.3609Z" fill="black"/>
<path fill-rule="evenodd" clip-rule="evenodd" d="M73.6862 23.9094C73.6787 23.8187 73.6806 23.7357 73.7863 23.7602C73.7938 23.8508 73.792 23.9339 73.6862 23.9094Z" fill="black"/>
<path fill-rule="evenodd" clip-rule="evenodd" d="M70.6817 24.2866C71.3595 23.9298 69.9398 23.673 69.8303 24.0865C69.8982 24.2602 70.1324 24.2696 70.3551 24.2866C70.1135 24.3451 69.7208 24.3281 69.7793 24.0374C69.8662 23.6145 71.554 23.9185 70.6799 24.2866H70.6817Z" fill="black"/>
<path fill-rule="evenodd" clip-rule="evenodd" d="M73.884 23.9603C73.8349 24.0019 73.8519 23.9584 73.7839 23.9603C73.7726 23.9075 73.8009 23.8942 73.8084 23.8603C73.8745 23.8527 73.8896 23.8942 73.884 23.9603Z" fill="black"/>
<path fill-rule="evenodd" clip-rule="evenodd" d="M68.5066 23.9374C68.6822 23.9204 68.9635 23.843 68.9824 24.1129C69.0031 24.4037 67.8024 24.7133 67.7307 24.3376C67.6759 24.0469 68.1819 23.9694 68.5066 23.9374ZM67.8062 24.2621C67.7835 24.617 68.9484 24.4074 68.9068 24.1129C68.8842 23.9506 68.7199 23.9827 68.5821 23.9883C68.3726 23.9959 67.8194 24.0582 67.8062 24.264V24.2621Z" fill="black"/>
<path fill-rule="evenodd" clip-rule="evenodd" d="M72.1602 23.9363C72.2413 23.8645 72.3678 23.9608 72.4358 23.9853C72.3603 24.0514 72.2394 23.9495 72.1602 23.9363Z" fill="black"/>
<path fill-rule="evenodd" clip-rule="evenodd" d="M69.4838 23.9607C69.6442 24.1551 69.3535 24.3703 69.2081 24.1853C69.159 23.9701 69.3214 23.8851 69.4838 23.9607ZM69.4592 24.1117C69.3818 24.1022 69.3403 24.1702 69.2836 24.1117C69.2931 24.2382 69.4441 24.2193 69.4592 24.1117Z" fill="black"/>
<path fill-rule="evenodd" clip-rule="evenodd" d="M71.4327 24.0092C71.444 24.1791 71.4024 24.2414 71.3081 24.2584C70.9777 24.3207 71.1268 23.709 71.4327 24.0092ZM71.3326 24.1602C71.2609 24.1961 71.2061 24.0922 71.1834 24.1602C71.2155 24.1961 71.3156 24.2508 71.3326 24.1602Z" fill="black"/>
<path fill-rule="evenodd" clip-rule="evenodd" d="M73.9603 24.0353C73.9282 24.0258 73.9206 23.9919 73.8848 23.9843C73.9018 23.8805 74.0396 23.973 73.9603 24.0353Z" fill="black"/>
<path fill-rule="evenodd" clip-rule="evenodd" d="M70.8076 24.0851C70.6981 24.2815 70.0279 24.3211 69.9316 24.0851C70.0487 23.8793 70.6793 23.9247 70.8076 24.0851ZM70.6075 24.1361C70.4395 24.1531 70.2073 24.104 70.0827 24.1607C70.2299 24.1909 70.4961 24.2135 70.6075 24.1361Z" fill="black"/>
<path fill-rule="evenodd" clip-rule="evenodd" d="M72.5327 24.5359C73.4389 24.3943 71.8266 23.7203 71.7322 24.1356C71.702 24.2678 71.8945 24.366 71.9323 24.3867C72.0437 24.4471 72.1286 24.4547 72.257 24.4868C72.0531 24.5623 71.6416 24.3792 71.6567 24.1621C71.6699 23.9733 71.9455 23.9657 72.157 23.9865C72.5364 24.0243 73.2803 24.4471 72.5327 24.5378V24.5359Z" fill="black"/>
<path fill-rule="evenodd" clip-rule="evenodd" d="M74.4365 24.0106C74.4365 24.1012 74.3874 24.1447 74.3364 24.1862C74.2288 24.1352 74.1231 24.0824 74.0117 24.0371C74.1703 23.9785 74.2477 24.005 74.4365 24.0125V24.0106Z" fill="black"/>
<path fill-rule="evenodd" clip-rule="evenodd" d="M66.3545 24.0102C66.364 24.1405 66.1487 24.1801 66.1544 24.0348C66.2488 24.0536 66.2733 24.0046 66.3545 24.0102Z" fill="black"/>
<path fill-rule="evenodd" clip-rule="evenodd" d="M72.5078 24.0366C72.5739 23.9875 72.7835 24.0102 72.7835 24.1121C72.6645 24.114 72.5965 24.0649 72.5078 24.0366Z" fill="black"/>
<path fill-rule="evenodd" clip-rule="evenodd" d="M72.6857 24.4098C72.3761 24.508 71.8928 24.4004 71.7852 24.1342C72.0702 23.9869 72.6102 24.1115 72.6857 24.4098ZM72.0853 24.3098C72.2628 24.2777 72.3912 24.4287 72.0853 24.3098V24.3098Z" fill="black"/>
<path fill-rule="evenodd" clip-rule="evenodd" d="M72.8367 24.0859C72.8915 24.0897 72.8896 24.1482 72.8877 24.2105C72.8009 24.2275 72.7971 24.1237 72.8367 24.0859Z" fill="black"/>
<path fill-rule="evenodd" clip-rule="evenodd" d="M67.5305 24.1094V24.234C67.4323 24.1924 67.4531 24.1924 67.3549 24.234C67.336 24.2113 67.3285 24.1773 67.3304 24.1339C67.4474 24.1113 67.4059 24.1622 67.5305 24.1094Z" fill="black"/>
<path fill-rule="evenodd" clip-rule="evenodd" d="M73.1101 24.1858C73.1214 24.2651 73.0421 24.2519 73.0346 24.3104C72.9741 24.3198 72.9798 24.2651 72.91 24.2859C72.9062 24.2236 72.9062 24.165 72.9345 24.1367C73.0553 24.2387 72.9685 24.1971 73.1101 24.1877V24.1858Z" fill="black"/>
<path fill-rule="evenodd" clip-rule="evenodd" d="M67.2296 24.1855H67.3051V24.2856C67.239 24.2932 67.2239 24.2516 67.2296 24.1855Z" fill="black"/>
<path fill-rule="evenodd" clip-rule="evenodd" d="M67.329 24.8367C67.1855 24.7272 67.1289 24.4081 67.1289 24.2363C67.2554 24.376 67.2894 24.6083 67.329 24.8367Z" fill="black"/>
<path fill-rule="evenodd" clip-rule="evenodd" d="M73.3608 24.311C73.4004 24.3997 73.3929 24.5507 73.3362 24.6112C72.8812 24.8056 72.9794 24.0391 73.3608 24.311ZM73.2607 24.5111C73.1739 24.53 73.155 24.4828 73.1116 24.4601C73.0682 24.5772 73.2513 24.5942 73.2607 24.5111Z" fill="black"/>
<path fill-rule="evenodd" clip-rule="evenodd" d="M67.5304 24.2853C67.621 24.3571 67.621 24.5138 67.5304 24.5855C67.2321 24.6686 67.2321 24.2023 67.5304 24.2853ZM67.3793 24.4855C67.4416 24.5402 67.5643 24.5044 67.5549 24.41C67.4888 24.4269 67.4284 24.4496 67.3793 24.4855Z" fill="black"/>
<path fill-rule="evenodd" clip-rule="evenodd" d="M73.2852 24.9365C73.3399 24.7005 73.4249 24.4928 73.5098 24.2852C73.591 24.4664 73.4456 24.8327 73.2852 24.9365Z" fill="black"/>
<path fill-rule="evenodd" clip-rule="evenodd" d="M74.3843 24.8362C74.2087 24.8192 74.137 24.7003 73.9841 24.6607C74.0879 24.7569 74.2635 24.7815 74.2842 24.9608C74.0426 25.0798 73.7009 24.9042 73.6329 24.6852C73.6839 24.6097 73.8727 24.6267 73.9576 24.6607C73.8915 24.5776 73.6688 24.5549 73.5819 24.6361C73.5687 25.025 74.0256 24.942 74.1577 25.1874C73.8783 25.1062 73.3006 24.8816 73.6065 24.5361C73.5196 24.5002 73.58 24.3982 73.6065 24.3359C73.6725 24.3529 73.733 24.3756 73.782 24.4115C73.8217 24.5096 73.6744 24.4209 73.682 24.487C73.9444 24.5757 74.2578 24.6135 74.3824 24.8381L74.3843 24.8362Z" fill="black"/>
<path fill-rule="evenodd" clip-rule="evenodd" d="M72.8851 24.7855C72.8304 24.7817 72.8304 24.7232 72.8342 24.6609C72.787 24.6703 72.8153 24.7572 72.7341 24.7364C72.7152 24.5117 72.8606 24.6005 72.9588 24.5117C73.0248 24.6099 72.9474 24.7402 72.8832 24.7874L72.8851 24.7855Z" fill="black"/>
<path fill-rule="evenodd" clip-rule="evenodd" d="M67.9825 24.536C68.0485 24.5285 68.0636 24.57 68.058 24.6361C67.9919 24.6437 67.9504 24.6267 67.9579 24.5606C67.9787 24.5644 67.9806 24.5511 67.9825 24.536Z" fill="black"/>
<path fill-rule="evenodd" clip-rule="evenodd" d="M67.5781 24.5605H67.6782C67.6971 24.6134 67.7386 24.7003 67.7027 24.7361C67.6083 24.7305 67.6046 24.6342 67.5781 24.5605Z" fill="black"/>
<path fill-rule="evenodd" clip-rule="evenodd" d="M67.7316 24.5605H67.8071V24.6852C67.7297 24.6965 67.7278 24.6323 67.7316 24.5605Z" fill="black"/>
<path fill-rule="evenodd" clip-rule="evenodd" d="M67.8299 24.5614C67.9319 24.5331 67.9527 24.6388 67.9055 24.686C67.862 24.6633 67.8186 24.6388 67.8299 24.5614Z" fill="black"/>
<path fill-rule="evenodd" clip-rule="evenodd" d="M72.2598 24.6098C72.3334 24.5551 72.492 24.6268 72.5599 24.6589C72.4788 24.7212 72.3504 24.6193 72.2598 24.6098Z" fill="black"/>
<path fill-rule="evenodd" clip-rule="evenodd" d="M67.3544 24.6113C67.4469 24.6151 67.5092 24.7378 67.4544 24.8114C67.3336 24.836 67.3109 24.6717 67.3544 24.6113Z" fill="black"/>
<path fill-rule="evenodd" clip-rule="evenodd" d="M72.6084 24.6113H72.684C72.6896 24.6831 72.6877 24.7473 72.6084 24.7359C72.5915 24.6585 72.5915 24.6887 72.6084 24.6113Z" fill="black"/>
<path fill-rule="evenodd" clip-rule="evenodd" d="M67.4805 24.6613C67.488 24.6273 67.5428 24.6405 67.5805 24.6367C67.5711 24.6971 67.6258 24.6915 67.6051 24.7613C67.4975 24.7934 67.5258 24.6896 67.4805 24.6613Z" fill="black"/>
<path fill-rule="evenodd" clip-rule="evenodd" d="M72.9843 24.6613C73.0768 24.6443 73.0919 24.7047 73.1844 24.6858V24.7613C73.243 24.7538 73.2316 24.6745 73.309 24.6858C73.3166 24.7764 73.2618 24.8066 73.2581 24.8859C73.192 24.8935 73.175 24.8519 73.1825 24.7859C73.1184 24.9086 73.0428 24.8198 72.9579 24.8104C72.939 24.733 72.9824 24.7198 72.9824 24.6613H72.9843Z" fill="black"/>
<path fill-rule="evenodd" clip-rule="evenodd" d="M67.2061 24.8852C67.0739 24.8286 67.1287 24.9324 67.0059 24.9362C67.0003 24.7927 67.2872 24.6851 67.2061 24.8852Z" fill="black"/>
<path fill-rule="evenodd" clip-rule="evenodd" d="M73.4364 24.8359C73.5214 24.8435 73.5535 25.0172 73.4119 24.9851C73.4081 24.9228 73.4081 24.8643 73.4364 24.8359Z" fill="black"/>
<path fill-rule="evenodd" clip-rule="evenodd" d="M73.6362 25.0361C73.5985 25.0758 73.4946 25.072 73.5116 24.9852C73.5494 24.9455 73.6532 24.9493 73.6362 25.0361Z" fill="black"/>
<path fill-rule="evenodd" clip-rule="evenodd" d="M71.909 25.1363C71.8543 25.1174 71.7693 25.0759 71.8335 25.0117C71.8826 25.0287 71.8996 25.0778 71.909 25.1363Z" fill="black"/>
<path fill-rule="evenodd" clip-rule="evenodd" d="M73.685 25.0117C73.7284 25.0344 73.7718 25.0589 73.7605 25.1363C73.6793 25.1439 73.6265 25.0684 73.685 25.0117Z" fill="black"/>
<path fill-rule="evenodd" clip-rule="evenodd" d="M69.7084 25.0368C69.7159 25.1029 69.6744 25.1199 69.6083 25.1123C69.6008 25.0463 69.6423 25.0293 69.7084 25.0368Z" fill="black"/>
<path fill-rule="evenodd" clip-rule="evenodd" d="M70.4824 25.0378C70.5353 25.0265 70.5485 25.0548 70.5825 25.0623C70.5768 25.1058 70.5391 25.119 70.4824 25.1114V25.0359V25.0378Z" fill="black"/>
<path fill-rule="evenodd" clip-rule="evenodd" d="M70.7832 25.0375C70.8625 25.0168 70.8606 25.0772 70.9078 25.0866C70.8965 25.1357 70.7322 25.1319 70.7832 25.0375Z" fill="black"/>
<path fill-rule="evenodd" clip-rule="evenodd" d="M71.3597 25.1098C71.3785 25.2061 71.2407 25.2061 71.2596 25.1098C71.3087 25.0683 71.2917 25.1117 71.3597 25.1098Z" fill="black"/>
<path fill-rule="evenodd" clip-rule="evenodd" d="M74.111 25.2861C73.9789 25.3597 73.8826 25.2049 73.7863 25.1615C73.7788 25.1218 73.8109 25.118 73.8109 25.0859C73.9166 25.1482 74.0714 25.1577 74.111 25.2861Z" fill="black"/>
<path fill-rule="evenodd" clip-rule="evenodd" d="M72.2347 25.1855C72.1667 25.1836 72.1837 25.227 72.1346 25.1855C72.1157 25.0892 72.2535 25.0892 72.2347 25.1855Z" fill="black"/>
<path fill-rule="evenodd" clip-rule="evenodd" d="M69.4323 25.1624C69.4398 25.2285 69.4228 25.27 69.3568 25.2625C69.3435 25.2417 69.3303 25.2209 69.3322 25.1869C69.3549 25.1681 69.3889 25.1605 69.4323 25.1624Z" fill="black"/>
<path fill-rule="evenodd" clip-rule="evenodd" d="M69.4826 25.1621H69.5827C69.6129 25.249 69.4429 25.2792 69.4826 25.1621Z" fill="black"/>
<path fill-rule="evenodd" clip-rule="evenodd" d="M69.9325 25.1613C69.9986 25.1537 70.0571 25.1537 70.0326 25.2368C69.9665 25.2444 69.925 25.2274 69.9325 25.1613Z" fill="black"/>
<path fill-rule="evenodd" clip-rule="evenodd" d="M70.6322 25.1621H70.7078C70.704 25.1904 70.7134 25.2074 70.7323 25.2112C70.7266 25.2886 70.6077 25.2527 70.6322 25.1621Z" fill="black"/>
<path fill-rule="evenodd" clip-rule="evenodd" d="M70.8067 25.161C70.8728 25.1535 70.8879 25.195 70.8822 25.2611C70.8161 25.2687 70.7746 25.2517 70.7821 25.1856C70.8029 25.1894 70.8048 25.1761 70.8067 25.161Z" fill="black"/>
<path fill-rule="evenodd" clip-rule="evenodd" d="M71.7844 25.1621C71.8561 25.1564 71.9203 25.1583 71.909 25.2376C71.8675 25.2791 71.7617 25.2584 71.7844 25.1621Z" fill="black"/>
<path fill-rule="evenodd" clip-rule="evenodd" d="M72.2854 25.1622C72.3212 25.1754 72.4137 25.132 72.41 25.1867C72.4269 25.2849 72.2627 25.2264 72.2854 25.1622Z" fill="black"/>
<path fill-rule="evenodd" clip-rule="evenodd" d="M69.2817 25.1857V25.2612C69.2288 25.2725 69.2156 25.2442 69.1816 25.2366C69.1873 25.1932 69.2251 25.18 69.2817 25.1876V25.1857Z" fill="black"/>
<path fill-rule="evenodd" clip-rule="evenodd" d="M70.3594 25.212C70.3707 25.178 70.5859 25.1516 70.5595 25.2366C70.4802 25.1837 70.4198 25.2592 70.3594 25.212Z" fill="black"/>
<path fill-rule="evenodd" clip-rule="evenodd" d="M71.0582 25.1866C71.0695 25.2395 71.0412 25.2527 71.0337 25.2867C70.9657 25.3056 70.9827 25.2376 70.9336 25.2357C70.9544 25.1979 70.9959 25.1809 71.0582 25.1866Z" fill="black"/>
<path fill-rule="evenodd" clip-rule="evenodd" d="M71.2329 25.2129H71.3575C71.382 25.313 71.2083 25.313 71.2329 25.2129Z" fill="black"/>
<path fill-rule="evenodd" clip-rule="evenodd" d="M72.5595 25.2121C72.6256 25.2045 72.6841 25.2045 72.6595 25.2876C72.5935 25.2951 72.5519 25.2782 72.5595 25.2121Z" fill="black"/>
<path fill-rule="evenodd" clip-rule="evenodd" d="M71.3828 25.2628C71.3885 25.2269 71.5886 25.2043 71.5584 25.2873C71.4923 25.2873 71.4149 25.2968 71.3828 25.2628Z" fill="black"/>
<path fill-rule="evenodd" clip-rule="evenodd" d="M71.7086 25.3108C71.6557 25.3655 71.6274 25.307 71.584 25.2862C71.5859 25.2126 71.7331 25.2202 71.7086 25.3108Z" fill="black"/>
<path fill-rule="evenodd" clip-rule="evenodd" d="M70.2069 25.2867C70.0011 25.366 69.6009 25.3811 69.3555 25.3377C69.5971 25.2848 69.9842 25.2772 70.2069 25.2867Z" fill="black"/>
<path fill-rule="evenodd" clip-rule="evenodd" d="M70.7586 25.2859C70.8285 25.2651 70.8228 25.3217 70.8832 25.3104C70.8813 25.384 70.7341 25.3784 70.7586 25.2859Z" fill="black"/>
<path fill-rule="evenodd" clip-rule="evenodd" d="M71.7585 25.2871C71.8888 25.3173 71.9662 25.2437 72.0096 25.3626C71.9171 25.3475 71.7453 25.4098 71.7585 25.2871Z" fill="black"/>
<path fill-rule="evenodd" clip-rule="evenodd" d="M70.9082 25.3105H71.1593V25.3615C71.0838 25.337 70.9063 25.4144 70.9082 25.3105Z" fill="black"/>
<path fill-rule="evenodd" clip-rule="evenodd" d="M71.3316 25.387C71.2712 25.3964 71.2769 25.3416 71.207 25.3624C71.2089 25.2888 71.3562 25.2963 71.3316 25.387Z" fill="black"/>
<path fill-rule="evenodd" clip-rule="evenodd" d="M70.4077 20.1588C70.5739 20.4495 70.0698 20.5496 70.1566 20.1833C70.2152 20.1323 70.3247 20.1172 70.4077 20.1588Z" fill="black"/>
<path fill-rule="evenodd" clip-rule="evenodd" d="M74.2102 19.8322C74.2933 19.8265 74.3084 19.9549 74.2612 20.0078C74.3613 20.0323 74.2707 19.8681 74.3613 19.8832C74.5236 19.853 74.4651 20.0059 74.4859 20.0588C74.5539 20.0776 74.467 19.9417 74.535 19.9587C74.618 19.9323 74.5746 20.0361 74.5841 20.0833C74.6313 20.0795 74.5992 19.9984 74.635 19.9832C75.4601 20.1381 75.8905 21.5295 75.1863 22.1355C75.2127 22.2299 75.124 22.2072 75.1372 22.2865C75.0334 22.3073 75.0202 22.4206 74.9616 22.4867C74.8465 22.5206 74.8182 22.6434 74.686 22.6622C74.7993 22.4583 74.9975 22.3413 75.1353 22.1619C74.9616 22.1884 74.8805 22.5244 74.635 22.5622C74.9333 22.1638 75.3959 21.8504 75.3109 21.1613C75.2411 20.5987 74.8635 20.2627 74.3349 20.1097C74.2801 20.0399 74.1687 19.9209 74.2102 19.8341V19.8322Z" fill="black"/>
<path fill-rule="evenodd" clip-rule="evenodd" d="M76.1122 20.5561C76.1443 20.6279 76.1443 20.7336 76.1122 20.8072C76.0178 20.8412 75.9744 20.8695 75.8611 20.8318C75.695 20.6543 75.931 20.3862 76.1122 20.5561Z" fill="black"/>
<path fill-rule="evenodd" clip-rule="evenodd" d="M72.2324 23.4368C72.2947 23.4331 72.3532 23.4331 72.357 23.4859C72.423 23.4029 72.4608 23.4293 72.5571 23.3613C72.5722 23.4519 72.5288 23.4822 72.5061 23.5369C72.4419 23.4293 72.2645 23.5973 72.2305 23.4368H72.2324Z" fill="black"/>
<path fill-rule="evenodd" clip-rule="evenodd" d="M67.1562 24.0106C67.9907 23.7085 69.2291 23.5782 70.4336 23.6349C71.3587 23.6783 72.2857 23.7255 72.9352 24.0351C70.9094 23.4574 67.8226 23.514 66.3557 24.5354C66.4407 24.6204 66.7182 24.4958 66.6804 24.3844C66.7937 24.39 66.7371 24.4467 66.856 24.4089C66.7937 24.3579 66.9315 24.2447 67.0316 24.3089C67.0977 24.4089 66.9542 24.3089 66.9315 24.3598C67.0901 24.4014 67.1524 24.4712 67.1562 24.5845C67.1656 24.8073 66.7786 24.8809 66.856 25.0357C66.8031 25.047 66.8088 24.9998 66.805 24.9602C66.7012 24.9791 66.7748 25.0206 66.7295 25.0848C66.6483 25.1169 66.7106 25.0036 66.6295 25.0357C66.5672 25.0546 66.7125 25.1112 66.6295 25.1603C66.5539 25.1849 66.5841 25.1037 66.5785 25.0603C66.4388 25.0848 66.5992 25.1358 66.5294 25.2094C66.4199 25.1811 66.4652 25.1301 66.4048 25.0848C66.5445 24.8545 67.1335 24.8847 67.0807 24.5845C67.0278 24.2843 66.5086 24.6562 66.3293 24.7091C66.3028 24.6166 66.3821 24.6279 66.4048 24.5845C66.333 24.4674 66.199 24.6562 66.0801 24.56C65.9894 24.2484 66.3708 24.1352 66.6049 24.0351C68.6174 23.1591 71.8704 23.2195 73.8848 24.0842C74.1434 24.1956 74.5003 24.2938 74.5361 24.56C74.3285 24.6827 74.0811 24.4807 73.8602 24.3844C73.6243 24.2824 73.3807 24.1899 73.1598 24.1087C73.1787 24.0521 73.2995 24.0993 73.3599 24.0842C71.7344 23.4347 68.8176 23.3101 67.1543 24.0087L67.1562 24.0106Z" fill="black"/>
<path fill-rule="evenodd" clip-rule="evenodd" d="M67.9561 23.9609C67.9108 24.0629 67.8655 24.0157 67.756 24.061C67.671 24.1724 67.688 24.2876 67.7069 24.4612C67.6144 24.3801 67.5785 24.2404 67.5823 24.061C67.6201 24.1157 67.6729 24.1799 67.6578 24.0365C67.7919 24.0648 67.8089 23.9685 67.958 23.9609H67.9561Z" fill="black"/>
<path fill-rule="evenodd" clip-rule="evenodd" d="M68.8304 24.0864C68.7323 24.3658 68.1904 24.4319 67.8789 24.3375C67.9714 24.0487 68.5189 23.9977 68.8304 24.0864Z" fill="black"/>
<path fill-rule="evenodd" clip-rule="evenodd" d="M66.3789 24.8364C66.4601 24.625 66.7131 24.5872 66.9283 24.5117C67.2398 24.7251 66.5281 25.0101 66.3789 24.8364Z" fill="black"/>
<path fill-rule="evenodd" clip-rule="evenodd" d="M69.0564 18.8821C69.2792 18.8141 69.2905 19.1502 69.1319 19.1823C68.9828 19.2106 68.8034 18.9595 69.0564 18.8821Z" fill="black"/>
<path fill-rule="evenodd" clip-rule="evenodd" d="M71.7098 18.9825C71.7457 19.2373 71.487 19.277 71.3851 19.1335C71.3152 18.8673 71.6286 18.8201 71.7098 18.9825Z" fill="black"/>
<path fill-rule="evenodd" clip-rule="evenodd" d="M72.483 19.0308C72.5038 19.0931 72.5151 19.1648 72.5075 19.2554C72.1564 19.5896 72.0695 18.7759 72.483 19.0308Z" fill="black"/>
<path fill-rule="evenodd" clip-rule="evenodd" d="M73.8367 19.1562C73.8556 19.2752 73.8008 19.3205 73.7612 19.3809C73.6328 19.4017 73.5648 19.3601 73.5101 19.3054C73.4402 19.0392 73.7536 18.992 73.8348 19.1544L73.8367 19.1562Z" fill="black"/>
<path fill-rule="evenodd" clip-rule="evenodd" d="M73.0591 19.308C72.993 18.9852 73.3404 18.9814 73.3838 19.157C73.4291 19.3363 73.2215 19.4704 73.0591 19.308Z" fill="black"/>
<path fill-rule="evenodd" clip-rule="evenodd" d="M74.1102 19.0822C74.2745 19.0331 74.3481 19.1219 74.3595 19.2332C74.4123 19.7392 73.6194 19.2314 74.1102 19.0822Z" fill="black"/>
<path fill-rule="evenodd" clip-rule="evenodd" d="M74.5622 19.2554C74.7019 19.1837 74.8208 19.2535 74.8378 19.38C74.8907 19.8161 74.1959 19.4423 74.5622 19.2554Z" fill="black"/>
<path fill-rule="evenodd" clip-rule="evenodd" d="M70.4082 19.4554C70.4045 19.4837 70.4139 19.5007 70.4328 19.5045C70.4819 19.7159 70.2346 19.7537 70.1571 19.6291C70.1232 19.4516 70.2761 19.3912 70.4082 19.4535V19.4554Z" fill="black"/>
<path fill-rule="evenodd" clip-rule="evenodd" d="M75.2611 19.4828C75.3952 19.8113 74.927 19.8868 74.8854 19.6339C74.8552 19.447 75.0931 19.3205 75.2611 19.4828Z" fill="black"/>
<path fill-rule="evenodd" clip-rule="evenodd" d="M69.382 20.0819C69.2989 19.7969 69.0271 19.7044 68.9062 19.457C69.5746 19.6798 69.7841 20.8635 69.4311 21.5828C69.4292 21.7263 69.6425 21.7622 69.5802 21.883C69.0686 21.7452 69.5104 21.2581 69.4802 20.7068C69.45 20.165 69.1347 19.9403 68.9289 19.6062C69.1366 19.7081 69.2329 19.9177 69.3801 20.0819H69.382Z" fill="black"/>
<path fill-rule="evenodd" clip-rule="evenodd" d="M71.7083 19.4825C71.8556 19.4769 71.595 19.6638 71.7328 19.5826C71.6554 19.7242 71.4534 19.7733 71.3326 19.9338C71.0494 20.3076 71.0551 21.008 71.2571 21.5593C71.1816 21.6008 71.1344 21.6688 71.006 21.6593C70.9928 21.5706 71.0947 21.597 71.0815 21.5102C70.8096 20.7003 70.989 19.6713 71.7064 19.4825H71.7083Z" fill="black"/>
<path fill-rule="evenodd" clip-rule="evenodd" d="M73.609 20.256C73.9205 20.1125 73.8809 20.5392 73.7091 20.5562C73.6203 20.5656 73.3598 20.3712 73.609 20.256Z" fill="black"/>
<path fill-rule="evenodd" clip-rule="evenodd" d="M71.1332 19.4322C70.6895 19.8022 70.5347 20.8538 70.8575 21.4844C70.7461 21.4126 70.6763 21.373 70.6574 21.2597C70.5857 21.3163 70.5819 21.2956 70.5083 21.3598C70.495 21.1974 70.5611 20.9576 70.4082 20.935C70.5498 20.8349 70.5762 20.5574 70.4327 20.4347C70.5215 20.2591 70.529 19.9306 70.4327 19.7588C70.4799 19.6719 70.5573 19.5247 70.4573 19.4341C70.6952 19.3019 71.0086 19.0961 71.1332 19.4341V19.4322Z" fill="black"/>
<path fill-rule="evenodd" clip-rule="evenodd" d="M76.0142 20.9337C76.1086 20.9091 76.2276 20.9374 76.2389 21.0828C76.2767 21.5699 75.5422 21.0526 76.0142 20.9337Z" fill="black"/>
<path fill-rule="evenodd" clip-rule="evenodd" d="M73.7859 21.2847C73.8086 21.4565 73.733 21.532 73.5612 21.5094C73.3555 21.3583 73.6349 21.077 73.7859 21.2847Z" fill="black"/>
<path fill-rule="evenodd" clip-rule="evenodd" d="M76.2137 21.4838C76.2855 21.7839 75.9815 21.8444 75.8626 21.6839C75.7833 21.4064 76.0891 21.3403 76.2137 21.4838Z" fill="black"/>
<path fill-rule="evenodd" clip-rule="evenodd" d="M64.9287 21.9598C65.142 22.1297 64.7191 22.4261 64.6285 22.1599C64.5832 22.0278 64.6719 21.8654 64.9287 21.9598Z" fill="black"/>
<path fill-rule="evenodd" clip-rule="evenodd" d="M70.2822 22.0326C70.3803 21.9798 70.4917 22.0175 70.4823 22.1572C70.4634 22.4404 70.0386 22.1629 70.2822 22.0326Z" fill="black"/>
<path fill-rule="evenodd" clip-rule="evenodd" d="M64.8045 22.3847C64.9027 22.2242 65.1217 22.296 65.1292 22.4338C65.1406 22.632 64.7743 22.7189 64.8045 22.3847Z" fill="black"/>
<path fill-rule="evenodd" clip-rule="evenodd" d="M73.9609 23.0852C73.8627 23.2967 73.9118 23.678 74.161 23.7365C74.6065 23.8404 74.6349 23.4534 74.2365 23.4364C74.2365 23.3288 74.3535 23.3382 74.3875 23.2608C74.3762 23.1305 74.3233 23.0418 74.312 22.9096C74.4234 22.8983 74.4989 22.9228 74.5877 22.9342C74.65 22.8794 74.6481 22.7624 74.7123 22.7095C74.7859 22.7284 74.835 22.7699 74.8878 22.8096C74.9879 22.768 74.9992 22.6378 75.1125 22.6094C75.2144 22.6321 75.222 22.7492 75.3126 22.785C75.4674 22.7737 75.5599 22.6982 75.7374 22.7095C75.6147 22.9361 75.4391 23.1116 75.2126 23.2344C75.2031 23.0569 75.3636 23.0531 75.4127 22.9342C75.205 23.0871 75.1087 23.1098 74.8614 23.0852C74.8236 23.0965 74.8708 23.1173 74.8614 23.1607C74.7991 23.1645 74.784 23.1211 74.7368 23.1116C74.6802 23.2381 74.7406 23.3174 74.6613 23.3873C74.7141 23.442 74.8085 23.4571 74.8369 23.5383C74.7292 24.0707 73.74 24.1066 73.7362 23.4628C73.3643 23.7422 72.7488 23.6308 72.6601 23.1626C72.3788 23.527 71.6236 23.3835 71.5084 22.9625C71.263 23.359 70.504 23.3363 70.3322 22.887C70.1755 23.291 69.3146 23.3665 69.1315 22.9361C68.9843 23.3684 68.2215 23.5138 67.9553 23.0871C67.8609 23.5326 67.2153 23.8007 66.8547 23.4118C66.8396 24.0424 65.8484 24.0839 65.703 23.5364C65.7559 23.4477 65.7748 23.325 65.9277 23.3363C65.9503 23.2551 65.8465 23.3004 65.8276 23.2608C65.8597 23.1513 65.9428 23.0928 66.0032 23.0097C65.8956 23.0984 65.8427 22.9833 65.7276 23.0342C65.7068 22.9625 65.7634 22.97 65.7521 22.9096C65.6823 22.9134 65.72 23.0286 65.6275 23.0097C65.6992 22.8832 65.4633 23.055 65.4765 22.8341C65.4406 22.9417 65.4576 23.004 65.4519 23.0852C65.333 23.0965 65.3424 22.9776 65.2518 22.9606C65.2518 23.0758 65.3953 23.0512 65.3764 23.1853C65.1083 23.1022 65.0347 22.8266 64.8516 22.6604C64.9573 22.5887 65.0857 22.7095 65.2027 22.7095C65.2839 22.6661 65.282 22.5377 65.3783 22.5094C65.501 22.5358 65.501 22.6869 65.5274 22.8096C65.7276 22.7756 65.7483 22.5641 65.9277 22.5094C65.9862 22.5849 65.9673 22.7359 66.0032 22.8341C66.0372 22.8832 66.1561 22.8473 66.2033 22.8832C66.2203 23.0588 66.0806 23.0777 66.0277 23.1834C66.09 23.2306 66.2052 23.223 66.2524 23.2834C66.209 23.4062 66.0164 23.3816 65.9013 23.4345C65.9673 23.5761 66.1826 23.78 66.4016 23.7347C66.6904 23.6742 66.5885 23.2929 66.6772 23.0588C66.9132 23.0928 67.0812 23.4383 67.4022 23.3835C67.5928 23.3514 67.8496 23.072 67.7023 22.8077C67.5608 22.9002 67.4116 22.9851 67.1775 22.9833V22.8077C67.1076 22.7341 66.9661 22.7359 66.8773 22.6831C66.8641 22.5622 66.9774 22.566 67.0019 22.483C66.9774 22.4244 66.8773 22.4414 66.8773 22.3584C66.9887 22.3036 67.2115 22.3584 67.3285 22.3093C67.2832 22.1299 67.0567 22.1318 66.9528 22.0091C66.9491 21.8958 67.102 21.9411 67.1775 21.909C67.2417 21.8411 67.236 21.7013 67.2776 21.6088C67.4343 21.6183 67.4701 21.7485 67.5777 21.809C67.7061 21.8297 67.742 21.7561 67.8534 21.7599C67.9062 21.8486 67.8666 22.0299 67.8779 22.1601C68.0837 22.1412 68.1668 21.9996 68.3782 21.9845C68.3745 22.0563 68.3914 22.1488 68.3537 22.1847C68.433 22.2809 68.6255 22.2621 68.6539 22.4093C68.5538 22.4584 68.4537 22.5094 68.3537 22.5585C68.3537 22.6661 68.4783 22.651 68.4783 22.7586C68.3631 22.8549 68.1649 22.7605 68.029 22.7341C67.9723 23.2589 69.0824 23.3835 68.954 22.634C69.0145 22.5849 69.1051 22.5528 69.1787 22.5849C69.1787 23.1513 70.219 23.2513 70.1548 22.5604C69.9792 22.566 69.7206 22.6774 69.579 22.5604C69.5865 22.5018 69.6054 22.4527 69.6545 22.4358C69.6092 22.3395 69.4808 22.3263 69.3788 22.2866C69.3977 22.1714 69.5148 22.1563 69.579 22.0865C69.5903 22.0072 69.5016 22.0299 69.5299 21.9355C69.7338 21.9317 69.9358 21.9298 70.0811 21.9845C70.0944 21.7788 69.9962 21.6862 69.9565 21.5352C70.1604 21.5465 70.202 21.3974 70.3077 21.3105C70.4153 21.3955 70.4493 21.5541 70.6589 21.5352C70.6268 21.6617 70.5739 21.7674 70.5343 21.8864C70.6683 21.9128 70.8609 21.7806 71.0855 21.8109C71.078 21.8883 71.0308 21.9241 71.01 21.9864C71.0723 22.0752 71.1818 22.1148 71.2347 22.2111C71.1875 22.296 71.0855 22.3281 70.9855 22.3602C70.9647 22.4811 71.0572 22.4886 71.0346 22.6113C70.7967 22.6869 70.5928 22.566 70.4587 22.4603C70.4531 22.7567 70.5871 22.9153 70.7589 23.0361C71.1044 23.0814 71.2668 22.9436 71.3593 22.7359C71.3574 22.5755 71.3706 22.4301 71.5594 22.4603C71.4744 23.1381 72.4467 23.4722 72.611 22.785C72.4807 22.6944 72.2636 22.8473 72.1352 22.7605C72.2844 22.5302 72.0446 22.4716 71.9596 22.3357C72.0578 22.2507 72.2372 22.247 72.3599 22.1865C72.4014 22.1828 72.3335 22.0827 72.3599 22.011C72.5166 22.0223 72.6431 22.0619 72.7601 22.111C72.8526 21.994 72.6733 21.8241 72.7356 21.7353C73.015 21.8109 73.1604 21.6164 73.4606 21.5843C73.4757 21.7165 73.4417 21.7995 73.436 21.909C73.5266 21.9524 73.6701 21.943 73.7607 21.9845C73.7154 22.1469 73.5285 22.1696 73.4096 22.2602C73.5285 22.3168 73.7381 22.2828 73.8098 22.3848C73.874 22.4792 73.6814 22.4981 73.6607 22.5849C73.6796 22.6793 73.7154 22.8284 73.6361 22.8851C73.5361 22.9021 73.4926 22.8605 73.4115 22.8605C73.3095 22.8889 73.4058 22.9719 73.3869 23.0607C73.1528 23.0531 73.0528 22.9115 72.9112 22.8115C72.7733 22.9927 72.9112 23.3042 73.0358 23.3873C73.4624 23.5138 73.6739 23.2306 73.8363 23.0116C73.8891 23.0267 73.9174 23.0644 73.9609 23.0871V23.0852ZM69.8829 22.1847C69.8187 22.1865 69.764 22.1979 69.7319 22.2337C69.8659 22.2186 69.9018 22.3414 70.0075 22.2847C69.9905 22.3432 69.9244 22.3508 69.9075 22.4093C70.0094 22.3848 70.0377 22.3829 70.083 22.4603C70.2794 22.3281 70.6173 22.4301 70.7589 22.4603C70.7457 22.398 70.7098 22.3414 70.6834 22.2356C70.7589 22.2281 70.8779 22.264 70.8835 22.1865C70.8174 22.1469 70.7023 22.111 70.7589 21.9864C70.623 22.0015 70.5324 22.0431 70.4587 21.9373C70.4248 21.8656 70.5267 21.8108 70.4587 21.7882C70.3889 21.8108 70.3624 21.724 70.3096 21.6372C70.3379 21.8373 70.1963 21.724 70.1604 21.8373C70.202 21.8618 70.1869 21.943 70.2114 21.9864C70.1586 22.0846 69.8584 22.0091 69.8112 22.0374C69.8924 22.0827 69.8244 22.1224 69.8867 22.1884L69.8829 22.1847ZM73.1849 21.96C73.1811 22.0242 73.149 22.0563 73.0849 22.0601C73.0849 21.943 73.0282 22.0903 72.9848 22.0846C73.0093 21.9751 72.93 21.9732 72.8847 21.9336C72.9206 22.0261 72.9357 22.2281 72.8338 22.2583C72.7639 22.2111 72.662 22.196 72.5827 22.1582C72.5902 22.2073 72.5487 22.2073 72.5317 22.2337C72.5657 22.2507 72.5789 22.2866 72.5827 22.3338C72.5053 22.3319 72.443 22.3451 72.4071 22.3848C72.4694 22.381 72.5109 22.398 72.5317 22.4339C72.4014 22.4131 72.5883 22.5547 72.4562 22.5339C72.4543 22.6019 72.4977 22.5849 72.4562 22.634C72.7413 22.5906 72.9187 22.7888 73.1075 22.7586C73.0112 22.7038 73.2359 22.6208 73.3076 22.6094C73.2793 22.6038 73.268 22.5811 73.2567 22.5585C73.3831 22.5434 73.4492 22.6189 73.4813 22.5094C73.3775 22.5169 73.3813 22.4792 73.4058 22.4093C73.3378 22.3942 73.2076 22.4414 73.1811 22.3848C73.1774 22.264 73.336 22.3055 73.3322 22.1847C73.2227 22.1582 73.251 22.2696 73.1566 22.2602C73.2 22.1186 73.1623 22.111 73.1811 21.96H73.1849ZM67.5551 22.7605C67.7118 22.702 67.8893 22.6623 68.1045 22.6604V22.5094C68.2064 22.4773 68.2574 22.3961 68.3801 22.3848C68.3046 22.3508 68.2914 22.3961 68.18 22.3848C68.1875 22.3508 68.2159 22.3376 68.2045 22.2847C68.0705 22.3112 68.0611 22.2413 68.129 22.1847C68.0006 22.1733 67.9912 22.2809 67.8798 22.2847C67.7798 22.2847 67.8326 22.1318 67.7798 22.0846C67.7344 22.1696 67.6589 22.0808 67.6306 22.1601C67.5777 22.1054 67.5532 22.0204 67.4815 21.9845C67.438 22.0959 67.5117 22.1865 67.4059 22.2092C67.4494 22.2413 67.5041 22.2602 67.506 22.3338C67.5154 22.4282 67.3493 22.3451 67.3304 22.4093C67.4041 22.4773 67.2606 22.5396 67.2304 22.5849C67.3115 22.5811 67.4682 22.5698 67.3795 22.6604C67.4267 22.6661 67.4343 22.6321 67.4796 22.6359C67.4418 22.7303 67.591 22.6415 67.5551 22.7359C67.5419 22.7359 67.5268 22.7567 67.5551 22.7605Z" fill="black"/>
<path fill-rule="evenodd" clip-rule="evenodd" d="M65.5302 23.1355C65.8285 23.0335 65.7794 23.4413 65.6057 23.4602C65.5037 23.4715 65.2451 23.2336 65.5302 23.1355Z" fill="black"/>
<path fill-rule="evenodd" clip-rule="evenodd" d="M74.8623 23.2607C74.7339 23.8837 75.5117 23.155 74.8623 23.2607V23.2607Z" fill="black"/>
<path fill-rule="evenodd" clip-rule="evenodd" d="M70.2591 24.5359C70.2006 24.5925 70.0344 24.5453 69.9344 24.5604C70.9218 24.6397 71.8771 24.7511 72.7115 24.9852C72.0923 24.6548 71.1219 24.6605 70.3101 24.5095C71.524 24.4755 72.4283 24.6831 73.3629 25.1098C73.5856 25.2118 73.9462 25.3515 73.9632 25.4855C73.9991 25.7819 73.0551 26.016 72.6624 26.0859C71.5674 26.2784 70.5631 26.2917 69.3095 26.235C68.3712 26.1935 67.295 26.0934 66.757 25.7593C66.6607 25.6989 66.504 25.5289 66.5059 25.4345C66.5115 25.1589 67.5084 24.8587 67.7821 24.7832C68.5165 24.5812 69.3642 24.4792 70.2591 24.534V24.5359ZM67.7821 25.0116C69.249 24.6605 71.4145 24.7511 72.7361 25.0872C71.4598 24.6057 69.1414 24.5699 67.7821 25.0116ZM71.8846 25.0116C70.176 24.7417 68.0162 24.7983 66.7796 25.4629C67.4933 26.016 68.8299 26.0632 70.1081 26.0632C71.3862 26.0632 72.7814 26.0519 73.6102 25.612C73.2439 25.2099 72.5492 25.1174 71.8846 25.0116Z" fill="black"/>
<path fill-rule="evenodd" clip-rule="evenodd" d="M67.5559 25.3866C67.5483 25.3206 67.5653 25.279 67.6314 25.2866C67.6503 25.3545 67.5823 25.3376 67.5804 25.3866C67.7617 25.3772 67.7673 25.2998 67.8561 25.2375C67.8674 25.2904 67.8391 25.3036 67.8315 25.3376C68.0751 25.2771 68.4546 25.2281 68.683 25.2375C68.6603 25.2904 68.6094 25.313 68.5338 25.313C68.7359 25.4093 69.1927 25.1884 69.3098 25.364C68.9737 25.3697 68.6849 25.4225 68.3847 25.464C69.2437 25.4093 70.3784 25.3527 71.362 25.4131C71.3978 25.4074 71.3714 25.3376 71.4111 25.3376C71.6168 25.3659 71.8396 25.3753 72.036 25.4131C72.0888 25.4055 72.0001 25.347 72.0605 25.313C72.119 25.3206 72.1549 25.3527 72.2361 25.3376C72.2021 25.296 72.1247 25.2979 72.0869 25.262C72.204 25.196 72.3682 25.296 72.4872 25.3111C72.5249 25.3999 72.4022 25.3262 72.4117 25.3866C72.4834 25.3923 72.5476 25.3904 72.5363 25.3111C72.625 25.347 72.7118 25.3848 72.8365 25.3866C72.9101 25.3659 72.7779 25.3489 72.8119 25.2866C73.0668 25.3564 73.3235 25.4244 73.5369 25.5377C73.0045 25.8983 72.1417 25.9134 71.2846 25.9625C69.7063 26.0531 67.8259 26.0531 66.8555 25.4622C66.8895 25.3791 67.0178 25.3904 67.0801 25.3376C67.1991 25.464 67.469 25.2243 67.5559 25.3866ZM68.8567 25.5377C69.5798 25.5339 70.35 25.5188 70.9334 25.5131C70.2896 25.4131 69.4778 25.4187 68.8567 25.5377Z" fill="black"/>
<path d="M70.3263 17.2759H70.3546L70.6567 17.3212C70.6567 17.3212 70.6567 17.2608 70.6567 17.2249C70.6567 17.189 71.0361 16.9039 71.0361 16.9039C71.0361 16.9039 70.9059 16.9153 70.9361 16.8114C70.9663 16.7076 70.9852 16.6321 70.9852 16.6321C70.9852 16.6321 70.8436 16.6963 70.8058 16.651C70.768 16.6056 70.7416 16.5622 70.7416 16.5622C70.7416 16.5622 70.5925 16.7737 70.5585 16.7378C70.5245 16.7038 70.6076 16.3206 70.6076 16.3206C70.6076 16.3206 70.5736 16.3848 70.4886 16.381C70.4886 16.381 70.4301 16.3772 70.3527 16.1582C70.3527 16.1582 70.2357 16.3885 70.1828 16.3923C70.1299 16.3961 70.0752 16.3225 70.0752 16.3225C70.0752 16.3225 70.1601 16.7359 70.1243 16.751C70.0903 16.7661 69.9336 16.5603 69.9336 16.5603C69.9336 16.5603 69.9223 16.6642 69.8618 16.6642C69.8014 16.6642 69.6938 16.6264 69.6938 16.6264C69.6938 16.6264 69.7467 16.7793 69.7429 16.8416C69.7391 16.9021 69.6504 16.9021 69.6504 16.9021C69.6504 16.9021 70.0638 17.1815 70.0412 17.2343C70.0185 17.2872 70.0242 17.3193 70.0242 17.3193L70.3244 17.2702V17.2759H70.3263Z" fill="black"/>
</svg>
