<svg width="35" height="33" viewBox="0 0 35 33" fill="none" xmlns="http://www.w3.org/2000/svg">
<path d="M10.3511 0H10.3531C10.3525 0.0492147 10.3521 0.0985112 10.3521 0.147887C10.3521 0.0985112 10.3518 0.0492147 10.3511 0Z" fill="#FD9B45"/>
<path d="M21 10.6479C15.1193 10.6479 10.3521 5.94688 10.3521 0.147887C10.3521 5.8975 5.73082 10.5678 0 10.6469V10.6489C5.6336 10.7278 10.195 15.3058 10.3481 21H10.3561C10.5128 15.2561 15.2182 10.6479 21 10.6479Z" fill="#FD9B45"/>
<path d="M27.9007 19H27.9021C27.9016 19.0328 27.9014 19.0657 27.9014 19.0986C27.9014 19.0657 27.9012 19.0328 27.9007 19Z" fill="#F77D2E"/>
<path d="M35 26.0986C31.0796 26.0986 27.9014 22.9646 27.9014 19.0986C27.9014 22.9317 24.8205 26.0452 21 26.0979V26.0993C24.7557 26.1519 27.7967 29.2039 27.8988 33H27.9041C28.0085 29.1707 31.1455 26.0986 35 26.0986Z" fill="#F77D2E"/>
</svg>
