<svg width="48" height="61" viewBox="0 0 48 61" fill="none" xmlns="http://www.w3.org/2000/svg">
<ellipse cx="24" cy="59" rx="7" ry="2" fill="#0B0A0C"/>
<path d="M48 24C48 37.2548 37.2548 48 24 48C10.7452 48 0 37.2548 0 24C0 10.7452 10.7452 0 24 0C37.2548 0 48 10.7452 48 24Z" fill="#4733FF"/>
<path d="M18 47H30L24.8944 57.2111C24.5259 57.9482 23.4741 57.9482 23.1056 57.2111L18 47Z" fill="#4733FF"/>
<g clip-path="url(#clip0_1866_13048)">
<path fill-rule="evenodd" clip-rule="evenodd" d="M17.3568 33.5962C17.2912 33.6304 17.211 33.6294 17.1464 33.591C17.0819 33.5536 17.0413 33.4852 17.0392 33.4105C17.0131 31.3081 17.1777 20.1622 23.3045 13.5894C23.4284 13.4566 23.6013 13.3809 23.7825 13.3809C23.9637 13.3819 24.1376 13.4566 24.2605 13.5894C30.3675 20.1663 30.5487 31.306 30.5258 33.4095C30.5237 33.4842 30.4841 33.5526 30.4185 33.591C30.354 33.6283 30.2748 33.6304 30.2082 33.5952C29.0428 32.9853 24.9437 30.8393 23.9845 30.3373C23.8585 30.2709 23.7075 30.2709 23.5815 30.3373C22.6213 30.8393 18.5222 32.9863 17.3568 33.5962ZM23.7835 21.8933C24.9218 21.8933 25.8445 22.8123 25.8445 23.947C25.8445 25.0807 24.9218 25.9996 23.7835 25.9996C22.6442 25.9996 21.7215 25.0807 21.7215 23.947C21.7215 22.8123 22.6442 21.8933 23.7835 21.8933Z" fill="#E3E3E3"/>
<path d="M17.4849 20.3219C17.5599 20.3116 17.6349 20.3406 17.6828 20.3987C17.7307 20.4568 17.7453 20.5356 17.7203 20.6072C17.3433 21.6962 16.9965 22.9046 16.7017 24.2405C16.6851 24.3173 16.6278 24.3795 16.5518 24.4013C16.4768 24.4241 16.3945 24.4044 16.3383 24.3494C15.7405 23.7686 14.3304 22.4005 13.5066 21.6008C13.3879 21.4857 13.3452 21.3135 13.3962 21.1579C13.4472 21.0013 13.5837 20.8872 13.7472 20.8634C14.8532 20.7036 16.7111 20.434 17.4849 20.3219Z" fill="#E3E3E3"/>
<path d="M33.8188 20.8634C33.9823 20.8872 34.1188 21.0013 34.1698 21.1579C34.2208 21.3135 34.1781 21.4857 34.0594 21.6008C33.2356 22.4005 31.8266 23.7686 31.2288 24.3484C31.1725 24.4034 31.0903 24.4241 31.0153 24.4013C30.9393 24.3784 30.882 24.3173 30.8653 24.2405C30.5706 22.9046 30.2238 21.6962 29.8468 20.6072C29.8218 20.5366 29.8364 20.4568 29.8843 20.3987C29.9322 20.3406 30.0072 20.3115 30.0822 20.3229C30.856 20.435 32.7139 20.7036 33.8188 20.8634Z" fill="#E3E3E3"/>
</g>
<defs>
<clipPath id="clip0_1866_13048">
<rect width="22" height="21" fill="white" transform="translate(13 13)"/>
</clipPath>
</defs>
</svg>
