<svg width="34" height="34" viewBox="0 0 34 34" fill="none" xmlns="http://www.w3.org/2000/svg">
<g clip-path="url(#clip0_1866_13958)">
<path d="M25.5003 5.66602H8.50033C6.93552 5.66602 5.66699 6.93454 5.66699 8.49935V25.4993C5.66699 27.0642 6.93552 28.3327 8.50033 28.3327H25.5003C27.0651 28.3327 28.3337 27.0642 28.3337 25.4993V8.49935C28.3337 6.93454 27.0651 5.66602 25.5003 5.66602Z" stroke="#E3E3E3" stroke-width="2.125" stroke-linecap="round" stroke-linejoin="round"/>
<path d="M11.333 15.584V22.6673" stroke="#E3E3E3" stroke-width="2.125" stroke-linecap="round" stroke-linejoin="round"/>
<path d="M11.333 11.334V11.3477" stroke="#E3E3E3" stroke-width="2.125" stroke-linecap="round" stroke-linejoin="round"/>
<path d="M17 22.6673V15.584" stroke="#E3E3E3" stroke-width="2.125" stroke-linecap="round" stroke-linejoin="round"/>
<path d="M22.6667 22.6673V18.4173C22.6667 17.6659 22.3682 16.9452 21.8368 16.4138C21.3054 15.8825 20.5848 15.584 19.8333 15.584C19.0819 15.584 18.3612 15.8825 17.8299 16.4138C17.2985 16.9452 17 17.6659 17 18.4173" stroke="#E3E3E3" stroke-width="2.125" stroke-linecap="round" stroke-linejoin="round"/>
</g>
<defs>
<clipPath id="clip0_1866_13958">
<rect width="34" height="34" fill="white"/>
</clipPath>
</defs>
</svg>
