<svg width="20" height="20" viewBox="0 0 20 20" fill="none" xmlns="http://www.w3.org/2000/svg">
<path d="M6.17567 10.0068C6.17567 8.86714 6.72495 7.75486 7.61064 7.04081C10.0618 5.06687 13.8208 6.86572 13.8208 10.0068C13.8208 11.1466 13.2887 12.2657 12.3996 12.9798C9.99653 14.9263 6.17567 13.093 6.17567 10.0068Z" fill="#E3E3E3"/>
<path d="M16.3029 7.68963L14.5315 8.33846C14.3873 8.38996 14.2328 8.31785 14.171 8.18055C14.1367 8.10503 14.1023 8.03292 14.068 7.9574C13.9993 7.82008 14.044 7.6553 14.1744 7.57977L15.8085 6.63229C15.9492 6.5499 16.1312 6.59796 16.2067 6.74214C16.3063 6.92752 16.3955 7.11976 16.4745 7.31544C16.5363 7.46306 16.4539 7.63127 16.3029 7.68963Z" fill="#E3E3E3"/>
<path d="M14.5212 10.5081C14.5315 10.4291 14.5383 10.3501 14.5418 10.2678C14.552 10.1167 14.6688 9.99657 14.8198 9.99316L15.7776 9.98283L16.7148 9.99316C16.8761 9.99316 17.0066 10.127 16.9997 10.2884C16.9895 10.4944 16.9723 10.7003 16.9482 10.9063C16.9276 11.0676 16.7732 11.1741 16.6153 11.1466L14.7546 10.8273C14.6035 10.7999 14.504 10.6591 14.5212 10.5081Z" fill="#E3E3E3"/>
<path d="M11.8263 14.1642C11.9019 14.1333 11.974 14.0989 12.0461 14.0612C12.1834 13.9925 12.3482 14.0337 12.4237 14.1676L13.3746 15.7982C13.457 15.9389 13.4089 16.1209 13.2648 16.1964C13.076 16.296 12.8837 16.3852 12.6914 16.4676C12.5438 16.5294 12.3722 16.4505 12.3173 16.2994L11.6684 14.5246C11.6135 14.3804 11.6856 14.2259 11.8263 14.1642Z" fill="#E3E3E3"/>
<path d="M9.51253 14.5177C9.59151 14.5281 9.6739 14.5349 9.75283 14.5417C9.90733 14.5521 10.0275 14.6722 10.0241 14.8267L10.0137 16.7148C10.0137 16.8762 9.87985 17.0101 9.71853 17.0032C9.50566 16.9929 9.29625 16.9723 9.08685 16.9448C8.92553 16.9208 8.81907 16.7663 8.85001 16.6084L9.18984 14.7512C9.22073 14.5932 9.35808 14.4971 9.51253 14.5177Z" fill="#E3E3E3"/>
<path d="M13.8072 12.4854C13.8896 12.3584 14.0578 12.3241 14.1882 12.3996L15.8189 13.3368C15.9596 13.4158 16.0077 13.6012 15.9219 13.735C15.8086 13.9135 15.6884 14.0852 15.5614 14.2534C15.4618 14.3804 15.2765 14.3976 15.1529 14.2946L13.7076 13.0896C13.5909 12.9935 13.5669 12.8219 13.6561 12.7017C13.7111 12.6331 13.7591 12.5575 13.8072 12.4854Z" fill="#E3E3E3"/>
<path d="M13.0999 6.29244C13.0038 6.40915 12.8322 6.43319 12.712 6.34393C12.6399 6.29244 12.5678 6.24094 12.4957 6.19288C12.3721 6.11049 12.3378 5.94228 12.4099 5.81183L13.3505 4.18118C13.4295 4.04044 13.6149 3.99237 13.7488 4.0782C13.9272 4.19148 14.0989 4.31164 14.2671 4.44209C14.3941 4.54164 14.4113 4.72702 14.3083 4.8506L13.0999 6.29244Z" fill="#E3E3E3"/>
<path d="M6.1963 7.50082C6.11392 7.62784 5.94227 7.66217 5.81525 7.58664L4.18804 6.64602C4.04729 6.56363 3.99923 6.38168 4.08505 6.2478C4.19834 6.06929 4.31849 5.89764 4.44894 5.72943C4.5485 5.60241 4.73731 5.58525 4.8609 5.68823L6.30273 6.89662C6.41945 6.99275 6.44348 7.16439 6.35422 7.28455C6.29586 7.35321 6.2478 7.4253 6.1963 7.50082Z" fill="#E3E3E3"/>
<path d="M6.91036 13.7076C7.00648 13.5908 7.17813 13.5668 7.29829 13.6561C7.37037 13.7076 7.44247 13.7591 7.51456 13.8071C7.64157 13.8895 7.6759 14.0577 7.60038 14.1882L6.66319 15.8189C6.58423 15.9596 6.40229 16.0076 6.26497 15.9218C6.08646 15.8085 5.91481 15.6884 5.7466 15.5614C5.61958 15.4618 5.60242 15.2764 5.7054 15.1494L6.91036 13.7076Z" fill="#E3E3E3"/>
<path d="M3.70053 12.3207L5.47192 11.665C5.6161 11.61 5.77058 11.6822 5.83237 11.8229C5.8667 11.8984 5.90103 11.9705 5.93536 12.046C6.00402 12.1834 5.96283 12.3481 5.82894 12.4237L4.20174 13.378C4.06098 13.4604 3.87904 13.4123 3.80351 13.2682C3.70396 13.0828 3.6147 12.8905 3.53231 12.6983C3.47052 12.5472 3.54947 12.3756 3.70053 12.3207Z" fill="#E3E3E3"/>
<path d="M3.05519 9.07314C3.07578 8.91177 3.23027 8.80536 3.39161 8.83279L5.25226 9.15894C5.40331 9.18642 5.49943 9.32372 5.48227 9.47821C5.47197 9.5606 5.4651 9.6464 5.46167 9.72879C5.45137 9.87988 5.33465 10 5.1836 10.0034L4.22238 10.024L3.28176 10.0034C3.12384 10 2.99339 9.86955 3.00026 9.70823C3.01056 9.49536 3.02772 9.28255 3.05519 9.07314Z" fill="#E3E3E3"/>
<path d="M6.63917 4.18804C6.55678 4.0473 6.60484 3.86535 6.74902 3.78982C6.93784 3.69027 7.13008 3.60101 7.32233 3.52206C7.46994 3.46026 7.64159 3.53922 7.69651 3.6937L8.34189 5.46853C8.39339 5.61271 8.32133 5.76719 8.18057 5.82555C8.10505 5.85645 8.03294 5.89078 7.96085 5.92854C7.82353 5.9972 7.65875 5.95601 7.58323 5.82212L6.63917 4.18804Z" fill="#E3E3E3"/>
<path d="M10.2816 5.4651C10.2816 5.4651 9.99658 5.45823 9.99658 5.13897L10 3.28862C10 3.12727 10.1339 2.99339 10.2953 3.00025C10.5047 3.01055 10.7107 3.02772 10.9167 3.05518C11.078 3.07578 11.1844 3.23026 11.1569 3.38817L10.8343 5.24882C10.8068 5.39987 10.6694 5.496 10.515 5.47883L10.2816 5.4651Z" fill="#E3E3E3"/>
</svg>
