<svg width="100" height="24" viewBox="0 0 100 24" fill="none" xmlns="http://www.w3.org/2000/svg">
<g clip-path="url(#clip0_1866_13266)">
<path d="M32.8172 16.6816C32.1075 16.6816 31.4111 16.5878 30.755 16.387C30.0988 16.1995 29.5498 15.9317 29.1079 15.5969L29.7775 14.1105C30.688 14.7399 31.7057 15.0613 32.844 15.0613C33.4332 15.0613 33.8884 14.9676 34.2098 14.7667C34.5178 14.5792 34.6785 14.3114 34.6785 13.9766C34.6785 13.6686 34.5312 13.441 34.25 13.2669C33.9554 13.0928 33.4332 12.9321 32.6967 12.7715C31.8664 12.5974 31.2103 12.3965 30.7148 12.1555C30.2194 11.9144 29.8578 11.6198 29.6302 11.2583C29.4025 10.9101 29.282 10.4816 29.282 9.95938C29.282 9.38357 29.4427 8.87472 29.7641 8.43282C30.0721 7.99092 30.5139 7.62937 31.0898 7.37494C31.6656 7.12052 32.3217 7 33.0716 7C33.7411 7 34.3839 7.09374 35.0133 7.2946C35.6293 7.49546 36.1247 7.74989 36.4863 8.08466L35.8167 9.57104C34.9463 8.94167 34.0357 8.62029 33.085 8.62029C32.536 8.62029 32.1075 8.72742 31.7995 8.92828C31.4915 9.14253 31.3308 9.43713 31.3308 9.79869C31.3308 10.0129 31.3977 10.187 31.5183 10.3209C31.6388 10.4682 31.8396 10.5887 32.1209 10.6959C32.3887 10.803 32.7904 10.9101 33.3126 11.0306C34.5312 11.2985 35.4016 11.6466 35.9372 12.0617C36.4595 12.4769 36.7273 13.0661 36.7273 13.8025C36.7273 14.6997 36.3791 15.3961 35.6962 15.9049C35.0133 16.4272 34.0491 16.6816 32.8172 16.6816Z" fill="white"/>
<path d="M41.5607 15.1835C41.7616 15.1835 41.9758 15.1701 42.2035 15.1433L42.0964 16.6163C41.8419 16.6565 41.5741 16.6699 41.3197 16.6699C40.3154 16.6699 39.5923 16.4556 39.137 16.0137C38.6683 15.5718 38.4407 14.9157 38.4407 14.0185V11.501H37.1953V9.98785H38.4407V8.05957H40.4627V9.98785H42.1098V11.501H40.4627V14.0051C40.4627 14.7952 40.8242 15.1835 41.5607 15.1835Z" fill="white"/>
<path d="M49.037 13.655H44.7519C44.8189 14.1772 44.993 14.5656 45.2742 14.7932C45.542 15.0342 45.9437 15.1548 46.466 15.1548C46.8007 15.1548 47.1489 15.1012 47.4837 14.9941C47.8051 14.8735 48.113 14.7129 48.3942 14.512L48.9299 15.8645C48.6085 16.1189 48.2202 16.3064 47.7649 16.4537C47.2962 16.601 46.8409 16.6679 46.3722 16.6679C45.2608 16.6679 44.3904 16.3599 43.761 15.744C43.1183 15.1414 42.7969 14.3111 42.7969 13.2533C42.7969 12.5837 42.9308 11.9945 43.212 11.4723C43.4932 10.95 43.8681 10.5483 44.3636 10.2671C44.8591 9.97249 45.4081 9.8252 46.0375 9.8252C46.9614 9.8252 47.6845 10.1198 48.2336 10.7224C48.7692 11.325 49.037 12.1284 49.037 13.1595V13.655ZM46.091 11.2178C45.7027 11.2178 45.4081 11.3384 45.1804 11.5794C44.9528 11.8338 44.8055 12.182 44.7519 12.6507H47.3364C47.3096 12.182 47.1891 11.8204 46.9748 11.5794C46.774 11.3384 46.4794 11.2178 46.091 11.2178Z" fill="white"/>
<path d="M52.274 7.12012H50.252V16.5607H52.274V7.12012Z" fill="white"/>
<path d="M55.8296 7.12012H53.8076V16.5607H55.8296V7.12012Z" fill="white"/>
<path d="M64.0479 9.98589V16.5608H62.0393V15.5833C61.8384 15.918 61.5706 16.1858 61.2091 16.3733C60.8475 16.5742 60.4324 16.6679 59.9771 16.6679C59.4013 16.6679 58.9058 16.534 58.4639 16.2528C58.022 15.9716 57.6873 15.5833 57.4462 15.061C57.1918 14.5522 57.0713 13.963 57.0713 13.28C57.0713 12.5971 57.1918 11.9945 57.4462 11.4723C57.6873 10.95 58.0354 10.5483 58.4773 10.2671C58.9192 9.97249 59.4147 9.8252 59.9771 9.8252C60.4324 9.8252 60.8475 9.91893 61.2091 10.1064C61.5706 10.3073 61.8384 10.5751 62.0393 10.9099V9.98589H64.0479ZM60.5663 15.128C61.035 15.128 61.4099 14.9673 61.6644 14.6459C61.9188 14.3245 62.0393 13.8558 62.0393 13.2533C62.0393 12.6507 61.9188 12.182 61.6644 11.8472C61.4099 11.5258 61.035 11.3651 60.5663 11.3651C60.0976 11.3651 59.7227 11.5258 59.4683 11.874C59.2138 12.1954 59.0799 12.6774 59.0799 13.28C59.0799 13.8826 59.2138 14.3379 59.4683 14.6593C59.7227 14.9673 60.0976 15.128 60.5663 15.128Z" fill="white"/>
<path d="M70.2974 11.4864L69.1591 11.6069C68.5967 11.6604 68.195 11.8211 67.9673 12.0756C67.7397 12.3434 67.6192 12.6915 67.6192 13.1334V16.5615H65.5972V9.98658H67.5388V11.098C67.8736 10.3347 68.5565 9.91963 69.5876 9.85267L70.1768 9.8125L70.2974 11.4864Z" fill="white"/>
<path d="M78.1726 16.6816C77.4629 16.6816 76.7666 16.5878 76.1105 16.387C75.4543 16.1995 74.9053 15.9317 74.4634 15.5969L75.1329 14.1105C76.0435 14.7399 77.0612 15.0613 78.1994 15.0613C78.7886 15.0613 79.2439 14.9676 79.5653 14.7667C79.8733 14.5792 80.034 14.3114 80.034 13.9766C80.034 13.6686 79.8867 13.441 79.6055 13.2669C79.3109 13.0928 78.7886 12.9321 78.0521 12.7715C77.2219 12.5974 76.5657 12.3965 76.0703 12.1555C75.5748 11.9144 75.2133 11.6198 74.9856 11.2583C74.758 10.9101 74.6375 10.4816 74.6375 9.95938C74.6375 9.38357 74.7982 8.87472 75.1195 8.43282C75.4275 7.99092 75.8694 7.62937 76.4452 7.37494C77.021 7.12052 77.6772 7 78.4271 7C79.0966 7 79.7394 7.09374 80.3687 7.2946C80.9847 7.49546 81.4802 7.74989 81.8417 8.08466L81.1722 9.57104C80.3018 8.94167 79.3912 8.62029 78.4405 8.62029C77.8914 8.62029 77.4629 8.72742 77.1549 8.92828C76.8469 9.14253 76.6863 9.43713 76.6863 9.79869C76.6863 10.0129 76.7532 10.187 76.8737 10.3209C76.9942 10.4682 77.1951 10.5887 77.4763 10.6959C77.7441 10.803 78.1459 10.9101 78.6681 11.0306C79.8867 11.2985 80.7571 11.6466 81.2927 12.0617C81.815 12.4769 82.0828 13.0661 82.0828 13.8025C82.0828 14.6997 81.7346 15.3961 81.0517 15.9049C80.3687 16.4272 79.4046 16.6816 78.1726 16.6816Z" fill="white"/>
<path d="M86.3254 16.6679C85.629 16.6679 85.0131 16.5206 84.4908 16.2394C83.9686 15.9582 83.5535 15.5699 83.2723 15.0476C82.991 14.5388 82.8438 13.9362 82.8438 13.2399C82.8438 12.5435 82.991 11.9409 83.2723 11.4187C83.5535 10.9099 83.9686 10.5215 84.4908 10.2403C85.0131 9.9591 85.629 9.8252 86.3254 9.8252C87.0217 9.8252 87.6377 9.9591 88.1599 10.2403C88.6822 10.5215 89.0973 10.9099 89.3785 11.4187C89.6597 11.9409 89.807 12.5435 89.807 13.2399C89.807 13.9362 89.6597 14.5388 89.3785 15.0476C89.0973 15.5699 88.6822 15.9582 88.1599 16.2394C87.6377 16.5206 87.0217 16.6679 86.3254 16.6679ZM86.3254 15.128C87.3029 15.128 87.7984 14.4986 87.7984 13.2399C87.7984 12.6105 87.6778 12.1284 87.4234 11.8204C87.169 11.5124 86.794 11.3518 86.3254 11.3518C85.3478 11.3518 84.8524 11.9811 84.8524 13.2399C84.8524 14.4986 85.3478 15.128 86.3254 15.128Z" fill="white"/>
<path d="M96.1271 9.98445V8.05762H98.1433V9.98445H99.7938V11.4967H98.1433V14.0007C98.1433 14.7893 98.5092 15.1796 99.249 15.1796C99.4523 15.1796 99.6637 15.1715 99.8913 15.1389L99.7775 16.6186C99.5255 16.6511 99.2653 16.6674 99.0051 16.6674C98.0051 16.6674 97.2734 16.4479 96.8181 16.0089C96.3547 15.578 96.1271 14.9113 96.1271 14.017V11.4967H93.5173V16.5617H91.4929V11.4967H90.249V9.98445H91.4929C91.5092 9.05762 91.7775 8.35843 92.3059 7.89502C92.8263 7.42347 93.623 7.15518 94.6962 7.09827L95.4279 7.05762L95.5498 8.5373L94.9238 8.56982C94.4035 8.58608 94.0376 8.68364 93.8263 8.85437C93.6149 9.03323 93.5173 9.31779 93.5173 9.71616V9.98445H96.1271Z" fill="white"/>
<path fill-rule="evenodd" clip-rule="evenodd" d="M4.767 23.6845C4.69044 23.7246 4.59688 23.7234 4.52154 23.6785C4.4462 23.6347 4.39879 23.5545 4.39636 23.467C4.36598 21.0038 4.55798 7.94509 11.7071 0.244277C11.8517 0.0887296 12.0534 0 12.2649 0C12.4763 0.00121521 12.6793 0.0887296 12.8227 0.244277C19.9487 7.94995 20.1601 21.0013 20.1334 23.4658C20.131 23.5533 20.0848 23.6335 20.0082 23.6785C19.9329 23.7222 19.8405 23.7247 19.7628 23.6833C18.4029 22.9688 13.6198 20.4545 12.5006 19.8663C12.3536 19.7886 12.1774 19.7886 12.0303 19.8663C10.9099 20.4545 6.12683 22.97 4.767 23.6845ZM12.2661 9.9733C13.5943 9.9733 14.671 11.05 14.671 12.3794C14.671 13.7077 13.5943 14.7843 12.2661 14.7843C10.9366 14.7843 9.85996 13.7077 9.85996 12.3794C9.85996 11.05 10.9366 9.9733 12.2661 9.9733Z" fill="white"/>
<path d="M4.91648 8.13225C5.00398 8.1201 5.09148 8.15411 5.14738 8.22216C5.20327 8.29021 5.22028 8.38259 5.19112 8.46644C4.75121 9.74241 4.34653 11.1581 4.00263 12.7233C3.98319 12.8132 3.91634 12.8861 3.82763 12.9117C3.74014 12.9384 3.64414 12.9153 3.57851 12.8509C2.88098 12.1704 1.2356 10.5675 0.274365 9.63058C0.13583 9.49569 0.0859876 9.29397 0.145533 9.11169C0.205079 8.92819 0.364286 8.79454 0.555075 8.76659C1.84563 8.57944 4.01358 8.2635 4.91648 8.13225Z" fill="white"/>
<path d="M23.9759 8.76659C24.1667 8.79454 24.3259 8.92819 24.3854 9.11169C24.445 9.29397 24.3952 9.49569 24.2566 9.63058C23.2954 10.5675 21.6512 12.1704 20.9537 12.8497C20.888 12.9141 20.792 12.9384 20.7045 12.9117C20.6158 12.8849 20.549 12.8132 20.5295 12.7233C20.1856 11.1581 19.781 9.74241 19.3411 8.46644C19.3119 8.3838 19.3289 8.29021 19.3848 8.22216C19.4407 8.15411 19.5282 8.12007 19.6157 8.13344C20.5186 8.26468 22.6865 8.57944 23.9759 8.76659Z" fill="white"/>
<circle cx="12.2883" cy="12.617" r="2.39925" fill="#313131"/>
</g>
<defs>
<clipPath id="clip0_1866_13266">
<rect width="100" height="24" fill="white"/>
</clipPath>
</defs>
</svg>
