<?xml version="1.0" standalone="no"?>
<!DOCTYPE svg PUBLIC "-//W3C//DTD SVG 20010904//EN"
 "http://www.w3.org/TR/2001/REC-SVG-20010904/DTD/svg10.dtd">
<svg version="1.0" xmlns="http://www.w3.org/2000/svg"
 width="1080.000000pt" height="1080.000000pt" viewBox="0 0 1080.000000 1080.000000"
 preserveAspectRatio="xMidYMid meet">

<g transform="translate(0.000000,1080.000000) scale(0.100000,-0.100000)"
fill="#000000" stroke="none">
<path d="M5170 9818 c-183 -14 -310 -35 -520 -84 -436 -102 -871 -316 -1234
-607 -348 -279 -654 -654 -845 -1037 -29 -58 -57 -113 -62 -122 -18 -34 -106
-264 -132 -343 -35 -110 -62 -209 -76 -280 -7 -33 -17 -76 -22 -95 -9 -33 -19
-92 -40 -255 -17 -120 -22 -549 -10 -675 31 -300 88 -557 178 -805 30 -81 91
-231 103 -254 5 -9 29 -56 53 -106 204 -415 497 -766 923 -1103 26 -20 246
-167 299 -199 77 -47 348 -178 440 -213 11 -4 32 -12 47 -18 211 -85 414 -132
831 -192 92 -14 613 -13 638 1 11 5 17 14 15 18 -3 5 -108 6 -233 3 -379 -8
-632 22 -973 115 -207 56 -294 89 -512 192 -644 303 -1185 846 -1486 1491 -60
127 -69 151 -108 257 -58 158 -72 206 -115 388 -83 355 -100 756 -49 1165 54
441 241 939 492 1314 275 411 639 755 1052 995 261 152 644 302 896 351 292
57 432 71 701 70 241 0 510 -25 639 -60 19 -5 76 -19 125 -30 135 -31 328 -94
432 -141 24 -10 45 -19 49 -19 13 0 256 -122 329 -165 42 -25 79 -45 81 -45 3
0 42 -25 87 -57 388 -268 656 -538 903 -910 145 -217 309 -555 364 -748 5 -16
19 -64 30 -105 80 -277 116 -514 126 -835 5 -157 2 -222 -15 -375 -12 -102
-25 -205 -30 -230 -27 -141 -43 -211 -57 -260 -9 -30 -25 -86 -36 -125 -11
-38 -27 -88 -35 -110 -9 -22 -19 -49 -23 -60 -152 -397 -362 -740 -643 -1046
-123 -134 -287 -284 -407 -374 -72 -54 -88 -74 -64 -82 19 -6 215 157 368 306
323 318 557 656 716 1037 23 54 46 108 51 119 20 44 89 267 118 380 99 394
115 849 47 1290 -16 101 -62 313 -76 350 -4 11 -13 40 -20 65 -46 179 -204
529 -336 745 -311 512 -788 941 -1335 1204 -134 64 -318 138 -414 166 -33 9
-71 21 -85 25 -27 9 -205 52 -285 69 -247 51 -587 71 -855 49z"/>
<path d="M5189 9455 c-3 -2 -48 -9 -100 -14 -467 -50 -941 -237 -1334 -528
-135 -101 -200 -158 -335 -293 -383 -383 -654 -879 -771 -1410 -67 -301 -80
-763 -29 -1035 5 -27 14 -79 20 -115 15 -81 54 -229 91 -340 142 -429 385
-811 725 -1141 159 -153 365 -311 529 -405 80 -45 305 -157 365 -181 107 -44
327 -111 445 -136 234 -51 387 -67 625 -67 229 0 350 14 350 41 0 14 -6 17
-32 13 -75 -11 -199 -20 -283 -19 -111 0 -120 17 -30 53 51 20 78 24 175 24
63 1 127 -4 143 -10 24 -10 27 -9 27 8 0 30 -66 43 -200 38 -115 -4 -115 -4
-228 -57 l-114 -53 -131 16 c-177 21 -281 41 -371 71 -41 14 -85 25 -98 25
-21 0 -91 23 -231 76 -61 23 -58 44 8 66 59 19 201 23 260 7 22 -6 81 -31 131
-55 114 -54 177 -71 279 -73 96 -1 159 15 274 74 47 24 104 48 126 54 57 15
193 14 249 -3 40 -12 48 -12 53 -1 9 25 -6 33 -94 45 -130 19 -218 3 -351 -60
-128 -62 -180 -74 -297 -67 -93 5 -111 11 -259 82 -138 66 -313 69 -441 9
l-56 -27 -62 29 c-98 45 -110 65 -44 79 17 4 73 27 122 51 112 54 173 67 290
62 86 -4 99 -7 191 -52 123 -60 170 -75 259 -82 91 -8 190 13 286 61 123 62
172 75 274 75 52 0 113 -6 140 -15 54 -16 65 -13 49 13 -25 39 -209 54 -317
26 -33 -8 -92 -31 -131 -51 -114 -57 -170 -73 -260 -73 -94 0 -148 15 -266 72
-108 52 -167 68 -257 68 -97 0 -164 -15 -248 -57 -105 -53 -191 -83 -235 -83
-33 0 -61 13 -153 72 -151 97 -235 164 -221 177 2 2 43 -15 91 -39 84 -41 93
-43 198 -48 132 -5 196 8 316 69 186 93 299 92 499 -4 129 -62 169 -70 303
-65 98 4 120 8 177 35 148 69 177 81 216 92 57 15 142 14 209 -3 30 -8 60 -18
65 -21 15 -9 30 4 24 20 -11 27 -76 40 -199 40 -133 -1 -163 -9 -293 -75 -158
-80 -296 -77 -482 10 -202 95 -353 95 -545 1 -188 -92 -322 -92 -509 0 -56 28
-121 53 -143 56 -33 4 -55 19 -118 78 -96 90 -94 100 19 92 91 -7 133 -20 237
-73 95 -48 157 -64 259 -64 102 0 161 15 257 64 120 60 157 70 273 70 113 1
119 0 260 -69 109 -53 159 -65 262 -65 100 0 163 16 257 64 105 53 147 66 236
73 74 5 151 -6 218 -32 13 -5 17 -2 17 13 0 16 -12 24 -57 38 -140 42 -256 26
-433 -60 l-104 -51 -136 0 -135 0 -98 48 c-232 114 -351 115 -582 1 l-99 -49
-135 0 -136 0 -105 51 c-138 67 -221 88 -322 81 l-77 -6 -45 47 c-25 26 -46
52 -46 58 0 21 83 47 169 52 112 6 165 -6 293 -68 202 -96 334 -96 536 0 130
63 181 74 297 67 85 -5 98 -9 218 -67 122 -58 131 -61 225 -67 121 -7 178 5
296 61 149 71 151 71 281 71 95 0 127 -4 152 -18 41 -22 53 -22 53 2 0 33 -87
54 -217 54 -123 0 -129 -1 -283 -77 l-105 -51 -130 0 -130 0 -100 46 c-177 83
-175 82 -298 82 -123 1 -155 -8 -297 -78 -149 -74 -309 -76 -451 -4 -145 72
-181 82 -305 82 -89 -1 -123 -5 -168 -22 -31 -11 -62 -21 -69 -21 -14 0 -77
78 -77 94 0 10 110 67 183 95 38 15 222 14 266 -1 20 -7 74 -31 121 -54 127
-61 154 -68 270 -68 115 0 150 8 270 69 110 55 146 65 250 65 111 0 221 -30
280 -76 8 -6 44 -22 80 -35 53 -19 84 -24 170 -23 116 0 141 6 275 69 145 67
144 67 267 63 83 -2 122 -8 147 -20 42 -22 61 -23 61 -3 0 30 -78 55 -200 62
-95 6 -163 -9 -270 -59 -139 -66 -181 -78 -272 -78 -101 0 -136 9 -258 67
-117 56 -181 73 -270 73 -93 0 -146 -14 -260 -67 -131 -62 -195 -77 -306 -71
-84 5 -99 9 -200 57 -141 68 -169 75 -289 75 -117 -1 -154 -9 -256 -58 -42
-20 -83 -36 -90 -36 -18 1 -84 109 -73 119 5 4 29 13 54 20 25 8 84 33 132 58
98 49 187 66 293 53 79 -10 92 -14 210 -70 185 -89 330 -87 520 4 118 57 156
67 267 67 103 0 136 -9 264 -72 96 -47 198 -70 286 -64 86 7 128 20 249 75
113 53 183 69 276 64 54 -3 134 -21 176 -39 13 -5 17 -2 17 13 0 47 -224 80
-350 51 -25 -5 -91 -32 -146 -59 -182 -89 -321 -92 -483 -10 -137 69 -163 75
-296 75 -131 0 -154 -6 -304 -80 -155 -76 -292 -72 -472 15 -115 55 -176 70
-283 70 -94 0 -166 -20 -275 -75 -49 -24 -107 -47 -129 -51 -36 -6 -41 -3 -64
27 -35 46 -61 99 -53 107 4 4 42 12 85 18 54 8 104 23 157 49 117 57 171 75
248 81 95 9 169 -8 296 -67 203 -94 334 -94 538 0 134 61 192 75 292 68 60 -4
96 -13 161 -42 215 -96 192 -90 328 -90 135 0 143 2 275 67 172 84 263 88 468
21 12 -4 17 0 17 15 0 16 -11 24 -47 36 -172 54 -273 45 -457 -42 l-121 -57
-135 0 -135 0 -106 52 c-126 62 -175 75 -294 76 -102 0 -145 -12 -269 -75
-165 -84 -314 -83 -495 3 -212 101 -345 101 -556 -2 -107 -52 -112 -53 -198
-54 l-89 0 -28 50 c-54 97 -55 95 50 95 117 0 162 11 287 71 121 58 162 68
264 69 89 0 134 -12 251 -69 108 -53 142 -63 243 -68 97 -6 166 9 262 54 156
72 165 75 265 81 111 5 152 -4 284 -69 103 -50 176 -69 267 -69 94 0 151 16
289 81 106 49 119 53 205 57 113 5 160 -5 280 -64 116 -56 183 -74 281 -74 93
0 142 14 286 83 l111 52 125 0 125 0 100 -48 c165 -80 191 -87 301 -87 96 0
164 20 299 86 l100 49 125 0 c124 0 126 0 208 -39 58 -28 82 -44 82 -57 0 -22
-19 -68 -38 -91 -13 -15 -17 -15 -57 2 -25 11 -81 24 -126 30 -114 16 -197 0
-324 -61 -126 -60 -164 -70 -269 -70 -104 0 -146 11 -261 67 -91 45 -196 74
-271 74 -64 0 -182 -34 -272 -80 -109 -55 -184 -70 -293 -59 -46 4 -95 11
-108 15 -21 6 -22 5 -12 -14 16 -30 49 -37 176 -37 115 0 165 13 270 71 158
87 312 85 501 -8 118 -57 203 -74 324 -64 87 7 130 21 240 77 91 46 175 63
270 56 76 -7 170 -35 177 -54 3 -7 -7 -38 -22 -69 -21 -42 -31 -54 -44 -49 -9
4 -61 9 -116 12 -116 6 -186 -8 -286 -57 -142 -70 -253 -92 -364 -71 -33 6
-101 31 -152 56 -139 67 -188 78 -312 73 -112 -5 -114 -6 -260 -76 -51 -25
-113 -47 -137 -50 -48 -5 -65 -19 -43 -33 25 -16 92 2 210 57 199 93 316 93
519 -1 82 -38 136 -56 176 -61 33 -3 72 -7 88 -9 35 -5 128 11 176 29 20 8 75
33 124 56 72 34 104 44 169 49 78 7 170 1 183 -12 11 -11 -4 -52 -36 -95 -30
-42 -30 -42 -95 -42 -83 0 -161 -20 -260 -68 -134 -65 -142 -67 -260 -67 -118
0 -126 2 -260 67 -44 21 -106 45 -138 53 -69 18 -178 19 -244 4 -60 -14 -213
-85 -213 -98 0 -23 24 -21 83 8 107 52 143 61 247 61 107 0 138 -8 258 -68
107 -54 162 -67 272 -67 102 1 134 9 250 63 145 67 160 72 226 72 45 0 64 -4
64 -12 0 -23 -99 -148 -117 -148 -29 0 -96 -26 -201 -78 l-97 -47 -130 0 -130
0 -123 58 c-137 66 -214 82 -337 71 -74 -7 -143 -32 -135 -49 6 -12 30 -11 90
5 27 7 84 10 140 7 88 -4 102 -7 195 -52 171 -81 167 -80 305 -79 l125 1 122
56 c67 31 125 57 128 57 34 0 -151 -213 -215 -246 -26 -14 -62 -20 -145 -22
-120 -4 -157 3 -250 50 -132 67 -264 100 -330 84 -49 -12 -11 -33 73 -39 81
-6 106 -14 237 -77 106 -51 143 -60 248 -60 55 0 87 -4 87 -11 0 -11 -28 -36
-111 -99 -67 -51 -80 -49 -232 22 -59 28 -110 48 -113 45 -14 -13 147 -117
181 -117 6 0 20 -6 31 -14 19 -14 18 -15 -6 -41 -19 -20 -22 -28 -11 -34 38
-24 364 250 546 459 72 83 206 258 242 315 86 137 223 389 223 409 0 3 13 34
28 68 29 64 93 251 111 323 43 177 68 297 82 395 16 113 16 589 0 700 -14 97
-58 320 -71 365 -5 17 -24 77 -41 135 -63 211 -221 550 -315 677 -13 17 -24
35 -24 39 0 22 -226 300 -340 418 -252 259 -516 449 -829 597 -145 69 -173 80
-321 129 -173 57 -196 62 -455 110 -107 19 -268 30 -451 30 -105 0 -193 -2
-195 -5z m551 -50 c211 -27 280 -42 495 -107 488 -148 954 -458 1306 -868 56
-66 146 -181 164 -211 6 -9 28 -43 49 -75 232 -348 387 -765 435 -1166 6 -49
16 -125 21 -171 11 -92 13 -266 4 -291 -14 -35 -107 -14 -257 59 -110 53 -180
67 -302 58 -93 -6 -138 -19 -238 -69 -94 -48 -155 -64 -247 -64 -90 0 -137 14
-263 75 -110 53 -192 69 -307 60 -93 -8 -122 -17 -230 -70 -106 -52 -158 -65
-252 -65 -83 0 -137 14 -240 63 -122 58 -142 64 -224 71 -115 10 -204 -6 -301
-54 -44 -22 -86 -40 -92 -40 -11 0 -101 122 -101 137 0 5 15 27 34 49 81 95
113 215 85 319 -57 217 -266 340 -473 280 -110 -32 -215 -131 -246 -232 -19
-60 -20 -237 -2 -255 6 -6 12 -19 12 -28 0 -23 29 -47 65 -55 17 -4 62 -22
100 -40 123 -59 166 -75 200 -75 54 0 82 -16 109 -63 37 -63 35 -77 -14 -77
-50 0 -131 27 -228 75 -105 52 -161 64 -276 59 -112 -4 -137 -11 -256 -68
-107 -52 -161 -66 -253 -66 -86 0 -139 15 -269 76 -113 53 -196 68 -311 59
-81 -7 -114 -17 -208 -65 -96 -50 -171 -70 -256 -70 -106 0 -143 10 -263 70
-92 46 -93 47 -85 170 6 109 28 301 44 380 22 114 32 155 52 227 133 476 368
880 716 1233 194 197 354 323 583 460 119 71 385 200 412 200 8 0 18 4 24 9
24 22 314 104 465 132 216 39 608 51 819 24z m-742 -2231 c83 -34 142 -121
142 -209 0 -136 -137 -250 -266 -223 -147 32 -232 179 -175 303 26 58 69 105
116 126 49 23 133 24 183 3z m-1423 -579 c40 -5 90 -21 150 -50 141 -67 178
-77 290 -78 109 -1 189 17 257 60 21 13 41 23 46 23 4 0 28 10 53 22 39 20 60
23 174 23 l130 0 121 -57 c136 -65 223 -84 334 -72 76 8 111 20 240 83 l95 46
130 0 130 0 121 -57 c138 -65 226 -84 333 -73 75 8 112 21 227 76 163 79 327
80 479 2 125 -63 176 -77 290 -77 112 0 161 13 287 76 158 79 320 79 483 -1
106 -52 159 -71 198 -71 59 0 69 -16 60 -90 -7 -59 -10 -65 -33 -68 -35 -5
-90 13 -209 70 -180 85 -331 89 -491 12 -159 -77 -185 -84 -302 -84 -60 0
-116 4 -126 9 -92 50 -255 113 -318 123 -107 17 -215 -1 -319 -54 -128 -65
-176 -78 -284 -78 -106 0 -133 8 -282 79 -168 80 -321 80 -487 0 -163 -78
-165 -79 -277 -79 -114 0 -134 5 -276 74 -190 91 -318 88 -537 -13 l-131 -61
-104 0 c-116 0 -134 5 -280 74 -190 90 -322 87 -530 -11 l-122 -58 -113 -3
c-86 -3 -123 0 -152 12 -61 24 -190 87 -194 95 -10 16 -14 117 -6 131 8 13 19
10 72 -17 114 -58 153 -67 268 -67 117 1 154 11 288 77 76 37 202 69 242 61 8
-1 42 -6 75 -9z m51 -200 c23 -8 81 -33 130 -56 112 -53 171 -69 263 -69 92 0
165 19 266 69 122 60 160 71 258 71 99 0 163 -18 278 -76 92 -47 157 -64 247
-64 96 0 147 13 262 67 130 62 172 73 268 73 92 0 159 -18 270 -74 95 -49 164
-66 256 -66 102 0 159 16 278 77 92 46 157 63 248 63 97 0 151 -15 265 -73 98
-50 166 -67 261 -67 86 0 197 29 265 69 126 75 289 93 411 47 35 -13 88 -36
118 -52 30 -16 91 -38 135 -50 91 -24 94 -28 75 -112 l-12 -54 -46 7 c-25 4
-97 32 -161 63 l-116 57 -141 0 c-80 0 -151 -5 -165 -11 -13 -6 -67 -31 -119
-56 -116 -55 -188 -72 -266 -65 -95 9 -136 21 -220 64 -128 65 -178 76 -312
71 -65 -2 -126 -9 -137 -15 -11 -6 -40 -20 -65 -31 -25 -11 -70 -31 -100 -44
-152 -68 -267 -63 -440 20 -141 68 -174 75 -308 70 -123 -5 -118 -4 -282 -80
-170 -79 -287 -76 -465 10 -136 66 -139 67 -285 67 l-135 0 -113 -54 c-218
-103 -323 -105 -515 -13 -139 66 -142 67 -282 67 -141 0 -139 0 -290 -71 -135
-63 -226 -75 -354 -48 -37 7 -187 79 -196 94 -3 4 -9 36 -13 70 -7 47 -6 63 4
67 7 2 43 -10 80 -28 92 -43 155 -59 244 -59 89 0 150 15 245 61 145 69 174
77 275 78 59 0 111 -5 136 -14z m-37 -185 c28 -5 106 -35 174 -67 l122 -57
125 0 c138 -1 154 3 296 70 178 85 305 83 495 -7 123 -58 204 -74 324 -66 81
6 106 14 246 80 166 79 292 75 486 -16 108 -51 127 -57 208 -62 131 -9 202 5
325 63 120 58 210 78 306 68 75 -8 120 -23 231 -77 65 -32 102 -44 169 -52
133 -16 219 -1 350 62 193 93 317 94 505 2 58 -28 125 -55 150 -59 39 -7 44
-11 47 -36 5 -38 -5 -88 -21 -109 -11 -15 -16 -15 -52 -3 -22 8 -74 31 -115
52 -100 49 -158 64 -260 64 -102 0 -164 -15 -262 -65 -119 -60 -153 -69 -263
-69 -110 0 -146 9 -268 70 -97 50 -155 64 -263 64 -101 0 -181 -21 -271 -71
-70 -39 -126 -57 -203 -64 -97 -10 -179 8 -299 64 -128 60 -169 70 -286 71
-95 0 -173 -21 -259 -69 -89 -50 -146 -65 -251 -65 -111 0 -139 7 -265 68
-110 53 -161 66 -268 66 -106 0 -142 -9 -257 -64 -130 -63 -158 -70 -270 -70
-108 -1 -120 2 -260 69 -117 56 -154 65 -261 65 -106 0 -167 -15 -260 -63
-127 -66 -140 -69 -264 -70 -118 0 -144 6 -247 60 -31 17 -43 42 -57 131 -7
41 4 41 97 0 69 -30 78 -31 207 -32 l135 0 110 53 c156 76 251 94 374 71z
m137 -242 c127 -61 186 -78 277 -82 90 -3 177 17 282 68 126 60 149 66 260 66
116 0 134 -5 261 -66 201 -96 344 -95 544 6 107 54 131 60 245 60 114 0 136
-5 251 -61 117 -56 176 -72 274 -72 105 1 167 17 295 79 l100 49 135 0 136 0
99 -49 c99 -49 221 -86 283 -86 68 0 188 33 271 74 120 59 160 68 287 64 108
-3 111 -4 219 -54 61 -29 122 -57 138 -63 18 -7 27 -18 27 -33 0 -33 -31 -108
-45 -108 -7 0 -60 23 -119 51 -93 43 -118 51 -189 56 -111 8 -197 -8 -292 -52
-44 -21 -100 -47 -125 -58 -37 -17 -65 -21 -160 -21 -125 -1 -127 0 -275 70
-106 50 -156 63 -246 64 -103 0 -159 -15 -292 -77 l-122 -58 -125 1 -125 0
-117 57 c-126 62 -183 77 -287 77 -86 0 -162 -20 -259 -69 -120 -60 -179 -74
-291 -69 -92 5 -101 7 -216 62 -141 68 -198 80 -321 73 -95 -6 -112 -12 -268
-87 -82 -40 -98 -44 -186 -48 -115 -5 -169 8 -300 74 -109 54 -176 68 -295 61
-94 -6 -116 -13 -285 -95 -74 -36 -76 -36 -200 -36 -106 0 -132 3 -172 21 -44
21 -48 25 -67 88 -32 102 -29 106 44 75 141 -58 311 -44 468 38 108 56 130 61
262 59 l120 -2 101 -47z m897 -143 c39 -3 89 -20 155 -51 146 -69 181 -78 307
-76 120 1 126 2 285 80 l95 47 130 0 130 0 110 -51 c164 -77 165 -77 290 -76
126 0 154 8 300 80 154 76 283 75 455 -3 174 -79 171 -78 288 -78 122 0 148 7
279 69 103 49 164 64 262 64 90 -1 133 -12 246 -66 96 -46 118 -65 96 -87 -6
-6 -11 -20 -11 -32 0 -12 -6 -30 -14 -40 -14 -19 -16 -19 -78 11 -101 50 -135
58 -248 58 -117 0 -142 -6 -275 -69 -124 -60 -145 -65 -250 -65 -102 0 -128 6
-230 55 -144 69 -181 79 -295 79 -112 0 -149 -8 -245 -56 -126 -64 -178 -78
-283 -78 -104 0 -143 10 -243 60 -126 64 -166 75 -279 74 -117 0 -143 -7 -275
-69 -129 -61 -156 -67 -275 -63 -84 3 -115 8 -155 27 -224 105 -227 106 -345
106 -115 0 -140 -6 -270 -67 -132 -62 -154 -68 -260 -68 -105 0 -145 10 -242
60 -121 63 -164 74 -283 74 -118 0 -124 -1 -265 -67 -123 -57 -163 -67 -273
-67 -93 0 -99 1 -122 26 -14 15 -25 32 -25 39 0 7 -7 26 -15 41 -8 16 -15 40
-15 53 0 20 3 23 28 17 67 -17 169 -24 235 -17 77 9 91 14 232 82 l90 44 130
0 130 0 105 -51 c158 -77 222 -91 363 -75 64 7 99 19 185 61 103 50 218 82
267 74 11 -1 46 -5 78 -9z"/>
<path d="M5247 9219 c-50 -27 -117 -97 -151 -159 -21 -38 -76 -181 -76 -196 0
-2 13 2 30 7 22 8 32 20 40 47 13 49 64 147 102 194 37 47 95 78 145 78 l38 0
-45 -39 c-43 -37 -86 -108 -109 -180 -15 -47 -14 -50 15 -42 19 5 31 20 49 66
16 39 41 75 71 104 54 52 60 48 71 -49 5 -47 9 -60 20 -56 8 4 19 6 25 6 11 0
6 81 -8 128 -7 24 -7 24 24 8 18 -9 39 -34 52 -61 23 -47 27 -50 49 -36 12 8
12 14 1 42 -23 56 -66 95 -117 110 -27 7 -57 21 -67 31 -27 25 -109 23 -159
-3z"/>
<path d="M5666 9042 c-8 -13 -71 -1381 -63 -1388 3 -4 134 22 237 47 19 4 49
11 65 14 17 4 37 9 45 12 8 4 18 7 23 8 4 2 10 4 15 5 4 1 18 1 31 0 15 -1 21
2 16 10 -5 7 2 10 22 8 l28 -3 -3 65 c-2 35 -8 68 -14 71 -6 4 -8 14 -5 23 7
18 -21 228 -32 236 -3 3 -7 34 -8 69 -1 35 -5 67 -10 70 -4 3 -8 24 -8 46 -1
22 -7 74 -14 115 -7 41 -12 83 -12 93 0 9 -3 17 -7 17 -4 0 -8 28 -8 62 -1 34
-6 64 -12 66 -6 2 -8 19 -5 41 3 22 1 41 -5 45 -6 4 -8 22 -5 43 5 28 3 34 -7
28 -9 -5 -11 -4 -6 4 4 6 5 29 1 50 -6 35 -10 40 -42 46 -25 4 -38 2 -44 -6
-6 -10 -12 -10 -27 4 -10 9 -23 17 -28 17 -6 0 -30 20 -54 45 -44 45 -55 51
-64 37z m381 -1124 c-3 -8 -6 -5 -6 6 -1 11 2 17 5 13 3 -3 4 -12 1 -19z"/>
<path d="M5450 7331 l-55 -6 -3 -250 c-2 -224 0 -254 16 -285 11 -21 24 -33
32 -31 8 2 38 6 65 8 74 7 81 10 63 31 -24 27 -27 55 -29 290 -1 181 -4 225
-16 237 -8 8 -15 14 -16 13 -1 -1 -27 -4 -57 -7z"/>
<path d="M5910 7332 c-30 -2 -58 -8 -61 -14 -4 -6 -7 -108 -8 -227 0 -118 -4
-230 -7 -248 -4 -20 -21 -46 -45 -68 -40 -36 -46 -45 -29 -45 5 0 39 -13 73
-30 35 -16 69 -30 74 -30 12 0 41 40 62 85 20 44 29 544 9 565 -9 11 -29 14
-68 12z"/>
<path d="M3757 7324 c-4 -4 -7 -145 -7 -314 l0 -306 48 -21 c26 -11 63 -27 82
-34 46 -18 224 -18 268 0 30 13 32 17 32 62 0 26 -5 51 -12 55 -6 4 -62 6
-124 5 -66 -1 -122 2 -134 9 -19 10 -20 21 -22 278 l-3 267 -60 3 c-34 2 -64
0 -68 -4z"/>
<path d="M4280 7311 c-6 -12 -10 -126 -10 -301 l0 -282 28 5 c91 18 122 30
123 45 0 9 0 134 -1 277 -1 190 -4 261 -13 267 -7 4 -35 8 -64 8 -42 0 -54 -4
-63 -19z"/>
<path d="M6167 7323 c-4 -3 -7 -159 -7 -345 l0 -338 38 0 c22 0 53 7 70 16
l32 15 0 330 0 329 -63 0 c-35 0 -67 -3 -70 -7z"/>
<path d="M6491 7316 c-8 -9 -11 -92 -9 -282 l3 -269 65 4 c36 2 66 4 68 6 2 2
3 94 2 205 0 140 3 206 11 216 18 22 141 19 189 -6 176 -90 173 -343 -4 -419
l-39 -17 39 -18 c21 -10 56 -27 77 -37 21 -10 44 -19 52 -19 27 0 94 71 125
132 27 55 30 70 30 157 0 82 -4 104 -26 151 -44 95 -124 164 -224 194 -72 21
-342 23 -359 2z"/>
<path d="M5898 5228 c-2 -109 -2 -113 -11 -198 -4 -36 -9 -205 -12 -376 -3
-171 -9 -335 -15 -364 -5 -29 -10 -132 -10 -229 0 -97 -4 -246 -9 -331 -15
-243 -27 -616 -22 -674 1 -4 11 -2 24 6 12 8 47 23 77 33 30 9 75 26 100 37
25 12 56 25 70 30 14 6 38 16 53 24 16 8 37 14 48 14 10 0 19 5 19 10 0 6 7
10 15 10 14 0 263 91 340 125 17 7 48 19 70 26 22 7 45 16 50 20 6 4 33 15 60
25 28 9 52 19 55 23 3 3 27 12 55 19 27 7 52 17 55 21 3 5 16 12 30 15 51 15
195 70 205 78 5 4 16 8 25 8 8 0 28 7 44 15 15 8 35 15 42 15 8 0 14 5 14 10
0 6 9 10 21 10 12 0 43 11 70 25 27 13 65 27 84 31 19 3 35 8 35 10 0 3 -39
41 -87 87 -47 45 -91 88 -97 96 -6 7 -67 71 -136 141 -69 70 -139 143 -155
162 -17 18 -44 45 -60 59 -17 15 -45 43 -63 63 -19 20 -38 36 -43 36 -5 0 -9
5 -9 11 0 6 -56 68 -124 138 -68 69 -197 201 -286 294 -133 136 -167 166 -184
162 -16 -5 -18 -4 -6 4 8 5 12 12 10 15 -3 3 -57 58 -121 123 -64 65 -139 144
-167 176 l-52 57 -2 -92z m50 2 c18 -24 20 -30 7 -30 -8 0 -15 7 -15 15 0 8
-4 15 -10 15 -5 0 -10 7 -10 15 0 21 3 19 28 -15z m253 -263 c-1 -12 -15 -9
-19 4 -3 6 1 10 8 8 6 -3 11 -8 11 -12z m113 -106 c10 -10 13 -21 8 -24 -8 -5
-42 26 -42 38 0 11 18 4 34 -14z m633 -657 c-3 -3 -12 -4 -19 -1 -8 3 -5 6 6
6 11 1 17 -2 13 -5z m83 -84 c0 -5 -5 -10 -11 -10 -5 0 -7 5 -4 10 3 6 8 10
11 10 2 0 4 -4 4 -10z m25 -30 c3 -5 -1 -10 -10 -10 -9 0 -13 5 -10 10 3 6 8
10 10 10 2 0 7 -4 10 -10z m105 -100 c0 -5 -2 -10 -4 -10 -3 0 -8 5 -11 10 -3
6 -1 10 4 10 6 0 11 -4 11 -10z m255 -260 c3 -5 1 -10 -4 -10 -6 0 -11 5 -11
10 0 6 2 10 4 10 3 0 8 -4 11 -10z m32 -26 c-3 -3 -12 -4 -19 -1 -8 3 -5 6 6
6 11 1 17 -2 13 -5z m-547 -210 c0 -2 -7 -4 -15 -4 -8 0 -15 4 -15 10 0 5 7 7
15 4 8 -4 15 -8 15 -10z m-230 -74 c0 -5 -5 -10 -11 -10 -5 0 -7 5 -4 10 3 6
8 10 11 10 2 0 4 -4 4 -10z"/>
</g>
</svg>
