<svg width="60" height="60" viewBox="0 0 60 60" fill="none" xmlns="http://www.w3.org/2000/svg">
<rect width="60" height="60" rx="9" fill="#6867F0"/>
<mask id="mask0_15360_867" style="mask-type:luminance" maskUnits="userSpaceOnUse" x="10" y="17" width="39" height="26">
<path d="M48.9152 17H10.084V43H48.9152V17Z" fill="white"/>
</mask>
<g mask="url(#mask0_15360_867)">
<path d="M48.1246 27.5278C47.8133 26.9484 47.2889 26.5101 46.6605 26.3034C47.7948 27.1645 48.0146 28.7803 47.1505 29.9139C46.9276 30.2051 46.645 30.4462 46.3212 30.6185C46.2489 30.6592 46.1736 30.6936 46.095 30.7249C46.0858 30.7312 46.0764 30.7343 46.0636 30.7406C46.0575 30.7406 46.0544 30.7437 46.048 30.7468L46.045 30.7437C46.0355 30.7343 46.0261 30.7281 46.0197 30.7155C45.8657 30.559 45.7212 30.3899 45.58 30.2114C45.5767 30.2082 45.5766 30.2082 45.5766 30.2051C44.8449 29.344 44.2952 28.1133 44.0501 26.6917H44.0531C43.9903 26.3347 43.9464 25.9715 43.9245 25.6082V25.6051C43.9181 25.4955 43.912 25.3859 43.9086 25.2732C43.8617 23.6135 44.226 22.0916 44.8574 20.9424C44.9516 20.7702 45.0523 20.6042 45.1654 20.4445C45.1654 20.4414 45.1684 20.4414 45.1684 20.4383C45.1809 20.4195 45.3004 20.266 45.3693 20.1721C45.8657 19.4895 46.0416 18.9822 46.0794 18.6221C46.2803 18.0208 47.0154 17.4541 46.9118 17.3789C46.5883 17.1472 45.8312 17.3131 45.4261 17.7077C44.9766 17.3413 44.2415 17.072 44.2415 17.072L43.5223 17.3507L42.1621 17V18.0835L42.9066 18.8006V19.2139C42.6239 19.217 42.3411 19.2609 42.071 19.3485H42.0678C41.4929 19.527 41.0563 19.7963 40.6479 20.2692L38.7191 19.192L37.7075 18.979C37.1641 18.9164 37.1641 19.7963 37.1641 19.9967H38.7191L39.9097 21.4685C39.8845 21.528 39.8625 21.5875 39.8405 21.647C39.5547 22.4987 39.5327 23.4162 39.7808 24.2805C39.8751 24.6124 40.0133 24.9287 40.1892 25.2262L41.1254 27.3963V27.3994C40.1955 27.4213 39.7808 28.2323 40.3149 29.3502C40.4751 29.6853 40.673 30.0047 40.9055 30.2928C40.8835 30.2959 40.8584 30.299 40.8364 30.299L40.161 30.1957C39.9725 30.1957 39.8029 30.3147 39.6772 30.5089C39.5515 30.703 39.4761 30.9692 39.4761 31.2666H46.3654C46.4752 31.2447 46.5852 31.2166 46.6919 31.179C46.824 31.1351 46.9526 31.0788 47.0752 31.013C48.3286 30.3398 48.8 28.7803 48.1246 27.5278ZM43.9339 17.714C44.0217 17.6012 44.1851 17.5793 44.2983 17.667C44.4114 17.7547 44.4239 18.121 44.4239 18.121C44.4239 18.121 44.0909 18.1649 43.9778 18.0772C43.8677 17.9895 43.8459 17.8267 43.9339 17.714Z" fill="white"/>
<path d="M27.7228 20.8579H20.1582V31.2698H27.7228V26.4067C25.7436 30.5152 24.6913 30.8345 24.2326 30.8345C24.1478 30.8345 24.085 30.822 24.0378 30.822V25.9621L26.6201 27.628V23.8922L24.0378 25.3953V21.2462C24.0661 21.2462 24.1258 21.2306 24.22 21.2306C24.6536 21.2306 25.8002 21.5312 27.7228 24.8755V20.8579ZM37.5711 20.8579H33.393C34.4831 22.3892 35.347 23.8922 34.571 25.4235L32.3469 20.8579H28.3196L31.0055 26.0654H31.0212V31.2698H34.9009V26.0654H34.8852L37.5711 20.8579Z" fill="white"/>
<path d="M30.5973 41.9167C30.0538 41.9167 29.2182 40.7174 27.7668 37.8866C26.2307 34.8241 25.8443 33.4681 26.3658 33.083C26.4286 33.0454 26.5008 33.0235 26.5731 33.0235C27.1323 33.0235 27.9333 34.1946 29.303 36.8751C30.9146 40.0723 31.3763 41.4845 30.7952 41.8572C30.7386 41.8947 30.6695 41.9135 30.5973 41.9167ZM28.4674 32.1279C25.1689 32.1279 23.6484 34.3888 23.6484 37.4669C23.6484 40.4261 25.172 43.0001 28.4674 43.0001C31.7627 43.0001 33.2863 40.4261 33.2863 37.4669C33.2895 34.3888 31.7659 32.1279 28.4674 32.1279Z" fill="white"/>
<path d="M38.2625 32.3501H34.3828V42.762H41.2029V38.1526C38.7274 42.3173 38.7274 42.3173 38.2625 42.3173V32.3501Z" fill="white"/>
<path d="M48.9156 32.3501H44.7373C45.8276 33.8813 46.6914 35.3844 45.9154 36.9157L43.6914 32.3501H39.6641L42.35 37.5545H42.3657V42.7588H46.2453V37.5576H46.2298L48.9156 32.3501Z" fill="white"/>
<path d="M15.0097 20.8579V25.627H13.9637V20.8579H10.084V31.2729H13.9637V26.7763H15.0097V31.2729H18.8863V20.8579H15.0097Z" fill="white"/>
<path d="M18.6386 32.3501V37.1129H17.5925V32.3501H13.7129V42.7651H17.5925V38.2653H18.6386V42.7651H22.5183V32.3501H18.6386Z" fill="white"/>
</g>
</svg>
