<svg width="32" height="32" viewBox="0 0 32 32" fill="none" xmlns="http://www.w3.org/2000/svg">
<path d="M30.8038 16.0005C30.8038 14.0062 28.2946 12.1163 24.4476 10.9443C25.3354 7.04167 24.9408 3.93678 23.2022 2.94272C22.8015 2.70954 22.333 2.59909 21.8213 2.59909V3.96746C22.1048 3.96746 22.333 4.02268 22.5241 4.127C23.3625 4.60562 23.7263 6.42806 23.4427 8.77207C23.3749 9.34887 23.2639 9.95635 23.1283 10.5761C21.9199 10.2816 20.6006 10.0545 19.2134 9.90726C18.3811 8.77207 17.518 7.7412 16.6487 6.83918C18.6586 4.97992 20.5451 3.96132 21.8274 3.96132V2.59296C20.132 2.59296 17.9126 3.79564 15.6685 5.88194C13.4244 3.80792 11.205 2.6175 9.50957 2.6175V3.98586C10.7857 3.98586 12.6784 4.99833 14.6882 6.84532C13.8251 7.74733 12.962 8.77207 12.1421 9.90726C10.7488 10.0545 9.42942 10.2816 8.22107 10.5822C8.07927 9.96862 7.97446 9.37341 7.90048 8.80275C7.61072 6.45874 7.9683 4.6363 8.80058 4.15154C8.98554 4.04109 9.22598 3.992 9.50957 3.992V2.62364C8.9917 2.62364 8.52316 2.73409 8.11626 2.96726C6.38387 3.96132 5.99547 7.06008 6.88941 10.9504C3.05472 12.1286 0.557861 14.0124 0.557861 16.0005C0.557861 17.9947 3.06705 19.8847 6.91407 21.0567C6.02629 24.9593 6.42086 28.0642 8.15942 29.0582C8.56015 29.2914 9.02869 29.4018 9.54656 29.4018C11.242 29.4018 13.4614 28.1992 15.7055 26.1129C17.9496 28.1869 20.169 29.3773 21.8644 29.3773C22.3823 29.3773 22.8508 29.2668 23.2577 29.0337C24.9901 28.0396 25.3785 24.9409 24.4846 21.0505C28.3069 19.8785 30.8038 17.9886 30.8038 16.0005ZM22.7768 11.9076C22.5487 12.6992 22.2651 13.5153 21.9446 14.3314C21.6918 13.8405 21.4267 13.3496 21.1369 12.8588C20.8533 12.3679 20.5512 11.8892 20.2492 11.4229C21.1246 11.5518 21.9692 11.7113 22.7768 11.9076ZM19.9532 18.4427C19.4724 19.271 18.9791 20.0565 18.4674 20.7867C17.5488 20.8664 16.6179 20.9094 15.6808 20.9094C14.7499 20.9094 13.819 20.8664 12.9065 20.7928C12.3948 20.0626 11.8955 19.2833 11.4146 18.4611C10.946 17.6572 10.5206 16.8411 10.1322 16.0189C10.5145 15.1966 10.946 14.3744 11.4084 13.5705C11.8893 12.7422 12.3825 11.9567 12.8942 11.2265C13.8128 11.1468 14.7437 11.1038 15.6808 11.1038C16.6118 11.1038 17.5427 11.1468 18.4551 11.2204C18.9668 11.9506 19.4662 12.7299 19.9471 13.5521C20.4156 14.356 20.841 15.1721 21.2294 15.9943C20.841 16.8166 20.4156 17.6388 19.9532 18.4427ZM21.9446 17.645C22.2775 18.4672 22.5611 19.2895 22.7953 20.0872C21.9877 20.2835 21.1369 20.4492 20.2553 20.578C20.5574 20.1056 20.8595 19.6208 21.1431 19.1238C21.4267 18.6329 21.6918 18.1359 21.9446 17.645ZM15.6932 24.1922C15.1198 23.6032 14.5464 22.9466 13.9793 22.2287C14.5341 22.2532 15.1013 22.2716 15.6747 22.2716C16.2542 22.2716 16.8275 22.2594 17.3886 22.2287C16.8337 22.9466 16.2603 23.6032 15.6932 24.1922ZM11.1063 20.578C10.2309 20.4492 9.38627 20.2896 8.57864 20.0933C8.80675 19.3017 9.09034 18.4856 9.41093 17.6695C9.6637 18.1604 9.9288 18.6513 10.2186 19.1422C10.5083 19.6331 10.8042 20.1117 11.1063 20.578ZM15.6623 7.80869C16.2357 8.39777 16.809 9.05433 17.3762 9.77226C16.8214 9.74772 16.2542 9.72931 15.6808 9.72931C15.1013 9.72931 14.528 9.74158 13.9669 9.77226C14.5218 9.05433 15.0951 8.39777 15.6623 7.80869ZM11.1002 11.4229C10.7981 11.8954 10.496 12.3801 10.2124 12.8772C9.9288 13.3681 9.6637 13.8589 9.41093 14.3498C9.07801 13.5276 8.79442 12.7053 8.56015 11.9076C9.36777 11.7174 10.2186 11.5518 11.1002 11.4229ZM5.52076 19.1054C3.33832 18.1788 1.92651 16.9638 1.92651 16.0005C1.92651 15.0371 3.33832 13.816 5.52076 12.8956C6.05096 12.6685 6.63047 12.466 7.22849 12.2758C7.5799 13.4785 8.04228 14.7303 8.61563 16.0127C8.04844 17.2891 7.59223 18.5347 7.24698 19.7313C6.63664 19.541 6.05712 19.3324 5.52076 19.1054ZM8.83758 27.8739C7.99912 27.3953 7.63538 25.5729 7.91898 23.2289C7.98679 22.6521 8.09777 22.0446 8.2334 21.4248C9.44176 21.7194 10.7611 21.9464 12.1482 22.0937C12.9805 23.2289 13.8436 24.2597 14.7129 25.1618C12.7031 27.021 10.8166 28.0396 9.53423 28.0396C9.2568 28.0335 9.02253 27.9783 8.83758 27.8739ZM23.4612 23.1982C23.7509 25.5422 23.3933 27.3646 22.5611 27.8494C22.3761 27.9598 22.1357 28.0089 21.8521 28.0089C20.5759 28.0089 18.6832 26.9965 16.6734 25.1495C17.5365 24.2475 18.3996 23.2227 19.2196 22.0875C20.6129 21.9403 21.9322 21.7132 23.1406 21.4126C23.2824 22.0323 23.3934 22.6275 23.4612 23.1982ZM25.8347 19.1054C25.3045 19.3324 24.725 19.5349 24.127 19.7251C23.7756 18.5224 23.3132 17.2707 22.7399 15.9882C23.307 14.7119 23.7633 13.4662 24.1085 12.2697C24.7188 12.4599 25.2984 12.6685 25.8409 12.8956C28.0233 13.8221 29.4351 15.0371 29.4351 16.0005C29.429 16.9638 28.0172 18.1849 25.8347 19.1054Z" fill="#61DAFB"/>
<path d="M15.6736 18.8014C17.2297 18.8014 18.4911 17.5459 18.4911 15.9972C18.4911 14.4485 17.2297 13.193 15.6736 13.193C14.1176 13.193 12.8562 14.4485 12.8562 15.9972C12.8562 17.5459 14.1176 18.8014 15.6736 18.8014Z" fill="#61DAFB"/>
</svg>
