<?xml version="1.0" standalone="no"?>
<!DOCTYPE svg PUBLIC "-//W3C//DTD SVG 20010904//EN"
 "http://www.w3.org/TR/2001/REC-SVG-20010904/DTD/svg10.dtd">
<svg version="1.0" xmlns="http://www.w3.org/2000/svg"
 width="1200.000000pt" height="1200.000000pt" viewBox="0 0 1200.000000 1200.000000"
 preserveAspectRatio="xMidYMid meet">

<g transform="translate(0.000000,1200.000000) scale(0.100000,-0.100000)"
fill="#000000" stroke="none">
<path d="M5705 11994 c-27 -2 -115 -8 -195 -14 -1095 -81 -2188 -493 -3095
-1167 -434 -322 -906 -794 -1228 -1228 -609 -819 -997 -1770 -1131 -2767 -42
-308 -51 -454 -51 -818 0 -364 9 -510 51 -818 150 -1117 610 -2154 1349 -3042
165 -199 536 -570 735 -735 888 -739 1925 -1199 3042 -1349 308 -42 454 -51
818 -51 364 0 510 9 818 51 1117 150 2154 610 3042 1349 199 165 570 536 735
735 739 888 1199 1925 1349 3042 42 308 51 454 51 818 0 364 -9 510 -51 818
-150 1117 -610 2154 -1349 3042 -165 199 -536 570 -735 735 -970 808 -2093
1271 -3355 1385 -119 11 -705 21 -800 14z m570 -134 c1669 -86 3174 -837 4239
-2115 1195 -1434 1631 -3357 1175 -5178 -522 -2084 -2172 -3734 -4256 -4256
-945 -237 -1921 -237 -2866 0 -1134 284 -2169 913 -2952 1794 -1216 1368
-1722 3215 -1374 5015 390 2013 1815 3683 3749 4392 724 265 1526 387 2285
348z"/>
<path d="M5760 11010 c-1115 -57 -2128 -454 -2995 -1174 -154 -129 -472 -447
-601 -601 -470 -566 -798 -1185 -994 -1876 -246 -869 -246 -1849 0 -2718 196
-691 524 -1310 994 -1876 129 -154 447 -472 601 -601 685 -569 1480 -944 2325
-1098 498 -90 1043 -104 1560 -40 890 111 1769 485 2485 1057 939 751 1586
1833 1799 3007 90 498 104 1043 40 1560 -116 934 -511 1830 -1138 2585 -127
152 -446 472 -596 596 -830 690 -1796 1087 -2840 1168 -192 15 -468 20 -640
11z m616 -120 c955 -76 1868 -426 2613 -1003 630 -488 1149 -1138 1466 -1837
294 -647 445 -1326 445 -2001 l0 -199 -39 0 c-60 0 -199 -27 -280 -54 -40 -14
-133 -57 -205 -95 -216 -114 -353 -151 -559 -151 -195 0 -326 35 -532 141
-237 121 -359 153 -590 153 -234 0 -349 -30 -605 -160 -194 -99 -287 -124
-481 -131 -223 -8 -348 22 -574 138 -237 121 -359 153 -590 153 -227 0 -355
-32 -577 -146 -64 -33 -121 -57 -126 -54 -6 4 -59 74 -117 157 l-107 150 59
62 c104 109 172 231 209 372 25 99 23 284 -4 387 -61 228 -216 417 -427 523
-134 67 -193 80 -370 80 -129 0 -160 -3 -225 -23 -284 -90 -488 -299 -566
-582 -25 -91 -25 -319 0 -410 22 -82 90 -229 108 -234 7 -1 54 -13 103 -24 64
-16 141 -47 270 -110 99 -49 194 -94 210 -100 62 -23 158 -43 235 -49 44 -3
84 -11 89 -17 17 -21 141 -257 141 -268 0 -18 -185 -1 -291 26 -109 28 -170
54 -293 124 -193 111 -344 146 -605 140 -236 -6 -300 -23 -526 -139 -260 -133
-400 -168 -620 -156 -186 11 -320 52 -499 155 -194 111 -346 146 -606 139
-239 -6 -348 -37 -555 -156 -84 -48 -161 -82 -218 -96 -23 -6 -24 -4 -30 71
-11 119 -8 566 3 710 76 955 426 1868 1003 2613 258 332 566 640 898 898 737
570 1639 919 2589 1002 139 12 627 13 776 1z m-1287 -3855 c243 -58 414 -307
372 -543 -19 -105 -60 -184 -139 -261 -97 -96 -201 -141 -327 -141 -291 0
-521 283 -462 566 40 188 173 329 357 378 71 19 120 19 199 1z m-2854 -1329
c92 -28 160 -59 296 -134 168 -93 311 -127 539 -127 224 0 346 28 520 119 184
96 226 115 315 143 86 26 100 27 290 27 190 0 204 -1 290 -27 92 -29 161 -60
296 -135 168 -93 311 -127 539 -127 239 0 342 26 570 143 229 118 354 152 555
152 198 0 323 -34 550 -148 228 -114 352 -146 575 -146 226 0 345 30 575 146
226 114 352 148 549 148 203 0 318 -31 561 -151 88 -43 200 -90 248 -104 301
-85 644 -41 916 118 127 75 273 123 404 134 l79 6 -6 -44 c-3 -24 -8 -84 -11
-134 -10 -142 -1 -131 -113 -138 -140 -9 -250 -44 -447 -142 -94 -47 -208 -95
-255 -109 -170 -48 -333 -55 -505 -20 -112 23 -160 41 -340 130 -193 95 -301
128 -468 144 -235 23 -430 -19 -682 -145 -261 -130 -439 -170 -652 -146 -153
17 -258 52 -448 146 -256 128 -445 168 -682 145 -172 -16 -275 -48 -478 -150
-245 -122 -322 -143 -540 -143 -220 0 -295 20 -550 148 -211 105 -285 129
-461 146 -83 9 -142 9 -226 1 -177 -17 -251 -41 -463 -147 -255 -128 -330
-148 -550 -148 -220 0 -295 20 -550 148 -123 61 -218 102 -270 115 -126 32
-286 44 -418 32 -175 -17 -251 -41 -444 -139 -95 -48 -175 -84 -179 -81 -6 7
-30 153 -35 222 l-4 40 95 36 c52 20 140 61 195 92 196 110 314 139 555 134
156 -3 185 -6 265 -30z m-135 -392 c117 -22 208 -57 343 -131 218 -121 374
-159 627 -150 226 8 358 46 562 164 95 55 236 106 338 122 95 16 286 13 380
-5 117 -22 208 -57 343 -131 200 -111 359 -153 582 -153 222 0 350 33 575 148
225 116 356 152 550 152 194 0 314 -33 570 -158 234 -115 387 -150 610 -139
200 10 312 42 530 152 215 108 352 145 541 145 188 0 331 -38 541 -145 210
-107 329 -142 523 -152 237 -12 456 41 654 156 134 79 332 141 449 141 l43 0
-6 -32 c-10 -62 -54 -303 -61 -335 -6 -30 -9 -32 -68 -38 -112 -13 -228 -54
-401 -140 -94 -47 -208 -95 -255 -109 -170 -48 -333 -55 -505 -20 -112 23
-160 41 -340 130 -193 95 -301 128 -468 144 -235 23 -430 -19 -682 -145 -260
-129 -436 -169 -652 -145 -152 16 -257 50 -448 145 -256 128 -445 168 -682
145 -172 -16 -275 -48 -478 -150 -245 -122 -322 -143 -540 -143 -220 0 -295
20 -550 148 -123 61 -218 102 -270 115 -126 32 -286 44 -417 32 -177 -17 -251
-41 -463 -147 -255 -128 -330 -148 -550 -148 -220 0 -294 20 -550 148 -212
106 -286 130 -463 147 -244 23 -468 -23 -677 -140 -33 -18 -64 -34 -69 -35 -5
-1 -15 21 -22 48 -19 70 -65 287 -62 290 2 2 28 14 58 28 30 13 94 47 142 74
91 52 238 107 330 122 89 15 299 12 388 -5z m0 -500 c114 -21 226 -64 340
-129 117 -67 194 -99 308 -128 76 -19 113 -22 282 -21 179 0 203 3 294 27 55
15 142 49 200 78 55 29 135 69 176 90 130 66 233 90 405 96 231 8 391 -30 577
-137 193 -112 324 -149 548 -157 268 -9 392 23 680 176 248 133 563 158 825
67 39 -13 144 -60 235 -104 234 -115 387 -150 610 -139 199 10 312 42 525 149
222 112 354 148 545 148 193 0 322 -35 562 -154 216 -107 368 -146 566 -146
214 1 401 52 602 165 102 58 243 110 329 121 49 6 53 5 48 -12 -3 -10 -13 -48
-22 -84 -9 -36 -34 -120 -56 -186 l-39 -122 -87 -27 c-48 -15 -157 -62 -242
-106 -278 -141 -486 -175 -746 -123 -112 23 -160 41 -340 130 -258 127 -449
167 -683 144 -171 -17 -276 -50 -467 -145 -260 -129 -436 -168 -652 -145 -152
16 -257 50 -448 145 -257 128 -449 169 -682 146 -173 -18 -275 -50 -478 -151
-245 -122 -322 -143 -540 -143 -220 0 -295 20 -550 148 -123 61 -218 102 -270
115 -126 32 -286 44 -417 32 -177 -17 -251 -41 -463 -147 -256 -128 -330 -148
-550 -148 -220 0 -294 20 -550 148 -212 106 -286 130 -463 147 -188 18 -408
-13 -553 -78 -35 -16 -63 -23 -68 -18 -9 10 -101 282 -101 299 0 6 39 32 86
59 92 53 245 110 334 125 92 15 300 12 390 -5z m0 -500 c114 -21 226 -64 340
-129 194 -111 313 -144 540 -152 233 -8 382 23 560 116 291 152 351 171 560
178 88 3 174 1 219 -6 110 -17 250 -67 349 -124 203 -117 335 -156 562 -164
267 -9 391 23 680 176 248 133 561 158 825 68 39 -14 144 -61 235 -105 234
-115 387 -150 610 -139 199 10 312 42 525 149 222 112 354 148 545 148 193 0
322 -35 562 -154 84 -42 192 -87 239 -100 316 -89 639 -48 928 119 86 50 211
100 211 85 0 -29 -172 -423 -197 -452 -25 -28 -234 -127 -325 -152 -168 -48
-323 -54 -501 -20 -113 22 -172 45 -352 134 -246 123 -441 163 -673 140 -171
-17 -276 -50 -467 -145 -190 -94 -295 -128 -445 -145 -107 -12 -200 -7 -315
16 -113 23 -161 41 -340 130 -258 127 -450 168 -682 145 -173 -18 -275 -50
-478 -151 -245 -122 -322 -143 -540 -143 -220 0 -295 20 -550 148 -122 61
-218 102 -270 116 -125 31 -295 44 -422 31 -173 -18 -248 -42 -458 -147 -256
-128 -330 -148 -550 -148 -230 0 -325 28 -595 173 -176 94 -302 123 -530 123
-117 0 -186 -5 -238 -16 -40 -10 -78 -17 -83 -17 -13 0 -149 297 -149 325 0
13 230 87 305 98 79 11 289 6 365 -9z m0 -500 c113 -21 225 -63 339 -128 199
-113 314 -145 541 -153 233 -8 382 23 560 116 291 152 351 171 560 178 88 3
174 1 219 -6 110 -17 250 -67 349 -124 114 -66 227 -113 332 -140 72 -18 114
-21 275 -21 162 0 203 3 275 21 105 27 210 70 309 127 159 91 308 135 487 143
218 10 357 -23 594 -142 240 -120 353 -149 580 -150 236 0 352 29 585 147 222
112 353 148 545 148 193 0 326 -37 564 -155 158 -78 271 -116 400 -134 202
-28 431 1 611 78 39 16 72 28 74 26 5 -6 -159 -277 -236 -390 -65 -95 -70
-100 -113 -108 -25 -5 -101 -9 -170 -10 -199 -1 -314 30 -555 149 -258 127
-443 167 -679 144 -171 -16 -277 -48 -471 -145 -190 -94 -295 -128 -445 -145
-107 -12 -200 -7 -315 16 -113 23 -161 41 -340 130 -258 127 -450 168 -682
145 -173 -18 -275 -50 -478 -151 -245 -122 -322 -143 -540 -143 -220 0 -294
20 -550 148 -124 62 -218 102 -270 115 -177 45 -389 49 -565 10 -104 -22 -172
-48 -270 -100 -154 -83 -244 -122 -338 -147 -85 -23 -117 -26 -257 -26 -230 0
-325 28 -595 173 -154 82 -285 116 -486 126 l-130 7 -18 31 c-46 78 -166 294
-171 308 -6 16 -1 18 120 42 55 11 280 5 355 -10z m85 -519 c50 -14 124 -43
165 -64 41 -21 121 -61 176 -90 58 -29 145 -63 200 -78 91 -25 115 -27 294
-27 167 0 207 3 280 21 105 27 218 74 332 140 95 55 236 106 338 122 84 14
276 14 360 0 102 -16 243 -67 338 -122 113 -65 217 -109 328 -138 78 -21 111
-24 279 -24 161 1 203 4 275 22 105 27 210 70 309 127 159 91 308 135 487 143
216 10 359 -23 587 -138 250 -126 350 -153 582 -153 241 -1 355 27 590 146
222 112 353 148 545 148 193 0 326 -37 564 -155 222 -110 385 -150 589 -143
54 2 97 1 97 -1 0 -13 -188 -239 -273 -327 -48 -51 -49 -51 -89 -42 -85 19
-168 52 -323 129 -247 122 -443 163 -672 140 -170 -17 -276 -50 -468 -146
-298 -148 -489 -181 -758 -129 -113 22 -172 45 -352 134 -246 123 -443 164
-672 141 -173 -18 -275 -50 -478 -151 -245 -122 -322 -143 -540 -143 -220 0
-294 20 -550 148 -204 102 -281 128 -445 146 -166 19 -388 -6 -530 -60 -30
-12 -89 -39 -130 -61 -154 -83 -244 -122 -338 -147 -85 -23 -117 -26 -257 -26
-233 0 -318 25 -605 178 -47 24 -116 55 -154 67 -66 22 -73 27 -133 103 -58
74 -185 250 -229 319 l-18 29 104 -6 c67 -4 137 -15 195 -32z m2145 -476 c102
-16 243 -67 338 -122 113 -65 217 -109 328 -138 78 -21 112 -24 279 -24 166 0
201 3 278 23 110 29 209 70 306 126 159 91 308 135 487 143 216 10 359 -23
587 -138 250 -126 350 -153 582 -153 241 -1 352 26 589 146 224 113 355 148
546 148 193 0 329 -37 560 -153 80 -41 175 -82 213 -93 37 -10 67 -22 67 -26
0 -7 -228 -223 -260 -245 -20 -14 -28 -12 -101 21 -174 80 -394 116 -586 97
-169 -17 -276 -50 -468 -145 -246 -122 -342 -148 -545 -149 -207 -1 -313 28
-565 153 -246 123 -443 164 -672 141 -173 -18 -275 -50 -478 -151 -245 -122
-322 -143 -540 -143 -220 0 -294 20 -550 148 -204 102 -281 128 -445 146 -166
19 -388 -6 -530 -60 -30 -12 -89 -39 -130 -61 -232 -125 -353 -165 -533 -175
l-102 -6 -85 71 c-165 139 -324 286 -436 404 -63 66 -112 122 -109 124 2 2 43
-19 92 -46 106 -61 211 -103 318 -128 120 -28 417 -26 535 3 105 27 218 74
332 140 91 52 237 106 330 122 76 12 291 13 368 0z m0 -500 c102 -16 243 -67
338 -122 113 -65 217 -109 328 -138 78 -21 112 -24 279 -24 166 0 201 3 278
23 110 29 209 70 306 126 159 91 308 135 487 143 220 10 354 -22 609 -148 224
-110 374 -149 573 -149 201 1 334 35 572 150 201 97 273 122 400 141 109 16
302 6 400 -19 91 -24 221 -74 218 -83 -4 -11 -149 -123 -271 -211 -103 -74
-110 -77 -150 -72 -63 9 -250 -13 -357 -41 -63 -17 -152 -53 -265 -109 -246
-122 -342 -148 -545 -149 -207 -1 -313 28 -565 153 -246 123 -443 164 -672
141 -173 -18 -275 -50 -478 -151 -242 -121 -322 -142 -535 -143 -220 -1 -342
31 -540 141 -184 103 -325 145 -520 158 -227 14 -458 -39 -640 -146 l-48 -28
-82 49 c-46 28 -137 86 -203 131 -125 85 -131 95 -51 97 95 2 287 72 436 158
91 52 237 106 330 122 76 12 291 13 368 0z m0 -500 c102 -16 243 -67 338 -122
113 -65 217 -109 328 -138 78 -21 112 -24 279 -24 166 0 201 3 278 23 110 29
209 70 306 126 159 91 308 135 487 143 220 10 354 -22 609 -148 224 -110 374
-149 573 -149 201 1 334 35 572 150 102 49 217 98 255 109 74 22 205 45 212
38 5 -5 -157 -100 -297 -175 -280 -149 -684 -306 -1015 -392 l-150 -40 -150
75 c-235 117 -436 158 -662 136 -173 -18 -275 -50 -478 -151 -194 -97 -327
-140 -434 -140 -62 0 -282 36 -461 76 -85 19 -135 37 -190 68 -162 90 -277
128 -449 147 -73 8 -115 20 -195 54 -151 64 -289 130 -374 177 l-75 41 46 24
c63 31 211 81 278 92 77 12 292 13 369 0z m2321 -517 c93 -25 226 -77 258
-101 23 -17 22 -18 -110 -39 -275 -45 -378 -53 -739 -59 -195 -3 -353 -3 -350
0 6 6 169 93 240 127 73 36 175 69 263 86 104 20 339 12 438 -14z"/>
<path d="M2495 7345 l-25 -24 0 -655 0 -655 73 -41 c258 -143 538 -176 810
-93 l87 26 0 112 c0 167 26 155 -335 155 l-295 0 0 580 0 579 -22 21 c-19 18
-35 20 -145 20 -118 0 -125 -1 -148 -25z"/>
<path d="M3639 7341 l-29 -29 0 -647 c0 -612 1 -647 18 -640 62 27 216 76 265
85 l57 11 0 590 c0 386 -4 597 -10 610 -20 36 -63 49 -170 49 -99 0 -102 -1
-131 -29z"/>
<path d="M6020 7350 c-21 -21 -21 -28 -17 -558 3 -568 3 -568 51 -661 19 -36
10 -35 111 -15 44 9 133 16 198 17 l117 1 -44 46 c-25 25 -55 68 -68 95 -23
50 -23 52 -26 559 -2 346 -6 514 -14 523 -8 10 -48 13 -149 13 -127 0 -141 -2
-159 -20z"/>
<path d="M6990 7350 c-19 -19 -20 -33 -20 -513 0 -579 2 -567 -88 -657 -42
-42 -72 -62 -112 -75 l-55 -18 53 -18 c28 -10 119 -50 201 -88 82 -39 153 -71
159 -71 17 0 77 76 110 138 66 124 65 120 69 735 3 418 1 562 -8 573 -9 11
-43 14 -150 14 -126 0 -141 -2 -159 -20z"/>
<path d="M7662 7358 c-9 -9 -12 -193 -12 -765 l0 -753 30 0 c58 0 185 32 248
61 l62 30 0 700 c0 464 -3 707 -10 720 -10 17 -23 19 -158 19 -102 0 -152 -4
-160 -12z"/>
<path d="M8384 7351 c-23 -10 -44 -26 -47 -36 -4 -9 -7 -287 -7 -616 0 -567 1
-600 18 -595 43 13 154 26 224 26 42 0 83 3 92 6 14 5 16 57 16 475 l0 469
139 0 c164 0 235 -17 329 -80 197 -132 266 -414 155 -634 -31 -61 -113 -150
-171 -183 -54 -32 -152 -63 -200 -63 -29 -1 -12 -9 83 -41 66 -22 170 -65 232
-95 l111 -56 44 30 c63 44 167 158 211 233 21 35 50 100 64 144 25 73 27 93
27 240 0 147 -2 166 -27 240 -100 297 -343 503 -641 544 -43 6 -197 11 -344
11 -239 0 -271 -2 -308 -19z"/>
</g>
</svg>
