<?xml version="1.0" standalone="no"?>
<!DOCTYPE svg PUBLIC "-//W3C//DTD SVG 20010904//EN"
 "http://www.w3.org/TR/2001/REC-SVG-20010904/DTD/svg10.dtd">
<svg version="1.0" xmlns="http://www.w3.org/2000/svg"
 width="504.000000pt" height="511.000000pt" viewBox="0 0 504.000000 511.000000"
 preserveAspectRatio="xMidYMid meet">

<g transform="translate(0.000000,511.000000) scale(0.100000,-0.100000)"
fill="#000000" stroke="none">
<path d="M2395 4745 c-5 -2 -62 -8 -125 -14 -63 -5 -138 -15 -165 -21 -154
-36 -189 -46 -285 -77 -431 -143 -825 -452 -1082 -848 -330 -509 -425 -1167
-252 -1752 169 -571 560 -1035 1089 -1293 188 -92 354 -144 610 -192 78 -14
528 -19 532 -5 2 5 -79 8 -180 8 -353 -3 -635 57 -925 194 -197 94 -336 185
-487 319 -417 371 -654 850 -697 1404 -26 344 34 712 167 1007 166 372 431
689 755 903 78 51 295 167 380 201 390 160 911 192 1305 79 39 -11 87 -24 108
-29 21 -5 45 -13 55 -18 9 -5 37 -17 62 -27 291 -113 496 -248 720 -473 315
-315 501 -672 582 -1114 19 -104 22 -158 23 -362 0 -157 -5 -266 -13 -315 -86
-482 -274 -846 -607 -1175 -72 -71 -157 -148 -188 -170 -55 -39 -69 -55 -46
-55 18 0 187 142 270 227 310 317 504 695 585 1138 22 120 30 451 15 586 -44
383 -187 740 -424 1054 -84 111 -282 307 -402 396 -178 134 -376 240 -570 307
-91 31 -113 38 -262 72 -141 33 -501 62 -548 45z"/>
<path d="M2355 4499 c-746 -65 -1387 -576 -1620 -1293 -166 -510 -103 -1069
173 -1531 195 -327 514 -605 865 -754 150 -64 254 -94 462 -133 94 -18 479
-18 496 -1 7 7 11 14 8 16 -2 2 -59 0 -125 -6 -67 -6 -129 -7 -139 -3 -18 6
-18 7 1 20 50 34 189 46 247 21 12 -5 17 -3 17 8 0 21 -51 30 -142 25 -56 -3
-89 -12 -142 -37 -66 -32 -72 -33 -150 -27 -104 9 -313 57 -416 97 -30 11 -63
23 -73 26 -29 9 -14 26 34 41 72 22 151 10 252 -37 82 -38 93 -41 177 -41 85
0 94 2 177 42 77 37 97 42 158 43 39 0 82 -3 98 -8 20 -5 27 -4 27 7 0 18 -92
30 -166 20 -33 -4 -85 -21 -127 -43 -68 -34 -78 -36 -167 -36 -89 0 -100 2
-171 37 -112 54 -220 60 -325 17 -27 -10 -38 -10 -77 7 -42 17 -64 44 -37 44
5 0 50 18 99 40 78 35 97 40 165 40 65 0 86 -5 149 -34 152 -72 232 -73 376
-6 87 40 94 41 174 38 45 -2 90 -7 100 -12 12 -6 17 -4 17 7 0 20 -52 31 -140
31 -53 0 -80 -7 -146 -37 -154 -70 -227 -71 -359 -5 -109 55 -225 55 -345 0
-94 -43 -145 -55 -172 -41 -85 44 -265 180 -208 156 8 -3 44 -18 79 -33 57
-23 75 -26 145 -22 69 4 93 10 161 43 74 36 87 39 165 40 80 0 92 -3 170 -40
81 -38 90 -40 180 -40 90 0 99 2 175 39 72 36 88 40 160 40 44 1 96 -3 115 -8
34 -8 34 -7 17 10 -15 16 -34 19 -120 19 -99 0 -105 -1 -182 -39 -74 -37 -87
-40 -165 -40 -80 -1 -90 2 -165 39 -77 39 -83 40 -180 40 -96 0 -103 -2 -180
-39 -74 -36 -87 -40 -165 -40 -79 -1 -91 2 -176 42 -50 23 -97 42 -105 42 -23
0 -113 90 -101 102 18 18 116 -1 191 -37 136 -65 225 -66 361 -5 139 63 212
63 347 -1 125 -60 220 -58 353 5 104 49 199 56 283 21 10 -4 17 -3 17 4 0 25
-72 43 -149 39 -63 -3 -91 -11 -161 -43 -78 -37 -92 -40 -171 -40 -79 0 -91 3
-170 40 -79 37 -90 40 -174 40 -84 0 -95 -3 -170 -39 -67 -33 -93 -40 -161
-44 -79 -4 -84 -3 -175 38 -81 37 -106 44 -179 48 -74 4 -89 7 -113 30 -15 14
-27 31 -27 38 0 21 72 37 151 32 61 -3 88 -11 154 -43 75 -37 85 -39 170 -39
84 0 96 3 181 42 82 38 99 42 168 42 70 0 85 -4 164 -42 82 -39 93 -42 177
-42 86 -1 95 1 184 42 91 42 97 43 175 39 45 -2 93 -8 109 -12 39 -11 35 11
-5 24 -100 30 -185 21 -303 -34 -69 -32 -90 -38 -155 -38 -68 -1 -84 3 -165
40 -145 66 -227 65 -372 -3 -68 -32 -88 -37 -153 -37 -68 -1 -84 3 -170 43
-90 42 -100 44 -180 43 -54 0 -98 -7 -122 -17 -37 -16 -37 -16 -57 13 -12 16
-21 34 -21 39 0 6 26 23 57 39 50 24 70 28 143 28 78 0 92 -3 169 -40 81 -38
90 -40 180 -40 92 0 100 2 176 40 67 33 92 40 157 43 74 4 80 2 179 -43 100
-46 104 -47 188 -43 76 3 95 7 166 42 67 33 92 41 156 44 54 3 86 -1 114 -12
42 -18 61 -12 31 9 -26 20 -96 29 -172 22 -47 -3 -85 -15 -142 -43 -71 -35
-84 -38 -162 -38 -79 -1 -90 2 -165 39 -77 38 -84 40 -180 40 -96 0 -103 -2
-185 -40 -77 -36 -93 -40 -165 -40 -73 0 -88 4 -164 40 -82 38 -89 40 -185 40
-91 0 -106 -3 -153 -27 -29 -16 -58 -28 -65 -28 -11 0 -58 61 -58 74 0 2 17
10 38 17 20 6 64 25 97 42 53 27 70 31 145 31 78 0 91 -3 160 -37 145 -72 225
-71 378 1 69 33 85 37 157 36 70 -1 89 -5 155 -36 153 -73 227 -73 376 -2 71
34 87 38 159 38 55 0 90 -5 113 -16 30 -16 33 -16 30 -1 -5 26 -75 45 -158 41
-63 -3 -89 -10 -160 -43 -79 -38 -90 -40 -175 -40 -78 0 -97 4 -142 28 -140
73 -236 76 -373 12 -79 -38 -90 -40 -175 -40 -78 1 -97 4 -145 28 -151 77
-237 77 -395 2 -91 -43 -100 -42 -129 4 -14 22 -26 45 -26 50 0 5 27 14 59 19
32 6 90 26 127 44 64 31 76 33 169 33 95 -1 104 -3 173 -37 123 -61 229 -60
356 4 111 56 210 54 337 -7 124 -59 221 -56 364 12 97 45 189 48 288 8 31 -13
18 14 -15 32 -25 13 -56 17 -123 17 -85 0 -95 -2 -176 -42 -81 -39 -93 -42
-169 -42 -76 0 -89 3 -169 42 -81 39 -91 41 -176 42 -85 0 -95 -2 -178 -42
-80 -38 -94 -42 -167 -42 -73 0 -88 4 -172 42 -86 39 -100 42 -178 43 -80 0
-90 -3 -174 -43 -77 -37 -96 -43 -144 -40 -50 3 -57 6 -73 33 -33 56 -28 62
63 67 69 5 96 12 163 44 65 31 94 39 153 42 78 4 99 -1 197 -52 55 -28 68 -30
160 -31 97 0 102 1 180 40 75 37 86 40 165 40 78 0 92 -3 170 -40 81 -38 90
-40 180 -40 91 0 99 2 175 40 76 38 85 40 170 40 85 0 94 -2 170 -40 76 -38
84 -40 175 -40 90 0 99 2 180 40 78 37 92 40 170 40 79 0 91 -3 165 -40 76
-37 85 -39 176 -40 91 0 99 2 180 40 107 50 193 58 279 26 80 -31 83 -34 75
-70 -9 -43 -25 -47 -92 -26 -85 27 -167 16 -271 -34 -77 -38 -89 -41 -167 -41
-78 0 -90 3 -172 42 -82 40 -93 43 -173 43 -79 -1 -92 -4 -176 -43 -84 -39
-98 -42 -173 -42 -45 0 -92 5 -104 11 -22 11 -22 11 1 -12 20 -22 31 -24 105
-24 75 1 90 4 173 43 82 38 98 42 169 42 70 0 87 -4 164 -39 143 -66 229 -65
376 5 66 31 85 36 148 36 72 -1 153 -21 151 -38 0 -5 -7 -23 -14 -40 l-14 -32
-77 5 c-91 7 -148 -6 -229 -51 -50 -27 -63 -30 -150 -30 -92 -1 -100 1 -180
39 -80 37 -91 40 -175 40 -83 0 -96 -3 -168 -37 -42 -20 -93 -40 -112 -44 -19
-3 -35 -11 -35 -16 0 -19 83 2 160 39 67 33 84 37 155 37 72 1 88 -3 157 -36
150 -72 225 -72 374 -3 39 18 90 36 113 40 48 8 141 -3 141 -16 0 -5 -11 -27
-24 -48 -23 -36 -27 -38 -78 -40 -67 -2 -93 -10 -183 -52 -62 -30 -80 -34
-150 -34 -72 0 -88 4 -165 40 -82 38 -89 40 -185 40 -87 -1 -107 -4 -157 -28
-32 -15 -58 -31 -58 -37 0 -15 12 -13 86 21 61 28 76 31 143 27 58 -3 89 -10
131 -32 87 -44 130 -56 207 -56 64 0 84 5 165 42 95 42 188 61 188 38 0 -25
-63 -100 -84 -100 -12 0 -55 -16 -96 -36 -136 -65 -213 -66 -346 -4 -35 17
-88 35 -117 41 -79 15 -214 -8 -190 -32 8 -8 18 -7 33 1 15 8 52 11 109 8 74
-4 97 -10 166 -44 75 -37 85 -39 170 -38 83 0 96 3 168 38 112 55 113 46 3
-71 -60 -64 -95 -77 -195 -71 -62 4 -91 13 -156 44 -60 29 -95 39 -144 42 -80
6 -76 -13 6 -23 34 -4 95 -23 147 -47 75 -34 99 -41 157 -42 38 0 69 -4 69 -7
0 -17 -100 -89 -123 -89 -14 0 -58 16 -98 35 -72 34 -100 39 -63 10 10 -9 44
-27 74 -42 70 -33 69 -32 46 -49 -31 -22 -9 -30 27 -9 98 57 309 261 414 400
104 138 209 329 258 470 9 28 21 59 26 70 10 23 21 65 56 220 22 100 25 132
26 350 1 212 -2 252 -21 344 -24 110 -48 203 -62 236 -4 11 -18 49 -31 85 -51
146 -189 387 -297 519 -197 241 -465 442 -742 556 -267 109 -581 159 -855 134z
m445 -38 c19 -5 78 -20 130 -32 323 -75 612 -237 863 -487 314 -311 501 -698
547 -1133 13 -123 13 -249 0 -250 -41 -5 -78 5 -169 49 -68 33 -81 36 -162 35
-77 0 -95 -4 -156 -33 -83 -39 -148 -60 -188 -60 -41 0 -114 24 -191 61 -58
29 -75 32 -153 32 -74 0 -96 -4 -146 -27 -182 -85 -225 -85 -395 -4 -58 28
-74 31 -157 30 -83 0 -99 -3 -158 -32 l-65 -32 -20 24 c-10 12 -24 35 -31 50
-10 24 -8 31 14 57 82 98 70 256 -25 336 -108 91 -252 84 -342 -16 -23 -26
-48 -65 -54 -87 -15 -50 -14 -127 2 -172 11 -30 21 -38 72 -55 32 -12 78 -31
101 -43 23 -12 53 -22 67 -22 38 0 54 -9 77 -47 43 -69 -6 -67 -166 5 -74 34
-87 36 -168 35 -79 -1 -95 -5 -160 -36 -108 -52 -163 -63 -233 -48 -31 7 -91
29 -133 49 -69 32 -84 36 -162 36 -77 0 -93 -3 -152 -32 -76 -38 -150 -62
-190 -62 -40 0 -127 26 -179 54 l-43 23 2 124 c0 68 7 149 13 179 54 241 79
321 151 478 221 481 672 866 1176 1006 79 22 204 48 288 60 54 8 459 -3 495
-13z m-530 -1489 c39 -34 43 -43 48 -93 3 -39 -1 -65 -12 -87 -48 -94 -180
-105 -248 -21 -40 50 -46 97 -19 153 29 59 71 86 137 86 45 0 56 -4 94 -38z
m-880 -384 c36 -16 76 -34 89 -41 13 -7 62 -12 110 -11 80 0 93 4 175 42 80
39 96 43 167 43 72 1 86 -3 171 -43 87 -40 98 -43 178 -42 79 0 92 3 175 43
82 38 97 42 170 42 73 0 88 -4 170 -42 84 -40 96 -43 175 -43 79 0 92 3 180
43 86 39 102 43 171 43 68 -1 85 -5 165 -43 85 -41 93 -43 179 -42 85 0 95 3
176 42 80 38 93 41 169 41 74 0 88 -3 165 -40 46 -22 93 -40 104 -40 11 0 30
-4 44 -9 21 -8 23 -13 18 -53 -6 -42 -7 -43 -41 -42 -19 0 -71 18 -115 40 -76
37 -85 39 -175 39 -90 0 -99 -2 -175 -40 -69 -33 -92 -39 -161 -43 -79 -4 -83
-3 -170 39 -86 42 -92 44 -184 44 -80 0 -103 -4 -145 -24 -115 -55 -137 -61
-207 -61 -62 0 -80 5 -157 42 -83 40 -89 42 -186 42 -98 0 -102 -1 -186 -42
-78 -37 -95 -42 -159 -42 -64 0 -82 5 -159 42 -83 40 -90 42 -186 42 -98 1
-102 0 -190 -43 -87 -42 -92 -43 -170 -39 -69 3 -91 10 -160 43 -76 38 -85 40
-175 40 -92 0 -98 -1 -184 -43 -86 -43 -91 -44 -170 -40 -66 3 -94 10 -148 37
l-68 32 0 50 c0 27 2 49 4 49 2 0 26 -11 53 -24 115 -58 220 -57 343 2 119 58
208 60 320 10z m15 -134 c77 -37 84 -39 181 -39 96 0 104 2 185 40 62 29 100
40 147 43 65 5 83 0 192 -52 60 -28 74 -30 170 -31 102 0 107 1 185 40 73 37
87 40 160 40 73 0 88 -4 164 -40 82 -38 89 -40 185 -40 98 0 104 1 181 40 73
36 87 40 160 40 73 0 88 -4 165 -40 82 -39 87 -40 190 -40 95 0 110 3 152 27
126 70 225 75 338 18 36 -19 88 -39 115 -45 l50 -12 -1 -42 c-1 -70 -18 -70
-166 -2 -58 26 -79 31 -147 31 -84 0 -95 -3 -201 -54 -56 -27 -76 -31 -146
-31 -73 0 -88 4 -165 40 -81 38 -88 40 -184 40 -96 0 -103 -1 -180 -40 -75
-37 -86 -39 -165 -39 -79 1 -91 4 -171 42 -81 39 -92 42 -174 42 -81 0 -91 -3
-173 -42 -81 -39 -93 -42 -172 -42 -79 -1 -90 2 -165 39 -77 39 -84 40 -180
40 -96 0 -103 -2 -184 -40 -78 -37 -92 -40 -165 -39 -73 0 -90 5 -176 43 -92
41 -98 43 -180 39 -73 -3 -97 -9 -170 -43 -76 -35 -93 -39 -166 -40 -70 0 -90
4 -143 29 -33 16 -63 37 -65 45 -10 34 -10 86 -1 86 6 -1 37 -13 69 -29 55
-26 66 -28 155 -24 81 4 105 9 151 32 93 49 121 56 195 53 57 -3 85 -11 150
-43z m5 -130 c72 -37 78 -38 175 -39 97 0 103 2 180 40 76 38 85 40 170 40 84
-1 95 -3 170 -40 76 -38 84 -40 175 -40 91 0 99 2 175 40 75 38 85 40 170 40
85 0 95 -2 170 -40 77 -38 84 -40 175 -40 90 0 99 2 175 40 75 37 86 39 170
40 85 0 94 -2 170 -40 76 -37 85 -39 175 -40 90 0 99 2 180 40 78 36 92 40
170 40 78 0 92 -3 164 -37 43 -21 89 -38 102 -38 14 0 27 -7 31 -16 6 -16 -13
-94 -24 -94 -3 0 -47 19 -97 42 -85 40 -97 43 -176 43 -79 0 -91 -3 -178 -44
-94 -43 -94 -43 -185 -38 -77 4 -102 10 -152 36 -126 65 -229 64 -368 -4 -75
-37 -79 -37 -169 -33 -80 4 -101 9 -153 36 -122 64 -229 65 -358 3 -84 -39
-96 -42 -178 -42 -60 0 -82 6 -157 40 -50 23 -111 43 -142 47 -67 8 -154 -12
-226 -52 -40 -22 -65 -28 -141 -32 -91 -4 -92 -4 -185 39 -87 41 -99 44 -178
44 -79 0 -91 -3 -176 -43 -83 -38 -98 -42 -170 -42 -62 0 -90 5 -130 24 -28
13 -54 31 -57 41 -8 20 -9 85 -2 85 3 0 25 -10 48 -22 35 -18 59 -22 142 -22
91 -1 105 2 155 28 94 49 120 56 205 53 70 -3 89 -8 155 -43z m1 -125 c104
-47 190 -60 255 -39 21 7 74 28 118 47 75 34 83 35 165 31 73 -4 97 -11 163
-42 127 -62 219 -60 353 7 49 25 76 31 147 35 84 4 88 3 178 -38 144 -66 228
-66 365 3 49 25 76 31 147 35 84 4 88 3 178 -38 144 -66 236 -66 365 3 56 30
67 32 160 32 95 0 104 -2 178 -37 42 -21 82 -38 87 -38 6 0 10 -9 10 -20 0
-26 -21 -70 -33 -70 -6 0 -40 15 -76 33 -60 29 -74 32 -161 32 -91 0 -99 -2
-175 -40 -75 -37 -85 -40 -170 -40 -84 0 -95 2 -175 40 -79 37 -90 40 -175 40
-84 0 -95 -3 -175 -40 -79 -38 -90 -40 -175 -40 -85 0 -94 2 -165 40 -72 38
-79 39 -170 40 -92 0 -100 -2 -180 -40 -79 -37 -91 -40 -171 -40 -79 0 -91 3
-170 40 -79 38 -90 40 -175 40 -84 0 -95 -2 -175 -40 -79 -37 -90 -40 -174
-40 -85 0 -94 2 -170 40 -77 38 -84 40 -175 40 -90 0 -100 -3 -175 -39 -92
-45 -172 -56 -255 -36 -45 11 -54 17 -66 46 -8 18 -14 45 -14 58 l0 25 57 -20
c96 -33 181 -23 298 34 73 35 73 35 156 36 69 1 86 -3 170 -40z m-3 -127 c68
-33 87 -37 169 -40 91 -4 94 -3 185 39 83 39 101 43 169 44 67 0 84 -4 160
-40 74 -35 94 -40 172 -43 92 -4 103 -2 217 52 56 26 77 30 145 30 72 0 89 -5
174 -43 84 -37 103 -42 170 -42 79 -1 117 10 211 57 46 23 68 28 135 28 73 0
88 -4 173 -42 86 -39 99 -42 177 -42 78 0 92 3 177 42 83 37 101 42 169 42 78
1 123 -13 203 -62 28 -17 35 -27 27 -35 -6 -6 -11 -19 -11 -28 0 -31 -20 -32
-82 -4 -54 24 -69 26 -151 23 -83 -4 -100 -8 -172 -43 -73 -37 -87 -40 -160
-40 -73 0 -88 4 -175 43 -93 43 -95 44 -185 40 -81 -4 -98 -8 -170 -43 -73
-37 -87 -40 -161 -40 -73 0 -88 4 -165 40 -81 38 -88 40 -185 40 -96 0 -103
-2 -185 -40 -77 -36 -91 -40 -164 -40 -72 1 -88 4 -160 40 -72 35 -89 39 -172
43 -92 4 -92 4 -195 -43 -98 -45 -106 -47 -173 -43 -56 4 -90 14 -164 47 -91
42 -93 43 -184 39 -82 -4 -100 -8 -172 -43 -81 -40 -164 -55 -219 -41 -24 6
-66 71 -66 101 0 7 33 9 103 7 102 -4 105 -4 183 33 99 47 133 55 212 49 45
-3 84 -15 140 -42z"/>
<path d="M1448 3102 l-38 -3 0 -204 0 -205 48 -21 c50 -23 151 -31 205 -16 25
7 28 12 25 45 l-3 37 -90 5 -90 5 -3 175 c-1 96 -6 177 -10 180 -4 3 -24 4
-44 2z"/>
<path d="M1759 3088 c-9 -17 -13 -371 -4 -380 3 -3 26 2 50 10 l45 14 0 183 0
183 -41 4 c-31 3 -43 0 -50 -14z"/>
<path d="M2500 3102 c-14 -5 -13 -337 1 -363 5 -11 14 -17 19 -14 4 3 27 6 49
7 46 1 46 1 29 31 -8 14 -15 83 -18 181 l-5 159 -33 1 c-17 1 -37 0 -42 -2z"/>
<path d="M2828 3102 l-37 -3 -3 -165 -3 -166 -31 -27 -30 -28 49 -21 c27 -12
53 -22 58 -22 5 0 18 18 29 40 18 35 20 58 20 214 0 96 -3 176 -7 178 -5 2
-25 2 -45 0z"/>
<path d="M3000 3086 c-1 -12 -2 -114 -3 -228 l-2 -208 31 0 c64 0 65 2 62 239
l-3 213 -42 2 c-37 2 -43 0 -43 -18z"/>
<path d="M3214 3095 c-10 -8 -13 -51 -11 -185 l2 -175 45 0 45 0 3 143 3 142
57 0 c40 0 67 -6 90 -20 34 -21 71 -87 72 -128 0 -57 -62 -142 -105 -142 -15
-1 -11 -5 15 -18 89 -44 86 -43 119 -12 48 46 64 86 64 165 1 53 -4 80 -20
111 -24 44 -71 89 -112 107 -36 15 -251 25 -267 12z"/>
<path d="M2816 1591 c-9 -272 -17 -461 -21 -501 -2 -19 -6 -138 -9 -265 -9
-321 -17 -497 -22 -517 -7 -22 14 -23 52 -3 16 8 37 15 46 15 9 0 19 4 22 9 3
5 18 12 33 16 16 3 44 13 63 22 40 17 51 22 135 52 33 13 71 28 85 35 14 7 51
21 82 31 31 10 54 23 51 28 -3 6 -1 7 4 4 16 -10 74 13 66 26 -3 5 -1 7 5 3 9
-5 170 49 247 83 63 28 126 51 139 51 9 0 16 4 16 9 0 5 13 11 29 14 28 6 28
6 -62 96 -49 50 -94 88 -100 84 -6 -3 -7 -1 -3 5 9 14 -204 233 -218 225 -5
-3 -6 -2 -3 4 8 12 -56 76 -66 67 -4 -4 -7 0 -7 8 0 23 -68 90 -82 82 -6 -4
-8 -3 -5 3 4 6 -2 22 -13 34 -17 21 -21 22 -30 9 -8 -12 -10 -11 -8 6 2 16
-51 77 -208 236 l-212 216 -6 -187z m232 -76 c-3 -3 -9 2 -12 12 -6 14 -5 15
5 6 7 -7 10 -15 7 -18z m52 -29 c0 -3 -4 -8 -10 -11 -5 -3 -10 -1 -10 4 0 6 5
11 10 11 6 0 10 -2 10 -4z m20 -26 c0 -5 -5 -10 -11 -10 -5 0 -7 5 -4 10 3 6
8 10 11 10 2 0 4 -4 4 -10z m105 -110 c3 -5 1 -10 -4 -10 -6 0 -11 5 -11 10 0
6 2 10 4 10 3 0 8 -4 11 -10z m123 -145 c-3 -3 -9 2 -12 12 -6 14 -5 15 5 6 7
-7 10 -15 7 -18z m286 -281 c5 -14 4 -15 -9 -4 -17 14 -19 20 -6 20 5 0 12 -7
15 -16z m-837 -186 c-3 -8 -6 -5 -6 6 -1 11 2 17 5 13 3 -3 4 -12 1 -19z
m1043 -18 c0 -5 -2 -10 -4 -10 -3 0 -8 5 -11 10 -3 6 -1 10 4 10 6 0 11 -4 11
-10z"/>
</g>
</svg>
