<?xml version="1.0" standalone="no"?>
<!DOCTYPE svg PUBLIC "-//W3C//DTD SVG 20010904//EN"
 "http://www.w3.org/TR/2001/REC-SVG-20010904/DTD/svg10.dtd">
<svg version="1.0" xmlns="http://www.w3.org/2000/svg"
 width="700.000000pt" height="700.000000pt" viewBox="0 0 700.000000 700.000000"
 preserveAspectRatio="xMidYMid meet">
<metadata>
Created by potrace 1.14, written by Peter Selinger 2001-2017
</metadata>
<g transform="translate(0.000000,700.000000) scale(0.100000,-0.100000)"
fill="#000000" stroke="none">
<path d="M3345 6621 c-36 -16 -104 -84 -216 -216 -19 -22 -36 -42 -39 -45 -3
-3 -40 -48 -81 -100 -191 -240 -409 -564 -556 -830 -11 -19 -34 -61 -52 -93
-39 -71 -191 -374 -221 -442 -12 -27 -36 -79 -52 -115 -130 -284 -376 -972
-434 -1215 -1 -5 -18 -68 -38 -140 -74 -274 -186 -777 -221 -995 -3 -19 -10
-57 -15 -85 -5 -27 -12 -68 -15 -90 -3 -22 -10 -65 -15 -95 -5 -30 -12 -77
-16 -105 -3 -27 -8 -59 -10 -70 -2 -11 -6 -41 -9 -66 -3 -25 -7 -54 -9 -65 -2
-10 -7 -46 -11 -79 -3 -33 -8 -73 -10 -90 -2 -16 -7 -59 -10 -95 -4 -36 -9
-73 -11 -83 -2 -10 -6 -53 -9 -95 -4 -42 -8 -93 -10 -112 -2 -19 -7 -73 -10
-120 -4 -47 -8 -101 -10 -120 -2 -19 -7 -89 -10 -155 -4 -66 -9 -147 -11 -180
-2 -33 -7 -197 -10 -365 -6 -293 -5 -306 13 -329 31 -39 73 -31 193 34 58 31
166 88 240 127 236 123 343 179 415 218 39 20 124 65 190 100 66 34 156 82
200 105 44 23 134 70 200 105 66 34 156 82 200 105 80 42 170 90 400 210 147
76 157 76 298 2 56 -30 156 -82 222 -117 66 -34 156 -82 200 -105 44 -24 125
-66 180 -95 55 -29 141 -74 190 -100 50 -26 149 -78 220 -115 72 -37 153 -80
180 -95 28 -15 106 -57 175 -93 69 -35 166 -86 215 -112 202 -107 391 -201
400 -200 31 4 57 20 65 40 9 23 6 463 -5 650 -11 210 -29 473 -40 580 -2 28
-7 77 -10 110 -3 33 -8 76 -10 95 -9 71 -14 116 -20 175 -3 33 -8 71 -10 85
-2 14 -6 46 -9 71 -15 130 -97 652 -111 699 -2 8 -6 31 -9 50 -9 54 -68 345
-83 405 -2 11 -9 39 -14 63 -58 279 -239 896 -349 1192 -17 47 -36 98 -41 115
-5 16 -15 43 -23 60 -7 16 -28 68 -46 115 -77 204 -272 622 -390 835 -137 249
-358 604 -382 613 -4 2 -8 8 -8 13 0 6 -15 30 -32 54 -18 23 -42 56 -53 71
-37 51 -174 225 -238 301 -108 129 -191 211 -229 228 -50 20 -124 19 -173 -4z
m226 -2786 c122 -30 173 -53 259 -116 179 -130 283 -341 275 -559 -8 -212 -97
-389 -264 -518 -202 -157 -497 -182 -721 -60 -171 93 -293 249 -340 433 -53
213 17 472 169 623 85 86 103 99 201 148 113 57 300 79 421 49z"/>
<path d="M1368 4365 c-2 -1 -25 -5 -53 -9 -27 -3 -63 -8 -80 -11 -69 -12 -92
-15 -135 -20 -25 -3 -56 -8 -70 -10 -63 -10 -159 -25 -205 -30 -27 -3 -75 -10
-105 -15 -30 -5 -75 -12 -100 -15 -25 -3 -57 -8 -71 -10 -14 -3 -41 -7 -60 -9
-19 -3 -83 -12 -144 -21 -60 -9 -126 -18 -145 -21 -64 -8 -85 -15 -111 -37
-49 -40 -63 -90 -46 -158 4 -15 84 -101 195 -210 541 -529 775 -755 789 -760
24 -8 60 1 76 20 11 13 60 193 74 276 5 25 100 385 118 445 46 151 91 297 117
375 43 131 48 154 36 181 -11 24 -66 51 -80 39z"/>
<path d="M5453 4358 c-12 -6 -27 -23 -33 -37 -9 -24 -3 -53 49 -212 98 -302
182 -605 256 -929 15 -63 32 -121 38 -128 20 -25 56 -33 82 -19 13 6 160 145
327 308 167 163 374 365 461 450 88 85 168 166 178 181 12 17 20 45 21 73 1
83 -57 137 -162 150 -25 3 -54 7 -65 9 -21 4 -97 15 -155 22 -37 5 -81 11
-115 18 -11 2 -47 7 -80 11 -33 5 -67 9 -75 10 -8 2 -40 6 -70 9 -30 4 -57 9
-60 11 -3 2 -34 6 -70 10 -36 3 -72 8 -80 10 -8 2 -37 6 -64 10 -27 3 -52 8
-55 10 -3 1 -37 6 -76 10 -38 3 -72 8 -75 10 -3 1 -32 6 -65 9 -33 4 -67 9
-75 11 -8 2 -25 -1 -37 -7z"/>
</g>
</svg>
