<svg width="70" height="70" viewBox="0 0 70 70" fill="none" xmlns="http://www.w3.org/2000/svg">
<rect width="70" height="70" rx="12" fill="#6D3991"/>
<path fill-rule="evenodd" clip-rule="evenodd" d="M35.0867 17.0834H34.9134C33.415 17.0834 32.1667 17.0834 31.1767 17.2167C30.13 17.3567 29.185 17.6667 28.4267 18.425C27.6667 19.185 27.3567 20.13 27.2167 21.175C27.1217 21.8867 27.0934 23.585 27.0867 25.0417C23.7167 25.1534 21.6917 25.5467 20.2867 26.9534C18.3334 28.905 18.3334 32.0484 18.3334 38.3334C18.3334 44.6184 18.3334 47.7617 20.2867 49.7134C22.2384 51.6667 25.3817 51.6667 31.6667 51.6667H38.3334C44.6184 51.6667 47.7617 51.6667 49.7134 49.7134C51.6667 47.7617 51.6667 44.6184 51.6667 38.3334C51.6667 32.0484 51.6667 28.905 49.7134 26.9534C48.3084 25.5467 46.2834 25.1534 42.9134 25.0434C42.9067 23.585 42.88 21.8867 42.7834 21.1767C42.6434 20.13 42.3334 19.185 41.5734 18.4267C40.815 17.6667 39.87 17.3567 38.8234 17.2167C37.8334 17.0834 36.5834 17.0834 35.0867 17.0834ZM40.4134 25.0034C40.405 23.5917 40.3817 22.0734 40.3067 21.5084C40.2017 20.74 40.0234 20.41 39.8067 20.1934C39.59 19.9767 39.26 19.7984 38.49 19.6934C37.6867 19.5867 36.6067 19.5834 35 19.5834C33.3934 19.5834 32.3134 19.5867 31.5084 19.695C30.74 19.7984 30.41 19.9767 30.1934 20.195C29.9767 20.4117 29.7984 20.74 29.6934 21.5084C29.6184 22.075 29.5934 23.5917 29.5867 25.0034C30.2384 25 30.9334 25 31.6667 25H38.3334C39.0684 25 39.7617 25 40.4134 25.0034ZM35 30.4167C35.3316 30.4167 35.6495 30.5484 35.8839 30.7828C36.1183 31.0172 36.25 31.3352 36.25 31.6667V31.6834C38.065 32.14 39.5834 33.5717 39.5834 35.555C39.5834 35.8866 39.4517 36.2045 39.2173 36.4389C38.9828 36.6733 38.6649 36.805 38.3334 36.805C38.0019 36.805 37.6839 36.6733 37.4495 36.4389C37.2151 36.2045 37.0834 35.8866 37.0834 35.555C37.0834 34.915 36.3734 34.0284 35 34.0284C33.6267 34.0284 32.9167 34.915 32.9167 35.555C32.9167 36.195 33.6267 37.0834 35 37.0834C37.3084 37.0834 39.5834 38.6834 39.5834 41.1117C39.5834 43.095 38.065 44.525 36.25 44.9834V45C36.25 45.3316 36.1183 45.6495 35.8839 45.8839C35.6495 46.1183 35.3316 46.25 35 46.25C34.6685 46.25 34.3506 46.1183 34.1162 45.8839C33.8817 45.6495 33.75 45.3316 33.75 45V44.9834C31.935 44.5267 30.4167 43.095 30.4167 41.1117C30.4167 40.7802 30.5484 40.4622 30.7828 40.2278C31.0172 39.9934 31.3352 39.8617 31.6667 39.8617C31.9982 39.8617 32.3162 39.9934 32.5506 40.2278C32.785 40.4622 32.9167 40.7802 32.9167 41.1117C32.9167 41.7517 33.6267 42.6384 35 42.6384C36.3734 42.6384 37.0834 41.7517 37.0834 41.1117C37.0834 40.4717 36.3734 39.5834 35 39.5834C32.6917 39.5834 30.4167 37.9834 30.4167 35.555C30.4167 33.5717 31.935 32.14 33.75 31.6834V31.6667C33.75 31.3352 33.8817 31.0172 34.1162 30.7828C34.3506 30.5484 34.6685 30.4167 35 30.4167Z" fill="#EE8364"/>
</svg>
