<svg width="70" height="70" viewBox="0 0 70 70" fill="none" xmlns="http://www.w3.org/2000/svg">
<rect width="70" height="70" rx="12" fill="#EC5A31"/>
<path d="M28.2304 41.312C31.3104 41.312 32.7944 38.96 32.7944 34.424V33.444C32.7944 29.188 31.1704 26.612 28.1744 26.612C25.1504 26.612 23.4984 29.02 23.4984 33.472V34.48C23.4984 39.016 25.2344 41.312 28.2304 41.312ZM28.1464 44.28C23.0504 44.28 19.7464 40.528 19.7464 34.508V33.5C19.7464 27.424 23.1064 23.7 28.1464 23.7C33.2144 23.7 36.5184 27.396 36.5184 33.416V34.424C36.5184 40.444 33.3824 44.28 28.1464 44.28ZM43.0752 44V27.676L38.8472 30.56V27.284L43.4952 23.98H46.8272V44H43.0752Z" fill="#E3E3E3"/>
</svg>
