<svg width="70" height="70" viewBox="0 0 70 70" fill="none" xmlns="http://www.w3.org/2000/svg">
<rect width="70" height="70" rx="12" fill="#3171EC"/>
<path d="M26.0018 41.312C29.0818 41.312 30.5658 38.96 30.5658 34.424V33.444C30.5658 29.188 28.9418 26.612 25.9458 26.612C22.9218 26.612 21.2698 29.02 21.2698 33.472V34.48C21.2698 39.016 23.0058 41.312 26.0018 41.312ZM25.9178 44.28C20.8218 44.28 17.5178 40.528 17.5178 34.508V33.5C17.5178 27.424 20.8778 23.7 25.9178 23.7C30.9858 23.7 34.2898 27.396 34.2898 33.416V34.424C34.2898 40.444 31.1538 44.28 25.9178 44.28ZM36.1427 44V43.328L43.7027 35.348C45.6067 33.332 46.7547 31.568 46.7547 29.664C46.7547 27.788 45.6907 26.612 43.7587 26.612C41.7707 26.612 40.5107 27.76 40.1747 30.588H36.7587C37.0107 26.22 39.6427 23.7 43.8707 23.7C48.0147 23.7 50.4787 26.08 50.4787 29.608C50.4787 32.212 48.9387 34.48 46.5587 36.776L42.1067 41.116H50.6187V44H36.1427Z" fill="#E3E3E3"/>
</svg>
