<svg width="70" height="70" viewBox="0 0 70 70" fill="none" xmlns="http://www.w3.org/2000/svg">
<rect width="70" height="70" rx="12" fill="#8E31EC"/>
<path d="M25.9413 41.312C29.0213 41.312 30.5053 38.96 30.5053 34.424V33.444C30.5053 29.188 28.8813 26.612 25.8853 26.612C22.8613 26.612 21.2093 29.02 21.2093 33.472V34.48C21.2093 39.016 22.9453 41.312 25.9413 41.312ZM25.8573 44.28C20.7613 44.28 17.4573 40.528 17.4573 34.508V33.5C17.4573 27.424 20.8173 23.7 25.8573 23.7C30.9253 23.7 34.2293 27.396 34.2293 33.416V34.424C34.2293 40.444 31.0933 44.28 25.8573 44.28ZM44.0374 44.28C39.2774 44.28 36.6734 41.648 36.5054 37.812H39.8934C40.0894 39.912 41.2654 41.48 43.9534 41.48C46.5574 41.48 47.7614 40.22 47.7614 38.232C47.7614 36.048 46.5854 34.956 44.1494 34.956H42.6094V32.296H44.0374C46.3334 32.296 47.3694 31.232 47.3694 29.356C47.3694 27.732 46.3334 26.528 44.2614 26.528C42.1334 26.528 40.7614 27.816 40.5374 29.832H37.2334C37.4294 26.36 40.0334 23.7 44.3174 23.7C48.4894 23.7 50.9254 26.108 50.9254 29.076C50.9254 31.344 49.6094 32.716 47.6774 33.444C50.0014 33.976 51.5414 35.628 51.5414 38.288C51.5414 41.984 48.6294 44.28 44.0374 44.28Z" fill="#E3E3E3"/>
</svg>
