<svg width="70" height="70" viewBox="0 0 70 70" fill="none" xmlns="http://www.w3.org/2000/svg">
<rect width="70" height="70" rx="12" fill="#4C279D"/>
<path d="M49.0766 21.1555C48.3664 24.0031 45.807 26 42.875 26C39.943 26 37.3836 24.0031 36.6734 21.1555L36.0547 18.7016C35.7594 17.4992 34.5359 16.768 33.3266 17.0703C32.1172 17.3727 31.393 18.5891 31.6953 19.7984L32.307 22.2523C33.0805 25.3461 35.1336 27.8492 37.8125 29.2555V50.75C37.8125 51.9945 38.818 53 40.0625 53C41.307 53 42.3125 51.9945 42.3125 50.75V41.75H43.4375V50.75C43.4375 51.9945 44.443 53 45.6875 53C46.932 53 47.9375 51.9945 47.9375 50.75V29.2555C50.6164 27.8492 52.6695 25.3461 53.443 22.2523L54.0547 19.7984C54.357 18.5961 53.6258 17.3727 52.4164 17.0703C51.207 16.768 49.9906 17.4992 49.6953 18.7016L49.0836 21.1555H49.0766ZM42.875 23.75C43.7701 23.75 44.6285 23.3944 45.2615 22.7615C45.8944 22.1286 46.25 21.2701 46.25 20.375C46.25 19.4799 45.8944 18.6214 45.2615 17.9885C44.6285 17.3556 43.7701 17 42.875 17C41.9799 17 41.1214 17.3556 40.4885 17.9885C39.8556 18.6214 39.5 19.4799 39.5 20.375C39.5 21.2701 39.8556 22.1286 40.4885 22.7615C41.1214 23.3944 41.9799 23.75 42.875 23.75ZM20.375 23.75C21.2701 23.75 22.1285 23.3944 22.7615 22.7615C23.3944 22.1286 23.75 21.2701 23.75 20.375C23.75 19.4799 23.3944 18.6214 22.7615 17.9885C22.1285 17.3556 21.2701 17 20.375 17C19.4799 17 18.6214 17.3556 17.9885 17.9885C17.3556 18.6214 17 19.4799 17 20.375C17 21.2701 17.3556 22.1286 17.9885 22.7615C18.6214 23.3944 19.4799 23.75 20.375 23.75ZM19.8125 26C17.3305 26 15.3125 28.018 15.3125 30.5V50.75C15.3125 51.9945 16.318 53 17.5625 53C18.807 53 19.8125 51.9945 19.8125 50.75V41.75H20.9375V50.75C20.9375 51.9945 21.943 53 23.1875 53C24.432 53 25.4375 51.9945 25.4375 50.75V34.768L26.3516 36.2094C26.7664 36.8563 27.4836 37.257 28.25 37.257H31.625C32.8695 37.257 33.875 36.2516 33.875 35.007C33.875 33.7625 32.8695 32.757 31.625 32.757H29.4875L26.8578 28.6156C25.8312 26.9844 24.0383 26 22.1117 26H19.8125Z" fill="#6CE9FC"/>
</svg>
