<svg width="70" height="70" viewBox="0 0 70 70" fill="none" xmlns="http://www.w3.org/2000/svg">
<rect width="70" height="70" rx="12" fill="#EC5A31"/>
<path d="M52.3156 17.9891C52.3013 17.92 52.2677 17.8564 52.2185 17.8058C52.1694 17.7552 52.1069 17.7196 52.0383 17.7032C47.4625 16.5844 36.8898 20.5712 31.1617 26.2969C30.14 27.3103 29.2086 28.4109 28.3781 29.586C26.6117 29.4298 24.8453 29.5602 23.3398 30.2165C19.0922 32.086 17.8554 36.9641 17.5109 39.0626C17.4914 39.1774 17.4987 39.2953 17.5324 39.4068C17.5662 39.5183 17.6253 39.6205 17.7052 39.7053C17.785 39.7901 17.8835 39.8552 17.9928 39.8955C18.1021 39.9358 18.2193 39.9502 18.3351 39.9376L25.1562 39.1852C25.1611 39.6995 25.1921 40.2132 25.2492 40.7243C25.2835 41.0792 25.4411 41.4109 25.6945 41.6618L28.3359 44.2969C28.587 44.55 28.9186 44.7075 29.2734 44.7423C29.7817 44.7991 30.2925 44.8301 30.8039 44.8352L30.0554 51.6477C30.043 51.7635 30.0575 51.8806 30.0978 51.9898C30.1382 52.0991 30.2033 52.1975 30.2881 52.2773C30.3728 52.3572 30.475 52.4163 30.5864 52.4501C30.6979 52.4838 30.8156 52.4913 30.9304 52.4719C33.025 52.136 37.9117 50.8993 39.7703 46.6516C40.4265 45.1462 40.5609 43.3884 40.4094 41.6305C41.5873 40.7999 42.6907 39.8683 43.707 38.8462C49.4531 33.129 53.4172 22.7923 52.3156 17.9891ZM37.9742 32.0259C37.4495 31.5015 37.0921 30.8333 36.9472 30.1058C36.8023 29.3783 36.8764 28.6242 37.1602 27.9388C37.444 27.2535 37.9246 26.6677 38.5413 26.2555C39.1581 25.8433 39.8832 25.6233 40.625 25.6233C41.3668 25.6233 42.0919 25.8433 42.7086 26.2555C43.3254 26.6677 43.806 27.2535 44.0898 27.9388C44.3735 28.6242 44.4476 29.3783 44.3027 30.1058C44.1578 30.8333 43.8005 31.5015 43.2758 32.0259C42.9278 32.3743 42.5146 32.6507 42.0598 32.8393C41.6049 33.0279 41.1174 33.125 40.625 33.125C40.1326 33.125 39.645 33.0279 39.1902 32.8393C38.7353 32.6507 38.3221 32.3743 37.9742 32.0259Z" fill="#6CE9FC"/>
<path d="M28.1562 46.2055C27.7281 46.6344 27.0414 46.8016 26.2148 46.9445C24.3578 47.2609 22.718 45.6563 23.0516 43.7789C23.1789 43.0672 23.5555 42.0695 23.7898 41.8352C23.8411 41.7849 23.8752 41.7198 23.8873 41.6491C23.8994 41.5784 23.889 41.5056 23.8574 41.4412C23.8258 41.3768 23.7748 41.3239 23.7114 41.2902C23.6481 41.2564 23.5758 41.2434 23.5047 41.2531C22.4662 41.3802 21.5001 41.851 20.7602 42.5906C18.9234 44.4289 18.75 51.25 18.75 51.25C18.75 51.25 25.575 51.0766 27.4117 49.2383C28.1536 48.4989 28.6251 47.5313 28.75 46.4914C28.7789 46.1648 28.3812 45.9703 28.1562 46.2055Z" fill="#6CE9FC"/>
</svg>
