<svg width="70" height="70" viewBox="0 0 70 70" fill="none" xmlns="http://www.w3.org/2000/svg">
<rect width="70" height="70" rx="12" fill="#EE8364"/>
<path d="M51.5783 30.2984C51.4735 29.9898 51.2807 29.7187 51.0236 29.5185C50.7665 29.3182 50.4564 29.1977 50.1316 29.1717L40.63 28.4167L36.5183 19.315C36.3874 19.0219 36.1744 18.7729 35.905 18.5981C35.6357 18.4233 35.3216 18.3303 35.0005 18.3301C34.6794 18.3299 34.3652 18.4226 34.0957 18.5971C33.8262 18.7716 33.6129 19.0204 33.4816 19.3134L29.37 28.4167L19.8683 29.1717C19.5491 29.197 19.2439 29.3137 18.9892 29.5079C18.7346 29.7021 18.5413 29.9656 18.4325 30.2667C18.3236 30.5679 18.3039 30.8941 18.3755 31.2062C18.4472 31.5183 18.6073 31.8032 18.8366 32.0267L25.8583 38.8717L23.375 49.625C23.2996 49.9505 23.3237 50.2912 23.4443 50.6028C23.5649 50.9144 23.7764 51.1825 24.0513 51.3724C24.3262 51.5623 24.6518 51.6652 24.9859 51.6678C25.32 51.6703 25.6472 51.5724 25.925 51.3867L35 45.3367L44.075 51.3867C44.3589 51.5752 44.6937 51.6722 45.0343 51.6647C45.375 51.6573 45.7053 51.5457 45.9806 51.3449C46.256 51.1441 46.4633 50.8639 46.5746 50.5418C46.6859 50.2197 46.6959 49.8713 46.6033 49.5434L43.555 38.8767L51.115 32.0734C51.61 31.6267 51.7916 30.93 51.5783 30.2984Z" fill="#3531EC"/>
</svg>
