<svg width="50" height="50" viewBox="0 0 50 50" fill="none" xmlns="http://www.w3.org/2000/svg">
<g clip-path="url(#clip0_6104_3803)">
<path d="M-0.636719 -0.638672H50.6453V50.6434H-0.636719V-0.638672Z" fill="url(#paint0_radial_6104_3803)"/>
<path fill-rule="evenodd" clip-rule="evenodd" d="M34.7171 20.0927C32.8848 20.0927 32.2591 21.02 32.2591 21.7909C32.2591 22.6289 32.6725 23.2098 35.1416 24.4835C38.7839 26.2488 39.9235 27.947 39.9235 30.4273C39.9235 34.1478 37.0857 36.1477 33.2535 36.1477C31.2312 36.1477 29.4883 35.7343 28.494 35.1533C28.3264 35.0863 28.304 34.9634 28.304 34.7846V31.3546C28.304 31.12 28.4158 31.053 28.5833 31.1647C30.047 32.1144 31.7228 32.5389 33.2535 32.5389C35.0858 32.5389 35.8567 31.768 35.8567 30.729C35.8567 29.891 35.3204 29.1536 32.9742 27.9358C29.6783 26.3605 28.304 24.7628 28.304 22.0814C28.304 19.0872 30.6503 16.5957 34.7171 16.5957C36.717 16.5957 38.1135 16.8973 38.8733 17.2437C39.0632 17.3554 39.1079 17.5454 39.1079 17.7129V20.8971C39.1079 21.0871 38.9962 21.1988 38.7616 21.1317C37.7337 20.4837 36.2254 20.0927 34.7171 20.0927ZM10.5955 10.5178C10.5955 10.3502 10.9195 10.2385 11.1095 10.2385C12.5954 10.1715 14.8076 10.1268 17.098 10.1268C23.5334 10.1268 26.0472 13.6573 26.0472 18.1598C26.0472 24.059 21.7681 26.5951 16.517 26.5951C16.0378 26.5951 15.7299 26.582 15.4483 26.5699C15.2113 26.5598 14.993 26.5504 14.707 26.5504V35.4661C14.707 35.6561 14.64 35.7454 14.4277 35.7454H10.8748C10.6849 35.7454 10.5955 35.6784 10.5955 35.4661V10.5178ZM16.6173 22.897C15.6902 22.897 15.2768 22.897 14.7405 22.8523L14.7294 13.8807C15.1539 13.8584 16.0366 13.8137 16.9639 13.8137C20.0587 13.8137 21.891 15.2997 21.891 18.2492C21.891 21.9473 19.3325 22.897 16.6175 22.897H16.6173Z" fill="#31C5F0"/>
</g>
<defs>
<radialGradient id="paint0_radial_6104_3803" cx="0" cy="0" r="1" gradientUnits="userSpaceOnUse" gradientTransform="translate(16.2653 10.8668) scale(38.9686 38.7885)">
<stop stop-color="#34364E" stop-opacity="0.98"/>
<stop offset="1" stop-color="#0C0824"/>
</radialGradient>
<clipPath id="clip0_6104_3803">
<rect width="50" height="50" rx="9.61538" fill="white"/>
</clipPath>
</defs>
</svg>
