<svg width="50" height="50" viewBox="0 0 50 50" fill="none" xmlns="http://www.w3.org/2000/svg">
<g clip-path="url(#clip0_6104_3809)">
<path d="M8.42885 -0.654297H41.5485C46.5699 -0.654297 50.6297 3.50963 50.6297 8.65975V41.3137C50.6297 46.4638 46.5699 50.6278 41.5485 50.6278H8.42885C3.40749 50.6278 -0.652344 46.4638 -0.652344 41.3137V8.65975C-0.652344 3.50963 3.40749 -0.654297 8.42885 -0.654297Z" fill="#470137"/>
<path d="M26.3159 12.8358L19.9056 23.6839L26.7432 35.1895C26.786 35.2772 26.8073 35.3649 26.786 35.4525C26.7646 35.5402 26.6791 35.4744 26.5509 35.4963H21.6578C21.3159 35.4963 21.0808 35.4744 20.9313 35.2553C20.4825 34.3348 20.0125 33.4363 19.5637 32.5159C19.115 31.6173 18.6236 30.6969 18.1107 29.7545C17.5979 28.8121 17.0851 27.8698 16.5723 26.9055H16.5295C16.0808 27.8479 15.5894 28.7902 15.0979 29.7326C14.6065 30.675 14.115 31.6173 13.6449 32.5378C13.1535 33.4582 12.662 34.4006 12.1706 35.2991C12.0851 35.5183 11.9142 35.5402 11.6791 35.5402H6.97827C6.8928 35.5402 6.8287 35.584 6.8287 35.4744C6.80733 35.3868 6.8287 35.2991 6.87143 35.2334L13.5167 24.0565L7.04237 12.8139C6.97827 12.7262 6.9569 12.6386 6.99964 12.5947C7.04237 12.529 7.12784 12.5071 7.21331 12.5071H12.0637C12.1706 12.5071 12.2774 12.529 12.3629 12.5509C12.4484 12.5947 12.5125 12.6605 12.5766 12.7481C12.9825 13.6905 13.4526 14.6329 13.9441 15.5752C14.4569 16.5176 14.9484 17.438 15.4825 18.3585C15.9954 19.2789 16.4654 20.1994 16.9142 21.1418H16.9569C17.4056 20.1775 17.8757 19.2351 18.3458 18.3147C18.8159 17.3942 19.3073 16.4738 19.7988 15.5533C20.2902 14.6329 20.7603 13.6905 21.2304 12.792C21.2518 12.7043 21.2945 12.6167 21.3586 12.5728C21.4441 12.529 21.5295 12.5071 21.6364 12.529H26.1449C26.2518 12.5071 26.3586 12.5728 26.38 12.6824C26.4013 12.7043 26.3586 12.792 26.3159 12.8358Z" fill="#FF61F6"/>
<path d="M36.1879 35.9587C34.6067 35.9806 33.0255 35.6518 31.5939 34.9725C30.2478 34.3369 29.1367 33.285 28.3674 31.992C27.5768 30.6551 27.1922 28.9896 27.1922 26.9953C27.1708 25.3735 27.5768 23.7737 28.3674 22.3711C29.1794 20.9466 30.3546 19.7632 31.7649 18.9742C33.2606 18.1195 35.0554 17.7031 37.1708 17.7031C37.2777 17.7031 37.4272 17.7031 37.6196 17.725C37.8119 17.747 38.0255 17.7469 38.2819 17.7689V10.8436C38.2819 10.6902 38.346 10.6025 38.4956 10.6025H42.8332C42.9401 10.5806 43.0255 10.6683 43.0469 10.7559C43.0469 10.7779 43.0469 10.7998 43.0469 10.7998V31.6632C43.0469 32.0577 43.0683 32.496 43.0896 32.9782C43.1324 33.4384 43.1537 33.8767 43.1751 34.2493C43.1751 34.4027 43.111 34.5342 42.9614 34.5999C41.8503 35.082 40.6751 35.4327 39.4785 35.6518C38.3888 35.8491 37.299 35.9587 36.1879 35.9587ZM38.2819 31.5756V21.9328C38.0896 21.889 37.8973 21.8451 37.705 21.8232C37.47 21.8013 37.2349 21.7794 36.9999 21.7794C36.1666 21.7794 35.3332 21.9547 34.5854 22.3492C33.8589 22.7217 33.2392 23.2696 32.7691 23.9709C32.299 24.6722 32.064 25.6146 32.064 26.7542C32.0426 27.5212 32.1708 28.2883 32.4272 29.0115C32.6409 29.6032 32.9614 30.1292 33.3888 30.5675C33.7948 30.9619 34.2862 31.2688 34.8418 31.4441C35.4187 31.6413 36.017 31.729 36.6153 31.729C36.9358 31.729 37.2349 31.7071 37.5127 31.6851C37.7905 31.7071 38.0255 31.6632 38.2819 31.5756Z" fill="#FF61F6"/>
</g>
<defs>
<clipPath id="clip0_6104_3809">
<rect width="50" height="50" fill="white"/>
</clipPath>
</defs>
</svg>
