<svg width="50" height="29" viewBox="0 0 50 29" fill="none" xmlns="http://www.w3.org/2000/svg">
<g clip-path="url(#clip0_6104_5106)">
<path d="M14.3622 10.5323C14.3622 11.129 14.4267 11.6129 14.5396 11.9677C14.6687 12.3226 14.83 12.7097 15.0558 13.129C15.1364 13.2581 15.1687 13.3871 15.1687 13.5C15.1687 13.6613 15.0719 13.8226 14.8622 13.9839L13.8461 14.6613C13.7009 14.7581 13.5558 14.8065 13.4267 14.8065C13.2654 14.8065 13.1042 14.7258 12.9429 14.5806C12.7171 14.3387 12.5235 14.0806 12.3622 13.8226C12.2009 13.5484 12.0396 13.2419 11.8622 12.871C10.6042 14.3548 9.02351 15.0968 7.12028 15.0968C5.76544 15.0968 4.6848 14.7097 3.89448 13.9355C3.10415 13.1613 2.70093 12.129 2.70093 10.8387C2.70093 9.46774 3.1848 8.35484 4.16867 7.51613C5.15254 6.67742 6.45899 6.25807 8.12028 6.25807C8.66867 6.25807 9.23319 6.30645 9.82996 6.3871C10.4267 6.46774 11.0396 6.59678 11.6848 6.74194V5.56452C11.6848 4.33871 11.4267 3.48387 10.9267 2.98387C10.4106 2.48387 9.53964 2.24194 8.2977 2.24194C7.73319 2.24194 7.15254 2.30645 6.55577 2.45161C5.95899 2.59677 5.37835 2.77419 4.81383 3C4.55577 3.1129 4.36222 3.17742 4.24931 3.20968C4.13641 3.24194 4.05577 3.25806 3.99125 3.25806C3.76544 3.25806 3.65254 3.09677 3.65254 2.75806V1.96774C3.65254 1.70968 3.6848 1.51613 3.76544 1.40323C3.84609 1.29032 3.99125 1.17742 4.21706 1.06452C4.78157 0.774194 5.45899 0.532258 6.24931 0.33871C7.03964 0.129032 7.87835 0.0322581 8.76544 0.0322581C10.6848 0.0322581 12.088 0.467742 12.9913 1.33871C13.8783 2.20968 14.33 3.53226 14.33 5.30645V10.5323H14.3622ZM7.81383 12.9839C8.34609 12.9839 8.89448 12.8871 9.47512 12.6936C10.0558 12.5 10.5719 12.1452 11.0074 11.6613C11.2654 11.3548 11.459 11.0161 11.5558 10.629C11.6525 10.2419 11.7171 9.77419 11.7171 9.22581V8.54839C11.2493 8.43548 10.7493 8.33871 10.2332 8.27419C9.71706 8.20968 9.21706 8.17742 8.71706 8.17742C7.63641 8.17742 6.84609 8.3871 6.31383 8.82258C5.78157 9.25807 5.52351 9.87097 5.52351 10.6774C5.52351 11.4355 5.71706 12 6.12028 12.3871C6.50738 12.7903 7.0719 12.9839 7.81383 12.9839ZM20.7654 14.7258C20.4751 14.7258 20.2816 14.6774 20.1525 14.5645C20.0235 14.4677 19.9106 14.2419 19.8138 13.9355L16.0235 1.46774C15.9267 1.14516 15.8783 0.935484 15.8783 0.822581C15.8783 0.564516 16.0074 0.419355 16.2654 0.419355H17.8461C18.1525 0.419355 18.3622 0.467742 18.4751 0.580645C18.6042 0.677419 18.7009 0.903226 18.7977 1.20968L21.5074 11.8871L24.0235 1.20968C24.1042 0.887097 24.2009 0.677419 24.33 0.580645C24.459 0.483871 24.6848 0.419355 24.9751 0.419355H26.2654C26.5719 0.419355 26.7816 0.467742 26.9106 0.580645C27.0396 0.677419 27.1525 0.903226 27.2171 1.20968L29.7654 12.0161L32.5558 1.20968C32.6525 0.887097 32.7654 0.677419 32.8783 0.580645C33.0074 0.483871 33.2171 0.419355 33.5074 0.419355H35.0074C35.2654 0.419355 35.4106 0.548387 35.4106 0.822581C35.4106 0.903226 35.3945 0.983871 35.3783 1.08065C35.3622 1.17742 35.33 1.30645 35.2654 1.48387L31.3783 13.9516C31.2816 14.2742 31.1687 14.4839 31.0396 14.5806C30.9106 14.6774 30.7009 14.7419 30.4267 14.7419H29.0396C28.7332 14.7419 28.5235 14.6935 28.3945 14.5806C28.2654 14.4677 28.1525 14.2581 28.088 13.9355L25.588 3.53226L23.1042 13.9194C23.0235 14.2419 22.9267 14.4516 22.7977 14.5645C22.6687 14.6774 22.4429 14.7258 22.1525 14.7258H20.7654ZM41.4912 15.1613C40.6525 15.1613 39.8138 15.0645 39.0074 14.871C38.2009 14.6774 37.5719 14.4677 37.1525 14.2258C36.8945 14.0806 36.7171 13.9194 36.6525 13.7742C36.588 13.629 36.5558 13.4677 36.5558 13.3226V12.5C36.5558 12.1613 36.6848 12 36.9267 12C37.0235 12 37.1203 12.0161 37.2171 12.0484C37.3138 12.0806 37.459 12.1452 37.6203 12.2097C38.1687 12.4516 38.7654 12.6452 39.3945 12.7742C40.0396 12.9032 40.6687 12.9677 41.3138 12.9677C42.33 12.9677 43.1203 12.7903 43.6687 12.4355C44.2171 12.0806 44.5074 11.5645 44.5074 10.9032C44.5074 10.4516 44.3622 10.0806 44.0719 9.77419C43.7816 9.46774 43.2332 9.19355 42.4429 8.93548L40.1042 8.20968C38.9267 7.83871 38.0558 7.29032 37.5235 6.56452C36.9912 5.85484 36.7171 5.06452 36.7171 4.22581C36.7171 3.54839 36.8622 2.95161 37.1525 2.43548C37.4429 1.91936 37.83 1.46774 38.3138 1.1129C38.7977 0.741936 39.3461 0.467742 39.9912 0.274194C40.6364 0.0806451 41.3138 0 42.0235 0C42.3783 0 42.7493 0.016129 43.1042 0.0645161C43.4751 0.112903 43.8138 0.177419 44.1525 0.241935C44.4751 0.322581 44.7816 0.403226 45.0719 0.5C45.3622 0.596774 45.588 0.693548 45.7493 0.790323C45.9751 0.919355 46.1364 1.04839 46.2332 1.19355C46.33 1.32258 46.3783 1.5 46.3783 1.72581V2.48387C46.3783 2.82258 46.2493 3 46.0074 3C45.8783 3 45.6687 2.93548 45.3945 2.80645C44.4751 2.3871 43.4429 2.17742 42.2977 2.17742C41.3783 2.17742 40.6525 2.32258 40.1525 2.62903C39.6525 2.93548 39.3945 3.40323 39.3945 4.06452C39.3945 4.51613 39.5558 4.90323 39.8783 5.20968C40.2009 5.51613 40.7977 5.82258 41.6525 6.09678L43.9429 6.82258C45.1041 7.19355 45.9429 7.70968 46.4429 8.37097C46.9429 9.03226 47.1848 9.79032 47.1848 10.629C47.1848 11.3226 47.0396 11.9516 46.7654 12.5C46.4751 13.0484 46.088 13.5323 45.588 13.9194C45.088 14.3226 44.4912 14.6129 43.7977 14.8226C43.0719 15.0484 42.3138 15.1613 41.4912 15.1613Z" fill="white"/>
<path fill-rule="evenodd" clip-rule="evenodd" d="M44.5399 23C39.2335 26.9193 31.5238 29 24.8948 29C15.6044 29 7.23347 25.5645 0.910886 19.8548C0.410886 19.4032 0.862499 18.7903 1.45927 19.1451C8.29798 23.1129 16.7335 25.5161 25.4593 25.5161C31.3464 25.5161 37.8141 24.2903 43.7657 21.7741C44.6528 21.3709 45.4109 22.3548 44.5399 23Z" fill="#FF9900"/>
<path fill-rule="evenodd" clip-rule="evenodd" d="M46.7499 20.4838C46.0724 19.6129 42.266 20.0645 40.5402 20.2741C40.0241 20.3387 39.9434 19.887 40.4111 19.5483C43.4434 17.4193 48.4273 18.0322 49.0079 18.7419C49.5886 19.4677 48.8466 24.4516 46.0079 26.8387C45.5724 27.2096 45.1531 27.0161 45.3466 26.5322C45.9918 24.9354 47.4273 21.3387 46.7499 20.4838Z" fill="#FF9900"/>
</g>
<defs>
<clipPath id="clip0_6104_5106">
<rect width="49.4881" height="29" fill="white" transform="translate(0.255859)"/>
</clipPath>
</defs>
</svg>
