<svg width="50" height="50" viewBox="0 0 50 50" fill="none" xmlns="http://www.w3.org/2000/svg">
<path d="M17.6375 49.0568C14.7097 47.7912 11.9701 44.5747 11.9635 41.2837C11.9555 37.6955 14.2295 34.6492 17.0577 32.6472C16.7177 33.9317 16.5322 35.1067 17.3746 36.2558C18.1576 37.324 19.5291 37.8431 20.8241 37.5614C23.85 36.899 23.9888 33.5725 22.195 31.6345C20.4213 29.7153 18.7056 27.5475 19.3807 24.7643C19.7186 23.3691 20.5753 22.0622 21.6605 21.1281C20.8264 23.3202 23.1968 25.4821 24.7586 26.559C27.4678 28.4272 30.4403 29.8392 32.9314 32.0293C35.5517 34.331 37.4866 37.4432 37.0959 41.0528C36.6725 44.9653 33.5636 47.6863 30.0764 49.06C37.4453 47.4336 45.0594 41.7145 45.2154 33.542C45.3446 26.8186 40.7323 21.6443 35.0189 18.682L34.7204 18.519C34.8772 18.8995 34.9285 19.2232 34.9226 19.5129C34.9737 19.2992 35.0084 19.0797 35.0183 18.8531C35.0169 19.1222 34.9817 19.3901 34.9136 19.6505L34.9226 19.5129C34.8377 19.8698 34.6948 20.2104 34.4996 20.521L34.5834 20.4309C33.4436 22.3215 30.3578 22.732 28.8334 20.7744C26.3828 17.6254 28.8847 14.2302 29.2347 10.8956C29.6728 6.71637 27.052 2.6592 23.8024 0.231323C25.5922 3.12658 23.2342 6.95701 21.3477 9.09845C19.5185 11.1743 17.2938 12.9074 15.2744 14.7935C13.1052 16.8192 11.0198 18.9531 9.23672 21.3307C5.67065 26.0895 3.4875 32.0747 5.09185 38.0116C6.69517 43.9444 11.8343 47.7211 17.6377 49.0566L17.6375 49.0568Z" fill="#EE4323"/>
</svg>
