<svg width="51" height="50" viewBox="0 0 51 50" fill="none" xmlns="http://www.w3.org/2000/svg">
<g clip-path="url(#clip0_6104_3928)">
<path d="M25.5 50C39.3071 50 50.5 38.8071 50.5 25C50.5 11.1929 39.3071 0 25.5 0C11.6929 0 0.5 11.1929 0.5 25C0.5 38.8071 11.6929 50 25.5 50Z" fill="#2B2E3A"/>
<path d="M20.1289 14.002C15.0498 13.077 11.0338 14.0452 9.43321 16.8174C8.23887 18.8862 8.58028 21.629 10.2613 24.5608C10.2945 24.6217 10.3396 24.6753 10.3938 24.7186C10.448 24.7619 10.5103 24.7939 10.577 24.8127C10.6437 24.8316 10.7136 24.837 10.7824 24.8285C10.8512 24.82 10.9177 24.7978 10.9778 24.7633C11.038 24.7288 11.0907 24.6827 11.1327 24.6276C11.1748 24.5724 11.2055 24.5094 11.2229 24.4423C11.2403 24.3752 11.2441 24.3053 11.2342 24.2366C11.2242 24.168 11.2006 24.102 11.1649 24.0426C9.65079 21.4016 9.35606 19.0346 10.3354 17.3383C11.665 15.0354 15.2471 14.1717 19.9422 15.0268C20.0771 15.0493 20.2155 15.0178 20.3273 14.9391C20.4392 14.8604 20.5157 14.7409 20.5402 14.6064C20.5647 14.4718 20.5353 14.333 20.4584 14.2199C20.3814 14.1069 20.2631 14.0286 20.1289 14.002ZM12.9025 28.1245C14.9563 30.3813 17.6244 32.4983 20.6674 34.2549C28.0352 38.5089 35.8789 39.6458 39.7445 37.01C39.8024 36.9721 39.852 36.9229 39.8907 36.8656C39.9293 36.8082 39.9561 36.7437 39.9696 36.6759C39.983 36.608 39.9828 36.5381 39.969 36.4704C39.9551 36.4026 39.9279 36.3383 39.8889 36.2811C39.85 36.224 39.8 36.1752 39.742 36.1375C39.6839 36.0999 39.619 36.0742 39.5509 36.062C39.4828 36.0497 39.413 36.0511 39.3454 36.0662C39.2779 36.0812 39.2141 36.1095 39.1576 36.1495C35.6979 38.5085 28.2471 37.4284 21.1883 33.353C18.2363 31.6487 15.6525 29.5987 13.6731 27.4233C13.6271 27.3724 13.5715 27.3311 13.5096 27.3017C13.4476 27.2723 13.3805 27.2555 13.312 27.2521C13.2435 27.2488 13.175 27.259 13.1104 27.2821C13.0459 27.3053 12.9866 27.341 12.9358 27.3871C12.8851 27.4333 12.844 27.489 12.8149 27.5511C12.7858 27.6132 12.7692 27.6804 12.7661 27.7489C12.763 27.8174 12.7734 27.8858 12.7969 27.9503C12.8203 28.0147 12.8562 28.0739 12.9025 28.1245Z" fill="#9FEAF9"/>
<path d="M38.511 27.4908C41.8368 23.5619 42.9979 19.6104 41.4006 16.8439C40.2254 14.8082 37.7409 13.7334 34.4387 13.6904C34.3019 13.6906 34.1706 13.7447 34.0733 13.8409C33.9759 13.9371 33.9204 14.0677 33.9186 14.2046C33.9169 14.3414 33.969 14.4735 34.0638 14.5722C34.1586 14.6709 34.2884 14.7283 34.4252 14.732C37.395 14.7707 39.5356 15.6967 40.4987 17.3648C41.8252 19.6627 40.7897 23.1865 37.7159 26.8178C37.6708 26.8699 37.6364 26.9304 37.6149 26.9958C37.5933 27.0612 37.585 27.1303 37.5903 27.199C37.5956 27.2677 37.6145 27.3347 37.6459 27.396C37.6773 27.4573 37.7205 27.5118 37.7731 27.5563C37.8257 27.6009 37.8866 27.6345 37.9523 27.6553C38.0179 27.6761 38.0871 27.6837 38.1557 27.6776C38.2243 27.6715 38.2911 27.6519 38.3521 27.6198C38.413 27.5877 38.4671 27.5439 38.511 27.4908ZM29.9639 14.1754C26.9569 14.8197 23.7561 16.0795 20.6823 17.8541C13.0764 22.2453 8.11489 28.7205 8.80395 33.4156C8.81314 33.4839 8.8358 33.5498 8.87061 33.6093C8.90543 33.6688 8.95171 33.7208 9.00677 33.7622C9.06183 33.8037 9.12458 33.8339 9.19138 33.8509C9.25817 33.868 9.32769 33.8716 9.3959 33.8616C9.4641 33.8516 9.52964 33.8281 9.58871 33.7926C9.64779 33.757 9.69922 33.7101 9.74003 33.6546C9.78084 33.599 9.81021 33.5359 9.82645 33.4689C9.84269 33.4019 9.84546 33.3323 9.83462 33.2643C9.2227 29.0955 13.9258 22.9578 21.2032 18.7562C24.185 17.0346 27.2842 15.8148 30.1821 15.1939C30.2499 15.1806 30.3144 15.1538 30.3718 15.1153C30.4291 15.0768 30.4783 15.0272 30.5163 14.9695C30.5543 14.9118 30.5805 14.847 30.5933 14.7791C30.606 14.7112 30.6052 14.6414 30.5907 14.5738C30.5762 14.5062 30.5484 14.4422 30.509 14.3854C30.4695 14.3287 30.4191 14.2804 30.3608 14.2433C30.3024 14.2062 30.2373 14.1811 30.1692 14.1694C30.101 14.1578 30.0313 14.1598 29.9639 14.1754Z" fill="#9FEAF9"/>
<path d="M17.6418 36.6704C19.3809 41.5259 22.2256 44.5155 25.4244 44.5155C27.7574 44.5155 29.9158 42.9251 31.599 40.1253C31.6355 40.0667 31.6599 40.0014 31.6708 39.9332C31.6818 39.865 31.6791 39.7954 31.6629 39.7282C31.6467 39.6611 31.6173 39.5979 31.5765 39.5422C31.5356 39.4866 31.4841 39.4396 31.4249 39.404C31.3657 39.3685 31.3001 39.345 31.2318 39.335C31.1635 39.325 31.0938 39.3288 31.027 39.3459C30.9601 39.3631 30.8973 39.3934 30.8422 39.4351C30.7872 39.4767 30.741 39.5289 30.7062 39.5886C29.1936 42.1048 27.3355 43.4737 25.4244 43.4737C22.7672 43.4737 20.2299 40.8073 18.6227 36.3194C18.6006 36.2537 18.5657 36.1931 18.52 36.141C18.4742 36.089 18.4186 36.0466 18.3562 36.0163C18.2939 35.986 18.2261 35.9685 18.1569 35.9648C18.0877 35.961 18.0185 35.9711 17.9532 35.9945C17.888 36.0178 17.828 36.054 17.7769 36.1008C17.7258 36.1476 17.6846 36.2041 17.6556 36.2671C17.6266 36.33 17.6105 36.3981 17.6081 36.4674C17.6058 36.5366 17.6173 36.6057 17.642 36.6704H17.6418ZM33.525 35.7206C34.4254 32.8441 34.9088 29.5257 34.9088 26.0677C34.9088 17.439 31.8887 10.0007 27.5871 8.09073C27.4614 8.0381 27.3202 8.0368 27.1936 8.0871C27.0669 8.1374 26.9651 8.2353 26.9098 8.35982C26.8545 8.48433 26.8502 8.62555 26.8978 8.75321C26.9454 8.88086 27.0411 8.98478 27.1645 9.04269C31.001 10.7464 33.867 17.8056 33.867 26.0677C33.867 29.4226 33.3988 32.636 32.5311 35.4095C32.5095 35.4751 32.5012 35.5443 32.5066 35.6131C32.512 35.6819 32.5311 35.749 32.5627 35.8104C32.5942 35.8717 32.6377 35.9262 32.6905 35.9707C32.7433 36.0151 32.8044 36.0487 32.8703 36.0693C32.9362 36.0899 33.0055 36.0972 33.0743 36.0908C33.143 36.0844 33.2098 36.0644 33.2707 36.0319C33.3316 35.9995 33.3855 35.9553 33.4292 35.9018C33.4729 35.8484 33.5055 35.7868 33.5252 35.7206H33.525ZM43.3344 35.2105C43.3344 33.8337 42.2184 32.7177 40.8416 32.7177C39.4648 32.7177 38.3488 33.8337 38.3488 35.2105C38.3488 36.5872 39.4648 37.7032 40.8416 37.7032C42.2184 37.7032 43.3344 36.5872 43.3344 35.2105ZM42.2928 35.2105C42.2928 35.401 42.2552 35.5897 42.1823 35.7658C42.1094 35.9419 42.0025 36.1018 41.8677 36.2366C41.733 36.3713 41.573 36.4782 41.3969 36.5512C41.2209 36.6241 41.0322 36.6616 40.8416 36.6616C40.651 36.6616 40.4623 36.6241 40.2863 36.5512C40.1102 36.4782 39.9502 36.3713 39.8155 36.2366C39.6807 36.1018 39.5738 35.9419 39.5009 35.7658C39.428 35.5897 39.3904 35.401 39.3904 35.2105C39.3904 34.8256 39.5433 34.4565 39.8155 34.1843C40.0876 33.9122 40.4567 33.7593 40.8416 33.7593C41.2265 33.7593 41.5956 33.9122 41.8677 34.1843C42.1399 34.4565 42.2928 34.8256 42.2928 35.2105ZM9.97129 37.7032C11.3482 37.7032 12.4643 36.5872 12.4643 35.2105C12.4643 33.8337 11.348 32.7177 9.97129 32.7177C8.59473 32.7177 7.47852 33.8337 7.47852 35.2105C7.47852 36.5872 8.59473 37.7032 9.97129 37.7032ZM9.97129 36.6616C9.58641 36.6616 9.2173 36.5087 8.94516 36.2366C8.67301 35.9644 8.52012 35.5953 8.52012 35.2105C8.52012 34.8256 8.67301 34.4565 8.94516 34.1843C9.2173 33.9122 9.58641 33.7593 9.97129 33.7593C10.3562 33.7593 10.7253 33.9122 10.9974 34.1843C11.2696 34.4565 11.4225 34.8256 11.4225 35.2105C11.4225 35.5953 11.2696 35.9644 10.9974 36.2366C10.7253 36.5087 10.3562 36.6616 9.97129 36.6616Z" fill="#9FEAF9"/>
<path d="M25.4242 10.6336C26.8009 10.6336 27.9169 9.5176 27.9169 8.14085C27.9169 6.76409 26.8009 5.64807 25.4242 5.64807C24.0474 5.64807 22.9314 6.76409 22.9314 8.14085C22.9314 9.5176 24.0474 10.6336 25.4242 10.6336ZM25.4242 9.59202C25.0393 9.59202 24.6702 9.43913 24.398 9.16698C24.1259 8.89483 23.973 8.52572 23.973 8.14085C23.973 7.75597 24.1259 7.38686 24.398 7.11471C24.6702 6.84256 25.0393 6.68967 25.4242 6.68967C25.809 6.68967 26.1782 6.84256 26.4503 7.11471C26.7225 7.38686 26.8753 7.75597 26.8753 8.14085C26.8753 8.52572 26.7225 8.89483 26.4503 9.16698C26.1782 9.43913 25.809 9.59202 25.4242 9.59202ZM25.8048 27.8307C24.8312 28.041 23.872 27.4223 23.6613 26.4487C23.5604 25.9811 23.6493 25.4926 23.9084 25.0906C24.1676 24.6886 24.5758 24.406 25.0433 24.3049C26.0169 24.0946 26.9761 24.7133 27.1871 25.6869C27.3974 26.6606 26.7787 27.6199 25.8048 27.8307Z" fill="#9FEAF9"/>
</g>
<defs>
<clipPath id="clip0_6104_3928">
<rect width="50" height="50" fill="white" transform="translate(0.5)"/>
</clipPath>
</defs>
</svg>
