<svg width="50" height="50" viewBox="0 0 50 50" fill="none" xmlns="http://www.w3.org/2000/svg">
<path d="M17.0654 48.811C19.1703 48.811 21.189 47.9748 22.6774 46.4865C24.1658 44.9981 25.0019 42.9794 25.0019 40.8745V32.938H17.0654C14.9605 32.938 12.9418 33.7742 11.4535 35.2625C9.96507 36.7509 9.12891 38.7696 9.12891 40.8745C9.12891 42.9794 9.96507 44.9981 11.4535 46.4865C12.9418 47.9748 14.9605 48.811 17.0654 48.811Z" fill="#0ACF83"/>
<path d="M9.12891 24.9985C9.12891 22.8936 9.96507 20.8749 11.4535 19.3866C12.9418 17.8982 14.9605 17.062 17.0654 17.062H25.0019V32.935H17.0654C14.9605 32.935 12.9418 32.0989 11.4535 30.6105C9.96507 29.1221 9.12891 27.1034 9.12891 24.9985Z" fill="#A259FF"/>
<path d="M9.12891 9.12938C9.12891 7.02556 9.96422 5.00782 11.4513 3.51961C12.9383 2.03141 14.9554 1.19451 17.0592 1.19287L24.9957 1.19287V17.0659H17.0654C14.9605 17.0659 12.9418 16.2297 11.4535 14.7413C9.96507 13.253 9.12891 11.2343 9.12891 9.12938Z" fill="#F24E1E"/>
<path d="M25 1.19287H32.9365C35.0414 1.19287 37.0601 2.02904 38.5485 3.51742C40.0368 5.0058 40.873 7.02449 40.873 9.12938C40.873 11.2343 40.0368 13.253 38.5485 14.7413C37.0601 16.2297 35.0414 17.0659 32.9365 17.0659H25V1.19287Z" fill="#FF7262"/>
<path d="M40.873 24.9985C40.873 27.1034 40.0368 29.1221 38.5485 30.6105C37.0601 32.0989 35.0414 32.935 32.9365 32.935C30.8316 32.935 28.8129 32.0989 27.3245 30.6105C25.8362 29.1221 25 27.1034 25 24.9985C25 22.8936 25.8362 20.8749 27.3245 19.3866C28.8129 17.8982 30.8316 17.062 32.9365 17.062C35.0414 17.062 37.0601 17.8982 38.5485 19.3866C40.0368 20.8749 40.873 22.8936 40.873 24.9985Z" fill="#1ABCFE"/>
</svg>
