<svg width="144" height="38" viewBox="0 0 144 38" fill="none" xmlns="http://www.w3.org/2000/svg">
<g clip-path="url(#clip0_6144_26424)">
<g clip-path="url(#clip1_6144_26424)">
<path d="M25.0936 24.6605C24.6294 24.6605 24.2321 24.5623 23.9017 24.3659C23.5714 24.1694 23.3169 23.8904 23.1384 23.5288C22.9643 23.1673 22.8772 22.7365 22.8772 22.2365C22.8772 21.741 22.9643 21.3124 23.1384 20.9508C23.3169 20.5893 23.5714 20.3103 23.9017 20.1138C24.2321 19.9174 24.6294 19.8192 25.0936 19.8192C25.4195 19.8192 25.7186 19.8705 25.9909 19.9732C26.2677 20.0759 26.502 20.2254 26.694 20.4219L26.4797 20.8705C26.2744 20.6785 26.0601 20.5402 25.8369 20.4553C25.6181 20.3661 25.3749 20.3214 25.107 20.3214C24.5758 20.3214 24.1696 20.4888 23.8883 20.8236C23.6071 21.1584 23.4665 21.6294 23.4665 22.2365C23.4665 22.8481 23.6071 23.3213 23.8883 23.6561C24.1696 23.9909 24.5758 24.1583 25.107 24.1583C25.3749 24.1583 25.6181 24.1159 25.8369 24.0311C26.0601 23.9418 26.2744 23.8012 26.4797 23.6092L26.694 24.0578C26.502 24.2498 26.2677 24.3993 25.9909 24.5065C25.7186 24.6091 25.4195 24.6605 25.0936 24.6605ZM28.4809 24.6605C28.1505 24.6605 27.9005 24.5645 27.7309 24.3726C27.5657 24.1761 27.4831 23.8927 27.4831 23.5221V19.8795H28.0255V23.482C28.0255 23.9596 28.2152 24.1985 28.5947 24.1985C28.7063 24.1985 28.8067 24.1851 28.896 24.1583L28.8826 24.6136C28.7442 24.6449 28.6103 24.6605 28.4809 24.6605ZM30.6162 24.6605C29.835 24.6605 29.4444 24.2297 29.4444 23.3681V21.3459H29.9868V23.3614C29.9868 23.6516 30.0448 23.8659 30.1609 24.0043C30.2814 24.1427 30.4689 24.2118 30.7234 24.2118C31.0001 24.2118 31.2256 24.1203 31.3997 23.9373C31.5738 23.7498 31.6608 23.5021 31.6608 23.194V21.3459H32.2032V24.6002H31.6742V24.0511C31.5715 24.2476 31.4265 24.3993 31.239 24.5065C31.0559 24.6091 30.8484 24.6605 30.6162 24.6605ZM34.5237 24.6605C34.1398 24.6605 33.8519 24.56 33.6599 24.3592C33.468 24.1538 33.372 23.8592 33.372 23.4753V21.7678H32.7359V21.3459H33.372V20.3482H33.9144V21.3459H34.9456V21.7678H33.9144V23.4217C33.9144 23.6762 33.9679 23.8703 34.0751 24.0043C34.1822 24.1337 34.3563 24.1985 34.5974 24.1985C34.6688 24.1985 34.7402 24.1895 34.8116 24.1717C34.8831 24.1538 34.9478 24.136 35.0058 24.1181L35.0996 24.5333C35.0415 24.5645 34.9567 24.5935 34.8451 24.6203C34.7335 24.6471 34.6264 24.6605 34.5237 24.6605ZM36.9057 24.6605C36.5798 24.6605 36.2986 24.5913 36.062 24.4529C35.8254 24.3101 35.6424 24.1114 35.5129 23.857C35.3879 23.598 35.3254 23.2967 35.3254 22.953C35.3254 22.4351 35.466 22.0289 35.7473 21.7343C36.0285 21.4352 36.4147 21.2857 36.9057 21.2857C37.1066 21.2857 37.3052 21.3214 37.5017 21.3928C37.6981 21.4642 37.861 21.5647 37.9905 21.6941L37.803 22.0892C37.6735 21.9642 37.5307 21.8727 37.3744 21.8146C37.2226 21.7566 37.0776 21.7276 36.9392 21.7276C36.5999 21.7276 36.3388 21.8347 36.1557 22.049C35.9727 22.2588 35.8812 22.5624 35.8812 22.9597C35.8812 23.348 35.9727 23.6561 36.1557 23.8837C36.3388 24.1069 36.5999 24.2185 36.9392 24.2185C37.0776 24.2185 37.2226 24.1895 37.3744 24.1315C37.5307 24.0735 37.6735 23.9797 37.803 23.8503L37.9905 24.2453C37.861 24.3748 37.6958 24.4775 37.495 24.5533C37.2985 24.6248 37.1021 24.6605 36.9057 24.6605ZM38.6259 24.6002V19.8795H39.1682V21.8816C39.2754 21.6852 39.4249 21.5379 39.6169 21.4397C39.8133 21.337 40.032 21.2857 40.2731 21.2857C41.0454 21.2857 41.4315 21.7142 41.4315 22.5713V24.6002H40.8891V22.6048C40.8891 22.3012 40.8289 22.0803 40.7084 21.9419C40.5923 21.799 40.4048 21.7276 40.1459 21.7276C39.8468 21.7276 39.608 21.8213 39.4294 22.0088C39.2553 22.1919 39.1682 22.4374 39.1682 22.7454V24.6002H38.6259ZM46.2072 24.6605C45.7697 24.6605 45.388 24.5623 45.0621 24.3659C44.7407 24.165 44.4907 23.8837 44.3122 23.5221C44.1381 23.1606 44.051 22.732 44.051 22.2365C44.051 21.741 44.1381 21.3124 44.3122 20.9508C44.4863 20.5893 44.734 20.3103 45.0554 20.1138C45.3813 19.9174 45.7652 19.8192 46.2072 19.8192C46.6536 19.8192 47.0375 19.9174 47.3589 20.1138C47.6848 20.3103 47.9347 20.5893 48.1088 20.9508C48.2874 21.308 48.3767 21.7343 48.3767 22.2298C48.3767 22.7253 48.2874 23.1561 48.1088 23.5221C47.9303 23.8837 47.6781 24.165 47.3522 24.3659C47.0308 24.5623 46.6491 24.6605 46.2072 24.6605ZM46.2072 24.1717C46.7116 24.1717 47.1022 24.002 47.379 23.6628C47.6557 23.3235 47.7941 22.8481 47.7941 22.2365C47.7941 21.6249 47.6557 21.1517 47.379 20.8169C47.1022 20.4777 46.7116 20.308 46.2072 20.308C45.7116 20.308 45.3255 20.4777 45.0487 20.8169C44.772 21.1517 44.6336 21.6249 44.6336 22.2365C44.6336 22.8436 44.772 23.319 45.0487 23.6628C45.3255 24.002 45.7116 24.1717 46.2072 24.1717ZM50.2422 24.6002L48.8428 21.3459H49.432L50.5101 23.9842L51.6015 21.3459H52.1573L50.7511 24.6002H50.2422ZM54.1515 24.6605C53.6381 24.6605 53.2319 24.5109 52.9328 24.2118C52.6337 23.9083 52.4842 23.4976 52.4842 22.9798C52.4842 22.645 52.5511 22.3503 52.6851 22.0959C52.819 21.837 53.002 21.6383 53.2341 21.4999C53.4707 21.3571 53.743 21.2857 54.0511 21.2857C54.493 21.2857 54.839 21.4285 55.089 21.7142C55.3389 21.9954 55.4639 22.3838 55.4639 22.8793V23.0869H53.0132C53.031 23.4574 53.1382 23.7409 53.3346 23.9373C53.531 24.1293 53.8033 24.2252 54.1515 24.2252C54.3479 24.2252 54.5354 24.1962 54.714 24.1382C54.8925 24.0757 55.0622 23.9753 55.2229 23.8369L55.4104 24.2185C55.2631 24.3569 55.0756 24.4663 54.8479 24.5467C54.6202 24.6225 54.3881 24.6605 54.1515 24.6605ZM54.0645 21.6874C53.7564 21.6874 53.5131 21.7834 53.3346 21.9753C53.156 22.1673 53.0511 22.4195 53.0199 22.732H54.9952C54.9818 22.4017 54.8948 22.145 54.7341 21.962C54.5778 21.7789 54.3546 21.6874 54.0645 21.6874ZM56.2489 24.6002V21.3459H56.7779V21.9285C56.952 21.5356 57.3091 21.3191 57.8493 21.279L58.0435 21.2589L58.0836 21.7276L57.7421 21.7678C57.4341 21.7946 57.1997 21.8928 57.039 22.0624C56.8783 22.2276 56.798 22.4552 56.798 22.7454V24.6002H56.2489ZM59.6406 24.6605C59.4174 24.6605 59.2165 24.6181 59.0379 24.5333C58.8638 24.444 58.7254 24.3234 58.6228 24.1717C58.5201 24.0199 58.4688 23.8503 58.4688 23.6628C58.4688 23.4262 58.529 23.2387 58.6496 23.1003C58.7745 22.9619 58.9777 22.8637 59.2589 22.8057C59.5446 22.7432 59.933 22.7119 60.424 22.7119H60.6383V22.5043C60.6383 22.2276 60.5803 22.0289 60.4642 21.9084C60.3526 21.7834 60.1718 21.7209 59.9218 21.7209C59.7254 21.7209 59.5357 21.7499 59.3526 21.8079C59.1696 21.8615 58.9821 21.9508 58.7902 22.0758L58.6027 21.6807C58.7723 21.5602 58.9777 21.4642 59.2187 21.3928C59.4642 21.3214 59.6986 21.2857 59.9218 21.2857C60.3414 21.2857 60.6517 21.3883 60.8526 21.5937C61.0579 21.799 61.1606 22.1182 61.1606 22.5512V24.6002H60.6517V24.0377C60.5669 24.2297 60.4352 24.3815 60.2566 24.4931C60.0825 24.6047 59.8772 24.6605 59.6406 24.6605ZM59.7276 24.252C59.9955 24.252 60.2142 24.1605 60.3838 23.9775C60.5535 23.79 60.6383 23.5534 60.6383 23.2677V23.0668H60.4307C60.0691 23.0668 59.7834 23.0847 59.5736 23.1204C59.3683 23.1516 59.2232 23.2097 59.1384 23.2945C59.058 23.3748 59.0178 23.4864 59.0178 23.6293C59.0178 23.8123 59.0803 23.9619 59.2053 24.0779C59.3348 24.194 59.5089 24.252 59.7276 24.252ZM63.1646 24.6605C62.8342 24.6605 62.5842 24.5645 62.4146 24.3726C62.2494 24.1761 62.1668 23.8927 62.1668 23.5221V19.8795H62.7092V23.482C62.7092 23.9596 62.8989 24.1985 63.2784 24.1985C63.39 24.1985 63.4904 24.1851 63.5797 24.1583L63.5663 24.6136C63.4279 24.6449 63.294 24.6605 63.1646 24.6605ZM65.1459 24.6605C64.8156 24.6605 64.5656 24.5645 64.396 24.3726C64.2308 24.1761 64.1482 23.8927 64.1482 23.5221V19.8795H64.6906V23.482C64.6906 23.9596 64.8803 24.1985 65.2598 24.1985C65.3714 24.1985 65.4718 24.1851 65.5611 24.1583L65.5477 24.6136C65.4093 24.6449 65.2754 24.6605 65.1459 24.6605ZM67.923 24.6002V19.8795H69.7912C70.3001 19.8795 70.6885 19.9978 70.9564 20.2344C71.2287 20.471 71.3648 20.808 71.3648 21.2455C71.3648 21.5937 71.2688 21.8794 71.0769 22.1026C70.8894 22.3258 70.6216 22.4709 70.2734 22.5378C70.4787 22.6092 70.655 22.7833 70.8023 23.0601L71.6327 24.6002H71.03L70.2131 23.0869C70.1104 22.8994 69.9921 22.7722 69.8582 22.7052C69.7243 22.6383 69.5479 22.6048 69.3292 22.6048H68.4721V24.6002H67.923ZM68.4721 22.1695H69.7109C70.4519 22.1695 70.8224 21.8615 70.8224 21.2455C70.8224 20.6384 70.4519 20.3348 69.7109 20.3348H68.4721V22.1695ZM73.3401 24.6605C73.1169 24.6605 72.916 24.6181 72.7375 24.5333C72.5634 24.444 72.425 24.3234 72.3223 24.1717C72.2196 24.0199 72.1683 23.8503 72.1683 23.6628C72.1683 23.4262 72.2286 23.2387 72.3491 23.1003C72.4741 22.9619 72.6772 22.8637 72.9584 22.8057C73.2441 22.7432 73.6325 22.7119 74.1236 22.7119H74.3378V22.5043C74.3378 22.2276 74.2798 22.0289 74.1637 21.9084C74.0521 21.7834 73.8713 21.7209 73.6214 21.7209C73.4249 21.7209 73.2352 21.7499 73.0522 21.8079C72.8692 21.8615 72.6817 21.9508 72.4897 22.0758L72.3022 21.6807C72.4719 21.5602 72.6772 21.4642 72.9183 21.3928C73.1638 21.3214 73.3982 21.2857 73.6214 21.2857C74.041 21.2857 74.3512 21.3883 74.5521 21.5937C74.7575 21.799 74.8601 22.1182 74.8601 22.5512V24.6002H74.3512V24.0377C74.2664 24.2297 74.1347 24.3815 73.9562 24.4931C73.7821 24.6047 73.5767 24.6605 73.3401 24.6605ZM73.4272 24.252C73.695 24.252 73.9138 24.1605 74.0834 23.9775C74.253 23.79 74.3378 23.5534 74.3378 23.2677V23.0668H74.1303C73.7687 23.0668 73.483 23.0847 73.2732 23.1204C73.0678 23.1516 72.9227 23.2097 72.8379 23.2945C72.7576 23.3748 72.7174 23.4864 72.7174 23.6293C72.7174 23.8123 72.7799 23.9619 72.9049 24.0779C73.0343 24.194 73.2084 24.252 73.4272 24.252ZM77.1721 24.6605C76.7882 24.6605 76.5003 24.56 76.3083 24.3592C76.1164 24.1538 76.0204 23.8592 76.0204 23.4753V21.7678H75.3843V21.3459H76.0204V20.3482H76.5628V21.3459H77.594V21.7678H76.5628V23.4217C76.5628 23.6762 76.6163 23.8703 76.7235 24.0043C76.8306 24.1337 77.0047 24.1985 77.2458 24.1985C77.3172 24.1985 77.3886 24.1895 77.4601 24.1717C77.5315 24.1538 77.5962 24.136 77.6542 24.1181L77.748 24.5333C77.69 24.5645 77.6051 24.5935 77.4935 24.6203C77.3819 24.6471 77.2748 24.6605 77.1721 24.6605ZM78.1404 20.5357V19.9263H78.81V20.5357H78.1404ZM78.2074 24.6002V21.3459H78.7498V24.6002H78.2074ZM79.7637 24.6002V21.3459H80.2927V21.9017C80.3998 21.6963 80.5516 21.5423 80.748 21.4397C80.9445 21.337 81.1654 21.2857 81.411 21.2857C82.1832 21.2857 82.5694 21.7142 82.5694 22.5713V24.6002H82.027V22.6048C82.027 22.3012 81.9667 22.0803 81.8462 21.9419C81.7301 21.799 81.5426 21.7276 81.2837 21.7276C80.9846 21.7276 80.7458 21.8213 80.5672 22.0088C80.3932 22.1919 80.3061 22.4374 80.3061 22.7454V24.6002H79.7637ZM85.0092 25.8658C84.7279 25.8658 84.4623 25.8278 84.2123 25.7519C83.9668 25.6805 83.7481 25.5712 83.5561 25.4238L83.7369 25.0288C83.9378 25.1716 84.1364 25.2743 84.3329 25.3368C84.5337 25.3993 84.7503 25.4305 84.9824 25.4305C85.6252 25.4305 85.9466 25.1002 85.9466 24.4395V23.8636C85.8529 24.069 85.7056 24.2319 85.5047 24.3525C85.3083 24.4685 85.0828 24.5266 84.8284 24.5266C84.5293 24.5266 84.2704 24.4574 84.0516 24.319C83.8329 24.1806 83.6633 23.9909 83.5427 23.7498C83.4267 23.5043 83.3686 23.2208 83.3686 22.8994C83.3686 22.578 83.4267 22.2968 83.5427 22.0557C83.6633 21.8102 83.8329 21.6205 84.0516 21.4865C84.2704 21.3526 84.5293 21.2857 84.8284 21.2857C85.0828 21.2857 85.3083 21.3437 85.5047 21.4597C85.7056 21.5758 85.8529 21.7343 85.9466 21.9352V21.3459H86.4756V24.3659C86.4756 24.8658 86.3506 25.2408 86.1006 25.4908C85.8551 25.7408 85.4913 25.8658 85.0092 25.8658ZM84.9288 24.0846C85.2413 24.0846 85.4891 23.9775 85.6721 23.7632C85.8551 23.5489 85.9466 23.261 85.9466 22.8994C85.9466 22.5378 85.8551 22.2521 85.6721 22.0423C85.4891 21.828 85.2413 21.7209 84.9288 21.7209C84.6208 21.7209 84.3753 21.828 84.1922 22.0423C84.0092 22.2521 83.9177 22.5378 83.9177 22.8994C83.9177 23.261 84.0092 23.5489 84.1922 23.7632C84.3753 23.9775 84.6208 24.0846 84.9288 24.0846ZM89.2128 24.6002V21.3459H89.7418V21.9285C89.9159 21.5356 90.273 21.3191 90.8132 21.279L91.0074 21.2589L91.0475 21.7276L90.706 21.7678C90.398 21.7946 90.1637 21.8928 90.0029 22.0624C89.8422 22.2276 89.7619 22.4552 89.7619 22.7454V24.6002H89.2128ZM93.0399 24.6605C92.5265 24.6605 92.1203 24.5109 91.8212 24.2118C91.5221 23.9083 91.3726 23.4976 91.3726 22.9798C91.3726 22.645 91.4395 22.3503 91.5734 22.0959C91.7074 21.837 91.8904 21.6383 92.1225 21.4999C92.3591 21.3571 92.6314 21.2857 92.9394 21.2857C93.3814 21.2857 93.7274 21.4285 93.9773 21.7142C94.2273 21.9954 94.3523 22.3838 94.3523 22.8793V23.0869H91.9015C91.9194 23.4574 92.0265 23.7409 92.223 23.9373C92.4194 24.1293 92.6917 24.2252 93.0399 24.2252C93.2363 24.2252 93.4238 24.1962 93.6024 24.1382C93.7809 24.0757 93.9506 23.9753 94.1113 23.8369L94.2988 24.2185C94.1514 24.3569 93.9639 24.4663 93.7363 24.5467C93.5086 24.6225 93.2765 24.6605 93.0399 24.6605ZM92.9528 21.6874C92.6448 21.6874 92.4015 21.7834 92.223 21.9753C92.0444 22.1673 91.9395 22.4195 91.9082 22.732H93.8836C93.8702 22.4017 93.7832 22.145 93.6224 21.962C93.4662 21.7789 93.243 21.6874 92.9528 21.6874ZM96.0556 24.6002L94.6561 21.3459H95.2454L96.3234 23.9842L97.4149 21.3459H97.9707L96.5645 24.6002H96.0556ZM98.4772 20.5357V19.9263H99.1468V20.5357H98.4772ZM98.5442 24.6002V21.3459H99.0866V24.6002H98.5442ZM101.567 24.6605C101.054 24.6605 100.647 24.5109 100.348 24.2118C100.049 23.9083 99.8996 23.4976 99.8996 22.9798C99.8996 22.645 99.9666 22.3503 100.101 22.0959C100.234 21.837 100.417 21.6383 100.65 21.4999C100.886 21.3571 101.158 21.2857 101.467 21.2857C101.908 21.2857 102.254 21.4285 102.504 21.7142C102.754 21.9954 102.879 22.3838 102.879 22.8793V23.0869H100.429C100.446 23.4574 100.554 23.7409 100.75 23.9373C100.946 24.1293 101.219 24.2252 101.567 24.2252C101.763 24.2252 101.951 24.1962 102.129 24.1382C102.308 24.0757 102.478 23.9753 102.638 23.8369L102.826 24.2185C102.679 24.3569 102.491 24.4663 102.263 24.5467C102.036 24.6225 101.804 24.6605 101.567 24.6605ZM101.48 21.6874C101.172 21.6874 100.929 21.7834 100.75 21.9753C100.571 22.1673 100.467 22.4195 100.435 22.732H102.411C102.397 22.4017 102.31 22.145 102.15 21.962C101.993 21.7789 101.77 21.6874 101.48 21.6874ZM104.489 24.6002L103.277 21.3459H103.846L104.763 23.9641L105.714 21.3459H106.176L107.114 23.9708L108.045 21.3459H108.587L107.368 24.6002H106.853L105.935 22.0758L105.011 24.6002H104.489ZM112.575 24.6605C112.272 24.6605 111.982 24.6114 111.705 24.5132C111.428 24.415 111.194 24.2766 111.002 24.098L111.209 23.6628C111.625 24.002 112.078 24.1717 112.569 24.1717C112.895 24.1717 113.151 24.0802 113.339 23.8971C113.526 23.7141 113.62 23.473 113.62 23.174C113.62 22.8659 113.531 22.6137 113.352 22.4173C113.174 22.2209 112.928 22.1227 112.616 22.1227C112.165 22.1227 111.81 22.3102 111.551 22.6851H111.149V19.8795H113.888V20.3482H111.692V22.0356C111.951 21.7767 112.292 21.6472 112.716 21.6472C113.011 21.6472 113.267 21.7097 113.486 21.8347C113.705 21.9597 113.872 22.1361 113.988 22.3637C114.109 22.5869 114.169 22.8481 114.169 23.1472C114.169 23.4418 114.104 23.7029 113.975 23.9306C113.846 24.1583 113.66 24.3368 113.419 24.4663C113.183 24.5958 112.901 24.6605 112.575 24.6605ZM114.903 24.6002V23.9172H115.586V24.6002H114.903ZM118.014 24.6605C117.474 24.6605 117.063 24.4529 116.782 24.0377C116.5 23.6226 116.36 23.0222 116.36 22.2365C116.36 21.4464 116.5 20.8459 116.782 20.4352C117.063 20.0246 117.474 19.8192 118.014 19.8192C118.558 19.8192 118.969 20.0246 119.246 20.4352C119.527 20.8415 119.668 21.4397 119.668 22.2298C119.668 23.0199 119.525 23.6226 119.239 24.0377C118.958 24.4529 118.549 24.6605 118.014 24.6605ZM118.014 24.1851C118.389 24.1851 118.665 24.0266 118.844 23.7096C119.027 23.3927 119.119 22.8994 119.119 22.2298C119.119 21.5602 119.029 21.0714 118.851 20.7634C118.672 20.4509 118.393 20.2946 118.014 20.2946C117.639 20.2946 117.36 20.4509 117.177 20.7634C116.998 21.0758 116.909 21.5647 116.909 22.2298C116.909 22.8994 116.998 23.3927 117.177 23.7096C117.36 24.0266 117.639 24.1851 118.014 24.1851Z" fill="#828282"/>
<g clip-path="url(#clip2_6144_26424)">
<path d="M51.986 8.4911C52.7106 8.4911 53.2981 7.92044 53.2981 7.2165C53.2981 6.51255 52.7106 5.94189 51.986 5.94189C51.2613 5.94189 50.6738 6.51255 50.6738 7.2165C50.6738 7.92044 51.2613 8.4911 51.986 8.4911Z" fill="#E62415"/>
<path d="M32.8869 0H34.6233V10.8773H32.8869V0ZM40.9472 7.52304C40.9472 9.20973 39.5265 9.3439 39.0924 9.3439C38.0072 9.3439 37.8493 8.3568 37.8493 7.76262V3.55547H36.1031V7.75304C36.0933 8.79764 36.3991 9.66015 36.991 10.2352C37.5286 10.7007 38.2135 10.9743 38.9327 11.0109C39.6519 11.0475 40.3625 10.8448 40.9472 10.4364V10.8773H42.6934V3.55547H40.9472V7.52304ZM46.4621 1.09252H44.7159V3.55547H43.5024V5.15592H44.7159V10.8773H46.4621V5.15592H47.8926V3.55547H46.4621V1.09252ZM53.5456 8.79764C53.151 9.14265 52.6281 9.33432 52.0559 9.33432C51.7652 9.34232 51.4759 9.29243 51.2058 9.18774C50.9357 9.08305 50.6905 8.92576 50.4854 8.72555C50.2802 8.52535 50.1194 8.28648 50.0128 8.02363C49.9063 7.76079 49.8562 7.47954 49.8657 7.1972C49.8657 5.96093 50.7635 5.09841 52.0559 5.09841C52.6183 5.09841 53.151 5.2805 53.5555 5.62551L53.8318 5.85551L55.0551 4.66716L54.7493 4.39882C54.0084 3.75695 53.0486 3.40518 52.0559 3.41172C49.7868 3.41172 48.1393 5.00258 48.1393 7.18761C48.1272 7.69135 48.2201 8.19224 48.4124 8.6602C48.6047 9.12816 48.8925 9.55351 49.2583 9.91069C49.6242 10.2679 50.0606 10.5495 50.5414 10.7387C51.0221 10.9278 51.5373 11.0206 52.0559 11.0114C53.0918 11.0114 54.0587 10.6568 54.769 10.0147L55.065 9.74641L53.8219 8.55805L53.5456 8.79764ZM61.6059 4.19757C61.0683 3.73205 60.3834 3.45844 59.6642 3.42185C58.945 3.38527 58.2345 3.58789 57.6498 3.99631V0H55.9035V10.8773H57.6498V6.91928C57.6498 5.23258 59.0704 5.09841 59.5045 5.09841C60.5897 5.09841 60.7476 6.08551 60.7476 6.67969V10.8868H62.4938V6.67969C62.5465 5.77093 62.2274 4.87877 61.6059 4.19757ZM30.312 8.27055C29.9722 8.60956 29.5656 8.8785 29.1164 9.06128C28.6672 9.24406 28.1846 9.33693 27.6976 9.33432C25.6751 9.33432 24.2051 7.79137 24.2051 5.67342C24.2051 3.54589 25.6751 2.00295 27.6976 2.00295C28.6743 2.00295 29.6016 2.3767 30.3021 3.05713L30.5783 3.32547L31.7918 2.1467L31.5254 1.87836C31.0249 1.38379 30.4274 0.99162 29.7683 0.724976C29.1091 0.458331 28.4017 0.322617 27.6877 0.325839C24.7181 0.325839 22.4688 2.62588 22.4688 5.68301C22.4688 8.72097 24.7181 11.021 27.6877 11.021C29.1577 11.021 30.5191 10.4652 31.5254 9.4589L31.7918 9.19056L30.5882 7.99263L30.312 8.27055Z" fill="#272727"/>
</g>
<path d="M86.7721 5.70874C86.7387 5.64102 86.6697 5.59814 86.5942 5.59814C86.5187 5.59814 86.4497 5.64102 86.4163 5.70874L85.6041 7.35449L83.7881 7.61821C83.7133 7.62906 83.6512 7.68141 83.6279 7.75323C83.6045 7.82506 83.624 7.90391 83.6781 7.95662L84.9922 9.23759L84.6819 11.0465C84.6691 11.121 84.6997 11.1962 84.7608 11.2406C84.8219 11.285 84.9029 11.2908 84.9698 11.2557L86.5942 10.4016L88.2186 11.2557C88.2855 11.2908 88.3665 11.285 88.4276 11.2406C88.4887 11.1962 88.5193 11.121 88.5065 11.0465L88.1962 9.23759L89.5103 7.95662C89.5644 7.90391 89.5839 7.82506 89.5605 7.75323C89.5372 7.68141 89.4751 7.62906 89.4004 7.61821L87.5843 7.35449L86.7721 5.70874Z" fill="#FFB45A"/>
<path d="M94.5846 5.70874C94.5512 5.64102 94.4822 5.59814 94.4067 5.59814C94.3312 5.59814 94.2622 5.64102 94.2288 5.70874L93.4166 7.35449L91.6006 7.61821C91.5258 7.62906 91.4637 7.68141 91.4404 7.75323C91.417 7.82506 91.4365 7.90391 91.4906 7.95662L92.8047 9.23759L92.4944 11.0465C92.4816 11.121 92.5122 11.1962 92.5733 11.2406C92.6344 11.285 92.7154 11.2908 92.7823 11.2557L94.4067 10.4016L96.0311 11.2557C96.098 11.2908 96.179 11.285 96.2401 11.2406C96.3012 11.1962 96.3318 11.121 96.319 11.0465L96.0087 9.23759L97.3228 7.95662C97.3769 7.90391 97.3964 7.82506 97.373 7.75323C97.3497 7.68141 97.2876 7.62906 97.2129 7.61821L95.3968 7.35449L94.5846 5.70874Z" fill="#FFB45A"/>
<path d="M102.396 5.70874C102.363 5.64102 102.294 5.59814 102.218 5.59814C102.143 5.59814 102.074 5.64102 102.04 5.70874L101.228 7.35449L99.4121 7.61821C99.3373 7.62906 99.2752 7.68141 99.2519 7.75323C99.2286 7.82506 99.248 7.90391 99.3021 7.95662L100.616 9.23759L100.306 11.0465C100.293 11.121 100.324 11.1962 100.385 11.2406C100.446 11.285 100.527 11.2908 100.594 11.2557L102.218 10.4016L103.843 11.2557C103.91 11.2908 103.991 11.285 104.052 11.2406C104.113 11.1962 104.143 11.121 104.131 11.0465L103.82 9.23759L105.134 7.95662C105.188 7.90391 105.208 7.82506 105.185 7.75323C105.161 7.68141 105.099 7.62906 105.024 7.61821L103.208 7.35449L102.396 5.70874Z" fill="#FFB45A"/>
<path d="M110.209 5.70874C110.175 5.64102 110.106 5.59814 110.031 5.59814C109.955 5.59814 109.886 5.64102 109.853 5.70874L109.041 7.35449L107.225 7.61821C107.15 7.62906 107.088 7.68141 107.064 7.75323C107.041 7.82506 107.061 7.90391 107.115 7.95662L108.429 9.23759L108.118 11.0465C108.106 11.121 108.136 11.1962 108.197 11.2406C108.258 11.285 108.339 11.2908 108.406 11.2557L110.031 10.4016L111.655 11.2557C111.722 11.2908 111.803 11.285 111.864 11.2406C111.925 11.1962 111.956 11.121 111.943 11.0465L111.633 9.23759L112.947 7.95662C113.001 7.90391 113.02 7.82506 112.997 7.75323C112.974 7.68141 112.912 7.62906 112.837 7.61821L111.021 7.35449L110.209 5.70874Z" fill="#FFB45A"/>
<path d="M118.02 5.70874C117.987 5.64102 117.918 5.59814 117.842 5.59814C117.767 5.59814 117.698 5.64102 117.664 5.70874L116.852 7.35449L115.036 7.61821C114.961 7.62906 114.899 7.68141 114.876 7.75323C114.853 7.82506 114.872 7.90391 114.926 7.95662L116.24 9.23759L115.93 11.0465C115.917 11.121 115.948 11.1962 116.009 11.2406C116.07 11.285 116.151 11.2908 116.218 11.2557L117.842 10.4016L119.467 11.2557C119.534 11.2908 119.615 11.285 119.676 11.2406C119.737 11.1962 119.767 11.121 119.755 11.0465L119.444 9.23759L120.758 7.95662C120.812 7.90391 120.832 7.82506 120.809 7.75323C120.785 7.68141 120.723 7.62906 120.648 7.61821L118.832 7.35449L118.02 5.70874Z" fill="#FFB45A"/>
<path d="M68.5735 12.4801C68.2362 11.9296 67.9907 11.374 67.837 10.8135C67.6882 10.2481 67.6138 9.67024 67.6138 9.07999C67.6138 8.48975 67.6882 7.91438 67.837 7.35389C67.9907 6.78844 68.2362 6.23043 68.5735 5.67986L69.1018 5.88819C68.8637 6.44867 68.6901 6.98436 68.581 7.49525C68.4718 8.00614 68.4173 8.53439 68.4173 9.07999C68.4173 9.62064 68.4718 10.1489 68.581 10.6647C68.6901 11.1756 68.8637 11.7113 69.1018 12.2718L68.5735 12.4801ZM71.6756 11.1037C71.3383 11.1037 71.0109 11.0516 70.6935 10.9475C70.381 10.8383 70.1206 10.6871 69.9123 10.4936L70.1727 9.89841C70.629 10.2655 71.125 10.449 71.6607 10.449C72.003 10.449 72.2708 10.3572 72.4642 10.1737C72.6577 9.98521 72.7544 9.73968 72.7544 9.43712C72.7544 9.12463 72.6626 8.86919 72.4791 8.67079C72.2956 8.47238 72.0402 8.37318 71.7128 8.37318C71.2515 8.37318 70.882 8.56415 70.6042 8.94607H70.0685V5.79146H73.1934V6.43875H70.82V8.0979C71.0977 7.85486 71.4499 7.73333 71.8765 7.73333C72.2088 7.73333 72.4965 7.80277 72.7395 7.94166C72.9826 8.08054 73.1711 8.27646 73.305 8.52943C73.4389 8.77743 73.5059 9.06759 73.5059 9.39992C73.5059 9.7372 73.4315 10.0348 73.2827 10.2927C73.1339 10.5457 72.9231 10.7441 72.6502 10.8879C72.3774 11.0318 72.0526 11.1037 71.6756 11.1037ZM74.2618 11.0367V10.1514H75.1472V11.0367H74.2618ZM77.8205 11.1037C77.2104 11.1037 76.7441 10.8731 76.4217 10.4118C76.1043 9.94553 75.9456 9.2784 75.9456 8.41038C75.9456 7.52749 76.1043 6.86036 76.4217 6.40899C76.7441 5.95267 77.2104 5.7245 77.8205 5.7245C78.4355 5.7245 78.9018 5.95267 79.2192 6.40899C79.5367 6.86036 79.6954 7.52501 79.6954 8.40294C79.6954 9.27592 79.5342 9.94553 79.2118 10.4118C78.8943 10.8731 78.4306 11.1037 77.8205 11.1037ZM77.8205 10.4639C78.1974 10.4639 78.4777 10.2977 78.6612 9.96537C78.8447 9.63304 78.9365 9.11223 78.9365 8.40294C78.9365 7.69365 78.8447 7.17781 78.6612 6.8554C78.4827 6.52804 78.2024 6.36435 77.8205 6.36435C77.4435 6.36435 77.1633 6.52804 76.9798 6.8554C76.7962 7.18277 76.7045 7.69861 76.7045 8.40294C76.7045 9.11223 76.7962 9.63304 76.9798 9.96537C77.1633 10.2977 77.4435 10.4639 77.8205 10.4639ZM80.8383 12.4801L80.31 12.2718C80.5431 11.7014 80.7143 11.1607 80.8234 10.6499C80.9325 10.139 80.9871 9.61568 80.9871 9.07999C80.9871 8.54431 80.9325 8.02102 80.8234 7.51013C80.7143 6.99924 80.5431 6.45859 80.31 5.88819L80.8383 5.67986C81.1755 6.23539 81.4186 6.79588 81.5674 7.36133C81.7212 7.92182 81.798 8.49471 81.798 9.07999C81.798 9.67024 81.7212 10.2481 81.5674 10.8135C81.4186 11.374 81.1755 11.9296 80.8383 12.4801Z" fill="#272727"/>
</g>
<g clip-path="url(#clip3_6144_26424)">
<path d="M7.56017 3.61743C7.02923 4.48948 6.47348 5.52253 6.11485 6.55449C5.47855 8.38545 4.92493 10.3742 4.53995 12.2864C4.27987 13.578 4.03821 15.4677 4.03112 16.7791C4.02174 18.5244 4.08616 19.7145 4.43645 21.4659C4.92995 23.9334 6.02674 26.1939 7.50983 28.1181C9.69184 30.949 13.3086 32.4931 16.6993 33.537C19.3518 34.3535 22.3956 34.2852 24.9988 34.066L24.9524 33.3394C22.3734 33.5571 19.5405 33.5661 16.9974 32.7815C13.7261 31.7721 10.4282 30.2229 8.13955 27.621C6.74609 26.0373 5.70785 24.0739 5.12754 21.9768C4.61918 20.1396 4.50383 18.117 4.44148 16.2585C4.39029 14.7306 4.55352 13.4469 4.82735 12.0478C5.17451 10.274 5.63012 8.49013 6.20206 6.78956C6.5723 5.68877 7.21758 4.55177 7.75183 3.67431L7.56017 3.61743Z" fill="#828282"/>
<path d="M20.0281 34.0687C20.0281 34.0687 18.2293 34.2887 17.0475 35.012C15.1714 36.1603 15.5474 37.4919 15.5474 37.4919C15.5474 37.4919 16.5666 37.6263 18.1867 36.651C20.0847 35.5084 20.0281 34.0687 20.0281 34.0687Z" fill="#828282"/>
<path d="M16.5156 33.439C16.5156 33.439 14.9044 33.4118 13.6518 34C11.4833 35.0181 11.8777 36.25 11.8777 36.25C11.8777 36.25 12.9233 36.4635 14.6553 35.6375C16.6527 34.6849 16.5156 33.439 16.5156 33.439Z" fill="#828282"/>
<path d="M13.6562 32.3921C13.6562 32.3921 11.8941 31.8523 10.5362 32.104C8.1853 32.5395 8.04395 34.1066 8.04395 34.1066C8.04395 34.1066 9.25599 34.6998 11.1367 34.3395C13.3057 33.924 13.6562 32.3921 13.6562 32.3921Z" fill="#828282"/>
<path d="M10.0667 30.4045C10.0667 30.4045 8.47282 29.7488 6.79131 29.9685C4.59689 30.2552 4.21928 31.8497 4.20605 31.8914C4.20605 31.8914 5.44619 32.5351 7.29022 32.2186C9.76369 31.7941 10.0667 30.4045 10.0667 30.4045Z" fill="#828282"/>
<path d="M7.92482 28.4936C7.92482 28.4936 6.22661 27.4058 4.40153 27.3634C2.62843 27.3221 1.83704 28.417 1.82129 28.4528C1.82129 28.4528 3.18864 29.4933 4.8605 29.5239C7.13205 29.5654 7.92482 28.4936 7.92482 28.4936Z" fill="#828282"/>
<path d="M6.65776 26.5349C5.893 26.2705 5.23086 24.8996 3.96005 24.1249C2.18718 23.0441 0.475784 23.9696 0.456055 23.9966C0.456055 23.9966 1.52234 25.8692 3.38889 26.4383C5.37256 27.043 6.65776 26.5349 6.65776 26.5349Z" fill="#828282"/>
<path d="M5.03035 23.3004C5.03035 23.3004 4.31958 21.5734 3.29741 20.484C1.87149 18.9645 0.0261298 19.3868 0 19.4074C0 19.4074 0.590497 21.4625 2.24081 22.514C3.99473 23.6314 5.03035 23.3004 5.03035 23.3004Z" fill="#828282"/>
<path d="M4.31556 19.7799C4.31556 19.7799 4.01165 18.1952 3.23293 16.9157C2.05927 14.9871 0.294307 15.277 0.265625 15.2938C0.265625 15.2938 0.576226 17.4376 2.06928 18.7079C3.65605 20.058 4.31556 19.7799 4.31556 19.7799Z" fill="#828282"/>
<path d="M4.16439 15.7159C4.16439 15.7159 4.13222 14.1706 3.44979 12.8358C2.50265 10.9832 0.875628 10.7654 0.845041 10.7782C0.845041 10.7782 0.123062 12.4588 1.90287 14.5415C2.9825 15.8048 4.16439 15.7159 4.16439 15.7159Z" fill="#828282"/>
<path d="M4.66306 12.0877C4.66306 12.0877 4.90732 10.4436 4.52763 8.99017C4.17115 7.62565 3.04568 6.47845 2.87566 6.40369C2.87566 6.40369 1.81682 7.60227 2.87967 9.84188C3.59453 11.3483 4.66306 12.0877 4.66306 12.0877Z" fill="#828282"/>
<path d="M5.6077 8.37315C5.6077 8.37315 6.10827 6.88018 5.71977 5.33278C5.39757 4.0506 4.60967 2.8588 4.24533 2.63855C4.24533 2.63855 3.33773 4.01722 4.1481 6.07395C4.75975 7.62626 5.40917 8.19992 5.6077 8.37315Z" fill="#828282"/>
<path d="M6.4306 5.9834C6.4306 5.9834 8.3083 5.20051 8.98436 4.23726C9.74115 3.15904 10.1615 1.38143 10.0694 0.961426C10.0694 0.961426 8.1291 0.987002 7.20905 2.99568C6.51464 4.51172 6.41871 5.7181 6.4306 5.9834Z" fill="#828282"/>
<path d="M5.40723 9.18038C5.40723 9.18038 5.82102 7.72454 7.21804 6.75441C8.29488 6.00666 9.28103 5.78526 10.0115 5.86058C10.0115 5.86058 9.63896 7.42865 8.00224 8.37473C6.57004 9.20257 5.66911 9.17365 5.40723 9.18038Z" fill="#828282"/>
<path d="M4.66406 12.4398C4.66406 12.4398 5.05476 11.0462 6.45184 10.0761C7.52869 9.32838 8.18666 9.28388 8.91721 9.35921C8.91721 9.35921 8.70004 10.7911 7.06334 11.7372C5.63113 12.5651 4.92593 12.4331 4.66406 12.4398Z" fill="#828282"/>
<path d="M4.30469 16.4112C4.30469 16.4112 4.53523 14.8092 5.68502 13.5488C6.8632 12.2572 7.74402 12.2094 8.47658 12.1581C8.4129 12.5538 8.16264 14.1966 7.00756 15.187C5.74875 16.2663 4.56164 16.3596 4.30469 16.4112Z" fill="#828282"/>
<path d="M4.50781 19.6978C4.50781 19.6978 4.62477 18.0831 5.68264 16.7426C6.76669 15.3688 7.64184 15.2573 8.36891 15.153C8.33332 15.5524 8.19961 17.209 7.11739 18.2807C5.93792 19.4485 4.76045 19.6276 4.50781 19.6978Z" fill="#828282"/>
<path d="M5.44727 23.2824C5.69906 22.2213 5.64946 21.2281 6.20132 19.9626C6.88125 18.4037 8.00913 18.2816 8.70438 18.0419C8.65622 18.8165 8.60639 20.0298 7.92301 21.2411C7.10446 22.6921 5.68264 23.1658 5.44727 23.2824Z" fill="#828282"/>
<path d="M6.89648 26.3163C7.02963 25.2334 6.97712 24.4611 7.38587 23.1411C7.88948 21.5147 8.94977 21.2742 9.6142 20.9572C9.65183 21.7323 9.65943 22.9144 9.11405 24.1957C8.46076 25.7305 7.11746 26.1738 6.89648 26.3163Z" fill="#828282"/>
<path d="M8.65039 28.4594C8.88084 26.8973 8.66118 26.669 8.96761 25.3207C9.29673 23.8727 10.3337 23.4309 10.9709 23.0608C11.0697 23.8305 11.1745 24.8848 10.7228 26.2032C10.2411 27.6091 9.22602 27.924 8.65039 28.4594Z" fill="#828282"/>
<path d="M10.992 30.2736C10.9998 28.9819 10.6172 28.3537 10.7239 27.3915C10.8984 25.8178 11.5891 25.4353 12.2264 25.0653C12.3863 26.8522 12.5124 26.8027 12.3487 28.0113C12.1894 29.1874 11.4717 29.6661 10.992 30.2736Z" fill="#828282"/>
<path d="M13.4214 31.5865C13.1869 30.3168 12.7491 30.0968 12.6735 29.1316C12.5497 27.5529 13.1562 27.0443 13.7125 26.5582C14.0464 27.5024 14.4164 28.0286 14.3551 29.247C14.3118 30.1074 13.7785 30.8977 13.4214 31.5865Z" fill="#828282"/>
<path d="M15.4959 27.9268C15.4959 27.9268 16.5386 28.7586 16.9186 30.1042C17.4572 32.0106 16.6357 32.7116 16.6357 32.7116C16.6357 32.7116 15.736 32.1466 15.0527 30.4743C14.3229 28.6881 15.4959 27.9268 15.4959 27.9268Z" fill="#828282"/>
<path d="M18.3163 28.8229C18.3163 28.8229 19.3655 29.668 19.8119 30.9925C20.3841 32.6898 19.6883 33.5008 19.6883 33.5008C19.6883 33.5008 18.7288 32.848 18.0918 31.4893C17.1192 29.4145 18.3163 28.8229 18.3163 28.8229Z" fill="#828282"/>
</g>
<g clip-path="url(#clip4_6144_26424)">
<path d="M136.073 3.61743C136.604 4.48948 137.16 5.52253 137.518 6.55449C138.155 8.38545 138.709 10.3742 139.093 12.2864C139.354 13.578 139.595 15.4677 139.602 16.7791C139.612 18.5244 139.547 19.7145 139.197 21.4659C138.704 23.9334 137.607 26.1939 136.123 28.1181C133.942 30.949 130.325 32.4931 126.934 33.537C124.282 34.3535 121.238 34.2852 118.635 34.066L118.681 33.3394C121.261 33.5571 124.093 33.5661 126.636 32.7815C129.907 31.7721 133.205 30.2229 135.494 27.621C136.888 26.0373 137.926 24.0739 138.506 21.9768C139.015 20.1396 139.13 18.117 139.192 16.2585C139.243 14.7306 139.08 13.4469 138.806 12.0478C138.459 10.274 138.003 8.49013 137.432 6.78956C137.061 5.68877 136.416 4.55177 135.882 3.67431L136.073 3.61743Z" fill="#828282"/>
<path d="M123.606 34.0687C123.606 34.0687 125.404 34.2887 126.585 35.012C128.462 36.1603 128.086 37.4919 128.086 37.4919C128.086 37.4919 127.067 37.6263 125.447 36.651C123.549 35.5084 123.606 34.0687 123.606 34.0687Z" fill="#828282"/>
<path d="M127.118 33.439C127.118 33.439 128.73 33.4118 129.982 34C132.151 35.0181 131.756 36.25 131.756 36.25C131.756 36.25 130.71 36.4635 128.979 35.6375C126.982 34.6849 127.118 33.439 127.118 33.439Z" fill="#828282"/>
<path d="M129.978 32.3921C129.978 32.3921 131.74 31.8523 133.098 32.104C135.448 32.5395 135.59 34.1066 135.59 34.1066C135.59 34.1066 134.377 34.6998 132.497 34.3395C130.328 33.924 129.978 32.3921 129.978 32.3921Z" fill="#828282"/>
<path d="M133.566 30.4045C133.566 30.4045 135.161 29.7488 136.842 29.9685C139.036 30.2552 139.414 31.8497 139.428 31.8914C139.428 31.8914 138.187 32.5351 136.343 32.2186C133.87 31.7941 133.566 30.4045 133.566 30.4045Z" fill="#828282"/>
<path d="M135.709 28.4936C135.709 28.4936 137.407 27.4058 139.232 27.3634C141.005 27.3221 141.796 28.417 141.813 28.4528C141.813 28.4528 140.444 29.4933 138.773 29.5239C136.501 29.5654 135.709 28.4936 135.709 28.4936Z" fill="#828282"/>
<path d="M136.976 26.5349C137.74 26.2705 138.402 24.8996 139.674 24.1249C141.446 23.0441 143.157 23.9696 143.177 23.9966C143.177 23.9966 142.111 25.8692 140.245 26.4383C138.261 27.043 136.976 26.5349 136.976 26.5349Z" fill="#828282"/>
<path d="M138.603 23.3004C138.603 23.3004 139.313 21.5734 140.336 20.484C141.762 18.9645 143.607 19.3868 143.633 19.4074C143.633 19.4074 143.043 21.4625 141.392 22.514C139.638 23.6314 138.603 23.3004 138.603 23.3004Z" fill="#828282"/>
<path d="M139.318 19.7799C139.318 19.7799 139.622 18.1952 140.401 16.9157C141.575 14.9871 143.339 15.277 143.368 15.2938C143.368 15.2938 143.058 17.4376 141.564 18.7079C139.978 20.058 139.318 19.7799 139.318 19.7799Z" fill="#828282"/>
<path d="M139.469 15.7159C139.469 15.7159 139.501 14.1706 140.183 12.8358C141.13 10.9832 142.758 10.7654 142.788 10.7782C142.788 10.7782 143.51 12.4588 141.73 14.5415C140.65 15.8048 139.469 15.7159 139.469 15.7159Z" fill="#828282"/>
<path d="M138.97 12.0877C138.97 12.0877 138.726 10.4436 139.105 8.99017C139.462 7.62565 140.588 6.47845 140.757 6.40369C140.757 6.40369 141.817 7.60227 140.753 9.84188C140.039 11.3483 138.97 12.0877 138.97 12.0877Z" fill="#828282"/>
<path d="M138.025 8.37315C138.025 8.37315 137.525 6.88018 137.913 5.33278C138.236 4.0506 139.023 2.8588 139.387 2.63855C139.387 2.63855 140.295 4.01722 139.485 6.07395C138.873 7.62626 138.224 8.19992 138.025 8.37315Z" fill="#828282"/>
<path d="M137.203 5.9834C137.203 5.9834 135.325 5.20051 134.649 4.23726C133.892 3.15904 133.472 1.38143 133.564 0.961426C133.564 0.961426 135.505 0.987002 136.424 2.99568C137.119 4.51172 137.214 5.7181 137.203 5.9834Z" fill="#828282"/>
<path d="M138.227 9.18038C138.227 9.18038 137.812 7.72454 136.415 6.75441C135.338 6.00666 134.353 5.78526 133.622 5.86058C133.622 5.86058 133.994 7.42865 135.632 8.37473C137.063 9.20257 137.964 9.17365 138.227 9.18038Z" fill="#828282"/>
<path d="M138.969 12.4398C138.969 12.4398 138.579 11.0462 137.182 10.0761C136.105 9.32838 135.447 9.28388 134.717 9.35921C134.717 9.35921 134.933 10.7911 136.571 11.7372C138.002 12.5651 138.708 12.4331 138.969 12.4398Z" fill="#828282"/>
<path d="M139.329 16.4112C139.329 16.4112 139.098 14.8092 137.948 13.5488C136.771 12.2572 135.89 12.2094 135.157 12.1581C135.221 12.5538 135.471 14.1966 136.626 15.187C137.885 16.2663 139.072 16.3596 139.329 16.4112Z" fill="#828282"/>
<path d="M139.126 19.6978C139.126 19.6978 139.009 18.0831 137.951 16.7426C136.866 15.3688 135.992 15.2573 135.265 15.153C135.3 15.5524 135.434 17.209 136.517 18.2807C137.695 19.4485 138.873 19.6276 139.126 19.6978Z" fill="#828282"/>
<path d="M138.186 23.2824C137.934 22.2213 137.984 21.2281 137.432 19.9626C136.753 18.4037 135.625 18.2816 134.93 18.0419C134.978 18.8165 135.027 20.0298 135.71 21.2411C136.53 22.6921 137.951 23.1658 138.186 23.2824Z" fill="#828282"/>
<path d="M136.738 26.3163C136.604 25.2334 136.657 24.4611 136.248 23.1411C135.745 21.5147 134.684 21.2742 134.02 20.9572C133.982 21.7323 133.975 22.9144 134.52 24.1957C135.174 25.7305 136.517 26.1738 136.738 26.3163Z" fill="#828282"/>
<path d="M134.983 28.4594C134.752 26.8973 134.972 26.669 134.666 25.3207C134.337 23.8727 133.299 23.4309 132.662 23.0608C132.564 23.8305 132.458 24.8848 132.91 26.2032C133.392 27.6091 134.407 27.924 134.983 28.4594Z" fill="#828282"/>
<path d="M132.641 30.2736C132.633 28.9819 133.016 28.3537 132.909 27.3915C132.734 25.8178 132.044 25.4353 131.407 25.0653C131.247 26.8522 131.121 26.8027 131.284 28.0113C131.444 29.1874 132.161 29.6661 132.641 30.2736Z" fill="#828282"/>
<path d="M130.212 31.5865C130.445 30.3168 130.884 30.0968 130.96 29.1316C131.083 27.5529 130.476 27.0443 129.92 26.5582C129.587 27.5024 129.216 28.0286 129.277 29.247C129.321 30.1074 129.854 30.8977 130.212 31.5865Z" fill="#828282"/>
<path d="M128.138 27.9268C128.138 27.9268 127.095 28.7586 126.715 30.1042C126.177 32.0106 126.998 32.7116 126.998 32.7116C126.998 32.7116 127.898 32.1466 128.581 30.4743C129.311 28.6881 128.138 27.9268 128.138 27.9268Z" fill="#828282"/>
<path d="M125.317 28.8229C125.317 28.8229 124.268 29.668 123.822 30.9925C123.249 32.6898 123.945 33.5008 123.945 33.5008C123.945 33.5008 124.905 32.848 125.542 31.4893C126.514 29.4145 125.317 28.8229 125.317 28.8229Z" fill="#828282"/>
</g>
</g>
<defs>
<clipPath id="clip0_6144_26424">
<rect width="144" height="38.0001" fill="white"/>
</clipPath>
<clipPath id="clip1_6144_26424">
<rect width="100.174" height="26.7844" fill="white" transform="translate(21.9629)"/>
</clipPath>
<clipPath id="clip2_6144_26424">
<rect width="40.3957" height="11.1602" fill="white" transform="translate(22.4688)"/>
</clipPath>
<clipPath id="clip3_6144_26424">
<rect width="25.713" height="37.4982" fill="white"/>
</clipPath>
<clipPath id="clip4_6144_26424">
<rect width="25.713" height="37.4982" fill="white" transform="translate(117.852)"/>
</clipPath>
</defs>
</svg>
