<svg width="50" height="50" viewBox="0 0 50 50" fill="none" xmlns="http://www.w3.org/2000/svg">
<path d="M31.9444 15.9777H33.4259L37.6481 11.7555L37.8555 9.9629C35.4368 7.82801 32.5137 6.34499 29.3624 5.65391C26.2111 4.96282 22.9357 5.0865 19.8455 6.01326C16.7553 6.94002 13.9524 8.63926 11.7016 10.9505C9.45068 13.2617 7.82616 16.1085 6.98145 19.2222C7.45182 19.0294 7.97287 18.9981 8.46293 19.1333L16.9074 17.7407C16.9074 17.7407 17.337 17.0296 17.5592 17.074C19.3686 15.0868 21.8691 13.8664 24.5489 13.6626C27.2286 13.4588 29.885 14.287 31.974 15.9777H31.9444Z" fill="#EA4335"/>
<path d="M43.6631 19.2222C42.6926 15.6484 40.7 12.4355 37.9298 9.97778L32.0038 15.9037C33.2389 16.9128 34.2286 18.1892 34.8984 19.6367C35.5682 21.0841 35.9006 22.6647 35.8705 24.2593V25.3111C36.5631 25.3111 37.2489 25.4475 37.8888 25.7126C38.5287 25.9776 39.1101 26.3661 39.5998 26.8559C40.0896 27.3456 40.4781 27.927 40.7431 28.5669C41.0082 29.2068 41.1446 29.8926 41.1446 30.5852C41.1446 31.2778 41.0082 31.9636 40.7431 32.6035C40.4781 33.2434 40.0896 33.8248 39.5998 34.3145C39.1101 34.8043 38.5287 35.1928 37.8888 35.4578C37.2489 35.7228 36.5631 35.8593 35.8705 35.8593H25.3224L24.2705 36.9259V43.2519L25.3224 44.3037H35.8705C38.816 44.3266 41.6907 43.4009 44.0693 41.6634C46.4479 39.9259 48.2041 37.4689 49.0781 34.6559C49.9521 31.8429 49.8974 28.8233 48.9222 26.0438C47.947 23.2643 46.103 20.8725 43.6631 19.2222Z" fill="#4285F4"/>
<path d="M14.759 44.2444H25.3072V35.8H14.759C14.0075 35.7998 13.2648 35.6382 12.5812 35.3259L11.0998 35.7852L6.84791 40.0074L6.47754 41.4889C8.86188 43.2893 11.7713 44.2574 14.759 44.2444Z" fill="#34A853"/>
<path d="M14.7596 16.8519C11.9016 16.869 9.12023 17.7783 6.80405 19.4528C4.48788 21.1273 2.75254 23.4834 1.84041 26.1921C0.928286 28.9007 0.884924 31.8266 1.71638 34.5611C2.54784 37.2956 4.2126 39.7021 6.47814 41.4445L12.5967 35.326C11.8191 34.9747 11.1384 34.44 10.613 33.7678C10.0875 33.0956 9.73295 32.306 9.57976 31.4666C9.42657 30.6273 9.4793 29.7633 9.73343 28.9488C9.98755 28.1343 10.4355 27.3936 11.0388 26.7903C11.6421 26.187 12.3828 25.7391 13.1973 25.485C14.0117 25.2308 14.8757 25.1781 15.7151 25.3313C16.5544 25.4845 17.3441 25.839 18.0163 26.3645C18.6885 26.89 19.2231 27.5707 19.5744 28.3482L25.6929 22.2297C24.4087 20.5508 22.7535 19.1917 20.8568 18.2588C18.9601 17.3259 16.8733 16.8444 14.7596 16.8519Z" fill="#FBBC05"/>
</svg>
