<svg width="185" height="70" viewBox="0 0 185 70" fill="none" xmlns="http://www.w3.org/2000/svg">
<g clip-path="url(#clip0_6144_24998)">
<path d="M14.1129 6.75305C13.1218 8.38095 12.0843 10.3094 11.4148 12.2358C10.227 15.6538 9.19355 19.3664 8.47488 22.9358C7.98937 25.3471 7.53825 28.8747 7.52502 31.3227C7.5075 34.5808 7.62776 36.8023 8.28166 40.0719C9.20292 44.678 11.2504 48.8978 14.0189 52.4898C18.0922 57.7745 24.8438 60.6569 31.1734 62.6056C36.1249 64.1299 41.8071 64.0023 46.6666 63.5931L46.5801 62.2367C41.7657 62.6431 36.4773 62.66 31.73 61.1953C25.6231 59.3111 19.4667 56.419 15.1945 51.5619C12.5932 48.6056 10.6551 44.9403 9.57176 41.0255C8.62278 37.596 8.40745 33.8203 8.29107 30.3508C8.19551 27.4986 8.50021 25.1023 9.01139 22.4905C9.65944 19.1792 10.51 15.8492 11.5776 12.6747C12.2688 10.6197 13.4734 8.49724 14.4707 6.85924L14.1129 6.75305Z" fill="#828282"/>
<path d="M37.3887 63.5981C37.3887 63.5981 34.0307 64.0088 31.8246 65.3591C28.3223 67.5025 29.0243 69.9884 29.0243 69.9884C29.0243 69.9884 30.9268 70.2393 33.9512 68.4186C37.4943 66.2856 37.3887 63.5981 37.3887 63.5981Z" fill="#828282"/>
<path d="M30.8294 62.4226C30.8294 62.4226 27.8218 62.3718 25.4834 63.4697C21.4353 65.3703 22.1715 67.6699 22.1715 67.6699C22.1715 67.6699 24.1234 68.0686 27.3567 66.5266C31.0854 64.7484 30.8294 62.4226 30.8294 62.4226Z" fill="#828282"/>
<path d="M25.4924 60.4684C25.4924 60.4684 22.2029 59.4607 19.668 59.9305C15.2795 60.7435 15.0156 63.669 15.0156 63.669C15.0156 63.669 17.2782 64.7762 20.7891 64.1037C24.838 63.328 25.4924 60.4684 25.4924 60.4684Z" fill="#828282"/>
<path d="M18.7921 56.7579C18.7921 56.7579 15.8166 55.5338 12.6776 55.9439C8.58116 56.4791 7.87624 59.4558 7.85156 59.5335C7.85156 59.5335 10.1666 60.7351 13.609 60.1443C18.2263 59.3518 18.7921 56.7579 18.7921 56.7579Z" fill="#828282"/>
<path d="M14.7942 53.1909C14.7942 53.1909 11.6241 51.1602 8.21707 51.0812C4.90713 51.0041 3.42979 53.0479 3.40039 53.1148C3.40039 53.1148 5.9529 55.0572 9.07385 55.1143C13.3143 55.1917 14.7942 53.1909 14.7942 53.1909Z" fill="#828282"/>
<path d="M12.4286 49.5344C11.001 49.0408 9.76496 46.4817 7.39268 45.0355C4.08315 43.0179 0.888393 44.7457 0.851562 44.7959C0.851562 44.7959 2.84205 48.2916 6.32646 49.354C10.0295 50.483 12.4286 49.5344 12.4286 49.5344Z" fill="#828282"/>
<path d="M9.39045 43.4963C9.39045 43.4963 8.06361 40.2724 6.15546 38.2388C3.49361 35.4022 0.048778 36.1907 0 36.2291C0 36.2291 1.10232 40.0654 4.18306 42.0283C7.45719 44.1143 9.39045 43.4963 9.39045 43.4963Z" fill="#828282"/>
<path d="M8.05439 36.9244C8.05439 36.9244 7.48706 33.9662 6.03338 31.5776C3.84245 27.9775 0.547683 28.5186 0.494141 28.55C0.494141 28.55 1.07396 32.5519 3.86113 34.9233C6.82325 37.4436 8.05439 36.9244 8.05439 36.9244Z" fill="#828282"/>
<path d="M7.77345 29.3377C7.77345 29.3377 7.71339 26.4532 6.43947 23.9614C4.67139 20.503 1.63413 20.0965 1.57703 20.1203C1.57703 20.1203 0.229271 23.2576 3.55175 27.1455C5.56716 29.5037 7.77345 29.3377 7.77345 29.3377Z" fill="#828282"/>
<path d="M8.70511 22.5648C8.70511 22.5648 9.16108 19.4956 8.45229 16.7824C7.78684 14.2352 5.68585 12.0937 5.36846 11.9541C5.36846 11.9541 3.39186 14.1916 5.37595 18.3724C6.71042 21.1844 8.70511 22.5648 8.70511 22.5648Z" fill="#828282"/>
<path d="M10.4683 15.6308C10.4683 15.6308 11.4027 12.8438 10.6775 9.95514C10.076 7.56161 8.60517 5.33681 7.92504 4.92566C7.92504 4.92566 6.23077 7.49931 7.74355 11.3387C8.88534 14.2365 10.0976 15.3074 10.4683 15.6308Z" fill="#828282"/>
<path d="M12.0037 11.1697C12.0037 11.1697 15.5089 9.70826 16.7709 7.9101C18.1837 5.89734 18.9684 2.57898 18.7964 1.79492C18.7964 1.79492 15.1744 1.84267 13.4568 5.59239C12.1605 8.42247 11.9815 10.6745 12.0037 11.1697Z" fill="#828282"/>
<path d="M10.0938 17.1378C10.0938 17.1378 10.8662 14.4201 13.4741 12.6091C15.4843 11.2132 17.3252 10.7999 18.6889 10.9405C18.6889 10.9405 17.9934 13.8677 14.938 15.6338C12.2644 17.1792 10.5826 17.1252 10.0938 17.1378Z" fill="#828282"/>
<path d="M8.70703 23.2225C8.70703 23.2225 9.43638 20.621 12.0444 18.81C14.0546 17.4142 15.2829 17.3311 16.6466 17.4718C16.6466 17.4718 16.2412 20.1448 13.1859 21.911C10.5123 23.4564 9.19588 23.2099 8.70703 23.2225Z" fill="#828282"/>
<path d="M8.03516 30.6359C8.03516 30.6359 8.46553 27.6453 10.6119 25.2924C12.8113 22.8813 14.4556 22.7921 15.8231 22.6963C15.7042 23.4351 15.237 26.5018 13.0808 28.3505C10.7309 30.3654 8.51482 30.5395 8.03516 30.6359Z" fill="#828282"/>
<path d="M8.41406 36.7713C8.41406 36.7713 8.63239 33.757 10.6072 31.2546C12.6308 28.6901 14.2645 28.4819 15.6218 28.2871C15.5554 29.0327 15.3058 32.1253 13.2855 34.1258C11.0837 36.3059 8.88568 36.6403 8.41406 36.7713Z" fill="#828282"/>
<path d="M10.168 43.4627C10.638 41.4819 10.5454 39.6278 11.5756 37.2655C12.8449 34.3553 14.9504 34.1274 16.2482 33.6799C16.1583 35.1261 16.0653 37.3908 14.7896 39.6522C13.2616 42.3608 10.6074 43.2452 10.168 43.4627Z" fill="#828282"/>
<path d="M12.873 49.1263C13.1216 47.1048 13.0236 45.6631 13.7866 43.1989C14.7267 40.1629 16.706 39.7138 17.9464 39.1221C18.0166 40.5691 18.0308 42.7757 17.0127 45.1677C15.7932 48.0327 13.2856 48.8603 12.873 49.1263Z" fill="#828282"/>
<path d="M16.1484 53.1269C16.5786 50.211 16.1686 49.7847 16.7406 47.2677C17.355 44.5647 19.2908 43.7399 20.4802 43.0491C20.6647 44.4859 20.8604 46.4541 20.0172 48.9153C19.1179 51.5397 17.223 52.1275 16.1484 53.1269Z" fill="#828282"/>
<path d="M20.52 56.5137C20.5346 54.1024 19.8204 52.9297 20.0194 51.1335C20.3452 48.1957 21.6346 47.4817 22.8243 46.791C23.1228 50.1268 23.3583 50.0343 23.0526 52.2905C22.7552 54.486 21.4155 55.3797 20.52 56.5137Z" fill="#828282"/>
<path d="M25.0554 58.9645C24.6177 56.5942 23.8005 56.1835 23.6592 54.3817C23.4282 51.4347 24.5604 50.4852 25.5988 49.5779C26.2221 51.3404 26.9128 52.3228 26.7984 54.5972C26.7177 56.2033 25.7221 57.6787 25.0554 58.9645Z" fill="#828282"/>
<path d="M28.9263 52.1326C28.9263 52.1326 30.8728 53.6855 31.5821 56.1972C32.5875 59.7561 31.0539 61.0648 31.0539 61.0648C31.0539 61.0648 29.3744 60.0101 28.0988 56.8883C26.7365 53.5537 28.9263 52.1326 28.9263 52.1326Z" fill="#828282"/>
<path d="M34.1925 53.8054C34.1925 53.8054 36.1512 55.3831 36.9846 57.8555C38.0527 61.024 36.7538 62.538 36.7538 62.538C36.7538 62.538 34.9627 61.3193 33.7736 58.783C31.9579 54.9098 34.1925 53.8054 34.1925 53.8054Z" fill="#828282"/>
</g>
<g clip-path="url(#clip1_6144_24998)">
<path d="M171.015 6.75305C172.005 8.38095 173.043 10.3094 173.712 12.2358C174.9 15.6538 175.934 19.3664 176.652 22.9358C177.139 25.3471 177.589 28.8747 177.602 31.3227C177.62 34.5808 177.499 36.8023 176.846 40.0719C175.925 44.678 173.877 48.8978 171.108 52.4898C167.035 57.7745 160.283 60.6569 153.954 62.6056C149.002 64.1299 143.32 64.0023 138.461 63.5931L138.547 62.2367C143.363 62.6431 148.65 62.66 153.398 61.1953C159.504 59.3111 165.66 56.419 169.932 51.5619C172.535 48.6056 174.473 44.9403 175.556 41.0255C176.505 37.596 176.72 33.8203 176.837 30.3508C176.932 27.4986 176.627 25.1023 176.116 22.4905C175.468 19.1792 174.617 15.8492 173.551 12.6747C172.858 10.6197 171.654 8.49724 170.657 6.85924L171.015 6.75305Z" fill="#828282"/>
<path d="M147.741 63.5981C147.741 63.5981 151.097 64.0088 153.303 65.3591C156.806 67.5025 156.105 69.9884 156.105 69.9884C156.105 69.9884 154.202 70.2393 151.178 68.4186C147.635 66.2856 147.741 63.5981 147.741 63.5981Z" fill="#828282"/>
<path d="M154.299 62.4226C154.299 62.4226 157.307 62.3718 159.646 63.4697C163.693 65.3703 162.957 67.6699 162.957 67.6699C162.957 67.6699 161.004 68.0686 157.772 66.5266C154.044 64.7484 154.299 62.4226 154.299 62.4226Z" fill="#828282"/>
<path d="M159.635 60.4684C159.635 60.4684 162.925 59.4607 165.459 59.9305C169.848 60.7435 170.111 63.669 170.111 63.669C170.111 63.669 167.848 64.7762 164.337 64.1037C160.29 63.328 159.635 60.4684 159.635 60.4684Z" fill="#828282"/>
<path d="M166.336 56.7579C166.336 56.7579 169.312 55.5338 172.451 55.9439C176.547 56.4791 177.252 59.4558 177.277 59.5335C177.277 59.5335 174.962 60.7351 171.52 60.1443C166.903 59.3518 166.336 56.7579 166.336 56.7579Z" fill="#828282"/>
<path d="M170.336 53.1909C170.336 53.1909 173.506 51.1602 176.912 51.0812C180.222 51.0041 181.699 53.0479 181.73 53.1148C181.73 53.1148 179.176 55.0572 176.056 55.1143C171.815 55.1917 170.336 53.1909 170.336 53.1909Z" fill="#828282"/>
<path d="M172.701 49.5344C174.128 49.0408 175.365 46.4817 177.738 45.0355C181.046 43.0179 184.24 44.7457 184.278 44.7959C184.278 44.7959 182.288 48.2916 178.804 49.354C175.101 50.483 172.701 49.5344 172.701 49.5344Z" fill="#828282"/>
<path d="M175.738 43.4963C175.738 43.4963 177.065 40.2724 178.974 38.2388C181.636 35.4022 185.081 36.1907 185.129 36.2291C185.129 36.2291 184.027 40.0654 180.945 42.0283C177.671 44.1143 175.738 43.4963 175.738 43.4963Z" fill="#828282"/>
<path d="M177.072 36.9244C177.072 36.9244 177.639 33.9662 179.093 31.5776C181.285 27.9775 184.578 28.5186 184.632 28.55C184.632 28.55 184.053 32.5519 181.265 34.9233C178.304 37.4436 177.072 36.9244 177.072 36.9244Z" fill="#828282"/>
<path d="M177.355 29.3377C177.355 29.3377 177.417 26.4532 178.689 23.9614C180.457 20.503 183.496 20.0965 183.551 20.1203C183.551 20.1203 184.899 23.2576 181.577 27.1455C179.561 29.5037 177.355 29.3377 177.355 29.3377Z" fill="#828282"/>
<path d="M176.424 22.5651C176.424 22.5651 175.968 19.4959 176.677 16.7827C177.343 14.2354 179.444 12.0939 179.76 11.9543C179.76 11.9543 181.738 14.1918 179.753 18.3726C178.419 21.1847 176.424 22.5651 176.424 22.5651Z" fill="#828282"/>
<path d="M174.658 15.6308C174.658 15.6308 173.725 12.8438 174.45 9.95514C175.051 7.56161 176.521 5.33681 177.201 4.92566C177.201 4.92566 178.896 7.49931 177.383 11.3387C176.241 14.2365 175.03 15.3074 174.658 15.6308Z" fill="#828282"/>
<path d="M173.124 11.1697C173.124 11.1697 169.619 9.70826 168.357 7.9101C166.944 5.89734 166.16 2.57898 166.332 1.79492C166.332 1.79492 169.954 1.84267 171.67 5.59239C172.968 8.42247 173.145 10.6745 173.124 11.1697Z" fill="#828282"/>
<path d="M175.035 17.1378C175.035 17.1378 174.262 14.4201 171.654 12.6091C169.643 11.2132 167.804 10.7999 166.439 10.9405C166.439 10.9405 167.134 13.8677 170.191 15.6338C172.863 17.1792 174.545 17.1252 175.035 17.1378Z" fill="#828282"/>
<path d="M176.421 23.2225C176.421 23.2225 175.692 20.621 173.084 18.81C171.074 17.4142 169.845 17.3311 168.482 17.4718C168.482 17.4718 168.886 20.1448 171.943 21.911C174.616 23.4564 175.933 23.2099 176.421 23.2225Z" fill="#828282"/>
<path d="M177.093 30.6359C177.093 30.6359 176.662 27.6453 174.515 25.2924C172.316 22.8813 170.672 22.7921 169.305 22.6963C169.423 23.4351 169.89 26.5018 172.047 28.3505C174.397 30.3654 176.613 30.5395 177.093 30.6359Z" fill="#828282"/>
<path d="M176.714 36.7713C176.714 36.7713 176.495 33.757 174.521 31.2546C172.496 28.6901 170.863 28.4819 169.506 28.2871C169.572 29.0327 169.822 32.1253 171.843 34.1258C174.043 36.3059 176.242 36.6403 176.714 36.7713Z" fill="#828282"/>
<path d="M174.96 43.4627C174.49 41.4819 174.583 39.6278 173.553 37.2655C172.284 34.3553 170.179 34.1274 168.881 33.6799C168.971 35.1261 169.062 37.3908 170.338 39.6522C171.868 42.3608 174.52 43.2452 174.96 43.4627Z" fill="#828282"/>
<path d="M172.256 49.1263C172.007 47.1048 172.105 45.6631 171.343 43.1989C170.402 40.1629 168.422 39.7138 167.182 39.1221C167.112 40.5691 167.098 42.7757 168.115 45.1677C169.336 48.0327 171.843 48.8603 172.256 49.1263Z" fill="#828282"/>
<path d="M168.979 53.1269C168.549 50.211 168.96 49.7847 168.387 47.2677C167.773 44.5647 165.837 43.7399 164.647 43.0491C164.463 44.4859 164.266 46.4541 165.11 48.9153C166.009 51.5397 167.904 52.1275 168.979 53.1269Z" fill="#828282"/>
<path d="M164.609 56.5137C164.595 54.1024 165.309 52.9297 165.11 51.1335C164.783 48.1957 163.494 47.4817 162.304 46.791C162.006 50.1268 161.771 50.0343 162.076 52.2905C162.374 54.486 163.713 55.3797 164.609 56.5137Z" fill="#828282"/>
<path d="M160.073 58.9645C160.509 56.5942 161.328 56.1835 161.47 54.3817C161.699 51.4347 160.567 50.4852 159.529 49.5779C158.907 51.3404 158.216 52.3228 158.329 54.5972C158.411 56.2033 159.406 57.6787 160.073 58.9645Z" fill="#828282"/>
<path d="M156.201 52.1326C156.201 52.1326 154.254 53.6855 153.545 56.1972C152.54 59.7561 154.072 61.0648 154.072 61.0648C154.072 61.0648 155.752 60.0101 157.027 56.8883C158.391 53.5537 156.201 52.1326 156.201 52.1326Z" fill="#828282"/>
<path d="M150.936 53.8054C150.936 53.8054 148.978 55.3831 148.145 57.8555C147.075 61.024 148.375 62.538 148.375 62.538C148.375 62.538 150.166 61.3193 151.356 58.783C153.171 54.9098 150.936 53.8054 150.936 53.8054Z" fill="#828282"/>
</g>
<g clip-path="url(#clip2_6144_24998)">
<path d="M74.9805 49.5452L77.3479 36.7577C77.6358 35.1873 77.8598 33.8412 78.0197 32.5593H79.0435L78.6596 35.1232H78.7236C79.7793 33.5208 81.2829 32.399 82.8506 32.399C85.09 32.399 85.9538 34.2579 85.9538 36.2129C85.9538 40.219 83.2025 44.834 79.4274 44.834C78.2757 44.834 77.5079 44.4174 77.06 44.4174H76.996L76.0682 49.5452H74.9805ZM77.1879 43.0713C77.7318 43.488 78.5316 43.7444 79.4914 43.7444C82.6266 43.7444 84.8021 39.2896 84.8021 36.2449C84.8021 34.8348 84.2582 33.2644 82.4986 33.2644C80.8031 33.2644 78.6276 35.4116 77.9558 39.0011L77.1879 43.0713Z" fill="#E3E3E3"/>
<path d="M93.9843 44.7399C93.9523 43.7784 94.1123 42.8169 94.2723 41.535H94.2083C92.8646 44.0989 91.329 44.836 89.7934 44.836C88.0018 44.836 86.9141 43.2656 86.9141 41.1504C86.9141 37.0802 89.7934 32.3369 94.4002 32.3369C95.232 32.3369 96.1918 32.4331 96.7997 32.6574L95.552 39.1954C95.1361 41.4388 94.9761 43.4579 95.0401 44.7399H93.9843ZM95.552 33.4266C95.296 33.3304 94.8481 33.2663 94.1123 33.2663C90.6891 33.2663 88.0338 37.0802 88.0018 40.8299C87.9698 42.4003 88.4177 43.7784 90.0173 43.7784C91.9368 43.7784 94.1123 40.894 94.6882 37.8173L95.552 33.4266Z" fill="#E3E3E3"/>
<path d="M97.5684 44.7379L99.072 36.5975C99.3599 35.0912 99.5519 33.8412 99.6479 32.5593H100.608C100.544 33.5208 100.448 34.1617 100.288 35.4437H100.352C101.056 33.8412 102.239 32.4631 103.743 32.4631C103.903 32.4631 104.063 32.399 104.191 32.399L103.967 33.4887C103.871 33.4567 103.743 33.4567 103.583 33.4567C102.015 33.4567 100.288 35.9565 99.8078 38.5524L98.6561 44.7379H97.5684Z" fill="#E3E3E3"/>
<path d="M109.02 29.9641L108.508 32.5601H111.292L111.1 33.5215H108.317L107.005 40.5723C106.845 41.3735 106.749 41.9825 106.749 42.6234C106.749 43.3285 107.069 43.7452 107.805 43.7452C108.189 43.7452 108.445 43.7131 108.668 43.649L108.732 44.5143C108.413 44.6105 107.997 44.6746 107.581 44.6746C106.173 44.6746 105.629 43.7452 105.629 42.7516C105.629 42.1107 105.693 41.5017 105.885 40.6044L107.229 33.5536H105.533L105.693 32.5921H107.421L107.805 30.4448L109.02 29.9641Z" fill="#E3E3E3"/>
<path d="M111.162 44.7389L112.73 36.2139C112.986 34.8038 113.146 33.5218 113.242 32.5603H114.265L113.913 35.1243H113.977C115.001 33.5218 116.505 32.368 118.136 32.368C119.288 32.368 120.792 33.0731 120.792 35.3165C120.792 35.9255 120.696 36.6306 120.568 37.2715L119.224 44.7069H118.168L119.544 37.2395C119.64 36.6947 119.704 36.0537 119.704 35.4447C119.704 34.1948 119.224 33.2654 117.753 33.2654C116.185 33.2654 113.913 35.3806 113.402 38.265L112.25 44.7069H111.162V44.7389Z" fill="#E3E3E3"/>
<path d="M129.334 43.7784C128.726 44.195 127.574 44.6758 126.102 44.6758C123.319 44.6758 122.359 42.4964 122.359 40.221C122.359 36.7917 124.759 32.3369 128.15 32.3369C130.101 32.3369 130.933 33.5868 130.933 34.9329C130.933 37.9455 127.478 38.7787 123.607 38.7787C123.479 39.3236 123.447 40.894 123.703 41.7593C124.119 43.1054 125.047 43.7784 126.294 43.7784C127.606 43.7784 128.502 43.2976 129.046 42.9772L129.334 43.7784ZM129.846 34.9329C129.846 33.8432 129.078 33.2343 127.958 33.2343C126.134 33.2343 124.503 35.2213 123.767 37.7852C126.87 37.8493 129.846 37.3045 129.846 34.9329Z" fill="#E3E3E3"/>
<path d="M131.639 44.7379L133.142 36.5975C133.43 35.0912 133.622 33.8413 133.718 32.5593H134.678C134.614 33.5208 134.518 34.1617 134.358 35.4437H134.422C135.126 33.8413 136.31 32.4631 137.813 32.4631C137.973 32.4631 138.133 32.399 138.261 32.399L138.037 33.4887C137.941 33.4567 137.813 33.4567 137.653 33.4567C136.086 33.4567 134.358 35.9565 133.878 38.5524L132.726 44.7379H131.639Z" fill="#E3E3E3"/>
<path d="M137.877 43.0733C138.293 43.3938 139.093 43.7463 139.956 43.7463C141.524 43.7463 142.58 42.6246 142.58 41.2786C142.58 40.0928 142.1 39.3877 140.98 38.6506C139.796 37.8814 139.157 36.8238 139.157 35.7021C139.157 33.8432 140.66 32.3369 142.772 32.3369C143.571 32.3369 144.371 32.5933 144.723 32.8497L144.339 33.7791C143.955 33.5548 143.348 33.2984 142.644 33.2984C141.204 33.2984 140.244 34.3239 140.244 35.5418C140.244 36.6635 140.884 37.2725 141.844 37.9455C142.996 38.7147 143.667 39.8043 143.667 41.0222C143.667 43.4258 141.908 44.7399 139.86 44.7399C138.805 44.7399 137.845 44.3553 137.461 44.0348L137.877 43.0733Z" fill="#E3E3E3"/>
<path d="M49.7703 10.2847C49.7383 10.2847 49.7383 10.2847 49.7063 10.2847C49.4504 10.2526 49.1944 9.99625 49.1944 9.73986C49.1944 9.48347 49.0345 3.36213 52.6176 1.98402C53.5134 1.63148 54.3452 1.72763 55.049 2.20837C55.9128 2.81729 56.5206 4.00311 56.9046 5.7658C57.1605 7.01571 57.2245 8.07332 57.2245 8.13742C57.2245 8.39381 57.0325 8.5861 56.7446 8.55405C56.4887 8.522 56.2327 8.26561 56.2327 8.00922C56.2007 6.88751 55.8168 3.84286 54.5691 2.97754C54.1852 2.6891 53.7053 2.65705 53.0975 2.91344C50.0262 4.09925 50.1862 9.83601 50.1862 9.90011C50.1862 10.0924 49.9942 10.2847 49.7703 10.2847Z" fill="#96BF47"/>
<path d="M57.3853 4.26022L43.5647 8.55477C43.5647 8.55477 42.9568 8.71502 42.8288 8.87526C42.6689 9.06756 42.6369 9.54829 42.6369 9.54829L40.5254 26.0855L56.5855 29.0981L57.8332 4.26022C57.6412 4.22817 57.4493 4.26022 57.3853 4.26022Z" fill="#96BF47"/>
<path d="M62.1822 6.40753C62.1822 6.40753 62.1502 6.27934 62.0862 6.24729C62.0222 6.21524 61.9262 6.18319 61.9262 6.18319L59.6548 6.02295L57.9912 4.3564C57.9272 4.2923 57.8632 4.2923 57.7672 4.26025L56.5195 29.0982L65.2214 27.2073L62.1822 6.40753Z" fill="#5F8F3E"/>
<path d="M51.6902 18.0721C51.4343 17.7516 51.1464 17.4632 50.8584 17.2068C50.5705 16.9504 50.2506 16.726 49.9307 16.5337C49.7067 16.4055 49.5148 16.2773 49.3548 16.1491C49.1948 16.021 49.0669 15.8928 48.9709 15.7646C48.8749 15.6364 48.7789 15.5082 48.747 15.38C48.683 15.2518 48.683 15.1236 48.683 14.9954C48.683 14.8031 48.747 14.6428 48.8109 14.4826C48.8749 14.3224 48.9709 14.1942 49.0989 14.098C49.2268 14.0019 49.3868 13.9057 49.5468 13.8416C49.7387 13.7775 49.9307 13.7455 50.1546 13.7134C50.4106 13.7134 50.6345 13.7134 50.8584 13.7455C51.0824 13.7775 51.3063 13.8096 51.4983 13.8737C51.6902 13.9378 51.8822 13.9698 52.0741 14.0339C52.2341 14.098 52.3941 14.1621 52.522 14.2262L53.5778 11.0213C53.4178 10.9252 53.2259 10.8611 53.0019 10.797C52.778 10.7329 52.522 10.6688 52.2661 10.6367C52.0102 10.6047 51.6902 10.5726 51.4023 10.5726C51.0824 10.5726 50.7625 10.6047 50.4425 10.6367C49.7067 10.7329 49.0669 10.9252 48.491 11.2136C47.9152 11.5021 47.4353 11.8546 47.0514 12.3033C46.6675 12.7199 46.3475 13.2327 46.1236 13.7775C45.8996 14.3224 45.7717 14.9313 45.7397 15.5723C45.7077 15.9569 45.7717 16.3094 45.8357 16.6619C45.9316 16.9824 46.0596 17.3029 46.2196 17.5913C46.3795 17.8798 46.6035 18.1362 46.8274 18.3926C47.0514 18.649 47.3393 18.8733 47.5952 19.0656C47.8192 19.2258 48.0111 19.3861 48.1711 19.5463C48.3311 19.7066 48.459 19.8348 48.555 19.995C48.651 20.1553 48.715 20.2835 48.7789 20.4437C48.8109 20.6039 48.8429 20.7642 48.8429 20.9244C48.8429 21.0847 48.8109 21.2449 48.747 21.3731C48.683 21.5013 48.587 21.6295 48.459 21.7257C48.3311 21.8218 48.2031 21.8859 48.0431 21.918C47.8832 21.95 47.6912 21.95 47.4673 21.918C47.2113 21.8859 46.9874 21.8218 46.7634 21.7257C46.5395 21.6295 46.3155 21.5334 46.0916 21.4052C45.8677 21.277 45.6757 21.1488 45.5157 21.0526C45.3558 20.9244 45.1958 20.8283 45.0678 20.7001L44.332 23.1358C44.46 23.2961 44.62 23.4563 44.7799 23.5845C44.9719 23.7447 45.1638 23.8729 45.4198 24.0332C45.6437 24.1614 45.9316 24.2896 46.1876 24.4178C46.4755 24.546 46.7634 24.6421 47.0834 24.7062C47.7552 24.8665 48.395 24.8985 49.0029 24.8024C49.6107 24.7062 50.1866 24.5139 50.6665 24.1934C51.1784 23.8409 51.5943 23.3922 51.8822 22.7833C52.2021 22.1743 52.3621 21.4372 52.3941 20.6039C52.4261 20.0912 52.3301 19.6104 52.2021 19.1938C52.1381 18.7772 51.9462 18.4246 51.6902 18.0721Z" fill="#E3E3E3"/>
<path d="M46.4111 9.45279C46.3791 9.45279 46.3791 9.45279 46.3471 9.45279C46.0912 9.42074 45.8992 9.16435 45.9312 8.90795C45.9632 8.65156 46.891 2.53022 50.6981 1.15211C51.6578 0.799575 52.4576 0.895721 53.0975 1.37646C53.8333 1.98539 54.2492 3.1712 54.3132 4.93389C54.3452 6.1838 54.2172 7.24141 54.2172 7.30551C54.1852 7.5619 53.9293 7.75419 53.6733 7.72214C53.4174 7.69009 53.2254 7.4337 53.2574 7.17731C53.4174 6.0556 53.5774 3.01095 52.4896 2.14563C52.1377 1.85719 51.6578 1.82514 51.05 2.08153C47.7868 3.26734 46.923 9.0041 46.891 9.0682C46.827 9.26049 46.6351 9.45279 46.4111 9.45279Z" fill="#96BF47"/>
<path d="M75.3964 16.9829C74.5326 16.5021 74.0847 16.1175 74.0847 15.5727C74.0847 14.8676 74.6926 14.419 75.6843 14.419C76.5801 14.419 77.3479 14.6753 77.8278 14.8997L78.6276 12.464C78.0838 12.1435 77.06 11.8871 75.7483 11.8871C72.7411 11.8871 70.6936 13.5857 70.6936 16.0214C70.6936 17.3995 71.6533 18.4251 72.933 19.1622C73.9888 19.7711 74.3407 20.1878 74.3407 20.7967C74.3407 21.4377 73.8288 21.9505 72.869 21.9505C71.8133 21.9825 70.6936 21.5338 70.0857 21.2133L69.2539 23.649C69.8938 24.0977 71.2054 24.4823 72.6131 24.4823C75.6843 24.5144 77.8918 22.976 77.8918 20.2519C77.8598 18.7776 76.7401 17.752 75.3964 16.9829Z" fill="#E3E3E3"/>
<path d="M87.619 11.8558C86.1154 11.8558 84.9316 12.5609 84.0039 13.6826L83.9399 13.6506L85.2516 6.79211H81.8284L78.5332 24.2588H81.9564L83.1081 18.2656C83.556 16.0222 84.7077 14.6121 85.7954 14.6121C86.5633 14.6121 86.8512 15.1248 86.8512 15.862C86.8512 16.3427 86.7872 16.9196 86.6912 17.3683L85.4115 24.2267H88.8347L90.1784 17.1439C90.3383 16.4068 90.4343 15.5094 90.4343 14.9005C90.4343 13.0417 89.4106 11.8558 87.619 11.8558Z" fill="#E3E3E3"/>
<path d="M98.1432 11.8561C94.0162 11.8561 91.2969 15.5738 91.2969 19.7081C91.2969 22.3681 92.9285 24.4834 95.9997 24.4834C100.031 24.4834 102.75 20.8618 102.75 16.6314C102.782 14.1957 101.342 11.8561 98.1432 11.8561ZM96.4796 21.8874C95.3279 21.8874 94.816 20.8939 94.816 19.644C94.816 17.689 95.8398 14.4841 97.6953 14.4841C98.911 14.4841 99.2949 15.5417 99.2949 16.5352C99.2949 18.6825 98.2712 21.8874 96.4796 21.8874Z" fill="#E3E3E3"/>
<path d="M111.546 11.8561C110.17 11.8561 108.859 12.5932 107.931 13.8752H107.867L108.059 12.0484H105.052C104.892 13.2983 104.636 15.1892 104.348 16.5993L101.98 29.1305H105.404L106.331 24.0667H106.395C106.779 24.3231 107.547 24.5154 108.411 24.5154C112.41 24.5154 115.065 20.3811 115.065 16.2147C115.065 13.9393 114.042 11.8561 111.546 11.8561ZM108.251 21.9515C107.643 21.9515 107.195 21.7592 106.843 21.4708L107.419 18.2659C107.803 16.1186 108.923 14.7084 110.106 14.7084C111.162 14.7084 111.482 15.6699 111.482 16.5993C111.482 18.7786 110.17 21.9515 108.251 21.9515Z" fill="#E3E3E3"/>
<path d="M119.93 6.95129C118.842 6.95129 117.979 7.81662 117.979 8.93833C117.979 9.96389 118.618 10.6369 119.578 10.6369H119.642C120.698 10.6369 121.626 9.93184 121.658 8.64989C121.658 7.65637 120.986 6.95129 119.93 6.95129Z" fill="#E3E3E3"/>
<path d="M115.162 24.2592H118.585L120.889 12.1447H117.466L115.162 24.2592Z" fill="#E3E3E3"/>
<path d="M129.589 12.1122H127.222L127.35 11.5353C127.542 10.3816 128.246 9.32397 129.365 9.32397C129.813 9.32397 130.165 9.38807 130.453 9.48421L131.125 6.7921C130.741 6.63186 130.101 6.50366 129.269 6.50366C128.054 6.50366 126.838 6.8562 125.91 7.65742C124.759 8.65094 124.215 10.0931 123.927 11.5353L123.831 12.1122H122.231L121.751 14.7082H123.351L121.527 24.2908H124.951L126.774 14.7082H129.141L129.589 12.1122Z" fill="#E3E3E3"/>
<path d="M137.813 12.1447L135.734 17.593C135.254 18.907 134.998 19.6762 134.71 20.5094H134.646C134.582 19.7082 134.486 18.8429 134.358 17.625L133.814 12.1767H130.231L132.279 23.3297C132.343 23.5861 132.311 23.7143 132.215 23.9066C131.831 24.6758 131.159 25.4129 130.359 25.9577C129.719 26.4385 128.983 26.7269 128.439 26.9192L129.367 29.8357C130.071 29.6754 131.511 29.1306 132.726 27.9768C134.294 26.5026 135.734 24.2592 137.205 21.1825L141.396 12.2088H137.813V12.1447Z" fill="#E3E3E3"/>
</g>
<defs>
<clipPath id="clip0_6144_24998">
<rect width="48" height="70" fill="white"/>
</clipPath>
<clipPath id="clip1_6144_24998">
<rect width="48" height="70" fill="white" transform="translate(137)"/>
</clipPath>
<clipPath id="clip2_6144_24998">
<rect width="105" height="50" fill="white" transform="translate(40)"/>
</clipPath>
</defs>
</svg>
