<svg width="200" height="70" viewBox="0 0 200 70" fill="none" xmlns="http://www.w3.org/2000/svg">
<g clip-path="url(#clip0_6144_24938)">
<g clip-path="url(#clip1_6144_24938)">
<path d="M98.118 5.71499C94.4589 5.73256 91.4783 8.73999 91.4951 12.4846C91.5119 16.2292 94.5223 19.2083 98.1814 19.1915C101.84 19.1747 104.822 16.1665 104.804 12.4235C104.787 8.68041 101.777 5.69895 98.1164 5.71652L98.118 5.71499ZM98.1684 16.4453C97.131 16.4514 96.1341 16.0443 95.397 15.3148C94.6598 14.5853 94.2512 13.5914 94.2397 12.5541C94.2282 11.5167 94.6407 10.5199 95.3703 9.7827C96.0998 9.04555 97.0936 8.63686 98.131 8.62541C99.1683 8.61395 100.165 9.02645 100.902 9.75596C101.639 10.4855 102.048 11.4793 102.06 12.5167C102.07 14.5983 100.249 16.4346 98.1684 16.4453ZM112.942 8.88895C111.028 8.89812 109.538 10.4855 109.547 12.399L109.578 18.8042L106.666 18.818L106.607 6.08929L109.519 6.07555L109.529 8.07159C109.529 8.07159 110.766 6.0702 113.263 6.05874L114.095 6.05416L114.109 8.88207L112.942 8.88895ZM83.8944 6.19777L86.0989 14.9229L88.3876 6.17638L91.2995 6.16339L87.697 18.9165L84.8691 18.9295L82.582 10.0394L80.3774 18.9501L77.5487 18.9631L73.7461 6.252L76.574 6.23902L79.1101 14.9626L81.1497 6.21763L83.8944 6.19777ZM122.604 11.8399C124.594 10.6665 126 8.49631 125.988 6.00068L123.077 6.01443C123.087 8.17777 121.347 9.93318 119.268 9.94082L118.851 9.94235L118.806 -0.123413L115.894 -0.109663L115.983 18.7737L118.893 18.7607L118.866 12.7718L119.198 12.7703C119.531 12.7687 119.865 12.9337 119.95 13.1828L124.052 18.7362L127.463 18.721L122.604 11.8399Z" fill="#E3E3E3"/>
<path d="M67.0072 5.86083C63.847 5.87611 61.4438 7.96687 60.5447 11.2982C59.036 8.97597 57.8588 6.31993 57.1835 4.07715L53.8568 4.09243L53.8981 12.91C53.9017 13.7484 53.5723 14.5539 52.9823 15.1495C52.3923 15.745 51.59 16.082 50.7516 16.0862C49.9133 16.0899 49.1077 15.7605 48.5122 15.1705C47.9166 14.5805 47.5796 13.7781 47.5754 12.9398L47.5333 4.12222L44.2051 4.1375L44.2463 12.9551C44.2639 16.6141 47.1873 19.5138 50.7654 19.4962C54.3434 19.4787 57.2416 16.5537 57.2248 12.894L57.2172 11.3967C57.8879 12.7236 58.7266 14.1337 59.6486 15.3781L57.6144 25.12L61.0244 25.1047L62.4911 18.0265C63.8256 18.8531 65.3174 19.3442 67.0713 19.3358C70.7319 19.3183 73.7133 16.3108 73.6942 12.4837C73.6803 10.7205 72.9694 9.03433 71.7167 7.79336C70.464 6.55239 68.7712 5.85739 67.0079 5.86006L67.0072 5.86083ZM67.0545 15.9266C65.7238 15.9327 64.3908 15.3567 63.3054 14.4462L63.6315 13.1147V13.0383C63.876 11.6221 64.6108 9.20666 67.1072 9.19597C67.9874 9.19451 68.8326 9.54076 69.4588 10.1594C70.085 10.778 70.4415 11.6189 70.4508 12.499C70.3759 14.4126 68.8031 15.9174 67.0553 15.9258L67.0545 15.9266Z" fill="#6FDA44"/>
</g>
<path d="M159.445 15.2778V1.38892L149.028 8.33336L138.611 15.2778L149.028 23.2639L159.445 15.2778Z" fill="#FF057B"/>
<path d="M159.445 1.38892H138.611L149.028 8.33336L159.445 1.38892Z" fill="#FF9CBE"/>
<path d="M138.611 1.38892V15.2778L149.028 8.33336L138.611 1.38892Z" fill="#FF619C"/>
<path d="M47.7771 46.3334V37.5278H44.2216V36.5417H52.4855V37.5278H48.9299V46.3334H47.7771ZM57.2301 46.4584C56.3227 46.4584 55.5311 46.2547 54.8551 45.8473C54.1885 45.4306 53.67 44.8473 53.2996 44.0973C52.9385 43.3473 52.7579 42.4584 52.7579 41.4306C52.7579 40.4028 52.9385 39.5139 53.2996 38.7639C53.6607 38.0139 54.1746 37.4352 54.8413 37.0278C55.5172 36.6204 56.3135 36.4167 57.2301 36.4167C58.1561 36.4167 58.9524 36.6204 59.619 37.0278C60.295 37.4352 60.8135 38.0139 61.1746 38.7639C61.545 39.5047 61.7301 40.3889 61.7301 41.4167C61.7301 42.4445 61.545 43.338 61.1746 44.0973C60.8042 44.8473 60.2811 45.4306 59.6051 45.8473C58.9385 46.2547 58.1468 46.4584 57.2301 46.4584ZM57.2301 45.4445C58.2764 45.4445 59.0866 45.0926 59.6607 44.3889C60.2348 43.6852 60.5218 42.6991 60.5218 41.4306C60.5218 40.1621 60.2348 39.1806 59.6607 38.4862C59.0866 37.7824 58.2764 37.4306 57.2301 37.4306C56.2024 37.4306 55.4014 37.7824 54.8274 38.4862C54.2533 39.1806 53.9663 40.1621 53.9663 41.4306C53.9663 42.6899 54.2533 43.676 54.8274 44.3889C55.4014 45.0926 56.2024 45.4445 57.2301 45.4445ZM63.7663 46.3334V36.5417H67.6413C68.6968 36.5417 69.5024 36.7963 70.0579 37.3056C70.6228 37.8149 70.9052 38.5417 70.9052 39.4862C70.9052 40.4213 70.6228 41.1482 70.0579 41.6667C69.5024 42.176 68.6968 42.4306 67.6413 42.4306H64.9052V46.3334H63.7663ZM64.9052 41.4723H67.5024C69.0209 41.4723 69.7802 40.8102 69.7802 39.4862C69.7802 38.1528 69.0209 37.4862 67.5024 37.4862H64.9052V41.4723ZM76.1225 46.3334V36.5417H79.9975C81.0531 36.5417 81.8586 36.7871 82.4142 37.2778C82.979 37.7686 83.2614 38.4676 83.2614 39.375C83.2614 40.0973 83.0623 40.6899 82.6642 41.1528C82.2753 41.6158 81.7197 41.9167 80.9975 42.0556C81.4234 42.2037 81.7892 42.5649 82.0947 43.1389L83.8169 46.3334H82.5669L80.8725 43.1945C80.6595 42.8056 80.4142 42.5417 80.1364 42.4028C79.8586 42.2639 79.4929 42.1945 79.0392 42.1945H77.2614V46.3334H76.1225ZM77.2614 41.2917H79.8308C81.3679 41.2917 82.1364 40.6528 82.1364 39.375C82.1364 38.1158 81.3679 37.4862 79.8308 37.4862H77.2614V41.2917ZM84.3198 46.3334L88.6392 36.5417H89.6114L93.9309 46.3334H92.7503L91.667 43.8334H86.5698L85.5003 46.3334H84.3198ZM89.1114 37.875L86.9864 42.875H91.2642L89.1392 37.875H89.1114ZM96.7273 46.3334V37.5278H93.1718V36.5417H101.436V37.5278H97.8801V46.3334H96.7273ZM102.68 46.3334V36.5417H108.86V37.5H103.791V40.8889H108.568V41.8473H103.791V45.375H108.86V46.3334H102.68ZM110.777 46.3334V36.5417H114.082C115.666 36.5417 116.888 36.963 117.749 37.8056C118.61 38.6389 119.041 39.8473 119.041 41.4306C119.041 43.0139 118.61 44.2269 117.749 45.0695C116.888 45.9121 115.666 46.3334 114.082 46.3334H110.777ZM111.916 45.3612H113.999C116.555 45.3612 117.832 44.051 117.832 41.4306C117.832 38.8195 116.555 37.5139 113.999 37.5139H111.916V45.3612ZM124.652 46.3334V36.5417H128.527C129.583 36.5417 130.388 36.7963 130.944 37.3056C131.509 37.8149 131.791 38.5417 131.791 39.4862C131.791 40.4213 131.509 41.1482 130.944 41.6667C130.388 42.176 129.583 42.4306 128.527 42.4306H125.791V46.3334H124.652ZM125.791 41.4723H128.388C129.907 41.4723 130.666 40.8102 130.666 39.4862C130.666 38.1528 129.907 37.4862 128.388 37.4862H125.791V41.4723ZM133.441 46.3334V36.5417H134.58V45.3334H139.566V46.3334H133.441ZM144.477 46.4584C143.19 46.4584 142.214 46.1204 141.547 45.4445C140.88 44.7593 140.547 43.7639 140.547 42.4584V36.5417H141.686V42.4028C141.686 44.4306 142.616 45.4445 144.477 45.4445C146.32 45.4445 147.241 44.4306 147.241 42.4028V36.5417H148.38V42.4584C148.38 43.7639 148.047 44.7593 147.38 45.4445C146.723 46.1204 145.755 46.4584 144.477 46.4584ZM153.888 46.4584C153.119 46.4584 152.425 46.3612 151.804 46.1667C151.184 45.963 150.647 45.6713 150.193 45.2917L150.596 44.375C151.068 44.7362 151.564 45.0047 152.082 45.1806C152.601 45.3565 153.203 45.4445 153.888 45.4445C154.721 45.4445 155.337 45.2917 155.735 44.9862C156.142 44.6713 156.346 44.2593 156.346 43.75C156.346 43.3426 156.198 43.0186 155.902 42.7778C155.615 42.5371 155.128 42.3473 154.443 42.2084L152.999 41.9167C152.128 41.7315 151.476 41.4306 151.04 41.0139C150.615 40.588 150.402 40.0232 150.402 39.3195C150.402 38.7362 150.55 38.2269 150.846 37.7917C151.152 37.3565 151.573 37.0186 152.11 36.7778C152.647 36.5371 153.267 36.4167 153.971 36.4167C154.628 36.4167 155.24 36.5232 155.804 36.7362C156.369 36.9399 156.846 37.2362 157.235 37.625L156.832 38.5139C156.415 38.1343 155.976 37.8612 155.513 37.6945C155.05 37.5186 154.531 37.4306 153.957 37.4306C153.226 37.4306 152.642 37.6019 152.207 37.9445C151.772 38.2778 151.554 38.7223 151.554 39.2778C151.554 39.7223 151.689 40.0741 151.957 40.3334C152.235 40.5926 152.684 40.7824 153.304 40.9028L154.749 41.2084C155.684 41.4028 156.374 41.6991 156.818 42.0973C157.272 42.4862 157.499 43.0186 157.499 43.6945C157.499 44.2408 157.351 44.7223 157.054 45.1389C156.767 45.5556 156.351 45.8797 155.804 46.1112C155.267 46.3426 154.628 46.4584 153.888 46.4584Z" fill="#828282"/>
</g>
<g clip-path="url(#clip2_6144_24938)">
<path d="M14.1129 6.75305C13.1218 8.38095 12.0843 10.3094 11.4148 12.2358C10.227 15.6538 9.19355 19.3664 8.47488 22.9358C7.98937 25.3471 7.53825 28.8747 7.52502 31.3227C7.5075 34.5808 7.62776 36.8023 8.28166 40.0719C9.20292 44.678 11.2504 48.8978 14.0189 52.4898C18.0922 57.7745 24.8438 60.6569 31.1734 62.6056C36.1249 64.1299 41.8071 64.0023 46.6666 63.5931L46.5801 62.2367C41.7657 62.6431 36.4773 62.66 31.73 61.1953C25.6231 59.3111 19.4667 56.419 15.1945 51.5619C12.5932 48.6056 10.6551 44.9403 9.57176 41.0255C8.62278 37.596 8.40745 33.8203 8.29107 30.3508C8.19551 27.4986 8.50021 25.1023 9.01139 22.4905C9.65944 19.1792 10.51 15.8492 11.5776 12.6747C12.2688 10.6197 13.4734 8.49724 14.4707 6.85924L14.1129 6.75305Z" fill="#828282"/>
<path d="M37.3887 63.5981C37.3887 63.5981 34.0307 64.0088 31.8246 65.3591C28.3223 67.5025 29.0243 69.9884 29.0243 69.9884C29.0243 69.9884 30.9268 70.2393 33.9512 68.4186C37.4943 66.2856 37.3887 63.5981 37.3887 63.5981Z" fill="#828282"/>
<path d="M30.8294 62.4226C30.8294 62.4226 27.8218 62.3718 25.4834 63.4697C21.4353 65.3703 22.1715 67.6699 22.1715 67.6699C22.1715 67.6699 24.1234 68.0686 27.3567 66.5266C31.0854 64.7484 30.8294 62.4226 30.8294 62.4226Z" fill="#828282"/>
<path d="M25.4924 60.4684C25.4924 60.4684 22.2029 59.4607 19.668 59.9305C15.2795 60.7435 15.0156 63.669 15.0156 63.669C15.0156 63.669 17.2782 64.7762 20.7891 64.1037C24.838 63.328 25.4924 60.4684 25.4924 60.4684Z" fill="#828282"/>
<path d="M18.7921 56.7579C18.7921 56.7579 15.8166 55.5338 12.6776 55.9439C8.58116 56.4791 7.87624 59.4558 7.85156 59.5335C7.85156 59.5335 10.1666 60.7351 13.609 60.1443C18.2263 59.3518 18.7921 56.7579 18.7921 56.7579Z" fill="#828282"/>
<path d="M14.7942 53.1909C14.7942 53.1909 11.6241 51.1602 8.21707 51.0812C4.90713 51.0041 3.42979 53.0479 3.40039 53.1148C3.40039 53.1148 5.9529 55.0572 9.07385 55.1143C13.3143 55.1917 14.7942 53.1909 14.7942 53.1909Z" fill="#828282"/>
<path d="M12.4286 49.5344C11.001 49.0408 9.76496 46.4817 7.39268 45.0355C4.08315 43.0179 0.888393 44.7457 0.851562 44.7959C0.851562 44.7959 2.84205 48.2916 6.32646 49.354C10.0295 50.483 12.4286 49.5344 12.4286 49.5344Z" fill="#828282"/>
<path d="M9.39045 43.4963C9.39045 43.4963 8.06361 40.2724 6.15546 38.2388C3.49361 35.4022 0.048778 36.1907 0 36.2291C0 36.2291 1.10232 40.0654 4.18306 42.0283C7.45719 44.1143 9.39045 43.4963 9.39045 43.4963Z" fill="#828282"/>
<path d="M8.05439 36.9244C8.05439 36.9244 7.48706 33.9662 6.03338 31.5776C3.84245 27.9775 0.547683 28.5186 0.494141 28.55C0.494141 28.55 1.07396 32.5519 3.86113 34.9233C6.82325 37.4436 8.05439 36.9244 8.05439 36.9244Z" fill="#828282"/>
<path d="M7.77345 29.3377C7.77345 29.3377 7.71339 26.4532 6.43947 23.9614C4.67139 20.503 1.63413 20.0965 1.57703 20.1203C1.57703 20.1203 0.229271 23.2576 3.55175 27.1455C5.56716 29.5037 7.77345 29.3377 7.77345 29.3377Z" fill="#828282"/>
<path d="M8.70511 22.5648C8.70511 22.5648 9.16108 19.4956 8.45229 16.7824C7.78684 14.2352 5.68585 12.0937 5.36846 11.9541C5.36846 11.9541 3.39186 14.1916 5.37595 18.3724C6.71042 21.1844 8.70511 22.5648 8.70511 22.5648Z" fill="#828282"/>
<path d="M10.4683 15.6308C10.4683 15.6308 11.4027 12.8438 10.6775 9.95514C10.076 7.56161 8.60517 5.33681 7.92504 4.92566C7.92504 4.92566 6.23077 7.49931 7.74355 11.3387C8.88534 14.2365 10.0976 15.3074 10.4683 15.6308Z" fill="#828282"/>
<path d="M12.0037 11.1697C12.0037 11.1697 15.5089 9.70826 16.7709 7.9101C18.1837 5.89734 18.9684 2.57898 18.7964 1.79492C18.7964 1.79492 15.1744 1.84267 13.4568 5.59239C12.1605 8.42247 11.9815 10.6745 12.0037 11.1697Z" fill="#828282"/>
<path d="M10.0938 17.1378C10.0938 17.1378 10.8662 14.4201 13.4741 12.6091C15.4843 11.2132 17.3252 10.7999 18.6889 10.9405C18.6889 10.9405 17.9934 13.8677 14.938 15.6338C12.2644 17.1792 10.5826 17.1252 10.0938 17.1378Z" fill="#828282"/>
<path d="M8.70703 23.2225C8.70703 23.2225 9.43638 20.621 12.0444 18.81C14.0546 17.4142 15.2829 17.3311 16.6466 17.4718C16.6466 17.4718 16.2412 20.1448 13.1859 21.911C10.5123 23.4564 9.19588 23.2099 8.70703 23.2225Z" fill="#828282"/>
<path d="M8.03516 30.6359C8.03516 30.6359 8.46553 27.6453 10.6119 25.2924C12.8113 22.8813 14.4556 22.7921 15.8231 22.6963C15.7042 23.4351 15.237 26.5018 13.0808 28.3505C10.7309 30.3654 8.51482 30.5395 8.03516 30.6359Z" fill="#828282"/>
<path d="M8.41406 36.7713C8.41406 36.7713 8.63239 33.757 10.6072 31.2546C12.6308 28.6901 14.2645 28.4819 15.6218 28.2871C15.5554 29.0327 15.3058 32.1253 13.2855 34.1258C11.0837 36.3059 8.88568 36.6403 8.41406 36.7713Z" fill="#828282"/>
<path d="M10.168 43.4627C10.638 41.4819 10.5454 39.6278 11.5756 37.2655C12.8449 34.3553 14.9504 34.1274 16.2482 33.6799C16.1583 35.1261 16.0653 37.3908 14.7896 39.6522C13.2616 42.3608 10.6074 43.2452 10.168 43.4627Z" fill="#828282"/>
<path d="M12.873 49.1263C13.1216 47.1048 13.0236 45.6631 13.7866 43.1989C14.7267 40.1629 16.706 39.7138 17.9464 39.1221C18.0166 40.5691 18.0308 42.7757 17.0127 45.1677C15.7932 48.0327 13.2856 48.8603 12.873 49.1263Z" fill="#828282"/>
<path d="M16.1484 53.1269C16.5786 50.211 16.1686 49.7847 16.7406 47.2677C17.355 44.5647 19.2908 43.7399 20.4802 43.0491C20.6647 44.4859 20.8604 46.4541 20.0172 48.9153C19.1179 51.5397 17.223 52.1275 16.1484 53.1269Z" fill="#828282"/>
<path d="M20.52 56.5137C20.5346 54.1024 19.8204 52.9297 20.0194 51.1335C20.3452 48.1957 21.6346 47.4817 22.8243 46.791C23.1228 50.1268 23.3583 50.0343 23.0526 52.2905C22.7552 54.486 21.4155 55.3797 20.52 56.5137Z" fill="#828282"/>
<path d="M25.0554 58.9645C24.6177 56.5942 23.8005 56.1835 23.6592 54.3817C23.4282 51.4347 24.5604 50.4852 25.5988 49.5779C26.2221 51.3404 26.9128 52.3228 26.7984 54.5972C26.7177 56.2033 25.7221 57.6787 25.0554 58.9645Z" fill="#828282"/>
<path d="M28.9263 52.1326C28.9263 52.1326 30.8728 53.6855 31.5821 56.1972C32.5875 59.7561 31.0539 61.0648 31.0539 61.0648C31.0539 61.0648 29.3744 60.0101 28.0988 56.8883C26.7365 53.5537 28.9263 52.1326 28.9263 52.1326Z" fill="#828282"/>
<path d="M34.1925 53.8054C34.1925 53.8054 36.1512 55.3831 36.9846 57.8555C38.0527 61.024 36.7538 62.538 36.7538 62.538C36.7538 62.538 34.9627 61.3193 33.7736 58.783C31.9579 54.9098 34.1925 53.8054 34.1925 53.8054Z" fill="#828282"/>
</g>
<g clip-path="url(#clip3_6144_24938)">
<path d="M186.015 6.75305C187.005 8.38095 188.043 10.3094 188.712 12.2358C189.9 15.6538 190.934 19.3664 191.652 22.9358C192.139 25.3471 192.589 28.8747 192.602 31.3227C192.62 34.5808 192.499 36.8023 191.846 40.0719C190.925 44.678 188.877 48.8978 186.108 52.4898C182.035 57.7745 175.283 60.6569 168.954 62.6056C164.002 64.1299 158.32 64.0023 153.461 63.5931L153.547 62.2367C158.363 62.6431 163.65 62.66 168.398 61.1953C174.504 59.3111 180.66 56.419 184.932 51.5619C187.535 48.6056 189.473 44.9403 190.556 41.0255C191.505 37.596 191.72 33.8203 191.837 30.3508C191.932 27.4986 191.627 25.1023 191.116 22.4905C190.468 19.1792 189.617 15.8492 188.551 12.6747C187.858 10.6197 186.654 8.49724 185.657 6.85924L186.015 6.75305Z" fill="#828282"/>
<path d="M162.741 63.5981C162.741 63.5981 166.097 64.0088 168.303 65.3591C171.806 67.5025 171.105 69.9884 171.105 69.9884C171.105 69.9884 169.202 70.2393 166.178 68.4186C162.635 66.2856 162.741 63.5981 162.741 63.5981Z" fill="#828282"/>
<path d="M169.299 62.4226C169.299 62.4226 172.307 62.3718 174.646 63.4697C178.693 65.3703 177.957 67.6699 177.957 67.6699C177.957 67.6699 176.004 68.0686 172.772 66.5266C169.044 64.7484 169.299 62.4226 169.299 62.4226Z" fill="#828282"/>
<path d="M174.635 60.4684C174.635 60.4684 177.925 59.4607 180.459 59.9305C184.848 60.7435 185.111 63.669 185.111 63.669C185.111 63.669 182.848 64.7762 179.337 64.1037C175.29 63.328 174.635 60.4684 174.635 60.4684Z" fill="#828282"/>
<path d="M181.336 56.7579C181.336 56.7579 184.312 55.5338 187.451 55.9439C191.547 56.4791 192.252 59.4558 192.277 59.5335C192.277 59.5335 189.962 60.7351 186.52 60.1443C181.903 59.3518 181.336 56.7579 181.336 56.7579Z" fill="#828282"/>
<path d="M185.336 53.1909C185.336 53.1909 188.506 51.1602 191.912 51.0812C195.222 51.0041 196.699 53.0479 196.73 53.1148C196.73 53.1148 194.176 55.0572 191.056 55.1143C186.815 55.1917 185.336 53.1909 185.336 53.1909Z" fill="#828282"/>
<path d="M187.701 49.5344C189.128 49.0408 190.365 46.4817 192.738 45.0355C196.046 43.0179 199.24 44.7457 199.278 44.7959C199.278 44.7959 197.288 48.2916 193.804 49.354C190.101 50.483 187.701 49.5344 187.701 49.5344Z" fill="#828282"/>
<path d="M190.738 43.4963C190.738 43.4963 192.065 40.2724 193.974 38.2388C196.636 35.4022 200.081 36.1907 200.129 36.2291C200.129 36.2291 199.027 40.0654 195.945 42.0283C192.671 44.1143 190.738 43.4963 190.738 43.4963Z" fill="#828282"/>
<path d="M192.072 36.9244C192.072 36.9244 192.639 33.9662 194.093 31.5776C196.285 27.9775 199.578 28.5186 199.632 28.55C199.632 28.55 199.053 32.5519 196.265 34.9233C193.304 37.4436 192.072 36.9244 192.072 36.9244Z" fill="#828282"/>
<path d="M192.355 29.3377C192.355 29.3377 192.417 26.4532 193.689 23.9614C195.457 20.503 198.496 20.0965 198.551 20.1203C198.551 20.1203 199.899 23.2576 196.577 27.1455C194.561 29.5037 192.355 29.3377 192.355 29.3377Z" fill="#828282"/>
<path d="M191.424 22.5651C191.424 22.5651 190.968 19.4959 191.677 16.7827C192.343 14.2354 194.444 12.0939 194.76 11.9543C194.76 11.9543 196.738 14.1918 194.753 18.3726C193.419 21.1847 191.424 22.5651 191.424 22.5651Z" fill="#828282"/>
<path d="M189.658 15.6308C189.658 15.6308 188.725 12.8438 189.45 9.95514C190.051 7.56161 191.521 5.33681 192.201 4.92566C192.201 4.92566 193.896 7.49931 192.383 11.3387C191.241 14.2365 190.03 15.3074 189.658 15.6308Z" fill="#828282"/>
<path d="M188.124 11.1697C188.124 11.1697 184.619 9.70826 183.357 7.9101C181.944 5.89734 181.16 2.57898 181.332 1.79492C181.332 1.79492 184.954 1.84267 186.67 5.59239C187.968 8.42247 188.145 10.6745 188.124 11.1697Z" fill="#828282"/>
<path d="M190.035 17.1378C190.035 17.1378 189.262 14.4201 186.654 12.6091C184.643 11.2132 182.804 10.7999 181.439 10.9405C181.439 10.9405 182.134 13.8677 185.191 15.6338C187.863 17.1792 189.545 17.1252 190.035 17.1378Z" fill="#828282"/>
<path d="M191.421 23.2225C191.421 23.2225 190.692 20.621 188.084 18.81C186.074 17.4142 184.845 17.3311 183.482 17.4718C183.482 17.4718 183.886 20.1448 186.943 21.911C189.616 23.4564 190.933 23.2099 191.421 23.2225Z" fill="#828282"/>
<path d="M192.093 30.6359C192.093 30.6359 191.662 27.6453 189.515 25.2924C187.316 22.8813 185.672 22.7921 184.305 22.6963C184.423 23.4351 184.89 26.5018 187.047 28.3505C189.397 30.3654 191.613 30.5395 192.093 30.6359Z" fill="#828282"/>
<path d="M191.714 36.7713C191.714 36.7713 191.495 33.757 189.521 31.2546C187.496 28.6901 185.863 28.4819 184.506 28.2871C184.572 29.0327 184.822 32.1253 186.843 34.1258C189.043 36.3059 191.242 36.6403 191.714 36.7713Z" fill="#828282"/>
<path d="M189.96 43.4627C189.49 41.4819 189.583 39.6278 188.553 37.2655C187.284 34.3553 185.179 34.1274 183.881 33.6799C183.971 35.1261 184.062 37.3908 185.338 39.6522C186.868 42.3608 189.52 43.2452 189.96 43.4627Z" fill="#828282"/>
<path d="M187.256 49.1263C187.007 47.1048 187.105 45.6631 186.343 43.1989C185.402 40.1629 183.422 39.7138 182.182 39.1221C182.112 40.5691 182.098 42.7757 183.115 45.1677C184.336 48.0327 186.843 48.8603 187.256 49.1263Z" fill="#828282"/>
<path d="M183.979 53.1269C183.549 50.211 183.96 49.7847 183.387 47.2677C182.773 44.5647 180.837 43.7399 179.647 43.0491C179.463 44.4859 179.266 46.4541 180.11 48.9153C181.009 51.5397 182.904 52.1275 183.979 53.1269Z" fill="#828282"/>
<path d="M179.609 56.5137C179.595 54.1024 180.309 52.9297 180.11 51.1335C179.783 48.1957 178.494 47.4817 177.304 46.791C177.006 50.1268 176.771 50.0343 177.076 52.2905C177.374 54.486 178.713 55.3797 179.609 56.5137Z" fill="#828282"/>
<path d="M175.073 58.9645C175.509 56.5942 176.328 56.1835 176.47 54.3817C176.699 51.4347 175.567 50.4852 174.529 49.5779C173.907 51.3404 173.216 52.3228 173.329 54.5972C173.411 56.2033 174.406 57.6787 175.073 58.9645Z" fill="#828282"/>
<path d="M171.201 52.1326C171.201 52.1326 169.254 53.6855 168.545 56.1972C167.54 59.7561 169.072 61.0648 169.072 61.0648C169.072 61.0648 170.752 60.0101 172.027 56.8883C173.391 53.5537 171.201 52.1326 171.201 52.1326Z" fill="#828282"/>
<path d="M165.936 53.8054C165.936 53.8054 163.978 55.3831 163.145 57.8555C162.075 61.024 163.375 62.538 163.375 62.538C163.375 62.538 165.166 61.3193 166.356 58.783C168.171 54.9098 165.936 53.8054 165.936 53.8054Z" fill="#828282"/>
</g>
<defs>
<clipPath id="clip0_6144_24938">
<rect width="120" height="50" fill="white" transform="translate(40)"/>
</clipPath>
<clipPath id="clip1_6144_24938">
<rect width="91.6667" height="23.6111" fill="white" transform="translate(40)"/>
</clipPath>
<clipPath id="clip2_6144_24938">
<rect width="48" height="70" fill="white"/>
</clipPath>
<clipPath id="clip3_6144_24938">
<rect width="48" height="70" fill="white" transform="translate(152)"/>
</clipPath>
</defs>
</svg>
