<svg width="185" height="70" viewBox="0 0 185 70" fill="none" xmlns="http://www.w3.org/2000/svg">
<path d="M14.1129 6.75391C13.1218 8.3818 12.0843 10.3103 11.4148 12.2367C10.227 15.6546 9.19355 19.3672 8.47488 22.9367C7.98937 25.3479 7.53825 28.8756 7.52502 31.3236C7.5075 34.5817 7.62776 36.8032 8.28166 40.0727C9.20292 44.6789 11.2504 48.8986 14.0189 52.4907C18.0922 57.7753 24.8438 60.6577 31.1734 62.6064C36.1249 64.1308 41.8071 64.0032 46.6666 63.594L46.5801 62.2376C41.7657 62.6439 36.4773 62.6608 31.73 61.1962C25.6231 59.3119 19.4667 56.4199 15.1945 51.5628C12.5932 48.6064 10.6551 44.9411 9.57176 41.0263C8.62278 37.5969 8.40745 33.8212 8.29107 30.3517C8.19551 27.4994 8.50021 25.1031 9.01139 22.4914C9.65944 19.18 10.51 15.8501 11.5776 12.6755C12.2688 10.6206 13.4734 8.49809 14.4707 6.86009L14.1129 6.75391Z" fill="#828282"/>
<path d="M37.3887 63.5977C37.3887 63.5977 34.0307 64.0083 31.8246 65.3586C28.3223 67.502 29.0243 69.9879 29.0243 69.9879C29.0243 69.9879 30.9268 70.2389 33.9512 68.4181C37.4943 66.2851 37.3887 63.5977 37.3887 63.5977Z" fill="#828282"/>
<path d="M30.8294 62.4222C30.8294 62.4222 27.8218 62.3714 25.4834 63.4694C21.4353 65.37 22.1715 67.6695 22.1715 67.6695C22.1715 67.6695 24.1234 68.0682 27.3567 66.5262C31.0854 64.748 30.8294 62.4222 30.8294 62.4222Z" fill="#828282"/>
<path d="M25.4924 60.4674C25.4924 60.4674 22.2029 59.4598 19.668 59.9295C15.2795 60.7426 15.0156 63.668 15.0156 63.668C15.0156 63.668 17.2782 64.7753 20.7891 64.1027C24.838 63.327 25.4924 60.4674 25.4924 60.4674Z" fill="#828282"/>
<path d="M18.7921 56.7574C18.7921 56.7574 15.8166 55.5333 12.6776 55.9434C8.58116 56.4787 7.87624 59.4553 7.85156 59.533C7.85156 59.533 10.1666 60.7347 13.609 60.1438C18.2263 59.3513 18.7921 56.7574 18.7921 56.7574Z" fill="#828282"/>
<path d="M14.7942 53.1899C14.7942 53.1899 11.6241 51.1592 8.21707 51.0803C4.90713 51.0031 3.42979 53.0469 3.40039 53.1138C3.40039 53.1138 5.9529 55.0563 9.07385 55.1133C13.3143 55.1907 14.7942 53.1899 14.7942 53.1899Z" fill="#828282"/>
<path d="M12.4286 49.5335C11.001 49.0399 9.76496 46.4808 7.39268 45.0347C4.08315 43.0171 0.888393 44.7448 0.851562 44.7951C0.851562 44.7951 2.84205 48.2907 6.32646 49.3531C10.0295 50.4821 12.4286 49.5335 12.4286 49.5335Z" fill="#828282"/>
<path d="M9.39045 43.496C9.39045 43.496 8.06361 40.272 6.15546 38.2384C3.49361 35.4018 0.048778 36.1903 0 36.2287C0 36.2287 1.10232 40.0651 4.18306 42.0279C7.45719 44.1139 9.39045 43.496 9.39045 43.496Z" fill="#828282"/>
<path d="M8.05536 36.9247C8.05536 36.9247 7.48804 33.9666 6.03435 31.578C3.84343 27.9778 0.54866 28.519 0.495117 28.5504C0.495117 28.5504 1.07493 32.5522 3.86211 34.9236C6.82422 37.444 8.05536 36.9247 8.05536 36.9247Z" fill="#828282"/>
<path d="M7.77345 29.3377C7.77345 29.3377 7.71339 26.4532 6.43947 23.9614C4.67139 20.503 1.63413 20.0965 1.57703 20.1203C1.57703 20.1203 0.229271 23.2576 3.55175 27.1455C5.56716 29.5037 7.77345 29.3377 7.77345 29.3377Z" fill="#828282"/>
<path d="M8.70414 22.5658C8.70414 22.5658 9.16011 19.4966 8.45131 16.7834C7.78586 14.2362 5.68487 12.0946 5.36749 11.9551C5.36749 11.9551 3.39088 14.1925 5.37497 18.3734C6.70944 21.1854 8.70414 22.5658 8.70414 22.5658Z" fill="#828282"/>
<path d="M10.4692 15.6308C10.4692 15.6308 11.4037 12.8438 10.6784 9.95514C10.077 7.56161 8.60615 5.33681 7.92602 4.92566C7.92602 4.92566 6.23175 7.49931 7.74452 11.3387C8.88631 14.2365 10.0986 15.3074 10.4692 15.6308Z" fill="#828282"/>
<path d="M12.0037 11.1697C12.0037 11.1697 15.5089 9.70826 16.7709 7.9101C18.1837 5.89734 18.9684 2.57898 18.7964 1.79492C18.7964 1.79492 15.1744 1.84267 13.4568 5.59239C12.1605 8.42247 11.9815 10.6745 12.0037 11.1697Z" fill="#828282"/>
<path d="M10.0938 17.1373C10.0938 17.1373 10.8662 14.4196 13.4741 12.6086C15.4843 11.2127 17.3252 10.7994 18.6889 10.94C18.6889 10.94 17.9934 13.8672 14.938 15.6333C12.2644 17.1787 10.5826 17.1247 10.0938 17.1373Z" fill="#828282"/>
<path d="M8.70703 23.2215C8.70703 23.2215 9.43638 20.62 12.0444 18.809C14.0546 17.4132 15.2829 17.3302 16.6466 17.4708C16.6466 17.4708 16.2412 20.1439 13.1859 21.91C10.5123 23.4554 9.19588 23.209 8.70703 23.2215Z" fill="#828282"/>
<path d="M8.03613 30.6349C8.03613 30.6349 8.46651 27.6443 10.6129 25.2914C12.8123 22.8804 14.4565 22.7912 15.824 22.6953C15.7052 23.4341 15.238 26.5008 13.0818 28.3495C10.7319 30.3644 8.51579 30.5385 8.03613 30.6349Z" fill="#828282"/>
<path d="M8.41504 36.7713C8.41504 36.7713 8.63337 33.757 10.6082 31.2546C12.6318 28.6901 14.2655 28.4819 15.6228 28.2871C15.5563 29.0327 15.3067 32.1253 13.2865 34.1258C11.0847 36.3059 8.88666 36.6403 8.41504 36.7713Z" fill="#828282"/>
<path d="M10.168 43.4625C10.638 41.4816 10.5454 39.6275 11.5756 37.2653C12.8449 34.3551 14.9504 34.1271 16.2482 33.6797C16.1583 35.1258 16.0653 37.3906 14.7896 39.6519C13.2616 42.3606 10.6074 43.2449 10.168 43.4625Z" fill="#828282"/>
<path d="M12.873 49.1254C13.1216 47.1038 13.0236 45.6621 13.7866 43.198C14.7267 40.1619 16.706 39.7129 17.9464 39.1211C18.0166 40.5681 18.0308 42.7747 17.0127 45.1668C15.7932 48.0317 13.2856 48.8594 12.873 49.1254Z" fill="#828282"/>
<path d="M16.1484 53.1267C16.5786 50.2107 16.1686 49.7844 16.7406 47.2675C17.355 44.5644 19.2908 43.7397 20.4802 43.0488C20.6647 44.4856 20.8604 46.4539 20.0172 48.915C19.1179 51.5395 17.223 52.1273 16.1484 53.1267Z" fill="#828282"/>
<path d="M20.519 56.5137C20.5336 54.1024 19.8194 52.9297 20.0185 51.1335C20.3442 48.1957 21.6337 47.4817 22.8233 46.791C23.1218 50.1268 23.3573 50.0343 23.0516 52.2905C22.7542 54.486 21.4145 55.3797 20.519 56.5137Z" fill="#828282"/>
<path d="M25.0554 58.9648C24.6177 56.5945 23.8005 56.1838 23.6592 54.3819C23.4282 51.4349 24.5604 50.4854 25.5988 49.5781C26.2221 51.3407 26.9128 52.323 26.7984 54.5975C26.7177 56.2035 25.7221 57.6789 25.0554 58.9648Z" fill="#828282"/>
<path d="M28.9272 52.1326C28.9272 52.1326 30.8738 53.6855 31.5831 56.1972C32.5884 59.7561 31.0549 61.0648 31.0549 61.0648C31.0549 61.0648 29.3754 60.0101 28.0998 56.8883C26.7375 53.5537 28.9272 52.1326 28.9272 52.1326Z" fill="#828282"/>
<path d="M34.1925 53.8047C34.1925 53.8047 36.1512 55.3824 36.9846 57.8548C38.0527 61.0233 36.7538 62.5373 36.7538 62.5373C36.7538 62.5373 34.9627 61.3186 33.7736 58.7822C31.9579 54.9091 34.1925 53.8047 34.1925 53.8047Z" fill="#828282"/>
<g clip-path="url(#clip0_6144_25480)">
<path d="M171.015 6.75391C172.005 8.3818 173.043 10.3103 173.712 12.2367C174.9 15.6546 175.934 19.3672 176.652 22.9367C177.139 25.3479 177.589 28.8756 177.602 31.3236C177.62 34.5817 177.499 36.8032 176.846 40.0727C175.925 44.6789 173.877 48.8986 171.108 52.4907C167.035 57.7753 160.283 60.6577 153.954 62.6064C149.002 64.1308 143.32 64.0032 138.461 63.594L138.547 62.2376C143.363 62.6439 148.65 62.6608 153.398 61.1962C159.504 59.3119 165.66 56.4199 169.932 51.5628C172.535 48.6064 174.473 44.9411 175.556 41.0263C176.505 37.5969 176.72 33.8212 176.837 30.3517C176.932 27.4994 176.627 25.1031 176.116 22.4914C175.468 19.18 174.617 15.8501 173.551 12.6755C172.858 10.6206 171.654 8.49809 170.657 6.86009L171.015 6.75391Z" fill="#828282"/>
<path d="M147.741 63.5977C147.741 63.5977 151.097 64.0083 153.303 65.3586C156.806 67.502 156.105 69.9879 156.105 69.9879C156.105 69.9879 154.202 70.2389 151.178 68.4181C147.635 66.2851 147.741 63.5977 147.741 63.5977Z" fill="#828282"/>
<path d="M154.298 62.4222C154.298 62.4222 157.306 62.3714 159.645 63.4694C163.692 65.37 162.956 67.6695 162.956 67.6695C162.956 67.6695 161.003 68.0682 157.771 66.5262C154.043 64.748 154.298 62.4222 154.298 62.4222Z" fill="#828282"/>
<path d="M159.636 60.4674C159.636 60.4674 162.926 59.4598 165.46 59.9295C169.849 60.7426 170.112 63.668 170.112 63.668C170.112 63.668 167.849 64.7753 164.338 64.1027C160.291 63.327 159.636 60.4674 159.636 60.4674Z" fill="#828282"/>
<path d="M166.336 56.7574C166.336 56.7574 169.312 55.5333 172.451 55.9434C176.547 56.4787 177.252 59.4553 177.277 59.533C177.277 59.533 174.962 60.7347 171.52 60.1438C166.903 59.3513 166.336 56.7574 166.336 56.7574Z" fill="#828282"/>
<path d="M170.335 53.1899C170.335 53.1899 173.505 51.1592 176.911 51.0803C180.221 51.0031 181.698 53.0469 181.729 53.1138C181.729 53.1138 179.175 55.0563 176.055 55.1133C171.814 55.1907 170.335 53.1899 170.335 53.1899Z" fill="#828282"/>
<path d="M172.701 49.5335C174.128 49.0399 175.365 46.4808 177.738 45.0347C181.046 43.0171 184.24 44.7448 184.278 44.7951C184.278 44.7951 182.288 48.2907 178.804 49.3531C175.101 50.4821 172.701 49.5335 172.701 49.5335Z" fill="#828282"/>
<path d="M175.737 43.496C175.737 43.496 177.064 40.272 178.973 38.2384C181.635 35.4018 185.08 36.1903 185.128 36.2287C185.128 36.2287 184.026 40.0651 180.944 42.0279C177.67 44.1139 175.737 43.496 175.737 43.496Z" fill="#828282"/>
<path d="M177.072 36.9247C177.072 36.9247 177.639 33.9666 179.093 31.578C181.285 27.9778 184.578 28.519 184.632 28.5504C184.632 28.5504 184.053 32.5522 181.265 34.9236C178.304 37.444 177.072 36.9247 177.072 36.9247Z" fill="#828282"/>
<path d="M177.354 29.3377C177.354 29.3377 177.416 26.4532 178.688 23.9614C180.456 20.503 183.495 20.0965 183.55 20.1203C183.55 20.1203 184.898 23.2576 181.576 27.1455C179.56 29.5037 177.354 29.3377 177.354 29.3377Z" fill="#828282"/>
<path d="M176.424 22.5658C176.424 22.5658 175.968 19.4966 176.677 16.7834C177.343 14.2362 179.444 12.0946 179.76 11.9551C179.76 11.9551 181.738 14.1925 179.753 18.3734C178.419 21.1854 176.424 22.5658 176.424 22.5658Z" fill="#828282"/>
<path d="M174.659 15.6308C174.659 15.6308 173.726 12.8438 174.451 9.95514C175.052 7.56161 176.522 5.33681 177.202 4.92566C177.202 4.92566 178.897 7.49931 177.384 11.3387C176.242 14.2365 175.03 15.3074 174.659 15.6308Z" fill="#828282"/>
<path d="M173.124 11.1697C173.124 11.1697 169.619 9.70826 168.357 7.9101C166.944 5.89734 166.16 2.57898 166.332 1.79492C166.332 1.79492 169.954 1.84267 171.67 5.59239C172.968 8.42247 173.145 10.6745 173.124 11.1697Z" fill="#828282"/>
<path d="M175.035 17.1373C175.035 17.1373 174.262 14.4196 171.654 12.6086C169.643 11.2127 167.804 10.7994 166.439 10.94C166.439 10.94 167.134 13.8672 170.191 15.6333C172.863 17.1787 174.545 17.1247 175.035 17.1373Z" fill="#828282"/>
<path d="M176.421 23.2215C176.421 23.2215 175.692 20.62 173.084 18.809C171.074 17.4132 169.845 17.3302 168.482 17.4708C168.482 17.4708 168.886 20.1439 171.943 21.91C174.616 23.4554 175.933 23.209 176.421 23.2215Z" fill="#828282"/>
<path d="M177.093 30.6349C177.093 30.6349 176.662 27.6443 174.515 25.2914C172.316 22.8804 170.672 22.7912 169.305 22.6953C169.423 23.4341 169.89 26.5008 172.047 28.3495C174.397 30.3644 176.613 30.5385 177.093 30.6349Z" fill="#828282"/>
<path d="M176.714 36.7713C176.714 36.7713 176.495 33.757 174.521 31.2546C172.496 28.6901 170.863 28.4819 169.506 28.2871C169.572 29.0327 169.822 32.1253 171.843 34.1258C174.043 36.3059 176.242 36.6403 176.714 36.7713Z" fill="#828282"/>
<path d="M174.96 43.4625C174.49 41.4816 174.583 39.6275 173.553 37.2653C172.284 34.3551 170.179 34.1271 168.881 33.6797C168.971 35.1258 169.062 37.3906 170.338 39.6519C171.868 42.3606 174.52 43.2449 174.96 43.4625Z" fill="#828282"/>
<path d="M172.255 49.1254C172.006 47.1038 172.104 45.6621 171.342 43.198C170.401 40.1619 168.421 39.7129 167.181 39.1211C167.111 40.5681 167.097 42.7747 168.114 45.1668C169.335 48.0317 171.842 48.8594 172.255 49.1254Z" fill="#828282"/>
<path d="M168.979 53.1267C168.549 50.2107 168.96 49.7844 168.387 47.2675C167.773 44.5644 165.837 43.7397 164.647 43.0488C164.463 44.4856 164.266 46.4539 165.11 48.915C166.009 51.5395 167.904 52.1273 168.979 53.1267Z" fill="#828282"/>
<path d="M164.609 56.5137C164.595 54.1024 165.309 52.9297 165.11 51.1335C164.783 48.1957 163.494 47.4817 162.304 46.791C162.006 50.1268 161.771 50.0343 162.076 52.2905C162.374 54.486 163.713 55.3797 164.609 56.5137Z" fill="#828282"/>
<path d="M160.073 58.9648C160.509 56.5945 161.328 56.1838 161.47 54.3819C161.699 51.4349 160.567 50.4854 159.529 49.5781C158.907 51.3407 158.216 52.323 158.329 54.5975C158.411 56.2035 159.406 57.6789 160.073 58.9648Z" fill="#828282"/>
<path d="M156.202 52.1326C156.202 52.1326 154.255 53.6855 153.546 56.1972C152.541 59.7561 154.073 61.0648 154.073 61.0648C154.073 61.0648 155.753 60.0101 157.028 56.8883C158.392 53.5537 156.202 52.1326 156.202 52.1326Z" fill="#828282"/>
<path d="M150.936 53.8047C150.936 53.8047 148.978 55.3824 148.145 57.8548C147.075 61.0233 148.375 62.5373 148.375 62.5373C148.375 62.5373 150.166 61.3186 151.356 58.7822C153.171 54.9091 150.936 53.8047 150.936 53.8047Z" fill="#828282"/>
</g>
<g clip-path="url(#clip1_6144_25480)">
<path d="M74.9795 49.5466L77.3469 36.759C77.6348 35.1886 77.8588 33.8426 78.0188 32.5606H79.0425L78.6586 35.1245H78.7226C79.7783 33.5221 81.282 32.4004 82.8496 32.4004C85.089 32.4004 85.9528 34.2592 85.9528 36.2142C85.9528 40.2203 83.2015 44.8354 79.4264 44.8354C78.2747 44.8354 77.5069 44.4187 77.059 44.4187H76.995L76.0672 49.5466H74.9795ZM77.187 43.0727C77.7308 43.4893 78.5306 43.7457 79.4904 43.7457C82.6256 43.7457 84.8011 39.2909 84.8011 36.2463C84.8011 34.8361 84.2572 33.2657 82.4977 33.2657C80.8021 33.2657 78.6266 35.413 77.9548 39.0025L77.187 43.0727Z" fill="#272727"/>
<path d="M93.9834 44.7406C93.9514 43.7791 94.1113 42.8176 94.2713 41.5357H94.2073C92.8636 44.0996 91.328 44.8367 89.7924 44.8367C88.0008 44.8367 86.9131 43.2663 86.9131 41.1511C86.9131 37.0809 89.7924 32.3376 94.3993 32.3376C95.2311 32.3376 96.1908 32.4338 96.7987 32.6581L95.551 39.1961C95.1351 41.4395 94.9751 43.4586 95.0391 44.7406H93.9834ZM95.551 33.4273C95.295 33.3312 94.8472 33.2671 94.1113 33.2671C90.6882 33.2671 88.0328 37.0809 88.0008 40.8306C87.9688 42.401 88.4167 43.7791 90.0163 43.7791C91.9359 43.7791 94.1113 40.8947 94.6872 37.818L95.551 33.4273Z" fill="#272727"/>
<path d="M97.5664 44.7392L99.07 36.5988C99.358 35.0925 99.5499 33.8426 99.6459 32.5606H100.606C100.542 33.5221 100.446 34.1631 100.286 35.445H100.35C101.054 33.8426 102.237 32.4645 103.741 32.4645C103.901 32.4645 104.061 32.4004 104.189 32.4004L103.965 33.4901C103.869 33.458 103.741 33.458 103.581 33.458C102.013 33.458 100.286 35.9578 99.8059 38.5538L98.6541 44.7392H97.5664Z" fill="#272727"/>
<path d="M109.018 29.9648L108.507 32.5608H111.29L111.098 33.5223H108.315L107.003 40.573C106.843 41.3743 106.747 41.9832 106.747 42.6242C106.747 43.3292 107.067 43.7459 107.803 43.7459C108.187 43.7459 108.443 43.7138 108.666 43.6497L108.73 44.5151C108.411 44.6112 107.995 44.6753 107.579 44.6753C106.171 44.6753 105.627 43.7459 105.627 42.7524C105.627 42.1114 105.691 41.5025 105.883 40.6051L107.227 33.5543H105.531L105.691 32.5929H107.419L107.803 30.4456L109.018 29.9648Z" fill="#272727"/>
<path d="M111.162 44.74L112.73 36.215C112.986 34.8049 113.146 33.5229 113.242 32.5614H114.265L113.913 35.1253H113.977C115.001 33.5229 116.505 32.3691 118.136 32.3691C119.288 32.3691 120.792 33.0742 120.792 35.3176C120.792 35.9266 120.696 36.6317 120.568 37.2726L119.224 44.708H118.168L119.544 37.2406C119.64 36.6957 119.704 36.0548 119.704 35.4458C119.704 34.1959 119.224 33.2665 117.753 33.2665C116.185 33.2665 113.913 35.3817 113.402 38.2661L112.25 44.708H111.162V44.74Z" fill="#272727"/>
<path d="M129.333 43.7791C128.725 44.1958 127.573 44.6765 126.101 44.6765C123.318 44.6765 122.358 42.4972 122.358 40.2217C122.358 36.7924 124.758 32.3376 128.149 32.3376C130.101 32.3376 130.932 33.5876 130.932 34.9336C130.932 37.9462 127.477 38.7795 123.606 38.7795C123.478 39.3243 123.446 40.8947 123.702 41.76C124.118 43.1061 125.046 43.7791 126.293 43.7791C127.605 43.7791 128.501 43.2984 129.045 42.9779L129.333 43.7791ZM129.845 34.9336C129.845 33.8439 129.077 33.235 127.957 33.235C126.133 33.235 124.502 35.2221 123.766 37.786C126.869 37.8501 129.845 37.3052 129.845 34.9336Z" fill="#272727"/>
<path d="M131.638 44.7392L133.141 36.5988C133.429 35.0925 133.621 33.8426 133.717 32.5606H134.677C134.613 33.5221 134.517 34.1631 134.357 35.445H134.421C135.125 33.8426 136.309 32.4645 137.812 32.4645C137.972 32.4645 138.132 32.4004 138.26 32.4004L138.036 33.4901C137.94 33.458 137.812 33.458 137.652 33.458C136.085 33.458 134.357 35.9578 133.877 38.5538L132.725 44.7392H131.638Z" fill="#272727"/>
<path d="M137.876 43.074C138.292 43.3945 139.092 43.7471 139.955 43.7471C141.523 43.7471 142.579 42.6254 142.579 41.2793C142.579 40.0935 142.099 39.3884 140.979 38.6513C139.795 37.8821 139.156 36.8245 139.156 35.7028C139.156 33.8439 140.659 32.3376 142.771 32.3376C143.57 32.3376 144.37 32.594 144.722 32.8504L144.338 33.7798C143.954 33.5555 143.347 33.2991 142.643 33.2991C141.203 33.2991 140.243 34.3247 140.243 35.5425C140.243 36.6643 140.883 37.2732 141.843 37.9462C142.995 38.7154 143.666 39.805 143.666 41.0229C143.666 43.4266 141.907 44.7406 139.859 44.7406C138.804 44.7406 137.844 44.356 137.46 44.0355L137.876 43.074Z" fill="#272727"/>
<path d="M49.7703 10.284C49.7383 10.284 49.7383 10.284 49.7063 10.284C49.4504 10.2519 49.1944 9.99552 49.1944 9.73913C49.1944 9.48274 49.0345 3.36139 52.6176 1.98329C53.5134 1.63075 54.3452 1.7269 55.049 2.20763C55.9128 2.81656 56.5206 4.00237 56.9046 5.76506C57.1605 7.01497 57.2245 8.07259 57.2245 8.13668C57.2245 8.39308 57.0325 8.58537 56.7446 8.55332C56.4887 8.52127 56.2327 8.26488 56.2327 8.00849C56.2007 6.88678 55.8168 3.84213 54.5691 2.97681C54.1852 2.68837 53.7053 2.65632 53.0975 2.91271C50.0262 4.09852 50.1862 9.83528 50.1862 9.89938C50.1862 10.0917 49.9942 10.284 49.7703 10.284Z" fill="#96BF47"/>
<path d="M57.3853 4.26022L43.5647 8.55477C43.5647 8.55477 42.9568 8.71502 42.8288 8.87526C42.6689 9.06756 42.6369 9.54829 42.6369 9.54829L40.5254 26.0855L56.5855 29.0981L57.8332 4.26022C57.6412 4.22817 57.4493 4.26022 57.3853 4.26022Z" fill="#96BF47"/>
<path d="M62.1822 6.40704C62.1822 6.40704 62.1502 6.27885 62.0862 6.2468C62.0222 6.21475 61.9262 6.1827 61.9262 6.1827L59.6548 6.02246L57.9912 4.35591C57.9272 4.29181 57.8632 4.29181 57.7672 4.25977L56.5195 29.0977L65.2214 27.2068L62.1822 6.40704Z" fill="#5F8F3E"/>
<path d="M51.6902 18.0717C51.4343 17.7512 51.1464 17.4628 50.8584 17.2064C50.5705 16.95 50.2506 16.7257 49.9307 16.5334C49.7067 16.4052 49.5148 16.277 49.3548 16.1488C49.1948 16.0206 49.0669 15.8924 48.9709 15.7642C48.8749 15.636 48.7789 15.5078 48.747 15.3796C48.683 15.2514 48.683 15.1232 48.683 14.995C48.683 14.8027 48.747 14.6425 48.8109 14.4822C48.8749 14.322 48.9709 14.1938 49.0989 14.0976C49.2268 14.0015 49.3868 13.9054 49.5468 13.8413C49.7387 13.7772 49.9307 13.7451 50.1546 13.7131C50.4106 13.7131 50.6345 13.7131 50.8584 13.7451C51.0824 13.7772 51.3063 13.8092 51.4983 13.8733C51.6902 13.9374 51.8822 13.9695 52.0741 14.0336C52.2341 14.0976 52.3941 14.1617 52.522 14.2258L53.5778 11.021C53.4178 10.9248 53.2259 10.8607 53.0019 10.7966C52.778 10.7325 52.522 10.6684 52.2661 10.6364C52.0102 10.6043 51.6902 10.5723 51.4023 10.5723C51.0824 10.5723 50.7625 10.6043 50.4425 10.6364C49.7067 10.7325 49.0669 10.9248 48.491 11.2132C47.9152 11.5017 47.4353 11.8542 47.0514 12.3029C46.6675 12.7195 46.3475 13.2323 46.1236 13.7772C45.8996 14.322 45.7717 14.9309 45.7397 15.5719C45.7077 15.9565 45.7717 16.309 45.8357 16.6616C45.9316 16.9821 46.0596 17.3025 46.2196 17.591C46.3795 17.8794 46.6035 18.1358 46.8274 18.3922C47.0514 18.6486 47.3393 18.8729 47.5952 19.0652C47.8192 19.2255 48.0111 19.3857 48.1711 19.546C48.3311 19.7062 48.459 19.8344 48.555 19.9947C48.651 20.1549 48.715 20.2831 48.7789 20.4433C48.8109 20.6036 48.8429 20.7638 48.8429 20.9241C48.8429 21.0843 48.8109 21.2446 48.747 21.3728C48.683 21.501 48.587 21.6291 48.459 21.7253C48.3311 21.8214 48.2031 21.8855 48.0431 21.9176C47.8832 21.9496 47.6912 21.9496 47.4673 21.9176C47.2113 21.8855 46.9874 21.8214 46.7634 21.7253C46.5395 21.6291 46.3155 21.533 46.0916 21.4048C45.8677 21.2766 45.6757 21.1484 45.5157 21.0523C45.3558 20.9241 45.1958 20.8279 45.0678 20.6997L44.332 23.1354C44.46 23.2957 44.62 23.4559 44.7799 23.5841C44.9719 23.7444 45.1638 23.8726 45.4198 24.0328C45.6437 24.161 45.9316 24.2892 46.1876 24.4174C46.4755 24.5456 46.7634 24.6417 47.0834 24.7058C47.7552 24.8661 48.395 24.8981 49.0029 24.802C49.6107 24.7058 50.1866 24.5136 50.6665 24.1931C51.1784 23.8405 51.5943 23.3918 51.8822 22.7829C52.2021 22.174 52.3621 21.4369 52.3941 20.6036C52.4261 20.0908 52.3301 19.6101 52.2021 19.1934C52.1381 18.7768 51.9462 18.4243 51.6902 18.0717Z" fill="#E4E4E4"/>
<path d="M46.4111 9.45193C46.3791 9.45193 46.3791 9.45193 46.3471 9.45193C46.0912 9.41988 45.8992 9.16349 45.9312 8.9071C45.9632 8.65071 46.891 2.52936 50.6981 1.15126C51.6578 0.798721 52.4576 0.894867 53.0975 1.3756C53.8333 1.98453 54.2492 3.17034 54.3132 4.93303C54.3452 6.18294 54.2172 7.24056 54.2172 7.30465C54.1852 7.56105 53.9293 7.75334 53.6733 7.72129C53.4174 7.68924 53.2254 7.43285 53.2574 7.17646C53.4174 6.05475 53.5774 3.0101 52.4896 2.14478C52.1377 1.85633 51.6578 1.82429 51.05 2.08068C47.7868 3.26649 46.923 9.00325 46.891 9.06734C46.827 9.25964 46.6351 9.45193 46.4111 9.45193Z" fill="#96BF47"/>
<path d="M75.3954 16.9825C74.5316 16.5018 74.0838 16.1172 74.0838 15.5723C74.0838 14.8673 74.6916 14.4186 75.6834 14.4186C76.5791 14.4186 77.347 14.675 77.8268 14.8993L78.6266 12.4636C78.0828 12.1431 77.059 11.8867 75.7474 11.8867C72.7401 11.8867 70.6926 13.5853 70.6926 16.021C70.6926 17.3991 71.6523 18.4247 72.932 19.1618C73.9878 19.7708 74.3397 20.1874 74.3397 20.7963C74.3397 21.4373 73.8278 21.9501 72.8681 21.9501C71.8123 21.9821 70.6926 21.5334 70.0847 21.213L69.2529 23.6487C69.8928 24.0974 71.2045 24.482 72.6121 24.482C75.6834 24.514 77.8908 22.9757 77.8908 20.2515C77.8588 18.7772 76.7391 17.7517 75.3954 16.9825Z" fill="#272727"/>
<path d="M87.618 11.8567C86.1144 11.8567 84.9307 12.5618 84.0029 13.6835L83.9389 13.6514L85.2506 6.79297H81.8274L78.5322 24.2596H81.9554L83.1071 18.2665C83.555 16.0231 84.7067 14.6129 85.7945 14.6129C86.5623 14.6129 86.8502 15.1257 86.8502 15.8628C86.8502 16.3436 86.7862 16.9204 86.6902 17.3691L85.4106 24.2276H88.8337L90.1774 17.1448C90.3374 16.4076 90.4333 15.5103 90.4333 14.9013C90.4333 13.0425 89.4096 11.8567 87.618 11.8567Z" fill="#272727"/>
<path d="M98.1432 11.8555C94.0162 11.8555 91.2969 15.5731 91.2969 19.7075C91.2969 22.3675 92.9285 24.4827 95.9997 24.4827C100.031 24.4827 102.75 20.8612 102.75 16.6308C102.782 14.195 101.342 11.8555 98.1432 11.8555ZM96.4796 21.8868C95.3279 21.8868 94.816 20.8933 94.816 19.6434C94.816 17.6884 95.8398 14.4835 97.6953 14.4835C98.911 14.4835 99.2949 15.5411 99.2949 16.5346C99.2949 18.6819 98.2712 21.8868 96.4796 21.8868Z" fill="#272727"/>
<path d="M111.546 11.8555C110.17 11.8555 108.859 12.5926 107.931 13.8746H107.867L108.059 12.0478H105.052C104.892 13.2977 104.636 15.1886 104.348 16.5987L101.98 29.1298H105.404L106.331 24.0661H106.395C106.779 24.3225 107.547 24.5148 108.411 24.5148C112.41 24.5148 115.065 20.3805 115.065 16.2141C115.065 13.9386 114.042 11.8555 111.546 11.8555ZM108.251 21.9509C107.643 21.9509 107.195 21.7586 106.843 21.4701L107.419 18.2653C107.803 16.118 108.923 14.7078 110.106 14.7078C111.162 14.7078 111.482 15.6693 111.482 16.5987C111.482 18.778 110.17 21.9509 108.251 21.9509Z" fill="#272727"/>
<path d="M119.929 6.95129C118.841 6.95129 117.978 7.81662 117.978 8.93833C117.978 9.96389 118.617 10.6369 119.577 10.6369H119.641C120.697 10.6369 121.625 9.93184 121.657 8.64989C121.657 7.65637 120.985 6.95129 119.929 6.95129Z" fill="#272727"/>
<path d="M115.162 24.2592H118.585L120.889 12.1447H117.466L115.162 24.2592Z" fill="#272727"/>
<path d="M129.589 12.1125H127.222L127.35 11.5356C127.542 10.3818 128.246 9.32421 129.365 9.32421C129.813 9.32421 130.165 9.38831 130.453 9.48446L131.125 6.79235C130.741 6.6321 130.101 6.50391 129.269 6.50391C128.054 6.50391 126.838 6.85644 125.91 7.65767C124.759 8.65118 124.215 10.0934 123.927 11.5356L123.831 12.1125H122.231L121.751 14.7084H123.351L121.527 24.2911H124.951L126.774 14.7084H129.141L129.589 12.1125Z" fill="#272727"/>
<path d="M137.813 12.1447L135.734 17.593C135.254 18.907 134.998 19.6762 134.71 20.5094H134.646C134.582 19.7082 134.486 18.8429 134.358 17.625L133.814 12.1767H130.231L132.279 23.3297C132.343 23.5861 132.311 23.7143 132.215 23.9066C131.831 24.6758 131.159 25.4129 130.359 25.9577C129.719 26.4385 128.983 26.7269 128.439 26.9192L129.367 29.8357C130.071 29.6754 131.511 29.1306 132.726 27.9768C134.294 26.5026 135.734 24.2592 137.205 21.1825L141.396 12.2088H137.813V12.1447Z" fill="#272727"/>
</g>
<defs>
<clipPath id="clip0_6144_25480">
<rect width="48" height="70" fill="white" transform="translate(137)"/>
</clipPath>
<clipPath id="clip1_6144_25480">
<rect width="105" height="50" fill="white" transform="translate(40)"/>
</clipPath>
</defs>
</svg>
