<svg width="200" height="70" viewBox="0 0 200 70" fill="none" xmlns="http://www.w3.org/2000/svg">
<g clip-path="url(#clip0_6144_25422)">
<g clip-path="url(#clip1_6144_25422)">
<path d="M98.118 5.71536C94.4589 5.73292 91.4783 8.74036 91.4951 12.4849C91.5119 16.2295 94.5223 19.2087 98.1814 19.1919C101.84 19.1751 104.822 16.1669 104.804 12.4238C104.787 8.68077 101.777 5.69931 98.1164 5.71688L98.118 5.71536ZM98.1684 16.4457C97.131 16.4518 96.1341 16.0447 95.397 15.3151C94.6598 14.5856 94.2512 13.5918 94.2397 12.5545C94.2282 11.5171 94.6407 10.5202 95.3703 9.78306C96.0998 9.04591 97.0936 8.63723 98.131 8.62577C99.1683 8.61431 100.165 9.02681 100.902 9.75633C101.639 10.4858 102.048 11.4797 102.06 12.517C102.07 14.5986 100.249 16.435 98.1684 16.4457ZM112.942 8.88931C111.028 8.89848 109.538 10.4858 109.547 12.3994L109.578 18.8046L106.666 18.8183L106.607 6.08966L109.519 6.07591L109.529 8.07195C109.529 8.07195 110.766 6.07056 113.263 6.05911L114.095 6.05452L114.109 8.88244L112.942 8.88931ZM83.8944 6.19813L86.0989 14.9233L88.3876 6.17674L91.2995 6.16376L87.697 18.9169L84.8691 18.9299L82.582 10.0397L80.3774 18.9505L77.5487 18.9635L73.7461 6.25237L76.574 6.23938L79.1101 14.963L81.1497 6.21799L83.8944 6.19813ZM122.604 11.8402C124.594 10.6669 126 8.49668 125.988 6.00105L123.077 6.0148C123.087 8.17813 121.347 9.93355 119.268 9.94119L118.851 9.94272L118.806 -0.123047L115.894 -0.109297L115.983 18.774L118.893 18.761L118.866 12.7722L119.198 12.7706C119.531 12.7691 119.865 12.9341 119.95 13.1831L124.052 18.7366L127.463 18.7213L122.604 11.8402Z" fill="#272727"/>
<path d="M67.0072 5.8618C63.847 5.87708 61.4438 7.96785 60.5447 11.2992C59.036 8.97694 57.8588 6.3209 57.1835 4.07812L53.8568 4.0934L53.8981 12.911C53.9017 13.7493 53.5723 14.5548 52.9823 15.1504C52.3923 15.746 51.59 16.083 50.7516 16.0872C49.9133 16.0909 49.1077 15.7615 48.5122 15.1715C47.9166 14.5815 47.5796 13.7791 47.5754 12.9408L47.5333 4.12319L44.2051 4.13847L44.2463 12.956C44.2639 16.6151 47.1873 19.5148 50.7654 19.4972C54.3434 19.4797 57.2416 16.5547 57.2248 12.8949L57.2172 11.3977C57.8879 12.7246 58.7266 14.1347 59.6486 15.3791L57.6144 25.121L61.0244 25.1057L62.4911 18.0275C63.8256 18.854 65.3174 19.3452 67.0713 19.3368C70.7319 19.3192 73.7133 16.3118 73.6942 12.4847C73.6803 10.7215 72.9694 9.03531 71.7167 7.79434C70.464 6.55337 68.7712 5.85836 67.0079 5.86104L67.0072 5.8618ZM67.0545 15.9276C65.7238 15.9337 64.3908 15.3577 63.3054 14.4472L63.6315 13.1157V13.0393C63.876 11.6231 64.6108 9.20764 67.1072 9.19694C67.9874 9.19549 68.8326 9.54174 69.4588 10.1603C70.085 10.7789 70.4415 11.6198 70.4508 12.5C70.3759 14.4135 68.8031 15.9184 67.0553 15.9268L67.0545 15.9276Z" fill="#6FDA44"/>
</g>
<path d="M159.445 15.2778V1.38892L149.028 8.33336L138.611 15.2778L149.028 23.2639L159.445 15.2778Z" fill="#FF057B"/>
<path d="M159.445 1.38892H138.611L149.028 8.33336L159.445 1.38892Z" fill="#FF9CBE"/>
<path d="M138.611 1.38892V15.2778L149.028 8.33336L138.611 1.38892Z" fill="#FF619C"/>
<path d="M47.7781 46.334V37.5284H44.2225V36.5423H52.4864V37.5284H48.9309V46.334H47.7781ZM57.2311 46.459C56.3237 46.459 55.532 46.2553 54.8561 45.8479C54.1895 45.4312 53.6709 44.8479 53.3006 44.0979C52.9395 43.3479 52.7589 42.459 52.7589 41.4312C52.7589 40.4034 52.9395 39.5145 53.3006 38.7645C53.6617 38.0145 54.1756 37.4358 54.8422 37.0284C55.5182 36.621 56.3145 36.4173 57.2311 36.4173C58.157 36.4173 58.9533 36.621 59.62 37.0284C60.2959 37.4358 60.8145 38.0145 61.1756 38.7645C61.5459 39.5053 61.7311 40.3895 61.7311 41.4173C61.7311 42.4451 61.5459 43.3386 61.1756 44.0979C60.8052 44.8479 60.282 45.4312 59.6061 45.8479C58.9395 46.2553 58.1478 46.459 57.2311 46.459ZM57.2311 45.4451C58.2774 45.4451 59.0876 45.0932 59.6617 44.3895C60.2357 43.6858 60.5228 42.6997 60.5228 41.4312C60.5228 40.1627 60.2357 39.1812 59.6617 38.4868C59.0876 37.7831 58.2774 37.4312 57.2311 37.4312C56.2033 37.4312 55.4024 37.7831 54.8283 38.4868C54.2543 39.1812 53.9672 40.1627 53.9672 41.4312C53.9672 42.6905 54.2543 43.6766 54.8283 44.3895C55.4024 45.0932 56.2033 45.4451 57.2311 45.4451ZM63.7673 46.334V36.5423H67.6423C68.6978 36.5423 69.5034 36.7969 70.0589 37.3062C70.6237 37.8155 70.9061 38.5423 70.9061 39.4868C70.9061 40.4219 70.6237 41.1488 70.0589 41.6673C69.5034 42.1766 68.6978 42.4312 67.6423 42.4312H64.9061V46.334H63.7673ZM64.9061 41.4729H67.5034C69.0219 41.4729 69.7811 40.8108 69.7811 39.4868C69.7811 38.1534 69.0219 37.4868 67.5034 37.4868H64.9061V41.4729ZM76.1235 46.334V36.5423H79.9985C81.054 36.5423 81.8596 36.7877 82.4151 37.2784C82.98 37.7692 83.2624 38.4682 83.2624 39.3757C83.2624 40.0979 83.0633 40.6905 82.6651 41.1534C82.2763 41.6164 81.7207 41.9173 80.9985 42.0562C81.4244 42.2044 81.7901 42.5655 82.0957 43.1395L83.8179 46.334H82.5679L80.8735 43.1951C80.6605 42.8062 80.4151 42.5423 80.1374 42.4034C79.8596 42.2645 79.4938 42.1951 79.0401 42.1951H77.2624V46.334H76.1235ZM77.2624 41.2923H79.8318C81.3688 41.2923 82.1374 40.6534 82.1374 39.3757C82.1374 38.1164 81.3688 37.4868 79.8318 37.4868H77.2624V41.2923ZM84.3207 46.334L88.6402 36.5423H89.6124L93.9319 46.334H92.7513L91.668 43.834H86.5707L85.5013 46.334H84.3207ZM89.1124 37.8757L86.9874 42.8757H91.2652L89.1402 37.8757H89.1124ZM96.7283 46.334V37.5284H93.1727V36.5423H101.437V37.5284H97.8811V46.334H96.7283ZM102.681 46.334V36.5423H108.861V37.5007H103.792V40.8895H108.569V41.8479H103.792V45.3757H108.861V46.334H102.681ZM110.778 46.334V36.5423H114.083C115.667 36.5423 116.889 36.9636 117.75 37.8062C118.611 38.6395 119.042 39.8479 119.042 41.4312C119.042 43.0145 118.611 44.2275 117.75 45.0701C116.889 45.9127 115.667 46.334 114.083 46.334H110.778ZM111.917 45.3618H114C116.556 45.3618 117.833 44.0516 117.833 41.4312C117.833 38.8201 116.556 37.5145 114 37.5145H111.917V45.3618ZM124.653 46.334V36.5423H128.528C129.584 36.5423 130.389 36.7969 130.945 37.3062C131.51 37.8155 131.792 38.5423 131.792 39.4868C131.792 40.4219 131.51 41.1488 130.945 41.6673C130.389 42.1766 129.584 42.4312 128.528 42.4312H125.792V46.334H124.653ZM125.792 41.4729H128.389C129.908 41.4729 130.667 40.8108 130.667 39.4868C130.667 38.1534 129.908 37.4868 128.389 37.4868H125.792V41.4729ZM133.442 46.334V36.5423H134.581V45.334H139.567V46.334H133.442ZM144.478 46.459C143.191 46.459 142.215 46.121 141.548 45.4451C140.881 44.7599 140.548 43.7645 140.548 42.459V36.5423H141.687V42.4034C141.687 44.4312 142.617 45.4451 144.478 45.4451C146.321 45.4451 147.242 44.4312 147.242 42.4034V36.5423H148.381V42.459C148.381 43.7645 148.048 44.7599 147.381 45.4451C146.724 46.121 145.756 46.459 144.478 46.459ZM153.889 46.459C153.12 46.459 152.426 46.3618 151.805 46.1673C151.185 45.9636 150.648 45.6719 150.194 45.2923L150.597 44.3757C151.069 44.7368 151.565 45.0053 152.083 45.1812C152.602 45.3571 153.203 45.4451 153.889 45.4451C154.722 45.4451 155.338 45.2923 155.736 44.9868C156.143 44.6719 156.347 44.2599 156.347 43.7507C156.347 43.3432 156.199 43.0192 155.903 42.7784C155.616 42.5377 155.129 42.3479 154.444 42.209L153 41.9173C152.129 41.7321 151.477 41.4312 151.041 41.0145C150.616 40.5886 150.403 40.0238 150.403 39.3201C150.403 38.7368 150.551 38.2275 150.847 37.7923C151.153 37.3571 151.574 37.0192 152.111 36.7784C152.648 36.5377 153.268 36.4173 153.972 36.4173C154.629 36.4173 155.241 36.5238 155.805 36.7368C156.37 36.9405 156.847 37.2368 157.236 37.6257L156.833 38.5145C156.416 38.1349 155.977 37.8618 155.514 37.6951C155.051 37.5192 154.532 37.4312 153.958 37.4312C153.227 37.4312 152.643 37.6025 152.208 37.9451C151.773 38.2784 151.555 38.7229 151.555 39.2784C151.555 39.7229 151.69 40.0747 151.958 40.334C152.236 40.5932 152.685 40.7831 153.305 40.9034L154.75 41.209C155.685 41.4034 156.375 41.6997 156.819 42.0979C157.273 42.4868 157.5 43.0192 157.5 43.6951C157.5 44.2414 157.352 44.7229 157.055 45.1395C156.768 45.5562 156.352 45.8803 155.805 46.1118C155.268 46.3432 154.629 46.459 153.889 46.459Z" fill="#828282"/>
</g>
<path d="M14.1129 6.75391C13.1218 8.3818 12.0843 10.3103 11.4148 12.2367C10.227 15.6546 9.19355 19.3672 8.47488 22.9367C7.98937 25.3479 7.53825 28.8756 7.52502 31.3236C7.5075 34.5817 7.62776 36.8032 8.28166 40.0727C9.20292 44.6789 11.2504 48.8986 14.0189 52.4907C18.0922 57.7753 24.8438 60.6577 31.1734 62.6064C36.1249 64.1308 41.8071 64.0032 46.6666 63.594L46.5801 62.2376C41.7657 62.6439 36.4773 62.6608 31.73 61.1962C25.6231 59.3119 19.4667 56.4199 15.1945 51.5628C12.5932 48.6064 10.6551 44.9411 9.57176 41.0263C8.62278 37.5969 8.40745 33.8212 8.29107 30.3517C8.19551 27.4994 8.50021 25.1031 9.01139 22.4914C9.65944 19.18 10.51 15.8501 11.5776 12.6755C12.2688 10.6206 13.4734 8.49809 14.4707 6.86009L14.1129 6.75391Z" fill="#828282"/>
<path d="M37.3878 63.5977C37.3878 63.5977 34.0297 64.0083 31.8237 65.3586C28.3213 67.502 29.0233 69.9879 29.0233 69.9879C29.0233 69.9879 30.9259 70.2389 33.9502 68.4181C37.4933 66.2851 37.3878 63.5977 37.3878 63.5977Z" fill="#828282"/>
<path d="M30.8294 62.4222C30.8294 62.4222 27.8218 62.3714 25.4834 63.4694C21.4353 65.37 22.1715 67.6695 22.1715 67.6695C22.1715 67.6695 24.1234 68.0682 27.3567 66.5262C31.0854 64.748 30.8294 62.4222 30.8294 62.4222Z" fill="#828282"/>
<path d="M25.4924 60.4674C25.4924 60.4674 22.2029 59.4598 19.668 59.9295C15.2795 60.7426 15.0156 63.668 15.0156 63.668C15.0156 63.668 17.2782 64.7753 20.7891 64.1027C24.838 63.327 25.4924 60.4674 25.4924 60.4674Z" fill="#828282"/>
<path d="M18.7921 56.7574C18.7921 56.7574 15.8166 55.5333 12.6776 55.9434C8.58116 56.4787 7.87624 59.4553 7.85156 59.533C7.85156 59.533 10.1666 60.7347 13.609 60.1438C18.2263 59.3513 18.7921 56.7574 18.7921 56.7574Z" fill="#828282"/>
<path d="M14.7942 53.1899C14.7942 53.1899 11.6241 51.1592 8.21707 51.0803C4.90713 51.0031 3.42979 53.0469 3.40039 53.1138C3.40039 53.1138 5.9529 55.0563 9.07385 55.1133C13.3143 55.1907 14.7942 53.1899 14.7942 53.1899Z" fill="#828282"/>
<path d="M12.4277 49.5335C11 49.0399 9.76399 46.4808 7.39171 45.0347C4.08218 43.0171 0.887417 44.7448 0.850586 44.7951C0.850586 44.7951 2.84108 48.2907 6.32548 49.3531C10.0285 50.4821 12.4277 49.5335 12.4277 49.5335Z" fill="#828282"/>
<path d="M9.39045 43.496C9.39045 43.496 8.06361 40.272 6.15546 38.2384C3.49361 35.4018 0.048778 36.1903 0 36.2287C0 36.2287 1.10232 40.0651 4.18306 42.0279C7.45719 44.1139 9.39045 43.496 9.39045 43.496Z" fill="#828282"/>
<path d="M8.05536 36.9247C8.05536 36.9247 7.48804 33.9666 6.03435 31.578C3.84343 27.9778 0.54866 28.519 0.495117 28.5504C0.495117 28.5504 1.07493 32.5522 3.86211 34.9236C6.82422 37.444 8.05536 36.9247 8.05536 36.9247Z" fill="#828282"/>
<path d="M7.77345 29.3377C7.77345 29.3377 7.71339 26.4532 6.43947 23.9614C4.67139 20.503 1.63413 20.0965 1.57703 20.1203C1.57703 20.1203 0.229271 23.2576 3.55175 27.1455C5.56716 29.5037 7.77345 29.3377 7.77345 29.3377Z" fill="#828282"/>
<path d="M8.70414 22.5658C8.70414 22.5658 9.16011 19.4966 8.45131 16.7834C7.78586 14.2362 5.68487 12.0946 5.36749 11.9551C5.36749 11.9551 3.39088 14.1925 5.37497 18.3734C6.70944 21.1854 8.70414 22.5658 8.70414 22.5658Z" fill="#828282"/>
<path d="M10.4692 15.6308C10.4692 15.6308 11.4037 12.8438 10.6784 9.95514C10.077 7.56161 8.60615 5.33681 7.92602 4.92566C7.92602 4.92566 6.23175 7.49931 7.74452 11.3387C8.88631 14.2365 10.0986 15.3074 10.4692 15.6308Z" fill="#828282"/>
<path d="M12.0037 11.1697C12.0037 11.1697 15.5089 9.70826 16.7709 7.9101C18.1837 5.89734 18.9684 2.57898 18.7964 1.79492C18.7964 1.79492 15.1744 1.84267 13.4568 5.59239C12.1605 8.42247 11.9815 10.6745 12.0037 11.1697Z" fill="#828282"/>
<path d="M10.0938 17.1373C10.0938 17.1373 10.8662 14.4196 13.4741 12.6086C15.4843 11.2127 17.3252 10.7994 18.6889 10.94C18.6889 10.94 17.9934 13.8672 14.938 15.6333C12.2644 17.1787 10.5826 17.1247 10.0938 17.1373Z" fill="#828282"/>
<path d="M8.70703 23.2215C8.70703 23.2215 9.43638 20.62 12.0444 18.809C14.0546 17.4132 15.2829 17.3302 16.6466 17.4708C16.6466 17.4708 16.2412 20.1439 13.1859 21.91C10.5123 23.4554 9.19588 23.209 8.70703 23.2215Z" fill="#828282"/>
<path d="M8.03613 30.6349C8.03613 30.6349 8.46651 27.6443 10.6129 25.2914C12.8123 22.8804 14.4565 22.7912 15.824 22.6953C15.7052 23.4341 15.238 26.5008 13.0818 28.3495C10.7319 30.3644 8.51579 30.5385 8.03613 30.6349Z" fill="#828282"/>
<path d="M8.41504 36.7713C8.41504 36.7713 8.63337 33.757 10.6082 31.2546C12.6318 28.6901 14.2655 28.4819 15.6228 28.2871C15.5563 29.0327 15.3067 32.1253 13.2865 34.1258C11.0847 36.3059 8.88666 36.6403 8.41504 36.7713Z" fill="#828282"/>
<path d="M10.168 43.4625C10.638 41.4816 10.5454 39.6275 11.5756 37.2653C12.8449 34.3551 14.9504 34.1271 16.2482 33.6797C16.1583 35.1258 16.0653 37.3906 14.7896 39.6519C13.2616 42.3606 10.6074 43.2449 10.168 43.4625Z" fill="#828282"/>
<path d="M12.873 49.1254C13.1216 47.1038 13.0236 45.6621 13.7866 43.198C14.7267 40.1619 16.706 39.7129 17.9464 39.1211C18.0166 40.5681 18.0308 42.7747 17.0127 45.1668C15.7932 48.0317 13.2856 48.8594 12.873 49.1254Z" fill="#828282"/>
<path d="M16.1484 53.1267C16.5786 50.2107 16.1686 49.7844 16.7406 47.2675C17.355 44.5644 19.2908 43.7397 20.4802 43.0488C20.6647 44.4856 20.8604 46.4539 20.0172 48.915C19.1179 51.5395 17.223 52.1273 16.1484 53.1267Z" fill="#828282"/>
<path d="M20.519 56.5137C20.5336 54.1024 19.8194 52.9297 20.0185 51.1335C20.3442 48.1957 21.6337 47.4817 22.8233 46.791C23.1218 50.1268 23.3573 50.0343 23.0516 52.2905C22.7542 54.486 21.4145 55.3797 20.519 56.5137Z" fill="#828282"/>
<path d="M25.0554 58.9648C24.6177 56.5945 23.8005 56.1838 23.6592 54.3819C23.4282 51.4349 24.5604 50.4854 25.5988 49.5781C26.2221 51.3407 26.9128 52.323 26.7984 54.5975C26.7177 56.2035 25.7221 57.6789 25.0554 58.9648Z" fill="#828282"/>
<path d="M28.9272 52.1326C28.9272 52.1326 30.8738 53.6855 31.5831 56.1972C32.5884 59.7561 31.0549 61.0648 31.0549 61.0648C31.0549 61.0648 29.3754 60.0101 28.0998 56.8883C26.7375 53.5537 28.9272 52.1326 28.9272 52.1326Z" fill="#828282"/>
<path d="M34.1925 53.8047C34.1925 53.8047 36.1512 55.3824 36.9846 57.8548C38.0527 61.0233 36.7538 62.5373 36.7538 62.5373C36.7538 62.5373 34.9627 61.3186 33.7736 58.7822C31.9579 54.9091 34.1925 53.8047 34.1925 53.8047Z" fill="#828282"/>
<g clip-path="url(#clip2_6144_25422)">
<path d="M186.015 6.75391C187.005 8.3818 188.043 10.3103 188.712 12.2367C189.9 15.6546 190.934 19.3672 191.652 22.9367C192.139 25.3479 192.589 28.8756 192.602 31.3236C192.62 34.5817 192.499 36.8032 191.846 40.0727C190.925 44.6789 188.877 48.8986 186.108 52.4907C182.035 57.7753 175.283 60.6577 168.954 62.6064C164.002 64.1308 158.32 64.0032 153.461 63.594L153.547 62.2376C158.363 62.6439 163.65 62.6608 168.398 61.1962C174.504 59.3119 180.66 56.4199 184.932 51.5628C187.535 48.6064 189.473 44.9411 190.556 41.0263C191.505 37.5969 191.72 33.8212 191.837 30.3517C191.932 27.4994 191.627 25.1031 191.116 22.4914C190.468 19.18 189.617 15.8501 188.551 12.6755C187.858 10.6206 186.654 8.49809 185.657 6.86009L186.015 6.75391Z" fill="#828282"/>
<path d="M162.741 63.5977C162.741 63.5977 166.097 64.0083 168.303 65.3586C171.806 67.502 171.105 69.9879 171.105 69.9879C171.105 69.9879 169.202 70.2389 166.178 68.4181C162.635 66.2851 162.741 63.5977 162.741 63.5977Z" fill="#828282"/>
<path d="M169.298 62.4222C169.298 62.4222 172.306 62.3714 174.645 63.4694C178.692 65.37 177.956 67.6695 177.956 67.6695C177.956 67.6695 176.003 68.0682 172.771 66.5262C169.043 64.748 169.298 62.4222 169.298 62.4222Z" fill="#828282"/>
<path d="M174.636 60.4674C174.636 60.4674 177.926 59.4598 180.46 59.9295C184.849 60.7426 185.112 63.668 185.112 63.668C185.112 63.668 182.849 64.7753 179.338 64.1027C175.291 63.327 174.636 60.4674 174.636 60.4674Z" fill="#828282"/>
<path d="M181.336 56.7574C181.336 56.7574 184.312 55.5333 187.451 55.9434C191.547 56.4787 192.252 59.4553 192.277 59.533C192.277 59.533 189.962 60.7347 186.52 60.1438C181.903 59.3513 181.336 56.7574 181.336 56.7574Z" fill="#828282"/>
<path d="M185.335 53.1899C185.335 53.1899 188.505 51.1592 191.911 51.0803C195.221 51.0031 196.698 53.0469 196.729 53.1138C196.729 53.1138 194.175 55.0563 191.055 55.1133C186.814 55.1907 185.335 53.1899 185.335 53.1899Z" fill="#828282"/>
<path d="M187.7 49.5335C189.127 49.0399 190.364 46.4808 192.737 45.0347C196.045 43.0171 199.239 44.7448 199.277 44.7951C199.277 44.7951 197.287 48.2907 193.803 49.3531C190.1 50.4821 187.7 49.5335 187.7 49.5335Z" fill="#828282"/>
<path d="M190.737 43.496C190.737 43.496 192.064 40.272 193.973 38.2384C196.635 35.4018 200.08 36.1903 200.128 36.2287C200.128 36.2287 199.026 40.0651 195.944 42.0279C192.67 44.1139 190.737 43.496 190.737 43.496Z" fill="#828282"/>
<path d="M192.072 36.9247C192.072 36.9247 192.639 33.9666 194.093 31.578C196.285 27.9778 199.578 28.519 199.632 28.5504C199.632 28.5504 199.053 32.5522 196.265 34.9236C193.304 37.444 192.072 36.9247 192.072 36.9247Z" fill="#828282"/>
<path d="M192.354 29.3377C192.354 29.3377 192.416 26.4532 193.688 23.9614C195.456 20.503 198.495 20.0965 198.55 20.1203C198.55 20.1203 199.898 23.2576 196.576 27.1455C194.56 29.5037 192.354 29.3377 192.354 29.3377Z" fill="#828282"/>
<path d="M191.424 22.5658C191.424 22.5658 190.968 19.4966 191.677 16.7834C192.343 14.2362 194.444 12.0946 194.76 11.9551C194.76 11.9551 196.738 14.1925 194.753 18.3734C193.419 21.1854 191.424 22.5658 191.424 22.5658Z" fill="#828282"/>
<path d="M189.659 15.6308C189.659 15.6308 188.726 12.8438 189.451 9.95514C190.052 7.56161 191.522 5.33681 192.202 4.92566C192.202 4.92566 193.897 7.49931 192.384 11.3387C191.242 14.2365 190.03 15.3074 189.659 15.6308Z" fill="#828282"/>
<path d="M188.124 11.1697C188.124 11.1697 184.619 9.70826 183.357 7.9101C181.944 5.89734 181.16 2.57898 181.332 1.79492C181.332 1.79492 184.954 1.84267 186.67 5.59239C187.968 8.42247 188.145 10.6745 188.124 11.1697Z" fill="#828282"/>
<path d="M190.035 17.1373C190.035 17.1373 189.262 14.4196 186.654 12.6086C184.643 11.2127 182.804 10.7994 181.439 10.94C181.439 10.94 182.134 13.8672 185.191 15.6333C187.863 17.1787 189.545 17.1247 190.035 17.1373Z" fill="#828282"/>
<path d="M191.421 23.2215C191.421 23.2215 190.692 20.62 188.084 18.809C186.074 17.4132 184.845 17.3302 183.482 17.4708C183.482 17.4708 183.886 20.1439 186.943 21.91C189.616 23.4554 190.933 23.209 191.421 23.2215Z" fill="#828282"/>
<path d="M192.093 30.6349C192.093 30.6349 191.662 27.6443 189.515 25.2914C187.316 22.8804 185.672 22.7912 184.305 22.6953C184.423 23.4341 184.89 26.5008 187.047 28.3495C189.397 30.3644 191.613 30.5385 192.093 30.6349Z" fill="#828282"/>
<path d="M191.714 36.7713C191.714 36.7713 191.495 33.757 189.521 31.2546C187.496 28.6901 185.863 28.4819 184.506 28.2871C184.572 29.0327 184.822 32.1253 186.843 34.1258C189.043 36.3059 191.242 36.6403 191.714 36.7713Z" fill="#828282"/>
<path d="M189.96 43.4625C189.49 41.4816 189.583 39.6275 188.553 37.2653C187.284 34.3551 185.179 34.1271 183.881 33.6797C183.971 35.1258 184.062 37.3906 185.338 39.6519C186.868 42.3606 189.52 43.2449 189.96 43.4625Z" fill="#828282"/>
<path d="M187.255 49.1254C187.006 47.1038 187.104 45.6621 186.342 43.198C185.401 40.1619 183.421 39.7129 182.181 39.1211C182.111 40.5681 182.097 42.7747 183.114 45.1668C184.335 48.0317 186.842 48.8594 187.255 49.1254Z" fill="#828282"/>
<path d="M183.979 53.1267C183.549 50.2107 183.96 49.7844 183.387 47.2675C182.773 44.5644 180.837 43.7397 179.647 43.0488C179.463 44.4856 179.266 46.4539 180.11 48.915C181.009 51.5395 182.904 52.1273 183.979 53.1267Z" fill="#828282"/>
<path d="M179.609 56.5137C179.595 54.1024 180.309 52.9297 180.11 51.1335C179.783 48.1957 178.494 47.4817 177.304 46.791C177.006 50.1268 176.771 50.0343 177.076 52.2905C177.374 54.486 178.713 55.3797 179.609 56.5137Z" fill="#828282"/>
<path d="M175.073 58.9648C175.509 56.5945 176.328 56.1838 176.47 54.3819C176.699 51.4349 175.567 50.4854 174.529 49.5781C173.907 51.3407 173.216 52.323 173.329 54.5975C173.411 56.2035 174.406 57.6789 175.073 58.9648Z" fill="#828282"/>
<path d="M171.202 52.1326C171.202 52.1326 169.255 53.6855 168.546 56.1972C167.541 59.7561 169.073 61.0648 169.073 61.0648C169.073 61.0648 170.753 60.0101 172.028 56.8883C173.392 53.5537 171.202 52.1326 171.202 52.1326Z" fill="#828282"/>
<path d="M165.936 53.8047C165.936 53.8047 163.978 55.3824 163.145 57.8548C162.075 61.0233 163.375 62.5373 163.375 62.5373C163.375 62.5373 165.166 61.3186 166.356 58.7822C168.171 54.9091 165.936 53.8047 165.936 53.8047Z" fill="#828282"/>
</g>
<defs>
<clipPath id="clip0_6144_25422">
<rect width="120" height="50" fill="white" transform="translate(40)"/>
</clipPath>
<clipPath id="clip1_6144_25422">
<rect width="91.6667" height="23.6111" fill="white" transform="translate(40)"/>
</clipPath>
<clipPath id="clip2_6144_25422">
<rect width="48" height="70" fill="white" transform="translate(152)"/>
</clipPath>
</defs>
</svg>
