<svg width="268" height="70" viewBox="0 0 268 70" fill="none" xmlns="http://www.w3.org/2000/svg">
<g clip-path="url(#clip0_6144_24871)">
<path d="M46.8453 46.8348C45.9786 46.8348 45.237 46.6515 44.6203 46.2848C44.0036 45.9181 43.5286 45.3973 43.1953 44.7223C42.8703 44.0473 42.7078 43.2431 42.7078 42.3098C42.7078 41.3848 42.8703 40.5848 43.1953 39.9098C43.5286 39.2348 44.0036 38.714 44.6203 38.3473C45.237 37.9806 45.9786 37.7973 46.8453 37.7973C47.4536 37.7973 48.012 37.8931 48.5203 38.0848C49.037 38.2765 49.4745 38.5556 49.8328 38.9223L49.4328 39.7598C49.0495 39.4015 48.6495 39.1431 48.2328 38.9848C47.8245 38.8181 47.3703 38.7348 46.8703 38.7348C45.8786 38.7348 45.1203 39.0473 44.5953 39.6723C44.0703 40.2973 43.8078 41.1765 43.8078 42.3098C43.8078 43.4515 44.0703 44.3348 44.5953 44.9598C45.1203 45.5848 45.8786 45.8973 46.8703 45.8973C47.3703 45.8973 47.8245 45.8181 48.2328 45.6598C48.6495 45.4931 49.0495 45.2306 49.4328 44.8723L49.8328 45.7098C49.4745 46.0681 49.037 46.3473 48.5203 46.5473C48.012 46.739 47.4536 46.8348 46.8453 46.8348ZM53.1685 46.8348C52.5518 46.8348 52.0851 46.6556 51.7685 46.2973C51.4601 45.9306 51.306 45.4015 51.306 44.7098V37.9098H52.3185V44.6348C52.3185 45.5265 52.6726 45.9723 53.381 45.9723C53.5893 45.9723 53.7768 45.9473 53.9435 45.8973L53.9185 46.7473C53.6601 46.8056 53.4101 46.8348 53.1685 46.8348ZM57.1547 46.8348C55.6964 46.8348 54.9672 46.0306 54.9672 44.4223V40.6473H55.9797V44.4098C55.9797 44.9515 56.088 45.3515 56.3047 45.6098C56.5297 45.8681 56.8797 45.9973 57.3547 45.9973C57.8714 45.9973 58.2922 45.8265 58.6172 45.4848C58.9422 45.1348 59.1047 44.6723 59.1047 44.0973V40.6473H60.1172V46.7223H59.1297V45.6973C58.938 46.064 58.6672 46.3473 58.3172 46.5473C57.9755 46.739 57.588 46.8348 57.1547 46.8348ZM64.449 46.8348C63.7324 46.8348 63.1949 46.6473 62.8365 46.2723C62.4782 45.889 62.299 45.339 62.299 44.6223V41.4348H61.1115V40.6473H62.299V38.7848H63.3115V40.6473H65.2365V41.4348H63.3115V44.5223C63.3115 44.9973 63.4115 45.3598 63.6115 45.6098C63.8115 45.8515 64.1365 45.9723 64.5865 45.9723C64.7199 45.9723 64.8532 45.9556 64.9865 45.9223C65.1199 45.889 65.2407 45.8556 65.349 45.8223L65.524 46.5973C65.4157 46.6556 65.2574 46.7098 65.049 46.7598C64.8407 46.8098 64.6407 46.8348 64.449 46.8348ZM68.8956 46.8348C68.2873 46.8348 67.7623 46.7056 67.3206 46.4473C66.8789 46.1806 66.5373 45.8098 66.2956 45.3348C66.0623 44.8515 65.9456 44.289 65.9456 43.6473C65.9456 42.6806 66.2081 41.9223 66.7331 41.3723C67.2581 40.814 67.9789 40.5348 68.8956 40.5348C69.2706 40.5348 69.6414 40.6015 70.0081 40.7348C70.3748 40.8681 70.6789 41.0556 70.9206 41.2973L70.5706 42.0348C70.3289 41.8015 70.0623 41.6306 69.7706 41.5223C69.4873 41.414 69.2164 41.3598 68.9581 41.3598C68.3248 41.3598 67.8373 41.5598 67.4956 41.9598C67.1539 42.3515 66.9831 42.9181 66.9831 43.6598C66.9831 44.3848 67.1539 44.9598 67.4956 45.3848C67.8373 45.8015 68.3248 46.0098 68.9581 46.0098C69.2164 46.0098 69.4873 45.9556 69.7706 45.8473C70.0623 45.739 70.3289 45.564 70.5706 45.3223L70.9206 46.0598C70.6789 46.3015 70.3706 46.4931 69.9956 46.6348C69.6289 46.7681 69.2623 46.8348 68.8956 46.8348ZM72.1067 46.7223V37.9098H73.1192V41.6473C73.3192 41.2806 73.5984 41.0056 73.9567 40.8223C74.3234 40.6306 74.7317 40.5348 75.1817 40.5348C76.6234 40.5348 77.3442 41.3348 77.3442 42.9348V46.7223H76.3317V42.9973C76.3317 42.4306 76.2192 42.0181 75.9942 41.7598C75.7776 41.4931 75.4276 41.3598 74.9442 41.3598C74.3859 41.3598 73.9401 41.5348 73.6067 41.8848C73.2817 42.2265 73.1192 42.6848 73.1192 43.2598V46.7223H72.1067ZM86.2592 46.8348C85.4425 46.8348 84.73 46.6515 84.1217 46.2848C83.5217 45.9098 83.055 45.3848 82.7217 44.7098C82.3967 44.0348 82.2342 43.2348 82.2342 42.3098C82.2342 41.3848 82.3967 40.5848 82.7217 39.9098C83.0467 39.2348 83.5092 38.714 84.1092 38.3473C84.7175 37.9806 85.4342 37.7973 86.2592 37.7973C87.0925 37.7973 87.8092 37.9806 88.4092 38.3473C89.0175 38.714 89.4842 39.2348 89.8092 39.9098C90.1425 40.5765 90.3092 41.3723 90.3092 42.2973C90.3092 43.2223 90.1425 44.0265 89.8092 44.7098C89.4758 45.3848 89.005 45.9098 88.3967 46.2848C87.7967 46.6515 87.0842 46.8348 86.2592 46.8348ZM86.2592 45.9223C87.2008 45.9223 87.93 45.6056 88.4467 44.9723C88.9633 44.339 89.2217 43.4515 89.2217 42.3098C89.2217 41.1681 88.9633 40.2848 88.4467 39.6598C87.93 39.0265 87.2008 38.7098 86.2592 38.7098C85.3342 38.7098 84.6133 39.0265 84.0967 39.6598C83.58 40.2848 83.3217 41.1681 83.3217 42.3098C83.3217 43.4431 83.58 44.3306 84.0967 44.9723C84.6133 45.6056 85.3342 45.9223 86.2592 45.9223ZM93.7917 46.7223L91.1792 40.6473H92.2792L94.2917 45.5723L96.3292 40.6473H97.3667L94.7417 46.7223H93.7917ZM101.089 46.8348C100.131 46.8348 99.3727 46.5556 98.8144 45.9973C98.256 45.4306 97.9769 44.664 97.9769 43.6973C97.9769 43.0723 98.1019 42.5223 98.3519 42.0473C98.6019 41.564 98.9435 41.1931 99.3769 40.9348C99.8185 40.6681 100.327 40.5348 100.902 40.5348C101.727 40.5348 102.373 40.8015 102.839 41.3348C103.306 41.8598 103.539 42.5848 103.539 43.5098V43.8973H98.9644C98.9977 44.589 99.1977 45.1181 99.5644 45.4848C99.931 45.8431 100.439 46.0223 101.089 46.0223C101.456 46.0223 101.806 45.9681 102.139 45.8598C102.473 45.7431 102.789 45.5556 103.089 45.2973L103.439 46.0098C103.164 46.2681 102.814 46.4723 102.389 46.6223C101.964 46.764 101.531 46.8348 101.089 46.8348ZM100.927 41.2848C100.352 41.2848 99.8977 41.464 99.5644 41.8223C99.231 42.1806 99.0352 42.6515 98.9769 43.2348H102.664C102.639 42.6181 102.477 42.139 102.177 41.7973C101.885 41.4556 101.469 41.2848 100.927 41.2848ZM105.005 46.7223V40.6473H105.992V41.7348C106.317 41.0015 106.984 40.5973 107.992 40.5223L108.355 40.4848L108.43 41.3598L107.792 41.4348C107.217 41.4848 106.78 41.6681 106.48 41.9848C106.18 42.2931 106.03 42.7181 106.03 43.2598V46.7223H105.005ZM111.336 46.8348C110.919 46.8348 110.544 46.7556 110.211 46.5973C109.886 46.4306 109.628 46.2056 109.436 45.9223C109.244 45.639 109.149 45.3223 109.149 44.9723C109.149 44.5306 109.261 44.1806 109.486 43.9223C109.719 43.664 110.099 43.4806 110.624 43.3723C111.157 43.2556 111.882 43.1973 112.799 43.1973H113.199V42.8098C113.199 42.2931 113.09 41.9223 112.874 41.6973C112.665 41.464 112.328 41.3473 111.861 41.3473C111.494 41.3473 111.14 41.4015 110.799 41.5098C110.457 41.6098 110.107 41.7765 109.749 42.0098L109.399 41.2723C109.715 41.0473 110.099 40.8681 110.549 40.7348C111.007 40.6015 111.444 40.5348 111.861 40.5348C112.644 40.5348 113.224 40.7265 113.599 41.1098C113.982 41.4931 114.174 42.089 114.174 42.8973V46.7223H113.224V45.6723C113.065 46.0306 112.819 46.314 112.486 46.5223C112.161 46.7306 111.778 46.8348 111.336 46.8348ZM111.499 46.0723C111.999 46.0723 112.407 45.9015 112.724 45.5598C113.04 45.2098 113.199 44.7681 113.199 44.2348V43.8598H112.811C112.136 43.8598 111.603 43.8931 111.211 43.9598C110.828 44.0181 110.557 44.1265 110.399 44.2848C110.249 44.4348 110.174 44.6431 110.174 44.9098C110.174 45.2515 110.29 45.5306 110.524 45.7473C110.765 45.964 111.09 46.0723 111.499 46.0723ZM117.915 46.8348C117.298 46.8348 116.831 46.6556 116.515 46.2973C116.206 45.9306 116.052 45.4015 116.052 44.7098V37.9098H117.065V44.6348C117.065 45.5265 117.419 45.9723 118.127 45.9723C118.335 45.9723 118.523 45.9473 118.69 45.8973L118.665 46.7473C118.406 46.8056 118.156 46.8348 117.915 46.8348ZM121.613 46.8348C120.997 46.8348 120.53 46.6556 120.213 46.2973C119.905 45.9306 119.751 45.4015 119.751 44.7098V37.9098H120.763V44.6348C120.763 45.5265 121.117 45.9723 121.826 45.9723C122.034 45.9723 122.222 45.9473 122.388 45.8973L122.363 46.7473C122.105 46.8056 121.855 46.8348 121.613 46.8348ZM126.797 46.7223V37.9098H130.285C131.235 37.9098 131.96 38.1306 132.46 38.5723C132.968 39.014 133.222 39.6431 133.222 40.4598C133.222 41.1098 133.043 41.6431 132.685 42.0598C132.335 42.4765 131.835 42.7473 131.185 42.8723C131.568 43.0056 131.897 43.3306 132.172 43.8473L133.722 46.7223H132.597L131.072 43.8973C130.881 43.5473 130.66 43.3098 130.41 43.1848C130.16 43.0598 129.831 42.9973 129.422 42.9973H127.822V46.7223H126.797ZM127.822 42.1848H130.135C131.518 42.1848 132.21 41.6098 132.21 40.4598C132.21 39.3265 131.518 38.7598 130.135 38.7598H127.822V42.1848ZM136.91 46.8348C136.493 46.8348 136.118 46.7556 135.785 46.5973C135.46 46.4306 135.202 46.2056 135.01 45.9223C134.818 45.639 134.722 45.3223 134.722 44.9723C134.722 44.5306 134.835 44.1806 135.06 43.9223C135.293 43.664 135.672 43.4806 136.197 43.3723C136.731 43.2556 137.456 43.1973 138.372 43.1973H138.772V42.8098C138.772 42.2931 138.664 41.9223 138.447 41.6973C138.239 41.464 137.902 41.3473 137.435 41.3473C137.068 41.3473 136.714 41.4015 136.372 41.5098C136.031 41.6098 135.681 41.7765 135.322 42.0098L134.972 41.2723C135.289 41.0473 135.672 40.8681 136.122 40.7348C136.581 40.6015 137.018 40.5348 137.435 40.5348C138.218 40.5348 138.797 40.7265 139.172 41.1098C139.556 41.4931 139.747 42.089 139.747 42.8973V46.7223H138.797V45.6723C138.639 46.0306 138.393 46.314 138.06 46.5223C137.735 46.7306 137.352 46.8348 136.91 46.8348ZM137.072 46.0723C137.572 46.0723 137.981 45.9015 138.297 45.5598C138.614 45.2098 138.772 44.7681 138.772 44.2348V43.8598H138.385C137.71 43.8598 137.177 43.8931 136.785 43.9598C136.402 44.0181 136.131 44.1265 135.972 44.2848C135.822 44.4348 135.747 44.6431 135.747 44.9098C135.747 45.2515 135.864 45.5306 136.097 45.7473C136.339 45.964 136.664 46.0723 137.072 46.0723ZM144.063 46.8348C143.347 46.8348 142.809 46.6473 142.451 46.2723C142.092 45.889 141.913 45.339 141.913 44.6223V41.4348H140.726V40.6473H141.913V38.7848H142.926V40.6473H144.851V41.4348H142.926V44.5223C142.926 44.9973 143.026 45.3598 143.226 45.6098C143.426 45.8515 143.751 45.9723 144.201 45.9723C144.334 45.9723 144.467 45.9556 144.601 45.9223C144.734 45.889 144.855 45.8556 144.963 45.8223L145.138 46.5973C145.03 46.6556 144.872 46.7098 144.663 46.7598C144.455 46.8098 144.255 46.8348 144.063 46.8348ZM145.871 39.1348V37.9973H147.121V39.1348H145.871ZM145.996 46.7223V40.6473H147.008V46.7223H145.996ZM148.901 46.7223V40.6473H149.889V41.6848C150.089 41.3015 150.372 41.014 150.739 40.8223C151.105 40.6306 151.518 40.5348 151.976 40.5348C153.418 40.5348 154.139 41.3348 154.139 42.9348V46.7223H153.126V42.9973C153.126 42.4306 153.014 42.0181 152.789 41.7598C152.572 41.4931 152.222 41.3598 151.739 41.3598C151.18 41.3598 150.735 41.5348 150.401 41.8848C150.076 42.2265 149.914 42.6848 149.914 43.2598V46.7223H148.901ZM158.693 49.0848C158.168 49.0848 157.672 49.014 157.206 48.8723C156.747 48.739 156.339 48.5348 155.981 48.2598L156.318 47.5223C156.693 47.789 157.064 47.9806 157.431 48.0973C157.806 48.214 158.21 48.2723 158.643 48.2723C159.843 48.2723 160.443 47.6556 160.443 46.4223V45.3473C160.268 45.7306 159.993 46.0348 159.618 46.2598C159.251 46.4765 158.831 46.5848 158.356 46.5848C157.797 46.5848 157.314 46.4556 156.906 46.1973C156.497 45.939 156.181 45.5848 155.956 45.1348C155.739 44.6765 155.631 44.1473 155.631 43.5473C155.631 42.9473 155.739 42.4223 155.956 41.9723C156.181 41.514 156.497 41.1598 156.906 40.9098C157.314 40.6598 157.797 40.5348 158.356 40.5348C158.831 40.5348 159.251 40.6431 159.618 40.8598C159.993 41.0765 160.268 41.3723 160.443 41.7473V40.6473H161.431V46.2848C161.431 47.2181 161.197 47.9181 160.731 48.3848C160.272 48.8515 159.593 49.0848 158.693 49.0848ZM158.543 45.7598C159.126 45.7598 159.589 45.5598 159.931 45.1598C160.272 44.7598 160.443 44.2223 160.443 43.5473C160.443 42.8723 160.272 42.339 159.931 41.9473C159.589 41.5473 159.126 41.3473 158.543 41.3473C157.968 41.3473 157.51 41.5473 157.168 41.9473C156.826 42.339 156.656 42.8723 156.656 43.5473C156.656 44.2223 156.826 44.7598 157.168 45.1598C157.51 45.5598 157.968 45.7598 158.543 45.7598ZM166.54 46.7223V40.6473H167.528V41.7348C167.853 41.0015 168.519 40.5973 169.528 40.5223L169.89 40.4848L169.965 41.3598L169.328 41.4348C168.753 41.4848 168.315 41.6681 168.015 41.9848C167.715 42.2931 167.565 42.7181 167.565 43.2598V46.7223H166.54ZM173.685 46.8348C172.726 46.8348 171.968 46.5556 171.41 45.9973C170.851 45.4306 170.572 44.664 170.572 43.6973C170.572 43.0723 170.697 42.5223 170.947 42.0473C171.197 41.564 171.539 41.1931 171.972 40.9348C172.414 40.6681 172.922 40.5348 173.497 40.5348C174.322 40.5348 174.968 40.8015 175.435 41.3348C175.901 41.8598 176.135 42.5848 176.135 43.5098V43.8973H171.56C171.593 44.589 171.793 45.1181 172.16 45.4848C172.526 45.8431 173.035 46.0223 173.685 46.0223C174.051 46.0223 174.401 45.9681 174.735 45.8598C175.068 45.7431 175.385 45.5556 175.685 45.2973L176.035 46.0098C175.76 46.2681 175.41 46.4723 174.985 46.6223C174.56 46.764 174.126 46.8348 173.685 46.8348ZM173.522 41.2848C172.947 41.2848 172.493 41.464 172.16 41.8223C171.826 42.1806 171.63 42.6515 171.572 43.2348H175.26C175.235 42.6181 175.072 42.139 174.772 41.7973C174.48 41.4556 174.064 41.2848 173.522 41.2848ZM179.314 46.7223L176.702 40.6473H177.802L179.814 45.5723L181.852 40.6473H182.889L180.264 46.7223H179.314ZM183.835 39.1348V37.9973H185.085V39.1348H183.835ZM183.96 46.7223V40.6473H184.972V46.7223H183.96ZM189.603 46.8348C188.644 46.8348 187.886 46.5556 187.328 45.9973C186.769 45.4306 186.49 44.664 186.49 43.6973C186.49 43.0723 186.615 42.5223 186.865 42.0473C187.115 41.564 187.457 41.1931 187.89 40.9348C188.332 40.6681 188.84 40.5348 189.415 40.5348C190.24 40.5348 190.886 40.8015 191.353 41.3348C191.819 41.8598 192.053 42.5848 192.053 43.5098V43.8973H187.478C187.511 44.589 187.711 45.1181 188.078 45.4848C188.444 45.8431 188.953 46.0223 189.603 46.0223C189.969 46.0223 190.319 45.9681 190.653 45.8598C190.986 45.7431 191.303 45.5556 191.603 45.2973L191.953 46.0098C191.678 46.2681 191.328 46.4723 190.903 46.6223C190.478 46.764 190.044 46.8348 189.603 46.8348ZM189.44 41.2848C188.865 41.2848 188.411 41.464 188.078 41.8223C187.744 42.1806 187.548 42.6515 187.49 43.2348H191.178C191.153 42.6181 190.99 42.139 190.69 41.7973C190.398 41.4556 189.982 41.2848 189.44 41.2848ZM195.057 46.7223L192.795 40.6473H193.857L195.57 45.5348L197.345 40.6473H198.207L199.957 45.5473L201.695 40.6473H202.707L200.432 46.7223H199.47L197.757 42.0098L196.032 46.7223H195.057ZM210.153 46.8348C209.586 46.8348 209.044 46.7431 208.528 46.5598C208.011 46.3765 207.574 46.1181 207.215 45.7848L207.603 44.9723C208.378 45.6056 209.224 45.9223 210.14 45.9223C210.749 45.9223 211.228 45.7515 211.578 45.4098C211.928 45.0681 212.103 44.6181 212.103 44.0598C212.103 43.4848 211.936 43.014 211.603 42.6473C211.269 42.2806 210.811 42.0973 210.228 42.0973C209.386 42.0973 208.724 42.4473 208.24 43.1473H207.49V37.9098H212.603V38.7848H208.503V41.9348C208.986 41.4515 209.624 41.2098 210.415 41.2098C210.965 41.2098 211.444 41.3265 211.853 41.5598C212.261 41.7931 212.574 42.1223 212.79 42.5473C213.015 42.964 213.128 43.4515 213.128 44.0098C213.128 44.5598 213.007 45.0473 212.765 45.4723C212.524 45.8973 212.178 46.2306 211.728 46.4723C211.286 46.714 210.761 46.8348 210.153 46.8348ZM214.498 46.7223V45.4473H215.773V46.7223H214.498ZM220.305 46.8348C219.296 46.8348 218.53 46.4473 218.005 45.6723C217.48 44.8973 217.217 43.7765 217.217 42.3098C217.217 40.8348 217.48 39.714 218.005 38.9473C218.53 38.1806 219.296 37.7973 220.305 37.7973C221.321 37.7973 222.088 38.1806 222.605 38.9473C223.13 39.7056 223.392 40.8223 223.392 42.2973C223.392 43.7723 223.126 44.8973 222.592 45.6723C222.067 46.4473 221.305 46.8348 220.305 46.8348ZM220.305 45.9473C221.005 45.9473 221.521 45.6515 221.855 45.0598C222.196 44.4681 222.367 43.5473 222.367 42.2973C222.367 41.0473 222.201 40.1348 221.867 39.5598C221.534 38.9765 221.013 38.6848 220.305 38.6848C219.605 38.6848 219.084 38.9765 218.742 39.5598C218.409 40.1431 218.242 41.0556 218.242 42.2973C218.242 43.5473 218.409 44.4681 218.742 45.0598C219.084 45.6515 219.605 45.9473 220.305 45.9473Z" fill="#828282"/>
<g clip-path="url(#clip1_6144_24871)">
<path d="M97.0471 15.8509C98.3999 15.8509 99.4965 14.7856 99.4965 13.4715C99.4965 12.1574 98.3999 11.0922 97.0471 11.0922C95.6943 11.0922 94.5977 12.1574 94.5977 13.4715C94.5977 14.7856 95.6943 15.8509 97.0471 15.8509Z" fill="#E62415"/>
<path d="M61.3935 0H64.6349V20.3052H61.3935V0ZM76.4401 14.0437C76.4401 17.1923 73.788 17.4428 72.9777 17.4428C70.9518 17.4428 70.6572 15.6001 70.6572 14.4909V6.63721H67.3974V14.4731C67.379 16.4231 67.9499 18.0332 69.0549 19.1066C70.0585 19.9756 71.337 20.4864 72.6795 20.5546C74.0221 20.6229 75.3485 20.2447 76.4401 19.4823V20.3052H79.6998V6.63721H76.4401V14.0437ZM86.7351 2.03947H83.4753V6.63721H81.21V9.62485H83.4753V20.3052H86.7351V9.62485H89.4055V6.63721H86.7351V2.03947ZM99.9584 16.4231C99.2217 17.0671 98.2456 17.4249 97.1774 17.4249C96.6348 17.4398 96.0947 17.3467 95.5905 17.1513C95.0863 16.9558 94.6286 16.6622 94.2456 16.2885C93.8626 15.9148 93.5624 15.4689 93.3634 14.9782C93.1645 14.4875 93.0711 13.9625 93.0889 13.4354C93.0889 11.1276 94.7648 9.51751 97.1774 9.51751C98.2272 9.51751 99.2217 9.85742 99.9768 10.5015L100.492 10.9308L102.776 8.71246L102.205 8.21153C100.822 7.01332 99.0305 6.35665 97.1774 6.36886C92.9415 6.36886 89.8659 9.33861 89.8659 13.4175C89.8434 14.3579 90.0169 15.2929 90.3759 16.1665C90.7349 17.0401 91.272 17.8341 91.955 18.5009C92.6379 19.1676 93.4526 19.6934 94.3501 20.0465C95.2476 20.3996 96.2093 20.5728 97.1774 20.5557C99.1112 20.5557 100.916 19.8937 102.242 18.6951L102.795 18.1942L100.474 15.9758L99.9584 16.4231ZM115.005 7.83584C114.001 6.96684 112.723 6.45607 111.38 6.38777C110.038 6.31947 108.711 6.69773 107.62 7.46015V0H104.36V20.3052H107.62V12.9166C107.62 9.76797 110.272 9.51751 111.082 9.51751C113.108 9.51751 113.403 11.3602 113.403 12.4694V20.3231H116.662V12.4694C116.761 10.7729 116.165 9.10749 115.005 7.83584ZM56.5867 15.4391C55.9525 16.072 55.1934 16.574 54.3548 16.9152C53.5162 17.2564 52.6154 17.4298 51.7062 17.4249C47.9308 17.4249 45.1867 14.5446 45.1867 10.5909C45.1867 6.61932 47.9308 3.73902 51.7062 3.73902C53.5295 3.73902 55.2607 4.43673 56.5683 5.70693L57.084 6.20785L59.3492 4.00737L58.852 3.50645C57.9175 2.58321 56.8021 1.85112 55.5717 1.35335C54.3413 0.855593 53.0207 0.602247 51.6878 0.608262C46.1444 0.608262 41.9453 4.90187 41.9453 10.6088C41.9453 16.2799 46.1444 20.5736 51.6878 20.5736C54.4319 20.5736 56.9735 19.5359 58.852 17.6575L59.3492 17.1566L57.1024 14.9203L56.5867 15.4391Z" fill="#E3E3E3"/>
</g>
<path d="M161.985 10.657C161.923 10.5306 161.794 10.4506 161.653 10.4506C161.512 10.4506 161.383 10.5306 161.321 10.657L159.805 13.7292L156.415 14.2215C156.275 14.2418 156.159 14.3395 156.116 14.4736C156.072 14.6077 156.109 14.7549 156.21 14.8533L158.663 17.2445L158.083 20.6214C158.06 20.7603 158.117 20.9008 158.231 20.9836C158.345 21.0665 158.496 21.0774 158.621 21.0118L161.653 19.4175L164.686 21.0118C164.81 21.0774 164.962 21.0665 165.076 20.9836C165.19 20.9008 165.247 20.7603 165.223 20.6214L164.644 17.2445L167.097 14.8533C167.198 14.7549 167.234 14.6077 167.191 14.4736C167.147 14.3395 167.031 14.2418 166.892 14.2215L163.502 13.7292L161.985 10.657Z" fill="#FFB45A"/>
<path d="M176.568 10.657C176.506 10.5306 176.377 10.4506 176.236 10.4506C176.095 10.4506 175.966 10.5306 175.904 10.657L174.388 13.7292L170.998 14.2215C170.858 14.2418 170.742 14.3395 170.699 14.4736C170.655 14.6077 170.692 14.7549 170.793 14.8533L173.246 17.2445L172.666 20.6214C172.643 20.7603 172.7 20.9008 172.814 20.9836C172.928 21.0665 173.079 21.0774 173.204 21.0118L176.236 19.4175L179.269 21.0118C179.393 21.0774 179.545 21.0665 179.659 20.9836C179.773 20.9008 179.83 20.7603 179.806 20.6214L179.227 17.2445L181.68 14.8533C181.781 14.7549 181.817 14.6077 181.774 14.4736C181.73 14.3395 181.614 14.2418 181.475 14.2215L178.085 13.7292L176.568 10.657Z" fill="#FFB45A"/>
<path d="M191.152 10.657C191.09 10.5306 190.961 10.4506 190.82 10.4506C190.679 10.4506 190.55 10.5306 190.488 10.657L188.972 13.7292L185.582 14.2215C185.442 14.2418 185.326 14.3395 185.283 14.4736C185.239 14.6077 185.276 14.7549 185.377 14.8533L187.83 17.2445L187.25 20.6214C187.227 20.7603 187.284 20.9008 187.398 20.9836C187.512 21.0665 187.663 21.0774 187.788 21.0118L190.82 19.4175L193.853 21.0118C193.977 21.0774 194.129 21.0665 194.243 20.9836C194.357 20.9008 194.414 20.7603 194.39 20.6214L193.811 17.2445L196.264 14.8533C196.365 14.7549 196.401 14.6077 196.358 14.4736C196.314 14.3395 196.198 14.2418 196.059 14.2215L192.669 13.7292L191.152 10.657Z" fill="#FFB45A"/>
<path d="M205.735 10.657C205.673 10.5306 205.544 10.4506 205.403 10.4506C205.262 10.4506 205.133 10.5306 205.071 10.657L203.555 13.7292L200.165 14.2215C200.025 14.2418 199.909 14.3395 199.866 14.4736C199.822 14.6077 199.859 14.7549 199.96 14.8533L202.413 17.2445L201.833 20.6214C201.81 20.7603 201.867 20.9008 201.981 20.9836C202.095 21.0665 202.246 21.0774 202.371 21.0118L205.403 19.4175L208.436 21.0118C208.56 21.0774 208.712 21.0665 208.826 20.9836C208.94 20.9008 208.997 20.7603 208.973 20.6214L208.394 17.2445L210.847 14.8533C210.948 14.7549 210.984 14.6077 210.941 14.4736C210.897 14.3395 210.781 14.2418 210.642 14.2215L207.252 13.7292L205.735 10.657Z" fill="#FFB45A"/>
<path d="M220.318 10.657C220.256 10.5306 220.127 10.4506 219.986 10.4506C219.845 10.4506 219.716 10.5306 219.654 10.657L218.138 13.7292L214.748 14.2215C214.608 14.2418 214.492 14.3395 214.449 14.4736C214.405 14.6077 214.442 14.7549 214.543 14.8533L216.996 17.2445L216.416 20.6214C216.393 20.7603 216.45 20.9008 216.564 20.9836C216.678 21.0665 216.829 21.0774 216.954 21.0118L219.986 19.4175L223.019 21.0118C223.143 21.0774 223.295 21.0665 223.409 20.9836C223.523 20.9008 223.58 20.7603 223.556 20.6214L222.977 17.2445L225.43 14.8533C225.531 14.7549 225.567 14.6077 225.524 14.4736C225.48 14.3395 225.364 14.2418 225.225 14.2215L221.835 13.7292L220.318 10.657Z" fill="#FFB45A"/>
<path d="M128.011 23.2302C127.381 22.2024 126.923 21.1654 126.636 20.1191C126.358 19.0635 126.219 17.9848 126.219 16.883C126.219 15.7811 126.358 14.7071 126.636 13.6608C126.923 12.6052 127.381 11.5635 128.011 10.5358L128.997 10.9247C128.553 11.971 128.228 12.971 128.025 13.9247C127.821 14.8784 127.719 15.8645 127.719 16.883C127.719 17.8922 127.821 18.8784 128.025 19.8413C128.228 20.795 128.553 21.795 128.997 22.8413L128.011 23.2302ZM133.802 20.6608C133.172 20.6608 132.561 20.5635 131.968 20.3691C131.385 20.1654 130.899 19.883 130.51 19.5219L130.996 18.4108C131.848 19.096 132.774 19.4385 133.774 19.4385C134.413 19.4385 134.913 19.2672 135.274 18.9247C135.635 18.5728 135.816 18.1145 135.816 17.5497C135.816 16.9663 135.644 16.4895 135.302 16.1191C134.959 15.7487 134.482 15.5635 133.871 15.5635C133.01 15.5635 132.32 15.92 131.802 16.633H130.802V10.7441H136.635V11.9524H132.204V15.0497C132.723 14.596 133.38 14.3691 134.177 14.3691C134.797 14.3691 135.334 14.4987 135.788 14.758C136.241 15.0172 136.593 15.383 136.843 15.8552C137.093 16.3182 137.218 16.8598 137.218 17.4802C137.218 18.1098 137.079 18.6654 136.802 19.1469C136.524 19.6191 136.13 19.9895 135.621 20.258C135.112 20.5265 134.505 20.6608 133.802 20.6608ZM138.63 20.5358V18.883H140.282V20.5358H138.63ZM145.273 20.6608C144.134 20.6608 143.263 20.2302 142.662 19.3691C142.069 18.4987 141.773 17.2534 141.773 15.633C141.773 13.9848 142.069 12.7395 142.662 11.8969C143.263 11.045 144.134 10.6191 145.273 10.6191C146.421 10.6191 147.291 11.045 147.884 11.8969C148.476 12.7395 148.773 13.9802 148.773 15.6191C148.773 17.2487 148.472 18.4987 147.87 19.3691C147.277 20.2302 146.412 20.6608 145.273 20.6608ZM145.273 19.4663C145.976 19.4663 146.5 19.1561 146.842 18.5358C147.185 17.9154 147.356 16.9432 147.356 15.6191C147.356 14.295 147.185 13.3321 146.842 12.7302C146.509 12.1191 145.986 11.8135 145.273 11.8135C144.569 11.8135 144.046 12.1191 143.703 12.7302C143.361 13.3413 143.189 14.3043 143.189 15.6191C143.189 16.9432 143.361 17.9154 143.703 18.5358C144.046 19.1561 144.569 19.4663 145.273 19.4663ZM150.906 23.2302L149.92 22.8413C150.355 21.7765 150.675 20.7672 150.878 19.8135C151.082 18.8598 151.184 17.883 151.184 16.883C151.184 15.883 151.082 14.9061 150.878 13.9524C150.675 12.9987 150.355 11.9895 149.92 10.9247L150.906 10.5358C151.536 11.5728 151.989 12.6191 152.267 13.6747C152.554 14.721 152.698 15.7904 152.698 16.883C152.698 17.9848 152.554 19.0635 152.267 20.1191C151.989 21.1654 151.536 22.2024 150.906 23.2302Z" fill="#E3E3E3"/>
</g>
<g clip-path="url(#clip2_6144_24871)">
<path d="M14.1129 6.75305C13.1218 8.38095 12.0843 10.3094 11.4148 12.2358C10.227 15.6538 9.19355 19.3664 8.47488 22.9358C7.98937 25.3471 7.53825 28.8747 7.52502 31.3227C7.5075 34.5808 7.62776 36.8023 8.28166 40.0719C9.20292 44.678 11.2504 48.8978 14.0189 52.4898C18.0922 57.7745 24.8438 60.6569 31.1734 62.6056C36.1249 64.1299 41.8071 64.0023 46.6666 63.5931L46.5801 62.2367C41.7657 62.6431 36.4773 62.66 31.73 61.1953C25.6231 59.3111 19.4667 56.419 15.1945 51.5619C12.5932 48.6056 10.6551 44.9403 9.57176 41.0255C8.62278 37.596 8.40745 33.8203 8.29107 30.3508C8.19551 27.4986 8.50021 25.1023 9.01139 22.4905C9.65944 19.1792 10.51 15.8492 11.5776 12.6747C12.2688 10.6197 13.4734 8.49724 14.4707 6.85924L14.1129 6.75305Z" fill="#828282"/>
<path d="M37.3887 63.5981C37.3887 63.5981 34.0307 64.0088 31.8246 65.3591C28.3223 67.5025 29.0243 69.9884 29.0243 69.9884C29.0243 69.9884 30.9268 70.2393 33.9512 68.4186C37.4943 66.2856 37.3887 63.5981 37.3887 63.5981Z" fill="#828282"/>
<path d="M30.8294 62.4226C30.8294 62.4226 27.8218 62.3718 25.4834 63.4697C21.4353 65.3703 22.1715 67.6699 22.1715 67.6699C22.1715 67.6699 24.1234 68.0686 27.3567 66.5266C31.0854 64.7484 30.8294 62.4226 30.8294 62.4226Z" fill="#828282"/>
<path d="M25.4924 60.4684C25.4924 60.4684 22.2029 59.4607 19.668 59.9305C15.2795 60.7435 15.0156 63.669 15.0156 63.669C15.0156 63.669 17.2782 64.7762 20.7891 64.1037C24.838 63.328 25.4924 60.4684 25.4924 60.4684Z" fill="#828282"/>
<path d="M18.7921 56.7579C18.7921 56.7579 15.8166 55.5338 12.6776 55.9439C8.58116 56.4791 7.87624 59.4558 7.85156 59.5335C7.85156 59.5335 10.1666 60.7351 13.609 60.1443C18.2263 59.3518 18.7921 56.7579 18.7921 56.7579Z" fill="#828282"/>
<path d="M14.7942 53.1909C14.7942 53.1909 11.6241 51.1602 8.21707 51.0812C4.90713 51.0041 3.42979 53.0479 3.40039 53.1148C3.40039 53.1148 5.9529 55.0572 9.07385 55.1143C13.3143 55.1917 14.7942 53.1909 14.7942 53.1909Z" fill="#828282"/>
<path d="M12.4286 49.5344C11.001 49.0408 9.76496 46.4817 7.39268 45.0355C4.08315 43.0179 0.888393 44.7457 0.851562 44.7959C0.851562 44.7959 2.84205 48.2916 6.32646 49.354C10.0295 50.483 12.4286 49.5344 12.4286 49.5344Z" fill="#828282"/>
<path d="M9.39045 43.4963C9.39045 43.4963 8.06361 40.2724 6.15546 38.2388C3.49361 35.4022 0.048778 36.1907 0 36.2291C0 36.2291 1.10232 40.0654 4.18306 42.0283C7.45719 44.1143 9.39045 43.4963 9.39045 43.4963Z" fill="#828282"/>
<path d="M8.05439 36.9244C8.05439 36.9244 7.48706 33.9662 6.03338 31.5776C3.84245 27.9775 0.547683 28.5186 0.494141 28.55C0.494141 28.55 1.07396 32.5519 3.86113 34.9233C6.82325 37.4436 8.05439 36.9244 8.05439 36.9244Z" fill="#828282"/>
<path d="M7.77345 29.3377C7.77345 29.3377 7.71339 26.4532 6.43947 23.9614C4.67139 20.503 1.63413 20.0965 1.57703 20.1203C1.57703 20.1203 0.229271 23.2576 3.55175 27.1455C5.56716 29.5037 7.77345 29.3377 7.77345 29.3377Z" fill="#828282"/>
<path d="M8.70511 22.5648C8.70511 22.5648 9.16108 19.4956 8.45229 16.7824C7.78684 14.2352 5.68585 12.0937 5.36846 11.9541C5.36846 11.9541 3.39186 14.1916 5.37595 18.3724C6.71042 21.1844 8.70511 22.5648 8.70511 22.5648Z" fill="#828282"/>
<path d="M10.4683 15.6308C10.4683 15.6308 11.4027 12.8438 10.6775 9.95514C10.076 7.56161 8.60517 5.33681 7.92504 4.92566C7.92504 4.92566 6.23077 7.49931 7.74355 11.3387C8.88534 14.2365 10.0976 15.3074 10.4683 15.6308Z" fill="#828282"/>
<path d="M12.0037 11.1697C12.0037 11.1697 15.5089 9.70826 16.7709 7.9101C18.1837 5.89734 18.9684 2.57898 18.7964 1.79492C18.7964 1.79492 15.1744 1.84267 13.4568 5.59239C12.1605 8.42247 11.9815 10.6745 12.0037 11.1697Z" fill="#828282"/>
<path d="M10.0938 17.1378C10.0938 17.1378 10.8662 14.4201 13.4741 12.6091C15.4843 11.2132 17.3252 10.7999 18.6889 10.9405C18.6889 10.9405 17.9934 13.8677 14.938 15.6338C12.2644 17.1792 10.5826 17.1252 10.0938 17.1378Z" fill="#828282"/>
<path d="M8.70703 23.2225C8.70703 23.2225 9.43638 20.621 12.0444 18.81C14.0546 17.4142 15.2829 17.3311 16.6466 17.4718C16.6466 17.4718 16.2412 20.1448 13.1859 21.911C10.5123 23.4564 9.19588 23.2099 8.70703 23.2225Z" fill="#828282"/>
<path d="M8.03516 30.6359C8.03516 30.6359 8.46553 27.6453 10.6119 25.2924C12.8113 22.8813 14.4556 22.7921 15.8231 22.6963C15.7042 23.4351 15.237 26.5018 13.0808 28.3505C10.7309 30.3654 8.51482 30.5395 8.03516 30.6359Z" fill="#828282"/>
<path d="M8.41406 36.7713C8.41406 36.7713 8.63239 33.757 10.6072 31.2546C12.6308 28.6901 14.2645 28.4819 15.6218 28.2871C15.5554 29.0327 15.3058 32.1253 13.2855 34.1258C11.0837 36.3059 8.88568 36.6403 8.41406 36.7713Z" fill="#828282"/>
<path d="M10.168 43.4627C10.638 41.4819 10.5454 39.6278 11.5756 37.2655C12.8449 34.3553 14.9504 34.1274 16.2482 33.6799C16.1583 35.1261 16.0653 37.3908 14.7896 39.6522C13.2616 42.3608 10.6074 43.2452 10.168 43.4627Z" fill="#828282"/>
<path d="M12.873 49.1263C13.1216 47.1048 13.0236 45.6631 13.7866 43.1989C14.7267 40.1629 16.706 39.7138 17.9464 39.1221C18.0166 40.5691 18.0308 42.7757 17.0127 45.1677C15.7932 48.0327 13.2856 48.8603 12.873 49.1263Z" fill="#828282"/>
<path d="M16.1484 53.1269C16.5786 50.211 16.1686 49.7847 16.7406 47.2677C17.355 44.5647 19.2908 43.7399 20.4802 43.0491C20.6647 44.4859 20.8604 46.4541 20.0172 48.9153C19.1179 51.5397 17.223 52.1275 16.1484 53.1269Z" fill="#828282"/>
<path d="M20.52 56.5137C20.5346 54.1024 19.8204 52.9297 20.0194 51.1335C20.3452 48.1957 21.6346 47.4817 22.8243 46.791C23.1228 50.1268 23.3583 50.0343 23.0526 52.2905C22.7552 54.486 21.4155 55.3797 20.52 56.5137Z" fill="#828282"/>
<path d="M25.0554 58.9645C24.6177 56.5942 23.8005 56.1835 23.6592 54.3817C23.4282 51.4347 24.5604 50.4852 25.5988 49.5779C26.2221 51.3404 26.9128 52.3228 26.7984 54.5972C26.7177 56.2033 25.7221 57.6787 25.0554 58.9645Z" fill="#828282"/>
<path d="M28.9263 52.1326C28.9263 52.1326 30.8728 53.6855 31.5821 56.1972C32.5875 59.7561 31.0539 61.0648 31.0539 61.0648C31.0539 61.0648 29.3744 60.0101 28.0988 56.8883C26.7365 53.5537 28.9263 52.1326 28.9263 52.1326Z" fill="#828282"/>
<path d="M34.1925 53.8054C34.1925 53.8054 36.1512 55.3831 36.9846 57.8555C38.0527 61.024 36.7538 62.538 36.7538 62.538C36.7538 62.538 34.9627 61.3193 33.7736 58.783C31.9579 54.9098 34.1925 53.8054 34.1925 53.8054Z" fill="#828282"/>
</g>
<g clip-path="url(#clip3_6144_24871)">
<path d="M254.015 6.75305C255.005 8.38095 256.043 10.3094 256.712 12.2358C257.9 15.6538 258.934 19.3664 259.652 22.9358C260.139 25.3471 260.589 28.8747 260.602 31.3227C260.62 34.5808 260.499 36.8023 259.846 40.0719C258.925 44.678 256.877 48.8978 254.108 52.4898C250.035 57.7745 243.283 60.6569 236.954 62.6056C232.002 64.1299 226.32 64.0023 221.461 63.5931L221.547 62.2367C226.363 62.6431 231.65 62.66 236.398 61.1953C242.504 59.3111 248.66 56.419 252.932 51.5619C255.535 48.6056 257.473 44.9403 258.556 41.0255C259.505 37.596 259.72 33.8203 259.837 30.3508C259.932 27.4986 259.627 25.1023 259.116 22.4905C258.468 19.1792 257.617 15.8492 256.551 12.6747C255.858 10.6197 254.654 8.49724 253.657 6.85924L254.015 6.75305Z" fill="#828282"/>
<path d="M230.741 63.5981C230.741 63.5981 234.097 64.0088 236.303 65.3591C239.806 67.5025 239.105 69.9884 239.105 69.9884C239.105 69.9884 237.202 70.2393 234.178 68.4186C230.635 66.2856 230.741 63.5981 230.741 63.5981Z" fill="#828282"/>
<path d="M237.299 62.4226C237.299 62.4226 240.307 62.3718 242.646 63.4697C246.693 65.3703 245.957 67.6699 245.957 67.6699C245.957 67.6699 244.004 68.0686 240.772 66.5266C237.044 64.7484 237.299 62.4226 237.299 62.4226Z" fill="#828282"/>
<path d="M242.635 60.4684C242.635 60.4684 245.925 59.4607 248.459 59.9305C252.848 60.7435 253.111 63.669 253.111 63.669C253.111 63.669 250.848 64.7762 247.337 64.1037C243.29 63.328 242.635 60.4684 242.635 60.4684Z" fill="#828282"/>
<path d="M249.336 56.7579C249.336 56.7579 252.312 55.5338 255.451 55.9439C259.547 56.4791 260.252 59.4558 260.277 59.5335C260.277 59.5335 257.962 60.7351 254.52 60.1443C249.903 59.3518 249.336 56.7579 249.336 56.7579Z" fill="#828282"/>
<path d="M253.336 53.1909C253.336 53.1909 256.506 51.1602 259.912 51.0812C263.222 51.0041 264.699 53.0479 264.73 53.1148C264.73 53.1148 262.176 55.0572 259.056 55.1143C254.815 55.1917 253.336 53.1909 253.336 53.1909Z" fill="#828282"/>
<path d="M255.701 49.5344C257.128 49.0408 258.365 46.4817 260.738 45.0355C264.046 43.0179 267.24 44.7457 267.278 44.7959C267.278 44.7959 265.288 48.2916 261.804 49.354C258.101 50.483 255.701 49.5344 255.701 49.5344Z" fill="#828282"/>
<path d="M258.738 43.4963C258.738 43.4963 260.065 40.2724 261.974 38.2388C264.636 35.4022 268.081 36.1907 268.129 36.2291C268.129 36.2291 267.027 40.0654 263.945 42.0283C260.671 44.1143 258.738 43.4963 258.738 43.4963Z" fill="#828282"/>
<path d="M260.072 36.9244C260.072 36.9244 260.639 33.9662 262.093 31.5776C264.285 27.9775 267.578 28.5186 267.632 28.55C267.632 28.55 267.053 32.5519 264.265 34.9233C261.304 37.4436 260.072 36.9244 260.072 36.9244Z" fill="#828282"/>
<path d="M260.355 29.3377C260.355 29.3377 260.417 26.4532 261.689 23.9614C263.457 20.503 266.496 20.0965 266.551 20.1203C266.551 20.1203 267.899 23.2576 264.577 27.1455C262.561 29.5037 260.355 29.3377 260.355 29.3377Z" fill="#828282"/>
<path d="M259.424 22.5651C259.424 22.5651 258.968 19.4959 259.677 16.7827C260.343 14.2354 262.444 12.0939 262.76 11.9543C262.76 11.9543 264.738 14.1918 262.753 18.3726C261.419 21.1847 259.424 22.5651 259.424 22.5651Z" fill="#828282"/>
<path d="M257.658 15.6308C257.658 15.6308 256.725 12.8438 257.45 9.95514C258.051 7.56161 259.521 5.33681 260.201 4.92566C260.201 4.92566 261.896 7.49931 260.383 11.3387C259.241 14.2365 258.03 15.3074 257.658 15.6308Z" fill="#828282"/>
<path d="M256.124 11.1697C256.124 11.1697 252.619 9.70826 251.357 7.9101C249.944 5.89734 249.16 2.57898 249.332 1.79492C249.332 1.79492 252.954 1.84267 254.67 5.59239C255.968 8.42247 256.145 10.6745 256.124 11.1697Z" fill="#828282"/>
<path d="M258.035 17.1378C258.035 17.1378 257.262 14.4201 254.654 12.6091C252.643 11.2132 250.804 10.7999 249.439 10.9405C249.439 10.9405 250.134 13.8677 253.191 15.6338C255.863 17.1792 257.545 17.1252 258.035 17.1378Z" fill="#828282"/>
<path d="M259.421 23.2225C259.421 23.2225 258.692 20.621 256.084 18.81C254.074 17.4142 252.845 17.3311 251.482 17.4718C251.482 17.4718 251.886 20.1448 254.943 21.911C257.616 23.4564 258.933 23.2099 259.421 23.2225Z" fill="#828282"/>
<path d="M260.093 30.6359C260.093 30.6359 259.662 27.6453 257.515 25.2924C255.316 22.8813 253.672 22.7921 252.305 22.6963C252.423 23.4351 252.89 26.5018 255.047 28.3505C257.397 30.3654 259.613 30.5395 260.093 30.6359Z" fill="#828282"/>
<path d="M259.714 36.7713C259.714 36.7713 259.495 33.757 257.521 31.2546C255.496 28.6901 253.863 28.4819 252.506 28.2871C252.572 29.0327 252.822 32.1253 254.843 34.1258C257.043 36.3059 259.242 36.6403 259.714 36.7713Z" fill="#828282"/>
<path d="M257.96 43.4627C257.49 41.4819 257.583 39.6278 256.553 37.2655C255.284 34.3553 253.179 34.1274 251.881 33.6799C251.971 35.1261 252.062 37.3908 253.338 39.6522C254.868 42.3608 257.52 43.2452 257.96 43.4627Z" fill="#828282"/>
<path d="M255.256 49.1263C255.007 47.1048 255.105 45.6631 254.343 43.1989C253.402 40.1629 251.422 39.7138 250.182 39.1221C250.112 40.5691 250.098 42.7757 251.115 45.1677C252.336 48.0327 254.843 48.8603 255.256 49.1263Z" fill="#828282"/>
<path d="M251.979 53.1269C251.549 50.211 251.96 49.7847 251.387 47.2677C250.773 44.5647 248.837 43.7399 247.647 43.0491C247.463 44.4859 247.266 46.4541 248.11 48.9153C249.009 51.5397 250.904 52.1275 251.979 53.1269Z" fill="#828282"/>
<path d="M247.609 56.5137C247.595 54.1024 248.309 52.9297 248.11 51.1335C247.783 48.1957 246.494 47.4817 245.304 46.791C245.006 50.1268 244.771 50.0343 245.076 52.2905C245.374 54.486 246.713 55.3797 247.609 56.5137Z" fill="#828282"/>
<path d="M243.073 58.9645C243.509 56.5942 244.328 56.1835 244.47 54.3817C244.699 51.4347 243.567 50.4852 242.529 49.5779C241.907 51.3404 241.216 52.3228 241.329 54.5972C241.411 56.2033 242.406 57.6787 243.073 58.9645Z" fill="#828282"/>
<path d="M239.201 52.1326C239.201 52.1326 237.254 53.6855 236.545 56.1972C235.54 59.7561 237.072 61.0648 237.072 61.0648C237.072 61.0648 238.752 60.0101 240.027 56.8883C241.391 53.5537 239.201 52.1326 239.201 52.1326Z" fill="#828282"/>
<path d="M233.936 53.8054C233.936 53.8054 231.978 55.3831 231.145 57.8555C230.075 61.024 231.375 62.538 231.375 62.538C231.375 62.538 233.166 61.3193 234.356 58.783C236.171 54.9098 233.936 53.8054 233.936 53.8054Z" fill="#828282"/>
</g>
<defs>
<clipPath id="clip0_6144_24871">
<rect width="187" height="50" fill="white" transform="translate(41)"/>
</clipPath>
<clipPath id="clip1_6144_24871">
<rect width="75.409" height="20.8333" fill="white" transform="translate(41.9453)"/>
</clipPath>
<clipPath id="clip2_6144_24871">
<rect width="48" height="70" fill="white"/>
</clipPath>
<clipPath id="clip3_6144_24871">
<rect width="48" height="70" fill="white" transform="translate(220)"/>
</clipPath>
</defs>
</svg>
