<svg width="50" height="50" viewBox="0 0 50 50" fill="none" xmlns="http://www.w3.org/2000/svg">
<path fill-rule="evenodd" clip-rule="evenodd" d="M20.4087 26.0616C20.4087 26.0616 19.1297 26.7848 21.3199 27.0291C23.9739 27.3236 25.3296 27.2812 28.2533 26.7437C28.2533 26.7437 29.0231 27.2121 30.0976 27.6172C23.5414 30.3471 15.2598 27.4593 20.4087 26.0616ZM19.6073 22.4993C19.6073 22.4993 18.1724 23.5312 20.3645 23.7515C23.1997 24.036 25.4376 24.0592 29.3126 23.3347C29.3126 23.3347 29.8476 23.8624 30.6896 24.1507C22.7638 26.4033 13.9366 24.3281 19.6073 22.4993Z" fill="#3174B9"/>
<path fill-rule="evenodd" clip-rule="evenodd" d="M26.8135 16.1757C28.2071 18.1892 26.4482 20 26.4482 20C26.4482 20 29.9852 17.7087 28.3606 14.8384C26.8439 12.1629 25.6804 10.8337 31.9781 6.25C31.9779 6.2497 22.0924 9.34761 26.8135 16.1757Z" fill="#CA3132"/>
<path fill-rule="evenodd" clip-rule="evenodd" d="M35.0421 29.2286C35.0421 29.2286 35.981 30.0077 34.0078 30.6101C30.2557 31.7537 18.3884 32.0986 15.092 30.6556C13.9079 30.1366 16.1296 29.4172 16.8285 29.2652C17.5575 29.1067 17.9735 29.1355 17.9735 29.1355C16.6558 28.2017 9.45605 30.9694 14.317 31.7634C27.5721 33.9262 38.4798 30.7898 35.0421 29.2286ZM21.1504 19.0723C21.1504 19.0723 15.1146 20.5153 19.0133 21.0398C20.66 21.2613 23.9401 21.2103 26.9979 20.9522C29.4962 20.7412 32.0038 20.2899 32.0038 20.2899C32.0038 20.2899 31.1236 20.67 30.4858 21.1075C24.3556 22.7301 12.515 21.9744 15.924 20.3157C18.8064 18.9126 21.1504 19.0723 21.1504 19.0723ZM31.9787 25.1624C38.2098 21.9048 35.3289 18.7737 33.3174 19.1956C32.8256 19.299 32.605 19.3883 32.605 19.3883C32.605 19.3883 32.7885 19.0994 33.1372 18.9752C37.1158 17.5682 40.175 23.126 31.8545 25.327C31.8542 25.327 31.9501 25.24 31.9787 25.1624Z" fill="#3174B9"/>
<path fill-rule="evenodd" clip-rule="evenodd" d="M28.4693 0C28.4693 0 32.1034 3.55273 25.0215 9.01408C19.3422 13.3967 23.7267 15.8947 25.0198 18.75C21.7041 15.8278 19.2719 13.2549 20.9034 10.8609C23.2987 7.34673 29.9357 5.64252 28.4693 0Z" fill="#CA3132"/>
<path fill-rule="evenodd" clip-rule="evenodd" d="M21.3373 33.6271C27.477 34.0828 36.9072 33.374 37.1309 30.0013C37.1309 30.0013 36.7015 31.2798 32.0562 32.2939C26.8151 33.439 20.3499 33.3057 16.5166 32.5713C16.5166 32.5713 17.3021 33.3257 21.3373 33.6271Z" fill="#3174B9"/>
<path fill-rule="evenodd" clip-rule="evenodd" d="M37.2802 38.2348H37.0913V38.1177H37.6012V38.2348H37.4122V38.82H37.2802V38.2348ZM38.2979 38.264H38.2956L38.1077 38.8196H38.0216L37.8349 38.264H37.8326V38.8196H37.7072V38.1174H37.8913L38.0642 38.6142L38.2372 38.1174H38.4196V38.8196H38.2982V38.264H38.2979ZM20.5612 44.8285C19.9751 45.3902 19.3554 45.7062 18.7991 45.7062C18.0065 45.7062 17.5764 45.1796 17.5764 44.3371C17.5764 43.4249 18.0369 42.7575 19.8797 42.7575H20.5609V44.8285H20.5612ZM22.179 46.8467V40.5991C22.179 39.0023 21.3555 37.9486 19.3703 37.9486C18.2121 37.9486 17.1968 38.2649 16.3713 38.668L16.6089 39.7746C17.2592 39.5105 18.0999 39.2658 18.9251 39.2658C20.0687 39.2658 20.5609 39.7746 20.5609 40.828V41.618H19.9894C17.2114 41.618 15.9578 42.8097 15.9578 44.6015C15.9578 46.1453 16.7839 47.023 18.339 47.023C19.3385 47.023 20.0853 46.5668 20.7825 45.899L20.9094 46.8467H22.179ZM27.5784 46.8467H25.5612L23.1322 38.1076H24.8943L26.4018 43.4778L26.7374 45.0913C27.4979 42.7575 28.0377 40.3882 28.3077 38.1076H30.0211C29.5624 40.985 28.736 44.1443 27.5784 46.8467ZM35.32 44.8285C34.7321 45.3902 34.1125 45.7062 33.5573 45.7062C32.7648 45.7062 32.3352 45.1796 32.3352 44.3371C32.3352 43.4249 32.796 42.7575 34.6377 42.7575H35.32V44.8285ZM36.9384 46.8467V40.5991C36.9384 39.0023 36.1123 37.9486 34.1291 37.9486C32.9698 37.9486 31.9547 38.2649 31.1292 38.668L31.3669 39.7746C32.0171 39.5105 32.8595 39.2658 33.685 39.2658C34.8269 39.2658 35.3197 39.7746 35.3197 40.828V41.618H34.7482C31.9699 41.618 30.7172 42.8097 30.7172 44.6015C30.7172 46.1453 31.5415 47.023 33.0969 47.023C34.0973 47.023 34.843 46.5668 35.5419 45.899L35.6693 46.8467H36.9384ZM14.184 48.3316C13.723 49.0766 12.9773 49.6665 12.1622 49.9993L11.3633 48.9588C11.9843 48.6064 12.5163 48.0375 12.764 47.5081C12.9773 47.0363 13.0664 46.4297 13.0664 44.9776V34.9993H14.7858V44.8399C14.7858 46.7821 14.6455 47.567 14.184 48.3316Z" fill="#CA3132"/>
</svg>
