<svg width="50" height="50" viewBox="0 0 50 50" fill="none" xmlns="http://www.w3.org/2000/svg">
<g clip-path="url(#clip0_6104_5105)">
<path d="M14.3622 24.5323C14.3622 25.129 14.4267 25.6129 14.5396 25.9677C14.6687 26.3226 14.83 26.7097 15.0558 27.129C15.1364 27.2581 15.1687 27.3871 15.1687 27.5C15.1687 27.6613 15.0719 27.8226 14.8622 27.9839L13.8461 28.6613C13.7009 28.7581 13.5558 28.8065 13.4267 28.8065C13.2654 28.8065 13.1042 28.7258 12.9429 28.5806C12.7171 28.3387 12.5235 28.0806 12.3622 27.8226C12.2009 27.5484 12.0396 27.2419 11.8622 26.871C10.6042 28.3548 9.02351 29.0968 7.12028 29.0968C5.76544 29.0968 4.6848 28.7097 3.89448 27.9355C3.10415 27.1613 2.70093 26.129 2.70093 24.8387C2.70093 23.4677 3.1848 22.3548 4.16867 21.5161C5.15254 20.6774 6.45899 20.2581 8.12028 20.2581C8.66867 20.2581 9.23319 20.3065 9.82996 20.3871C10.4267 20.4677 11.0396 20.5968 11.6848 20.7419V19.5645C11.6848 18.3387 11.4267 17.4839 10.9267 16.9839C10.4106 16.4839 9.53964 16.2419 8.2977 16.2419C7.73319 16.2419 7.15254 16.3065 6.55577 16.4516C5.95899 16.5968 5.37835 16.7742 4.81383 17C4.55577 17.1129 4.36222 17.1774 4.24931 17.2097C4.13641 17.2419 4.05577 17.2581 3.99125 17.2581C3.76544 17.2581 3.65254 17.0968 3.65254 16.7581V15.9677C3.65254 15.7097 3.6848 15.5161 3.76544 15.4032C3.84609 15.2903 3.99125 15.1774 4.21706 15.0645C4.78157 14.7742 5.45899 14.5323 6.24931 14.3387C7.03964 14.129 7.87835 14.0323 8.76544 14.0323C10.6848 14.0323 12.088 14.4677 12.9913 15.3387C13.8783 16.2097 14.33 17.5323 14.33 19.3065V24.5323H14.3622ZM7.81383 26.9839C8.34609 26.9839 8.89448 26.8871 9.47512 26.6936C10.0558 26.5 10.5719 26.1452 11.0074 25.6613C11.2654 25.3548 11.459 25.0161 11.5558 24.629C11.6525 24.2419 11.7171 23.7742 11.7171 23.2258V22.5484C11.2493 22.4355 10.7493 22.3387 10.2332 22.2742C9.71706 22.2097 9.21706 22.1774 8.71706 22.1774C7.63641 22.1774 6.84609 22.3871 6.31383 22.8226C5.78157 23.2581 5.52351 23.871 5.52351 24.6774C5.52351 25.4355 5.71706 26 6.12028 26.3871C6.50738 26.7903 7.0719 26.9839 7.81383 26.9839ZM20.7654 28.7258C20.4751 28.7258 20.2816 28.6774 20.1525 28.5645C20.0235 28.4677 19.9106 28.2419 19.8138 27.9355L16.0235 15.4677C15.9267 15.1452 15.8783 14.9355 15.8783 14.8226C15.8783 14.5645 16.0074 14.4194 16.2654 14.4194H17.8461C18.1525 14.4194 18.3622 14.4677 18.4751 14.5806C18.6042 14.6774 18.7009 14.9032 18.7977 15.2097L21.5074 25.8871L24.0235 15.2097C24.1042 14.8871 24.2009 14.6774 24.33 14.5806C24.459 14.4839 24.6848 14.4194 24.9751 14.4194H26.2654C26.5719 14.4194 26.7816 14.4677 26.9106 14.5806C27.0396 14.6774 27.1525 14.9032 27.2171 15.2097L29.7654 26.0161L32.5558 15.2097C32.6525 14.8871 32.7654 14.6774 32.8783 14.5806C33.0074 14.4839 33.2171 14.4194 33.5074 14.4194H35.0074C35.2654 14.4194 35.4106 14.5484 35.4106 14.8226C35.4106 14.9032 35.3945 14.9839 35.3783 15.0806C35.3622 15.1774 35.33 15.3065 35.2654 15.4839L31.3783 27.9516C31.2816 28.2742 31.1687 28.4839 31.0396 28.5806C30.9106 28.6774 30.7009 28.7419 30.4267 28.7419H29.0396C28.7332 28.7419 28.5235 28.6935 28.3945 28.5806C28.2654 28.4677 28.1525 28.2581 28.088 27.9355L25.588 17.5323L23.1042 27.9194C23.0235 28.2419 22.9267 28.4516 22.7977 28.5645C22.6687 28.6774 22.4429 28.7258 22.1525 28.7258H20.7654ZM41.4912 29.1613C40.6525 29.1613 39.8138 29.0645 39.0074 28.871C38.2009 28.6774 37.5719 28.4677 37.1525 28.2258C36.8945 28.0806 36.7171 27.9194 36.6525 27.7742C36.588 27.629 36.5558 27.4677 36.5558 27.3226V26.5C36.5558 26.1613 36.6848 26 36.9267 26C37.0235 26 37.1203 26.0161 37.2171 26.0484C37.3138 26.0806 37.459 26.1452 37.6203 26.2097C38.1687 26.4516 38.7654 26.6452 39.3945 26.7742C40.0396 26.9032 40.6687 26.9677 41.3138 26.9677C42.33 26.9677 43.1203 26.7903 43.6687 26.4355C44.2171 26.0806 44.5074 25.5645 44.5074 24.9032C44.5074 24.4516 44.3622 24.0806 44.0719 23.7742C43.7816 23.4677 43.2332 23.1935 42.4429 22.9355L40.1042 22.2097C38.9267 21.8387 38.0558 21.2903 37.5235 20.5645C36.9912 19.8548 36.7171 19.0645 36.7171 18.2258C36.7171 17.5484 36.8622 16.9516 37.1525 16.4355C37.4429 15.9194 37.83 15.4677 38.3138 15.1129C38.7977 14.7419 39.3461 14.4677 39.9912 14.2742C40.6364 14.0806 41.3138 14 42.0235 14C42.3783 14 42.7493 14.0161 43.1042 14.0645C43.4751 14.1129 43.8138 14.1774 44.1525 14.2419C44.4751 14.3226 44.7816 14.4032 45.0719 14.5C45.3622 14.5968 45.588 14.6935 45.7493 14.7903C45.9751 14.9194 46.1364 15.0484 46.2332 15.1935C46.33 15.3226 46.3783 15.5 46.3783 15.7258V16.4839C46.3783 16.8226 46.2493 17 46.0074 17C45.8783 17 45.6687 16.9355 45.3945 16.8065C44.4751 16.3871 43.4429 16.1774 42.2977 16.1774C41.3783 16.1774 40.6525 16.3226 40.1525 16.629C39.6525 16.9355 39.3945 17.4032 39.3945 18.0645C39.3945 18.5161 39.5558 18.9032 39.8783 19.2097C40.2009 19.5161 40.7977 19.8226 41.6525 20.0968L43.9429 20.8226C45.1041 21.1935 45.9429 21.7097 46.4429 22.371C46.9429 23.0323 47.1848 23.7903 47.1848 24.629C47.1848 25.3226 47.0396 25.9516 46.7654 26.5C46.4751 27.0484 46.088 27.5323 45.588 27.9194C45.088 28.3226 44.4912 28.6129 43.7977 28.8226C43.0719 29.0484 42.3138 29.1613 41.4912 29.1613Z" fill="white"/>
<path fill-rule="evenodd" clip-rule="evenodd" d="M44.5399 37C39.2335 40.9193 31.5238 43 24.8948 43C15.6044 43 7.23347 39.5645 0.910886 33.8548C0.410886 33.4032 0.862499 32.7903 1.45927 33.1451C8.29798 37.1129 16.7335 39.5161 25.4593 39.5161C31.3464 39.5161 37.8141 38.2903 43.7657 35.7741C44.6528 35.3709 45.4109 36.3548 44.5399 37Z" fill="#FF9900"/>
<path fill-rule="evenodd" clip-rule="evenodd" d="M46.7499 34.4838C46.0724 33.6129 42.266 34.0645 40.5402 34.2741C40.0241 34.3387 39.9434 33.887 40.4111 33.5483C43.4434 31.4193 48.4273 32.0322 49.0079 32.7419C49.5886 33.4677 48.8466 38.4516 46.0079 40.8387C45.5724 41.2096 45.1531 41.0161 45.3466 40.5322C45.9918 38.9354 47.4273 35.3387 46.7499 34.4838Z" fill="#FF9900"/>
</g>
<defs>
<clipPath id="clip0_6104_5105">
<rect width="49.4881" height="29" fill="white" transform="translate(0.255859 14)"/>
</clipPath>
</defs>
</svg>
