<svg width="50" height="50" viewBox="0 0 50 50" fill="none" xmlns="http://www.w3.org/2000/svg">
<g clip-path="url(#clip0_6104_3918)">
<path fill-rule="evenodd" clip-rule="evenodd" d="M29.1181 0.829468C28.7642 0.829468 28.4355 0.905319 28.1321 1.00645C28.7768 1.43625 29.1308 2.00512 29.3078 2.64983C29.3204 2.73832 29.3457 2.80153 29.3584 2.89001C29.371 2.96586 29.3836 3.04171 29.3836 3.11756C29.4342 4.23 29.0929 4.36905 28.8527 5.02641C28.4861 5.87338 28.5872 6.78356 29.0297 7.51676C29.0676 7.60525 29.1181 7.70638 29.1814 7.79487C28.701 4.5966 31.3683 4.11623 31.8613 3.11756C31.8993 2.2453 31.1787 1.6638 30.6098 1.25927C30.0663 0.930599 29.5732 0.829468 29.1181 0.829468ZM33.1381 1.55003C33.0875 1.84078 33.1255 1.76493 33.1128 1.91663C33.1002 2.01776 33.1002 2.14417 33.0876 2.2453C33.0623 2.34643 33.037 2.44756 32.9991 2.5487C32.9738 2.64983 32.9359 2.75096 32.898 2.85209C32.8474 2.95322 32.8095 3.04171 32.7589 3.14284C32.721 3.19343 32.6957 3.24397 32.6578 3.29454C32.6325 3.33246 32.6072 3.37039 32.5819 3.40831C32.5187 3.4968 32.4555 3.58529 32.3923 3.66114C32.3165 3.73699 32.2533 3.82547 32.1648 3.88869V3.90134C32.0889 3.96455 32.0131 4.0404 31.9246 4.1036C31.6591 4.30586 31.3557 4.45756 31.0776 4.64718C30.9891 4.71039 30.9006 4.76096 30.8248 4.8368C30.7363 4.90001 30.6604 4.96322 30.5846 5.03907C30.4961 5.11491 30.4329 5.19076 30.357 5.27925C30.2938 5.3551 30.218 5.44359 30.1674 5.53208C30.1042 5.62057 30.041 5.70906 29.9904 5.79755C29.9399 5.89868 29.902 5.98717 29.8514 6.0883C29.8135 6.18943 29.7755 6.27792 29.7503 6.37905C29.7123 6.49282 29.687 6.59396 29.6618 6.69509C29.6491 6.74568 29.6491 6.80886 29.6365 6.85943C29.6238 6.91001 29.6238 6.96055 29.6112 7.01112C29.6112 7.11225 29.5986 7.22603 29.5986 7.32715C29.5986 7.403 29.5986 7.47885 29.6112 7.5547C29.6112 7.65583 29.6239 7.75696 29.6492 7.87073C29.6618 7.97186 29.6871 8.073 29.7124 8.17413C29.7503 8.27526 29.7756 8.37639 29.8135 8.47752C29.8388 8.54073 29.8767 8.60394 29.902 8.6545L26.9945 7.52942C26.5015 7.39036 26.0211 7.26395 25.5281 7.15018C25.2626 7.08697 24.9971 7.02376 24.7317 6.96056C23.9732 6.80886 23.2021 6.69509 22.4309 6.61924C22.4057 6.61924 22.393 6.60658 22.3677 6.60658C21.6092 6.53074 20.8634 6.49281 20.1049 6.49281C19.5487 6.49281 18.9925 6.51807 18.4489 6.55602C17.6778 6.6066 16.9067 6.70772 16.1355 6.83413C15.9459 6.85939 15.7563 6.89734 15.5667 6.93526C15.1748 7.0111 14.7955 7.0996 14.4289 7.18809C14.2393 7.23867 14.0497 7.28922 13.8601 7.33978C13.6705 7.41563 13.4935 7.50412 13.3165 7.57997C13.1774 7.64317 13.0384 7.70638 12.8993 7.76959C12.8741 7.78225 12.8487 7.78225 12.8361 7.79486C12.7097 7.85806 12.5959 7.90862 12.4822 7.97183C12.4442 7.98449 12.419 7.9971 12.3937 8.00976C12.2546 8.07296 12.1156 8.14881 12.0018 8.21202C11.9133 8.24994 11.8248 8.30051 11.749 8.33844C11.711 8.3637 11.6605 8.38902 11.6352 8.40164C11.5214 8.46485 11.4077 8.52805 11.3065 8.59126C11.1927 8.65447 11.0916 8.71767 11.0031 8.78088C10.9146 8.84409 10.8261 8.89465 10.7503 8.95786C10.7376 8.97052 10.725 8.97052 10.7124 8.98312C10.6365 9.03371 10.548 9.09689 10.4722 9.1601C10.4722 9.1601 10.4595 9.17276 10.4469 9.18537C10.3837 9.23595 10.3205 9.2865 10.2573 9.33706C10.232 9.34972 10.2067 9.37498 10.1815 9.38765C10.1183 9.43823 10.055 9.50142 9.99184 9.55199C9.97918 9.57725 9.95392 9.58991 9.94125 9.60257C9.86541 9.67842 9.78956 9.74162 9.71371 9.81748C9.70105 9.81748 9.70105 9.83014 9.68845 9.84274C9.6126 9.90594 9.53675 9.98179 9.4609 10.0576C9.44824 10.0703 9.44824 10.0829 9.43564 10.0829C9.37243 10.1461 9.30922 10.2093 9.24601 10.2852C9.22075 10.3104 9.18281 10.3357 9.15753 10.361C9.09432 10.4369 9.01847 10.5127 8.94262 10.5886C8.92996 10.6138 8.9047 10.6265 8.89204 10.6518C8.79091 10.7529 8.70242 10.854 8.60129 10.9552C8.58862 10.9678 8.57602 10.9804 8.56336 10.9931C8.3611 11.208 8.14619 11.4229 7.91865 11.6125C7.69111 11.8148 7.45092 12.0044 7.21073 12.1687C6.9579 12.3457 6.71772 12.4974 6.45225 12.6491C6.19942 12.7882 5.93395 12.9146 5.65584 13.0283C5.39037 13.1421 5.11226 13.2433 4.83416 13.3317C4.30321 13.4455 3.75963 13.6604 3.2919 13.6983C3.19077 13.6983 3.077 13.7236 2.97587 13.7363C2.8621 13.7615 2.76097 13.7868 2.65984 13.8121C2.55871 13.85 2.45757 13.888 2.35644 13.9259C2.25531 13.9638 2.15418 14.0144 2.05305 14.0649C1.96456 14.1281 1.86343 14.1787 1.77494 14.2419C1.68645 14.3051 1.59796 14.381 1.52211 14.4568C1.43362 14.52 1.34513 14.6085 1.26928 14.6844C1.19343 14.7729 1.11759 14.8487 1.05438 14.9372C0.991175 15.0383 0.915326 15.1268 0.864758 15.2279C0.801553 15.3164 0.738347 15.4176 0.687779 15.5187C0.637194 15.6325 0.58665 15.7336 0.548725 15.8474C0.510801 15.9485 0.472876 16.0623 0.434952 16.1761C0.409689 16.2772 0.384366 16.3783 0.371747 16.4794C0.371747 16.4921 0.359086 16.5047 0.359086 16.5174C0.333823 16.6311 0.333823 16.7828 0.321161 16.8587C0.3085 16.9472 0.295898 17.023 0.295898 17.1115C0.295898 17.1621 0.295898 17.2253 0.308559 17.2759C0.32122 17.3643 0.333822 17.4402 0.359145 17.516C0.384408 17.5919 0.409731 17.6677 0.447631 17.7436V17.7562C0.485556 17.8321 0.536124 17.9079 0.586686 17.9838C0.637271 18.0596 0.687821 18.1355 0.751027 18.2113C0.814232 18.2745 0.890081 18.3504 0.96593 18.4136C1.04178 18.4894 1.11763 18.5526 1.20611 18.6159C1.50951 18.8813 1.58536 18.9698 1.97724 19.1721C2.04044 19.21 2.10366 19.2353 2.17951 19.2732C2.19217 19.2732 2.20477 19.2859 2.21743 19.2859C2.21743 19.3111 2.21743 19.3238 2.23009 19.3491C2.24275 19.4502 2.26802 19.5513 2.2933 19.6525C2.31856 19.7662 2.35651 19.8674 2.39443 19.9559C2.43236 20.0317 2.45764 20.1076 2.49556 20.1834C2.50822 20.2087 2.52083 20.234 2.53349 20.2466C2.58407 20.3477 2.63462 20.4362 2.68518 20.5247C2.74839 20.6132 2.8116 20.7017 2.8748 20.7902C2.93801 20.866 3.01386 20.9545 3.0897 21.0304C3.16555 21.1062 3.2414 21.1694 3.3299 21.2453C3.3299 21.2453 3.34256 21.258 3.35516 21.258C3.43101 21.3212 3.50686 21.3844 3.58271 21.4349C3.67119 21.4981 3.75968 21.5487 3.86081 21.5993C3.94931 21.6499 4.05044 21.7004 4.15157 21.7383C4.22741 21.7763 4.3159 21.8015 4.40439 21.8268C4.41706 21.8395 4.42966 21.8395 4.45498 21.8521C4.50556 21.8648 4.56875 21.8774 4.61931 21.89C4.58139 22.5726 4.56873 23.2174 4.6699 23.4449C4.78367 23.6977 5.33989 22.9266 5.89611 22.0417C5.82026 22.914 5.7697 23.9379 5.89611 24.2413C6.03517 24.5573 6.79365 23.5713 7.451 22.4842C16.4137 20.411 24.5927 26.6052 25.4523 35.3531C25.288 33.9878 23.6067 33.2293 22.8356 33.419C22.4563 34.3544 21.8116 35.5553 20.775 36.3012C20.8635 35.4669 20.8256 34.6072 20.6486 33.7729C20.3705 34.9359 19.8269 36.0231 19.0811 36.9585C17.8801 37.047 16.6792 36.4655 16.0471 35.5933C15.9965 35.5553 15.9839 35.4795 15.946 35.4289C15.9081 35.3404 15.8702 35.252 15.8449 35.1635C15.8069 35.075 15.7817 34.9865 15.769 34.898C15.7564 34.8095 15.7564 34.721 15.7564 34.6199C15.7564 34.5567 15.7564 34.4935 15.7564 34.4303C15.769 34.3418 15.7943 34.2533 15.8196 34.1648C15.8448 34.0763 15.8702 33.9878 15.9081 33.8993C15.9586 33.8108 15.9965 33.7223 16.0598 33.6339C16.2747 33.0271 16.2747 32.5341 15.8828 32.2433C15.8069 32.1927 15.7311 32.1548 15.6426 32.1169C15.592 32.1042 15.5288 32.079 15.4783 32.0663C15.4403 32.0536 15.4151 32.041 15.3771 32.0284C15.2886 32.0031 15.2001 31.9778 15.1117 31.9652C15.0232 31.9399 14.9347 31.9272 14.8462 31.9272C14.7577 31.9146 14.6566 31.902 14.5681 31.902C14.5049 31.902 14.4417 31.9146 14.3785 31.9146C14.2773 31.9146 14.1888 31.9273 14.1003 31.9526C14.0119 31.9652 13.9234 31.9778 13.8349 32.0031C13.7464 32.0284 13.6579 32.0537 13.5694 32.0916C13.4809 32.1296 13.4051 32.1675 13.3166 32.2054C13.2407 32.2433 13.1649 32.2939 13.0764 32.3318C10.1309 34.2533 11.8881 38.7536 13.8981 40.0557C13.1396 40.1948 12.3685 40.3591 12.1536 40.5234C12.1409 40.5361 12.1283 40.5487 12.1283 40.5487C12.6719 40.8774 13.2408 41.1555 13.8349 41.3957C14.6439 41.6611 15.5036 41.9013 15.8828 42.0025V42.0151C16.932 42.23 17.9939 42.3059 19.0684 42.2427C24.6686 41.8508 29.2574 37.5906 30.0917 31.9779C30.117 32.0916 30.1423 32.1928 30.1676 32.3065C30.2055 32.5341 30.2561 32.7743 30.2813 33.0145V33.0271C30.3066 33.1409 30.3193 33.2547 30.3319 33.3558V33.4064C30.3446 33.5202 30.3572 33.6339 30.3572 33.7351C30.3698 33.8741 30.3824 34.0132 30.3824 34.1522V34.3545C30.3824 34.4177 30.3951 34.4935 30.3951 34.5568C30.3951 34.6326 30.3824 34.7085 30.3824 34.7843V34.9613C30.3824 35.0498 30.3698 35.1256 30.3698 35.2141C30.3698 35.2647 30.3698 35.3152 30.3571 35.3784C30.3571 35.4669 30.3445 35.5554 30.3445 35.6566C30.3318 35.6945 30.3318 35.7324 30.3318 35.7703C30.3191 35.8715 30.3065 35.96 30.2938 36.0611C30.2938 36.099 30.2938 36.1369 30.2812 36.1749C30.2685 36.3013 30.2433 36.4151 30.2306 36.5415V36.5541V36.5668C30.2054 36.6806 30.18 36.807 30.1548 36.9207V36.9587C30.1295 37.0724 30.1042 37.1862 30.0789 37.3C30.0789 37.3127 30.0663 37.3379 30.0663 37.3506C30.041 37.4643 30.0157 37.5781 29.9778 37.6919V37.7298C29.9398 37.8562 29.9019 37.97 29.8766 38.0838C29.864 38.0964 29.864 38.109 29.864 38.109C29.8261 38.2355 29.7881 38.3619 29.7502 38.4883C29.6996 38.6147 29.6617 38.7285 29.6112 38.8549C29.5606 38.9813 29.5227 39.1077 29.4721 39.2215C29.4215 39.3479 29.371 39.4617 29.3204 39.5881H29.3077C29.2571 39.7019 29.2066 39.8283 29.1434 39.942C29.1307 39.98 29.1181 40.0052 29.1055 40.0305C29.0928 40.0432 29.0928 40.0558 29.0802 40.0685C28.2585 41.7245 27.0449 43.1782 25.528 44.316C25.4268 44.3792 25.3257 44.455 25.2246 44.5309C25.1993 44.5561 25.1614 44.5688 25.1361 44.5941C25.0476 44.6573 24.9591 44.7205 24.858 44.7837L24.8959 44.8595H24.9086C25.0855 44.8343 25.2625 44.809 25.4395 44.7837H25.4522C25.7808 44.7331 26.1095 44.6699 26.4382 44.6067C26.5267 44.594 26.6278 44.5688 26.7163 44.5435C26.7795 44.5308 26.8301 44.5182 26.8933 44.5056C26.9818 44.4929 27.0703 44.4676 27.1587 44.455C27.2346 44.4297 27.3104 44.4171 27.3863 44.3918C28.6504 44.0884 29.8766 43.6712 31.0523 43.1782C29.0423 45.9214 26.3497 48.1336 23.202 49.5874C24.6558 49.4863 26.1095 49.2461 27.5127 48.8415C32.6072 47.3372 36.8926 43.9114 39.4588 39.2973C38.9405 42.2175 37.7775 44.9986 36.0583 47.4257C37.2845 46.6167 38.4096 45.6812 39.4335 44.6193C42.2652 41.6612 44.1235 37.9068 44.7555 33.8741C45.1854 35.8715 45.3118 37.932 45.1221 39.9673C54.2492 27.2374 45.8806 14.0398 42.379 10.5634C42.3663 10.5382 42.3537 10.5255 42.3537 10.5002C42.341 10.5129 42.341 10.5129 42.341 10.5255C42.341 10.5128 42.341 10.5128 42.3284 10.5002C42.3284 10.6519 42.3157 10.8036 42.3031 10.9553C42.2652 11.2461 42.2273 11.5242 42.1767 11.8023C42.1135 12.0804 42.0376 12.3585 41.9618 12.6366C41.8733 12.9021 41.7722 13.1802 41.6584 13.4457C41.5446 13.6985 41.4182 13.964 41.2792 14.2168C41.1401 14.457 40.9884 14.7098 40.8241 14.9374C40.6597 15.1775 40.4827 15.4051 40.3058 15.62C40.1161 15.8475 39.9139 16.0498 39.7116 16.2521C39.5852 16.3658 39.4714 16.467 39.345 16.5681C39.2439 16.6566 39.1554 16.7324 39.0543 16.8209C38.8267 16.9979 38.5992 17.1622 38.3464 17.3139C38.1062 17.4656 37.8533 17.6173 37.6005 17.7437C37.335 17.8702 37.0696 17.9839 36.8041 18.0977C36.5386 18.1988 36.2605 18.2873 35.9824 18.3632C35.7043 18.439 35.4136 18.5022 35.1354 18.5528C34.8447 18.6034 34.5539 18.6286 34.2758 18.6539C34.0736 18.6666 33.8713 18.6792 33.669 18.6792C33.3783 18.6792 33.0875 18.6539 32.8094 18.6286C32.5187 18.6033 32.2279 18.5654 31.9498 18.5022C31.6591 18.4516 31.381 18.3758 31.1028 18.2873H31.0902C31.3683 18.262 31.6464 18.2367 31.9245 18.1862C32.2153 18.1356 32.4934 18.0724 32.7715 17.9965C33.0496 17.9207 33.3277 17.8322 33.5932 17.7311C33.8713 17.6299 34.1368 17.5035 34.3896 17.3771C34.6551 17.2507 34.8952 17.1116 35.1481 16.9599C35.3883 16.7956 35.6284 16.6313 35.856 16.4543C36.0835 16.2773 36.2984 16.0877 36.5007 15.8854C36.7156 15.6958 36.9052 15.4809 37.0948 15.266C37.2845 15.0385 37.4614 14.8109 37.6258 14.5834C37.651 14.5454 37.6764 14.4949 37.7016 14.4569C37.828 14.2547 37.9544 14.0524 38.0682 13.8502C38.2073 13.5973 38.3337 13.3445 38.4475 13.079C38.5612 12.8136 38.6624 12.5481 38.7509 12.27C38.8393 12.0045 38.9026 11.7264 38.9658 11.4483C39.0164 11.1575 39.0669 10.8794 39.0922 10.6013C39.1174 10.3106 39.1428 10.0198 39.1428 9.74171C39.1428 9.53945 39.1301 9.33719 39.1175 9.13493C39.0922 8.84418 39.0543 8.56606 39.0164 8.28795C38.9658 7.9972 38.9026 7.71909 38.8267 7.44098C38.7383 7.17551 38.6498 6.8974 38.5486 6.63193C38.4475 6.36646 38.3211 6.10099 38.1947 5.84816C38.0556 5.59534 37.9166 5.34251 37.7649 5.10233C37.6005 4.86214 37.4362 4.6346 37.2592 4.40705C37.0696 4.19214 36.88 3.97724 36.6777 3.76234C36.5766 3.66121 36.4628 3.54744 36.349 3.44631C35.7802 3.00386 35.186 2.58669 34.5919 2.20745C34.5034 2.15686 34.4276 2.11896 34.3391 2.08103C33.9219 1.81557 33.53 1.67644 33.1381 1.55003Z" fill="#E0234E"/>
</g>
<defs>
<clipPath id="clip0_6104_3918">
<rect width="50" height="50" fill="white"/>
</clipPath>
</defs>
</svg>
