<svg width="50" height="50" viewBox="0 0 50 50" fill="none" xmlns="http://www.w3.org/2000/svg">
<path d="M17.0332 48.4972C19.1188 49.3365 21.3815 49.8347 23.7572 49.9177C26.9725 50.0299 30.03 49.3651 32.7634 48.1023C29.4856 46.8146 26.5171 44.9314 23.9836 42.5898C22.3413 45.2194 19.9123 47.2962 17.0332 48.4972Z" fill="#FF9100"/>
<path d="M23.983 42.5905C18.1997 37.2418 14.6913 29.5002 14.9878 21.0091C14.9974 20.7334 15.012 20.4578 15.029 20.1823C13.9932 19.9144 12.9119 19.751 11.7991 19.7121C10.2062 19.6565 8.66367 19.854 7.20737 20.2641C5.66354 22.9685 4.7319 26.0714 4.61584 29.3949C4.31631 37.9724 9.50701 45.4671 17.0326 48.4979C19.9117 47.2969 22.3406 45.2224 23.983 42.5905Z" fill="#FFC400"/>
<path d="M23.9833 42.5902C25.3279 40.4385 26.1431 37.9158 26.238 35.1979C26.4877 28.0484 21.6814 21.8982 15.0293 20.182C15.0123 20.4575 14.9977 20.7331 14.9881 21.0088C14.6916 29.4999 18.2 37.2415 23.9833 42.5902Z" fill="#FF9100"/>
<path d="M25.4933 0.0855713C21.7047 3.12071 18.713 7.12281 16.903 11.7331C15.8667 14.3739 15.2155 17.2104 15.0254 20.1839C21.6775 21.9001 26.4838 28.0503 26.2341 35.1998C26.1392 37.9177 25.3216 40.4378 23.9794 42.5921C26.5128 44.936 29.4814 46.8169 32.7592 48.1046C39.3383 45.0636 44.0062 38.5194 44.2766 30.7791C44.4516 25.7641 42.5248 21.2945 39.8021 17.5218C36.9268 13.5317 25.4933 0.0855713 25.4933 0.0855713Z" fill="#DD2C00"/>
</svg>
