<svg width="50" height="50" viewBox="0 0 50 50" fill="none" xmlns="http://www.w3.org/2000/svg">
<g clip-path="url(#clip0_6104_3959)">
<path d="M23.3639 0.0390775C23.2565 0.0488421 22.9148 0.0830185 22.6072 0.10743C15.5131 0.747016 8.86828 4.57477 4.6597 10.458C2.31618 13.7291 0.817306 17.4397 0.250955 21.37C0.0507789 22.7419 0.0263672 23.1472 0.0263672 25.0073C0.0263672 26.8675 0.0507789 27.2727 0.250955 28.6447C1.60824 38.0237 8.2824 45.9037 17.3342 48.8234C18.9552 49.3458 20.664 49.7022 22.6072 49.917C23.3639 50 26.6351 50 27.3919 49.917C30.746 49.546 33.5875 48.716 36.39 47.2854C36.8196 47.0657 36.9026 47.0071 36.8441 46.9583C36.805 46.929 34.9741 44.4732 32.7771 41.5048L28.7833 36.1098L23.7789 28.7033C21.0253 24.6314 18.7599 21.3017 18.7404 21.3017C18.7208 21.2968 18.7013 24.5875 18.6915 28.6056C18.6769 35.6411 18.672 35.9242 18.5841 36.0902C18.4572 36.3295 18.3595 36.4271 18.1545 36.5345C17.9982 36.6127 17.8615 36.6273 17.1243 36.6273H16.2797L16.0551 36.4857C15.9086 36.393 15.8012 36.2709 15.728 36.1293L15.6254 35.9096L15.6352 26.1205L15.6498 16.3266L15.8012 16.1361C15.8793 16.0336 16.0453 15.9018 16.1625 15.8383C16.3627 15.7407 16.4408 15.7309 17.2854 15.7309C18.2814 15.7309 18.4474 15.77 18.7062 16.0531C18.7794 16.1313 21.4891 20.2129 24.731 25.1294C27.9729 30.0459 32.406 36.7591 34.5835 40.0547L38.5382 46.0453L38.7384 45.9135C40.5107 44.7613 42.3855 43.1208 43.8697 41.412C47.0286 37.7844 49.0645 33.361 49.7481 28.6447C49.9482 27.2727 49.9727 26.8675 49.9727 25.0073C49.9727 23.1472 49.9482 22.7419 49.7481 21.37C48.3908 11.991 41.7166 4.11095 32.6648 1.19131C31.0683 0.673781 29.3692 0.317371 27.4651 0.102548C26.9964 0.0537245 23.7692 1.87811e-05 23.3639 0.0390775ZM33.5875 15.145C33.8219 15.2622 34.0123 15.4868 34.0807 15.7211C34.1197 15.8481 34.1295 18.5627 34.1197 24.6802L34.1051 33.4587L32.5574 31.0859L31.0048 28.713V22.3318C31.0048 18.2062 31.0243 15.8871 31.0536 15.7748C31.1317 15.5014 31.3026 15.2866 31.537 15.1597C31.7371 15.0571 31.8104 15.0474 32.5769 15.0474C33.2995 15.0474 33.4264 15.0571 33.5875 15.145Z" fill="white"/>
<path d="M38.2944 46.1527C38.1235 46.2601 38.0698 46.3333 38.2212 46.2503C38.3286 46.1869 38.5043 46.0551 38.475 46.0502C38.4604 46.0502 38.3774 46.099 38.2944 46.1527ZM37.9575 46.3724C37.8696 46.4408 37.8696 46.4456 37.977 46.3919C38.0356 46.3626 38.0845 46.3285 38.0845 46.3187C38.0845 46.2796 38.06 46.2894 37.9575 46.3724ZM37.7134 46.5189C37.6255 46.5872 37.6255 46.5921 37.7329 46.5384C37.7915 46.5091 37.8403 46.4749 37.8403 46.4652C37.8403 46.4261 37.8159 46.4359 37.7134 46.5189ZM37.4693 46.6653C37.3814 46.7337 37.3814 46.7386 37.4888 46.6849C37.5474 46.6556 37.5962 46.6214 37.5962 46.6116C37.5962 46.5726 37.5718 46.5823 37.4693 46.6653ZM37.0982 46.8606C36.9127 46.9583 36.9225 46.9973 37.108 46.9046C37.191 46.8606 37.2545 46.8167 37.2545 46.8069C37.2545 46.7728 37.2496 46.7776 37.0982 46.8606Z" fill="black"/>
</g>
<defs>
<clipPath id="clip0_6104_3959">
<rect width="50" height="50" fill="white"/>
</clipPath>
</defs>
</svg>
