<svg width="50" height="50" viewBox="0 0 50 50" fill="none" xmlns="http://www.w3.org/2000/svg">
<path d="M15.341 41.82C15.3047 41.7559 15.2724 41.6897 15.2441 41.6217C15.0493 41.1704 14.9894 40.6722 15.0717 40.1876H3.53018L20.6823 10.0026L26.3135 19.9018L27.9459 17.0129L23.0372 8.36555C22.8019 7.92267 22.4594 7.54581 22.041 7.26943C21.6226 6.99305 21.1415 6.82597 20.6419 6.78345C20.1432 6.80611 19.661 6.96827 19.2499 7.25146C18.8389 7.53466 18.5156 7.92753 18.3168 8.38538L0.940388 38.9365C0.680652 39.3679 0.530896 39.8564 0.504292 40.3592C0.477689 40.862 0.575054 41.3637 0.787823 41.82C1.05505 42.2414 1.43487 42.5797 1.88433 42.7964C2.33378 43.0132 2.83493 43.0999 3.33108 43.0466H17.885C17.3888 43.1007 16.8874 43.0144 16.4377 42.7975C15.9881 42.5807 15.6076 42.242 15.341 41.82Z" fill="#00C492"/>
<path d="M48.8017 38.9357L34.5224 13.7831C34.2881 13.3355 33.9449 12.9541 33.5244 12.6742C33.1039 12.3942 32.6197 12.2246 32.1164 12.1812C31.6184 12.2027 31.1365 12.3639 30.7256 12.6462C30.3148 12.9285 29.9916 13.3206 29.7928 13.7777L27.946 17.0121L29.5892 19.9017L32.1317 15.4003L46.2584 40.1868H40.8866C40.9553 40.5965 40.9166 41.017 40.7745 41.4073C40.7445 41.4936 40.707 41.5771 40.6623 41.6567L40.6166 41.7483C40.3248 42.1605 39.9359 42.4944 39.4843 42.7206C39.0327 42.9468 38.5324 43.0582 38.0275 43.0451H46.4308C46.9358 43.0586 47.4362 42.9473 47.8879 42.7211C48.3395 42.4949 48.7283 42.1608 49.0199 41.7483C49.25 41.3059 49.3515 40.8079 49.313 40.3108C49.2744 39.8137 49.0973 39.3373 48.8017 38.9357Z" fill="#008776"/>
<path d="M40.6168 41.7491L40.6625 41.6575C40.7069 41.5778 40.7442 41.4944 40.7739 41.4081C40.916 41.0178 40.9547 40.5973 40.886 40.1876C40.8067 39.7457 40.648 39.3218 40.4177 38.9365L29.5993 19.9018L27.9462 17.0129L26.3031 19.9018L15.4885 38.9365C15.2786 39.3265 15.1374 39.7497 15.0713 40.1876C14.9842 40.6711 15.039 41.1694 15.2292 41.6225C15.2574 41.6905 15.2897 41.7567 15.326 41.8208C15.5934 42.2421 15.9732 42.5801 16.4227 42.7968C16.8721 43.0134 17.3732 43.1 17.8693 43.0466H38.0117C38.519 43.0616 39.0222 42.9511 39.4765 42.7249C39.9308 42.4987 40.3222 42.1637 40.616 41.7498L40.6168 41.7491ZM27.9455 22.7913L37.834 40.1868H18.0615L27.9455 22.7913Z" fill="#2D4A5D"/>
</svg>
