<svg width="50" height="50" viewBox="0 0 50 50" fill="none" xmlns="http://www.w3.org/2000/svg">
<g clip-path="url(#clip0_6104_3952)">
<path d="M46.7727 20.3379C46.7727 17.3621 43.0462 14.542 37.3325 12.7931C38.6511 6.96968 38.0651 2.33656 35.4829 0.853216C34.8877 0.505271 34.1919 0.340451 33.4319 0.340451V2.38234C33.8531 2.38234 34.1919 2.46475 34.4757 2.62039C35.721 3.33459 36.2613 6.05404 35.8399 9.55177C35.7394 10.4125 35.5746 11.3189 35.3731 12.2437C33.5783 11.8042 31.6189 11.4655 29.5588 11.2457C28.3227 9.55177 27.0408 8.01349 25.7497 6.66752C28.7346 3.89313 31.5366 2.37316 33.4411 2.37316V0.331299C30.923 0.331299 27.6268 2.12595 24.2939 5.23911C20.9609 2.14426 17.6647 0.367928 15.1467 0.367928V2.40979C17.042 2.40979 19.853 3.92061 22.838 6.67667C21.5561 8.02267 20.2742 9.55177 19.0563 11.2457C16.987 11.4655 15.0276 11.8042 13.233 12.2529C13.0223 11.3373 12.8667 10.4491 12.7567 9.59755C12.3265 6.09982 12.8575 3.38037 14.0937 2.65702C14.3683 2.4922 14.7253 2.41897 15.1467 2.41897V0.37708C14.3775 0.37708 13.6816 0.5419 13.0774 0.889845C10.5043 2.37316 9.92755 6.99714 11.2551 12.8023C5.55989 14.5603 1.85156 17.3713 1.85156 20.3379C1.85156 23.3139 5.5782 26.134 11.2918 27.8828C9.9732 33.7063 10.5592 38.3393 13.1414 39.8227C13.7366 40.1706 14.4324 40.3354 15.2016 40.3354C17.7195 40.3354 21.0159 38.5408 24.3488 35.4276C27.6816 38.5226 30.978 40.299 33.496 40.299C34.265 40.299 34.961 40.1341 35.5654 39.7861C38.1382 38.3027 38.7152 33.6787 37.3874 27.8738C43.0644 26.1248 46.7727 23.3047 46.7727 20.3379ZM34.8512 14.2307C34.5124 15.4119 34.0912 16.6296 33.615 17.8474C33.2397 17.115 32.8459 16.3824 32.4156 15.6498C31.9944 14.9174 31.5456 14.2032 31.097 13.5073C32.3971 13.6996 33.6516 13.9377 34.8512 14.2307ZM30.6574 23.9822C29.9433 25.2184 29.2109 26.3904 28.4509 27.48C27.0864 27.599 25.704 27.6631 24.3121 27.6631C22.9295 27.6631 21.5469 27.599 20.1918 27.489C19.4318 26.3994 18.69 25.2366 17.9759 24.0096C17.28 22.8102 16.6483 21.5924 16.0713 20.3655C16.6391 19.1385 17.28 17.9115 17.9669 16.7121C18.681 15.476 19.4134 14.3039 20.1734 13.2143C21.5378 13.0953 22.9203 13.0312 24.3121 13.0312C25.6948 13.0312 27.0774 13.0953 28.4324 13.2052C29.1925 14.2948 29.9343 15.4576 30.6484 16.6846C31.3443 17.884 31.976 19.1019 32.5529 20.3289C31.976 21.5557 31.3443 22.7828 30.6574 23.9822ZM33.615 22.792C34.0956 23.9852 34.5174 25.2014 34.8787 26.436C33.6791 26.729 32.4156 26.9764 31.1062 27.1686C31.5548 26.4637 32.0034 25.7403 32.4248 24.9985C32.8459 24.2661 33.2397 23.5244 33.615 22.792ZM24.3304 32.5618C23.4788 31.6826 22.6273 30.7029 21.785 29.6317C22.6091 29.6684 23.4514 29.6958 24.3029 29.6958C25.1637 29.6958 26.0152 29.6776 26.8485 29.6317C26.0626 30.6531 25.2219 31.6312 24.3304 32.5618ZM17.5181 27.1686C16.2179 26.9764 14.9635 26.7382 13.7641 26.4453C14.1027 25.2641 14.5241 24.0463 15.0001 22.8284C15.3756 23.561 15.7693 24.2936 16.1995 25.026C16.6299 25.7585 17.0695 26.4727 17.5181 27.1686ZM24.2847 8.11423C25.1362 8.99322 25.9878 9.97297 26.8301 11.0443C26.006 11.0076 25.1637 10.9802 24.3121 10.9802C23.4514 10.9802 22.5999 10.9985 21.7668 11.0443C22.5527 10.0229 23.3932 9.04481 24.2847 8.11423ZM17.5089 13.5073C17.0603 14.2124 16.6117 14.9357 16.1905 15.6773C15.7693 16.4099 15.3756 17.1424 15.0001 17.8748C14.5194 16.6816 14.0977 15.4654 13.7366 14.2307C14.936 13.9468 16.1995 13.6996 17.5089 13.5073ZM9.2224 24.9711C5.9811 23.5884 3.88428 21.7756 3.88428 20.3379C3.88428 18.9004 5.9811 17.0784 9.2224 15.7049C10.0099 15.3661 10.8706 15.0639 11.7588 14.7801C12.2807 16.5747 12.9674 18.4426 13.8189 20.3563C12.9766 22.2609 12.2989 24.1196 11.7862 25.9051C10.8798 25.6212 10.0191 25.3099 9.2224 24.9711ZM14.1486 38.0556C12.9033 37.3414 12.363 34.622 12.7844 31.1241C12.8851 30.2636 13.0497 29.3569 13.2512 28.4321C15.046 28.8717 17.0054 29.2106 19.0655 29.4302C20.3016 31.1241 21.5835 32.6624 22.8746 34.0084C19.8896 36.7829 17.0877 38.3027 15.1832 38.3027C14.7712 38.2937 14.4233 38.2112 14.1486 38.0556ZM35.8676 31.0784C36.2977 34.5761 35.7668 37.2955 34.5306 38.0189C34.256 38.1837 33.8989 38.257 33.4776 38.257C31.5822 38.257 28.7713 36.7462 25.7863 33.9901C27.0682 32.6441 28.3501 31.1151 29.568 29.421C31.6373 29.2013 33.5967 28.8625 35.3913 28.4139C35.602 29.3387 35.7668 30.2269 35.8676 31.0784ZM39.3927 24.9711C38.6052 25.3099 37.7445 25.6121 36.8563 25.8959C36.3344 24.1013 35.6477 22.2334 34.7961 20.3197C35.6387 18.4151 36.3162 16.5565 36.8289 14.7709C37.7355 15.0548 38.596 15.3661 39.4019 15.7049C42.6432 17.0874 44.74 18.9004 44.74 20.3379C44.7308 21.7756 42.634 23.5977 39.3927 24.9711Z" fill="#61DAFB"/>
<path d="M24.3029 24.5225C26.6141 24.5225 28.4875 22.6491 28.4875 20.3379C28.4875 18.027 26.6141 16.1536 24.3029 16.1536C21.9919 16.1536 20.1185 18.027 20.1185 20.3379C20.1185 22.6491 21.9919 24.5225 24.3029 24.5225ZM3.89129 47.5402H2.50998V49.9192H1.73047V44.0385H3.67723C4.3396 44.0385 4.84852 44.1894 5.20394 44.491C5.56206 44.7923 5.74113 45.2313 5.74113 45.8075C5.74113 46.1738 5.6415 46.4928 5.44224 46.7649C5.24568 47.0368 4.97104 47.2401 4.6183 47.3746L5.99962 49.8706V49.9192H5.16759L3.89129 47.5402ZM2.50998 46.9061H3.70147C4.08652 46.9061 4.39212 46.8064 4.6183 46.6072C4.84717 46.408 4.9616 46.1414 4.9616 45.8075C4.9616 45.444 4.85255 45.1654 4.63446 44.9715C4.41904 44.7776 4.1067 44.6793 3.69742 44.6767H2.50998V46.9061ZM8.52806 50C7.93561 50 7.45362 49.8061 7.08205 49.4184C6.71045 49.0279 6.52467 48.5068 6.52467 47.8553V47.7179C6.52467 47.2845 6.60679 46.8981 6.77104 46.5589C6.93799 46.2168 7.16955 45.9502 7.46574 45.7592C7.76463 45.5653 8.08774 45.4682 8.43509 45.4682C9.00327 45.4682 9.44491 45.6553 9.75981 46.0296C10.0749 46.4039 10.2324 46.9397 10.2324 47.6371V47.9481H7.27187C7.28263 48.3791 7.40786 48.7278 7.64749 48.9943C7.88983 49.258 8.19678 49.3901 8.5684 49.3901C8.83231 49.3901 9.05569 49.3363 9.23873 49.2286C9.42198 49.1209 9.58209 48.9782 9.71948 48.8004L10.1759 49.1559C9.80956 49.7185 9.26044 50 8.52806 50ZM8.43509 46.0822C8.13352 46.0822 7.88041 46.1926 7.67577 46.4133C7.47112 46.6316 7.34457 46.9385 7.29611 47.3343H9.48525V47.2777C9.46375 46.8981 9.36137 46.6045 9.17833 46.3971C8.99508 46.1873 8.74734 46.0822 8.43509 46.0822ZM13.7988 49.9192C13.7556 49.833 13.7206 49.6796 13.6938 49.4587C13.3463 49.8195 12.9317 50 12.4498 50C12.019 50 11.665 49.8788 11.3875 49.6364C11.113 49.3913 10.9756 49.0818 10.9756 48.7075C10.9756 48.2525 11.148 47.8998 11.4926 47.6494C11.8398 47.3961 12.3273 47.2696 12.9547 47.2696H13.6817V46.9264C13.6817 46.6651 13.6035 46.4577 13.4475 46.3044C13.2913 46.1482 13.0609 46.0702 12.7567 46.0702C12.4901 46.0702 12.2667 46.1373 12.0863 46.272C11.906 46.4066 11.8157 46.5695 11.8157 46.7608H11.0644C11.0644 46.5427 11.1412 46.3326 11.2946 46.1306C11.4508 45.926 11.6609 45.7645 11.9248 45.6459C12.1914 45.5276 12.4833 45.4682 12.8011 45.4682C13.3048 45.4682 13.6991 45.5947 13.9845 45.848C14.2699 46.0984 14.418 46.4444 14.4288 46.8859V48.8973C14.4288 49.2986 14.48 49.6176 14.5824 49.8545V49.9192H13.7988ZM12.5589 49.3498C12.7931 49.3498 13.0153 49.2892 13.2253 49.168C13.4352 49.0467 13.5873 48.8893 13.6817 48.6954V47.7988H13.0959C12.1805 47.7988 11.7227 48.0666 11.7227 48.6024C11.7227 48.8367 11.8009 49.0199 11.9569 49.1518C12.1132 49.2836 12.3138 49.3498 12.5589 49.3498ZM17.353 49.3901C17.6196 49.3901 17.8526 49.3092 18.0518 49.1477C18.251 48.9861 18.3614 48.7843 18.3829 48.5418H19.0899C19.0763 48.7922 18.9901 49.0306 18.8313 49.2568C18.6724 49.4831 18.4597 49.6634 18.1931 49.798C17.9292 49.9327 17.6493 50 17.353 50C16.758 50 16.284 49.8021 15.9312 49.4063C15.5813 49.0076 15.4063 48.4638 15.4063 47.7745V47.6494C15.4063 47.2239 15.4843 46.8455 15.6405 46.5145C15.7967 46.1832 16.0201 45.926 16.3111 45.743C16.6045 45.5597 16.9505 45.4682 17.3489 45.4682C17.8391 45.4682 18.2457 45.615 18.5688 45.9086C18.8945 46.202 19.0682 46.583 19.0899 47.0515H18.3829C18.3614 46.7687 18.2537 46.5372 18.0598 46.3568C17.8688 46.1738 17.6317 46.0822 17.3489 46.0822C16.9693 46.0822 16.6745 46.2194 16.4644 46.4942C16.2572 46.7661 16.1534 47.1606 16.1534 47.6776V47.8189C16.1534 48.3224 16.2572 48.7101 16.4644 48.982C16.6718 49.2542 16.9681 49.3901 17.353 49.3901ZM20.9436 44.491V45.5491H21.7595V46.1267H20.9436V48.8367C20.9436 49.0117 20.9801 49.1436 21.0528 49.2325C21.1254 49.3186 21.2493 49.3619 21.4244 49.3619C21.5104 49.3619 21.6289 49.3457 21.7796 49.3133V49.9192C21.583 49.973 21.392 50 21.2061 50C20.8724 50 20.6205 49.8989 20.4508 49.697C20.2813 49.4951 20.1965 49.2083 20.1965 48.8367V46.1267H19.4007V45.5491H20.1965V44.491H20.9436ZM29.3245 49.9192H28.5448L25.5844 45.3875V49.9192H24.8049V44.0385H25.5844L28.553 48.5904V44.0385H29.3245V49.9192ZM33.2826 49.9192C33.2394 49.833 33.2044 49.6796 33.1776 49.4587C32.8301 49.8195 32.4155 50 31.9335 50C31.5028 50 31.1486 49.8788 30.8713 49.6364C30.5968 49.3913 30.4594 49.0818 30.4594 48.7075C30.4594 48.2525 30.6316 47.8998 30.9764 47.6494C31.3236 47.3961 31.8111 47.2696 32.4384 47.2696H33.1655V46.9264C33.1655 46.6651 33.0873 46.4577 32.9311 46.3044C32.775 46.1482 32.5447 46.0702 32.2405 46.0702C31.9739 46.0702 31.7505 46.1373 31.5701 46.272C31.3897 46.4066 31.2994 46.5695 31.2994 46.7608H30.5482C30.5482 46.5427 30.625 46.3326 30.7784 46.1306C30.9346 45.926 31.1447 45.7645 31.4086 45.6459C31.6752 45.5276 31.9671 45.4682 32.2849 45.4682C32.7884 45.4682 33.1829 45.5947 33.4683 45.848C33.7537 46.0984 33.9018 46.4444 33.9126 46.8859V48.8973C33.9126 49.2986 33.9638 49.6176 34.0662 49.8545V49.9192H33.2826ZM32.0427 49.3498C32.2769 49.3498 32.4991 49.2892 32.7091 49.168C32.919 49.0467 33.0711 48.8893 33.1655 48.6954V47.7988H32.5797C31.6643 47.7988 31.2065 48.0666 31.2065 48.6024C31.2065 48.8367 31.2847 49.0199 31.4407 49.1518C31.5969 49.2836 31.7976 49.3498 32.0427 49.3498ZM36.0977 44.491V45.5491H36.9136V46.1267H36.0977V48.8367C36.0977 49.0117 36.1341 49.1436 36.2068 49.2325C36.2795 49.3186 36.4033 49.3619 36.5784 49.3619C36.6644 49.3619 36.7829 49.3457 36.9338 49.3133V49.9192C36.7371 49.973 36.5461 50 36.3601 50C36.0264 50 35.7746 49.8989 35.6048 49.697C35.4353 49.4951 35.3505 49.2083 35.3505 48.8367V46.1267H34.5549V45.5491H35.3505V44.491H36.0977ZM38.6019 49.9192H37.8546V45.5491H38.6019V49.9192ZM37.794 44.3898C37.794 44.2688 37.8304 44.1664 37.9031 44.0829C37.9785 43.9994 38.0888 43.9578 38.2342 43.9578C38.3797 43.9578 38.4901 43.9994 38.5655 44.0829C38.6408 44.1664 38.6785 44.2688 38.6785 44.3898C38.6785 44.511 38.6408 44.612 38.5655 44.6928C38.4901 44.7735 38.3797 44.814 38.2342 44.814C38.0888 44.814 37.9785 44.7735 37.9031 44.6928C37.8304 44.612 37.794 44.511 37.794 44.3898ZM41.2433 48.9055L42.3256 45.5491H43.0891L41.522 49.9192H40.9524L39.3693 45.5491H40.1326L41.2433 48.9055ZM45.5649 50C44.9726 50 44.4906 49.8061 44.119 49.4184C43.7474 49.0279 43.5617 48.5068 43.5617 47.8553V47.7179C43.5617 47.2845 43.6438 46.8981 43.808 46.5589C43.9748 46.2168 44.2064 45.9502 44.5027 45.7592C44.8016 45.5653 45.1247 45.4682 45.4719 45.4682C46.0401 45.4682 46.4817 45.6553 46.7968 46.0296C47.1117 46.4039 47.2694 46.9397 47.2694 47.6371V47.9481H44.3088C44.3196 48.3791 44.4447 48.7278 44.6845 48.9943C44.9267 49.258 45.2338 49.3901 45.6052 49.3901C45.8691 49.3901 46.0927 49.3363 46.2758 49.2286C46.4588 49.1209 46.6191 48.9782 46.7565 48.8004L47.2129 49.1559C46.8466 49.7185 46.2973 50 45.5649 50ZM45.4719 46.0822C45.1705 46.0822 44.9173 46.1926 44.7127 46.4133C44.508 46.6316 44.3815 46.9385 44.3331 47.3343H46.5221V47.2777C46.5006 46.8981 46.3982 46.6045 46.2152 46.3971C46.0321 46.1873 45.7844 46.0822 45.4719 46.0822Z" fill="#61DAFB"/>
</g>
<defs>
<clipPath id="clip0_6104_3952">
<rect width="50" height="50" fill="white"/>
</clipPath>
</defs>
</svg>
