<svg width="50" height="50" viewBox="0 0 50 50" fill="none" xmlns="http://www.w3.org/2000/svg">
<path fill-rule="evenodd" clip-rule="evenodd" d="M2.35824 29.8521H2.17914C2.07691 29.8521 1.99066 29.9338 1.99066 30.034V30.583C1.99066 30.6834 2.07691 30.7643 2.17914 30.7643H2.35393C2.38306 30.7643 2.411 30.7759 2.4316 30.7965C2.4522 30.8171 2.46377 30.8451 2.46377 30.8742C2.46377 30.9033 2.4522 30.9313 2.4316 30.9519C2.411 30.9725 2.38306 30.984 2.35393 30.984H2.17914C1.95591 30.984 1.77148 30.8067 1.77148 30.5906V30.0272C1.77148 29.8105 1.95591 29.6342 2.17914 29.6342H2.35824C2.41912 29.6342 2.46783 29.6847 2.46783 29.7448C2.46783 29.8057 2.41912 29.8521 2.35824 29.8521ZM5.14742 30.9838H3.89984C3.67406 30.9838 3.49243 30.8019 3.49243 30.5954C3.49243 30.3765 3.6695 30.192 3.89984 30.192H5.12003C5.1804 30.192 5.22936 30.241 5.22936 30.3021C5.22939 30.3165 5.22659 30.3308 5.22111 30.3441C5.21563 30.3574 5.20758 30.3694 5.19743 30.3796C5.18727 30.3898 5.17521 30.3979 5.16192 30.4034C5.14864 30.4089 5.13441 30.4117 5.12003 30.4117H3.90212C3.79279 30.4117 3.71136 30.4924 3.71136 30.5956C3.71136 30.6814 3.79761 30.7646 3.90212 30.7646H5.15021C5.25245 30.7646 5.3387 30.6814 5.3387 30.5858V30.0343C5.33756 29.9852 5.31713 29.9386 5.28184 29.9046C5.24655 29.8705 5.19925 29.8518 5.15021 29.8524H3.6043C3.57537 29.8524 3.54763 29.8409 3.52717 29.8204C3.50671 29.8 3.49522 29.7722 3.49522 29.7433C3.49522 29.7144 3.50671 29.6866 3.52717 29.6662C3.54763 29.6457 3.57537 29.6342 3.6043 29.6342H5.14742C5.37091 29.6342 5.55762 29.8082 5.55762 30.0272V30.5906C5.55737 30.8095 5.37091 30.9838 5.14742 30.9838ZM7.42443 30.9838H6.17659C5.9531 30.9838 5.7669 30.8113 5.7669 30.5855V30.031C5.7669 29.8105 5.94803 29.6342 6.17406 29.6342H7.39399C7.45436 29.6342 7.50358 29.6822 7.50358 29.7428C7.50358 29.8034 7.45462 29.8524 7.39399 29.8524H6.17203C6.07893 29.8524 5.98557 29.9292 5.98557 30.0343V30.5812C5.98557 30.6931 6.08121 30.7646 6.17431 30.7646H7.42468C7.47398 30.7652 7.52151 30.7462 7.55684 30.7119C7.59218 30.6775 7.61243 30.6305 7.61317 30.5812V29.1677C7.61452 29.1396 7.62664 29.1131 7.64702 29.0936C7.6674 29.0742 7.69448 29.0634 7.72263 29.0634C7.75078 29.0634 7.77785 29.0742 7.79823 29.0936C7.81861 29.1131 7.83074 29.1396 7.83209 29.1677V30.5858C7.83184 30.8065 7.64792 30.9838 7.42443 30.9838ZM9.70347 30.3245C9.56851 30.3245 9.51524 30.4046 9.51524 30.5069C9.51524 30.602 9.51981 30.5609 9.50788 30.654C9.48252 30.8422 9.31001 30.984 9.1053 30.984H8.45132C8.22808 30.984 8.04163 30.8067 8.04163 30.5906V29.7428C8.04163 29.6824 8.09059 29.6342 8.15122 29.6342C8.21108 29.6342 8.2603 29.6822 8.2603 29.7428V30.583C8.2603 30.6834 8.34655 30.7643 8.45132 30.7643H9.1053C9.21032 30.7643 9.29632 30.6837 9.29632 30.583V30.4947C9.29632 30.2753 9.48708 30.1111 9.70144 30.1111C9.80875 30.1111 9.88992 30.0546 9.88992 29.9313V29.7425C9.88992 29.6822 9.93888 29.634 9.99926 29.634C10.0599 29.634 10.1086 29.6819 10.1086 29.7425V29.9313C10.1086 30.1525 9.92949 30.3245 9.70347 30.3245ZM11.9734 30.9838H10.7253C10.4995 30.9838 10.3179 30.8019 10.3179 30.5954C10.3179 30.3765 10.4952 30.192 10.7253 30.192H11.9457C11.9601 30.192 11.9744 30.1949 11.9877 30.2004C12.001 30.206 12.0131 30.2141 12.0232 30.2244C12.0334 30.2346 12.0414 30.2467 12.0468 30.2601C12.0522 30.2734 12.0549 30.2877 12.0548 30.3021C12.0548 30.3165 12.052 30.3307 12.0466 30.344C12.0411 30.3573 12.0331 30.3694 12.023 30.3795C12.0128 30.3897 12.0008 30.3978 11.9875 30.4033C11.9743 30.4088 11.9601 30.4117 11.9457 30.4117H10.7278C10.6185 30.4117 10.5371 30.4924 10.5371 30.5956C10.5371 30.6814 10.6233 30.7646 10.7278 30.7646H11.9754C12.0781 30.7646 12.1641 30.6814 12.1641 30.5858V30.0343C12.1629 29.9852 12.1425 29.9386 12.1071 29.9046C12.0718 29.8705 12.0245 29.8518 11.9754 29.8524H10.43C10.4011 29.8524 10.3733 29.8409 10.3529 29.8204C10.3324 29.8 10.3209 29.7722 10.3209 29.7433C10.3209 29.7144 10.3324 29.6866 10.3529 29.6662C10.3733 29.6457 10.4011 29.6342 10.43 29.6342H11.9734C12.1969 29.6342 12.3831 29.8082 12.3831 30.0272V30.5906C12.3833 30.8095 12.1971 30.9838 11.9734 30.9838ZM14.5485 30.9838C14.534 30.9838 14.5198 30.981 14.5064 30.9756C14.4931 30.9701 14.481 30.962 14.4708 30.9518C14.4606 30.9416 14.4526 30.9295 14.4471 30.9162C14.4416 30.9029 14.4388 30.8886 14.4389 30.8742V30.034C14.4389 29.9338 14.3526 29.8521 14.2501 29.8521H13C12.8975 29.8521 12.8115 29.9338 12.8115 30.034V30.8742C12.8116 30.8886 12.8088 30.9028 12.8033 30.9161C12.7979 30.9295 12.7898 30.9415 12.7797 30.9517C12.7695 30.9619 12.7574 30.97 12.7441 30.9755C12.7308 30.981 12.7166 30.9838 12.7022 30.9838C12.6878 30.9838 12.6735 30.981 12.6602 30.9756C12.6468 30.9701 12.6347 30.962 12.6245 30.9518C12.6144 30.9416 12.6063 30.9295 12.6008 30.9162C12.5953 30.9029 12.5925 30.8886 12.5926 30.8742V30.0269C12.5926 29.8103 12.7765 29.634 13 29.634H14.2501C14.4736 29.634 14.6578 29.8103 14.6578 30.0269V30.8742C14.6579 30.8886 14.6551 30.9028 14.6496 30.9161C14.6441 30.9295 14.6361 30.9415 14.6259 30.9517C14.6158 30.9619 14.6037 30.97 14.5904 30.9755C14.5771 30.981 14.5628 30.9838 14.5485 30.9838ZM16.8227 30.9838H15.2747C15.0487 30.9838 14.8671 30.8044 14.8671 30.5903V30.0269C14.8671 29.8103 15.051 29.634 15.2747 29.634H16.8227C16.8833 29.634 16.9323 29.6819 16.9323 29.7425C16.9323 29.8032 16.8833 29.8521 16.8227 29.8521H15.277C15.172 29.8521 15.086 29.9338 15.086 30.034V30.583C15.086 30.6834 15.172 30.7643 15.277 30.7643H16.8227C16.8509 30.7657 16.8774 30.7778 16.8969 30.7983C16.9164 30.8187 16.9272 30.8458 16.9272 30.8741C16.9272 30.9023 16.9164 30.9294 16.8969 30.9498C16.8774 30.9703 16.8509 30.9824 16.8227 30.9838ZM17.2511 29.2801C17.2368 29.2803 17.2227 29.2777 17.2094 29.2724C17.1961 29.2671 17.184 29.2592 17.1738 29.2492C17.1636 29.2392 17.1555 29.2273 17.15 29.2141C17.1444 29.2009 17.1416 29.1868 17.1415 29.1725V29.1674C17.1415 29.1384 17.1531 29.1105 17.1736 29.09C17.1942 29.0694 17.2221 29.0579 17.2511 29.0579C17.2802 29.0579 17.3081 29.0694 17.3286 29.09C17.3492 29.1105 17.3607 29.1384 17.3607 29.1674V29.1725C17.3607 29.2334 17.3118 29.2801 17.2511 29.2801ZM17.2511 30.9838C17.2367 30.9838 17.2224 30.981 17.2091 30.9756C17.1958 30.9701 17.1837 30.962 17.1735 30.9518C17.1633 30.9416 17.1552 30.9295 17.1497 30.9162C17.1443 30.9029 17.1415 30.8886 17.1415 30.8742V29.7425C17.1416 29.7282 17.1445 29.714 17.15 29.7008C17.1556 29.6876 17.1637 29.6756 17.1739 29.6655C17.184 29.6555 17.1961 29.6475 17.2093 29.6421C17.2226 29.6366 17.2368 29.6339 17.2511 29.634C17.3118 29.634 17.3607 29.6819 17.3607 29.7425V30.8742C17.3608 30.8886 17.358 30.9029 17.3525 30.9162C17.347 30.9295 17.339 30.9416 17.3288 30.9518C17.3186 30.962 17.3065 30.9701 17.2931 30.9756C17.2798 30.981 17.2655 30.9838 17.2511 30.9838ZM19.5256 30.9838C19.5112 30.9838 19.497 30.981 19.4837 30.9755C19.4704 30.97 19.4583 30.9619 19.4481 30.9517C19.438 30.9415 19.4299 30.9295 19.4244 30.9161C19.419 30.9028 19.4162 30.8886 19.4163 30.8742V30.034C19.4163 29.9338 19.33 29.8521 19.2275 29.8521H17.9774C17.8749 29.8521 17.7887 29.9338 17.7887 30.034V30.8742C17.7887 30.9032 17.7772 30.931 17.7566 30.9515C17.7361 30.972 17.7083 30.9835 17.6793 30.9835C17.6503 30.9835 17.6225 30.972 17.602 30.9515C17.5815 30.931 17.57 30.9032 17.57 30.8742V30.0269C17.57 29.8103 17.7537 29.634 17.9772 29.634H19.2273C19.451 29.634 19.6347 29.8103 19.6347 30.0269V30.8742C19.6348 30.8886 19.6321 30.9028 19.6267 30.9162C19.6212 30.9295 19.6132 30.9416 19.6031 30.9518C19.5929 30.962 19.5808 30.9701 19.5675 30.9756C19.5542 30.981 19.54 30.9838 19.5256 30.9838ZM21.6905 30.0226C21.6905 30.1197 21.6162 30.192 21.5 30.192H20.245C20.1496 30.192 20.0637 30.1271 20.0637 30.0246C20.0637 29.9201 20.1496 29.8521 20.245 29.8521H21.5C21.6162 29.8521 21.6905 29.9275 21.6905 30.0226ZM21.9119 30.0226C21.9119 29.7961 21.7212 29.6342 21.5 29.6342H20.245C20.052 29.6342 19.8442 29.7897 19.8442 30.0246C19.8442 30.136 19.9003 30.2311 19.9766 30.3021C19.9359 30.338 19.9031 30.3819 19.8803 30.4311C19.8575 30.4804 19.8452 30.5338 19.8442 30.588C19.8442 30.8229 20.0538 30.984 20.245 30.984H21.5C21.6068 30.984 21.6905 31.0589 21.6905 31.1603C21.6905 31.2628 21.6068 31.3382 21.5 31.3382H19.9586C19.9297 31.3382 19.902 31.3497 19.8815 31.3701C19.861 31.3906 19.8495 31.4183 19.8495 31.4472C19.8495 31.4762 19.861 31.5039 19.8815 31.5244C19.902 31.5448 19.9297 31.5563 19.9586 31.5563H21.5C21.7255 31.5563 21.9097 31.3795 21.9097 31.1603C21.9097 30.9424 21.7255 30.7643 21.5 30.7643H20.245C20.154 30.7643 20.0637 30.6974 20.0637 30.588C20.0637 30.4787 20.154 30.4117 20.245 30.4117H21.5C21.7212 30.4117 21.9119 30.2506 21.9119 30.0226ZM24.8914 30.9838H23.3457C23.12 30.9838 22.936 30.8092 22.936 30.5903V29.1674C22.936 29.1384 22.9476 29.1105 22.9681 29.09C22.9887 29.0694 23.0166 29.0579 23.0456 29.0579C23.0747 29.0579 23.1026 29.0694 23.1231 29.09C23.1437 29.1105 23.1552 29.1384 23.1552 29.1674V29.5733C23.1552 29.603 23.1824 29.6342 23.2153 29.6342H24.8914C24.952 29.6342 25.001 29.6822 25.001 29.7428C25.001 29.8034 24.952 29.8524 24.8914 29.8524H23.2153C23.1997 29.8522 23.1846 29.8583 23.1733 29.8692C23.162 29.8801 23.1556 29.895 23.1552 29.9107V30.5906C23.1552 30.6931 23.241 30.7646 23.3457 30.7646H24.8914C24.952 30.7646 25.001 30.8141 25.001 30.8747C25.001 30.8891 24.9981 30.9033 24.9926 30.9166C24.9871 30.9298 24.979 30.9419 24.9688 30.952C24.9587 30.9621 24.9466 30.9702 24.9333 30.9756C24.92 30.9811 24.9058 30.9838 24.8914 30.9838ZM27.1664 30.9838C27.152 30.9838 27.1377 30.981 27.1243 30.9756C27.111 30.9701 27.0989 30.962 27.0887 30.9518C27.0785 30.9416 27.0705 30.9295 27.065 30.9162C27.0595 30.9029 27.0567 30.8886 27.0568 30.8742V30.0363C27.0568 29.9249 26.9637 29.8519 26.8685 29.8519H26.1768C26.1273 29.8515 26.0797 29.8706 26.0444 29.9052C26.009 29.9397 25.9888 29.9869 25.988 30.0363V30.5827C25.988 30.7808 25.8295 30.9835 25.5994 30.9835C25.3686 30.9835 25.2108 30.7808 25.2108 30.5827V29.1672C25.2108 29.1383 25.2223 29.1105 25.2427 29.0901C25.2632 29.0696 25.2909 29.0581 25.3198 29.0581C25.3488 29.0581 25.3765 29.0696 25.397 29.0901C25.4174 29.1105 25.4289 29.1383 25.4289 29.1672V30.5827C25.4289 30.6624 25.4873 30.7641 25.5997 30.7641C25.7113 30.7641 25.7689 30.6626 25.7689 30.5827V30.0307C25.7689 29.8103 25.9533 29.634 26.177 29.634H26.8688C27.0918 29.634 27.2752 29.808 27.2752 30.0307V30.8739C27.2753 30.8883 27.2726 30.9025 27.2671 30.9158C27.2617 30.9292 27.2537 30.9413 27.2436 30.9515C27.2335 30.9617 27.2215 30.9698 27.2082 30.9753C27.195 30.9809 27.1807 30.9837 27.1664 30.9838ZM29.4406 30.9838H27.8926C27.6692 30.9838 27.485 30.8065 27.485 30.5929V30.0272C27.485 29.8105 27.6694 29.6342 27.8952 29.6342H29.1423C29.3688 29.6342 29.5504 29.8156 29.5504 30.0206C29.5504 30.2385 29.3706 30.4115 29.1423 30.4115H27.92C27.8909 30.4115 27.863 30.3999 27.8424 30.3793C27.8218 30.3587 27.8102 30.3308 27.8102 30.3016C27.8102 30.2725 27.8218 30.2446 27.8424 30.224C27.863 30.2034 27.8909 30.1918 27.92 30.1918H29.1405C29.2475 30.1918 29.3287 30.1248 29.3287 30.0203C29.3287 29.9386 29.2455 29.8519 29.1405 29.8519H27.8929C27.7858 29.8519 27.7037 29.9412 27.7037 30.0282V30.5827C27.7037 30.6832 27.7904 30.7641 27.8904 30.7641H29.4406C29.5015 30.7641 29.5507 30.8136 29.5507 30.8742C29.5507 30.8886 29.5479 30.9029 29.5424 30.9163C29.5368 30.9296 29.5287 30.9417 29.5185 30.9519C29.5082 30.9621 29.4961 30.9702 29.4827 30.9756C29.4693 30.9811 29.455 30.9839 29.4406 30.9838ZM32.2315 30.9838H31.0098C30.982 30.9819 30.9559 30.9695 30.9369 30.9491C30.9178 30.9287 30.9072 30.9018 30.9072 30.8739C30.9072 30.846 30.9178 30.8192 30.9369 30.7988C30.9559 30.7784 30.982 30.766 31.0098 30.7641H32.2315C32.334 30.7641 32.4208 30.6809 32.4208 30.5878V30.0363C32.4199 29.9868 32.3995 29.9397 32.3641 29.9051C32.3287 29.8706 32.281 29.8515 32.2315 29.8519H30.9814C30.9571 29.8514 30.9329 29.8557 30.9103 29.8646C30.8877 29.8735 30.867 29.8868 30.8495 29.9037C30.832 29.9206 30.818 29.9408 30.8084 29.9631C30.7987 29.9854 30.7936 30.0094 30.7932 30.0337V31.4467C30.7932 31.4757 30.7817 31.5034 30.7612 31.5239C30.7408 31.5443 30.713 31.5558 30.6841 31.5558C30.6697 31.5559 30.6554 31.5532 30.6421 31.5478C30.6287 31.5424 30.6166 31.5344 30.6063 31.5242C30.5961 31.5141 30.588 31.502 30.5824 31.4887C30.5769 31.4754 30.574 31.4611 30.574 31.4467V30.0266C30.574 29.81 30.7559 29.6337 30.9812 29.6337H32.2313C32.4578 29.6337 32.6389 29.81 32.6389 30.0335V30.5898C32.6395 30.8065 32.4555 30.9838 32.2315 30.9838ZM34.8041 30.9838C34.7897 30.9838 34.7755 30.9809 34.7622 30.9754C34.749 30.9699 34.7369 30.9618 34.7268 30.9516C34.7166 30.9415 34.7086 30.9294 34.7032 30.9161C34.6977 30.9028 34.6949 30.8886 34.695 30.8742V30.0363C34.695 29.9249 34.6019 29.8519 34.5068 29.8519H33.815C33.7656 29.8515 33.7181 29.8706 33.6828 29.9052C33.6475 29.9398 33.6274 29.9869 33.6268 30.0363V30.5827C33.6268 30.7808 33.4677 30.9835 33.2379 30.9835C33.008 30.9835 32.849 30.7808 32.849 30.5827V29.1672C32.8509 29.1394 32.8632 29.1134 32.8836 29.0944C32.9039 29.0754 32.9307 29.0648 32.9586 29.0648C32.9864 29.0648 33.0132 29.0754 33.0336 29.0944C33.0539 29.1134 33.0663 29.1394 33.0682 29.1672V30.5827C33.0682 30.6624 33.1258 30.7641 33.2381 30.7641C33.3495 30.7641 33.4081 30.6626 33.4081 30.5827V30.0307C33.4081 29.8103 33.5925 29.634 33.8153 29.634H34.507C34.7305 29.634 34.9142 29.808 34.9142 30.0307V30.8739C34.9142 30.8884 34.9114 30.9027 34.9059 30.9161C34.9003 30.9294 34.8922 30.9416 34.882 30.9518C34.8718 30.962 34.8596 30.9701 34.8462 30.9756C34.8329 30.981 34.8185 30.9838 34.8041 30.9838ZM37.1881 30.5906C37.1881 30.8067 37.0042 30.984 36.781 30.984H35.5309C35.3074 30.984 35.1232 30.8067 35.1232 30.5906V29.7428C35.1233 29.7139 35.1349 29.6863 35.1553 29.666C35.1758 29.6456 35.2034 29.6342 35.2323 29.6342C35.2467 29.6341 35.2609 29.6368 35.2742 29.6422C35.2875 29.6476 35.2997 29.6555 35.3099 29.6656C35.3201 29.6757 35.3283 29.6877 35.3338 29.701C35.3394 29.7142 35.3423 29.7284 35.3424 29.7428V30.583C35.3424 30.6834 35.4281 30.7643 35.5311 30.7643H36.7812C36.8837 30.7643 36.97 30.6837 36.97 30.583V29.7428C36.97 29.6824 37.0189 29.6342 37.0796 29.6342C37.1402 29.6342 37.1887 29.6822 37.1887 29.7428V30.5906H37.1881ZM39.3533 30.9838H37.8079C37.5813 30.9838 37.3977 30.8092 37.3977 30.5903V29.1674C37.3977 29.1383 37.4093 29.1104 37.4299 29.0898C37.4505 29.0692 37.4784 29.0576 37.5075 29.0576C37.5367 29.0576 37.5646 29.0692 37.5852 29.0898C37.6058 29.1104 37.6174 29.1383 37.6174 29.1674V29.5733C37.6174 29.603 37.6445 29.6342 37.6772 29.6342H39.3533C39.3822 29.6342 39.41 29.6457 39.4304 29.6662C39.4509 29.6866 39.4624 29.7144 39.4624 29.7433C39.4624 29.7722 39.4509 29.8 39.4304 29.8204C39.41 29.8409 39.3822 29.8524 39.3533 29.8524H37.6772C37.6616 29.8523 37.6466 29.8584 37.6354 29.8693C37.6242 29.8802 37.6177 29.8951 37.6174 29.9107V30.5906C37.6174 30.6931 37.7031 30.7646 37.8081 30.7646H39.3535C39.4139 30.7646 39.4636 30.8141 39.4636 30.8747C39.4634 30.9038 39.4517 30.9316 39.431 30.952C39.4103 30.9725 39.3824 30.9839 39.3533 30.9838ZM41.7376 30.5906C41.7376 30.8067 41.5532 30.984 41.3299 30.984H40.0798C39.8563 30.984 39.6721 30.8067 39.6721 30.5906V29.7428C39.6721 29.6824 39.7211 29.6342 39.7822 29.6342C39.8434 29.6342 39.8918 29.6822 39.8918 29.7428V30.583C39.8918 30.6834 39.9776 30.7643 40.0801 30.7643H41.3302C41.4327 30.7643 41.5194 30.6837 41.5194 30.583V29.7428C41.5194 29.6824 41.5674 29.6342 41.628 29.6342C41.6424 29.6341 41.6566 29.6368 41.6699 29.6422C41.6833 29.6476 41.6954 29.6555 41.7056 29.6656C41.7158 29.6757 41.724 29.6877 41.7296 29.701C41.7351 29.7142 41.738 29.7284 41.7381 29.7428V30.5906H41.7376ZM43.9022 29.8521H42.35C42.3258 29.8515 42.3017 29.8558 42.2793 29.8647C42.2568 29.8735 42.2363 29.8869 42.2191 29.9039C42.2019 29.9208 42.1883 29.9411 42.1791 29.9635C42.1699 29.9858 42.1653 30.0098 42.1655 30.034V30.8742C42.1655 30.9031 42.1541 30.9309 42.1336 30.9513C42.1131 30.9718 42.0854 30.9833 42.0565 30.9833C42.0275 30.9833 41.9998 30.9718 41.9793 30.9513C41.9589 30.9309 41.9474 30.9031 41.9474 30.8742V30.0269C41.9474 29.808 42.1237 29.634 42.3497 29.634H43.902C43.9623 29.634 44.0116 29.6819 44.0116 29.7425C44.0116 29.8032 43.9626 29.8521 43.9022 29.8521ZM46.1775 30.9838H44.6288C44.4053 30.9838 44.2216 30.8065 44.2216 30.5929V30.0272C44.2216 29.8105 44.4055 29.6342 44.6313 29.6342H45.8794C46.1049 29.6342 46.2865 29.8156 46.2865 30.0206C46.2865 30.2385 46.1072 30.4115 45.8794 30.4115H44.6572C44.628 30.4115 44.6001 30.3999 44.5795 30.3793C44.5589 30.3587 44.5473 30.3308 44.5473 30.3016C44.5473 30.2725 44.5589 30.2446 44.5795 30.224C44.6001 30.2034 44.628 30.1918 44.6572 30.1918H45.8771C45.9842 30.1918 46.0658 30.1248 46.0658 30.0203C46.0658 29.9386 45.9821 29.8519 45.8771 29.8519H44.629C44.5225 29.8519 44.4408 29.9412 44.4408 30.0282V30.5827C44.4408 30.6832 44.527 30.7641 44.6275 30.7641H46.1777C46.2068 30.7641 46.2348 30.7757 46.2553 30.7963C46.2759 30.817 46.2875 30.8449 46.2874 30.8741C46.2874 30.9032 46.2758 30.9311 46.2552 30.9517C46.2345 30.9723 46.2066 30.9838 46.1775 30.9838ZM47.5993 30.9838H47.4245C47.3954 30.9838 47.3675 30.9722 47.3469 30.9516C47.3263 30.931 47.3147 30.9031 47.3147 30.8739C47.3147 30.8448 47.3263 30.8169 47.3469 30.7963C47.3675 30.7757 47.3954 30.7641 47.4245 30.7641H47.5993C47.7013 30.7641 47.7886 30.6834 47.7886 30.5827V30.0337C47.7886 29.9335 47.7013 29.8519 47.5993 29.8519H47.42C47.4057 29.8521 47.3915 29.8495 47.3783 29.8442C47.3651 29.8389 47.353 29.831 47.3428 29.821C47.3327 29.811 47.3246 29.799 47.3191 29.7859C47.3137 29.7727 47.3108 29.7586 47.3109 29.7443C47.3109 29.6844 47.3593 29.6337 47.42 29.6337H47.5993C47.8228 29.6337 48.0065 29.81 48.0065 30.0266V30.5901C48.0067 30.8065 47.8228 30.9838 47.5993 30.9838ZM10.8143 28.1469H5.91125C4.80826 28.1469 3.89071 27.3067 3.89071 26.2359C3.89071 25.1657 4.79684 24.325 5.91125 24.325H9.4711C9.87521 24.325 10.1373 24.0411 10.1373 23.7469C10.1373 23.3968 9.8643 23.1456 9.4711 23.1456H3.83616C3.46529 23.1456 3.17001 23.4295 3.17001 23.7682V27.4807C3.17001 27.8524 2.86433 28.1472 2.4932 28.1472C2.12207 28.1472 1.81639 27.8524 1.81639 27.4807V23.7352C1.81639 22.6756 2.73318 21.8136 3.83616 21.8136H9.4711C10.6068 21.8136 11.4911 22.6649 11.4911 23.7466C11.4911 24.74 10.6286 25.6571 9.4711 25.6571H5.91125C5.51779 25.6571 5.24483 25.9087 5.24483 26.2357C5.24483 26.5741 5.55077 26.8148 5.91125 26.8148H10.8143C11.1855 26.8148 11.4911 27.0987 11.4911 27.4698C11.4911 27.841 11.1855 28.1469 10.8143 28.1469ZM21.483 28.1469H14.4942C13.3912 28.1469 12.4741 27.2844 12.4741 26.2359V23.7352C12.4741 22.6756 13.3914 21.8136 14.5053 21.8136H20.1398C21.2537 21.8136 22.16 22.7197 22.16 23.7352C22.16 24.8164 21.2646 25.6573 20.1398 25.6573H15.2258C14.8546 25.6573 14.5487 25.3625 14.5487 24.9912C14.5487 24.6198 14.8546 24.3252 15.2258 24.3252H20.1291C20.533 24.3252 20.7953 24.0855 20.7953 23.7354C20.7953 23.4846 20.5109 23.1459 20.1291 23.1459H14.4942C14.1121 23.1459 13.8283 23.4518 13.8283 23.7471V26.1928C13.8283 26.5317 14.123 26.8156 14.4835 26.8156H21.483C21.8544 26.8156 22.1603 27.1099 22.1603 27.481C22.1603 27.8521 21.8544 28.1469 21.483 28.1469ZM34.1174 28.1469C33.7457 28.1469 33.4292 27.8521 33.4292 27.4805V23.7679C33.4292 23.4295 33.1344 23.1454 32.7632 23.1454H31.6707C31.2891 23.1454 30.9824 23.4293 30.9824 23.7679V25.0452C30.9824 26.1056 30.0877 26.9676 28.9738 26.9676C27.8381 26.9676 26.9642 26.116 26.9642 25.0452V23.7679C26.9642 23.4295 26.6585 23.1454 26.2765 23.1454H25.1737C24.7909 23.1454 24.5071 23.4293 24.5071 23.7679V27.4805C24.5071 27.8521 24.191 28.1469 23.8191 28.1469C23.4482 28.1469 23.1428 27.8521 23.1428 27.4805V23.7352C23.1428 22.6756 24.0484 21.8136 25.1737 21.8136H26.2874C27.4018 21.8136 28.3183 22.6756 28.3183 23.7352V25.0454C28.3183 25.3948 28.6022 25.6677 28.9738 25.6677C29.3455 25.6677 29.6293 25.3948 29.6293 25.0454V23.7352C29.6293 22.6756 30.5355 21.8136 31.6603 21.8136H32.7632C33.8771 21.8136 34.7942 22.6756 34.7942 23.7352V27.4805C34.7942 27.8521 34.4885 28.1469 34.1174 28.1469ZM36.4535 28.1469C36.0611 28.1469 35.7772 27.8521 35.7772 27.4805V22.4795C35.7772 22.1084 36.0611 21.8136 36.4535 21.8136C36.8475 21.8136 37.1308 22.1084 37.1308 22.4795V27.4805C37.1308 27.8521 36.8475 28.1469 36.4535 28.1469ZM47.1227 28.1469C46.751 28.1469 46.4453 27.8521 46.4453 27.4805V26.2359C46.4453 25.8975 46.1724 25.6573 45.7794 25.6573H40.1336C39.7183 25.6573 39.4672 25.8752 39.4672 26.2474V27.4805C39.4672 27.8521 39.1615 28.1469 38.7909 28.1469C38.4192 28.1469 38.1131 27.8521 38.1131 27.4805V26.2905C38.1131 25.7989 38.2993 25.3625 38.6047 25.0345C38.3104 24.7065 38.1131 24.2699 38.1131 23.7897V22.4795C38.1131 22.1084 38.4192 21.8136 38.7909 21.8136C39.1615 21.8136 39.4672 22.1084 39.4672 22.4795V23.7352C39.4672 24.0853 39.7401 24.325 40.1336 24.325H45.7794C46.1833 24.325 46.4453 24.0959 46.4453 23.7238V22.4795C46.4453 22.1084 46.751 21.8136 47.1227 21.8136C47.4938 21.8136 47.8 22.1084 47.8 22.4795V23.7788C47.8025 24.2448 47.6266 24.6941 47.3083 25.0345C47.6026 25.3623 47.8 25.7989 47.8 26.2796V27.4805C47.8 27.8521 47.4938 28.1469 47.1227 28.1469ZM17.9952 20.116C17.9952 20.3892 17.7656 20.6183 17.4929 20.6183C17.2202 20.6183 16.9906 20.3889 16.9906 20.116C16.9906 19.8433 17.2202 19.614 17.4929 19.614C17.7656 19.614 17.9952 19.8433 17.9952 20.116ZM18.5193 20.116C18.5194 19.9812 18.4929 19.8477 18.4413 19.7231C18.3898 19.5985 18.3142 19.4853 18.2189 19.39C18.1235 19.2947 18.0104 19.2191 17.8858 19.1675C17.7612 19.116 17.6277 19.0895 17.4929 19.0896C17.3581 19.0895 17.2245 19.1159 17.0999 19.1675C16.9753 19.219 16.8621 19.2946 16.7667 19.3899C16.6714 19.4852 16.5958 19.5984 16.5442 19.723C16.4926 19.8476 16.4662 19.9811 16.4663 20.116C16.4661 20.2508 16.4926 20.3844 16.5441 20.509C16.5957 20.6336 16.6713 20.7468 16.7667 20.8421C16.862 20.9375 16.9753 21.0131 17.0999 21.0646C17.2245 21.1161 17.358 21.1425 17.4929 21.1424C17.6277 21.1425 17.7612 21.116 17.8858 21.0645C18.0104 21.013 18.1236 20.9374 18.2189 20.842C18.3143 20.7467 18.3899 20.6335 18.4414 20.5089C18.4929 20.3843 18.5194 20.2508 18.5193 20.116ZM36.884 20.1213C36.884 20.3943 36.6552 20.6236 36.382 20.6236C36.2492 20.6221 36.1223 20.5688 36.0284 20.4749C35.9345 20.381 35.8811 20.2541 35.8797 20.1213C35.8797 19.8486 36.1085 19.6193 36.382 19.6193C36.5147 19.6207 36.6416 19.674 36.7354 19.7679C36.8293 19.8617 36.8826 19.9886 36.884 20.1213ZM37.4086 20.1213C37.4087 19.9864 37.3822 19.8529 37.3306 19.7283C37.2791 19.6037 37.2035 19.4904 37.1081 19.3951C37.0128 19.2997 36.8996 19.224 36.775 19.1725C36.6504 19.1209 36.5168 19.0944 36.382 19.0944C36.247 19.0943 36.1134 19.1207 35.9887 19.1722C35.8641 19.2238 35.7508 19.2994 35.6554 19.3948C35.56 19.4902 35.4843 19.6035 35.4327 19.7281C35.3812 19.8528 35.3547 19.9864 35.3548 20.1213C35.3547 20.2562 35.3812 20.3898 35.4328 20.5144C35.4844 20.6391 35.5601 20.7523 35.6555 20.8476C35.7509 20.943 35.8641 21.0186 35.9888 21.0701C36.1135 21.1217 36.2471 21.1481 36.382 21.1479C36.5168 21.148 36.6503 21.1216 36.775 21.07C36.8996 21.0184 37.0128 20.9428 37.1081 20.8475C37.2035 20.7521 37.2791 20.6389 37.3306 20.5143C37.3822 20.3897 37.4087 20.2562 37.4086 20.1213Z" fill="white"/>
<path fill-rule="evenodd" clip-rule="evenodd" d="M39.7798 19.8671L39.484 20.3095C39.4706 20.3491 39.4465 20.3684 39.4112 20.3684H39.0068C38.9716 20.3684 38.9607 20.3486 38.9746 20.309L39.1793 20.0449H38.7671L38.7816 21.0952C38.7676 21.1347 38.7435 21.1545 38.7088 21.1545H38.2747C38.24 21.1545 38.228 21.1347 38.24 21.0952L38.227 20.0449H37.8097C37.7811 20.0449 37.7666 20.0315 37.7666 20.0044C37.7667 19.998 37.7682 19.9917 37.7712 19.9861L37.8097 19.8664C37.8232 19.8273 37.8498 19.808 37.8894 19.808H38.2055V19.5825C38.2174 19.5432 38.2412 19.5231 38.2783 19.5231H38.7138C38.7491 19.5231 38.76 19.5432 38.7455 19.5825V19.808H39.7458C39.7823 19.8078 39.7942 19.8278 39.7798 19.8671ZM41.7879 20.3529L41.7498 20.4714C41.7359 20.5104 41.7093 20.5305 41.6702 20.5305H40.7922C40.8031 20.6048 40.8285 20.6695 40.8696 20.7243C40.9678 20.8532 41.1337 20.9176 41.367 20.9176H41.6154C41.6446 20.9176 41.659 20.9305 41.659 20.9562C41.6586 20.9632 41.6571 20.9701 41.6545 20.9767L41.6154 21.0952C41.6025 21.1347 41.5753 21.1545 41.5362 21.1545H41.2993C40.8901 21.1545 40.5982 21.0807 40.4234 20.9336C40.3011 20.8306 40.2415 20.6964 40.2466 20.5305H39.8303C39.8011 20.5305 39.7866 20.5168 39.7866 20.4896C39.7865 20.4834 39.7873 20.4771 39.7892 20.4711L39.8303 20.3527C39.8437 20.3131 39.8693 20.2933 39.9092 20.2933H40.296L40.417 19.9341H40.1347C40.108 19.9341 40.0941 19.9212 40.0941 19.895C40.0941 19.8892 40.0946 19.8821 40.0966 19.8747L40.1377 19.7563C40.1496 19.7167 40.1763 19.6969 40.2169 19.6969H41.4837C41.5129 19.6969 41.5274 19.7106 41.5274 19.7377C41.5271 19.7442 41.5254 19.7506 41.5223 19.7563L41.4837 19.8747C41.4698 19.9143 41.4437 19.9341 41.4046 19.9341H40.9586L40.8376 20.2933H41.7503C41.779 20.2933 41.7935 20.3065 41.7935 20.3324C41.7928 20.3395 41.7909 20.3464 41.7879 20.3529ZM43.9612 20.397L43.7247 21.0957C43.7123 21.1347 43.6877 21.1543 43.6519 21.1543H43.3407C43.3049 21.1543 43.2927 21.135 43.3069 21.0959L43.5433 20.3973C43.5578 20.3577 43.5814 20.3377 43.6161 20.3377H43.9269C43.9629 20.3379 43.9743 20.3577 43.9612 20.397ZM44.1359 19.9894L44.0974 20.1079C44.0834 20.1474 44.0573 20.1672 44.0182 20.1672H43.3648L43.0512 21.0954C43.0378 21.135 43.0132 21.1548 42.9784 21.1548H42.5444C42.5073 21.1548 42.4967 21.135 42.5096 21.0954L42.8232 20.1672H42.177C42.1489 20.1672 42.1339 20.1545 42.1339 20.1287C42.1339 20.1216 42.1359 20.1142 42.1385 20.1079L42.177 19.9894C42.191 19.9498 42.2176 19.9303 42.2567 19.9303H42.9033L42.9845 19.689C42.9984 19.6497 43.0225 19.6302 43.0578 19.6302H43.4924C43.5286 19.6302 43.54 19.6497 43.5266 19.689L43.4444 19.9303H44.0974C44.126 19.9303 44.141 19.944 44.141 19.9711C44.1408 19.9775 44.139 19.9838 44.1359 19.9894L42.5347 20.3978L42.2945 21.0949C42.2816 21.135 42.2577 21.1545 42.2217 21.1545H41.9109C41.8752 21.1545 41.8632 21.1347 41.8772 21.0959L42.1169 20.3986C42.1314 20.358 42.155 20.3379 42.1897 20.3379H42.5005C42.5368 20.3379 42.5482 20.358 42.5347 20.3978L44.1359 19.9894ZM46.0644 19.9724L46.0312 20.0731C46.0202 20.1071 45.9974 20.1238 45.9642 20.1238H45.5613L45.2818 20.9534H45.6851C45.7184 20.9534 45.7293 20.9701 45.7158 21.0031L45.6826 21.1048C45.6717 21.138 45.6499 21.1545 45.6161 21.1545H44.2059C44.1707 21.1545 44.1593 21.138 44.1712 21.1048L44.2059 21.0031C44.2097 20.9882 44.2186 20.975 44.231 20.966C44.2434 20.9569 44.2586 20.9524 44.2739 20.9534H44.7224L45.0025 20.1238H44.5545C44.5187 20.1238 44.5078 20.1073 44.5197 20.0731L44.5545 19.9724C44.5639 19.9394 44.5877 19.9224 44.6225 19.9224H46.0327C46.0662 19.9224 46.0766 19.9392 46.0644 19.9724ZM48.2087 19.7486L48.1407 19.9351C48.0591 20.1535 47.935 20.3316 47.7696 20.4699C47.8381 20.5457 47.8721 20.6406 47.8721 20.754C47.8721 20.8055 47.8647 20.8544 47.8518 20.8996L47.7864 21.0954C47.7719 21.1345 47.7473 21.154 47.712 21.154H47.4152C47.3795 21.154 47.3675 21.1342 47.381 21.0944L47.4449 20.9176L47.4429 20.9171C47.4466 20.8954 47.445 20.8732 47.4383 20.8522C47.4316 20.8313 47.4199 20.8123 47.4043 20.7968C47.1159 21.035 46.7404 21.154 46.2777 21.154H46.1088C46.0796 21.154 46.0662 21.1406 46.0662 21.1134C46.0662 21.1071 46.0672 21.1008 46.0702 21.0947L46.1088 20.9762C46.1227 20.9366 46.1489 20.9171 46.1889 20.9171H46.3683C46.661 20.9171 46.9553 20.772 47.2508 20.4805C47.2103 20.4239 47.1136 20.396 46.9619 20.396H46.8013C46.7732 20.396 46.7592 20.3821 46.7592 20.3552C46.7592 20.3496 46.7607 20.3433 46.7617 20.3369L46.8028 20.22C46.8168 20.1791 46.8429 20.1591 46.882 20.1591H47.0301C47.1605 20.1591 47.3021 20.1822 47.4533 20.2284C47.5063 20.1692 47.5525 20.085 47.59 19.9759L47.6669 19.7484C47.6813 19.7088 47.7049 19.689 47.7397 19.689H48.1747C48.2006 19.689 48.2133 19.7017 48.2133 19.7278C48.2133 19.735 48.2117 19.7421 48.2087 19.7486ZM48.9276 19.5422C48.9132 19.5825 48.8886 19.6023 48.8513 19.6023H48.7224C48.6877 19.6023 48.6763 19.5822 48.6902 19.5411L48.7173 19.4493C48.7313 19.4095 48.7554 19.3894 48.7917 19.3894H48.8546C48.9139 19.3894 48.9446 19.4158 48.9446 19.4688C48.9447 19.4783 48.9441 19.4877 48.9426 19.497L48.9276 19.5422ZM49.2318 19.4001C49.2318 19.306 49.1778 19.2585 49.0717 19.2585H48.5712C48.535 19.2585 48.5109 19.2791 48.4989 19.3187L48.3762 19.6804C48.3622 19.7207 48.3741 19.7403 48.4099 19.7403H49.0743C49.1095 19.7403 49.1336 19.7205 49.1471 19.6804L49.2245 19.4524C49.2294 19.4354 49.2319 19.4178 49.2318 19.4001Z" fill="#B4282E"/>
</svg>
