<svg width="50" height="50" viewBox="0 0 50 50" fill="none" xmlns="http://www.w3.org/2000/svg">
<path d="M44.6554 34.553C38.742 42.432 26.1099 39.7725 18.011 40.155C18.011 40.155 16.5773 40.2348 15.1333 40.4725C15.1333 40.4725 15.6793 40.2395 16.3757 39.9995C22.0639 38.0324 24.752 37.6371 28.2083 35.8618C34.7023 32.5352 41.1654 25.2891 42.4805 17.7618C40.0086 25.0014 32.4908 31.2323 25.6455 33.7626C20.9602 35.4915 12.4872 37.1741 12.486 37.1748C12.49 37.1808 12.1483 36.9974 12.1436 36.9935C6.38128 34.19 6.21501 21.7098 16.6804 17.6868C21.2689 15.9217 25.6579 16.8912 30.6182 15.7105C35.9087 14.4527 42.036 10.4871 44.5265 5.3026C47.3186 13.584 50.6726 26.5403 44.6554 34.553ZM44.7583 2.7364C44.0543 4.40893 43.1951 5.91608 42.2047 7.26414C37.8451 2.78994 31.7603 0.00227737 25.0345 0.00227737C11.8043 0.00227737 1.04199 10.7658 1.04199 23.9935C1.04199 30.928 4.00191 37.182 8.72096 41.5657L9.24636 42.0312C8.36898 41.3157 8.23406 40.0272 8.94517 39.1491C9.66064 38.2705 10.9503 38.1344 11.8281 38.8459C12.7083 39.559 12.8424 40.8506 12.1297 41.7304C11.4197 42.6106 10.1277 42.7435 9.24874 42.0332L9.60628 42.3498C13.7805 45.8645 19.1614 47.9875 25.0345 47.9875C37.6805 47.9875 48.0646 38.1463 48.9535 25.7249C49.6118 19.6431 47.8154 11.9205 44.7583 2.7364Z" fill="#5FB832"/>
</svg>
