<svg width="193" height="48" viewBox="0 0 193 48" fill="none" xmlns="http://www.w3.org/2000/svg">
<g clip-path="url(#clip0_18494_16494)">
<path d="M0 29.8506H8.32128C8.62388 31.7667 9.48122 32.8256 12.0533 32.8256C14.2723 32.8256 15.2809 31.9684 15.2809 30.6574C15.2809 29.3464 14.0201 28.7917 10.389 28.3043C3.32851 27.3799 0.353024 25.3125 0.353024 19.8331C0.353024 13.984 5.54752 11.1603 11.6498 11.1603C18.1555 11.1434 22.6944 13.3621 23.2996 19.665H15.1296C14.7934 17.9002 13.8184 17.043 11.7675 17.043C9.80062 17.043 8.79198 17.9002 8.79198 19.1104C8.79198 20.3206 10.0024 20.8752 13.23 21.2786C20.5258 22.1862 24.0561 24.1023 24.0561 29.7498C24.0561 36.0023 19.4163 38.8261 12.1037 38.8261C4.58931 38.8261 0.201728 35.6998 0 29.8506Z" fill="#333333"/>
<path d="M27.5352 4.70621C27.5352 2.01695 29.6533 0 32.4775 0C35.3017 0 37.4703 2.01695 37.4703 4.70621C37.4703 7.39548 35.3017 9.32838 32.4775 9.32838C29.6533 9.32838 27.5352 7.36186 27.5352 4.70621ZM27.989 11.8664H37.0164V38.2212H27.989V11.8664Z" fill="#333333"/>
<path d="M41.1523 38.2209H50.1292C50.5327 40.137 51.6926 41.6497 54.9707 41.6497C58.9548 41.6497 60.5687 39.3806 60.5687 36.1031V32.0692C59.7717 33.5391 58.5911 34.7656 57.1525 35.618C55.7138 36.4704 54.071 36.9168 52.3987 36.9099C46.246 36.9099 41.2028 32.3717 41.2028 24.2535V23.8669C41.2028 16.1017 46.1955 11.1602 52.3987 11.1602C56.5845 11.1602 59.0557 12.925 60.5687 15.5974V11.8493H69.596V36.0022C69.596 43.8683 64.4015 47.9997 54.9707 47.9997C45.9938 47.9997 41.8584 44.2179 41.1523 38.2209ZM60.8208 24.2031V23.8669C60.8208 20.2364 58.9548 17.9169 55.6263 17.9169C52.2978 17.9169 50.4318 20.27 50.4318 23.9005V24.3039C50.4318 27.9344 52.3483 30.2539 55.5759 30.2539C58.8036 30.2539 60.8208 27.9344 60.8208 24.2031Z" fill="#333333"/>
<path d="M74.9414 11.8489H83.9687V15.8828C84.7848 14.4145 85.9865 13.1969 87.4441 12.3615C88.9018 11.5262 90.5599 11.1049 92.2396 11.143C95.7194 11.143 98.1401 12.6557 99.4009 15.5299C100.388 14.144 101.698 13.02 103.218 12.2555C104.738 11.491 106.421 11.1091 108.122 11.143C113.115 11.143 116.746 14.3701 116.746 20.9756V38.2205H107.719V22.4883C107.719 19.7991 106.408 18.5049 104.357 18.5049C101.936 18.5049 100.322 20.068 100.322 22.9421V38.2205H91.3822V22.4883C91.3822 19.7991 90.071 18.5049 88.0033 18.5049C85.5826 18.5049 83.9687 20.068 83.9687 22.9421V38.2205H74.9414V11.8489Z" fill="#333333"/>
<path d="M120.383 30.9274C120.383 24.7253 125.628 22.305 134.403 22.305H136.925V21.6831C136.925 19.1619 136.319 17.4979 133.445 17.4979C130.974 17.4979 130.083 18.9602 129.864 20.6242H121.391C121.795 14.2708 126.788 11.1445 133.999 11.1445C141.211 11.1445 145.918 14.1195 145.918 21.1284V38.2221H137.143V35.1462C135.882 37.0623 133.562 38.844 129.326 38.844C124.569 38.8271 120.383 36.5077 120.383 30.9274ZM136.925 29.0113V27.3978H134.554C130.923 27.3978 129.309 28.1037 129.309 30.2719C129.309 31.7846 130.318 32.7427 132.436 32.7427C135.008 32.7259 136.925 31.2636 136.925 28.9945V29.0113Z" fill="#333333"/>
<path d="M166.781 12.3536L159.922 16.5891V7.96669L168.189 2.16797H177.116V38.2209H166.781V12.3536Z" fill="#333333"/>
<path d="M182.563 33.6836C182.556 33.0087 182.685 32.3392 182.941 31.7149C183.198 31.0906 183.578 30.5241 184.057 30.0492C184.537 29.5742 185.107 29.2004 185.734 28.9499C186.361 28.6994 187.032 28.5773 187.707 28.5909C190.733 28.5909 192.999 30.8599 192.999 33.6836C192.999 36.5074 190.729 38.7731 187.707 38.7731C187.032 38.7866 186.362 38.6646 185.735 38.4143C185.108 38.164 184.538 37.7905 184.058 37.3159C183.579 36.8413 183.199 36.2753 182.942 35.6514C182.685 35.0275 182.556 34.3583 182.563 33.6836Z" fill="#333333"/>
</g>
<defs>
<clipPath id="clip0_18494_16494">
<rect width="193" height="48" fill="white"/>
</clipPath>
</defs>
</svg>
