<svg width="26" height="26" viewBox="0 0 26 26" fill="none" xmlns="http://www.w3.org/2000/svg">
<path d="M17.9177 17.3182C16.9504 18.0921 15.5961 18.6725 14.2418 18.6725C11.1463 18.6725 9.01808 16.3509 9.01808 13.2553C9.01808 10.1598 11.1463 8.03164 14.2418 8.03164C15.5961 8.03164 16.9504 8.41858 17.9177 9.38593L18.4982 9.96634L21.5937 7.06428L20.8198 6.48387C19.0786 4.9361 16.7569 3.96875 14.2418 3.96875C8.82461 3.96875 4.76172 8.03164 4.76172 13.4488C4.76172 18.866 8.82461 22.9289 14.2418 22.9289C16.7569 22.9289 19.0786 21.9615 20.8198 20.4138L21.5937 19.8334L18.4982 16.7378L17.9177 17.3182Z" fill="#E3E3E3"/>
<path d="M14.0487 16.5446C15.7583 16.5446 17.1442 15.1587 17.1442 13.4491C17.1442 11.7394 15.7583 10.3535 14.0487 10.3535C12.339 10.3535 10.9531 11.7394 10.9531 13.4491C10.9531 15.1587 12.339 16.5446 14.0487 16.5446Z" fill="#E3E3E3"/>
</svg>
