<svg width="18" height="18" viewBox="0 0 18 18" fill="none" xmlns="http://www.w3.org/2000/svg">
<path d="M17.8872 9.00022C17.8872 4.09139 13.9071 0.111328 8.99826 0.111328C4.08944 0.111328 0.109375 4.09139 0.109375 9.00022C0.109375 13.4365 3.35943 17.1141 7.60949 17.7816V11.5703H5.35196V9.00022H7.60949V7.04144C7.60949 4.8139 8.93701 3.58263 10.967 3.58263C11.9396 3.58263 12.9571 3.75639 12.9571 3.75639V5.94392H11.8358C10.732 5.94392 10.387 6.62893 10.387 7.33269V9.00022H12.8521L12.4583 11.5703H10.387V17.7816C14.6371 17.1153 17.8872 13.4378 17.8872 9.00022Z" fill="#E3E3E3"/>
<path d="M12.4579 11.5706L12.8517 9.00059H10.3866V7.33307C10.3866 6.63056 10.7304 5.94429 11.8354 5.94429H12.9567V3.75676C12.9567 3.75676 11.9392 3.58301 10.9667 3.58301C8.93662 3.58301 7.6091 4.81303 7.6091 7.04181V9.00059H5.35156V11.5706H7.6091V17.782C8.0616 17.8532 8.52536 17.8895 8.99787 17.8895C9.47038 17.8895 9.93413 17.852 10.3866 17.782V11.5706H12.4579Z" fill="#333333"/>
</svg>
