<svg width="26" height="26" viewBox="0 0 26 26" fill="none" xmlns="http://www.w3.org/2000/svg">
<path d="M19.3007 4.60449H6.70814C5.54902 4.60449 4.60938 5.54414 4.60938 6.70326V19.2958C4.60938 20.455 5.54902 21.3946 6.70814 21.3946H19.3007C20.4598 21.3946 21.3995 20.455 21.3995 19.2958V6.70326C21.3995 5.54414 20.4598 4.60449 19.3007 4.60449Z" stroke="#E3E3E3" stroke-width="1.57407" stroke-linecap="round" stroke-linejoin="round"/>
<path d="M8.79688 11.9512V17.1981" stroke="#E3E3E3" stroke-width="1.57407" stroke-linecap="round" stroke-linejoin="round"/>
<path d="M8.79688 8.80273V8.81267" stroke="#E3E3E3" stroke-width="1.57407" stroke-linecap="round" stroke-linejoin="round"/>
<path d="M13 17.1981V11.9512" stroke="#E3E3E3" stroke-width="1.57407" stroke-linecap="round" stroke-linejoin="round"/>
<path d="M17.1975 17.1981V14.0499C17.1975 13.4933 16.9764 12.9595 16.5828 12.5659C16.1892 12.1723 15.6554 11.9512 15.0988 11.9512C14.5421 11.9512 14.0083 12.1723 13.6147 12.5659C13.2211 12.9595 13 13.4933 13 14.0499" stroke="#E3E3E3" stroke-width="1.57407" stroke-linecap="round" stroke-linejoin="round"/>
</svg>
