<svg width="118" height="88" viewBox="0 0 118 88" fill="none" xmlns="http://www.w3.org/2000/svg">
<g clip-path="url(#clip0_18234_969)">
<mask id="mask0_18234_969" style="mask-type:luminance" maskUnits="userSpaceOnUse" x="0" y="0" width="118" height="88">
<path d="M117.449 0H0.551758V88H117.449V0Z" fill="white"/>
</mask>
<g mask="url(#mask0_18234_969)">
<path d="M54.4069 29.543V33.464C54.4069 34.5486 53.5145 35.3987 52.3682 35.3987C51.222 35.3987 50.3295 34.5357 50.3295 33.464V29.543C50.3295 28.4584 51.2241 27.6105 52.3682 27.6105C53.5124 27.6105 54.4069 28.4584 54.4069 29.543ZM48.2139 29.543V33.464C48.2139 35.7387 50.0778 37.5872 52.3682 37.5872C54.6587 37.5872 56.5268 35.7387 56.5268 33.464V29.543C56.5268 27.2683 54.6607 25.4198 52.3682 25.4198C50.0757 25.4198 48.2139 27.2683 48.2139 29.543Z" fill="#333333"/>
<path d="M77.8707 25.7468C77.4567 25.3208 76.7869 25.3208 76.3729 25.7468L72.0125 30.2703V26.5237C72.0125 25.9191 71.5382 25.4284 70.9516 25.4284C70.3649 25.4284 69.8906 25.9191 69.8906 26.5237V36.5026C69.8906 37.1073 70.367 37.598 70.9516 37.598C71.5361 37.598 72.0125 37.1073 72.0125 36.5026V33.3736L72.308 33.0486L76.3126 37.1719C76.7266 37.6001 77.4525 37.7056 77.8665 37.2773C78.2826 36.8512 78.2826 36.1561 77.8686 35.7279L73.8079 31.5078L77.8707 27.2963C78.2826 26.868 78.2826 26.1752 77.8707 25.7468Z" fill="#333333"/>
<path d="M61.7417 28.1722C62.1078 27.8214 62.6217 27.6083 63.1896 27.6083C64.0134 27.6083 64.7519 28.0797 65.0619 28.7812C65.0889 28.8479 65.1306 28.9233 65.1576 28.9899C65.3968 29.5581 65.944 29.812 66.4453 29.67C67.0049 29.5086 67.3668 28.9189 67.138 28.2346C66.593 26.6034 65.1181 25.4994 63.3685 25.4263C63.3581 25.4263 63.3519 25.4241 63.3415 25.4241C63.2936 25.4198 63.2416 25.4198 63.1875 25.4198C63.0461 25.4198 62.9067 25.4263 62.7694 25.4413C62.7257 25.4456 62.682 25.4542 62.6383 25.4607C62.5447 25.4736 62.4532 25.4844 62.3617 25.5015C62.3117 25.5123 62.2638 25.5274 62.214 25.5381C62.1307 25.5575 62.0475 25.5769 61.9685 25.6005C61.9185 25.6156 61.8707 25.6349 61.8186 25.6543C61.7417 25.6802 61.6648 25.706 61.5898 25.7382C61.54 25.7598 61.4921 25.7834 61.4442 25.8071C61.3714 25.8394 61.3006 25.8717 61.23 25.9104C61.1821 25.9341 61.1384 25.9642 61.0927 25.99C61.024 26.0309 60.9554 26.0697 60.8908 26.1127C60.8472 26.1428 60.8056 26.1752 60.7619 26.2053C60.6974 26.2504 60.635 26.2956 60.5726 26.3451C60.531 26.3795 60.4914 26.4162 60.4519 26.4506C60.3937 26.5022 60.3354 26.5517 60.2792 26.6077C60.2418 26.6443 60.2064 26.6851 60.1689 26.7238C60.117 26.7798 60.0629 26.8358 60.013 26.8939C59.9776 26.9348 59.9443 26.98 59.911 27.023C59.8631 27.0833 59.8174 27.1435 59.7737 27.206C59.7425 27.2512 59.7134 27.3007 59.6822 27.348C59.6427 27.4103 59.601 27.4749 59.5636 27.5395C59.5366 27.5912 59.5096 27.6428 59.4825 27.6945C59.4491 27.759 59.4179 27.8236 59.3868 27.8903C59.3618 27.9463 59.339 28.0043 59.3181 28.0603C59.2932 28.127 59.2661 28.1916 59.2454 28.2582C59.2245 28.3207 59.2079 28.381 59.1891 28.4454C59.1705 28.51 59.1538 28.5768 59.1372 28.6434C59.1226 28.7102 59.1101 28.7791 59.0976 28.8479C59.0872 28.9125 59.0768 28.9749 59.0685 29.0416C59.0602 29.1148 59.0539 29.1901 59.0498 29.2633C59.0477 29.2998 59.0414 29.3364 59.0393 29.3752C59.0353 29.429 59.0352 29.487 59.0352 29.5452V33.464C59.0352 33.5221 59.0353 33.5802 59.0393 33.634C59.0393 33.6728 59.0477 33.7093 59.0498 33.7459C59.0539 33.8213 59.0602 33.8944 59.0685 33.9676C59.0768 34.0321 59.0872 34.0967 59.0976 34.1613C59.1101 34.2301 59.1205 34.2968 59.1372 34.3656C59.1517 34.4324 59.1705 34.497 59.1891 34.5636C59.2079 34.626 59.2245 34.6885 59.2454 34.7509C59.2682 34.8176 59.2932 34.8843 59.3181 34.9511C59.3411 35.0069 59.3618 35.065 59.3868 35.121C59.416 35.1878 59.4491 35.2524 59.4825 35.3168C59.5096 35.3685 59.5345 35.4223 59.5636 35.4718C59.601 35.5386 59.6406 35.6009 59.6822 35.6633C59.7113 35.7107 59.7404 35.758 59.7737 35.8032C59.8174 35.8656 59.8652 35.9259 59.911 35.9862C59.9443 36.0292 59.9776 36.0722 60.013 36.1153C60.0629 36.1734 60.1149 36.2293 60.1689 36.2853C60.2064 36.324 60.2418 36.3649 60.2792 36.4015C60.3354 36.4553 60.3937 36.5069 60.4519 36.5586C60.4914 36.593 60.531 36.6296 60.5726 36.664C60.6329 36.7135 60.6974 36.7587 60.7619 36.8039C60.8056 36.8361 60.8472 36.8685 60.8908 36.8964C60.9554 36.9394 61.026 36.9803 61.0927 37.0191C61.1384 37.0471 61.1842 37.0751 61.23 37.0987C61.2986 37.1353 61.3735 37.1698 61.4442 37.202C61.4921 37.2236 61.54 37.2472 61.5878 37.2688C61.6627 37.301 61.7397 37.3246 61.8166 37.3527C61.8665 37.3699 61.9144 37.3892 61.9643 37.4065C62.0455 37.4301 62.1286 37.4495 62.2098 37.4689C62.2598 37.4796 62.3075 37.4968 62.3575 37.5055C62.449 37.5226 62.5405 37.5356 62.6342 37.5463C62.6778 37.5528 62.7195 37.5614 62.7653 37.5658C62.9026 37.5786 63.0419 37.5872 63.1834 37.5872C63.2354 37.5872 63.2894 37.5872 63.3373 37.5829C63.3477 37.5829 63.354 37.5807 63.3643 37.5807C65.1139 37.5055 66.5681 36.4166 67.1339 34.7724C67.3689 34.0902 67.0007 33.4984 66.4411 33.337C65.9398 33.195 65.3927 33.4489 65.1534 34.0171C65.1264 34.0837 65.0848 34.1591 65.0578 34.2258C64.7457 34.9273 64.0092 35.3987 63.1854 35.3987C62.6175 35.3987 62.1058 35.1856 61.7376 34.8348C61.3714 34.4883 61.1447 34.0042 61.1447 33.4619V29.543C61.1447 29.0007 61.3714 28.5165 61.7376 28.17" fill="#333333"/>
<path d="M117.329 0.124603H0.672852V87.8749H117.329V0.124603Z" stroke="#333333" stroke-width="2"/>
<path d="M84.7331 46.135V42.257V41.7168C84.7331 41.0454 84.2297 40.3762 83.4413 40.3762H45.1155V26.5108C45.1155 25.8953 44.633 25.396 44.038 25.396C43.4429 25.396 42.9603 25.8953 42.9603 26.5108V41.1896C42.9603 42.0548 43.4908 42.6099 44.2605 42.6099H82.5758C82.5758 43.0856 82.5758 46.1199 82.5758 46.1457C82.5758 49.7848 79.782 52.9675 76.0207 52.9675H42.0366C38.6832 52.9675 35.4337 50.2173 35.4337 46.135V21.2298C35.4337 17.6595 38.2921 14.4336 42.0366 14.4336H76.0187C79.8214 14.4336 82.5633 17.6703 82.5633 21.2491V23.0869C82.5633 23.7024 83.0543 24.2038 83.6535 24.2038C84.2526 24.2038 84.7331 23.7024 84.7331 23.0891V21.2512C84.7331 15.9788 80.5079 12.2064 76.0166 12.2064H42.0221C37.4974 12.2064 33.2744 15.9617 33.2744 21.2447V46.1112C33.2744 51.1707 37.2436 55.1949 42.0346 55.1949H76.0187C81.0718 55.1949 84.7331 50.9446 84.7331 46.135Z" fill="#333333"/>
<path d="M20.9678 69.7444V71.5477C20.9678 72.0255 20.585 72.3204 20.2293 72.3204H15.5902C15.2574 72.3204 14.9869 72.6001 14.9869 72.9423C14.9869 73.2844 15.2574 73.5663 15.5902 73.5663H20.2293C21.3027 73.5663 22.1765 72.6604 22.1765 71.5477V69.3807C22.1765 68.2681 21.3027 67.3621 20.2293 67.3621H12.9025C12.5509 67.3621 12.2949 67.6419 12.2949 68.0271V75.1696C12.2949 75.5139 12.5654 75.7937 12.8983 75.7937C13.2311 75.7937 13.5015 75.5139 13.5015 75.1696V68.6081H20.2314C20.5871 68.6081 20.9699 68.9029 20.9699 69.3807V69.7444H20.9678Z" fill="#333333"/>
<path d="M63.447 67.3728C63.1142 67.3728 62.8438 67.6526 62.8438 67.9969V75.1696C62.8438 75.5139 63.1142 75.7936 63.447 75.7936C63.7798 75.7936 64.0503 75.5139 64.0503 75.1696V67.9969C64.0503 67.6526 63.7798 67.3728 63.447 67.3728Z" fill="#333333"/>
<path d="M79.868 67.3728C79.5351 67.3728 79.2646 67.6526 79.2646 67.9969V75.1696C79.2646 75.5139 79.5351 75.7936 79.868 75.7936C80.2008 75.7936 80.4712 75.5139 80.4712 75.1696V67.9969C80.4712 67.6526 80.2008 67.3728 79.868 67.3728Z" fill="#333333"/>
<path d="M34.7898 71.5606V69.3936C34.7898 68.281 33.916 67.375 32.8425 67.375H25.5157C25.1642 67.375 24.9082 67.6547 24.9082 68.0399V75.1696C24.9082 75.5139 25.1787 75.7936 25.5095 75.7936C25.8402 75.7936 26.1128 75.5139 26.1128 75.1696V68.621H32.8425C33.1983 68.621 33.5811 68.9159 33.5811 69.3936V71.5606C33.5811 72.0384 33.1983 72.3332 32.8425 72.3332H28.2035C27.8707 72.3332 27.6001 72.613 27.6001 72.9552C27.6001 73.2973 27.8707 73.5792 28.2035 73.5792H31.6922L33.4396 75.5871C33.6602 75.8431 34.0429 75.8647 34.2905 75.6365C34.538 75.4084 34.5588 75.0125 34.3363 74.7542L33.2649 73.5319C34.1366 73.3317 34.7877 72.5248 34.7877 71.5606" fill="#333333"/>
<path d="M103.759 67.3664H97.7735C96.698 67.3664 95.8242 68.2681 95.8242 69.3785V75.1717C95.8242 75.5161 96.0947 75.7958 96.4276 75.7958C96.7604 75.7958 97.0308 75.5161 97.0308 75.1717V69.3785C97.0308 69.0106 97.3159 68.6146 97.7776 68.6146H103.756C104.218 68.6146 104.503 69.0106 104.503 69.3785V75.1717C104.503 75.5161 104.774 75.7958 105.107 75.7958C105.439 75.7958 105.71 75.5161 105.71 75.1717V69.3785C105.71 68.2703 104.836 67.3664 103.761 67.3664" fill="#333333"/>
<path d="M39.4838 68.621H46.8085C47.1414 68.621 47.4118 68.3412 47.4118 67.9969C47.4118 67.6526 47.1414 67.3728 46.8085 67.3728H39.4817C38.4061 67.3728 37.5303 68.2789 37.5303 69.3893V73.7664C37.5303 74.8834 38.4061 75.7915 39.4838 75.7915H46.8085C47.1414 75.7915 47.4118 75.5117 47.4118 75.1674C47.4118 74.8231 47.1414 74.5434 46.8085 74.5434H39.4838C39.1238 74.5434 38.7349 74.2464 38.7349 73.7686V72.2041H45.0715C45.4043 72.2041 45.6748 71.9244 45.6748 71.5801C45.6748 71.2357 45.4043 70.9559 45.0715 70.9559H38.7349V69.385C38.7349 69.0149 39.0365 68.6167 39.4838 68.6167" fill="#333333"/>
<path d="M91.8771 73.7751C91.8771 74.2528 91.4944 74.5476 91.1386 74.5476H85.1576C84.7978 74.5476 84.4087 74.2528 84.4087 73.7729V69.3893C84.4087 69.017 84.7103 68.621 85.1576 68.621H91.1386C91.4944 68.621 91.8771 68.9159 91.8771 69.3936V73.7772V73.7751ZM91.1386 67.3728H85.1555C84.0801 67.3728 83.2021 68.2789 83.2021 69.3914V73.7664C83.2021 74.8834 84.078 75.7915 85.1555 75.7915H91.1365C92.21 75.7915 93.0837 74.8855 93.0837 73.7729V69.3914C93.0837 68.2789 92.21 67.3728 91.1365 67.3728" fill="#333333"/>
<path d="M52.1036 68.621H58.4965C58.7732 68.621 58.9521 68.776 59.0373 68.8728L59.0478 68.8835C59.2641 69.1267 59.6136 69.1655 59.8632 68.974C60.1337 68.7652 60.1877 68.3842 59.9859 68.1067L59.9652 68.0809C59.5907 67.6333 59.054 67.3772 58.4965 67.3772H52.1015C51.026 67.3772 50.1523 68.281 50.1523 69.3914V73.7815C50.1523 74.892 51.026 75.7958 52.1015 75.7958H58.4965C59.054 75.7958 59.5907 75.5398 59.9652 75.0922L59.9859 75.0663C60.1877 74.7865 60.1337 74.4056 59.8632 74.1969C59.6136 74.0054 59.2641 74.0441 59.0478 74.2873L59.0373 74.3002C58.9521 74.397 58.7732 74.5497 58.4986 74.5497H52.1057C51.6584 74.5497 51.3589 74.1539 51.3589 73.7837V69.3893C51.3589 69.0192 51.6584 68.6232 52.1057 68.6232" fill="#333333"/>
<path d="M74.5757 70.9969H68.7446C68.2973 70.9969 67.9956 70.5987 67.9956 70.2285V69.3914C67.9956 69.0213 68.2973 68.6232 68.7446 68.6232H74.5861C74.8607 68.6232 75.0396 68.776 75.1249 68.8728L75.1353 68.8857C75.3517 69.1288 75.7012 69.1677 75.9508 68.9761C76.2212 68.7674 76.2753 68.3864 76.0736 68.1067L76.0527 68.0809C75.6782 67.6333 75.1416 67.3772 74.584 67.3772H68.7404C67.6649 67.3772 66.7891 68.2832 66.7891 69.3957V70.2285C66.7891 71.3412 67.6649 72.245 68.7404 72.245H74.5757C74.9293 72.245 75.3121 72.5398 75.3121 73.0176V73.7772C75.3121 74.2549 74.9293 74.5497 74.5736 74.5497H68.522C68.2453 74.5497 68.0663 74.397 67.9811 74.3002L67.9707 74.2894C67.7543 74.0441 67.4049 74.0054 67.1552 74.1991C66.8848 74.4077 66.8306 74.7887 67.0325 75.0684L67.0533 75.0942C67.4277 75.5418 67.9644 75.7979 68.522 75.7979H74.5736C75.647 75.7979 76.5208 74.892 76.5208 73.7794V73.0198C76.5208 71.9071 75.647 71.0011 74.5736 71.0011" fill="#333333"/>
</g>
</g>
<defs>
<clipPath id="clip0_18234_969">
<rect width="118" height="88" fill="white"/>
</clipPath>
</defs>
</svg>
