<svg width="112" height="75" viewBox="0 0 112 75" fill="none" xmlns="http://www.w3.org/2000/svg">
<g clip-path="url(#clip0_18234_914)">
<mask id="mask0_18234_914" style="mask-type:luminance" maskUnits="userSpaceOnUse" x="0" y="0" width="112" height="75">
<path d="M112 0H0V75H112V0Z" fill="white"/>
</mask>
<g mask="url(#mask0_18234_914)">
<path d="M109.717 30.3686C108.819 28.6974 107.306 27.4329 105.494 26.8367C108.765 29.3207 109.399 33.9817 106.907 37.2516C106.264 38.0916 105.449 38.7872 104.515 39.284C104.307 39.4014 104.09 39.5008 103.863 39.5911C103.836 39.6092 103.809 39.6182 103.772 39.6362C103.755 39.6362 103.746 39.6453 103.727 39.6544L103.719 39.6453C103.691 39.6182 103.664 39.6002 103.646 39.5641C103.201 39.1124 102.785 38.6246 102.378 38.1097C102.368 38.1007 102.368 38.1007 102.368 38.0916C100.257 35.6077 98.6718 32.0577 97.9647 27.9568H97.9735C97.7923 26.9271 97.6657 25.8792 97.6024 24.8314V24.8224C97.5839 24.5062 97.5664 24.19 97.5567 23.8649C97.4213 19.0775 98.4721 14.6874 100.293 11.3724C100.565 10.8756 100.855 10.3969 101.182 9.93614C101.182 9.92718 101.19 9.92718 101.19 9.91812C101.226 9.86387 101.571 9.4213 101.77 9.15031C103.201 7.18114 103.709 5.71782 103.818 4.67904C104.397 2.94472 106.518 1.30976 106.219 1.09297C105.286 0.424546 103.102 0.903289 101.933 2.04143C100.637 0.984585 98.5169 0.207756 98.5169 0.207756L96.4425 1.01168L92.5192 0V3.12538L94.6666 5.19391V6.38625C93.8511 6.39528 93.0356 6.52174 92.2564 6.77466H92.2474C90.5892 7.28953 89.3298 8.06637 88.1519 9.43033L82.5886 6.32302L79.671 5.70878C78.1035 5.52812 78.1035 8.06636 78.1035 8.64446H82.5886L86.0226 12.89C85.9501 13.0616 85.8866 13.2332 85.8232 13.4048C84.9987 15.8617 84.9353 18.5083 85.6511 21.0015C85.9229 21.9589 86.3216 22.8713 86.829 23.7294L89.5291 29.9892V29.9982C86.8471 30.0615 85.6511 32.401 87.1914 35.6257C87.6535 36.5922 88.2243 37.5135 88.8949 38.3446C88.8315 38.3536 88.7589 38.3626 88.6955 38.3626L86.7475 38.0646C86.2038 38.0646 85.7145 38.4078 85.3521 38.9679C84.9897 39.5279 84.7722 40.2957 84.7722 41.1538H104.643C104.959 41.0906 105.277 41.0093 105.585 40.9009C105.965 40.7744 106.336 40.6118 106.69 40.4222C110.305 38.4801 111.665 33.9817 109.717 30.3686ZM97.6297 2.0595C97.8829 1.73431 98.3543 1.67108 98.6805 1.924C99.0068 2.17693 99.0428 3.23377 99.0428 3.23377C99.0428 3.23377 98.0826 3.36023 97.7563 3.10731C97.4388 2.85439 97.3757 2.38468 97.6297 2.0595Z" fill="#333333"/>
<path d="M50.8759 11.1285H29.0576V41.1628H50.8759V27.1348C45.1676 38.986 42.1323 39.9073 40.8094 39.9073C40.5648 39.9073 40.3835 39.8712 40.2476 39.8712V25.8521L47.6956 30.6577V19.8814L40.2476 24.2172V12.2486C40.3292 12.2486 40.5013 12.2035 40.7731 12.2035C42.0235 12.2035 45.3307 13.0707 50.8759 22.7177V11.1285ZM79.2813 11.1285H67.2305C70.3746 15.5457 72.8664 19.8814 70.6283 24.2984L64.2133 11.1285H52.5975L60.3444 26.1503H60.3897V41.1628H71.5797V26.1503H71.5344L79.2813 11.1285Z" fill="#333333"/>
<path d="M59.1664 71.8748C57.5989 71.8748 55.1887 68.4153 51.0026 60.2495C46.5719 51.4154 45.4575 47.5041 46.9616 46.3931C47.1428 46.2847 47.3512 46.2215 47.5596 46.2215C49.1724 46.2215 51.4829 49.5997 55.4334 57.3319C60.0816 66.5545 61.4135 70.6283 59.7373 71.7032C59.5742 71.8116 59.3748 71.8658 59.1664 71.8748ZM53.0232 43.6381C43.5095 43.6381 39.124 50.1598 39.124 59.0391C39.124 67.5752 43.5185 75.0002 53.0232 75.0002C62.5279 75.0002 66.9224 67.5752 66.9224 59.0391C66.9315 50.1598 62.537 43.6381 53.0232 43.6381Z" fill="#333333"/>
<path d="M81.275 44.2792H70.085V74.3135H89.7559V61.0171C82.616 73.0308 82.616 73.0308 81.275 73.0308V44.2792Z" fill="#333333"/>
<path d="M112 44.2792H99.9492C103.094 48.6962 105.585 53.032 103.347 57.4491L96.9324 44.2792H85.3164L93.0634 59.2918H93.1087V74.3045H104.299V59.3008H104.254L112 44.2792Z" fill="#333333"/>
<path d="M14.2072 11.1285V24.8856H11.1901V11.1285H0V41.1719H11.1901V28.2007H14.2072V41.1719H25.3883V11.1285H14.2072Z" fill="#333333"/>
<path d="M24.6721 44.2792V58.0181H21.6548V44.2792H10.4648V74.3226H21.6548V61.3423H24.6721V74.3226H35.8622V44.2792H24.6721Z" fill="#333333"/>
</g>
</g>
<defs>
<clipPath id="clip0_18234_914">
<rect width="112" height="75" fill="white"/>
</clipPath>
</defs>
</svg>
