<svg width="198" height="56" viewBox="0 0 198 56" fill="none" xmlns="http://www.w3.org/2000/svg">
<g clip-path="url(#clip0_18234_1052)">
<path d="M65.6655 47.3321C65.6655 45.6926 66.9125 44.8729 68.5549 44.8729C70.4102 44.8729 71.5963 46.0873 71.5963 47.6053H70.3493C70.3493 46.5427 69.7715 45.9962 68.5549 45.9962C67.4599 45.9962 66.9125 46.4516 66.9125 47.3017C66.9125 47.9696 67.3383 48.425 68.7678 48.8501C70.9576 49.4877 71.6268 50.3378 71.6268 51.704C71.6268 53.4345 70.3798 54.1025 68.6157 54.1025C66.6083 54.1025 65.3613 53.0702 65.3613 51.37H66.6083C66.6083 52.4326 67.3383 52.9791 68.6157 52.9791C69.8019 52.9791 70.3798 52.5541 70.3798 51.704C70.3798 50.611 69.2544 50.186 68.4028 49.9431C66.3954 49.3966 65.6655 48.5768 65.6655 47.3321ZM72.6913 50.8235V50.6414C72.6913 48.6679 73.5125 47.3928 75.3069 47.3928C77.1318 47.3928 77.9226 48.6679 77.9226 50.6414V50.8235C77.9226 52.6755 77.3143 54.1328 75.3069 54.1328C73.2996 54.1328 72.6913 52.6755 72.6913 50.8235ZM73.8166 50.6717V50.8842C73.8166 52.4023 74.1512 53.1309 75.3069 53.1309C76.4627 53.1309 76.7973 52.4023 76.7973 50.8842V50.6717C76.7973 49.1233 76.4323 48.3947 75.3069 48.3947C74.1512 48.3947 73.8166 49.093 73.8166 50.6717ZM82.5152 45.9355C82.3328 45.9051 82.1199 45.9051 81.9374 45.9051C81.2074 45.9051 80.9337 46.2998 80.9337 47.1195V47.5446H82.3023V48.5465H80.9337V54.0417H79.8083V48.5465H78.7742V47.5446H79.8387V47.1195C79.8387 45.723 80.4775 44.9032 81.8765 44.9032C82.0894 44.9032 82.3328 44.9336 82.5457 44.9943L82.5152 45.9355ZM86.8341 53.9203C86.6212 53.981 86.3779 54.0114 86.165 54.0114C84.7659 54.0114 84.1272 53.1916 84.1272 51.7951V48.5161H83.0627V47.5142H84.1272V45.7533H85.2526V47.5142H86.6212V48.5161H85.2526V51.8254C85.2526 52.6148 85.5263 53.0702 86.2563 53.0702C86.4387 53.0702 86.6516 53.0702 86.8341 53.0398V53.9203ZM93.5254 52.2505L94.5899 47.5142H95.7761L93.9816 54.0114H93.0692L91.6093 49.3055L90.1798 54.0114H89.2673L87.5033 47.5142H88.6894L89.7844 52.1594L91.1834 47.5142H92.0959L93.5254 52.2505ZM100.43 54.0114C100.338 53.7989 100.277 53.556 100.277 53.3131C99.8212 53.8292 99.1825 54.1328 98.483 54.1328C97.3272 54.1328 96.3844 53.4042 96.3844 52.2201C96.3844 50.8235 97.3576 50.0342 99.2434 50.0342H100.247V49.6091C100.247 48.7894 99.9429 48.3947 99.0304 48.3947C98.2701 48.3947 97.8443 48.759 97.7834 49.3966H96.6581C96.7493 48.1822 97.6618 47.3928 99.0913 47.3928C100.612 47.3928 101.372 48.1822 101.372 49.518V52.463C101.342 52.9791 101.433 53.5256 101.646 54.0114H100.43ZM100.247 52.0379V51.0057H99.4563C98.0572 51.0057 97.4793 51.37 97.4793 52.0987C97.4793 52.797 97.8747 53.1309 98.6351 53.1309C99.365 53.1006 100.004 52.6755 100.247 52.0379ZM106.147 48.4554C105.935 48.3947 105.691 48.3643 105.448 48.3643C104.718 48.3643 104.231 48.9412 104.018 49.5787V53.981H102.893V47.4839H103.988V48.3036C104.292 47.7268 104.87 47.3624 105.509 47.3624C105.722 47.3624 105.935 47.3928 106.147 47.4839V48.4554ZM111.957 52.1898C111.713 53.3435 110.679 54.1328 109.493 54.1328C107.547 54.1328 106.695 52.7666 106.695 50.9753V50.7628C106.634 48.7894 107.759 47.3624 109.341 47.3624C111.044 47.3624 111.957 48.5768 111.957 50.6717V51.2182H107.851C107.912 52.3719 108.368 53.1006 109.493 53.1006C110.071 53.1309 110.588 52.7362 110.74 52.1594L111.957 52.1898ZM107.881 50.2467H110.801C110.74 49.0019 110.284 48.3643 109.341 48.3643C108.459 48.3947 108.033 49.0626 107.881 50.2467Z" fill="#333333"/>
<path d="M65.5133 38.6793H83.0018C86.7124 38.6793 89.7539 35.8254 89.7539 32.334V31.1499C89.7539 27.7192 86.8949 24.926 83.2451 24.8046H83.1234H71.2921C70.2884 24.8349 69.4672 24.0455 69.4368 23.074V21.9203C69.4672 20.9184 70.2884 20.1594 71.2921 20.1594H88.4156V15.575H71.2921C67.5815 15.575 64.54 18.4288 64.54 21.9203V23.074C64.54 26.5655 67.5815 29.4194 71.2921 29.4194H83.0018C84.0055 29.389 84.8267 30.1784 84.8571 31.1803V32.3643C84.8267 33.3662 84.0055 34.1252 83.0018 34.0949H65.5133V38.6793ZM95.5327 15.575H100.429V38.649H95.5327V15.575ZM164.027 38.649H168.923V21.9203C168.923 18.4288 165.882 15.575 162.171 15.575H137.779V38.649H142.645V20.1898H150.796V38.6793H155.693V20.1898H162.171C163.175 20.1594 163.996 20.9488 164.027 21.9203V38.649ZM197.787 21.9203C197.787 18.4288 194.746 15.575 191.035 15.575H175.493V20.1594H191.005C192.008 20.129 192.829 20.9184 192.86 21.8899V24.7742H180.511C176.801 24.7742 173.759 27.6281 173.759 31.1195V32.3036C173.759 35.7951 176.801 38.649 180.511 38.649H197.726L197.787 21.9203ZM192.86 34.0645H180.542C179.538 34.0949 178.717 33.3055 178.687 32.334V31.1499C178.717 30.148 179.569 29.389 180.542 29.389H192.89L192.86 34.0645ZM107.029 32.334C107.029 35.8254 110.071 38.6793 113.782 38.6793H131.027V24.8349H118.161V29.4194H126.13V34.0949H113.812C112.808 34.1252 111.987 33.3359 111.957 32.3643V21.9203C111.987 20.9184 112.839 20.1594 113.812 20.1594H130.996V15.575H113.782C110.041 15.575 107.029 18.4288 107.029 21.9203V32.334Z" fill="#333333"/>
<g style="mix-blend-mode:luminosity">
<path d="M54.2294 27.0512C54.2294 23.1954 46.2911 19.9469 35.3418 18.8539C35.6155 21.4345 35.7372 24.1973 35.7372 27.0512C35.7372 29.7837 35.6155 32.5465 35.3418 35.2789C46.2911 34.1556 54.2294 30.907 54.2294 27.0512Z" fill="url(#paint0_linear_18234_1052)"/>
<path d="M27.1299 35.6736C29.8673 35.6736 32.635 35.5522 35.3723 35.2789C35.6461 32.5465 35.7677 29.814 35.7677 27.0512C35.7677 24.1973 35.6157 21.4345 35.3723 18.8539L18.918 35.2789C21.6249 35.5522 24.3622 35.704 27.1299 35.6736Z" fill="url(#paint1_linear_18234_1052)"/>
<path d="M27.13 18.4592C29.8673 18.4592 32.635 18.5806 35.3723 18.8539C34.247 7.9241 30.9622 0 27.13 0C23.2977 0 20.0129 7.9241 18.918 18.8539C21.6249 18.5806 24.3622 18.4592 27.13 18.4592Z" fill="#E30613"/>
<path d="M27.13 35.6736C24.3926 35.6736 21.6553 35.5522 18.918 35.2789C20.0433 46.2087 23.2977 54.1328 27.13 54.1328C30.9622 54.1328 34.247 46.2087 35.3723 35.2789C32.6046 35.5522 29.8673 35.6736 27.13 35.6736Z" fill="#E30613"/>
<path d="M18.4922 27.0512C18.4922 24.3188 18.6138 21.5863 18.8876 18.8539C7.93825 19.9772 0 23.2258 0 27.0512C0 30.8767 7.93825 34.1556 18.8876 35.2789C18.6138 32.5465 18.4922 29.814 18.4922 27.0512Z" fill="#E30613"/>
<path d="M18.8872 18.8539C18.3397 24.3188 18.3397 29.8141 18.8872 35.2789L35.3415 18.8539C29.8669 18.3074 24.3618 18.3074 18.8872 18.8539Z" fill="#B70E0C"/>
</g>
</g>
<defs>
<linearGradient id="paint0_linear_18234_1052" x1="241.214" y1="152.207" x2="997.136" y2="1464.44" gradientUnits="userSpaceOnUse">
<stop stop-color="#7C7C7B"/>
<stop offset="0.27" stop-color="#5B5B5A"/>
<stop offset="0.56" stop-color="#40403F"/>
<stop offset="0.81" stop-color="#30302F"/>
<stop offset="1" stop-color="#2A2A29"/>
</linearGradient>
<linearGradient id="paint1_linear_18234_1052" x1="697.597" y1="597.573" x2="1408.2" y2="1830.94" gradientUnits="userSpaceOnUse">
<stop stop-color="#9C1006"/>
<stop offset="0.08" stop-color="#951005"/>
<stop offset="0.44" stop-color="#7A0E02"/>
<stop offset="0.76" stop-color="#6A0C01"/>
<stop offset="1" stop-color="#640C00"/>
</linearGradient>
<clipPath id="clip0_18234_1052">
<rect width="198" height="56" fill="white"/>
</clipPath>
</defs>
</svg>
