<?xml version="1.0" encoding="UTF-8"?>
<svg xmlns="http://www.w3.org/2000/svg" xmlns:xlink="http://www.w3.org/1999/xlink" width="56px" height="50px" viewBox="0 0 56 50" version="1.1">
<g id="surface1">
<path style=" stroke:none;fill-rule:nonzero;fill:rgb(42.745098%,70.19608%,24.705882%);fill-opacity:1;" d="M 54.9375 21.996094 L 44.042969 3.003906 C 43.097656 1.355469 40.777344 0 38.878906 0 L 17.109375 0 C 15.222656 0 12.890625 1.355469 11.945312 3.003906 L 1.0625 21.996094 C 0.117188 23.644531 0.117188 26.34375 1.0625 27.992188 L 11.945312 46.996094 C 12.890625 48.644531 15.210938 50 17.109375 50 L 38.890625 50 C 40.777344 50 43.097656 48.644531 44.054688 46.996094 L 54.9375 27.992188 C 55.882812 26.34375 55.882812 23.644531 54.9375 21.996094 Z M 25.640625 10.507812 C 25.640625 9.261719 26.648438 8.246094 27.886719 8.246094 C 29.121094 8.246094 30.128906 9.261719 30.128906 10.507812 L 30.128906 24.015625 C 30.128906 25.261719 29.121094 26.277344 27.886719 26.277344 C 26.648438 26.277344 25.640625 25.261719 25.640625 24.015625 Z M 27.886719 39.351562 C 19.492188 39.351562 12.664062 32.46875 12.664062 24.015625 C 12.671875 19.167969 14.949219 14.613281 18.8125 11.707031 C 19.699219 11.042969 20.945312 11.226562 21.609375 12.125 C 22.269531 13.019531 22.085938 14.273438 21.195312 14.941406 C 16.21875 18.664062 15.179688 25.753906 18.875 30.765625 C 22.574219 35.78125 29.609375 36.828125 34.585938 33.105469 C 37.4375 30.972656 39.121094 27.597656 39.121094 24.015625 C 39.109375 20.421875 37.417969 17.050781 34.542969 14.910156 C 33.65625 14.253906 33.46875 12.984375 34.121094 12.089844 C 34.769531 11.195312 36.027344 11.007812 36.917969 11.664062 C 40.8125 14.558594 43.097656 19.144531 43.109375 24.015625 C 43.109375 32.480469 36.277344 39.351562 27.886719 39.351562 Z M 27.886719 39.351562 "/>
</g>
</svg>
