<svg width="26" height="26" viewBox="0 0 26 26" fill="none" xmlns="http://www.w3.org/2000/svg">
<path d="M19.8803 6.32351C17.1808 6.33649 15.129 8.12189 14.3608 10.967C13.072 8.98369 12.0666 6.71506 11.4901 4.7998L8.64889 4.81318L8.68824 12.3443C8.68992 12.6989 8.62175 13.0503 8.48761 13.3785C8.35348 13.7067 8.15602 14.0053 7.90649 14.2572C7.65697 14.5091 7.36027 14.7094 7.03334 14.8466C6.70642 14.9839 6.35566 15.0554 6.0011 15.0571C5.28503 15.0605 4.59695 14.7793 4.08821 14.2753C3.83631 14.0258 3.63603 13.7291 3.49879 13.4022C3.36156 13.0752 3.29006 12.7245 3.28838 12.3699L3.24903 4.83876L0.40625 4.85254L0.445602 12.3841C0.45662 15.5094 2.95389 17.9858 6.00995 17.9701C9.06602 17.9543 11.5409 15.4571 11.5271 12.331L11.5212 11.052C12.0941 12.1854 12.8103 13.3895 13.5974 14.452L11.86 22.7726L14.772 22.7592L16.0234 16.714C17.1631 17.4196 18.4436 17.8394 19.935 17.8324C23.0611 17.8186 25.6072 15.2497 25.5914 11.9807C25.5773 8.85383 23.0068 6.30895 19.8807 6.32312L19.8803 6.32351ZM19.9208 14.9203C18.7843 14.9254 17.6455 14.4339 16.7184 13.6559L16.997 12.5147V12.4431C17.2048 11.2334 17.8336 9.17062 19.9649 9.16117C20.718 9.1598 21.4411 9.45651 21.9762 9.9865C22.5112 10.5165 22.8148 11.2367 22.8207 11.9898C22.7565 13.6241 21.4131 14.9097 19.9204 14.9164L19.9208 14.9203Z" fill="#E3E3E3"/>
</svg>
