<svg width="193" height="48" viewBox="0 0 193 48" fill="none" xmlns="http://www.w3.org/2000/svg">
<path d="M0 29.8506H8.32128C8.62388 31.7667 9.48122 32.8256 12.0533 32.8256C14.2723 32.8256 15.2809 31.9684 15.2809 30.6574C15.2809 29.3464 14.0201 28.7917 10.389 28.3043C3.32851 27.3799 0.353024 25.3125 0.353024 19.8331C0.353024 13.984 5.54752 11.1603 11.6498 11.1603C18.1555 11.1434 22.6944 13.3621 23.2996 19.665H15.1296C14.7934 17.9002 13.8184 17.043 11.7675 17.043C9.80062 17.043 8.79198 17.9002 8.79198 19.1104C8.79198 20.3206 10.0024 20.8752 13.23 21.2786C20.5258 22.1862 24.0561 24.1023 24.0561 29.7498C24.0561 36.0023 19.4163 38.8261 12.1037 38.8261C4.58931 38.8261 0.201728 35.6998 0 29.8506Z" fill="white"/>
<path d="M27.5352 4.70621C27.5352 2.01695 29.6533 0 32.4775 0C35.3017 0 37.4703 2.01695 37.4703 4.70621C37.4703 7.39548 35.3017 9.32838 32.4775 9.32838C29.6533 9.32838 27.5352 7.36186 27.5352 4.70621ZM27.989 11.8664H37.0164V38.2212H27.989V11.8664Z" fill="white"/>
<path d="M41.1523 38.2214H50.1292C50.5327 40.1375 51.6926 41.6502 54.9707 41.6502C58.9548 41.6502 60.5687 39.3811 60.5687 36.1036V32.0697C59.7717 33.5396 58.5911 34.766 57.1525 35.6184C55.7138 36.4708 54.071 36.9173 52.3987 36.9104C46.246 36.9104 41.2028 32.3722 41.2028 24.254V23.8674C41.2028 16.1022 46.1955 11.1606 52.3987 11.1606C56.5845 11.1606 59.0557 12.9255 60.5687 15.5979V11.8498H69.596V36.0027C69.596 43.8688 64.4015 48.0002 54.9707 48.0002C45.9938 48.0002 41.8584 44.2184 41.1523 38.2214ZM60.8208 24.2036V23.8674C60.8208 20.2369 58.9548 17.9174 55.6263 17.9174C52.2978 17.9174 50.4318 20.2705 50.4318 23.901V24.3044C50.4318 27.9349 52.3483 30.2544 55.5759 30.2544C58.8036 30.2544 60.8208 27.9349 60.8208 24.2036Z" fill="white"/>
<path d="M74.9414 11.8494H83.9687V15.8833C84.7848 14.415 85.9865 13.1974 87.4441 12.362C88.9018 11.5267 90.5599 11.1053 92.2396 11.1435C95.7194 11.1435 98.1401 12.6562 99.4009 15.5304C100.388 14.1445 101.698 13.0205 103.218 12.256C104.738 11.4914 106.421 11.1096 108.122 11.1435C113.115 11.1435 116.746 14.3706 116.746 20.9761V38.221H107.719V22.4888C107.719 19.7996 106.408 18.5054 104.357 18.5054C101.936 18.5054 100.322 20.0685 100.322 22.9426V38.221H91.3822V22.4888C91.3822 19.7996 90.071 18.5054 88.0033 18.5054C85.5826 18.5054 83.9687 20.0685 83.9687 22.9426V38.221H74.9414V11.8494Z" fill="white"/>
<path d="M120.383 30.9265C120.383 24.7243 125.628 22.304 134.403 22.304H136.925V21.6821C136.925 19.1609 136.319 17.4969 133.445 17.4969C130.974 17.4969 130.083 18.9592 129.864 20.6232H121.391C121.795 14.2698 126.788 11.1436 133.999 11.1436C141.211 11.1436 145.918 14.1186 145.918 21.1274V38.2211H137.143V35.1452C135.882 37.0613 133.562 38.843 129.326 38.843C124.569 38.8262 120.383 36.5067 120.383 30.9265ZM136.925 29.0104V27.3968H134.554C130.923 27.3968 129.309 28.1027 129.309 30.2709C129.309 31.7837 130.318 32.7417 132.436 32.7417C135.008 32.7249 136.925 31.2626 136.925 28.9935V29.0104Z" fill="white"/>
<path d="M166.781 12.354L159.922 16.5896V7.96718L168.189 2.16846H177.116V38.2214H166.781V12.354Z" fill="white"/>
<path d="M182.563 33.6832C182.556 33.0082 182.685 32.3387 182.941 31.7144C183.198 31.0901 183.578 30.5237 184.057 30.0487C184.537 29.5738 185.107 29.2 185.734 28.9494C186.361 28.6989 187.032 28.5768 187.707 28.5904C190.733 28.5904 192.999 30.8594 192.999 33.6832C192.999 36.5069 190.729 38.7726 187.707 38.7726C187.032 38.7861 186.362 38.6641 185.735 38.4138C185.108 38.1635 184.538 37.79 184.058 37.3154C183.579 36.8408 183.199 36.2748 182.942 35.6509C182.685 35.027 182.556 34.3579 182.563 33.6832Z" fill="white"/>
</svg>
