<svg width="116" height="63" viewBox="0 0 116 63" fill="none" xmlns="http://www.w3.org/2000/svg">
<path d="M0 32.5125H12.7379V32.9719H8.93739V61.7887H11.9861C17.4989 61.7887 22.3853 58.3223 23.4711 52.7678H23.8052V62.2481H0V61.7887H3.75872V32.9719H0V32.5125Z" fill="#333333"/>
<path d="M49.3642 33.5983C49.9906 33.5983 50.2412 33.4313 50.6171 32.8048H50.9512V41.4916H50.6171C49.1971 35.2689 46.2319 32.2201 42.0555 32.2201C39.4244 32.2201 37.4616 33.1807 36.1669 35.1436C34.914 37.0647 34.2875 41.2411 34.2875 47.7144C34.2875 55.8583 34.9557 57.7377 36.0834 59.7841C37.1274 61.6634 39.1739 62.5405 42.0555 62.5405C46.1484 62.5405 48.4036 61.4964 48.4036 57.32V51.2643H43.7678V50.8049H57.3828V51.2643H53.5823V62.2481H53.2482C52.9558 61.4129 52.3711 60.8699 51.327 60.8699C50.5753 60.8699 49.6565 61.2458 48.1112 61.914C46.566 62.5822 44.6449 62.9999 42.3479 62.9999C38.3804 62.9999 34.7469 61.5799 32.1993 58.7817C29.6518 56.0254 28.3571 52.3919 28.3571 48.0068C28.3571 43.5381 29.7771 39.5705 32.617 36.4383C35.4987 33.306 38.9233 31.7607 42.0138 31.7607C45.2713 31.7607 47.6101 33.5983 49.3642 33.5983Z" fill="#333333"/>
<path d="M59.5456 32.5125H82.5991V42.0763H82.265C80.8868 35.8536 77.4204 32.9719 72.2 32.9719H68.483V46.9209L69.4854 46.8791C73.1188 46.7121 75.207 44.9163 75.4993 40.8234H75.8334V53.6031H75.4993C75.207 49.385 72.8682 47.6726 69.5271 47.4221C69.193 47.3803 68.8589 47.3803 68.483 47.3803V61.7887H72.4923V62.2481H59.5456V61.7887H63.3044V32.9719H59.5456V32.5125Z" fill="#333333"/>
<path d="M107.36 33.5983C107.986 33.5983 108.237 33.4313 108.613 32.8048H108.947V41.4916H108.613C107.193 35.2689 104.228 32.2201 100.051 32.2201C97.4203 32.2201 95.4574 33.1807 94.1627 35.1436C92.9098 37.0647 92.2834 41.2411 92.2834 47.7144C92.2834 55.8583 92.9516 57.7377 94.0792 59.7841C95.1233 61.6634 97.1697 62.5405 100.051 62.5405C104.144 62.5405 106.399 61.4964 106.399 57.32V51.2643H101.764V50.8049H115.379V51.2643H111.578V62.2481H111.244C110.952 61.4129 110.367 60.8699 109.323 60.8699C108.571 60.8699 107.652 61.2458 106.107 61.914C104.562 62.5822 102.641 62.9999 100.344 62.9999C96.3762 62.9999 92.7428 61.5799 90.1952 58.7817C87.6476 56.0254 86.3529 52.3919 86.3529 48.0068C86.3529 43.5381 87.7729 39.5705 90.6128 36.4383C93.4945 33.306 96.9191 31.7607 100.01 31.7607C103.267 31.7607 105.606 33.5983 107.36 33.5983Z" fill="#333333"/>
<path fill-rule="evenodd" clip-rule="evenodd" d="M56.9086 2.73828C57.0242 3.09698 56.9285 3.66692 56.9604 4.1133C56.4463 4.22888 55.8165 4.23686 55.2705 4.32454C55.3462 3.32815 56.0039 2.90966 56.9086 2.73828Z" fill="#333333"/>
<path fill-rule="evenodd" clip-rule="evenodd" d="M57.5948 2.8451C57.7303 3.21974 57.5708 3.88932 57.7024 4.27193C58.1248 4.45128 58.8064 4.36759 59.2886 4.48317C59.3006 4.68643 59.2886 4.87375 59.2368 5.01325C57.9535 4.90564 56.435 5.03318 55.1715 4.90963C55.0599 4.78209 55.1835 4.57085 55.2233 4.43534C55.7415 4.31976 56.4509 4.39549 56.965 4.27592C57.26 3.93715 56.7418 2.28712 57.5987 2.84909L57.5948 2.8451ZM56.3792 4.74622C57.1603 4.68245 57.6227 4.90165 58.3321 4.74622C57.7024 4.70238 56.7658 4.57085 56.3792 4.74622Z" fill="#333333"/>
<path fill-rule="evenodd" clip-rule="evenodd" d="M57.8103 2.795C58.6234 2.96638 59.1255 3.45262 59.2371 4.32546C58.8665 4.08234 58.6592 4.28959 57.9697 4.21785C57.7904 3.89502 57.7545 3.17363 57.8103 2.79102V2.795Z" fill="#333333"/>
<path fill-rule="evenodd" clip-rule="evenodd" d="M58.0753 5.43241C58.2188 5.55198 58.2308 5.09762 58.5496 5.22117C58.438 5.75922 58.0993 6.07408 57.5453 6.16974C57.5214 5.84691 57.8801 5.90669 57.9677 5.69546C57.7007 5.82299 57.334 6.05017 56.9634 5.90669C56.8199 6.0422 57.1069 5.98242 56.9634 6.11793C56.8358 6.22952 56.6246 6.10597 56.4891 6.06611C56.5329 6.19764 56.7043 6.20162 56.8039 6.27735C56.7561 6.4846 56.5369 6.32119 56.3815 6.32916C56.4094 6.53242 56.7721 6.39692 56.7521 6.64801C55.955 6.44076 55.3851 6.00633 55.2217 5.16936C56.2938 5.19726 57.6449 5.06972 58.2308 5.22117C58.179 5.29291 58.179 5.41647 58.0714 5.43241H58.0753Z" fill="#333333"/>
<path fill-rule="evenodd" clip-rule="evenodd" d="M58.9178 5.1709C58.8939 5.77272 58.3837 6.31874 57.6504 6.3865C58.0609 6.02381 58.5711 5.75678 58.7584 5.1709H58.9178Z" fill="#333333"/>
<path fill-rule="evenodd" clip-rule="evenodd" d="M59.079 5.21973H59.2385C59.0472 6.01285 58.5689 6.51902 57.708 6.64656C58.266 6.27192 58.9037 5.973 59.083 5.21973H59.079Z" fill="#333333"/>
<path fill-rule="evenodd" clip-rule="evenodd" d="M54.2188 5.69468C54.4858 6.15701 53.9318 6.53165 53.5851 6.22476C53.318 5.76244 53.872 5.38779 54.2188 5.69468ZM53.7445 6.11715C53.872 6.09722 53.8601 6.2128 54.0075 6.16896C54.0155 6.10519 54.0992 6.0494 54.0075 6.00954C54.0315 6.15701 53.7206 5.96968 53.7445 6.11317V6.11715Z" fill="#333333"/>
<path fill-rule="evenodd" clip-rule="evenodd" d="M60.8724 6.43576C60.5854 6.42779 60.4339 6.32815 60.3981 6.17271C60.2028 5.34372 61.6615 5.85785 60.8724 6.43576ZM60.8724 6.17271C60.7608 6.2046 60.5256 6.10894 60.5017 6.22453C60.6013 6.36004 60.8285 6.35605 60.8724 6.17271Z" fill="#333333"/>
<path fill-rule="evenodd" clip-rule="evenodd" d="M52.8975 5.85667C53.4714 5.70123 53.4714 6.61393 53.0011 6.6498C52.5627 6.68168 52.3315 6.0121 52.8975 5.85667ZM53.1605 6.27914C53.033 6.31102 52.7779 6.21138 52.738 6.33095C52.8337 6.47044 53.1246 6.47443 53.1605 6.27914Z" fill="#333333"/>
<path fill-rule="evenodd" clip-rule="evenodd" d="M59.4999 6.27823C59.6035 6.76447 59.0735 6.86012 58.8662 6.59309V6.22243C59.0495 6.02315 59.3604 6.05504 59.4999 6.27425V6.27823ZM59.2369 6.43765C59.193 6.59309 59.0655 6.40577 58.9738 6.43765C58.93 6.74853 59.3963 6.60505 59.2369 6.43765Z" fill="#333333"/>
<path fill-rule="evenodd" clip-rule="evenodd" d="M57.5443 6.32855C57.5682 6.51189 57.5244 6.62349 57.4925 6.75103C57.365 6.78291 57.2494 6.82675 57.07 6.80284C56.6356 6.48399 57.2255 5.89014 57.5443 6.32855ZM57.4367 6.48798C57.3132 6.50392 57.2175 6.5916 57.1218 6.48798C57.0979 6.74305 57.4287 6.63943 57.4367 6.48798Z" fill="#333333"/>
<path fill-rule="evenodd" clip-rule="evenodd" d="M49.9923 6.91359C49.6615 6.93352 49.5181 6.86178 49.4623 6.70236C49.2072 5.92916 50.7018 6.23604 49.9923 6.91359ZM49.9923 6.65054C49.8529 6.65054 49.6894 6.67047 49.6217 6.59873C49.5619 6.81395 49.9884 6.80997 49.9923 6.65054Z" fill="#333333"/>
<path fill-rule="evenodd" clip-rule="evenodd" d="M50.4133 6.85929C49.9749 6.20566 51.0829 5.99841 51.0471 6.59625C51.0311 6.84335 50.784 7.01075 50.4133 6.85929ZM50.784 6.59625C50.7402 6.75168 50.6126 6.56436 50.521 6.59625C50.4771 6.84734 50.9673 6.72777 50.784 6.59625Z" fill="#333333"/>
<path fill-rule="evenodd" clip-rule="evenodd" d="M51.7892 6.27515C52.4907 5.91645 52.4946 7.05633 51.8928 6.96067C51.7932 6.94473 51.291 6.53023 51.7892 6.27515ZM52.1041 6.59001C51.9725 6.59799 51.849 6.59799 51.7892 6.5382C51.7493 6.74147 52.128 6.85705 52.1041 6.59001Z" fill="#333333"/>
<path fill-rule="evenodd" clip-rule="evenodd" d="M55.5922 6.80615C55.3332 6.85397 55.2335 6.74238 55.118 6.64672C55.0422 5.8536 56.1582 6.38766 55.5922 6.80615ZM55.2774 6.59491C55.3571 6.67462 55.6401 6.69057 55.5922 6.49129C55.5006 6.53911 55.3292 6.51122 55.2774 6.59491Z" fill="#333333"/>
<path fill-rule="evenodd" clip-rule="evenodd" d="M48.7763 6.32935C48.9955 6.24964 49.1988 6.30942 49.2506 6.54059C49.4818 7.52901 47.8477 6.66812 48.7763 6.32935ZM49.0394 6.85943C49.0633 6.70798 48.6807 6.69602 48.6687 6.75182C48.7126 6.8674 48.864 6.87537 49.0394 6.85943Z" fill="#333333"/>
<path fill-rule="evenodd" clip-rule="evenodd" d="M54.1614 6.43652C54.0777 6.91878 53.424 6.82711 53.1052 7.07023C52.9856 6.61189 53.8346 6.44848 54.1614 6.43652Z" fill="#333333"/>
<path fill-rule="evenodd" clip-rule="evenodd" d="M62.8282 6.38549C63.1311 6.66448 62.9557 7.09492 62.6688 7.12681C62.1746 7.17862 62.0191 6.26194 62.8282 6.38549ZM62.7764 6.80796C62.6449 6.81593 62.5213 6.81593 62.4615 6.75615C62.4615 7.00325 62.7086 6.98731 62.7764 6.80796Z" fill="#333333"/>
<path fill-rule="evenodd" clip-rule="evenodd" d="M54.3773 6.43652C54.5367 6.43652 54.5806 6.54812 54.6922 6.59595C54.6404 7.04632 54.2099 6.71551 54.3773 6.43652Z" fill="#333333"/>
<path fill-rule="evenodd" clip-rule="evenodd" d="M55.906 6.43652C56.185 6.59993 56.46 6.76334 56.8586 6.80718C56.8745 7.1619 56.7629 7.32132 56.9622 7.4927C56.7629 7.69995 56.6473 8.10648 56.9622 8.28583C56.9383 8.45721 56.7629 8.47315 56.751 8.65648C56.7749 8.84381 56.8825 8.94743 56.9622 9.07896C56.6593 9.38186 56.8028 9.68078 56.9622 10.0315C56.7948 10.0753 56.7988 9.94781 56.6992 9.9239C56.6314 10.2706 56.8227 10.5855 56.6992 10.8206C56.5796 10.7489 56.6792 10.454 56.6473 10.2906C56.4879 10.4301 56.5557 10.7967 56.5397 11.0837C56.3803 11.1355 56.4481 10.9681 56.4361 10.8725C56.3723 11.2112 56.0973 11.3428 56.1731 11.825C56.0415 11.817 56.0057 11.7254 55.9618 11.8768C56.0216 11.2232 56.3444 10.5377 56.3843 9.76447C56.4521 8.51699 55.8582 7.64415 55.3281 6.91081C55.627 6.85899 55.8941 6.77131 55.91 6.43652H55.906Z" fill="#333333"/>
<path fill-rule="evenodd" clip-rule="evenodd" d="M63.5121 10.6613C63.3368 10.6972 63.2252 11.2512 62.9821 11.4026C62.8585 11.3588 63.0259 11.1715 63.0339 11.0838C62.8386 11.1515 62.8625 11.4425 62.6114 11.4544C62.7509 11.2392 62.4042 11.4943 62.3484 11.5581C62.5835 11.02 63.0618 10.5099 63.1415 9.70875C63.269 8.45729 62.5357 7.53263 61.8223 6.9627C61.8741 6.73153 61.9179 6.4924 62.1411 6.43262C61.9976 7.08226 62.4719 7.28952 62.8824 7.22575C62.8585 7.708 63.1056 7.91923 63.6237 7.85945C63.4723 8.21018 63.6477 8.58482 63.9386 8.65258C63.7393 9.02324 64.0582 9.29824 64.2535 9.44571C64.106 9.61709 63.7672 10.195 64.1459 10.3983C63.9266 10.6374 63.819 10.9881 63.6716 11.295C63.5679 10.9961 63.9107 10.6892 63.831 10.2388C63.6556 10.5776 63.6875 11.1157 63.3049 11.2432C63.3687 11.0439 63.4085 10.8167 63.5161 10.6613H63.5121Z" fill="#333333"/>
<path fill-rule="evenodd" clip-rule="evenodd" d="M47.8284 6.54123C48.0955 6.43362 48.3107 6.52927 48.3585 6.80428C48.5299 7.82857 46.9397 6.89594 47.8284 6.54123ZM48.0915 6.91189C47.9241 6.98363 47.7726 6.78036 47.7208 6.91189C47.7806 7.04341 48.0636 7.15899 48.0915 6.91189Z" fill="#333333"/>
<path fill-rule="evenodd" clip-rule="evenodd" d="M59.6564 6.69721C59.8597 6.71713 59.8597 6.77293 59.9195 6.5896C60.0391 6.57365 60.1188 6.60155 60.1307 6.69721C60.2025 6.64539 60.1985 6.51786 60.2901 6.48597C60.3858 6.478 60.4017 6.54974 60.5014 6.53778C60.5731 6.76895 60.322 6.95228 60.1865 6.80083C59.9833 7.02004 59.6006 7.05989 59.4452 7.33091C58.9111 7.09576 59.6405 6.90047 59.6564 6.69721Z" fill="#333333"/>
<path fill-rule="evenodd" clip-rule="evenodd" d="M52.5773 12.2496C52.3741 12.401 52.3462 11.867 52.4179 11.9865C52.1907 11.6278 51.7643 11.5441 51.5212 11.1416C51.3976 11.1575 51.5251 11.3369 51.573 11.3528C51.3338 11.4485 51.29 10.8945 51.1505 10.7191C51.011 10.8427 51.2382 11.0539 51.2023 11.2492C51.023 11.1296 50.9911 10.8626 50.9393 10.6155C50.8237 10.5398 50.5885 10.5796 50.5168 10.4561C50.7201 10.209 50.7081 9.74664 50.4092 9.61114C50.5088 9.46765 50.6443 9.35207 50.728 9.18866C50.7519 8.93757 50.6722 8.79011 50.5168 8.71438C50.6443 8.52308 50.9711 8.53503 51.0469 8.29191C51.0947 8.05278 50.9592 7.99299 50.9393 7.81763C51.5451 7.8814 51.7005 7.51074 51.573 6.97269C51.9516 7.12813 52.402 7.07631 52.4179 6.60203C52.5813 6.52232 52.7089 6.61797 52.8404 6.70964C52.1907 7.32342 51.4135 8.06075 51.3099 9.19265C51.1784 10.6035 51.9954 11.4883 52.7886 12.2018C52.5694 12.2416 52.5016 11.9586 52.5773 12.2536V12.2496Z" fill="#333333"/>
<path fill-rule="evenodd" clip-rule="evenodd" d="M60.7678 6.59668C61.3058 6.71226 61.8518 7.05502 62.0352 7.49343C62.4616 7.56119 62.3421 8.17098 62.7765 8.23475C62.6928 8.53765 63.0674 8.79671 62.7765 8.97208C62.7845 9.07172 62.9558 9.00396 62.9877 9.07969C62.9 9.53006 63.0834 9.98043 62.7247 10.1877C62.7167 10.7895 62.2464 11.3594 61.7203 11.6145C62.2225 10.8732 62.6649 10.0442 62.6689 9.07969C62.3301 7.99163 61.6565 7.23836 60.6602 6.80791C60.6881 6.7282 60.7399 6.67241 60.7638 6.59668H60.7678Z" fill="#333333"/>
<path fill-rule="evenodd" clip-rule="evenodd" d="M54.6921 6.70099C54.9033 6.54556 55.1026 6.90426 54.9551 7.12347C54.7559 7.14738 54.716 7.01187 54.6403 6.91223C54.6323 6.81658 54.704 6.80063 54.6921 6.70099Z" fill="#333333"/>
<path fill-rule="evenodd" clip-rule="evenodd" d="M51.4169 7.01867C51.6959 7.50491 51.0543 7.85564 50.7832 7.49295C50.6358 6.97084 51.118 6.77555 51.4169 7.01867ZM51.3093 7.28172C51.1898 7.30563 51.0383 7.38534 50.9387 7.28172C50.8988 7.52882 51.3412 7.47701 51.3093 7.28172Z" fill="#333333"/>
<path fill-rule="evenodd" clip-rule="evenodd" d="M52.4212 8.28607C52.8317 7.97121 53.4415 7.0904 54.1111 7.17809C53.7564 7.6444 53.1386 7.73208 52.7919 8.18245C51.9589 9.25855 52.5567 11.1238 53.6886 11.7216C53.5172 11.8691 53.4854 12.1521 53.1585 12.1441C53.1227 11.9488 53.2741 11.9408 53.2622 11.7734C51.3929 10.8289 51.8393 7.20997 54.1071 6.91504C53.4734 7.30164 52.748 7.60056 52.4172 8.28607H52.4212Z" fill="#333333"/>
<path fill-rule="evenodd" clip-rule="evenodd" d="M46.7136 7.65382C46.3828 6.93642 47.3593 6.74113 47.4549 7.28316C47.5147 7.61795 47.1321 7.94477 46.7136 7.65382ZM46.873 7.4944C46.9687 7.70962 47.3792 7.52628 47.1879 7.33497C47.2118 7.51831 46.9009 7.36686 46.873 7.4944Z" fill="#333333"/>
<path fill-rule="evenodd" clip-rule="evenodd" d="M52.8457 6.96445C53.0092 6.94054 53.0809 7.01228 53.057 7.17569C52.9095 7.3391 52.6823 7.11192 52.8457 6.96445Z" fill="#333333"/>
<path fill-rule="evenodd" clip-rule="evenodd" d="M63.7236 6.96164C65.4215 6.92577 67.199 7.4678 68.0559 8.44028C69.1998 9.73559 69.1201 12.1429 67.7411 13.4063C67.4382 13.3983 67.0835 13.8567 66.9998 13.7251C67.5179 12.936 68.3469 12.2624 68.4784 11.1385C68.7415 8.90659 66.8244 7.64317 64.6762 7.54751C65.2103 8.2689 66.2186 9.19754 66.103 10.8755C66.0432 11.7483 65.7603 12.7487 65.0468 13.0396C65.3179 12.1309 65.7443 11.4055 65.6805 10.4012C65.5889 8.90261 64.4849 7.966 63.7794 7.12504C63.7157 7.11707 63.7356 7.02939 63.7276 6.96562L63.7236 6.96164Z" fill="#333333"/>
<path fill-rule="evenodd" clip-rule="evenodd" d="M55.1181 7.01942C55.3333 6.95963 55.3293 7.38609 55.1699 7.39007C54.9547 7.44986 54.9587 7.0234 55.1181 7.01942Z" fill="#333333"/>
<path fill-rule="evenodd" clip-rule="evenodd" d="M50.3616 7.12241C49.2416 8.33004 48.4963 11.4507 49.8873 12.9334C49.7 13.029 49.3612 12.8258 49.146 12.7739C48.2054 11.1837 48.7116 8.60903 49.7279 7.49307C47.1492 7.39741 45.5948 9.7489 46.5075 12.2997C46.6311 12.6424 46.9858 13.0968 46.667 13.4076C44.6622 10.4663 46.5394 6.6282 50.3656 7.12241H50.3616Z" fill="#333333"/>
<path fill-rule="evenodd" clip-rule="evenodd" d="M62.1908 9.39287C62.2904 8.28886 61.4614 7.65915 60.8158 7.12109C62.8883 7.42001 62.8086 11.2422 61.027 11.9795C61.035 12.2346 61.2941 12.4618 61.1864 12.665C60.9433 12.6212 60.7201 12.2425 60.764 11.9795C60.8078 11.7125 61.2104 11.6009 61.4495 11.294C61.7564 10.8994 62.0314 10.2298 62.0314 9.6041C62.0314 8.42437 61.3459 7.88234 60.5527 7.2287C61.5531 7.49574 62.0513 8.26495 62.1908 9.39287Z" fill="#333333"/>
<path fill-rule="evenodd" clip-rule="evenodd" d="M63.5672 7.07118C63.9099 7.33822 63.5991 7.93207 63.1447 7.70489C62.9135 7.4259 63.065 6.93169 63.5672 7.07118ZM63.5154 7.44184H63.2005C63.1407 7.66105 63.5751 7.66105 63.5154 7.44184Z" fill="#333333"/>
<path fill-rule="evenodd" clip-rule="evenodd" d="M52.5274 7.54356C52.3919 7.3682 52.5433 7.12906 52.7386 7.12109C52.8462 7.26856 52.7825 7.59139 52.5274 7.54356Z" fill="#333333"/>
<path fill-rule="evenodd" clip-rule="evenodd" d="M59.2913 7.49357C59.1916 7.51748 59.1956 7.64502 59.0282 7.60118C58.9087 7.45371 59.0163 7.19864 59.1877 7.17871C59.2195 7.29031 59.3192 7.33016 59.2953 7.49357H59.2913Z" fill="#333333"/>
<path fill-rule="evenodd" clip-rule="evenodd" d="M55.3783 7.33504C55.4699 7.40279 55.5855 7.44265 55.5895 7.59809C55.5417 7.622 55.4939 7.64591 55.4819 7.70171C55.2946 7.71367 55.2069 7.62599 55.2188 7.43867C55.2627 7.39482 55.3623 7.40678 55.3783 7.33105V7.33504Z" fill="#333333"/>
<path fill-rule="evenodd" clip-rule="evenodd" d="M50.4662 7.38515C50.6734 7.35327 50.7013 7.50472 50.7292 7.6482C50.5897 7.6482 50.4263 7.66813 50.3586 7.59639C50.3187 7.45291 50.4622 7.48878 50.4622 7.38515H50.4662Z" fill="#333333"/>
<path fill-rule="evenodd" clip-rule="evenodd" d="M52.2635 7.91667C52.0602 7.76521 52.2316 7.54601 52.3671 7.44238C52.5624 7.49818 52.4987 7.96848 52.2635 7.91667Z" fill="#333333"/>
<path fill-rule="evenodd" clip-rule="evenodd" d="M63.8854 7.44238C64.0209 7.45035 64.0886 7.51811 64.0966 7.65362C63.973 7.65362 63.9412 7.74529 63.7817 7.70543C63.7738 7.57391 63.8654 7.54202 63.8893 7.44238H63.8854Z" fill="#333333"/>
<path fill-rule="evenodd" clip-rule="evenodd" d="M58.8117 7.49219C58.9033 7.54001 58.9751 7.61175 59.0229 7.70342C59.0309 7.83495 58.9392 7.86683 58.9193 7.96647C58.6124 7.99835 58.704 7.60777 58.8117 7.49219Z" fill="#333333"/>
<path fill-rule="evenodd" clip-rule="evenodd" d="M68.0051 7.54537C68.6468 7.24246 68.6109 8.22291 68.1645 8.23089C67.9533 8.23487 67.5228 7.77255 68.0051 7.54537ZM68.2163 8.01965C68.2363 7.86023 68.045 7.90805 67.9533 7.86023C67.9294 8.02364 68.0649 8.02762 68.2163 8.01965Z" fill="#333333"/>
<path fill-rule="evenodd" clip-rule="evenodd" d="M57.5469 8.12754C57.3954 8.31885 57.0646 8.31885 56.9132 8.12754C56.7099 7.43405 57.7502 7.43405 57.5469 8.12754ZM57.0726 7.96812C57.0288 8.28696 57.5987 8.0558 57.3875 7.9163C57.3795 8.03189 57.1643 7.94022 57.0726 7.96812Z" fill="#333333"/>
<path fill-rule="evenodd" clip-rule="evenodd" d="M46.2966 7.70469C46.5078 7.6489 46.7828 7.74056 46.7708 8.07535C46.735 9.03189 45.356 7.94781 46.2966 7.70469ZM46.1889 8.12716C46.2886 8.15108 46.2846 8.27861 46.452 8.23079C46.4799 8.15108 46.5317 8.09926 46.5596 8.01955C46.4639 8.08332 46.2527 8.02752 46.1889 8.12318V8.12716Z" fill="#333333"/>
<path fill-rule="evenodd" clip-rule="evenodd" d="M50.2027 8.28541C50.0831 7.01401 51.4661 8.1778 50.677 8.44483C50.4498 8.52056 50.3701 8.37708 50.2027 8.28541ZM50.6252 8.28541C50.6531 8.25353 50.8404 8.12599 50.677 8.07417C50.661 8.19773 50.4458 8.10606 50.4139 8.07417C50.4219 8.20968 50.4897 8.28142 50.6252 8.28541Z" fill="#333333"/>
<path fill-rule="evenodd" clip-rule="evenodd" d="M55.5384 7.70627C55.8214 7.63852 55.8613 8.01715 55.7497 8.18055C55.5384 8.17258 55.4149 7.88164 55.5384 7.70627Z" fill="#333333"/>
<path fill-rule="evenodd" clip-rule="evenodd" d="M46.9265 11.9806C46.8628 12.0045 46.8189 12.0483 46.8189 12.14C46.8428 12.2197 46.8867 12.1201 46.9783 12.14C46.8428 12.8096 47.4965 13.1762 47.4526 13.7262C46.4881 12.7657 45.8783 10.2269 46.9225 8.91965C46.9584 9.21458 46.9903 8.9037 47.2374 8.86783C47.1697 8.61674 47.1059 8.56892 47.345 8.44536C47.5762 8.40551 47.3012 8.54899 47.4486 8.54899C47.5363 8.47326 47.3849 8.26601 47.6081 8.23413C47.8552 8.22217 47.5403 8.43739 47.7675 8.44536C47.8592 8.33377 47.7675 8.28992 47.7675 8.12652C47.8791 8.09463 47.9189 7.99499 48.0823 8.02289C48.0385 8.08268 48.0106 8.16637 48.0305 8.28594C48.1979 8.23014 48.0305 8.04681 48.19 7.91528C48.453 8.08268 48.4968 7.8276 48.6642 7.75586C48.8157 7.8834 48.9831 8.00296 49.2461 8.01891C49.1824 8.31782 48.9671 8.19029 48.8237 8.23014C47.624 8.5729 46.8668 9.04718 46.8149 10.5537C46.7751 11.6777 47.3889 12.4469 47.7117 13.3516C47.2693 13.0726 47.2015 12.415 46.9186 11.9806H46.9265Z" fill="#333333"/>
<path fill-rule="evenodd" clip-rule="evenodd" d="M64.4106 8.39118C64.0958 8.62234 63.7052 8.46292 63.6693 8.17995C63.5976 7.59008 64.7255 7.59805 64.4106 8.39118ZM64.1994 8.23176C64.0679 8.23973 63.9443 8.23973 63.8845 8.17995C63.8447 8.45495 64.1795 8.41509 64.1994 8.23176Z" fill="#333333"/>
<path fill-rule="evenodd" clip-rule="evenodd" d="M52.0525 7.80957C52.2877 7.84544 52.2677 8.40741 52.0007 8.39146C51.8532 8.19617 51.9409 8.00885 52.0525 7.80957Z" fill="#333333"/>
<path fill-rule="evenodd" clip-rule="evenodd" d="M58.7083 7.91328C58.8238 8.05677 58.7999 8.17235 58.7083 8.33575C58.4293 8.36365 58.4293 7.88539 58.7083 7.91328Z" fill="#333333"/>
<path fill-rule="evenodd" clip-rule="evenodd" d="M55.9646 8.60124C55.7613 8.64508 55.7613 8.48964 55.7016 8.39C55.6776 8.22261 55.845 8.25051 55.861 8.12695C56.0124 8.16681 56.0762 8.46573 55.9646 8.60124Z" fill="#333333"/>
<path fill-rule="evenodd" clip-rule="evenodd" d="M50.0995 8.22957C50.2589 8.51653 49.8205 8.60422 49.7288 8.81146C49.7129 9.05458 49.7288 9.2698 49.8364 9.39336C49.5016 9.69626 49.402 10.3419 49.9401 10.5013C49.7687 11.155 49.968 11.3742 50.2031 12.0318C50.0038 11.9322 49.9401 11.697 49.8882 11.4499C49.7248 11.6532 49.9799 11.8843 49.9959 12.0836C49.8006 12.1035 49.8962 11.8285 49.7328 11.8206C49.7487 12.0358 49.9281 12.0796 49.8922 12.3467C49.131 11.4818 49.135 8.85531 50.1035 8.22559L50.0995 8.22957Z" fill="#333333"/>
<path fill-rule="evenodd" clip-rule="evenodd" d="M64.5189 8.23047C64.6425 8.24641 64.6385 8.39388 64.7301 8.4417C64.6066 8.58518 64.3954 8.37395 64.5189 8.23047Z" fill="#333333"/>
<path fill-rule="evenodd" clip-rule="evenodd" d="M51.7906 8.33691C52.0775 8.36481 51.9779 8.68366 51.8942 8.86699C51.5913 8.86699 51.6909 8.49235 51.7906 8.33691Z" fill="#333333"/>
<path fill-rule="evenodd" clip-rule="evenodd" d="M58.4955 8.33691C58.6987 8.3967 58.6389 8.56409 58.5991 8.75938C58.3201 8.80323 58.352 8.42858 58.4955 8.33691Z" fill="#333333"/>
<path fill-rule="evenodd" clip-rule="evenodd" d="M69.0587 8.33985C69.262 8.48732 69.262 8.92971 69.0587 9.08117C68.7757 9.11704 68.5884 9.05725 68.4768 8.92174C68.4011 8.45942 68.5964 8.26811 69.0587 8.33985ZM68.9551 8.71051C68.8236 8.71848 68.7 8.71848 68.6362 8.65869C68.5964 8.86594 68.975 8.97754 68.9551 8.71051Z" fill="#333333"/>
<path fill-rule="evenodd" clip-rule="evenodd" d="M46.1367 8.70891C46.4356 9.3466 45.5548 9.51798 45.4512 9.07957C45.3754 8.76072 45.7541 8.42195 46.1367 8.70891ZM45.6106 8.92014C45.6106 9.11145 45.766 9.15131 45.9812 9.13138C45.9095 9.01181 45.7142 8.84442 45.6106 8.92014Z" fill="#333333"/>
<path fill-rule="evenodd" clip-rule="evenodd" d="M55.9626 8.60059C56.1619 8.60059 56.1419 8.80784 56.1738 8.97124C56.0742 8.99516 56.0782 9.1227 55.9108 9.07885C55.8032 8.9553 55.859 8.67233 55.9626 8.60457V8.60059Z" fill="#333333"/>
<path fill-rule="evenodd" clip-rule="evenodd" d="M50.4153 8.70782C50.7103 8.96688 50.5349 9.3774 50.2559 9.39334C49.8215 9.41725 49.6501 8.58427 50.4153 8.70782ZM49.9929 9.13029C50.0925 9.28174 50.4313 9.27776 50.4153 9.02667C50.3157 9.10239 50.0646 9.02667 49.9929 9.13029Z" fill="#333333"/>
<path fill-rule="evenodd" clip-rule="evenodd" d="M58.4977 9.23582C58.3183 9.19597 58.1908 8.88111 58.39 8.76154C58.6292 8.71371 58.5654 9.14017 58.4977 9.23582Z" fill="#333333"/>
<path fill-rule="evenodd" clip-rule="evenodd" d="M51.6314 8.86936C51.8944 8.85741 51.8825 9.3277 51.7908 9.50307C51.5039 9.52698 51.4321 9.00886 51.6314 8.86936Z" fill="#333333"/>
<path fill-rule="evenodd" clip-rule="evenodd" d="M64.9392 11.7177C64.8396 11.6061 64.7758 11.9728 64.6762 12.0366C64.6004 11.5982 65.0667 11.088 64.7798 10.5579C65.0548 10.1673 65.0269 9.56553 64.4609 9.50176C64.7001 9.40611 64.8635 9.23473 64.9352 8.97168C65.7602 9.6293 65.5928 11.6301 64.9352 12.3514C64.9791 12.1721 64.8754 12.0685 64.8276 12.2478C64.724 12.1402 64.8635 11.8293 64.9352 11.7177H64.9392Z" fill="#333333"/>
<path fill-rule="evenodd" clip-rule="evenodd" d="M56.2275 9.44685C56.1279 9.45482 56.0522 9.48272 56.0163 9.55446C55.6138 9.29938 56.375 8.75336 56.2275 9.44685Z" fill="#333333"/>
<path fill-rule="evenodd" clip-rule="evenodd" d="M57.1213 9.81434C57.0296 9.64694 56.9698 9.66289 56.9618 9.49948C56.918 8.527 58.4803 9.84224 57.1213 9.81434ZM57.1213 9.55129C57.0894 9.82231 57.6832 9.70274 57.4361 9.49948C57.4282 9.61506 57.2129 9.52339 57.1213 9.55129Z" fill="#333333"/>
<path fill-rule="evenodd" clip-rule="evenodd" d="M58.5479 9.34204C58.5239 9.44168 58.5279 9.56922 58.3884 9.55327C58.5797 9.76052 58.508 9.90002 58.5479 10.2388C58.4004 10.2826 58.4123 10.1631 58.2848 10.187C58.2888 9.76451 58.1892 9.49748 58.2848 9.18262C58.4203 9.1866 58.4681 9.27827 58.5479 9.34204Z" fill="#333333"/>
<path fill-rule="evenodd" clip-rule="evenodd" d="M45.3441 9.44337C45.5752 9.37561 45.7506 9.41148 45.8183 9.6546C46.1292 10.7745 44.264 9.7662 45.3441 9.44337ZM45.6071 9.86584C45.4397 9.93758 45.2883 9.73431 45.2365 9.86584C45.3002 9.95352 45.5712 10.0571 45.6071 9.86584Z" fill="#333333"/>
<path fill-rule="evenodd" clip-rule="evenodd" d="M51.8421 9.97428C51.4834 10.0102 51.4316 9.69928 51.579 9.5C51.7943 9.5279 51.874 9.69529 51.8421 9.97428Z" fill="#333333"/>
<path fill-rule="evenodd" clip-rule="evenodd" d="M56.2226 9.55371C56.2226 9.69321 56.2425 9.85661 56.1708 9.92437C56.0473 9.94031 55.9675 9.9164 55.9078 9.87256C55.8679 9.62147 56.0194 9.56168 56.2226 9.5577V9.55371Z" fill="#333333"/>
<path fill-rule="evenodd" clip-rule="evenodd" d="M50.3137 9.65676C50.6884 9.94373 50.3297 10.5734 49.8394 10.2905C49.6362 9.97162 49.7956 9.54915 50.3137 9.65676ZM49.9431 10.0792C50.0427 10.1031 50.0387 10.2307 50.2061 10.1829C50.23 10.0832 50.3217 10.0513 50.3137 9.91981C50.1862 9.96764 50.0586 10.0155 49.9431 10.0792Z" fill="#333333"/>
<path fill-rule="evenodd" clip-rule="evenodd" d="M64.7845 9.81669C64.94 10.0439 64.7367 10.4145 64.4657 10.3986C63.9476 10.3707 64.0711 9.37031 64.7845 9.81669ZM64.3103 10.1873C64.4059 10.3348 64.7925 10.1834 64.6251 10.0837C64.6331 10.2352 64.2983 10.0399 64.3103 10.1873Z" fill="#333333"/>
<path fill-rule="evenodd" clip-rule="evenodd" d="M55.9078 10.289C55.844 10.0379 56.0911 9.91832 56.2226 10.0259C56.2505 10.2451 56.0871 10.277 55.9078 10.289Z" fill="#333333"/>
<path fill-rule="evenodd" clip-rule="evenodd" d="M57.4939 10.1334C57.5736 10.3685 57.5218 10.516 57.3862 10.6595H57.0156C56.6051 10.3646 57.1073 9.7707 57.4899 10.1334H57.4939ZM57.3344 10.3446C57.2986 10.516 57.0315 10.3765 57.0196 10.4522C57.0833 10.6316 57.5497 10.5519 57.3344 10.3446Z" fill="#333333"/>
<path fill-rule="evenodd" clip-rule="evenodd" d="M51.5762 10.0784C51.8751 10.0624 52.0146 10.2019 51.9986 10.5008C51.7117 10.5088 51.616 10.3215 51.5762 10.0784Z" fill="#333333"/>
<path fill-rule="evenodd" clip-rule="evenodd" d="M56.0655 10.291C56.2926 10.3707 56.1093 10.6936 55.8542 10.6099C55.8104 10.3907 55.9977 10.3986 56.0655 10.291Z" fill="#333333"/>
<path fill-rule="evenodd" clip-rule="evenodd" d="M58.3391 10.291H58.5503C58.6141 10.7294 58.8133 10.9686 58.8133 11.3472C58.5503 11.4309 58.5025 11.6541 58.2314 11.6102C58.2474 11.3791 58.5503 11.4349 58.6021 11.2396C58.4467 10.8331 58.4307 10.6896 58.3391 10.291Z" fill="#333333"/>
<path fill-rule="evenodd" clip-rule="evenodd" d="M45.2369 10.397C45.4322 10.3492 45.5916 10.3571 45.6594 10.6082C45.9623 11.7481 44.1568 10.664 45.2369 10.397ZM45.1333 10.8713C45.2329 10.8952 45.2648 10.9869 45.3963 10.9789C45.4122 10.9151 45.6115 10.7796 45.4481 10.7158C45.472 10.8992 45.1612 10.7477 45.1293 10.8753L45.1333 10.8713Z" fill="#333333"/>
<path fill-rule="evenodd" clip-rule="evenodd" d="M52.1627 10.821C51.9435 10.845 51.7761 10.821 51.7921 10.6098C51.9236 10.5022 52.2066 10.5859 52.1627 10.821Z" fill="#333333"/>
<path fill-rule="evenodd" clip-rule="evenodd" d="M50.8357 11.19C50.6882 11.3892 50.2977 11.3892 50.1502 11.19C49.9469 10.4407 51.0469 10.4327 50.8357 11.19ZM50.3614 11.1381C50.5009 11.1939 50.6603 11.178 50.6803 10.9787C50.5448 11.0026 50.4372 11.0544 50.3614 11.1381Z" fill="#333333"/>
<path fill-rule="evenodd" clip-rule="evenodd" d="M56.1139 10.7128C55.9305 10.9759 55.9584 10.9201 55.9545 11.2429C55.8309 11.2588 55.7512 11.2349 55.6914 11.1911C55.7871 10.9719 55.8548 11.0436 55.795 10.7168C55.9186 10.7009 56.0142 10.6132 56.1139 10.7168V10.7128Z" fill="#333333"/>
<path fill-rule="evenodd" clip-rule="evenodd" d="M52.8456 11.8255C52.6463 11.69 52.2159 11.5067 52.3155 11.2436C52.3036 11.132 52.0844 11.2277 52.0525 11.14C51.9927 10.9726 52.0286 11.0005 52.1043 10.877C52.2637 10.877 52.3115 10.9885 52.4231 11.0364C52.2996 11.3552 52.9692 11.5146 52.8456 11.8295V11.8255Z" fill="#333333"/>
<path fill-rule="evenodd" clip-rule="evenodd" d="M45.2919 11.3487C45.547 11.2252 45.7901 11.3567 45.818 11.6118C45.9296 12.5205 44.5147 11.7273 45.2919 11.3487ZM45.2919 11.7194C45.3636 11.8509 45.7463 11.7313 45.5549 11.6157C45.5789 11.7632 45.268 11.5759 45.2919 11.7194Z" fill="#333333"/>
<path fill-rule="evenodd" clip-rule="evenodd" d="M55.6416 11.293H55.8528C55.801 11.5281 55.7851 11.5281 55.7452 11.7154C55.5699 11.6198 55.7014 11.5241 55.6416 11.293Z" fill="#333333"/>
<path fill-rule="evenodd" clip-rule="evenodd" d="M50.043 11.4024C50.1904 11.2788 50.322 11.6176 50.306 11.8248C50.1386 11.7651 50.1586 11.514 50.043 11.4024Z" fill="#333333"/>
<path fill-rule="evenodd" clip-rule="evenodd" d="M64.6736 11.4044C64.7015 11.6435 64.566 11.7192 64.5142 11.8787C64.4465 11.512 64.1994 11.9384 64.1436 11.5598C64.4106 11.5997 64.4584 11.4163 64.6736 11.4004V11.4044Z" fill="#333333"/>
<path fill-rule="evenodd" clip-rule="evenodd" d="M50.3643 11.4541C50.4918 11.5219 50.5795 11.6255 50.5755 11.8248C50.3882 11.8168 50.3643 11.6494 50.3643 11.4541Z" fill="#333333"/>
<path fill-rule="evenodd" clip-rule="evenodd" d="M62.0365 11.7178C62.164 11.8254 62.176 12.1004 62.0365 12.1921C61.889 12.1363 61.9727 11.9848 61.7734 12.0884C61.7814 11.8852 61.9887 11.8812 62.0365 11.7178Z" fill="#333333"/>
<path fill-rule="evenodd" clip-rule="evenodd" d="M61.5064 11.8252C61.7216 11.8929 61.4267 12.1002 61.2952 12.1401C61.2872 11.9527 61.4745 11.9647 61.5064 11.8252Z" fill="#333333"/>
<path fill-rule="evenodd" clip-rule="evenodd" d="M69.3776 12.6161C69.3258 12.6161 69.3377 12.6798 69.3258 12.7237C69.2062 12.8153 69.0308 12.8512 68.7957 12.8273C68.0823 12.3251 69.4493 11.6236 69.3776 12.6161ZM68.9033 12.6161C69.0348 12.624 69.1225 12.5882 69.1663 12.5124C69.0029 12.4965 68.9272 12.3968 68.7957 12.353C68.7877 12.4845 68.8794 12.5164 68.9033 12.6161Z" fill="#333333"/>
<path fill-rule="evenodd" clip-rule="evenodd" d="M59.7096 12.5649C60.0125 12.4094 60.2915 12.5768 60.2915 12.8837C60.2875 13.7286 58.9922 12.9355 59.7096 12.5649ZM60.0803 12.9873C59.893 13.0192 59.8252 12.9275 59.7096 12.8837C59.6299 13.1667 60.0245 13.1308 60.0803 12.9873Z" fill="#333333"/>
<path fill-rule="evenodd" clip-rule="evenodd" d="M49.9395 12.5638C50.1068 12.5558 50.1228 12.6993 50.1507 12.8268C50.0112 12.8109 49.9713 12.6873 49.9395 12.5638Z" fill="#333333"/>
<path fill-rule="evenodd" clip-rule="evenodd" d="M54.847 13.2486C54.6677 13.3482 54.6797 13.42 54.4764 13.408C53.6235 13.3482 54.871 11.9812 54.847 13.2486ZM54.6876 13.145C54.5561 13.149 54.5242 13.2446 54.4246 13.145C54.4046 13.3243 54.7315 13.3682 54.6876 13.145Z" fill="#333333"/>
<path fill-rule="evenodd" clip-rule="evenodd" d="M62.457 13.7253C61.8592 13.1355 62.9632 12.6811 63.0389 13.3028C63.0708 13.5499 62.8915 13.7891 62.457 13.7253ZM62.8277 13.4623C62.6563 13.4942 62.5806 13.4264 62.457 13.4105C62.4491 13.6137 62.7719 13.5978 62.8277 13.4623Z" fill="#333333"/>
<path fill-rule="evenodd" clip-rule="evenodd" d="M51.785 13.1426C53.0604 12.9713 51.4901 14.3742 51.6256 13.3539C51.6455 13.2184 51.6415 13.2423 51.785 13.1426ZM51.785 13.5133C51.8846 13.5372 51.8806 13.6648 52.048 13.6209C52.0759 13.5412 52.1278 13.4894 52.1557 13.4097C51.9803 13.4934 51.8926 13.4575 51.785 13.5133Z" fill="#333333"/>
<path fill-rule="evenodd" clip-rule="evenodd" d="M68.6921 13.7245C68.4769 13.8281 68.158 13.7803 68.0584 13.6208C67.8711 12.7201 69.1903 13.1545 68.6921 13.7245ZM68.5845 13.4614C68.3852 13.5172 68.433 13.3299 68.2696 13.3538C68.2378 13.5411 68.5446 13.6607 68.5845 13.4614Z" fill="#333333"/>
<path fill-rule="evenodd" clip-rule="evenodd" d="M49.4119 13.8292C49.95 13.7017 49.9181 14.5666 49.4637 14.5666C49.0931 14.5666 48.8858 13.9528 49.4119 13.8292ZM49.675 14.2517C49.4956 14.3235 49.396 14.2238 49.3043 14.3035C49.4039 14.439 49.6311 14.439 49.675 14.2517Z" fill="#333333"/>
<path fill-rule="evenodd" clip-rule="evenodd" d="M65.2037 13.7768C65.3791 13.8685 65.4508 14.0598 65.415 14.3587C64.853 15.0163 64.2432 13.6772 65.2037 13.7768ZM65.1519 14.3069C64.9686 14.3149 64.9765 14.1275 64.837 14.0957C64.7852 14.3228 65.0802 14.5301 65.1519 14.3069Z" fill="#333333"/>
<path fill-rule="evenodd" clip-rule="evenodd" d="M57.1755 14.5713H57.3349C57.2472 14.659 57.291 14.8822 57.2831 15.0456C57.1356 15.1014 56.8925 15.0934 56.7012 15.0456C56.7649 14.8981 57.0399 14.9619 57.016 14.7307C57.1077 14.7108 57.1157 14.7706 57.1236 14.8383C57.2392 14.8463 57.1476 14.651 57.1755 14.5753V14.5713Z" fill="#333333"/>
<path fill-rule="evenodd" clip-rule="evenodd" d="M57.3888 14.6219C57.6041 14.602 57.4486 14.9527 57.4965 15.0962C57.2374 15.1241 57.353 14.7455 57.3888 14.6219Z" fill="#333333"/>
<path fill-rule="evenodd" clip-rule="evenodd" d="M54.8516 14.6752C55.1106 14.6632 55.0628 14.9542 55.0628 15.2013C54.8237 15.1933 54.8516 14.9223 54.8516 14.6752Z" fill="#333333"/>
<path fill-rule="evenodd" clip-rule="evenodd" d="M54.6947 14.7324C54.8701 14.7523 54.7784 15.0353 54.8024 15.2067C54.5672 15.0951 54.5234 15.2824 54.3799 15.2067V14.9955C54.6708 15.1708 54.5672 14.9476 54.6947 14.7324Z" fill="#333333"/>
<path fill-rule="evenodd" clip-rule="evenodd" d="M59.7659 14.7324C60.0011 14.7364 60.0011 15.0353 59.9253 15.2067C59.7141 15.2067 59.7779 14.9317 59.7659 14.7324Z" fill="#333333"/>
<path fill-rule="evenodd" clip-rule="evenodd" d="M57.5962 14.7812C57.7875 14.8171 57.6839 15.0881 57.5962 15.1519C57.4846 15.12 57.5484 14.8251 57.5962 14.7812Z" fill="#333333"/>
<path fill-rule="evenodd" clip-rule="evenodd" d="M59.5514 14.7812C59.7228 14.7972 59.6829 15.1798 59.4996 15.1519C59.4996 15.0124 59.4797 14.849 59.5514 14.7812Z" fill="#333333"/>
<path fill-rule="evenodd" clip-rule="evenodd" d="M55.1679 14.8848C55.3194 14.8927 55.419 14.9525 55.3792 15.1478C55.1839 15.1837 55.148 15.0641 55.1679 14.8848Z" fill="#333333"/>
<path fill-rule="evenodd" clip-rule="evenodd" d="M59.292 14.9424H59.4514V15.1536C59.2761 15.2054 59.2801 15.0819 59.292 14.9424Z" fill="#333333"/>
<path fill-rule="evenodd" clip-rule="evenodd" d="M52.2658 14.9922C52.4252 15.036 52.3933 15.4585 52.3694 15.5183C52.2658 15.4186 52.1462 15.1476 52.2658 14.9922Z" fill="#333333"/>
<path fill-rule="evenodd" clip-rule="evenodd" d="M55.4842 14.9922C55.6197 14.9962 55.7552 15.0002 55.7472 15.1516C55.5958 15.1636 55.4603 15.1596 55.4842 14.9922Z" fill="#333333"/>
<path fill-rule="evenodd" clip-rule="evenodd" d="M52.4761 15.0459C52.6794 15.0539 52.6914 15.2531 52.6874 15.4684C52.4841 15.4604 52.4722 15.2611 52.4761 15.0459Z" fill="#333333"/>
<path fill-rule="evenodd" clip-rule="evenodd" d="M60.1883 15.0459C60.2162 15.1814 60.28 15.2492 60.0807 15.2571C60.0528 15.1216 59.993 15.0539 60.1883 15.0459Z" fill="#333333"/>
<path fill-rule="evenodd" clip-rule="evenodd" d="M62.1387 15.1523C62.3061 15.1603 62.2622 15.5429 62.1905 15.6266C61.8836 15.6147 62.1307 15.3118 62.1387 15.1523Z" fill="#333333"/>
<path fill-rule="evenodd" clip-rule="evenodd" d="M52.7393 15.2061C52.7672 15.6046 53.1458 15.222 52.7393 15.2061V15.2061Z" fill="#333333"/>
<path fill-rule="evenodd" clip-rule="evenodd" d="M52.0495 15.2555C52.2368 15.2236 52.2089 15.411 52.2089 15.5744C52.1053 15.5744 52.1412 15.4309 51.9977 15.4668C51.9897 15.3711 52.0615 15.3552 52.0495 15.2555Z" fill="#333333"/>
<path fill-rule="evenodd" clip-rule="evenodd" d="M53.0058 15.2568C53.1572 15.213 53.1413 15.3325 53.2688 15.3086C53.221 15.4242 52.9739 15.4681 53.0058 15.2568Z" fill="#333333"/>
<path fill-rule="evenodd" clip-rule="evenodd" d="M62.3008 15.4677C62.4403 15.4517 62.4761 15.5394 62.4602 15.6789H62.3008V15.4677Z" fill="#333333"/>
<path fill-rule="evenodd" clip-rule="evenodd" d="M50.1504 15.6788C50.1584 15.615 50.246 15.6349 50.3098 15.627C50.3935 15.7545 50.4852 15.8741 50.4692 16.1012C50.2859 16.0375 50.254 15.8262 50.1544 15.6788H50.1504Z" fill="#333333"/>
<path fill-rule="evenodd" clip-rule="evenodd" d="M50.0426 15.6807C50.1502 15.7843 50.222 15.9238 50.202 16.1549C49.9669 16.1868 49.939 15.8241 50.0426 15.6807Z" fill="#333333"/>
<path fill-rule="evenodd" clip-rule="evenodd" d="M50.5241 15.7295C50.6317 15.7614 50.7234 15.8092 50.6835 15.9925C50.5201 16.0005 50.4444 15.8052 50.5241 15.7295Z" fill="#333333"/>
<path fill-rule="evenodd" clip-rule="evenodd" d="M63.9909 16.2073C63.8633 16.0957 63.963 15.7569 64.1503 15.7848C64.2579 15.9203 64.0666 16.0917 63.9909 16.2073Z" fill="#333333"/>
<path fill-rule="evenodd" clip-rule="evenodd" d="M64.4118 15.7881C64.4517 16.0392 64.3361 16.1348 64.2524 16.2624C64.0372 16.1827 64.2245 15.7961 64.4118 15.7881Z" fill="#333333"/>
<path fill-rule="evenodd" clip-rule="evenodd" d="M63.7236 15.8906H63.8831C63.899 16.0301 63.8631 16.1178 63.7236 16.1019V15.8906Z" fill="#333333"/>
<path fill-rule="evenodd" clip-rule="evenodd" d="M56.9609 17.3182C55.8529 17.4258 54.6732 17.4577 53.6329 17.6331C54.2866 17.5574 55.0518 16.7921 54.3184 16.2581C53.7605 16.2102 53.4177 16.3776 52.8916 16.3657C54.0713 16.0628 56.0043 15.8037 57.2239 16.0508C55.8887 15.8356 55.5579 17.3621 56.9609 17.3182ZM55.8529 16.6845C55.825 16.3936 55.6098 16.1026 55.1116 16.2621C53.8123 16.6766 55.9844 18.1074 55.8529 16.6845Z" fill="#333333"/>
<path fill-rule="evenodd" clip-rule="evenodd" d="M49.887 16.3142C49.7197 16.3023 49.7675 15.9715 49.9389 15.9954C50.0544 16.107 49.9508 16.2305 49.887 16.3142Z" fill="#333333"/>
<path fill-rule="evenodd" clip-rule="evenodd" d="M58.0167 16.1012C58.9294 15.9458 59.9258 16.165 60.7109 16.3124C60.2885 16.4121 59.9975 16.5556 59.9696 16.8943C59.9178 17.5639 60.8265 17.6755 61.2888 17.7911C60.966 17.9226 60.5635 17.6596 60.125 17.5798C59.5033 17.4683 58.8377 17.4443 58.0645 17.4204C58.2319 17.1534 58.6026 17.265 58.6982 16.9461C58.8417 16.4719 58.475 16.1849 58.0127 16.1012H58.0167ZM59.3359 17.3168C59.9895 17.3009 60.0613 15.9976 59.1765 16.2606C58.5547 16.444 58.77 17.3327 59.3359 17.3168Z" fill="#333333"/>
<path fill-rule="evenodd" clip-rule="evenodd" d="M64.4138 16.3631C64.3978 16.1718 64.4018 15.9965 64.625 16.0483C64.641 16.2396 64.637 16.4149 64.4138 16.3631Z" fill="#333333"/>
<path fill-rule="evenodd" clip-rule="evenodd" d="M58.0708 17.1598C59.5016 16.4066 56.5045 15.8645 56.2733 16.7374C56.4168 17.104 56.911 17.124 57.3813 17.1598C56.8712 17.2834 56.0422 17.2475 56.1657 16.6337C56.349 15.741 59.9121 16.3827 58.0668 17.1598H58.0708Z" fill="#333333"/>
<path fill-rule="evenodd" clip-rule="evenodd" d="M64.8311 16.4709C64.7274 16.5586 64.7633 16.4669 64.6198 16.4709C64.5959 16.3593 64.6557 16.3314 64.6716 16.2597C64.8111 16.2437 64.843 16.3314 64.8311 16.4709Z" fill="#333333"/>
<path fill-rule="evenodd" clip-rule="evenodd" d="M53.4788 16.4222C53.8494 16.3863 54.4433 16.2229 54.4831 16.7929C54.527 17.4066 51.9921 18.0603 51.8407 17.2672C51.7251 16.6534 52.7932 16.49 53.4788 16.4222ZM52.0001 17.1077C51.9523 17.857 54.4114 17.4146 54.3237 16.7929C54.2759 16.4501 53.9291 16.5179 53.6382 16.5298C53.1958 16.5458 52.028 16.6773 52.0001 17.1117V17.1077Z" fill="#333333"/>
<path fill-rule="evenodd" clip-rule="evenodd" d="M61.1914 16.4203C61.3628 16.2689 61.6298 16.4721 61.7733 16.524C61.6139 16.6635 61.3588 16.4482 61.1914 16.4203Z" fill="#333333"/>
<path fill-rule="evenodd" clip-rule="evenodd" d="M55.5421 16.4712C55.8809 16.8817 55.2671 17.3361 54.9602 16.9455C54.8566 16.4911 55.1993 16.3118 55.5421 16.4712ZM55.4903 16.79C55.3269 16.7701 55.2392 16.9136 55.1196 16.79C55.1396 17.0571 55.4584 17.0172 55.4903 16.79Z" fill="#333333"/>
<path fill-rule="evenodd" clip-rule="evenodd" d="M59.6558 16.5735C59.6797 16.9322 59.592 17.0637 59.3927 17.0996C58.6953 17.2311 59.0101 15.9398 59.6558 16.5735ZM59.4445 16.8923C59.2931 16.968 59.1775 16.7488 59.1297 16.8923C59.1974 16.968 59.4087 17.0836 59.4445 16.8923Z" fill="#333333"/>
<path fill-rule="evenodd" clip-rule="evenodd" d="M64.9915 16.6293C64.9237 16.6093 64.9078 16.5376 64.832 16.5217C64.8679 16.3024 65.1588 16.4977 64.9915 16.6293Z" fill="#333333"/>
<path fill-rule="evenodd" clip-rule="evenodd" d="M58.3366 16.7344C58.1054 17.1489 56.6906 17.2326 56.4873 16.7344C56.7344 16.3 58.0656 16.3956 58.3366 16.7344ZM57.9141 16.842C57.5594 16.8779 57.0692 16.7743 56.8061 16.8938C57.117 16.9576 57.679 17.0054 57.9141 16.842Z" fill="#333333"/>
<path fill-rule="evenodd" clip-rule="evenodd" d="M61.9781 17.6854C63.8912 17.3865 60.4875 15.9637 60.2882 16.8405C60.2244 17.1195 60.631 17.3267 60.7107 17.3706C60.9458 17.4981 61.1252 17.514 61.3962 17.5818C60.9658 17.7412 60.0969 17.3546 60.1288 16.8963C60.1567 16.4977 60.7386 16.4818 61.185 16.5256C61.9861 16.6053 63.5564 17.4981 61.9781 17.6894V17.6854Z" fill="#333333"/>
<path fill-rule="evenodd" clip-rule="evenodd" d="M65.9973 16.5771C65.9973 16.7684 65.8937 16.8601 65.7861 16.9478C65.5589 16.8402 65.3357 16.7286 65.1006 16.6329C65.4354 16.5094 65.5988 16.5652 65.9973 16.5811V16.5771Z" fill="#333333"/>
<path fill-rule="evenodd" clip-rule="evenodd" d="M48.9354 16.5762C48.9553 16.8512 48.501 16.9349 48.5129 16.628C48.7122 16.6678 48.764 16.5642 48.9354 16.5762Z" fill="#333333"/>
<path fill-rule="evenodd" clip-rule="evenodd" d="M61.9258 16.6317C62.0653 16.528 62.5077 16.5759 62.5077 16.7911C62.2566 16.7951 62.1131 16.6914 61.9258 16.6317Z" fill="#333333"/>
<path fill-rule="evenodd" clip-rule="evenodd" d="M62.3015 17.4197C61.6479 17.6269 60.6276 17.3997 60.4004 16.8378C61.0022 16.5269 62.1421 16.7899 62.3015 17.4197ZM61.0341 17.2084C61.4087 17.1407 61.6798 17.4595 61.0341 17.2084V17.2084Z" fill="#333333"/>
<path fill-rule="evenodd" clip-rule="evenodd" d="M62.6205 16.7363C62.7361 16.7443 62.7321 16.8679 62.7281 16.9994C62.5447 17.0352 62.5368 16.816 62.6205 16.7363Z" fill="#333333"/>
<path fill-rule="evenodd" clip-rule="evenodd" d="M51.4182 16.7852V17.0482C51.2109 16.9605 51.2548 16.9605 51.0475 17.0482C51.0077 17.0004 50.9917 16.9286 50.9957 16.837C51.2428 16.7891 51.1551 16.8968 51.4182 16.7852Z" fill="#333333"/>
<path fill-rule="evenodd" clip-rule="evenodd" d="M63.1967 16.9464C63.2206 17.1138 63.0532 17.0859 63.0372 17.2094C62.9097 17.2294 62.9217 17.1138 62.7742 17.1576C62.7662 17.0261 62.7662 16.9026 62.826 16.8428C63.0811 17.058 62.8978 16.9703 63.1967 16.9504V16.9464Z" fill="#333333"/>
<path fill-rule="evenodd" clip-rule="evenodd" d="M50.7826 16.9463H50.942V17.1575C50.8025 17.1735 50.7706 17.0858 50.7826 16.9463Z" fill="#333333"/>
<path fill-rule="evenodd" clip-rule="evenodd" d="M50.9928 18.3211C50.6899 18.09 50.5703 17.4164 50.5703 17.0537C50.8373 17.3486 50.9091 17.8389 50.9928 18.3211Z" fill="#333333"/>
<path fill-rule="evenodd" clip-rule="evenodd" d="M63.7267 17.2115C63.8104 17.3988 63.7945 17.7177 63.6749 17.8452C62.7144 18.2557 62.9216 16.6376 63.7267 17.2115ZM63.5155 17.634C63.3321 17.6738 63.2923 17.5742 63.2006 17.5264C63.1089 17.7735 63.4955 17.8094 63.5155 17.634Z" fill="#333333"/>
<path fill-rule="evenodd" clip-rule="evenodd" d="M51.4186 17.1577C51.6099 17.3092 51.6099 17.64 51.4186 17.7914C50.7889 17.9668 50.7889 16.9824 51.4186 17.1577ZM51.0997 17.5802C51.2313 17.6958 51.4903 17.6201 51.4704 17.4208C51.3309 17.4567 51.2034 17.5045 51.0997 17.5802Z" fill="#333333"/>
<path fill-rule="evenodd" clip-rule="evenodd" d="M63.5664 18.5313C63.682 18.0331 63.8613 17.5947 64.0407 17.1562C64.2121 17.5389 63.9052 18.3121 63.5664 18.5313Z" fill="#333333"/>
<path fill-rule="evenodd" clip-rule="evenodd" d="M65.8871 18.3198C65.5164 18.284 65.365 18.0329 65.0422 17.9492C65.2614 18.1525 65.632 18.2043 65.6759 18.5829C65.1657 18.834 64.4443 18.4633 64.3008 18.001C64.4085 17.8416 64.807 17.8774 64.9864 17.9492C64.8469 17.7738 64.3766 17.726 64.1932 17.8974C64.1653 18.7184 65.1298 18.543 65.4088 19.0612C64.819 18.8898 63.5994 18.4155 64.2451 17.6861C64.0617 17.6104 64.1893 17.3952 64.2451 17.2637C64.3845 17.2995 64.5121 17.3474 64.6157 17.4231C64.6994 17.6303 64.3885 17.443 64.4045 17.5825C64.9585 17.7698 65.6201 17.8496 65.8831 18.3238L65.8871 18.3198Z" fill="#333333"/>
<path fill-rule="evenodd" clip-rule="evenodd" d="M62.7228 18.2127C62.6072 18.2047 62.6072 18.0811 62.6152 17.9496C62.5155 17.9696 62.5753 18.1529 62.4039 18.109C62.3641 17.6348 62.671 17.8221 62.8782 17.6348C63.0177 17.842 62.8543 18.117 62.7188 18.2167L62.7228 18.2127Z" fill="#333333"/>
<path fill-rule="evenodd" clip-rule="evenodd" d="M52.372 17.6864C52.5115 17.6705 52.5434 17.7582 52.5315 17.8977C52.392 17.9136 52.3043 17.8777 52.3202 17.7382C52.3641 17.7462 52.3681 17.7183 52.372 17.6864Z" fill="#333333"/>
<path fill-rule="evenodd" clip-rule="evenodd" d="M51.5186 17.7383H51.7298C51.7696 17.8499 51.8573 18.0332 51.7816 18.1089C51.5823 18.097 51.5744 17.8937 51.5186 17.7383Z" fill="#333333"/>
<path fill-rule="evenodd" clip-rule="evenodd" d="M51.8422 17.7383H52.0016V18.0013C51.8382 18.0252 51.8342 17.8897 51.8422 17.7383Z" fill="#333333"/>
<path fill-rule="evenodd" clip-rule="evenodd" d="M52.0507 17.7395C52.2659 17.6797 52.3098 17.9029 52.2101 18.0026C52.1185 17.9547 52.0268 17.9029 52.0507 17.7395Z" fill="#333333"/>
<path fill-rule="evenodd" clip-rule="evenodd" d="M61.4023 17.842C61.5578 17.7264 61.8926 17.8778 62.036 17.9456C61.8647 18.0771 61.5937 17.8619 61.4023 17.842Z" fill="#333333"/>
<path fill-rule="evenodd" clip-rule="evenodd" d="M51.046 17.8447C51.2412 17.8527 51.3728 18.1118 51.2572 18.2672C51.0021 18.319 50.9543 17.9723 51.046 17.8447Z" fill="#333333"/>
<path fill-rule="evenodd" clip-rule="evenodd" d="M62.1382 17.8447H62.2977C62.3096 17.9962 62.3056 18.1317 62.1382 18.1078C62.1024 17.9444 62.1024 18.0081 62.1382 17.8447Z" fill="#333333"/>
<path fill-rule="evenodd" clip-rule="evenodd" d="M51.3125 17.9502C51.3284 17.8785 51.444 17.9064 51.5237 17.8984C51.5038 18.026 51.6194 18.014 51.5755 18.1615C51.3484 18.2292 51.4082 18.01 51.3125 17.9502Z" fill="#333333"/>
<path fill-rule="evenodd" clip-rule="evenodd" d="M62.932 17.9508C63.1273 17.9149 63.1592 18.0424 63.3545 18.0026V18.162C63.4781 18.1461 63.4542 17.9787 63.6176 18.0026C63.6335 18.1939 63.5179 18.2577 63.51 18.4251C63.3705 18.441 63.3346 18.3533 63.3505 18.2138C63.215 18.4729 63.0556 18.2856 62.8763 18.2656C62.8364 18.1022 62.9281 18.0743 62.9281 17.9508H62.932Z" fill="#333333"/>
<path fill-rule="evenodd" clip-rule="evenodd" d="M50.7332 18.4233C50.4542 18.3038 50.5698 18.523 50.3107 18.5309C50.2988 18.228 50.9046 18.0009 50.7332 18.4233Z" fill="#333333"/>
<path fill-rule="evenodd" clip-rule="evenodd" d="M63.8866 18.3193C64.0659 18.3353 64.1337 18.702 63.8347 18.6342C63.8268 18.5027 63.8268 18.3791 63.8866 18.3193Z" fill="#333333"/>
<path fill-rule="evenodd" clip-rule="evenodd" d="M64.308 18.7418C64.2283 18.8254 64.0091 18.8175 64.0449 18.6341C64.1247 18.5504 64.3439 18.5584 64.308 18.7418Z" fill="#333333"/>
<path fill-rule="evenodd" clip-rule="evenodd" d="M60.662 18.9535C60.5465 18.9136 60.3671 18.8259 60.5026 18.6904C60.6062 18.7263 60.6421 18.8299 60.662 18.9535Z" fill="#333333"/>
<path fill-rule="evenodd" clip-rule="evenodd" d="M64.4109 18.6904C64.5025 18.7383 64.5942 18.7901 64.5703 18.9535C64.3989 18.9694 64.2873 18.81 64.4109 18.6904Z" fill="#333333"/>
<path fill-rule="evenodd" clip-rule="evenodd" d="M56.0158 18.7437C56.0318 18.8832 55.9441 18.9191 55.8046 18.9032C55.7887 18.7637 55.8763 18.7278 56.0158 18.7437Z" fill="#333333"/>
<path fill-rule="evenodd" clip-rule="evenodd" d="M57.6504 18.7458C57.762 18.7219 57.7899 18.7817 57.8616 18.7976C57.8497 18.8893 57.77 18.9172 57.6504 18.9012V18.7418V18.7458Z" fill="#333333"/>
<path fill-rule="evenodd" clip-rule="evenodd" d="M58.2853 18.7445C58.4527 18.7006 58.4487 18.8282 58.5484 18.8481C58.5244 18.9517 58.1777 18.9437 58.2853 18.7445Z" fill="#333333"/>
<path fill-rule="evenodd" clip-rule="evenodd" d="M59.5021 18.8975C59.542 19.1007 59.251 19.1007 59.2909 18.8975C59.3945 18.8098 59.3586 18.9015 59.5021 18.8975Z" fill="#333333"/>
<path fill-rule="evenodd" clip-rule="evenodd" d="M65.31 19.2692C65.031 19.4246 64.8278 19.0978 64.6245 19.0061C64.6086 18.9224 64.6763 18.9144 64.6763 18.8467C64.8995 18.9782 65.2263 18.9981 65.31 19.2692Z" fill="#333333"/>
<path fill-rule="evenodd" clip-rule="evenodd" d="M61.3488 19.0577C61.2053 19.0537 61.2412 19.1454 61.1376 19.0577C61.0977 18.8545 61.3886 18.8545 61.3488 19.0577Z" fill="#333333"/>
<path fill-rule="evenodd" clip-rule="evenodd" d="M55.4333 19.0084C55.4492 19.1479 55.4134 19.2356 55.2739 19.2196C55.246 19.1758 55.2181 19.132 55.2221 19.0602C55.2699 19.0204 55.3416 19.0044 55.4333 19.0084Z" fill="#333333"/>
<path fill-rule="evenodd" clip-rule="evenodd" d="M55.5391 19.0078H55.7503C55.8141 19.1911 55.4554 19.2549 55.5391 19.0078Z" fill="#333333"/>
<path fill-rule="evenodd" clip-rule="evenodd" d="M56.4892 19.0065C56.6287 18.9906 56.7522 18.9906 56.7004 19.166C56.5609 19.1819 56.4732 19.146 56.4892 19.0065Z" fill="#333333"/>
<path fill-rule="evenodd" clip-rule="evenodd" d="M57.966 19.0078H58.1254C58.1175 19.0676 58.1374 19.1035 58.1773 19.1114C58.1653 19.2748 57.9142 19.1991 57.966 19.0078Z" fill="#333333"/>
<path fill-rule="evenodd" clip-rule="evenodd" d="M58.334 19.0058C58.4734 18.9898 58.5053 19.0775 58.4934 19.217C58.3539 19.2329 58.2662 19.1971 58.2821 19.0576C58.326 19.0656 58.33 19.0377 58.334 19.0058Z" fill="#333333"/>
<path fill-rule="evenodd" clip-rule="evenodd" d="M60.3982 19.008C60.5497 18.996 60.6852 19 60.6613 19.1674C60.5736 19.2551 60.3504 19.2113 60.3982 19.008Z" fill="#333333"/>
<path fill-rule="evenodd" clip-rule="evenodd" d="M61.4557 19.0084C61.5314 19.0363 61.7267 18.9446 61.7188 19.0602C61.7546 19.2674 61.4079 19.1439 61.4557 19.0084Z" fill="#333333"/>
<path fill-rule="evenodd" clip-rule="evenodd" d="M55.1155 19.0579V19.2173C55.0039 19.2412 54.976 19.1814 54.9043 19.1655C54.9163 19.0738 54.996 19.0459 55.1155 19.0619V19.0579Z" fill="#333333"/>
<path fill-rule="evenodd" clip-rule="evenodd" d="M57.3906 19.1132C57.4145 19.0414 57.8689 18.9856 57.8131 19.165C57.6457 19.0534 57.5182 19.2128 57.3906 19.1132Z" fill="#333333"/>
<path fill-rule="evenodd" clip-rule="evenodd" d="M58.8656 19.0599C58.8895 19.1715 58.8297 19.1994 58.8138 19.2711C58.6703 19.311 58.7062 19.1675 58.6025 19.1635C58.6464 19.0838 58.7341 19.0479 58.8656 19.0599Z" fill="#333333"/>
<path fill-rule="evenodd" clip-rule="evenodd" d="M59.2345 19.1152H59.4976C59.5494 19.3265 59.1827 19.3265 59.2345 19.1152Z" fill="#333333"/>
<path fill-rule="evenodd" clip-rule="evenodd" d="M62.0351 19.113C62.1746 19.097 62.2981 19.097 62.2463 19.2724C62.1068 19.2883 62.0191 19.2525 62.0351 19.113Z" fill="#333333"/>
<path fill-rule="evenodd" clip-rule="evenodd" d="M59.5508 19.2206C59.5627 19.1449 59.9852 19.0971 59.9214 19.2724C59.7819 19.2724 59.6185 19.2923 59.5508 19.2206Z" fill="#333333"/>
<path fill-rule="evenodd" clip-rule="evenodd" d="M60.2386 19.3222C60.127 19.4378 60.0673 19.3142 59.9756 19.2704C59.9796 19.115 60.2904 19.1309 60.2386 19.3222Z" fill="#333333"/>
<path fill-rule="evenodd" clip-rule="evenodd" d="M57.068 19.271C56.6336 19.4384 55.7886 19.4703 55.2705 19.3786C55.7807 19.267 56.5977 19.2511 57.068 19.271Z" fill="#333333"/>
<path fill-rule="evenodd" clip-rule="evenodd" d="M58.2334 19.2695C58.3808 19.2257 58.3689 19.3452 58.4964 19.3213C58.4924 19.4768 58.1815 19.4648 58.2334 19.2695Z" fill="#333333"/>
<path fill-rule="evenodd" clip-rule="evenodd" d="M60.3443 19.2715C60.6193 19.3353 60.7827 19.1798 60.8744 19.4309C60.6791 19.399 60.3164 19.5305 60.3443 19.2715Z" fill="#333333"/>
<path fill-rule="evenodd" clip-rule="evenodd" d="M58.5489 19.3213H59.0789V19.4289C58.9195 19.3771 58.5449 19.5405 58.5489 19.3213Z" fill="#333333"/>
<path fill-rule="evenodd" clip-rule="evenodd" d="M59.4427 19.4824C59.3152 19.5023 59.3272 19.3867 59.1797 19.4306C59.1837 19.2751 59.4945 19.2911 59.4427 19.4824Z" fill="#333333"/>
<path fill-rule="evenodd" clip-rule="evenodd" d="M57.4929 8.44517C57.8436 9.05895 56.7795 9.27018 56.9628 8.49698C57.0864 8.38937 57.3175 8.35749 57.4929 8.44517Z" fill="#333333"/>
<path fill-rule="evenodd" clip-rule="evenodd" d="M65.5192 7.75624C65.6945 7.74429 65.7264 8.0153 65.6268 8.1269C65.838 8.17871 65.6467 7.83197 65.838 7.86385C66.1808 7.80008 66.0572 8.12291 66.1011 8.23451C66.2445 8.27437 66.0612 7.98741 66.2047 8.02328C66.38 7.96748 66.2884 8.18668 66.3083 8.28632C66.4079 8.27835 66.3402 8.10697 66.4159 8.07509C68.1576 8.4019 69.0663 11.3393 67.5797 12.6186C67.6355 12.8179 67.4482 12.7701 67.4761 12.9375C67.2569 12.9813 67.229 13.2205 67.1054 13.36C66.8623 13.4317 66.8025 13.6908 66.5235 13.7306C66.7627 13.3002 67.1811 13.0531 67.4721 12.6744C67.1054 12.7302 66.934 13.4397 66.4159 13.5194C67.0456 12.6784 68.0221 12.0168 67.8427 10.5621C67.6953 9.37438 66.8982 8.66495 65.7822 8.34212C65.6666 8.19465 65.4315 7.94356 65.5192 7.76023V7.75624Z" fill="#333333"/>
<path fill-rule="evenodd" clip-rule="evenodd" d="M69.535 9.28433C69.6027 9.43578 69.6027 9.65897 69.535 9.81441C69.3357 9.88615 69.244 9.94593 69.0049 9.86622C68.6542 9.49158 69.1524 8.92562 69.535 9.28433Z" fill="#333333"/>
<path fill-rule="evenodd" clip-rule="evenodd" d="M61.3438 15.3655C61.4754 15.3575 61.5989 15.3575 61.6069 15.4691C61.7464 15.2937 61.8261 15.3495 62.0293 15.2061C62.0612 15.3974 61.9696 15.4611 61.9217 15.5767C61.7862 15.3495 61.4116 15.7043 61.3398 15.3655H61.3438Z" fill="#333333"/>
<path fill-rule="evenodd" clip-rule="evenodd" d="M50.6278 16.5765C52.3894 15.9388 55.0039 15.6638 57.5467 15.7834C59.4996 15.8751 61.4565 15.9747 62.8276 16.6283C58.5511 15.4088 52.0347 15.5283 48.9379 17.6845C49.1172 17.8639 49.7031 17.6008 49.6234 17.3657C49.8625 17.3776 49.743 17.4972 49.994 17.4175C49.8625 17.3099 50.1535 17.0707 50.3647 17.2062C50.5042 17.4175 50.2013 17.2062 50.1535 17.3139C50.4883 17.4015 50.6198 17.549 50.6278 17.7881C50.6477 18.2584 49.8306 18.4139 49.994 18.7407C49.8825 18.7646 49.8944 18.665 49.8864 18.5813C49.6672 18.6211 49.8227 18.7088 49.727 18.8443C49.5556 18.9121 49.6872 18.6729 49.5158 18.7407C49.3843 18.7805 49.6911 18.9001 49.5158 19.0037C49.3564 19.0556 49.4201 18.8842 49.4082 18.7925C49.1132 18.8443 49.452 18.9519 49.3045 19.1074C49.0734 19.0476 49.169 18.94 49.0415 18.8443C49.3364 18.3581 50.5799 18.4218 50.4683 17.7881C50.3567 17.1544 49.2607 17.9396 48.8821 18.0512C48.8263 17.8559 48.9937 17.8798 49.0415 17.7881C48.89 17.541 48.6071 17.9396 48.356 17.7363C48.1647 17.0787 48.9698 16.8396 49.464 16.6283C53.7126 14.779 60.5797 14.9066 64.8323 16.732C65.3783 16.9671 66.1316 17.1744 66.2073 17.7363C65.7689 17.9954 65.2468 17.5689 64.7805 17.3657C64.2823 17.1505 63.7682 16.9552 63.3019 16.7838C63.3417 16.6642 63.5968 16.7639 63.7243 16.732C60.2928 15.3609 54.1351 15.0979 50.6238 16.5725L50.6278 16.5765Z" fill="#333333"/>
<path fill-rule="evenodd" clip-rule="evenodd" d="M52.3171 16.4717C52.2214 16.6869 52.1257 16.5873 51.8946 16.6829C51.7152 16.9181 51.7511 17.1612 51.791 17.5279C51.5957 17.3565 51.5199 17.0615 51.5279 16.6829C51.6076 16.7985 51.7192 16.934 51.6873 16.6311C51.9703 16.6909 52.0062 16.4876 52.321 16.4717H52.3171Z" fill="#333333"/>
<path fill-rule="evenodd" clip-rule="evenodd" d="M54.162 16.7368C53.9548 17.3267 52.8109 17.4662 52.1533 17.2669C52.3486 16.6571 53.5044 16.5495 54.162 16.7368Z" fill="#333333"/>
<path fill-rule="evenodd" clip-rule="evenodd" d="M48.9873 18.3203C49.1587 17.8739 49.6928 17.7942 50.1471 17.6348C50.8047 18.0851 49.3022 18.687 48.9873 18.3203Z" fill="#333333"/>
<path fill-rule="evenodd" clip-rule="evenodd" d="M54.6396 5.75055C55.1099 5.60707 55.1338 6.3165 54.799 6.38426C54.4841 6.44404 54.1055 5.91396 54.6396 5.75055Z" fill="#333333"/>
<path fill-rule="evenodd" clip-rule="evenodd" d="M60.241 5.96268C60.3167 6.50073 59.7707 6.58442 59.5554 6.28152C59.408 5.71956 60.0696 5.61992 60.241 5.96268Z" fill="#333333"/>
<path fill-rule="evenodd" clip-rule="evenodd" d="M61.8736 6.06419C61.9174 6.19571 61.9414 6.34716 61.9254 6.53847C61.1841 7.24392 61.0008 5.52614 61.8736 6.06419Z" fill="#333333"/>
<path fill-rule="evenodd" clip-rule="evenodd" d="M64.7313 6.32897C64.7711 6.58006 64.6556 6.67571 64.5719 6.80325C64.3008 6.84709 64.1574 6.75941 64.0418 6.64383C63.8943 6.08186 64.5559 5.98222 64.7273 6.32498L64.7313 6.32897Z" fill="#333333"/>
<path fill-rule="evenodd" clip-rule="evenodd" d="M63.0899 6.64959C62.9504 5.96806 63.6837 5.96009 63.7754 6.33075C63.871 6.70937 63.4326 6.99235 63.0899 6.64959Z" fill="#333333"/>
<path fill-rule="evenodd" clip-rule="evenodd" d="M65.3087 6.17279C65.6554 6.06916 65.8109 6.25649 65.8348 6.49164C65.9464 7.55977 64.2724 6.48765 65.3087 6.17279Z" fill="#333333"/>
<path fill-rule="evenodd" clip-rule="evenodd" d="M66.2623 6.5384C66.5572 6.38695 66.8083 6.53442 66.8442 6.80145C66.9558 7.72211 65.4891 6.93297 66.2623 6.5384Z" fill="#333333"/>
<path fill-rule="evenodd" clip-rule="evenodd" d="M57.4933 6.96051C57.4854 7.0203 57.5053 7.05617 57.5452 7.06414C57.6488 7.51052 57.1267 7.59023 56.9633 7.32718C56.8915 6.95254 57.2144 6.825 57.4933 6.95653V6.96051Z" fill="#333333"/>
<path fill-rule="evenodd" clip-rule="evenodd" d="M67.7381 7.01886C68.0211 7.71235 67.0327 7.87177 66.945 7.3377C66.8812 6.94313 67.3834 6.6761 67.7381 7.01886Z" fill="#333333"/>
<path fill-rule="evenodd" clip-rule="evenodd" d="M55.3266 8.28309C55.1513 7.68127 54.5773 7.48598 54.3223 6.96387C55.7332 7.43416 56.1756 9.93312 55.4303 11.4516C55.4263 11.7545 55.8766 11.8302 55.7451 12.0853C54.665 11.7944 55.5976 10.7661 55.5339 9.60231C55.4701 8.45846 54.8045 7.98417 54.3701 7.27873C54.8085 7.49395 55.0118 7.93635 55.3226 8.28309H55.3266Z" fill="#333333"/>
<path fill-rule="evenodd" clip-rule="evenodd" d="M60.2379 7.01785C60.5488 7.00589 59.9988 7.40046 60.2897 7.22908C60.1263 7.528 59.6999 7.63162 59.4448 7.9704C58.8469 8.75954 58.8589 10.2382 59.2854 11.402C59.1259 11.4897 59.0263 11.6331 58.7553 11.6132C58.7274 11.4259 58.9426 11.4817 58.9147 11.2983C58.3408 9.58854 58.7194 7.4164 60.2339 7.01785H60.2379Z" fill="#333333"/>
<path fill-rule="evenodd" clip-rule="evenodd" d="M64.2502 8.65102C64.9078 8.34812 64.8241 9.24886 64.4615 9.28473C64.2741 9.30466 63.7241 8.89414 64.2502 8.65102Z" fill="#333333"/>
<path fill-rule="evenodd" clip-rule="evenodd" d="M59.0236 6.91192C58.087 7.69309 57.7602 9.91305 58.4417 11.2442C58.2066 11.0928 58.0591 11.0091 58.0193 10.7699C57.8678 10.8895 57.8598 10.8457 57.7044 10.9812C57.6765 10.6384 57.816 10.1323 57.4932 10.0844C57.7921 9.8732 57.8479 9.28732 57.545 9.02826C57.7323 8.6576 57.7482 7.96411 57.545 7.60142C57.6446 7.41809 57.808 7.10721 57.5968 6.9159C58.099 6.63692 58.7606 6.20249 59.0236 6.9159V6.91192Z" fill="#333333"/>
<path fill-rule="evenodd" clip-rule="evenodd" d="M69.3283 10.0811C69.5276 10.0293 69.7787 10.0891 69.8026 10.3959C69.8823 11.4242 68.3319 10.3322 69.3283 10.0811Z" fill="#333333"/>
<path fill-rule="evenodd" clip-rule="evenodd" d="M64.6244 10.8227C64.6722 11.1854 64.5128 11.3448 64.1501 11.297C63.7157 10.9781 64.3055 10.3843 64.6244 10.8227Z" fill="#333333"/>
<path fill-rule="evenodd" clip-rule="evenodd" d="M69.7491 11.2423C69.9006 11.876 69.2589 12.0035 69.0078 11.6648C68.8404 11.0789 69.4861 10.9394 69.7491 11.2423Z" fill="#333333"/>
<path fill-rule="evenodd" clip-rule="evenodd" d="M45.9252 12.2479C46.3756 12.6066 45.4828 13.2324 45.2915 12.6704C45.1958 12.3914 45.3832 12.0486 45.9252 12.2479Z" fill="#333333"/>
<path fill-rule="evenodd" clip-rule="evenodd" d="M57.227 12.4018C57.4342 12.2902 57.6694 12.3699 57.6495 12.6648C57.6096 13.2626 56.7128 12.6768 57.227 12.4018Z" fill="#333333"/>
<path fill-rule="evenodd" clip-rule="evenodd" d="M45.6639 13.1449C45.8711 12.8061 46.3335 12.9575 46.3494 13.2485C46.3733 13.667 45.6001 13.8503 45.6639 13.1449Z" fill="#333333"/>
<path fill-rule="evenodd" clip-rule="evenodd" d="M64.9931 14.6234C64.7858 15.0698 64.8894 15.8749 65.4155 15.9984C66.3561 16.2176 66.4159 15.4006 65.575 15.3647C65.575 15.1375 65.8221 15.1575 65.8938 14.994C65.8699 14.719 65.7583 14.5317 65.7344 14.2527C65.9695 14.2288 66.1289 14.2806 66.3163 14.3045C66.4478 14.189 66.4438 13.9419 66.5793 13.8303C66.7348 13.8701 66.8384 13.9578 66.95 14.0415C67.1612 13.9538 67.1851 13.6788 67.4243 13.619C67.6395 13.6669 67.6554 13.914 67.8467 13.9897C68.1735 13.9658 68.3688 13.8063 68.7435 13.8303C68.4844 14.3085 68.1138 14.6792 67.6355 14.9382C67.6156 14.5636 67.9543 14.5556 68.058 14.3045C67.6196 14.6274 67.4163 14.6752 66.8942 14.6234C66.8145 14.6473 66.9141 14.6911 66.8942 14.7828C66.7627 14.7908 66.7308 14.6991 66.6311 14.6792C66.5116 14.9462 66.6391 15.1136 66.4717 15.2611C66.5833 15.3767 66.7826 15.4085 66.8424 15.5799C66.6152 16.7039 64.5268 16.7796 64.5188 15.4205C63.7336 16.0104 62.4343 15.7752 62.247 14.7868C61.6532 15.556 60.0589 15.2531 59.8158 14.3643C59.2977 15.2013 57.6955 15.1535 57.3328 14.2049C57.002 15.0578 55.1846 15.2172 54.798 14.3085C54.4871 15.2212 52.8769 15.5281 52.315 14.6274C52.1157 15.568 50.7526 16.1339 49.9914 15.3129C49.9595 16.6441 47.8671 16.7318 47.5602 15.5759C47.6718 15.3886 47.7116 15.1296 48.0345 15.1535C48.0823 14.9821 47.8631 15.0777 47.8232 14.994C47.891 14.7629 48.0664 14.6393 48.1939 14.464C47.9667 14.6513 47.8551 14.4082 47.612 14.5158C47.5682 14.3643 47.6877 14.3803 47.6638 14.2527C47.5163 14.2607 47.5961 14.5038 47.4008 14.464C47.5522 14.1969 47.054 14.5596 47.0819 14.0933C47.0062 14.3205 47.0421 14.452 47.0301 14.6234C46.779 14.6473 46.7989 14.3962 46.6076 14.3603C46.6076 14.6035 46.9105 14.5516 46.8707 14.8346C46.3047 14.6593 46.1493 14.0774 45.7627 13.7266C45.9859 13.5752 46.2569 13.8303 46.504 13.8303C46.6754 13.7386 46.6714 13.4676 46.8747 13.4078C47.1337 13.4636 47.1337 13.7824 47.1895 14.0415C47.612 13.9698 47.6558 13.5234 48.0345 13.4078C48.158 13.5672 48.1182 13.8861 48.1939 14.0933C48.2656 14.1969 48.5167 14.1212 48.6164 14.1969C48.6522 14.5676 48.3573 14.6074 48.2457 14.8306C48.3772 14.9303 48.6203 14.9143 48.72 15.0419C48.6283 15.3009 48.2218 15.2491 47.9787 15.3607C48.1182 15.6596 48.5725 16.0901 49.0348 15.9944C49.6446 15.8669 49.4294 15.0618 49.6167 14.5676C50.1149 14.6393 50.4697 15.3687 51.1472 15.2531C51.5497 15.1854 52.0918 14.5955 51.7809 14.0375C51.482 14.2328 51.1671 14.4122 50.6729 14.4082V14.0375C50.5254 13.8821 50.2265 13.8861 50.0392 13.7745C50.0113 13.5194 50.2504 13.5274 50.3023 13.352C50.2504 13.2284 50.0392 13.2643 50.0392 13.0889C50.2744 12.9734 50.7447 13.0889 50.9918 12.9853C50.8961 12.6067 50.4178 12.6107 50.1986 12.3516C50.1907 12.1125 50.5135 12.2081 50.6729 12.1404C50.8084 11.9969 50.7965 11.702 50.8842 11.5067C51.215 11.5266 51.2907 11.8016 51.5179 11.9291C51.7889 11.973 51.8646 11.8175 52.0997 11.8255C52.2113 12.0128 52.1276 12.3955 52.1516 12.6705C52.586 12.6306 52.7614 12.3317 53.2077 12.2998C53.1998 12.4513 53.2356 12.6465 53.1559 12.7223C53.3233 12.9255 53.7298 12.8857 53.7896 13.1966C53.5784 13.3002 53.3672 13.4078 53.1559 13.5114C53.1559 13.7386 53.419 13.7067 53.419 13.9339C53.1759 14.1371 52.7574 13.9379 52.4704 13.8821C52.3508 14.9901 54.6944 15.2531 54.4233 13.6708C54.5509 13.5672 54.7422 13.4995 54.8976 13.5672C54.8976 14.7629 57.0937 14.9741 56.9582 13.5154C56.5875 13.5274 56.0415 13.7625 55.7426 13.5154C55.7585 13.3918 55.7984 13.2882 55.902 13.2524C55.8063 13.0491 55.5353 13.0212 55.3201 12.9375C55.3599 12.6944 55.607 12.6625 55.7426 12.515C55.7665 12.3476 55.5791 12.3955 55.6389 12.1962C56.0694 12.1882 56.4958 12.1842 56.8027 12.2998C56.8306 11.8654 56.6234 11.6701 56.5397 11.3512C56.9701 11.3751 57.0578 11.0603 57.281 10.877C57.5082 11.0563 57.5799 11.3911 58.0223 11.3512C57.9545 11.6183 57.843 11.8415 57.7593 12.0926C58.0422 12.1483 58.4488 11.8694 58.923 11.9331C58.9071 12.0965 58.8075 12.1723 58.7636 12.3038C58.8951 12.4911 59.1263 12.5748 59.2379 12.7781C59.1383 12.9574 58.923 13.0252 58.7118 13.0929C58.668 13.348 58.8633 13.3639 58.8154 13.623C58.3132 13.7824 57.8828 13.5274 57.5998 13.3042C57.5879 13.9299 57.8709 14.2647 58.2335 14.5198C58.9629 14.6154 59.3057 14.3245 59.5009 13.8861C59.497 13.5473 59.5249 13.2404 59.9234 13.3042C59.7441 14.735 61.7966 15.4404 62.1434 13.9897C61.8684 13.7984 61.41 14.1212 61.139 13.9379C61.4539 13.4516 60.9477 13.3281 60.7684 13.0411C60.9756 12.8618 61.3542 12.8538 61.6133 12.7263C61.701 12.7183 61.5575 12.507 61.6133 12.3556C61.9441 12.3795 62.2111 12.4632 62.4582 12.5668C62.6535 12.3197 62.2749 11.961 62.4064 11.7737C62.9963 11.9331 63.3032 11.5226 63.9369 11.4549C63.9688 11.7338 63.897 11.9092 63.8851 12.1404C64.0764 12.232 64.3793 12.2121 64.5706 12.2998C64.4749 12.6426 64.0804 12.6904 63.8293 12.8817C64.0804 13.0013 64.5228 12.9295 64.6742 13.1447C64.8097 13.344 64.4032 13.3839 64.3594 13.5672C64.3992 13.7665 64.4749 14.0813 64.3075 14.2009C64.0963 14.2368 64.0046 14.1491 63.8333 14.1491C63.618 14.2089 63.8213 14.3843 63.7815 14.5716C63.2872 14.5556 63.076 14.2567 62.7771 14.0455C62.4861 14.4281 62.7771 15.0857 63.0401 15.2611C63.9409 15.5281 64.3873 14.9303 64.73 14.4679C64.8416 14.4998 64.9014 14.5795 64.9931 14.6274V14.6234ZM56.3842 12.7223C56.2487 12.7263 56.1331 12.7502 56.0654 12.8259C56.3484 12.794 56.4241 13.0531 56.6473 12.9335C56.6114 13.0571 56.4719 13.073 56.436 13.1966C56.6513 13.1447 56.7111 13.1408 56.8067 13.3042C57.2212 13.0252 57.9346 13.2404 58.2335 13.3042C58.2056 13.1726 58.1299 13.0531 58.0741 12.8299C58.2335 12.8139 58.4846 12.8897 58.4966 12.7263C58.3571 12.6426 58.114 12.5668 58.2335 12.3038C57.9466 12.3357 57.7553 12.4234 57.5998 12.2002C57.5281 12.0487 57.7433 11.9331 57.5998 11.8853C57.4524 11.9331 57.3966 11.7498 57.285 11.5665C57.3448 11.9889 57.0458 11.7498 56.9701 11.9889C57.0578 12.0407 57.0259 12.2121 57.0777 12.3038C56.9661 12.511 56.3324 12.3516 56.2328 12.4114C56.4042 12.507 56.2607 12.5907 56.3922 12.7302L56.3842 12.7223ZM63.355 12.248C63.347 12.3835 63.2793 12.4513 63.1438 12.4592C63.1438 12.2121 63.0242 12.523 62.9325 12.511C62.9843 12.2799 62.8169 12.2759 62.7213 12.1922C62.797 12.3875 62.8289 12.8139 62.6137 12.8777C62.4662 12.7781 62.251 12.7462 62.0836 12.6665C62.0995 12.7701 62.0119 12.7701 61.976 12.8259C62.0477 12.8618 62.0756 12.9375 62.0836 13.0371C61.9202 13.0331 61.7887 13.061 61.7129 13.1447C61.8445 13.1368 61.9321 13.1726 61.976 13.2484C61.701 13.2045 62.0956 13.5034 61.8166 13.4596C61.8126 13.6031 61.9042 13.5672 61.8166 13.6708C62.4184 13.5792 62.793 13.9977 63.1916 13.9339C62.9883 13.8183 63.4626 13.6429 63.6141 13.619C63.5543 13.6071 63.5304 13.5592 63.5064 13.5114C63.7735 13.4795 63.913 13.639 63.9807 13.4078C63.7615 13.4237 63.7695 13.344 63.8213 13.1966C63.6778 13.1647 63.4028 13.2643 63.347 13.1447C63.3391 12.8897 63.6738 12.9773 63.6659 12.7223C63.4347 12.6665 63.4945 12.9016 63.2952 12.8817C63.3869 12.5828 63.3072 12.5668 63.347 12.248H63.355ZM51.47 13.9379C51.8008 13.8143 52.1755 13.7306 52.6298 13.7266V13.4078C52.845 13.34 52.9527 13.1687 53.2117 13.1447C53.0523 13.073 53.0244 13.1687 52.7893 13.1447C52.8052 13.073 52.865 13.0451 52.8411 12.9335C52.5581 12.9893 52.5382 12.8418 52.6816 12.7223C52.4106 12.6984 52.3907 12.9255 52.1555 12.9335C51.9443 12.9335 52.0559 12.6107 51.9443 12.511C51.8487 12.6904 51.6892 12.5031 51.6295 12.6705C51.5179 12.5549 51.466 12.3755 51.3146 12.2998C51.2229 12.5349 51.3784 12.7263 51.1552 12.7741C51.2468 12.8418 51.3624 12.8817 51.3664 13.0371C51.3863 13.2364 51.0356 13.061 50.9957 13.1966C51.1512 13.34 50.8483 13.4716 50.7845 13.5672C50.9559 13.5592 51.2867 13.5353 51.0994 13.7266C51.199 13.7386 51.215 13.6668 51.3106 13.6748C51.2309 13.8741 51.5458 13.6868 51.47 13.8861C51.4421 13.8861 51.4102 13.9299 51.47 13.9379Z" fill="#333333"/>
<path fill-rule="evenodd" clip-rule="evenodd" d="M47.1958 14.7298C47.8256 14.5146 47.7219 15.3755 47.3553 15.4153C47.14 15.4392 46.594 14.937 47.1958 14.7298Z" fill="#333333"/>
<path fill-rule="evenodd" clip-rule="evenodd" d="M66.8961 14.9942C66.6251 16.3095 68.2671 14.771 66.8961 14.9942V14.9942Z" fill="#333333"/>
<path fill-rule="evenodd" clip-rule="evenodd" d="M57.1782 17.6855C57.0547 17.805 56.7039 17.7054 56.4927 17.7373C58.5772 17.9047 60.5939 18.1398 62.3555 18.634C61.0482 17.9365 58.9996 17.9485 57.2858 17.6297C59.8486 17.5579 61.7576 17.9963 63.7305 18.8971C64.2008 19.1123 64.962 19.4072 64.9979 19.6902C65.0736 20.3159 63.0809 20.8101 62.2519 20.9576C59.9402 21.3641 57.8199 21.392 55.1735 21.2725C53.1927 21.1848 50.9209 20.9735 49.785 20.2681C49.5817 20.1406 49.2509 19.7819 49.2549 19.5826C49.2669 19.0007 51.3713 18.367 51.9492 18.2076C53.4995 17.7811 55.2891 17.5659 57.1782 17.6815V17.6855ZM51.9492 18.6898C55.0459 17.9485 59.6174 18.1398 62.4073 18.8492C59.713 17.8329 54.8188 17.7572 51.9492 18.6898ZM60.6098 18.6898C57.0029 18.1199 52.4434 18.2394 49.8328 19.6424C51.3394 20.8101 54.1612 20.9098 56.8594 20.9098C59.5576 20.9098 62.5029 20.8859 64.2526 19.9572C63.4794 19.1083 62.0127 18.913 60.6098 18.6898Z" fill="#333333"/>
<path fill-rule="evenodd" clip-rule="evenodd" d="M51.4718 19.4824C51.4559 19.3429 51.4917 19.2552 51.6312 19.2711C51.6711 19.4146 51.5276 19.3787 51.5236 19.4824C51.9062 19.4624 51.9182 19.299 52.1055 19.1675C52.1294 19.2791 52.0696 19.307 52.0537 19.3787C52.5678 19.2512 53.3689 19.1476 53.8512 19.1675C53.8034 19.2791 53.6958 19.3269 53.5363 19.3269C53.9628 19.5302 54.9273 19.0639 55.1744 19.4345C54.465 19.4465 53.8552 19.5581 53.2215 19.6458C55.0349 19.5302 57.4302 19.4106 59.5067 19.5382C59.5824 19.5262 59.5266 19.3787 59.6103 19.3787C60.0448 19.4385 60.5151 19.4584 60.9296 19.5382C61.0412 19.5222 60.8538 19.3987 60.9814 19.3269C61.1049 19.3429 61.1807 19.4106 61.352 19.3787C61.2803 19.2911 61.1169 19.295 61.0372 19.2193C61.2843 19.0798 61.631 19.2911 61.8821 19.3229C61.9618 19.5103 61.7028 19.3548 61.7227 19.4824C61.8741 19.4943 62.0097 19.4903 61.9857 19.3229C62.1731 19.3987 62.3564 19.4784 62.6194 19.4824C62.7749 19.4385 62.4959 19.4027 62.5676 19.2711C63.1057 19.4186 63.6477 19.5621 64.0981 19.8012C62.9742 20.5625 61.1528 20.5943 59.3433 20.698C56.0114 20.8893 52.0417 20.8893 49.9932 19.6418C50.0649 19.4664 50.3359 19.4903 50.4674 19.3787C50.7185 19.6458 51.2885 19.1396 51.4718 19.4824ZM54.2179 19.8012C55.7443 19.7932 57.3705 19.7614 58.602 19.7494C57.2429 19.5382 55.5291 19.5501 54.2179 19.8012Z" fill="#333333"/>
<path d="M57.3204 2.35946H57.3802L58.0179 2.45511C58.0179 2.45511 58.0179 2.32757 58.0179 2.25185C58.0179 2.17612 58.819 1.5743 58.819 1.5743C58.819 1.5743 58.544 1.59821 58.6077 1.37901C58.6715 1.1598 58.7114 1.00038 58.7114 1.00038C58.7114 1.00038 58.4124 1.13589 58.3327 1.04023C58.253 0.944579 58.1972 0.852912 58.1972 0.852912C58.1972 0.852912 57.8824 1.2993 57.8106 1.22357C57.7389 1.15183 57.9142 0.342759 57.9142 0.342759C57.9142 0.342759 57.8425 0.478268 57.6631 0.470297C57.6631 0.470297 57.5396 0.462326 57.3762 0C57.3762 0 57.1291 0.486239 57.0175 0.49421C56.9059 0.502182 56.7903 0.346744 56.7903 0.346744C56.7903 0.346744 56.9697 1.21958 56.8939 1.25147C56.8222 1.28335 56.4914 0.848926 56.4914 0.848926C56.4914 0.848926 56.4675 1.06813 56.3399 1.06813C56.2124 1.06813 55.9852 0.988421 55.9852 0.988421C55.9852 0.988421 56.0968 1.31125 56.0888 1.44278C56.0809 1.57031 55.8936 1.57031 55.8936 1.57031C55.8936 1.57031 56.7664 2.16018 56.7186 2.27177C56.6707 2.38337 56.6827 2.45112 56.6827 2.45112L57.3164 2.3475V2.35946H57.3204Z" fill="#333333"/>
</svg>
