<svg width="50" height="50" viewBox="0 0 50 50" fill="none" xmlns="http://www.w3.org/2000/svg">
<mask id="mask0_3718_8315" style="mask-type:luminance" maskUnits="userSpaceOnUse" x="1" y="12" width="48" height="26">
<path d="M1.3125 25.2838C1.3125 32.1546 11.9012 37.7246 24.9625 37.7246C38.0238 37.7246 48.6126 32.1546 48.6126 25.2838C48.6126 18.4131 38.0238 12.843 24.9625 12.843C11.9012 12.843 1.3125 18.4131 1.3125 25.2838Z" fill="white"/>
</mask>
<g mask="url(#mask0_3718_8315)">
<path d="M1.30859 25.2838C1.30859 32.1546 11.8973 37.7246 24.9586 37.7246C38.0199 37.7246 48.6087 32.1546 48.6087 25.2838C48.6087 18.4131 38.0199 12.843 24.9586 12.843C11.8973 12.843 1.30859 18.4131 1.30859 25.2838Z" fill="url(#paint0_radial_3718_8315)"/>
</g>
<mask id="mask1_3718_8315" style="mask-type:luminance" maskUnits="userSpaceOnUse" x="0" y="11" width="50" height="29">
<path d="M0.332031 11.4336H49.6029V39.1484H0.332031V11.4336Z" fill="white"/>
</mask>
<g mask="url(#mask1_3718_8315)">
<path d="M24.9684 36.8047C37.5195 36.8047 47.6945 31.6483 47.6945 25.2875C47.6945 18.9269 37.5195 13.7704 24.9684 13.7704C12.4172 13.7704 2.24219 18.9269 2.24219 25.2875C2.24219 31.6483 12.4172 36.8047 24.9684 36.8047Z" fill="#777BB3"/>
</g>
<mask id="mask2_3718_8315" style="mask-type:luminance" maskUnits="userSpaceOnUse" x="0" y="11" width="50" height="29">
<path d="M0.332031 11.4336H49.6029V39.1484H0.332031V11.4336Z" fill="white"/>
</mask>
<g mask="url(#mask2_3718_8315)">
<path d="M14.1705 26.7184C15.2025 26.7184 15.973 26.528 16.4604 26.1529C16.9427 25.7815 17.2758 25.1382 17.4504 24.2408C17.6132 23.402 17.5512 22.8163 17.2661 22.5002C16.9747 22.1774 16.3446 22.0137 15.3934 22.0137H13.7441L12.8298 26.7184H14.1705ZM8.77608 32.5137C8.69952 32.5137 8.62681 32.4795 8.57814 32.4203C8.52938 32.3612 8.50962 32.2833 8.52425 32.2081L10.9474 19.7406C10.9709 19.6201 11.0765 19.533 11.1993 19.533H16.4219C18.0632 19.533 19.2849 19.9787 20.0528 20.8578C20.8248 21.7415 21.0632 22.9768 20.7613 24.5292C20.6385 25.1617 20.4272 25.7491 20.1333 26.275C19.8392 26.8015 19.4504 27.2887 18.9776 27.7232C18.4117 28.2529 17.7712 28.6369 17.0756 28.8629C16.391 29.0859 15.5118 29.199 14.4625 29.199H12.3478L11.7439 32.306C11.7204 32.4266 11.6149 32.5137 11.492 32.5137H8.77608Z" fill="black"/>
<path d="M13.9545 22.2754H15.3922C16.5403 22.2754 16.9391 22.5273 17.0746 22.6774C17.2994 22.9267 17.3418 23.4523 17.1973 24.1972C17.035 25.0312 16.734 25.6226 16.3027 25.9546C15.8612 26.2946 15.1433 26.4668 14.1693 26.4668H13.1399L13.9545 22.2754ZM16.4207 19.2815H11.1981C10.9524 19.2815 10.7412 19.4557 10.6943 19.6968L8.27116 32.1643C8.2419 32.3148 8.28142 32.4704 8.37885 32.5887C8.47637 32.707 8.62162 32.7754 8.7749 32.7754H11.4908C11.7365 32.7754 11.9477 32.6012 11.9946 32.3601L12.5581 29.4607H14.4613C15.5376 29.4607 16.4436 29.3434 17.154 29.112C17.8846 28.8746 18.5568 28.4721 19.1517 27.9158C19.6437 27.4631 20.049 26.955 20.3561 26.4054C20.6633 25.8557 20.884 25.2426 21.012 24.5833C21.3298 22.9491 21.0717 21.6405 20.2448 20.6941C19.426 19.7568 18.1394 19.2815 16.4207 19.2815ZM12.5173 26.9801H14.1693C15.2643 26.9801 16.0799 26.7738 16.6158 26.3613C17.1518 25.9486 17.5133 25.26 17.7011 24.2949C17.8809 23.3683 17.799 22.7145 17.4556 22.3336C17.1117 21.9527 16.424 21.7622 15.3922 21.7622H13.5314L12.5173 26.9801ZM16.4207 19.7947C17.9918 19.7947 19.1379 20.2071 19.8584 21.0317C20.5787 21.8564 20.7956 23.0075 20.5082 24.4854C20.3899 25.0942 20.1898 25.6508 19.9081 26.155C19.6261 26.6596 19.2579 27.121 18.8028 27.5394C18.2605 28.0469 17.658 28.4086 16.9951 28.624C16.3322 28.84 15.4878 28.9475 14.4613 28.9475H12.135L11.4908 32.2622H8.7749L11.1981 19.7947H16.4207Z" fill="white"/>
<path d="M26.9894 29.1992C26.9127 29.1992 26.8401 29.165 26.7914 29.1058C26.7426 29.0467 26.7228 28.9689 26.7375 28.8937L27.8094 23.3773C27.9113 22.8527 27.8862 22.4761 27.7386 22.317C27.6483 22.2198 27.377 22.0567 26.5747 22.0567H24.6328L23.2851 28.9915C23.2616 29.1121 23.156 29.1992 23.0332 29.1992H20.3387C20.262 29.1992 20.1894 29.165 20.1406 29.1058C20.0919 29.0467 20.0721 28.9689 20.0868 28.8937L22.5099 16.4262C22.5334 16.3057 22.639 16.2186 22.7618 16.2186H25.4563C25.533 16.2186 25.6056 16.2528 25.6544 16.3119C25.7031 16.3711 25.7229 16.4489 25.7082 16.5241L25.1235 19.5332H27.2125C28.804 19.5332 29.8832 19.8138 30.5117 20.391C31.1524 20.9799 31.3523 21.9214 31.106 23.1898L29.9786 28.9915C29.9551 29.1121 29.8496 29.1992 29.7266 29.1992H26.9894Z" fill="black"/>
<path d="M25.4552 15.9671H22.7607C22.5149 15.9671 22.3037 16.1412 22.2568 16.3824L19.8337 28.8498C19.8044 29.0003 19.8439 29.1559 19.9414 29.2742C20.039 29.3925 20.1842 29.4609 20.3375 29.4609H23.032C23.2777 29.4609 23.4889 29.2868 23.5358 29.0456L24.8431 22.3184H26.5735C27.3744 22.3184 27.5425 22.4895 27.5492 22.4968C27.5978 22.5491 27.6617 22.7912 27.5563 23.3335L26.4844 28.8498C26.4551 29.0003 26.4946 29.1559 26.5921 29.2742C26.6897 29.3925 26.8349 29.4609 26.9882 29.4609H29.7255C29.9711 29.4609 30.1824 29.2868 30.2293 29.0456L31.3566 23.2439C31.6212 21.882 31.3949 20.8604 30.6842 20.2073C30.006 19.5844 28.8701 19.2817 27.2114 19.2817H25.4335L25.959 16.5782C25.9882 16.4278 25.9487 16.2721 25.8512 16.1539C25.7537 16.0356 25.6084 15.9671 25.4552 15.9671ZM25.4552 16.4803L24.811 19.795H27.2114C28.7217 19.795 29.7635 20.0586 30.3369 20.5852C30.9103 21.1121 31.082 21.9659 30.8529 23.1461L29.7255 28.9477H26.9882L28.0601 23.4314C28.1821 22.8039 28.1372 22.3759 27.9255 22.1476C27.7136 21.9194 27.2629 21.8051 26.5735 21.8051H24.42L23.032 28.9477H20.3375L22.7607 16.4803H25.4552Z" fill="white"/>
<path d="M35.3658 26.7184C36.3978 26.7184 37.1683 26.528 37.6558 26.1529C38.138 25.7816 38.4711 25.1383 38.6458 24.2408C38.8086 23.402 38.7466 22.8163 38.4614 22.5002C38.17 22.1774 37.5399 22.0137 36.5887 22.0137H34.9394L34.0251 26.7184H35.3658ZM29.9715 32.5137C29.8949 32.5137 29.8222 32.4795 29.7735 32.4203C29.7248 32.3612 29.7049 32.2833 29.7196 32.2081L32.1427 19.7406C32.1662 19.6201 32.2718 19.533 32.3947 19.533H37.6172C39.2586 19.533 40.4802 19.9787 41.2482 20.8578C42.0202 21.7414 42.2585 22.9767 41.9567 24.5292C41.8337 25.1617 41.6225 25.7491 41.3287 26.275C41.0345 26.8015 40.6457 27.2887 40.1729 27.7232C39.607 28.2529 38.9665 28.6369 38.2709 28.8629C37.5863 29.0859 36.7071 29.199 35.6578 29.199H33.543L32.9394 32.306C32.9158 32.4266 32.8103 32.5137 32.6874 32.5137H29.9715Z" fill="black"/>
<path d="M35.1497 22.2754H36.5875C37.7355 22.2754 38.1343 22.5273 38.2698 22.6774C38.4947 22.9267 38.5371 23.4523 38.3925 24.1971C38.2302 25.0312 37.9292 25.6226 37.498 25.9546C37.0564 26.2946 36.3386 26.4668 35.3645 26.4668H34.3352L35.1497 22.2754ZM37.6159 19.2815H32.3934C32.1477 19.2815 31.9365 19.4557 31.8896 19.6968L29.4665 32.1643C29.4372 32.3148 29.4767 32.4704 29.5742 32.5887C29.6717 32.707 29.8169 32.7754 29.9702 32.7754H32.6861C32.9318 32.7754 33.1431 32.6012 33.1899 32.3601L33.7534 29.4607H35.6565C36.7328 29.4607 37.6388 29.3434 38.3492 29.112C39.0798 28.8746 39.7522 28.4721 40.3471 27.9156C40.8391 27.463 41.2443 26.955 41.5513 26.4054C41.8585 25.8557 42.0792 25.2426 42.2073 24.5833C42.525 22.949 42.2669 21.6404 41.4401 20.694C40.6213 19.7568 39.3347 19.2815 37.6159 19.2815ZM33.7126 26.9801H35.3645C36.4595 26.9801 37.2751 26.7738 37.811 26.3613C38.3471 25.9486 38.7085 25.26 38.8964 24.2949C39.0762 23.3683 38.9943 22.7145 38.6508 22.3336C38.3069 21.9527 37.6193 21.7622 36.5875 21.7622H34.7266L33.7126 26.9801ZM37.6159 19.7947C39.187 19.7947 40.3332 20.2071 41.0536 21.0317C41.774 21.8564 41.9908 23.0075 41.7034 24.4854C41.5851 25.0942 41.3851 25.6508 41.1034 26.155C40.8213 26.6596 40.4531 27.121 39.998 27.5394C39.4557 28.0469 38.8532 28.4086 38.1903 28.624C37.5274 28.84 36.683 28.9475 35.6565 28.9475H33.3302L32.6861 32.2622H29.9702L32.3934 19.7947H37.6159Z" fill="white"/>
</g>
<defs>
<radialGradient id="paint0_radial_3718_8315" cx="0" cy="0" r="1" gradientUnits="userSpaceOnUse" gradientTransform="translate(15.5082 17.2168) scale(31.0558 31.0558)">
<stop stop-color="#AEB2D5"/>
<stop offset="0.3" stop-color="#AEB2D5"/>
<stop offset="0.75" stop-color="#484C89"/>
<stop offset="1" stop-color="#484C89"/>
</radialGradient>
</defs>
</svg>
