<svg width="140" height="66" viewBox="0 0 140 66" fill="none" xmlns="http://www.w3.org/2000/svg">
<path d="M79.317 42.7821C74.7733 46.185 68.1875 48.0007 62.5172 48.0007C54.5666 48.0007 47.409 45.0127 41.9939 40.0431C41.5685 39.6523 41.9497 39.1197 42.4602 39.4241C48.3041 42.8789 55.5298 44.9574 62.9937 44.9574C68.0275 44.9574 73.5651 43.8991 78.6567 41.7031C79.4259 41.3711 80.0692 42.2149 79.317 42.7821Z" fill="#FF9900"/>
<path d="M81.4326 40.6546C80.8582 39.8916 77.6209 40.2941 76.1678 40.4726C75.7251 40.5286 75.6576 40.1296 76.0563 39.8426C78.6346 37.9629 82.8654 38.5055 83.3588 39.1355C83.8522 39.7691 83.2304 44.162 80.8075 46.2586C80.4358 46.5807 80.081 46.4092 80.2465 45.9821C80.7906 44.575 82.0105 41.4212 81.4326 40.6546Z" fill="#FF9900"/>
<path d="M76.2321 26.6583V24.8265C76.2321 24.5493 76.4302 24.3633 76.6679 24.3633H84.3835C84.6311 24.3633 84.8292 24.5528 84.8292 24.8265V26.3951C84.8259 26.6583 84.6179 27.0022 84.2481 27.5461L80.25 33.6136C81.7357 33.575 83.3039 33.8101 84.6509 34.6172C84.9546 34.7997 85.0372 35.0664 85.0603 35.3296V37.2843C85.0603 37.551 84.783 37.8633 84.4924 37.7018C82.1187 36.3789 78.9657 36.235 76.341 37.7159C76.0736 37.8703 75.793 37.5615 75.793 37.2948V35.4384C75.793 35.1401 75.7963 34.6313 76.0769 34.1786L80.7089 27.118H76.6778C76.4302 27.118 76.2321 26.932 76.2321 26.6583Z" fill="#272727"/>
<path d="M46.9668 37.7572H44.559C44.3287 37.7404 44.1458 37.5687 44.1289 37.3498V25.0636C44.1289 24.8178 44.3355 24.6225 44.5929 24.6225H46.8382C47.0718 24.6326 47.2581 24.8111 47.275 25.0333V26.6394H47.319C47.9049 25.0872 49.0056 24.3633 50.4889 24.3633C51.9959 24.3633 52.9374 25.0872 53.6147 26.6394C54.1972 25.0872 55.5213 24.3633 56.9403 24.3633C57.9495 24.3633 59.0535 24.7774 59.7274 25.7067C60.4894 26.7404 60.3336 28.2421 60.3336 29.5586L60.3302 37.3128C60.3302 37.5586 60.1236 37.7572 59.8663 37.7572H57.4618C57.2214 37.7404 57.0283 37.5485 57.0283 37.3128V30.801C57.0283 30.2825 57.0757 28.9895 56.9606 28.498C56.7811 27.673 56.2426 27.4407 55.545 27.4407C54.9625 27.4407 54.3529 27.8279 54.1057 28.4475C53.8585 29.067 53.8822 30.104 53.8822 30.801V37.3128C53.8822 37.5586 53.6756 37.7572 53.4182 37.7572H51.0138C50.77 37.7404 50.5803 37.5485 50.5803 37.3128L50.5769 30.801C50.5769 29.4306 50.8038 27.4138 49.0936 27.4138C47.3631 27.4138 47.4308 29.3801 47.4308 30.801V37.3128C47.4308 37.5586 47.2242 37.7572 46.9668 37.7572Z" fill="#272727"/>
<path d="M91.9659 24.3633C95.5017 24.3633 97.4154 27.5327 97.4154 31.5626C97.4154 35.4562 95.3006 38.5451 91.9659 38.5451C88.4938 38.5451 86.6035 35.3757 86.6035 31.4262C86.6035 27.4522 88.5172 24.3633 91.9659 24.3633ZM91.986 26.9695C90.2298 26.9695 90.1192 29.4672 90.1192 31.0239C90.1192 32.5841 90.0958 35.9144 91.9659 35.9144C93.8126 35.9144 93.8997 33.2278 93.8997 31.5906C93.8997 30.5132 93.8561 29.2258 93.5444 28.2043C93.2763 27.3158 92.7434 26.9695 91.986 26.9695Z" fill="#272727"/>
<path d="M101.838 37.7572H99.4043C99.1603 37.7404 98.9644 37.5485 98.9644 37.3128L98.9609 25.0232C98.9816 24.7976 99.1843 24.6225 99.4318 24.6225H101.697C101.91 24.6326 102.085 24.7741 102.133 24.966V26.8448H102.178C102.862 25.1646 103.821 24.3633 105.509 24.3633C106.605 24.3633 107.674 24.7505 108.361 25.8111C109.001 26.7943 109.001 28.4475 109.001 29.636V37.37C108.973 37.5855 108.77 37.7572 108.53 37.7572H106.079C105.856 37.7404 105.67 37.5788 105.646 37.37V30.6966C105.646 29.3532 105.804 27.3868 104.117 27.3868C103.522 27.3868 102.975 27.7774 102.704 28.37C102.36 29.1209 102.315 29.8683 102.315 30.6966V37.3128C102.312 37.5586 102.099 37.7572 101.838 37.7572Z" fill="#272727"/>
<path d="M69.8039 32.2867V31.7491C68.0522 31.7491 66.2016 32.1331 66.2016 34.2483C66.2016 35.3199 66.7435 36.0459 67.6739 36.0459C68.3555 36.0459 68.9655 35.6166 69.3507 34.9185C69.8278 34.0598 69.8039 33.2535 69.8039 32.2867ZM72.2475 38.3357C72.0873 38.4823 71.8556 38.4927 71.6749 38.395C70.8706 37.7109 70.7275 37.3932 70.2845 36.7405C68.9553 38.1297 68.0147 38.5451 66.2902 38.5451C64.2522 38.5451 62.6641 37.2571 62.6641 34.6777C62.6641 32.6636 63.7308 31.2919 65.2474 30.6217C66.5629 30.0283 68.3998 29.9236 69.8039 29.7596V29.4384C69.8039 28.8485 69.8482 28.1505 69.5108 27.6408C69.2143 27.1836 68.6486 26.9951 68.151 26.9951C67.2274 26.9951 66.4027 27.4803 66.2016 28.4855C66.1607 28.7089 66.0005 28.9288 65.7824 28.9393L63.4309 28.681C63.2332 28.6356 63.0151 28.4716 63.0696 28.1609C63.6115 25.2429 66.1846 24.3633 68.4884 24.3633C69.6676 24.3633 71.208 24.6844 72.1384 25.5989C73.3176 26.7263 73.2052 28.2307 73.2052 29.8678V33.7352C73.2052 34.8976 73.6755 35.4072 74.1185 36.0354C74.2753 36.2588 74.3094 36.5276 74.1117 36.6951C73.6175 37.1175 72.7383 37.9029 72.2543 38.3427L72.2475 38.3357Z" fill="#272727"/>
<path d="M38.1399 32.2867V31.7491C36.3881 31.7491 34.5376 32.1331 34.5376 34.2483C34.5376 35.3199 35.0794 36.0459 36.0098 36.0459C36.6914 36.0459 37.3015 35.6166 37.6866 34.9185C38.1637 34.0598 38.1399 33.2535 38.1399 32.2867ZM40.5834 38.3357C40.4233 38.4823 40.1915 38.4927 40.0109 38.395C39.2066 37.7109 39.0634 37.3932 38.6204 36.7405C37.2913 38.1297 36.3506 38.5451 34.6262 38.5451C32.5881 38.5451 31 37.2571 31 34.6777C31 32.6636 32.0667 31.2919 33.5833 30.6217C34.8988 30.0283 36.7357 29.9236 38.1399 29.7596V29.4384C38.1399 28.8485 38.1842 28.1505 37.8468 27.6408C37.5503 27.1836 36.9845 26.9951 36.487 26.9951C35.5634 26.9951 34.7386 27.4803 34.5376 28.4855C34.4967 28.7089 34.3365 28.9288 34.1184 28.9393L31.7668 28.681C31.5691 28.6356 31.351 28.4716 31.4056 28.1609C31.9474 25.2429 34.5205 24.3633 36.8244 24.3633C38.0035 24.3633 39.544 24.6844 40.4744 25.5989C41.6536 26.7263 41.5411 28.2307 41.5411 29.8678V33.7352C41.5411 34.8976 42.0114 35.4072 42.4545 36.0354C42.6112 36.2588 42.6453 36.5276 42.4476 36.6951C41.9535 37.1175 41.0742 37.9029 40.5903 38.3427L40.5834 38.3357Z" fill="#272727"/>
</svg>
