<svg width="50" height="50" viewBox="0 0 50 50" fill="none" xmlns="http://www.w3.org/2000/svg">
<path d="M22.3095 49.9234C21.6172 49.9234 21.0018 49.7695 20.3864 49.3849L14.3864 45.8465C13.4633 45.308 13.9249 45.1541 14.2326 45.0772C15.4633 44.6157 15.6941 44.5388 16.9249 43.8465C17.0787 43.7695 17.2326 43.7695 17.3864 43.9234L22.0018 46.6926C22.1556 46.7695 22.3864 46.7695 22.5403 46.6926L40.5403 36.308C40.6941 36.2311 40.848 36.0003 40.848 35.8465V15.0772C40.848 14.8465 40.771 14.6926 40.5403 14.6157L22.6172 4.15415C22.4633 4.07723 22.2326 4.07723 22.0787 4.15415L4.07873 14.4618C3.92488 14.5388 3.77104 14.7695 3.77104 14.9234V35.6926C3.77104 35.8465 3.84796 36.0772 4.07873 36.1541L9.0018 39.0003C11.6941 40.308 13.3095 38.7695 13.3095 37.1541V16.7695C13.3095 16.4618 13.5403 16.2311 13.848 16.2311H16.1557C16.4633 16.2311 16.6941 16.4618 16.6941 16.7695V37.2311C16.6941 40.8465 14.771 42.8465 11.3864 42.8465C10.3095 42.8465 9.54027 42.8465 7.23257 41.6926L2.54026 39.0003C1.38642 38.308 0.617188 37.0772 0.617188 35.6926V14.9234C0.617188 13.6157 1.3095 12.308 2.54026 11.6157L20.5403 1.23107C21.6941 0.615685 23.2326 0.615685 24.3095 1.23107L42.3095 11.6157C43.4633 12.308 44.2326 13.5388 44.2326 14.9234V35.6926C44.2326 37.0003 43.5403 38.308 42.3095 39.0003L24.2326 49.4618C23.6172 49.7695 23.0018 49.9234 22.3095 49.9234Z" fill="#91C640"/>
<path d="M27.9213 35.6164C20.0751 35.6164 18.3828 32.001 18.3828 29.001C18.3828 28.6934 18.6136 28.4626 18.9213 28.4626H21.229C21.4597 28.4626 21.6905 28.6164 21.7674 28.9241C22.0751 31.3087 23.152 32.4626 27.9213 32.4626C31.6905 32.4626 33.3059 31.6164 33.3059 29.6164C33.3059 28.4626 32.8443 27.6164 26.9213 27.001C21.9982 26.5395 18.9213 25.4626 18.9213 21.4626C18.9213 17.8472 21.9982 15.6934 27.152 15.6934C32.9213 15.6934 35.7674 17.6934 36.152 22.001C36.152 22.1549 36.0751 22.3087 35.9982 22.3857C35.9213 22.4626 35.7674 22.5395 35.6136 22.5395H33.3059C33.0751 22.5395 32.8443 22.3857 32.7674 22.1549C32.229 19.6934 30.8444 18.8472 27.152 18.8472C22.9982 18.8472 22.5367 20.3087 22.5367 21.3857C22.5367 22.6934 23.0751 23.078 28.6905 23.8472C34.229 24.5395 36.8444 25.6164 36.8444 29.4626C36.8444 33.3857 33.6136 35.6164 27.9213 35.6164Z" fill="#91C640"/>
</svg>
