<svg width="50" height="50" viewBox="0 0 50 50" fill="none" xmlns="http://www.w3.org/2000/svg">
<g clip-path="url(#clip0_3718_8432)">
<path d="M5.3383 9.23047H45.4111C47.947 9.23047 50.0001 11.4846 50.0001 14.2694V31.0655C50.0001 33.85 47.9472 36.1044 45.4111 36.1044H31.0406L33.0131 41.4083L24.3384 36.1044H5.35868C2.82274 36.1044 0.769678 33.8502 0.769678 31.0655V14.2694C0.749551 11.5068 2.80255 9.23047 5.33849 9.23047H5.3383Z" fill="#7F54B3"/>
<path d="M3.57087 13.8224C3.85104 13.4049 4.2713 13.1851 4.83165 13.1412C5.85227 13.0533 6.43264 13.5807 6.57273 14.7233C7.19311 19.3161 7.87353 23.2054 8.59406 26.3918L12.9767 17.2285C13.377 16.3935 13.8773 15.954 14.4777 15.9101C15.3582 15.8442 15.8985 16.4594 16.1187 17.7559C16.619 20.6786 17.2594 23.1616 18.0198 25.2711C18.5402 19.6895 19.4207 15.6684 20.6616 13.1852C20.9617 12.5699 21.402 12.2623 21.9824 12.2183C22.4427 12.1743 22.8629 12.3282 23.2432 12.6578C23.6234 12.9874 23.8235 13.4049 23.8635 13.9103C23.8835 14.3059 23.8235 14.6355 23.6634 14.9651C22.8829 16.5472 22.2425 19.2062 21.7223 22.8977C21.222 26.4796 21.0418 29.2703 21.1619 31.27C21.2019 31.8194 21.1219 32.3028 20.9218 32.7203C20.6816 33.2037 20.3214 33.4674 19.8611 33.5114C19.3408 33.5553 18.8005 33.2916 18.2801 32.6983C16.419 30.6108 14.9381 27.4905 13.8575 23.3372C12.5567 26.1498 11.5962 28.2595 10.9758 29.6659C9.79505 32.1489 8.79445 33.4235 7.95388 33.4893C7.41353 33.5333 6.95325 33.0279 6.553 31.9731C5.53237 29.0944 4.43167 23.5349 3.25091 15.2946C3.17086 14.7233 3.29093 14.2179 3.5711 13.8223L3.57087 13.8224ZM46.5783 17.2723C45.8578 15.8879 44.7972 15.0528 43.3764 14.7232C42.9961 14.6353 42.6359 14.5914 42.2957 14.5914C40.3745 14.5914 38.8136 15.6901 37.5928 17.8876C36.5522 19.7554 36.0319 21.821 36.0319 24.0843C36.0319 25.7763 36.3521 27.2265 36.9925 28.4352C37.7129 29.8196 38.7736 30.6547 40.1944 30.9843C40.5746 31.0722 40.9348 31.1162 41.275 31.1162C43.2162 31.1162 44.7771 30.0174 45.9779 27.82C47.0185 25.9302 47.5389 23.8645 47.5389 21.6013C47.5589 19.8873 47.2187 18.459 46.5783 17.2723ZM44.0567 23.3592C43.7766 24.8095 43.2763 25.8862 42.5358 26.6115C41.9554 27.1828 41.4151 27.4246 40.9148 27.3147C40.4345 27.2048 40.0343 26.7433 39.7341 25.8864C39.4939 25.2052 39.3739 24.524 39.3739 23.8867C39.3739 23.3373 39.4139 22.788 39.5139 22.2826C39.694 21.3816 40.0343 20.5026 40.5746 19.6676C41.235 18.5908 41.9354 18.1513 42.6559 18.3052C43.1362 18.415 43.5365 18.8765 43.8366 19.7335C44.0768 20.4147 44.1969 21.0959 44.1969 21.7332C44.1969 22.3045 44.1568 22.8538 44.0568 23.3593L44.0567 23.3592ZM34.0505 17.2723C33.33 15.8879 32.2493 15.0528 30.8486 14.7232C30.4683 14.6353 30.1081 14.5914 29.7679 14.5914C27.8467 14.5914 26.2858 15.6901 25.065 17.8876C24.0244 19.7554 23.5041 21.821 23.5041 24.0843C23.5041 25.7763 23.8243 27.2265 24.4647 28.4352C25.1851 29.8196 26.2458 30.6547 27.6666 30.9843C28.0468 31.0722 28.407 31.1162 28.7472 31.1162C30.6884 31.1162 32.2493 30.0174 33.4501 27.82C34.4907 25.9302 35.0111 23.8645 35.0111 21.6013C35.0111 19.8873 34.6909 18.459 34.0505 17.2723ZM31.5089 23.3592C31.2288 24.8095 30.7285 25.8862 29.988 26.6115C29.4077 27.1828 28.8673 27.4246 28.367 27.3147C27.8867 27.2048 27.4865 26.7433 27.1863 25.8864C26.9461 25.2052 26.8261 24.524 26.8261 23.8867C26.8261 23.3373 26.8661 22.788 26.9661 22.2826C27.1462 21.3816 27.4865 20.5026 28.0268 19.6676C28.6872 18.5908 29.3876 18.1513 30.1081 18.3052C30.5884 18.415 30.9887 18.8765 31.2888 19.7335C31.529 20.4147 31.6491 21.0959 31.6491 21.7332C31.6691 22.3045 31.609 22.8538 31.509 23.3593L31.5089 23.3592Z" fill="white"/>
</g>
<defs>
<clipPath id="clip0_3718_8432">
<rect width="50" height="50" fill="white"/>
</clipPath>
</defs>
</svg>
