<svg width="50" height="50" viewBox="0 0 50 50" fill="none" xmlns="http://www.w3.org/2000/svg">
<g clip-path="url(#clip0_3718_8353)">
<path d="M49.8829 11.4085C49.9014 11.4748 49.9109 11.5431 49.9111 11.6117V22.2788C49.9111 22.4157 49.8737 22.5502 49.8028 22.6686C49.7318 22.7871 49.6298 22.8854 49.507 22.9535L40.2503 28.1081V38.325C40.2503 38.6031 40.0975 38.8598 39.8482 38.9998L20.5257 49.7582C20.4815 49.7825 20.4332 49.7981 20.385 49.8146C20.3669 49.8204 20.3498 49.8311 20.3307 49.836C20.1956 49.8704 20.0537 49.8704 19.9186 49.836C19.8965 49.8302 19.8764 49.8185 19.8553 49.8107C19.811 49.7951 19.7648 49.7815 19.7226 49.7582L0.404081 38.9998C0.281357 38.9316 0.179385 38.8333 0.108443 38.7148C0.0375016 38.5964 9.72402e-05 38.4619 0 38.325L0 6.32385C0 6.25386 0.0100518 6.1858 0.028145 6.11969C0.034176 6.09733 0.0482485 6.07691 0.0562899 6.05455C0.0713676 6.01372 0.0854401 5.97192 0.107554 5.934C0.122632 5.90872 0.144746 5.88831 0.162839 5.86497C0.185958 5.83386 0.207067 5.80178 0.234206 5.77456C0.257325 5.7522 0.287481 5.73567 0.313615 5.71622C0.342765 5.69289 0.3689 5.66761 0.402071 5.64914H0.403076L10.0628 0.269917C10.1851 0.201843 10.3238 0.166016 10.4649 0.166016C10.606 0.166016 10.7447 0.201843 10.867 0.269917L20.5267 5.64914H20.5287C20.5609 5.66859 20.588 5.69289 20.6172 5.71525C20.6433 5.7347 20.6725 5.7522 20.6956 5.77358C20.7237 5.80178 20.7438 5.83386 20.768 5.86497C20.7851 5.88831 20.8082 5.90872 20.8223 5.934C20.8454 5.97289 20.8584 6.01372 20.8745 6.05455C20.8826 6.07691 20.8966 6.09733 20.9027 6.12066C20.9212 6.18692 20.9306 6.25523 20.9308 6.32385V26.3115L28.9803 21.8286V11.6107C28.9803 11.5427 28.9903 11.4736 29.0084 11.4085C29.0154 11.3852 29.0285 11.3648 29.0366 11.3424C29.0526 11.3016 29.0667 11.2598 29.0888 11.2218C29.1039 11.1966 29.126 11.1761 29.1431 11.1528C29.1672 11.1217 29.1873 11.0896 29.2155 11.0624C29.2386 11.04 29.2677 11.0235 29.2939 11.0041C29.324 10.9807 29.3502 10.9555 29.3823 10.937H29.3833L39.0441 5.55775C39.1664 5.48959 39.305 5.4537 39.4462 5.4537C39.5873 5.4537 39.726 5.48959 39.8482 5.55775L49.508 10.937C49.5422 10.9564 49.5683 10.9807 49.5985 11.0031C49.6236 11.0225 49.6527 11.04 49.6759 11.0614C49.704 11.0896 49.7241 11.1217 49.7482 11.1528C49.7663 11.1761 49.7884 11.1966 49.8025 11.2218C49.8256 11.2598 49.8387 11.3016 49.8548 11.3424C49.8638 11.3648 49.8769 11.3852 49.8829 11.4085ZM48.3008 21.8286V12.9582L44.9204 14.8404L40.2503 17.441V26.3115L48.3018 21.8286H48.3008ZM38.641 37.8749V28.9987L34.0474 31.5361L20.9298 38.7771V47.737L38.641 37.8749ZM1.61029 7.67036V37.8749L19.3195 47.736V38.7781L10.0679 33.7139L10.0648 33.7119L10.0608 33.71C10.0297 33.6925 10.0035 33.6672 9.97438 33.6458C9.94925 33.6264 9.9201 33.6108 9.89798 33.5894L9.89597 33.5865C9.86984 33.5622 9.85174 33.5321 9.82963 33.5048C9.80953 33.4786 9.7854 33.4562 9.76932 33.429L9.76831 33.4261C9.75022 33.3969 9.73916 33.3619 9.7261 33.3289C9.71303 33.2997 9.69594 33.2725 9.6879 33.2414V33.2404C9.67785 33.2035 9.67584 33.1646 9.67182 33.1266C9.6678 33.0975 9.65975 33.0683 9.65975 33.0392V12.1532L4.99071 9.55158L1.61029 7.67133V7.67036ZM10.4659 1.84295L2.41745 6.32385L10.4639 10.8048L18.5113 6.32288L10.4639 1.84295H10.4659ZM14.6515 29.8075L19.3205 27.2078V7.67036L15.9401 9.55256L11.27 12.1532V31.6907L14.6515 29.8075ZM39.4462 7.13079L31.3987 11.6117L39.4462 16.0926L47.4926 11.6107L39.4462 7.13079ZM38.641 17.441L33.971 14.8404L30.5906 12.9582V21.8286L35.2596 24.4283L38.641 26.3115V17.441ZM20.1237 37.4306L31.9275 30.9129L37.8278 27.656L29.7864 23.178L20.5277 28.3337L12.0893 33.0323L20.1237 37.4306Z" fill="#FF2D20"/>
</g>
<defs>
<clipPath id="clip0_3718_8353">
<rect width="50" height="50" fill="white"/>
</clipPath>
</defs>
</svg>
