<svg width="70" height="70" viewBox="0 0 70 70" fill="none" xmlns="http://www.w3.org/2000/svg">
<rect width="70" height="70" rx="12" fill="#1F3D24"/>
<path d="M21.726 32.2717C22.2862 30.4476 23.3377 28.813 24.7652 27.5467C23.9885 26.9259 24.7652 23.0667 24.7652 23.0667C24.7652 23.0667 27.8702 24.4417 28.4252 25.085C28.4252 25.085 30.8202 22.1792 37.7635 22.1792C44.7068 22.1792 51.2493 27.5475 51.2493 34.7117C51.2493 41.8759 46.0593 44.1609 46.0593 44.1609C45.7887 45.425 45.3717 46.6532 44.8168 47.8209H42.066C41.6272 47.1457 41.2346 46.4416 40.891 45.7134C40.891 45.7134 38.6952 45.98 37.1202 45.98C36.0103 45.9574 34.9045 45.8386 33.8152 45.625C33.7211 46.4052 33.4559 47.155 33.0385 47.8209H30.0443C29.1127 47.0225 28.6468 44.5159 28.6468 44.5159C28.6468 44.5159 21.1052 41.1 19.5077 39.0584C18.6418 37.4392 18.7527 33.8459 18.7527 33.8459C19.5913 33.0736 20.6152 32.531 21.7252 32.2709" fill="#ED8264"/>
<path d="M31.2871 26.4828C33.0642 25.205 35.2238 24.5713 37.4096 24.6861C39.7978 24.6468 42.1337 25.3866 44.0638 26.7936" stroke="#4C279D" stroke-width="0.833333" stroke-linecap="round" stroke-linejoin="round"/>
<path d="M24.6769 33.3623C25.0221 33.3623 25.3019 33.0825 25.3019 32.7373C25.3019 32.3921 25.0221 32.1123 24.6769 32.1123C24.3317 32.1123 24.0519 32.3921 24.0519 32.7373C24.0519 33.0825 24.3317 33.3623 24.6769 33.3623Z" fill="#4C279D"/>
</svg>
