<svg width="50" height="50" viewBox="0 0 50 50" fill="none" xmlns="http://www.w3.org/2000/svg">
<path d="M27.1723 14.5568C27.1723 14.5568 23.5233 14.8737 23.074 19.9974C20.4354 19.9974 44.9131 19.9974 44.9131 19.9974C44.9131 19.9974 48.7868 18.9938 48.9553 14.5039C51.4258 14.5039 27.1723 14.5568 27.1723 14.5568Z" fill="#57A900"/>
<path d="M26.3308 22.7932C26.3308 22.7932 23.7483 23.0044 23.0746 27.6528C19.0322 27.6528 34.9765 27.6528 34.9765 27.6528C34.9765 27.6528 38.0084 27.0718 38.9067 22.6348C42.4434 22.6348 26.4431 22.6348 26.4431 22.6348" fill="#57A900"/>
<path d="M27.203 30.0996C27.203 30.0996 24.2183 30.2974 22.7891 35.9532H27.0349C27.0349 35.9532 32.1635 35.9137 32.0794 30.1787" fill="#57A900"/>
<path d="M1.35657 13.8457H22.039L11.1094 30.6946H20.4418V36.1527H0.347656L11.782 18.3546H1.35657V13.8457Z" fill="#57A900"/>
</svg>
