<svg width="70" height="70" viewBox="0 0 70 70" fill="none" xmlns="http://www.w3.org/2000/svg">
<rect width="70" height="70" rx="12" fill="#2ECC71"/>
<path fill-rule="evenodd" clip-rule="evenodd" d="M20.773 20.773C18.333 23.2163 18.333 27.143 18.333 34.9997C18.333 42.8563 18.333 46.7847 20.773 49.2247C23.2163 51.6663 27.143 51.6663 34.9997 51.6663C42.8563 51.6663 46.7847 51.6663 49.2247 49.2247C51.6663 46.7863 51.6663 42.8563 51.6663 34.9997C51.6663 27.143 51.6663 23.2147 49.2247 20.773C46.7863 18.333 42.8563 18.333 34.9997 18.333C27.143 18.333 23.2147 18.333 20.773 20.773ZM37.9163 31.6663C37.9163 32.3563 38.4763 32.9163 39.1663 32.9163H40.3163L36.9613 36.2713C36.9226 36.3101 36.8767 36.3409 36.826 36.3619C36.7754 36.3829 36.7211 36.3938 36.6663 36.3938C36.6115 36.3938 36.5573 36.3829 36.5066 36.3619C36.456 36.3409 36.41 36.3101 36.3713 36.2713L33.728 33.628C33.1811 33.0815 32.4395 32.7745 31.6663 32.7745C30.8931 32.7745 30.1516 33.0815 29.6047 33.628L25.783 37.4497C25.6602 37.5641 25.5617 37.7021 25.4934 37.8554C25.4251 38.0088 25.3883 38.1743 25.3854 38.3421C25.3824 38.51 25.4133 38.6767 25.4761 38.8323C25.539 38.988 25.6326 39.1294 25.7513 39.2481C25.87 39.3668 26.0114 39.4603 26.167 39.5232C26.3227 39.5861 26.4894 39.617 26.6572 39.614C26.8251 39.611 26.9906 39.5743 27.1439 39.506C27.2972 39.4377 27.4352 39.3392 27.5497 39.2163L31.3713 35.3947C31.41 35.3559 31.456 35.3251 31.5066 35.3041C31.5573 35.2831 31.6115 35.2723 31.6663 35.2723C31.7211 35.2723 31.7754 35.2831 31.826 35.3041C31.8767 35.3251 31.9226 35.3559 31.9613 35.3947L34.6047 38.038C35.1516 38.5845 35.8931 38.8916 36.6663 38.8916C37.4395 38.8916 38.1811 38.5845 38.728 38.038L42.083 34.6847V35.833C42.083 36.1645 42.2147 36.4825 42.4491 36.7169C42.6835 36.9513 43.0015 37.083 43.333 37.083C43.6645 37.083 43.9825 36.9513 44.2169 36.7169C44.4513 36.4825 44.583 36.1645 44.583 35.833V31.6663C44.583 31.3348 44.4513 31.0169 44.2169 30.7825C43.9825 30.548 43.6645 30.4163 43.333 30.4163H39.1663C38.8348 30.4163 38.5169 30.548 38.2825 30.7825C38.048 31.0169 37.9163 31.3348 37.9163 31.6663Z" fill="#D14747"/>
</svg>
