<svg width="50" height="50" viewBox="0 0 50 50" fill="none" xmlns="http://www.w3.org/2000/svg">
<g clip-path="url(#clip0_3718_8375)">
<path d="M46.8087 0.0214844H3.19305C2.35148 0.0217996 1.54446 0.356252 0.94938 0.951334C0.354299 1.54641 0.0198465 2.35343 0.0195312 3.195V46.8059C0.0198465 47.6474 0.354299 48.4544 0.94938 49.0495C1.54446 49.6446 2.35148 49.9791 3.19305 49.9794H46.8039C47.6448 49.9794 48.4512 49.6457 49.0462 49.0516C49.6413 48.4574 49.9762 47.6515 49.9774 46.8106V3.195C49.9774 2.35416 49.6437 1.54768 49.0496 0.952666C48.4555 0.357653 47.6495 0.022745 46.8087 0.0214844ZM27.3774 38.3035C27.3774 43.0566 24.5893 45.2215 20.5189 45.2215C16.8399 45.2215 14.1862 42.7545 13.1037 40.4636L16.8446 38.2012C17.5643 39.4787 18.661 40.4636 20.2406 40.4636C21.7512 40.4636 22.6195 39.8736 22.6195 37.5779V22.6215H27.3774V38.3035ZM37.6973 45.2215C33.483 45.2215 31.0898 43.0983 29.7564 40.4636L33.3248 38.0846C34.2954 39.6738 35.3552 41.1927 37.595 41.1927C39.4767 41.1927 40.4616 40.2542 40.4616 38.953C40.4616 37.4019 39.4387 36.8476 37.3714 35.9436L36.2378 35.4559C32.962 34.0607 30.7829 32.3133 30.7829 28.6164C30.7829 25.2145 33.3807 22.6215 37.432 22.6215C40.3177 22.6215 42.3898 23.6254 43.8861 26.2553L40.3546 28.5272C39.5743 27.1284 38.7369 26.5801 37.432 26.5801C36.1034 26.5801 35.2624 27.4258 35.2624 28.5272C35.2624 29.888 36.1034 30.4363 38.0506 31.282L39.1841 31.7697C43.0452 33.4195 45.2195 35.1062 45.2195 38.8982C45.2195 42.9817 42.0079 45.2215 37.6973 45.2215Z" fill="#EFD81D"/>
</g>
<defs>
<clipPath id="clip0_3718_8375">
<rect width="50" height="50" fill="white"/>
</clipPath>
</defs>
</svg>
