<svg width="70" height="70" viewBox="0 0 70 70" fill="none" xmlns="http://www.w3.org/2000/svg">
<rect width="70" height="70" rx="12" fill="#6CE9FC"/>
<path d="M19.5 24.5C19.5 23.5717 19.8687 22.6815 20.5251 22.0251C21.1815 21.3687 22.0717 21 23 21C23.9283 21 24.8185 21.3687 25.4749 22.0251C26.1313 22.6815 26.5 23.5717 26.5 24.5C26.5 25.4283 26.1313 26.3185 25.4749 26.9749C24.8185 27.6313 23.9283 28 23 28C22.0717 28 21.1815 27.6313 20.5251 26.9749C19.8687 26.3185 19.5 25.4283 19.5 24.5ZM19 34.3562C18.375 35.0562 18 35.9875 18 37C18 38.0125 18.375 38.9437 19 39.6437V34.3562ZM28.025 31.275C26.1687 32.9187 25 35.325 25 38C25 40.1437 25.75 42.1125 27 43.6562V45C27 46.1063 26.1062 47 25 47H21C19.8938 47 19 46.1063 19 45V43.325C16.6375 42.2 15 39.7938 15 37C15 33.1313 18.1312 30 22 30H24C25.5 30 26.8875 30.4688 28.025 31.2688V31.275ZM43 45V43.6562C44.25 42.1125 45 40.1437 45 38C45 35.325 43.8313 32.9187 41.975 31.2688C43.1125 30.4688 44.5 30 46 30H48C51.8688 30 55 33.1313 55 37C55 39.7938 53.3625 42.2 51 43.325V45C51 46.1063 50.1063 47 49 47H45C43.8937 47 43 46.1063 43 45ZM43.5 24.5C43.5 23.5717 43.8687 22.6815 44.5251 22.0251C45.1815 21.3687 46.0717 21 47 21C47.9283 21 48.8185 21.3687 49.4749 22.0251C50.1312 22.6815 50.5 23.5717 50.5 24.5C50.5 25.4283 50.1312 26.3185 49.4749 26.9749C48.8185 27.6313 47.9283 28 47 28C46.0717 28 45.1815 27.6313 44.5251 26.9749C43.8687 26.3185 43.5 25.4283 43.5 24.5ZM51 34.3562V39.65C51.625 38.9438 52 38.0188 52 37.0063C52 35.9938 51.625 35.0625 51 34.3625V34.3562ZM35 21C36.0609 21 37.0783 21.4214 37.8284 22.1716C38.5786 22.9217 39 23.9391 39 25C39 26.0609 38.5786 27.0783 37.8284 27.8284C37.0783 28.5786 36.0609 29 35 29C33.9391 29 32.9217 28.5786 32.1716 27.8284C31.4214 27.0783 31 26.0609 31 25C31 23.9391 31.4214 22.9217 32.1716 22.1716C32.9217 21.4214 33.9391 21 35 21ZM30 38C30 39.0125 30.375 39.9375 31 40.6437V35.3563C30.375 36.0625 30 36.9875 30 38ZM39 35.3563V40.65C39.625 39.9438 40 39.0188 40 38.0063C40 36.9938 39.625 36.0625 39 35.3625V35.3563ZM43 38C43 40.7938 41.3625 43.2 39 44.325V47C39 48.1063 38.1063 49 37 49H33C31.8937 49 31 48.1063 31 47V44.325C28.6375 43.2 27 40.7938 27 38C27 34.1313 30.1313 31 34 31H36C39.8687 31 43 34.1313 43 38Z" fill="#3531EC"/>
</svg>
