<svg width="140" height="66" viewBox="0 0 140 66" fill="none" xmlns="http://www.w3.org/2000/svg">
<path d="M35.5434 41.866C42.175 41.2983 47.3805 35.7355 47.3805 28.9569C47.3805 21.801 41.5795 16 34.4237 16C33.5999 16 32.7941 16.0769 32.013 16.2238C36.1825 19.7342 38.597 20.8325 40.5727 23.6863C44.1483 28.8511 40.8655 34.5203 38.3766 38.4C40.7918 30.0567 32.0119 28.0793 24.3268 20.8362C22.5377 23.0579 21.4668 25.8823 21.4668 28.9569C21.4668 33.0379 23.3536 36.6783 26.3024 39.0532L32.2276 31.1529C34.8629 33.7882 38.3124 35.7556 35.5434 41.866Z" fill="#5FC3C8"/>
<path d="M38.3766 38.4C40.8655 34.5203 44.1483 28.8511 40.5727 23.6863C38.597 20.8325 36.1825 19.7342 32.013 16.2238C28.9243 16.805 26.2224 18.4823 24.3268 20.8362C32.0119 28.0793 40.7918 30.0567 38.3766 38.4Z" fill="white"/>
<path d="M32.2276 31.1529L26.3024 39.0532C28.5241 40.8426 31.3488 41.9137 34.4237 41.9137C34.8009 41.9137 35.1744 41.8976 35.5434 41.866C38.3124 35.7556 34.8629 33.7882 32.2276 31.1529Z" fill="white"/>
<path d="M52.5694 33.1504H51.23V25.4016H52.5694V28.8L56.0453 25.4016H57.7943L54.2741 28.8775L58.0489 33.1504H56.2667L53.2668 29.7741L52.5694 30.4494V33.1504ZM60.0933 33.1504H58.7539V25.4016H60.0933V33.1504ZM63.4778 26.6636H60.8764V25.4016H67.4186V26.6636H64.8172V33.1504H63.4778V26.6636ZM69.5414 30.3055V33.1504H68.202V25.4016H71.2462C73.283 25.4016 74.3014 26.206 74.3014 27.8148C74.3014 28.3462 74.1427 28.8185 73.8254 29.2317C73.5154 29.6376 73.1059 29.9107 72.5967 30.0509L74.9213 33.1504H73.294L71.1797 30.3055H69.5414ZM71.2129 26.6636H69.5414V29.0435H71.2794C71.7222 29.0435 72.1022 28.9439 72.4195 28.7447C72.7443 28.538 72.9066 28.2281 72.9066 27.8148C72.9066 27.0473 72.3421 26.6636 71.2129 26.6636ZM80.9722 25.4016H82.3116V29.8516C82.3116 30.87 82.0201 31.6892 81.4371 32.3091C80.8615 32.9216 80.0792 33.2279 79.0903 33.2279C78.0645 33.2279 77.238 32.9069 76.6107 32.2648C75.9908 31.6228 75.6809 30.7962 75.6809 29.7852V25.4016H77.0203V29.6192C77.0203 30.2833 77.2011 30.8442 77.5627 31.3018C77.9317 31.7519 78.4409 31.977 79.0903 31.977C79.7397 31.977 80.2157 31.7593 80.5183 31.3239C80.8209 30.8885 80.9722 30.335 80.9722 29.6634V25.4016ZM85.1298 33.1504H83.7903V25.4016H84.9748L87.7422 28.9993L90.41 25.4016H91.5834V33.1504H90.2439V27.7816L87.8861 30.859H87.5429L85.1298 27.7705V33.1504ZM92.8536 32.3423C92.8536 32.1135 92.9459 31.9217 93.1304 31.7667C93.3149 31.6117 93.5215 31.5342 93.7503 31.5342C93.9717 31.5342 94.1746 31.6154 94.3591 31.7778C94.5436 31.9327 94.6358 32.1209 94.6358 32.3423C94.6358 32.5711 94.5473 32.7666 94.3702 32.929C94.1931 33.0914 93.9864 33.1725 93.7503 33.1725C93.5141 33.1725 93.3038 33.095 93.1193 32.9401C92.9422 32.7777 92.8536 32.5785 92.8536 32.3423ZM98.1889 33.1504H95.9086V25.4016H98.3328C99.6612 25.4016 100.72 25.7153 101.51 26.3425C102.299 26.9698 102.694 27.9144 102.694 29.1764C102.694 29.8479 102.576 30.442 102.34 30.9586C102.104 31.4752 101.776 31.8921 101.355 32.2095C100.942 32.5194 100.469 32.7556 99.9379 32.9179C99.4066 33.0729 98.8236 33.1504 98.1889 33.1504ZM98.3107 26.6636H97.248V31.8884H98.2886C99.2332 31.8884 99.9712 31.6634 100.502 31.2132C101.034 30.7557 101.3 30.0767 101.3 29.1764C101.3 27.5012 100.303 26.6636 98.3107 26.6636ZM109.699 33.1504H103.832V25.4016H109.589V26.6636H105.172V28.6118H109.301V29.8295H105.172V31.8884H109.699V33.1504ZM116.834 25.4016H118.251L114.753 33.1504H113.801L110.115 25.4016H111.565L114.288 31.2132L116.834 25.4016Z" fill="#272727"/>
</svg>
