<svg width="140" height="66" viewBox="0 0 140 66" fill="none" xmlns="http://www.w3.org/2000/svg">
<mask id="mask0_3718_7473" style="mask-type:alpha" maskUnits="userSpaceOnUse" x="17" y="15" width="106" height="23">
<path d="M122.306 15.998H17.2812V37.5153H122.306V15.998Z" fill="#D9D9D9"/>
</mask>
<g mask="url(#mask0_3718_7473)">
<path d="M57.5428 31.3982L55.9118 28.6311H54.6979V31.3982H53.1133V23.4258H56.3473C57.098 23.4258 57.7281 23.6815 58.2563 24.202C58.7845 24.7226 59.0439 25.3435 59.0439 26.0741C59.0439 26.5672 58.905 27.0238 58.6177 27.4439C58.3304 27.864 57.9505 28.1837 57.4872 28.3937L59.2756 31.3982H57.5428ZM54.7071 24.896V27.2522H56.3473C56.6439 27.2522 56.9033 27.1335 57.1257 26.9051C57.3389 26.6768 57.4501 26.3937 57.4501 26.065C57.4501 25.7362 57.3389 25.4622 57.1257 25.2339C56.9126 25.0057 56.6531 24.896 56.3473 24.896H54.7071Z" fill="#272727"/>
<path d="M61.09 29.1593C61.2939 29.8716 61.8313 30.2278 62.7209 30.2278C63.2955 30.2278 63.7217 30.036 64.0183 29.6616L65.2229 30.3465C64.6484 31.1592 63.8144 31.561 62.7024 31.561C61.7479 31.561 60.9788 31.278 60.4043 30.7026C59.8297 30.1364 59.5332 29.415 59.5332 28.5474C59.5332 27.689 59.8205 26.9767 60.3857 26.4014C60.9603 25.8261 61.6831 25.543 62.5819 25.543C63.4252 25.543 64.1295 25.8352 64.6762 26.4105C65.2229 26.9859 65.501 27.6981 65.501 28.5474C65.501 28.7392 65.4824 28.9401 65.4453 29.1502H61.09V29.1593ZM61.0715 28.0178H64.0183C63.9349 27.6342 63.7588 27.342 63.4901 27.1502C63.2214 26.9584 62.9248 26.8671 62.5819 26.8671C62.1835 26.8671 61.8499 26.9676 61.5904 27.1685C61.3309 27.3694 61.1549 27.6525 61.0715 28.0178Z" fill="#272727"/>
<path d="M70.8665 23.4258H72.3584V31.3982H70.8665V30.7224C70.431 31.2794 69.8009 31.5534 68.995 31.5534C68.2164 31.5534 67.5492 31.2612 67.0025 30.6859C66.4557 30.1014 66.1777 29.3891 66.1777 28.5489C66.1777 27.7087 66.4557 26.9965 67.0025 26.412C67.5492 25.8275 68.2164 25.5444 68.995 25.5444C69.8009 25.5444 70.431 25.8184 70.8665 26.3755V23.4258ZM68.1237 29.7087C68.4295 30.0101 68.8095 30.1562 69.2727 30.1562C69.7363 30.1562 70.116 30.0101 70.4126 29.7087C70.7092 29.4074 70.8665 29.0238 70.8665 28.5489C70.8665 28.0741 70.7184 27.6905 70.4126 27.3892C70.116 27.0878 69.7271 26.9416 69.2727 26.9416C68.8095 26.9416 68.4295 27.0878 68.1237 27.3892C67.8179 27.6905 67.6696 28.0741 67.6696 28.5489C67.6696 29.0238 67.8179 29.4074 68.1237 29.7087Z" fill="#272727"/>
<path d="M78.9577 31.5625C77.6882 31.5625 76.7983 31.0603 76.2891 30.0466L77.6605 29.2704C77.9105 29.7727 78.346 30.0192 78.9577 30.0192C79.384 30.0192 79.699 29.9188 79.9029 29.727C80.1068 29.5261 80.218 29.2612 80.218 28.9142V23.4258H81.8026V28.9142C81.8026 29.7452 81.5336 30.4027 81.0054 30.8594C80.468 31.3251 79.7918 31.5625 78.9577 31.5625Z" fill="#272727"/>
<path d="M86.9632 25.7083H88.4551V31.4068H86.9632V30.7676C86.6015 31.2972 86.0272 31.5621 85.2393 31.5621C84.6091 31.5621 84.0809 31.352 83.6737 30.9319C83.2659 30.5119 83.0527 29.9365 83.0527 29.1968V25.6992H84.5446V29.0142C84.5446 29.3977 84.6465 29.6808 84.8597 29.8817C85.0636 30.0826 85.3412 30.1831 85.6937 30.1831C86.0826 30.1831 86.3884 30.0643 86.62 29.8269C86.8521 29.5895 86.9632 29.2425 86.9632 28.7676V25.7083Z" fill="#272727"/>
<path d="M96.2028 25.5443C96.8606 25.5443 97.398 25.7543 97.7874 26.1835C98.1855 26.6127 98.3801 27.1789 98.3801 27.8912V31.398H96.8883V27.9917C96.8883 27.6538 96.8048 27.3798 96.6383 27.1972C96.4713 27.0054 96.2305 26.9141 95.9246 26.9141C95.5819 26.9141 95.3221 27.0237 95.1367 27.2429C94.9517 27.462 94.8498 27.7817 94.8498 28.2017V31.398H93.3579V27.9917C93.3579 27.6538 93.2744 27.3798 93.1074 27.1972C92.9409 27.0054 92.6996 26.9141 92.3937 26.9141C92.0602 26.9141 91.801 27.0237 91.6063 27.2429C91.4116 27.462 91.3097 27.7817 91.3097 28.2017V31.398H89.8086V25.6995H91.3005V26.3022C91.6432 25.7909 92.1806 25.5352 92.9035 25.5352C93.6079 25.5352 94.1361 25.8091 94.4789 26.357C94.859 25.8182 95.4333 25.5443 96.2028 25.5443Z" fill="#272727"/>
<path d="M103.004 25.543C103.783 25.543 104.45 25.8352 104.997 26.4105C105.544 26.995 105.822 27.7073 105.822 28.5474C105.822 29.3876 105.544 30.0999 104.997 30.6844C104.45 31.2688 103.783 31.5519 103.004 31.5519C102.198 31.5519 101.568 31.278 101.132 30.7209V33.6706H99.6406V25.6982H101.132V26.374C101.577 25.8261 102.198 25.543 103.004 25.543ZM101.587 29.7072C101.883 30.0086 102.272 30.1547 102.726 30.1547C103.181 30.1547 103.57 30.0086 103.875 29.7072C104.181 29.4059 104.33 29.0223 104.33 28.5474C104.33 28.0726 104.181 27.689 103.875 27.3877C103.57 27.0863 103.19 26.9402 102.726 26.9402C102.263 26.9402 101.883 27.0863 101.587 27.3877C101.29 27.689 101.132 28.0726 101.132 28.5474C101.132 29.0223 101.281 29.4059 101.587 29.7072Z" fill="#272727"/>
<path d="M108.129 29.1593C108.333 29.8716 108.871 30.2278 109.76 30.2278C110.335 30.2278 110.761 30.036 111.057 29.6616L112.262 30.3465C111.687 31.1592 110.853 31.561 109.741 31.561C108.787 31.561 108.018 31.278 107.443 30.7026C106.869 30.1273 106.572 29.415 106.572 28.5474C106.572 27.689 106.86 26.9767 107.425 26.4014C107.999 25.8261 108.722 25.543 109.621 25.543C110.464 25.543 111.168 25.8352 111.715 26.4105C112.262 26.9859 112.54 27.6981 112.54 28.5474C112.54 28.7392 112.521 28.9401 112.484 29.1502H108.129V29.1593ZM108.101 28.0178H111.048C110.965 27.6342 110.789 27.342 110.52 27.1502C110.251 26.9584 109.955 26.8671 109.612 26.8671C109.213 26.8671 108.88 26.9676 108.62 27.1685C108.361 27.3694 108.185 27.6525 108.101 28.0178Z" fill="#272727"/>
<path d="M115.062 26.6857C115.201 26.3204 115.433 26.0464 115.748 25.8638C116.063 25.6811 116.424 25.5898 116.813 25.5898V27.2336C116.359 27.1788 115.952 27.2701 115.59 27.5076C115.229 27.7451 115.052 28.1377 115.052 28.6765V31.3979H113.561V25.6994H115.052V26.6857H115.062Z" fill="#272727"/>
<path d="M118.859 27.3237C118.859 27.479 118.961 27.5977 119.165 27.6981C119.369 27.7895 119.619 27.8808 119.907 27.9447C120.203 28.0178 120.491 28.1091 120.787 28.2187C121.083 28.3283 121.325 28.5109 121.529 28.7666C121.732 29.0223 121.834 29.3511 121.834 29.7346C121.834 30.3191 121.612 30.7665 121.167 31.0862C120.722 31.3967 120.175 31.561 119.508 31.561C118.322 31.561 117.516 31.1136 117.08 30.2095L118.378 29.4881C118.544 29.9812 118.924 30.2278 119.508 30.2278C120.036 30.2278 120.305 30.0634 120.305 29.7346C120.305 29.5794 120.203 29.4606 119.999 29.3602C119.795 29.2689 119.545 29.1775 119.258 29.1045C118.961 29.0314 118.674 28.931 118.378 28.8214C118.081 28.7118 117.84 28.5292 117.636 28.2826C117.433 28.036 117.331 27.7255 117.331 27.3511C117.331 26.7849 117.544 26.3466 117.961 26.027C118.378 25.7073 118.906 25.543 119.527 25.543C119.999 25.543 120.425 25.6434 120.806 25.8534C121.194 26.0635 121.491 26.3557 121.723 26.7484L120.453 27.4333C120.268 27.0497 119.962 26.8489 119.527 26.8489C119.332 26.8489 119.174 26.8945 119.045 26.9767C118.924 27.068 118.859 27.1776 118.859 27.3237Z" fill="#272727"/>
<path d="M81.0042 22.1091C81.4397 22.1091 81.7922 21.7616 81.7922 21.3329C81.7922 20.9042 81.4397 20.5566 81.0042 20.5566C80.5693 20.5566 80.2168 20.9042 80.2168 21.3329C80.2168 21.7616 80.5693 22.1091 81.0042 22.1091Z" fill="url(#paint0_linear_3718_7473)"/>
<path d="M46.904 17.1144L45.7365 16.5117L45.4121 17.5984L45.7272 18.2834L46.0793 18.4569C46.1812 19.0048 46.2739 19.5253 46.3666 20.0093C46.3388 20.0002 46.3666 20.0093 46.4129 20.0276C47.1264 20.3107 47.5898 20.7034 47.8214 20.95L46.904 17.1144Z" fill="url(#paint1_linear_3718_7473)"/>
<path d="M48.5442 24.0831C48.5534 24.074 48.572 24.0557 48.5812 24.0466C48.6183 24.01 48.6461 23.9644 48.6739 23.9279C48.6832 23.9096 48.6925 23.9004 48.7109 23.8822C48.7388 23.8457 48.7666 23.8 48.7944 23.7635C48.8036 23.7452 48.8129 23.7361 48.8222 23.7178C48.85 23.6813 48.8685 23.6356 48.8963 23.5899C48.9056 23.5717 48.9148 23.5534 48.9241 23.5352C48.9426 23.4895 48.9612 23.453 48.989 23.4073C48.9983 23.3891 49.0075 23.3708 49.0167 23.3434C49.0353 23.2977 49.0538 23.2612 49.0631 23.2155C49.0724 23.1973 49.0816 23.1699 49.0909 23.1516C49.1002 23.1059 49.1187 23.0694 49.128 23.0238C49.1372 22.9964 49.1372 22.9781 49.1465 22.9507C49.1558 22.905 49.165 22.8685 49.1743 22.8228C49.1743 22.7954 49.1836 22.7681 49.1836 22.7407C49.1928 22.695 49.1928 22.6585 49.1928 22.6128C49.1928 22.5854 49.2021 22.558 49.2021 22.5215C49.2021 22.4759 49.2021 22.4393 49.2021 22.3936C49.2021 22.3571 49.2021 22.3297 49.2021 22.2932C49.2021 22.2566 49.1928 22.211 49.1928 22.1653C49.1928 22.1288 49.1836 22.0923 49.1836 22.0649C49.1743 22.0283 49.1743 21.9827 49.165 21.9462C49.1557 21.9096 49.1558 21.8731 49.1465 21.8366C49.1372 21.8001 49.128 21.7544 49.1187 21.7179C49.1094 21.6905 49.1094 21.6631 49.1002 21.6357C49.0909 21.6083 49.0816 21.5809 49.0724 21.5535L47.9048 21.4987C47.9048 21.4987 47.3951 20.7864 46.2924 20.348C45.1526 19.9006 44.5131 20.5124 43.6514 21.0603C43.6514 21.0603 42.5023 20.8229 42.1872 20.8686C42.1687 20.8686 42.1594 20.8686 42.1501 20.8777C42.0575 20.9051 42.1687 21.1334 42.3355 21.4256C42.3818 21.5078 42.4374 21.5991 42.493 21.6814C42.5764 21.8183 42.6691 21.9462 42.7525 22.074C42.8081 22.1562 42.8637 22.2384 42.9193 22.3114C42.9471 22.348 42.9656 22.3845 42.9934 22.4119C43.012 22.4393 43.0398 22.4759 43.0583 22.4941C43.0861 22.558 43.1139 22.5763 43.1139 22.5763V23.179L44.3834 23.6539L43.744 23.5534L43.1046 23.453V23.4621L32.5684 21.4713L31.5583 22.284L32.4387 23.0329L33.1986 23.0238L33.4951 22.7772C33.4951 22.7772 34.3291 23.7178 34.848 25.0146C34.8758 25.0876 34.9036 25.1698 34.9314 25.2429C34.987 25.3981 35.0334 25.5625 35.0797 25.7269C35.126 25.8913 35.1538 26.0648 35.1816 26.2292C35.2187 26.4849 35.2372 26.7497 35.2279 27.0145C35.2187 27.188 35.2094 27.3707 35.1724 27.5442C35.0982 27.9916 34.9314 28.43 34.6534 28.8684C32.8557 31.6263 27.4995 30.5213 27.4902 30.5213C27.4902 30.5213 27.7683 30.7861 28.3335 31.1332C28.4633 31.2062 28.6023 31.2884 28.7505 31.3706C29.1305 31.5715 29.6031 31.7907 30.1683 31.9824C30.2795 32.019 30.4 32.0555 30.5112 32.092C30.7521 32.1651 31.0023 32.229 31.2711 32.2929C31.6695 32.3842 32.0958 32.4573 32.5591 32.5121C32.8649 32.5486 33.1893 32.576 33.5228 32.5852C33.6897 32.5943 33.8657 32.5943 34.0418 32.5943C34.9221 32.5943 35.8859 32.5121 36.933 32.3203C37.1461 32.2838 37.3593 32.2381 37.5724 32.1925C37.7948 32.1468 38.008 32.092 38.2396 32.0281C38.3508 32.0007 38.462 31.9642 38.5732 31.9368C38.6103 31.9277 38.6473 31.9185 38.6844 31.9002C38.7586 31.8728 38.842 31.8546 38.9161 31.8272C38.9624 31.8089 39.0088 31.7998 39.0458 31.7815C39.1199 31.7541 39.2034 31.7358 39.2775 31.7084C39.3238 31.6902 39.3609 31.6811 39.4072 31.6628C39.4999 31.6354 39.5926 31.5989 39.6852 31.5623C39.713 31.5532 39.7408 31.5441 39.7686 31.535C39.8891 31.4893 40.0095 31.4436 40.13 31.398C40.1671 31.3797 40.2042 31.3706 40.2412 31.3523C40.3246 31.3158 40.4173 31.2793 40.5007 31.2427C40.547 31.2245 40.5934 31.2062 40.6397 31.1879C40.7231 31.1514 40.8065 31.1149 40.8899 31.0783C40.9362 31.0601 40.9826 31.0418 41.0196 31.0235C41.1123 30.9779 41.205 30.9413 41.2976 30.8957C41.3347 30.8774 41.3625 30.8683 41.3995 30.8501C41.5293 30.7861 41.6498 30.7313 41.7795 30.6674C41.798 30.6582 41.8166 30.6491 41.8351 30.64C41.937 30.5852 42.0482 30.5304 42.1501 30.4756C42.1872 30.4574 42.2243 30.4391 42.2614 30.4117C42.354 30.366 42.4374 30.3113 42.5301 30.2656C42.5672 30.2473 42.6042 30.2199 42.6413 30.2017C42.734 30.1468 42.8266 30.0921 42.9193 30.0373C42.9471 30.019 42.9749 30.0007 43.0027 29.9825C43.2436 29.8364 43.4846 29.6811 43.7255 29.5168C43.7533 29.4985 43.7718 29.4802 43.7996 29.4619C43.8923 29.398 43.9849 29.3341 44.0683 29.2702C44.0962 29.2519 44.1239 29.2245 44.161 29.2062C44.2537 29.1423 44.3371 29.0692 44.4205 29.0054C44.439 28.9962 44.4576 28.978 44.4668 28.9688C45.551 28.1012 46.4406 27.0876 46.9225 25.9552C46.9595 25.873 46.9874 25.7817 47.0244 25.6995H47.0152C47.0337 25.663 47.043 25.6356 47.0615 25.599C46.9966 25.6173 46.9318 25.6264 46.8576 25.6447C45.829 25.8456 45.1433 25.7177 44.7726 25.5899C44.5502 25.5169 44.439 25.4438 44.439 25.4438C44.5131 25.4529 44.5873 25.462 44.6614 25.462C44.6707 25.462 44.6707 25.462 44.6799 25.462C44.7448 25.4712 44.8189 25.4712 44.8839 25.4712C44.9023 25.4712 44.9116 25.4712 44.9302 25.4712C44.995 25.4712 45.0506 25.4712 45.1155 25.4712C45.134 25.4712 45.1526 25.4712 45.1711 25.4712C45.2267 25.4712 45.2823 25.4712 45.3379 25.462C45.3657 25.462 45.3842 25.462 45.412 25.4529C45.4676 25.4529 45.5139 25.4438 45.5696 25.4438C45.5974 25.4438 45.6252 25.4347 45.6529 25.4347C45.6993 25.4255 45.7456 25.4255 45.792 25.4164C45.829 25.4073 45.8568 25.4073 45.8939 25.3981C45.9402 25.389 45.9773 25.3799 46.0236 25.3799C46.0607 25.3707 46.0978 25.3616 46.1348 25.3524C46.1719 25.3433 46.209 25.3342 46.246 25.3251C46.2831 25.3159 46.3295 25.3068 46.3665 25.2977C46.4036 25.2886 46.4314 25.2794 46.4684 25.2703C46.5148 25.2612 46.5611 25.2429 46.5982 25.2337C46.626 25.2246 46.6537 25.2155 46.6908 25.2063C46.7372 25.1881 46.7835 25.1698 46.8298 25.1607C46.8576 25.1516 46.8854 25.1424 46.904 25.1333C46.9503 25.115 46.9966 25.0968 47.043 25.0785C47.0615 25.0693 47.0893 25.0602 47.1078 25.0511C47.1542 25.0328 47.2098 25.0055 47.2561 24.9872C47.2746 24.978 47.2932 24.9689 47.3117 24.9598C47.358 24.9324 47.4136 24.9141 47.46 24.8867C47.4785 24.8776 47.497 24.8685 47.5156 24.8593C47.5619 24.8319 47.6082 24.8045 47.6638 24.7771C47.6824 24.768 47.6916 24.7589 47.7101 24.7498C47.7565 24.7224 47.8028 24.6858 47.8492 24.6584C47.8677 24.6493 47.877 24.6402 47.8955 24.631C47.9418 24.5945 47.9882 24.5671 48.0252 24.5306C48.0345 24.5214 48.053 24.5123 48.0623 24.5032C48.1086 24.4667 48.1457 24.4301 48.192 24.3936C48.2013 24.3844 48.2198 24.3753 48.2291 24.3571C48.2662 24.3205 48.3125 24.284 48.3496 24.2475C48.3588 24.2383 48.3774 24.2201 48.3867 24.211C48.4793 24.1561 48.5071 24.1196 48.5442 24.0831Z" fill="url(#paint2_linear_3718_7473)"/>
<path d="M45.6701 27.8996C45.7165 27.8448 45.7628 27.79 45.8184 27.7352C45.8462 27.7078 45.8647 27.6804 45.8925 27.653C45.9481 27.5891 45.9944 27.5343 46.0408 27.4704C46.0593 27.4521 46.0779 27.4247 46.0871 27.4065C46.152 27.3242 46.2168 27.2421 46.2817 27.1507C46.291 27.1416 46.291 27.1325 46.3002 27.1234C46.3558 27.0503 46.4022 26.9681 46.4578 26.895C46.4763 26.8677 46.4949 26.8403 46.5134 26.8128C46.5505 26.7489 46.5875 26.6941 46.6246 26.6302C46.6431 26.6028 46.6616 26.5663 46.6802 26.5389C46.7173 26.4841 46.745 26.4202 46.7729 26.3654C46.7914 26.3289 46.8099 26.3015 46.8192 26.2649C46.847 26.201 46.884 26.1371 46.9118 26.0732C46.9211 26.0458 46.9397 26.0183 46.9489 25.9909C46.986 25.8996 47.0231 25.8083 47.0601 25.7078H47.0508C47.0694 25.6713 47.0787 25.6439 47.0972 25.6074C47.0323 25.6257 46.9674 25.6348 46.8933 25.6531C45.874 25.854 45.1975 25.7261 44.8268 25.6074C44.382 27.9452 40.4344 30.9954 37.4784 32.146C37.293 32.2191 37.1077 32.283 36.9316 32.3469C37.3579 32.2648 37.8027 32.1643 38.2568 32.0456C38.4699 31.9908 38.6923 31.9269 38.924 31.8538H38.9333C39.1557 31.7899 39.378 31.7077 39.6097 31.6255C39.619 31.6255 39.619 31.6255 39.6283 31.6164C39.8877 31.5251 40.1472 31.4246 40.4066 31.3241C40.4808 31.2967 40.5549 31.2602 40.6383 31.2328C40.6661 31.2237 40.6939 31.2146 40.7124 31.1963C40.7773 31.1689 40.8515 31.1415 40.9163 31.105C40.9534 31.0867 40.9812 31.0776 41.0182 31.0593C41.0831 31.0319 41.148 31.0045 41.2129 30.968C41.2499 30.9497 41.287 30.9315 41.324 30.9132C41.3889 30.8858 41.4445 30.8584 41.5094 30.8219C41.5557 30.8036 41.5928 30.7853 41.6391 30.7579C41.7411 30.7123 41.8337 30.6575 41.9356 30.6118C41.9913 30.5845 42.0469 30.5571 42.0932 30.5296C42.1395 30.5022 42.1858 30.4749 42.2414 30.4566C42.2971 30.4292 42.3527 30.4018 42.399 30.3653C42.4453 30.3379 42.4916 30.3105 42.538 30.2831C42.5936 30.2557 42.6492 30.2191 42.7048 30.1918C42.7511 30.1644 42.7974 30.137 42.8438 30.1095C42.8994 30.073 42.955 30.0365 43.0198 30.0091C43.0569 29.9817 43.1032 29.9634 43.1403 29.9361C43.2145 29.8904 43.2886 29.8447 43.3627 29.7991C43.3905 29.7808 43.409 29.7717 43.4369 29.7534C43.5295 29.6895 43.6222 29.6256 43.7148 29.5708C43.7427 29.5525 43.7797 29.5251 43.8075 29.5069C43.8724 29.4612 43.9372 29.4155 43.9928 29.3699C44.0299 29.3425 44.0577 29.315 44.0948 29.2968C44.1504 29.2512 44.2152 29.2146 44.2709 29.1689C44.3079 29.1416 44.3357 29.1142 44.3728 29.0868C44.4284 29.0411 44.4933 28.9955 44.5488 28.9498C44.5767 28.9224 44.6137 28.9041 44.6415 28.8767C44.7064 28.8219 44.7712 28.7671 44.8454 28.7124C44.8639 28.6941 44.8825 28.6758 44.901 28.6667C44.9844 28.5936 45.0678 28.5205 45.1512 28.4475C45.1697 28.4293 45.1883 28.411 45.2068 28.4018C45.2717 28.3471 45.3365 28.2831 45.3921 28.2192C45.4199 28.1918 45.4477 28.1644 45.4662 28.137C45.5218 28.0822 45.5682 28.0366 45.6238 27.9817C45.6145 27.9544 45.6423 27.927 45.6701 27.8996Z" fill="url(#paint3_linear_3718_7473)"/>
<path d="M48.5436 24.083C48.5529 24.0739 48.5714 24.0556 48.5806 24.0465C48.6177 24.0099 48.6455 23.9643 48.6733 23.9278C48.6826 23.9095 48.6919 23.9003 48.7104 23.8821C48.7382 23.8456 48.766 23.7999 48.7938 23.7634C48.803 23.7451 48.8123 23.7359 48.8216 23.7177C48.8494 23.6812 48.8679 23.6355 48.8957 23.5898C48.905 23.5716 48.9143 23.5533 48.9235 23.5351C48.942 23.4894 48.9606 23.4529 48.9884 23.4072C48.9977 23.389 49.0069 23.3707 49.0162 23.3433C49.0347 23.2976 49.0533 23.2611 49.0625 23.2154C49.0718 23.1972 49.0811 23.1698 49.0903 23.1515C49.0996 23.1058 49.1181 23.0693 49.1274 23.0237C49.1367 22.9963 49.1367 22.978 49.1459 22.9506C49.1552 22.9049 49.1645 22.8684 49.1737 22.8227C49.1737 22.7953 49.183 22.768 49.183 22.7406C49.1922 22.6949 49.1922 22.6584 49.1922 22.6127C49.1922 22.5853 49.2015 22.5579 49.2015 22.5214C49.2015 22.4758 49.2015 22.4392 49.2015 22.3935C49.2015 22.357 49.2015 22.3296 49.2015 22.2931C49.2015 22.2565 49.1922 22.2109 49.1922 22.1652C49.1922 22.1287 49.183 22.0922 49.183 22.0648C49.1737 22.0282 49.1737 21.9826 49.1645 21.9461C49.1552 21.9095 49.1552 21.873 49.1459 21.8365C49.1367 21.8 49.1274 21.7543 49.1181 21.7178C49.1088 21.6904 49.1088 21.663 49.0996 21.6356C49.0996 21.6538 49.1088 21.6721 49.1088 21.6904C49.0996 21.6447 49.0903 21.599 49.0718 21.5625C49.0718 21.5625 49.0625 22.6675 47.8208 23.2337C46.579 23.7999 45.3929 23.2611 44.7906 23.8638C44.6052 24.0465 44.5033 24.2747 44.457 24.4848C44.457 24.4848 44.457 24.4848 44.457 24.4939C44.457 24.5031 44.457 24.5031 44.457 24.5122C44.4477 24.5487 44.4477 24.5761 44.4385 24.6127C44.4385 24.6218 44.4385 24.6401 44.4292 24.6492C44.4292 24.6766 44.4199 24.7131 44.4199 24.7405C44.4199 24.7588 44.4199 24.7679 44.4199 24.7862C44.4199 24.8135 44.4199 24.841 44.4199 24.8592C44.4199 24.8775 44.4199 24.8958 44.4199 24.914C44.4199 24.9323 44.4199 24.9505 44.4199 24.9688C44.4199 24.9962 44.4199 25.0327 44.4292 25.0601C44.4292 25.0692 44.4292 25.0875 44.4292 25.0967C44.4292 25.1149 44.4292 25.1332 44.4385 25.1515C44.4385 25.1606 44.4385 25.1697 44.4385 25.1788C44.4477 25.2336 44.457 25.2884 44.457 25.325C44.457 25.3341 44.457 25.3341 44.457 25.3432C44.457 25.3524 44.457 25.3706 44.4662 25.3798C44.4662 25.3889 44.4662 25.3889 44.4662 25.3981C44.4662 25.4163 44.4755 25.4254 44.4755 25.4346C44.4755 25.4437 44.4755 25.4437 44.4755 25.4437C44.4755 25.4528 44.4755 25.4528 44.4755 25.4528V25.4619C44.5496 25.4711 44.6238 25.4802 44.6979 25.4802C44.7072 25.4802 44.7072 25.4802 44.7165 25.4802C44.7813 25.4893 44.8554 25.4893 44.9203 25.4893C44.9388 25.4893 44.9481 25.4893 44.9667 25.4893C45.0315 25.4893 45.0871 25.4893 45.152 25.4893C45.1705 25.4893 45.1891 25.4893 45.2076 25.4893C45.2632 25.4893 45.3188 25.4893 45.3744 25.4802C45.4022 25.4802 45.4207 25.4802 45.4485 25.4711C45.5041 25.4711 45.5504 25.4619 45.606 25.4619C45.6339 25.4619 45.6616 25.4528 45.6894 25.4528C45.7358 25.4437 45.7821 25.4437 45.8284 25.4346C45.8655 25.4254 45.8933 25.4254 45.9304 25.4163C45.9767 25.4072 46.0138 25.3981 46.0601 25.3981C46.0972 25.3889 46.1342 25.3798 46.1713 25.3706C46.2084 25.3615 46.2455 25.3524 46.2825 25.3432C46.3196 25.3341 46.3659 25.325 46.403 25.3158C46.44 25.3067 46.4679 25.2976 46.5049 25.2885C46.5513 25.2793 46.5976 25.2611 46.6347 25.2519C46.6624 25.2428 46.6902 25.2336 46.7273 25.2245C46.7737 25.2062 46.82 25.188 46.8663 25.1788C46.8941 25.1697 46.9219 25.1606 46.9405 25.1515C46.9868 25.1332 47.0331 25.1149 47.0795 25.0967C47.098 25.0875 47.1258 25.0784 47.1443 25.0692C47.1906 25.051 47.2463 25.0236 47.2926 25.0054C47.3111 24.9962 47.3297 24.9871 47.3482 24.978C47.3945 24.9505 47.4501 24.9323 47.4964 24.9049C47.515 24.8958 47.5335 24.8866 47.5521 24.8775C47.5984 24.8501 47.6447 24.8227 47.7003 24.7953C47.7189 24.7862 47.7281 24.777 47.7466 24.7679C47.793 24.7405 47.8393 24.704 47.8856 24.6766C47.9042 24.6674 47.9135 24.6583 47.932 24.6492C47.9783 24.6127 48.0246 24.5853 48.0617 24.5487C48.071 24.5396 48.0895 24.5304 48.0988 24.5213C48.1451 24.4848 48.1822 24.4483 48.2285 24.4117C48.2378 24.4026 48.2563 24.3935 48.2656 24.3752C48.3027 24.3387 48.349 24.3022 48.3861 24.2656C48.3953 24.2565 48.4138 24.2382 48.4231 24.2291C48.4787 24.156 48.5158 24.1195 48.5436 24.083Z" fill="url(#paint4_linear_3718_7473)"/>
<path d="M31.9199 29.7983C31.8736 29.78 31.818 29.7618 31.7623 29.7344C31.716 29.7161 31.6697 29.6887 31.6141 29.6704C31.6048 29.6613 31.5956 29.6613 31.5863 29.6522C31.5399 29.6339 31.5029 29.6066 31.4565 29.5883C31.4473 29.5792 31.4288 29.5792 31.4195 29.57C31.3175 29.5061 31.2064 29.4422 31.0952 29.36C31.0766 29.3509 31.0674 29.3417 31.0488 29.3235C31.0117 29.296 30.9747 29.2595 30.9283 29.2321C30.9098 29.2139 30.8913 29.2048 30.8728 29.1865C30.8357 29.1499 30.7986 29.1225 30.7616 29.086C30.743 29.0678 30.7245 29.0586 30.7152 29.0404C30.6689 28.9947 30.6133 28.9399 30.567 28.8851L30.5577 28.876C30.5114 28.8212 30.4558 28.7572 30.4094 28.6933C30.3909 28.6751 30.3817 28.6568 30.3631 28.6385C30.326 28.5929 30.2982 28.5472 30.2612 28.4924C30.2426 28.465 30.2333 28.4468 30.2148 28.4194C30.1777 28.3646 30.15 28.3189 30.1222 28.2641C30.1129 28.2367 30.0943 28.2184 30.0851 28.191C30.0017 28.0358 29.9183 27.8623 29.8442 27.6705C29.8349 27.6431 29.8256 27.6157 29.8164 27.5883C29.7885 27.5153 29.7608 27.4514 29.7422 27.3783C29.733 27.3418 29.7237 27.3052 29.7051 27.2687C29.6866 27.1957 29.6588 27.1135 29.6403 27.0404C29.631 27.0039 29.6217 26.9765 29.6125 26.94C29.5847 26.8304 29.5569 26.7116 29.5384 26.5838C28.899 23.1866 26.7584 20.2643 23.6448 20.3191C23.5428 20.3191 23.4316 20.3283 23.3297 20.3374C23.2834 20.3374 23.237 20.3465 23.1814 20.3556C23.1258 20.3648 23.0702 20.3648 23.0146 20.3739C22.9961 20.3739 22.9683 20.383 22.9497 20.383C20.2068 20.8214 18.3164 23.3693 18.3164 23.3693C27.8147 20.1091 21.4763 32.8759 32.7724 29.981C32.7724 29.981 32.411 29.981 31.9199 29.7983Z" fill="url(#paint5_linear_3718_7473)"/>
<path d="M18.8997 23.1693C19.048 23.1236 19.1962 23.0871 19.3352 23.0505H19.3445C19.4928 23.014 19.6318 22.9867 19.7615 22.9592C19.7986 22.9501 19.8264 22.9501 19.8634 22.941C19.9932 22.9136 20.1229 22.8953 20.2434 22.8771H20.2526C20.3824 22.8588 20.5028 22.8497 20.614 22.8405C20.6418 22.8405 20.6696 22.8405 20.7067 22.8314C20.8179 22.8223 20.9291 22.8223 21.031 22.8223C21.0403 22.8223 21.0403 22.8223 21.0496 22.8223C21.1608 22.8223 21.2627 22.8314 21.3646 22.8405C21.3924 22.8405 21.411 22.8497 21.4388 22.8497C21.5314 22.8588 21.6241 22.8679 21.7168 22.8862C21.726 22.8862 21.726 22.8862 21.7353 22.8862C21.828 22.9044 21.9206 22.9227 22.004 22.9501C22.0226 22.9592 22.0504 22.9592 22.0689 22.9684C22.1523 22.9958 22.2264 23.014 22.3006 23.0505C22.3098 23.0505 22.3098 23.0505 22.3191 23.0597C22.4025 23.0871 22.4766 23.1236 22.5508 23.1601C22.5693 23.1693 22.5879 23.1784 22.6064 23.1875C22.6713 23.2241 22.7454 23.2606 22.8103 23.3062C22.8195 23.3062 22.8195 23.3154 22.8288 23.3154C22.8937 23.3611 22.9585 23.4067 23.0234 23.4524C23.0419 23.4615 23.0512 23.4798 23.0697 23.4889C23.1253 23.5346 23.1809 23.5802 23.2365 23.635L23.2458 23.6442C23.3014 23.6989 23.357 23.7537 23.4126 23.8177C23.4219 23.8268 23.4404 23.845 23.4497 23.8542C23.496 23.909 23.5516 23.9638 23.5979 24.0277C23.5979 24.0368 23.6072 24.0368 23.6072 24.046C23.6535 24.1099 23.7091 24.1738 23.7555 24.2469C23.7647 24.2651 23.774 24.2743 23.7832 24.2925C23.8296 24.3565 23.8666 24.4204 23.913 24.4843C23.913 24.4934 23.9222 24.4934 23.9222 24.5026C23.9686 24.5757 24.0056 24.6487 24.052 24.7218C24.0613 24.74 24.0705 24.7491 24.0798 24.7674C24.1169 24.8405 24.1539 24.9044 24.191 24.9775C24.191 24.9866 24.2003 24.9866 24.2003 24.9957C24.2373 25.0779 24.2837 25.151 24.3207 25.2332C24.33 25.2514 24.3393 25.2606 24.3393 25.2788C24.7933 26.2559 25.1547 27.361 25.7478 28.2924C25.303 27.1509 25.2659 20.3566 22.4303 20.4662C19.9746 21.1145 18.3066 23.3519 18.3066 23.3519C18.4734 23.2971 18.631 23.2424 18.7885 23.1967C18.8163 23.1875 18.8534 23.1784 18.8997 23.1693Z" fill="url(#paint6_linear_3718_7473)"/>
<path d="M46.6168 22.2368C46.7806 22.2368 46.9134 22.106 46.9134 21.9446C46.9134 21.7832 46.7806 21.6523 46.6168 21.6523C46.4531 21.6523 46.3203 21.7832 46.3203 21.9446C46.3203 22.106 46.4531 22.2368 46.6168 22.2368Z" fill="#FEFEFE"/>
</g>
<defs>
<linearGradient id="paint0_linear_3718_7473" x1="80.2173" y1="21.33" x2="81.7983" y2="21.33" gradientUnits="userSpaceOnUse">
<stop stop-color="#FF4447"/>
<stop offset="1" stop-color="#FF0015"/>
</linearGradient>
<linearGradient id="paint1_linear_3718_7473" x1="45.4097" y1="18.7293" x2="47.8215" y2="18.7293" gradientUnits="userSpaceOnUse">
<stop stop-color="#FF4447"/>
<stop offset="1" stop-color="#FF0015"/>
</linearGradient>
<linearGradient id="paint2_linear_3718_7473" x1="38.5279" y1="26.383" x2="33.9413" y2="20.1089" gradientUnits="userSpaceOnUse">
<stop stop-color="#FF4447"/>
<stop offset="1" stop-color="#FF0015"/>
</linearGradient>
<linearGradient id="paint3_linear_3718_7473" x1="36.9198" y1="28.971" x2="47.0923" y2="28.971" gradientUnits="userSpaceOnUse">
<stop stop-color="#FFAAA5"/>
<stop offset="1" stop-color="#FF746D"/>
</linearGradient>
<linearGradient id="paint4_linear_3718_7473" x1="44.4042" y1="23.5232" x2="49.2018" y2="23.5232" gradientUnits="userSpaceOnUse">
<stop stop-color="#FFAAA5"/>
<stop offset="1" stop-color="#FF746D"/>
</linearGradient>
<linearGradient id="paint5_linear_3718_7473" x1="24.7788" y1="23.7001" x2="26.9485" y2="32.4525" gradientUnits="userSpaceOnUse">
<stop stop-color="#FF4447"/>
<stop offset="1" stop-color="#FF0015"/>
</linearGradient>
<linearGradient id="paint6_linear_3718_7473" x1="18.2986" y1="24.3888" x2="25.7405" y2="24.3888" gradientUnits="userSpaceOnUse">
<stop stop-color="#FFAAA5"/>
<stop offset="1" stop-color="#FF746D"/>
</linearGradient>
</defs>
</svg>
