<svg width="50" height="50" viewBox="0 0 50 50" fill="none" xmlns="http://www.w3.org/2000/svg">
<path d="M49.516 24.6866C49.516 21.4725 45.472 18.4266 39.2719 16.5377C40.7027 10.248 40.0668 5.24392 37.2648 3.64182C36.6189 3.26602 35.8638 3.08801 35.0391 3.08801V5.29337C35.4962 5.29337 35.8638 5.38237 36.1718 5.55049C37.5231 6.32187 38.1093 9.25904 37.6523 13.0368C37.543 13.9664 37.3641 14.9455 37.1455 15.9443C35.1981 15.4696 33.0717 15.1037 30.8361 14.8664C29.4948 13.0368 28.1037 11.3754 26.7027 9.92163C29.9419 6.92513 32.9823 5.28348 35.049 5.28348V3.07812C32.3166 3.07812 28.7396 5.01646 25.1229 8.37888C21.5061 5.03624 17.9292 3.11768 15.1967 3.11768V5.32303C17.2535 5.32303 20.3039 6.9548 23.543 9.93152C22.152 11.3853 20.7609 13.0368 19.4394 14.8664C17.1939 15.1037 15.0676 15.4696 13.1201 15.9542C12.8916 14.9653 12.7226 14.006 12.6034 13.0863C12.1364 9.30849 12.7127 6.37132 14.0541 5.59005C14.3522 5.41204 14.7397 5.33292 15.1967 5.33292V3.12757C14.3621 3.12757 13.607 3.30558 12.9512 3.68138C10.1591 5.28348 9.53316 10.2777 10.9739 16.5476C4.79365 18.4464 0.769531 21.4824 0.769531 24.6866C0.769531 27.9007 4.81352 30.9466 11.0136 32.8355C9.58284 39.1252 10.2188 44.1293 13.0207 45.7314C13.6666 46.1072 14.4217 46.2852 15.2563 46.2852C17.9888 46.2852 21.5658 44.3469 25.1825 40.9844C28.7992 44.3271 32.3762 46.2456 35.1086 46.2456C35.9433 46.2456 36.6984 46.0676 37.3542 45.6918C40.1462 44.0897 40.7722 39.0956 39.3315 32.8256C45.4919 30.9367 49.516 27.8908 49.516 24.6866ZM36.5792 18.0903C36.2115 19.3661 35.7545 20.6814 35.2378 21.9967C34.8304 21.2055 34.4032 20.4144 33.9362 19.6232C33.4791 18.832 32.9923 18.0607 32.5054 17.3091C33.9163 17.5167 35.2776 17.7739 36.5792 18.0903ZM32.0285 28.6226C31.2534 29.9577 30.4586 31.2235 29.6339 32.4004C28.1534 32.529 26.653 32.5982 25.1428 32.5982C23.6424 32.5982 22.1421 32.529 20.6715 32.4103C19.8468 31.2334 19.042 29.9775 18.267 28.6523C17.5118 27.3568 16.8262 26.0415 16.2003 24.7163C16.8163 23.3911 17.5118 22.0659 18.257 20.7704C19.0321 19.4353 19.8269 18.1694 20.6516 16.9926C22.1321 16.864 23.6325 16.7948 25.1428 16.7948C26.6431 16.7948 28.1434 16.864 29.614 16.9827C30.4387 18.1596 31.2435 19.4155 32.0185 20.7407C32.7737 22.0362 33.4593 23.3515 34.0852 24.6767C33.4593 26.0019 32.7737 27.3271 32.0285 28.6226ZM35.2378 27.337C35.7744 28.6622 36.2314 29.9874 36.609 31.273C35.3074 31.5895 33.9362 31.8565 32.5153 32.0641C33.0022 31.3027 33.4891 30.5214 33.9461 29.7203C34.4032 28.9292 34.8304 28.1281 35.2378 27.337ZM25.1626 37.889C24.2386 36.9397 23.3145 35.8815 22.4004 34.7244C23.2946 34.764 24.2088 34.7936 25.1328 34.7936C26.0668 34.7936 26.9909 34.7739 27.895 34.7244C27.0008 35.8815 26.0767 36.9397 25.1626 37.889ZM17.7702 32.0641C16.3593 31.8565 14.998 31.5993 13.6964 31.2829C14.064 30.0071 14.5211 28.6918 15.0378 27.3765C15.4451 28.1677 15.8724 28.9589 16.3394 29.75C16.8064 30.5412 17.2833 31.3125 17.7702 32.0641ZM25.1129 11.4842C26.037 12.4336 26.9611 13.4917 27.8752 14.6488C26.9809 14.6092 26.0668 14.5796 25.1428 14.5796C24.2088 14.5796 23.2847 14.5994 22.3805 14.6488C23.2748 13.4917 24.1988 12.4336 25.1129 11.4842ZM17.7602 17.3091C17.2734 18.0706 16.7865 18.8518 16.3294 19.6529C15.8724 20.444 15.4451 21.2352 15.0378 22.0263C14.5012 20.7012 14.0441 19.376 13.6666 18.0903C14.9682 17.7838 16.3394 17.5167 17.7602 17.3091ZM8.76808 29.6907C5.25071 28.1974 2.97534 26.2393 2.97534 24.6866C2.97534 23.134 5.25071 21.166 8.76808 19.6825C9.62259 19.3166 10.5566 18.9903 11.5204 18.6837C12.0867 20.622 12.8319 22.6395 13.756 24.7064C12.8419 26.7634 12.1066 28.771 11.5502 30.6994C10.5665 30.3928 9.63252 30.0566 8.76808 29.6907ZM14.1137 43.8227C12.7624 43.0513 12.1762 40.1142 12.6332 36.3364C12.7425 35.4068 12.9214 34.4277 13.14 33.4289C15.0874 33.9036 17.2138 34.2695 19.4494 34.5068C20.7907 36.3364 22.1818 37.9978 23.5828 39.4516C20.3436 42.4481 17.3032 44.0897 15.2365 44.0897C14.7893 44.0798 14.4118 43.9908 14.1137 43.8227ZM37.6821 36.2869C38.1491 40.0647 37.5728 43.0019 36.2314 43.7832C35.9333 43.9612 35.5458 44.0403 35.0888 44.0403C33.032 44.0403 29.9816 42.4085 26.7425 39.4318C28.1335 37.978 29.5246 36.3265 30.8461 34.497C33.0916 34.2596 35.2179 33.8937 37.1654 33.4091C37.3939 34.408 37.5728 35.3672 37.6821 36.2869ZM41.5075 29.6907C40.653 30.0566 39.719 30.3829 38.7552 30.6895C38.1888 28.7512 37.4436 26.7337 36.5196 24.6668C37.4337 22.6098 38.169 20.6023 38.7254 18.6738C39.7091 18.9804 40.643 19.3166 41.5174 19.6825C45.0348 21.1758 47.3102 23.134 47.3102 24.6866C47.3002 26.2393 45.0249 28.2073 41.5075 29.6907Z" fill="#61DAFB"/>
<path d="M25.1345 29.203C27.6423 29.203 29.6753 27.1796 29.6753 24.6835C29.6753 22.1875 27.6423 20.1641 25.1345 20.1641C22.6267 20.1641 20.5938 22.1875 20.5938 24.6835C20.5938 27.1796 22.6267 29.203 25.1345 29.203Z" fill="#61DAFB"/>
</svg>
