<svg width="34" height="34" viewBox="0 0 34 34" fill="none" xmlns="http://www.w3.org/2000/svg">
<g clip-path="url(#clip0_1866_13967)">
<path d="M26.29 7.98669C22.6456 8.00422 19.8757 10.4145 18.8387 14.2554C17.0988 11.5779 15.7415 8.51528 14.9632 5.92969L11.1276 5.94775L11.1807 16.1148C11.183 16.5935 11.0909 17.0679 10.9098 17.511C10.7288 17.9541 10.4622 18.3571 10.1253 18.6972C9.78847 19.0373 9.38793 19.3077 8.94658 19.4929C8.50522 19.6782 8.0317 19.7747 7.55305 19.777C6.58636 19.7816 5.65744 19.4019 4.97065 18.7216C4.63059 18.3848 4.3602 17.9842 4.17493 17.5429C3.98967 17.1015 3.89314 16.628 3.89087 16.1493L3.83775 5.98228L0 6.00087L0.053125 16.1685C0.068 20.3877 3.43931 23.7308 7.565 23.7096C11.6907 23.6883 15.0317 20.317 15.0131 16.0968L15.0052 14.3702C15.7787 15.9002 16.7455 17.5258 17.808 18.9602L15.4626 30.1929L19.3938 30.1749L21.0832 22.0138C22.6217 22.9663 24.3504 23.5332 26.3638 23.5236C30.5841 23.505 34.0213 20.037 34 15.6239C33.9809 11.4026 30.5107 7.96703 26.2905 7.98616L26.29 7.98669ZM26.3447 19.5924C24.8104 19.5993 23.273 18.9358 22.0214 17.8855L22.3975 16.3448V16.2482C22.678 14.6151 23.5269 11.8303 26.4042 11.8175C27.4209 11.8157 28.397 12.2162 29.1194 12.9317C29.8417 13.6472 30.2516 14.6195 30.2595 15.6362C30.1729 17.8424 28.3592 19.578 26.3442 19.5871L26.3447 19.5924Z" fill="#E3E3E3"/>
</g>
<defs>
<clipPath id="clip0_1866_13967">
<rect width="34" height="34" fill="white"/>
</clipPath>
</defs>
</svg>
