<svg width="20" height="20" viewBox="0 0 20 20" fill="none" xmlns="http://www.w3.org/2000/svg">
<g clip-path="url(#clip0_7580_1648)">
<path d="M16.6667 5.00016V15.0002C16.6667 15.4422 16.4911 15.8661 16.1785 16.1787C15.866 16.4912 15.442 16.6668 15 16.6668H6.66667C6.22464 16.6668 5.80072 16.4912 5.48816 16.1787C5.17559 15.8661 5 15.4422 5 15.0002V5.00016C5 4.55814 5.17559 4.13421 5.48816 3.82165C5.80072 3.50909 6.22464 3.3335 6.66667 3.3335H15C15.442 3.3335 15.866 3.50909 16.1785 3.82165C16.4911 4.13421 16.6667 4.55814 16.6667 5.00016Z" stroke="#333333" stroke-width="1.25" stroke-linecap="round" stroke-linejoin="round"/>
<path d="M8.33398 13.3335H13.334" stroke="#333333" stroke-width="1.25" stroke-linecap="round" stroke-linejoin="round"/>
<path d="M9.16602 9.16667C9.16602 9.60869 9.34161 10.0326 9.65417 10.3452C9.96673 10.6577 10.3907 10.8333 10.8327 10.8333C11.2747 10.8333 11.6986 10.6577 12.0112 10.3452C12.3238 10.0326 12.4993 9.60869 12.4993 9.16667C12.4993 8.72464 12.3238 8.30072 12.0112 7.98816C11.6986 7.6756 11.2747 7.5 10.8327 7.5C10.3907 7.5 9.96673 7.6756 9.65417 7.98816C9.34161 8.30072 9.16602 8.72464 9.16602 9.16667Z" stroke="#333333" stroke-width="1.25" stroke-linecap="round" stroke-linejoin="round"/>
<path d="M3.33398 6.6665H5.83398" stroke="#333333" stroke-width="1.25" stroke-linecap="round" stroke-linejoin="round"/>
<path d="M3.33398 10H5.83398" stroke="#333333" stroke-width="1.25" stroke-linecap="round" stroke-linejoin="round"/>
<path d="M3.33398 13.3335H5.83398" stroke="#333333" stroke-width="1.25" stroke-linecap="round" stroke-linejoin="round"/>
</g>
<defs>
<clipPath id="clip0_7580_1648">
<rect width="20" height="20" fill="white"/>
</clipPath>
</defs>
</svg>
