<svg width="100" height="24" viewBox="0 0 100 24" fill="none" xmlns="http://www.w3.org/2000/svg">
<g clip-path="url(#clip0_1866_13026)">
<path d="M32.8172 16.6816C32.1075 16.6816 31.4111 16.5878 30.755 16.387C30.0988 16.1995 29.5498 15.9317 29.1079 15.5969L29.7775 14.1105C30.688 14.7399 31.7057 15.0613 32.844 15.0613C33.4332 15.0613 33.8884 14.9676 34.2098 14.7667C34.5178 14.5792 34.6785 14.3114 34.6785 13.9766C34.6785 13.6686 34.5312 13.441 34.25 13.2669C33.9554 13.0928 33.4332 12.9321 32.6967 12.7715C31.8664 12.5974 31.2103 12.3965 30.7148 12.1555C30.2194 11.9144 29.8578 11.6198 29.6302 11.2583C29.4025 10.9101 29.282 10.4816 29.282 9.95938C29.282 9.38357 29.4427 8.87472 29.7641 8.43282C30.0721 7.99092 30.5139 7.62937 31.0898 7.37494C31.6656 7.12052 32.3217 7 33.0716 7C33.7411 7 34.3839 7.09374 35.0133 7.2946C35.6293 7.49546 36.1247 7.74989 36.4863 8.08466L35.8167 9.57104C34.9463 8.94167 34.0357 8.62029 33.085 8.62029C32.536 8.62029 32.1075 8.72742 31.7995 8.92828C31.4915 9.14253 31.3308 9.43713 31.3308 9.79869C31.3308 10.0129 31.3977 10.187 31.5183 10.3209C31.6388 10.4682 31.8396 10.5887 32.1209 10.6959C32.3887 10.803 32.7904 10.9101 33.3126 11.0306C34.5312 11.2985 35.4016 11.6466 35.9372 12.0617C36.4595 12.4769 36.7273 13.0661 36.7273 13.8025C36.7273 14.6997 36.3791 15.3961 35.6962 15.9049C35.0133 16.4272 34.0491 16.6816 32.8172 16.6816Z" fill="#4733FF"/>
<path d="M41.5607 15.1835C41.7616 15.1835 41.9758 15.1701 42.2035 15.1433L42.0964 16.6163C41.8419 16.6565 41.5741 16.6699 41.3197 16.6699C40.3154 16.6699 39.5923 16.4556 39.137 16.0137C38.6683 15.5718 38.4407 14.9157 38.4407 14.0185V11.501H37.1953V9.98785H38.4407V8.05957H40.4627V9.98785H42.1098V11.501H40.4627V14.0051C40.4627 14.7952 40.8242 15.1835 41.5607 15.1835Z" fill="#4733FF"/>
<path d="M49.0375 13.655H44.7524C44.8194 14.1772 44.9935 14.5656 45.2747 14.7932C45.5425 15.0342 45.9442 15.1548 46.4665 15.1548C46.8012 15.1548 47.1494 15.1012 47.4842 14.9941C47.8055 14.8735 48.1135 14.7129 48.3947 14.512L48.9304 15.8645C48.609 16.1189 48.2207 16.3064 47.7654 16.4537C47.2967 16.601 46.8414 16.6679 46.3727 16.6679C45.2613 16.6679 44.3909 16.3599 43.7615 15.744C43.1187 15.1414 42.7974 14.3111 42.7974 13.2533C42.7974 12.5837 42.9313 11.9945 43.2125 11.4723C43.4937 10.95 43.8686 10.5483 44.3641 10.2671C44.8596 9.97249 45.4086 9.8252 46.0379 9.8252C46.9619 9.8252 47.685 10.1198 48.234 10.7224C48.7697 11.325 49.0375 12.1284 49.0375 13.1595V13.655ZM46.0915 11.2178C45.7032 11.2178 45.4086 11.3384 45.1809 11.5794C44.9533 11.8338 44.806 12.182 44.7524 12.6507H47.3369C47.3101 12.182 47.1896 11.8204 46.9753 11.5794C46.7744 11.3384 46.4798 11.2178 46.0915 11.2178Z" fill="#4733FF"/>
<path d="M52.274 7.12012H50.252V16.5607H52.274V7.12012Z" fill="#4733FF"/>
<path d="M55.8299 7.12012H53.8079V16.5607H55.8299V7.12012Z" fill="#4733FF"/>
<path d="M64.0484 9.98589V16.5608H62.0398V15.5833C61.8389 15.918 61.5711 16.1858 61.2095 16.3733C60.848 16.5742 60.4329 16.6679 59.9776 16.6679C59.4018 16.6679 58.9063 16.534 58.4644 16.2528C58.0225 15.9716 57.6878 15.5833 57.4467 15.061C57.1923 14.5522 57.0718 13.963 57.0718 13.28C57.0718 12.5971 57.1923 11.9945 57.4467 11.4723C57.6878 10.95 58.0359 10.5483 58.4778 10.2671C58.9197 9.97249 59.4152 9.8252 59.9776 9.8252C60.4329 9.8252 60.848 9.91893 61.2095 10.1064C61.5711 10.3073 61.8389 10.5751 62.0398 10.9099V9.98589H64.0484ZM60.5668 15.128C61.0355 15.128 61.4104 14.9673 61.6648 14.6459C61.9193 14.3245 62.0398 13.8558 62.0398 13.2533C62.0398 12.6507 61.9193 12.182 61.6648 11.8472C61.4104 11.5258 61.0355 11.3651 60.5668 11.3651C60.0981 11.3651 59.7232 11.5258 59.4687 11.874C59.2143 12.1954 59.0804 12.6774 59.0804 13.28C59.0804 13.8826 59.2143 14.3379 59.4687 14.6593C59.7232 14.9673 60.0981 15.128 60.5668 15.128Z" fill="#4733FF"/>
<path d="M70.2974 11.4864L69.1591 11.6069C68.5967 11.6604 68.195 11.8211 67.9673 12.0756C67.7397 12.3434 67.6192 12.6915 67.6192 13.1334V16.5615H65.5972V9.98658H67.5388V11.098C67.8736 10.3347 68.5565 9.91963 69.5876 9.85267L70.1768 9.8125L70.2974 11.4864Z" fill="#4733FF"/>
<path d="M78.1731 16.6816C77.4634 16.6816 76.7671 16.5878 76.1109 16.387C75.4548 16.1995 74.9058 15.9317 74.4639 15.5969L75.1334 14.1105C76.044 14.7399 77.0617 15.0613 78.1999 15.0613C78.7891 15.0613 79.2444 14.9676 79.5658 14.7667C79.8738 14.5792 80.0345 14.3114 80.0345 13.9766C80.0345 13.6686 79.8872 13.441 79.606 13.2669C79.3114 13.0928 78.7891 12.9321 78.0526 12.7715C77.2224 12.5974 76.5662 12.3965 76.0708 12.1555C75.5753 11.9144 75.2138 11.6198 74.9861 11.2583C74.7585 10.9101 74.6379 10.4816 74.6379 9.95938C74.6379 9.38357 74.7986 8.87472 75.12 8.43282C75.428 7.99092 75.8699 7.62937 76.4457 7.37494C77.0215 7.12052 77.6777 7 78.4276 7C79.0971 7 79.7399 7.09374 80.3692 7.2946C80.9852 7.49546 81.4807 7.74989 81.8422 8.08466L81.1727 9.57104C80.3023 8.94167 79.3917 8.62029 78.4409 8.62029C77.8919 8.62029 77.4634 8.72742 77.1554 8.92828C76.8474 9.14253 76.6867 9.43713 76.6867 9.79869C76.6867 10.0129 76.7537 10.187 76.8742 10.3209C76.9947 10.4682 77.1956 10.5887 77.4768 10.6959C77.7446 10.803 78.1463 10.9101 78.6686 11.0306C79.8872 11.2985 80.7576 11.6466 81.2932 12.0617C81.8154 12.4769 82.0833 13.0661 82.0833 13.8025C82.0833 14.6997 81.7351 15.3961 81.0522 15.9049C80.3692 16.4272 79.4051 16.6816 78.1731 16.6816Z" fill="#4733FF"/>
<path d="M86.3254 16.6679C85.629 16.6679 85.0131 16.5206 84.4908 16.2394C83.9686 15.9582 83.5535 15.5699 83.2723 15.0476C82.991 14.5388 82.8438 13.9362 82.8438 13.2399C82.8438 12.5435 82.991 11.9409 83.2723 11.4187C83.5535 10.9099 83.9686 10.5215 84.4908 10.2403C85.0131 9.9591 85.629 9.8252 86.3254 9.8252C87.0217 9.8252 87.6377 9.9591 88.1599 10.2403C88.6822 10.5215 89.0973 10.9099 89.3785 11.4187C89.6597 11.9409 89.807 12.5435 89.807 13.2399C89.807 13.9362 89.6597 14.5388 89.3785 15.0476C89.0973 15.5699 88.6822 15.9582 88.1599 16.2394C87.6377 16.5206 87.0217 16.6679 86.3254 16.6679ZM86.3254 15.128C87.3029 15.128 87.7984 14.4986 87.7984 13.2399C87.7984 12.6105 87.6778 12.1284 87.4234 11.8204C87.169 11.5124 86.794 11.3518 86.3254 11.3518C85.3478 11.3518 84.8524 11.9811 84.8524 13.2399C84.8524 14.4986 85.3478 15.128 86.3254 15.128Z" fill="#4733FF"/>
<path d="M96.1276 9.98445V8.05762H98.1438V9.98445H99.7942V11.4967H98.1438V14.0007C98.1438 14.7893 98.5097 15.1796 99.2495 15.1796C99.4528 15.1796 99.6642 15.1715 99.8918 15.1389L99.778 16.6186C99.526 16.6511 99.2658 16.6674 99.0056 16.6674C98.0056 16.6674 97.2739 16.4479 96.8186 16.0089C96.3552 15.578 96.1276 14.9113 96.1276 14.017V11.4967H93.5178V16.5617H91.4934V11.4967H90.2495V9.98445H91.4934C91.5097 9.05762 91.778 8.35843 92.3064 7.89502C92.8268 7.42347 93.6235 7.15518 94.6967 7.09827L95.4284 7.05762L95.5503 8.5373L94.9243 8.56982C94.404 8.58608 94.0381 8.68364 93.8268 8.85437C93.6154 9.03323 93.5178 9.31779 93.5178 9.71616V9.98445H96.1276Z" fill="#4733FF"/>
<path fill-rule="evenodd" clip-rule="evenodd" d="M4.76706 23.9619C4.69051 24.002 4.59694 24.0008 4.5216 23.9558C4.44626 23.9121 4.39885 23.8319 4.39642 23.7444C4.36604 21.2811 4.55804 8.22244 11.7071 0.521621C11.8518 0.366073 12.0535 0.277344 12.2649 0.277344C12.4764 0.278559 12.6793 0.366073 12.8227 0.521621C19.9487 8.2273 20.1602 21.2787 20.1335 23.7431C20.131 23.8306 20.0848 23.9108 20.0083 23.9558C19.9329 23.9995 19.8406 24.002 19.7628 23.9607C18.403 23.2461 13.6199 20.7318 12.5007 20.1437C12.3537 20.0659 12.1774 20.0659 12.0304 20.1437C10.91 20.7318 6.12689 23.2473 4.76706 23.9619ZM12.2661 10.2506C13.5944 10.2506 14.6711 11.3273 14.6711 12.6568C14.6711 13.985 13.5944 15.0617 12.2661 15.0617C10.9367 15.0617 9.86002 13.985 9.86002 12.6568C9.86002 11.3273 10.9367 10.2506 12.2661 10.2506Z" fill="#4733FF"/>
<path d="M4.91654 8.4096C5.00404 8.39744 5.09154 8.43145 5.14744 8.4995C5.20334 8.56756 5.22034 8.65993 5.19118 8.74378C4.75127 10.0198 4.3466 11.4354 4.00269 13.0006C3.98325 13.0906 3.9164 13.1635 3.82769 13.189C3.7402 13.2157 3.6442 13.1926 3.57858 13.1282C2.88104 12.4477 1.23566 10.8448 0.274426 9.90792C0.135891 9.77303 0.0860486 9.57131 0.145594 9.38903C0.20514 9.20553 0.364347 9.07188 0.555136 9.04393C1.84569 8.85679 4.01364 8.54084 4.91654 8.4096Z" fill="#4733FF"/>
<path d="M23.976 9.04393C24.1667 9.07188 24.3259 9.20553 24.3855 9.38903C24.445 9.57131 24.3952 9.77303 24.2567 9.90792C23.2955 10.8448 21.6513 12.4477 20.9537 13.127C20.8881 13.1915 20.7921 13.2157 20.7046 13.189C20.6159 13.1623 20.549 13.0906 20.5296 13.0006C20.1857 11.4354 19.781 10.0198 19.3411 8.74378C19.312 8.66115 19.329 8.56756 19.3849 8.4995C19.4408 8.43145 19.5283 8.39742 19.6158 8.41078C20.5187 8.54203 22.6866 8.85679 23.976 9.04393Z" fill="#4733FF"/>
</g>
<defs>
<clipPath id="clip0_1866_13026">
<rect width="100" height="24" fill="white"/>
</clipPath>
</defs>
</svg>
