<svg width="50" height="50" viewBox="0 0 50 50" fill="none" xmlns="http://www.w3.org/2000/svg">
<path d="M37.3343 14.0369C37.3084 13.8562 37.1437 13.7564 37.0076 13.7454C36.8717 13.7344 33.996 13.5298 33.996 13.5298C33.996 13.5298 31.9988 11.6259 31.7797 11.4153C31.5603 11.2046 31.132 11.2686 30.9658 11.3157C30.9411 11.3226 30.5293 11.4447 29.848 11.647C29.1807 9.80372 28.0035 8.10964 25.932 8.10964C25.8749 8.10964 25.816 8.11195 25.7571 8.11512C25.168 7.36708 24.4382 7.04211 23.808 7.04211C18.9828 7.04211 16.6775 12.834 15.9547 15.7774C14.0798 16.3353 12.7477 16.7318 12.5776 16.7832C11.5311 17.0983 11.498 17.1301 11.3606 18.077C11.2569 18.7939 8.51855 39.1285 8.51855 39.1285L29.8567 42.9675L41.4186 40.5657C41.4186 40.5657 37.3598 14.2175 37.3343 14.0369ZM28.6686 11.9974C28.1327 12.1567 27.5235 12.3376 26.8631 12.5339C26.8637 12.4118 26.8643 12.2914 26.8643 12.1601C26.8643 11.0144 26.6987 10.092 26.433 9.36072C27.5003 9.48943 28.2111 10.6554 28.6686 11.9974ZM25.1091 9.58784C25.4057 10.3018 25.5987 11.3264 25.5987 12.709C25.5987 12.7797 25.5981 12.8444 25.5975 12.9099C24.4232 13.2591 23.1473 13.6383 21.8685 14.0187C22.5865 11.3578 23.9324 10.0727 25.1091 9.58784ZM23.6754 8.28482C23.8837 8.28482 24.0935 8.35264 24.2943 8.4854C22.7479 9.18409 21.0903 10.944 20.3903 14.4582C19.3672 14.7624 18.3673 15.0597 17.4427 15.3347C18.2627 12.6542 20.2097 8.28482 23.6754 8.28482Z" fill="#95BF46"/>
<path d="M37.0081 13.7454C36.8722 13.7344 33.9965 13.5298 33.9965 13.5298C33.9965 13.5298 31.9993 11.6259 31.7802 11.4152C31.6981 11.3367 31.5875 11.2966 31.4718 11.2793L29.8584 42.9671L41.4191 40.5657C41.4191 40.5657 37.3603 14.2175 37.3348 14.0369C37.3089 13.8562 37.1442 13.7563 37.0081 13.7454Z" fill="#5E8E3E"/>
<path d="M25.9332 19.8779L24.5076 23.9497C24.5076 23.9497 23.2585 23.3096 21.7275 23.3096C19.4829 23.3096 19.3699 24.6623 19.3699 25.0031C19.3699 26.8628 24.4187 27.5754 24.4187 31.9315C24.4187 35.3586 22.1549 37.5655 19.1024 37.5655C15.4395 37.5655 13.5664 35.3765 13.5664 35.3765L14.5471 32.2651C14.5471 32.2651 16.4725 33.8524 18.0973 33.8524C19.1589 33.8524 19.5908 33.0498 19.5908 32.4634C19.5908 30.0374 15.4488 29.9292 15.4488 25.9431C15.4488 22.5881 17.9567 19.3414 23.019 19.3414C24.9696 19.3414 25.9332 19.8779 25.9332 19.8779Z" fill="white"/>
<path d="M43.0551 9.72222L45.8329 1.38889M48.6107 5.55555H40.2773" stroke="#E2C609" stroke-width="1.38889" stroke-linecap="round" stroke-linejoin="round"/>
</svg>
