<?xml version="1.0" encoding="UTF-8"?>
<svg xmlns="http://www.w3.org/2000/svg" xmlns:xlink="http://www.w3.org/1999/xlink" width="50px" height="50px" viewBox="0 0 50 50" version="1.1">
<g id="surface1">
<path style=" stroke:none;fill-rule:nonzero;fill:rgb(58.431375%,74.901962%,27.450982%);fill-opacity:1;" d="M 41.398438 9.820312 C 41.363281 9.570312 41.144531 9.429688 40.964844 9.414062 C 40.785156 9.398438 36.960938 9.117188 36.960938 9.117188 C 36.960938 9.117188 34.304688 6.480469 34.015625 6.1875 C 33.722656 5.898438 33.152344 5.984375 32.933594 6.050781 C 32.898438 6.058594 32.351562 6.230469 31.445312 6.507812 C 30.558594 3.957031 28.992188 1.613281 26.238281 1.613281 C 26.164062 1.613281 26.085938 1.613281 26.007812 1.621094 C 25.222656 0.582031 24.253906 0.132812 23.417969 0.132812 C 17 0.132812 13.9375 8.152344 12.976562 12.226562 C 10.480469 13 8.710938 13.550781 8.484375 13.621094 C 7.09375 14.058594 7.050781 14.101562 6.867188 15.414062 C 6.730469 16.40625 3.089844 44.5625 3.089844 44.5625 L 31.457031 49.875 L 46.828125 46.550781 C 46.828125 46.550781 41.433594 10.070312 41.398438 9.820312 Z M 29.878906 6.996094 C 29.164062 7.214844 28.355469 7.464844 27.476562 7.738281 C 27.480469 7.570312 27.480469 7.402344 27.480469 7.21875 C 27.480469 5.632812 27.257812 4.355469 26.90625 3.34375 C 28.324219 3.523438 29.269531 5.136719 29.878906 6.996094 Z M 25.144531 3.660156 C 25.539062 4.648438 25.796875 6.066406 25.796875 7.980469 C 25.796875 8.078125 25.796875 8.167969 25.796875 8.257812 C 24.234375 8.742188 22.539062 9.265625 20.835938 9.792969 C 21.792969 6.109375 23.582031 4.328125 25.144531 3.660156 Z M 23.238281 1.855469 C 23.515625 1.855469 23.796875 1.949219 24.0625 2.132812 C 22.007812 3.097656 19.804688 5.535156 18.871094 10.402344 C 17.511719 10.824219 16.183594 11.234375 14.953125 11.617188 C 16.042969 7.902344 18.632812 1.855469 23.238281 1.855469 Z M 23.238281 1.855469 "/>
<path style=" stroke:none;fill-rule:nonzero;fill:rgb(36.862746%,55.686277%,24.313726%);fill-opacity:1;" d="M 40.964844 9.414062 C 40.785156 9.398438 36.960938 9.117188 36.960938 9.117188 C 36.960938 9.117188 34.304688 6.480469 34.015625 6.1875 C 33.90625 6.078125 33.757812 6.023438 33.605469 6 L 31.460938 49.875 L 46.828125 46.550781 C 46.828125 46.550781 41.433594 10.070312 41.398438 9.820312 C 41.363281 9.570312 41.144531 9.429688 40.964844 9.414062 "/>
<path style=" stroke:none;fill-rule:nonzero;fill:rgb(100%,100%,100%);fill-opacity:1;" d="M 26.238281 17.910156 L 24.34375 23.546875 C 24.34375 23.546875 22.683594 22.660156 20.648438 22.660156 C 17.664062 22.660156 17.515625 24.53125 17.515625 25.003906 C 17.515625 27.578125 24.226562 28.566406 24.226562 34.597656 C 24.226562 39.34375 21.214844 42.398438 17.160156 42.398438 C 12.289062 42.398438 9.796875 39.367188 9.796875 39.367188 L 11.101562 35.058594 C 11.101562 35.058594 13.660156 37.257812 15.820312 37.257812 C 17.234375 37.257812 17.808594 36.144531 17.808594 35.335938 C 17.808594 31.976562 12.300781 31.824219 12.300781 26.304688 C 12.300781 21.660156 15.636719 17.164062 22.367188 17.164062 C 24.957031 17.164062 26.238281 17.910156 26.238281 17.910156 "/>
</g>
</svg>
