<?xml version="1.0" encoding="UTF-8"?>
<svg xmlns="http://www.w3.org/2000/svg" xmlns:xlink="http://www.w3.org/1999/xlink" width="50px" height="50px" viewBox="0 0 50 50" version="1.1">
<g id="surface1">
<path style=" stroke:none;fill-rule:nonzero;fill:rgb(58.431375%,74.901962%,27.450982%);fill-opacity:1;" d="M 37.332031 14.035156 C 37.308594 13.855469 37.144531 13.757812 37.007812 13.746094 C 36.871094 13.734375 33.996094 13.53125 33.996094 13.53125 C 33.996094 13.53125 32 11.625 31.777344 11.414062 C 31.558594 11.203125 31.132812 11.269531 30.964844 11.316406 C 30.941406 11.324219 30.527344 11.445312 29.847656 11.648438 C 29.179688 9.804688 28.003906 8.109375 25.929688 8.109375 C 25.875 8.109375 25.816406 8.113281 25.757812 8.117188 C 25.167969 7.367188 24.4375 7.042969 23.808594 7.042969 C 18.980469 7.042969 16.675781 12.835938 15.953125 15.777344 C 14.078125 16.335938 12.746094 16.730469 12.578125 16.785156 C 11.53125 17.097656 11.496094 17.128906 11.359375 18.078125 C 11.257812 18.792969 8.519531 39.128906 8.519531 39.128906 L 29.855469 42.96875 L 41.417969 40.566406 C 41.417969 40.566406 37.359375 14.21875 37.332031 14.035156 Z M 28.667969 11.996094 C 28.132812 12.15625 27.523438 12.335938 26.863281 12.535156 C 26.863281 12.410156 26.863281 12.292969 26.863281 12.160156 C 26.863281 11.015625 26.699219 10.09375 26.433594 9.359375 C 27.5 9.488281 28.210938 10.65625 28.667969 11.996094 Z M 25.109375 9.589844 C 25.40625 10.300781 25.597656 11.328125 25.597656 12.710938 C 25.597656 12.78125 25.597656 12.84375 25.597656 12.910156 C 24.421875 13.257812 23.148438 13.636719 21.867188 14.019531 C 22.585938 11.359375 23.933594 10.074219 25.109375 9.589844 Z M 23.675781 8.285156 C 23.882812 8.285156 24.09375 8.351562 24.292969 8.484375 C 22.746094 9.183594 21.089844 10.945312 20.390625 14.457031 C 19.367188 14.761719 18.367188 15.058594 17.441406 15.335938 C 18.261719 12.65625 20.210938 8.285156 23.675781 8.285156 Z M 23.675781 8.285156 "/>
<path style=" stroke:none;fill-rule:nonzero;fill:rgb(36.862746%,55.686277%,24.313726%);fill-opacity:1;" d="M 37.007812 13.746094 C 36.871094 13.734375 33.996094 13.53125 33.996094 13.53125 C 33.996094 13.53125 32 11.625 31.78125 11.414062 C 31.699219 11.335938 31.585938 11.296875 31.472656 11.28125 L 29.859375 42.96875 L 41.417969 40.566406 C 41.417969 40.566406 37.359375 14.21875 37.335938 14.039062 C 37.308594 13.855469 37.144531 13.757812 37.007812 13.746094 Z M 37.007812 13.746094 "/>
<path style=" stroke:none;fill-rule:nonzero;fill:rgb(100%,100%,100%);fill-opacity:1;" d="M 25.933594 19.878906 L 24.507812 23.949219 C 24.507812 23.949219 23.257812 23.308594 21.726562 23.308594 C 19.484375 23.308594 19.371094 24.660156 19.371094 25.003906 C 19.371094 26.863281 24.417969 27.574219 24.417969 31.929688 C 24.417969 35.359375 22.15625 37.566406 19.101562 37.566406 C 15.441406 37.566406 13.566406 35.375 13.566406 35.375 L 14.546875 32.265625 C 14.546875 32.265625 16.472656 33.851562 18.097656 33.851562 C 19.160156 33.851562 19.589844 33.050781 19.589844 32.464844 C 19.589844 30.039062 15.449219 29.929688 15.449219 25.941406 C 15.449219 22.585938 17.957031 19.339844 23.019531 19.339844 C 24.96875 19.339844 25.933594 19.878906 25.933594 19.878906 Z M 25.933594 19.878906 "/>
</g>
</svg>
