<svg width="20" height="20" viewBox="0 0 20 20" fill="none" xmlns="http://www.w3.org/2000/svg">
<g clip-path="url(#clip0_7580_1808)">
<path d="M2.5 12.4998C2.5 12.2788 2.5878 12.0669 2.74408 11.9106C2.90036 11.7543 3.11232 11.6665 3.33333 11.6665H5C5.22101 11.6665 5.43298 11.7543 5.58926 11.9106C5.74554 12.0669 5.83333 12.2788 5.83333 12.4998V14.1665C5.83333 14.3875 5.74554 14.5995 5.58926 14.7558C5.43298 14.912 5.22101 14.9998 5 14.9998H3.33333C3.11232 14.9998 2.90036 14.912 2.74408 14.7558C2.5878 14.5995 2.5 14.3875 2.5 14.1665V12.4998Z" stroke="#333333" stroke-width="1.25" stroke-linecap="round" stroke-linejoin="round"/>
<path d="M14.166 12.4998C14.166 12.2788 14.2538 12.0669 14.4101 11.9106C14.5664 11.7543 14.7783 11.6665 14.9993 11.6665H16.666C16.887 11.6665 17.099 11.7543 17.2553 11.9106C17.4116 12.0669 17.4993 12.2788 17.4993 12.4998V14.1665C17.4993 14.3875 17.4116 14.5995 17.2553 14.7558C17.099 14.912 16.887 14.9998 16.666 14.9998H14.9993C14.7783 14.9998 14.5664 14.912 14.4101 14.7558C14.2538 14.5995 14.166 14.3875 14.166 14.1665V12.4998Z" stroke="#333333" stroke-width="1.25" stroke-linecap="round" stroke-linejoin="round"/>
<path d="M8.33398 5.83333C8.33398 5.61232 8.42178 5.40036 8.57806 5.24408C8.73434 5.0878 8.9463 5 9.16732 5H10.834C11.055 5 11.267 5.0878 11.4232 5.24408C11.5795 5.40036 11.6673 5.61232 11.6673 5.83333V7.5C11.6673 7.72101 11.5795 7.93298 11.4232 8.08926C11.267 8.24554 11.055 8.33333 10.834 8.33333H9.16732C8.9463 8.33333 8.73434 8.24554 8.57806 8.08926C8.42178 7.93298 8.33398 7.72101 8.33398 7.5V5.83333Z" stroke="#333333" stroke-width="1.25" stroke-linecap="round" stroke-linejoin="round"/>
<path d="M8.33268 7.0835C7.22414 7.26806 6.21009 7.82069 5.45414 8.65224C4.69818 9.48379 4.24441 10.5458 4.16602 11.6668" stroke="#333333" stroke-width="1.25" stroke-linecap="round" stroke-linejoin="round"/>
<path d="M11.666 7.0835C12.7746 7.26806 13.7886 7.82069 14.5446 8.65224C15.3005 9.48379 15.7543 10.5458 15.8327 11.6668" stroke="#333333" stroke-width="1.25" stroke-linecap="round" stroke-linejoin="round"/>
<path d="M8.33398 6.6665H3.33398" stroke="#333333" stroke-width="1.25" stroke-linecap="round" stroke-linejoin="round"/>
<path d="M16.666 6.6665H11.666" stroke="#333333" stroke-width="1.25" stroke-linecap="round" stroke-linejoin="round"/>
<path d="M1.66602 6.66683C1.66602 6.88784 1.75381 7.0998 1.91009 7.25608C2.06637 7.41237 2.27834 7.50016 2.49935 7.50016C2.72036 7.50016 2.93232 7.41237 3.0886 7.25608C3.24489 7.0998 3.33268 6.88784 3.33268 6.66683C3.33268 6.44582 3.24489 6.23385 3.0886 6.07757C2.93232 5.92129 2.72036 5.8335 2.49935 5.8335C2.27834 5.8335 2.06637 5.92129 1.91009 6.07757C1.75381 6.23385 1.66602 6.44582 1.66602 6.66683Z" stroke="#333333" stroke-width="1.25" stroke-linecap="round" stroke-linejoin="round"/>
<path d="M16.666 6.66683C16.666 6.88784 16.7538 7.0998 16.9101 7.25608C17.0664 7.41237 17.2783 7.50016 17.4993 7.50016C17.7204 7.50016 17.9323 7.41237 18.0886 7.25608C18.2449 7.0998 18.3327 6.88784 18.3327 6.66683C18.3327 6.44582 18.2449 6.23385 18.0886 6.07757C17.9323 5.92129 17.7204 5.8335 17.4993 5.8335C17.2783 5.8335 17.0664 5.92129 16.9101 6.07757C16.7538 6.23385 16.666 6.44582 16.666 6.66683Z" stroke="#333333" stroke-width="1.25" stroke-linecap="round" stroke-linejoin="round"/>
</g>
<defs>
<clipPath id="clip0_7580_1808">
<rect width="20" height="20" fill="white"/>
</clipPath>
</defs>
</svg>
