<svg width="20" height="20" viewBox="0 0 20 20" fill="none" xmlns="http://www.w3.org/2000/svg">
<g clip-path="url(#clip0_7858_1714)">
<path d="M7.65245 5.09739C6.57412 4.88084 5.45448 5.02587 4.46692 5.51004C3.47937 5.99421 2.67901 6.79049 2.1898 7.77556C1.70059 8.76064 1.54984 9.87953 1.76089 10.9589C1.97193 12.0384 2.533 13.0181 3.3572 13.7464C4.1814 14.4746 5.22273 14.9108 6.31992 14.9874C7.41711 15.064 8.50893 14.7766 9.42629 14.1699C10.3436 13.5631 11.0353 12.6708 11.3943 11.6312C11.7532 10.5915 11.7593 9.46253 11.4116 8.41906" stroke="#333333" stroke-width="1.25" stroke-linecap="round" stroke-linejoin="round"/>
<path d="M12.3438 14.9023C13.4232 15.12 14.5444 14.9752 15.5331 14.4904C16.5219 14.0057 17.3229 13.2081 17.812 12.2214C18.301 11.2348 18.4506 10.1143 18.2376 9.03387C18.0246 7.95347 17.4609 6.97361 16.634 6.24639C15.8071 5.51916 14.7632 5.08527 13.6645 5.01205C12.5657 4.93883 11.4735 5.23038 10.5574 5.84145C9.64136 6.45252 8.95262 7.34892 8.59816 8.3915C8.24369 9.43409 8.24331 10.5645 8.5971 11.6073" stroke="#333333" stroke-width="1.25" stroke-linecap="round" stroke-linejoin="round"/>
</g>
<defs>
<clipPath id="clip0_7858_1714">
<rect width="20" height="20" fill="white"/>
</clipPath>
</defs>
</svg>
