<svg width="20" height="20" viewBox="0 0 20 20" fill="none" xmlns="http://www.w3.org/2000/svg">
<g clip-path="url(#clip0_7580_1831)">
<path d="M3.33301 4.16634C3.33301 3.94533 3.42081 3.73337 3.57709 3.57709C3.73337 3.42081 3.94533 3.33301 4.16634 3.33301H7.49967C7.72069 3.33301 7.93265 3.42081 8.08893 3.57709C8.24521 3.73337 8.33301 3.94533 8.33301 4.16634V7.49967C8.33301 7.72069 8.24521 7.93265 8.08893 8.08893C7.93265 8.24521 7.72069 8.33301 7.49967 8.33301H4.16634C3.94533 8.33301 3.73337 8.24521 3.57709 8.08893C3.42081 7.93265 3.33301 7.72069 3.33301 7.49967V4.16634Z" stroke="#333333" stroke-width="1.25" stroke-linecap="round" stroke-linejoin="round"/>
<path d="M3.33301 12.5003C3.33301 12.2793 3.42081 12.0674 3.57709 11.9111C3.73337 11.7548 3.94533 11.667 4.16634 11.667H7.49967C7.72069 11.667 7.93265 11.7548 8.08893 11.9111C8.24521 12.0674 8.33301 12.2793 8.33301 12.5003V15.8337C8.33301 16.0547 8.24521 16.2666 8.08893 16.4229C7.93265 16.5792 7.72069 16.667 7.49967 16.667H4.16634C3.94533 16.667 3.73337 16.5792 3.57709 16.4229C3.42081 16.2666 3.33301 16.0547 3.33301 15.8337V12.5003Z" stroke="#333333" stroke-width="1.25" stroke-linecap="round" stroke-linejoin="round"/>
<path d="M11.667 12.5003C11.667 12.2793 11.7548 12.0674 11.9111 11.9111C12.0674 11.7548 12.2793 11.667 12.5003 11.667H15.8337C16.0547 11.667 16.2666 11.7548 16.4229 11.9111C16.5792 12.0674 16.667 12.2793 16.667 12.5003V15.8337C16.667 16.0547 16.5792 16.2666 16.4229 16.4229C16.2666 16.5792 16.0547 16.667 15.8337 16.667H12.5003C12.2793 16.667 12.0674 16.5792 11.9111 16.4229C11.7548 16.2666 11.667 16.0547 11.667 15.8337V12.5003Z" stroke="#333333" stroke-width="1.25" stroke-linecap="round" stroke-linejoin="round"/>
<path d="M11.667 5.83301H16.667" stroke="#333333" stroke-width="1.25" stroke-linecap="round" stroke-linejoin="round"/>
<path d="M14.167 3.33301V8.33301" stroke="#333333" stroke-width="1.25" stroke-linecap="round" stroke-linejoin="round"/>
</g>
<defs>
<clipPath id="clip0_7580_1831">
<rect width="20" height="20" fill="white"/>
</clipPath>
</defs>
</svg>
