<svg width="20" height="20" viewBox="0 0 20 20" fill="none" xmlns="http://www.w3.org/2000/svg">
<g clip-path="url(#clip0_7858_1677)">
<path d="M3.33301 4.16683C3.33301 3.94582 3.42081 3.73385 3.57709 3.57757C3.73337 3.42129 3.94533 3.3335 4.16634 3.3335H7.49967C7.72069 3.3335 7.93265 3.42129 8.08893 3.57757C8.24521 3.73385 8.33301 3.94582 8.33301 4.16683V7.50016C8.33301 7.72118 8.24521 7.93314 8.08893 8.08942C7.93265 8.2457 7.72069 8.3335 7.49967 8.3335H4.16634C3.94533 8.3335 3.73337 8.2457 3.57709 8.08942C3.42081 7.93314 3.33301 7.72118 3.33301 7.50016V4.16683Z" stroke="#333333" stroke-width="1.25" stroke-linecap="round" stroke-linejoin="round"/>
<path d="M3.33301 12.4998C3.33301 12.2788 3.42081 12.0669 3.57709 11.9106C3.73337 11.7543 3.94533 11.6665 4.16634 11.6665H7.49967C7.72069 11.6665 7.93265 11.7543 8.08893 11.9106C8.24521 12.0669 8.33301 12.2788 8.33301 12.4998V15.8332C8.33301 16.0542 8.24521 16.2661 8.08893 16.4224C7.93265 16.5787 7.72069 16.6665 7.49967 16.6665H4.16634C3.94533 16.6665 3.73337 16.5787 3.57709 16.4224C3.42081 16.2661 3.33301 16.0542 3.33301 15.8332V12.4998Z" stroke="#333333" stroke-width="1.25" stroke-linecap="round" stroke-linejoin="round"/>
<path d="M11.667 12.4998C11.667 12.2788 11.7548 12.0669 11.9111 11.9106C12.0674 11.7543 12.2793 11.6665 12.5003 11.6665H15.8337C16.0547 11.6665 16.2666 11.7543 16.4229 11.9106C16.5792 12.0669 16.667 12.2788 16.667 12.4998V15.8332C16.667 16.0542 16.5792 16.2661 16.4229 16.4224C16.2666 16.5787 16.0547 16.6665 15.8337 16.6665H12.5003C12.2793 16.6665 12.0674 16.5787 11.9111 16.4224C11.7548 16.2661 11.667 16.0542 11.667 15.8332V12.4998Z" stroke="#333333" stroke-width="1.25" stroke-linecap="round" stroke-linejoin="round"/>
<path d="M11.667 5.8335H16.667" stroke="#333333" stroke-width="1.25" stroke-linecap="round" stroke-linejoin="round"/>
<path d="M14.167 3.3335V8.3335" stroke="#333333" stroke-width="1.25" stroke-linecap="round" stroke-linejoin="round"/>
</g>
<defs>
<clipPath id="clip0_7858_1677">
<rect width="20" height="20" fill="white"/>
</clipPath>
</defs>
</svg>
