<svg width="20" height="20" viewBox="0 0 20 20" fill="none" xmlns="http://www.w3.org/2000/svg">
<g clip-path="url(#clip0_7580_1803)">
<path d="M10.4167 13.3335H3.33333C3.11232 13.3335 2.90036 13.2457 2.74408 13.0894C2.5878 12.9331 2.5 12.7212 2.5 12.5002V4.16683C2.5 3.94582 2.5878 3.73385 2.74408 3.57757C2.90036 3.42129 3.11232 3.3335 3.33333 3.3335H16.6667C16.8877 3.3335 17.0996 3.42129 17.2559 3.57757C17.4122 3.73385 17.5 3.94582 17.5 4.16683V10.8335" stroke="#333333" stroke-linecap="round" stroke-linejoin="round"/>
<path d="M5.83301 16.6665H9.16634" stroke="#333333" stroke-linecap="round" stroke-linejoin="round"/>
<path d="M7.5 13.3335V16.6668" stroke="#333333" stroke-linecap="round" stroke-linejoin="round"/>
<path d="M16.667 17.4998L18.3337 15.8332L16.667 14.1665" stroke="#333333" stroke-linecap="round" stroke-linejoin="round"/>
<path d="M14.1667 14.1665L12.5 15.8332L14.1667 17.4998" stroke="#333333" stroke-linecap="round" stroke-linejoin="round"/>
</g>
<defs>
<clipPath id="clip0_7580_1803">
<rect width="20" height="20" fill="white"/>
</clipPath>
</defs>
</svg>
