<svg width="20" height="20" viewBox="0 0 20 20" fill="none" xmlns="http://www.w3.org/2000/svg">
<g clip-path="url(#clip0_7858_1726)">
<path d="M2.5 6.6665C2.5 6.00346 2.76339 5.36758 3.23223 4.89874C3.70107 4.4299 4.33696 4.1665 5 4.1665H15C15.663 4.1665 16.2989 4.4299 16.7678 4.89874C17.2366 5.36758 17.5 6.00346 17.5 6.6665V13.3332C17.5 13.9962 17.2366 14.6321 16.7678 15.1009C16.2989 15.5698 15.663 15.8332 15 15.8332H5C4.33696 15.8332 3.70107 15.5698 3.23223 15.1009C2.76339 14.6321 2.5 13.9962 2.5 13.3332V6.6665Z" stroke="#333333" stroke-width="1.25" stroke-linecap="round" stroke-linejoin="round"/>
<path d="M2.5 8.3335H17.5" stroke="#333333" stroke-width="1.25" stroke-linecap="round" stroke-linejoin="round"/>
<path d="M5.83301 12.5H5.84134" stroke="#333333" stroke-width="1.25" stroke-linecap="round" stroke-linejoin="round"/>
<path d="M9.16699 12.5H10.8337" stroke="#333333" stroke-width="1.25" stroke-linecap="round" stroke-linejoin="round"/>
</g>
<defs>
<clipPath id="clip0_7858_1726">
<rect width="20" height="20" fill="white"/>
</clipPath>
</defs>
</svg>
