<svg width="20" height="20" viewBox="0 0 20 20" fill="none" xmlns="http://www.w3.org/2000/svg">
<g clip-path="url(#clip0_13411_3287)">
<path d="M3.33301 10.8335C4.81892 11.0101 6.20221 11.6814 7.26031 12.7395C8.3184 13.7976 8.98975 15.1809 9.16634 16.6668C9.90294 16.2422 10.5191 15.6367 10.9565 14.9076C11.394 14.1785 11.6383 13.3499 11.6663 12.5002C13.0656 12.0079 14.2875 11.1118 15.1775 9.92517C16.0675 8.73852 16.5856 7.31461 16.6663 5.8335C16.6663 5.17045 16.4029 4.53457 15.9341 4.06573C15.4653 3.59689 14.8294 3.3335 14.1663 3.3335C12.6852 3.41425 11.2613 3.93238 10.0747 4.82237C8.88801 5.71236 7.99191 6.93424 7.49967 8.3335C6.64989 8.36156 5.82131 8.60586 5.09223 9.04331C4.36315 9.48075 3.75767 10.0969 3.33301 10.8335Z" stroke="#333333" stroke-width="1.25" stroke-linecap="round" stroke-linejoin="round"/>
<path d="M5.83292 11.6665C4.96561 12.1561 4.2643 12.8937 3.81888 13.7845C3.37347 14.6753 3.20425 15.6789 3.33292 16.6665C4.32055 16.7952 5.32411 16.626 6.21494 16.1805C7.10577 15.7351 7.84328 15.0338 8.33292 14.1665" stroke="#333333" stroke-width="1.25" stroke-linecap="round" stroke-linejoin="round"/>
<path d="M11.667 7.49984C11.667 7.72085 11.7548 7.93281 11.9111 8.08909C12.0674 8.24537 12.2793 8.33317 12.5003 8.33317C12.7213 8.33317 12.9333 8.24537 13.0896 8.08909C13.2459 7.93281 13.3337 7.72085 13.3337 7.49984C13.3337 7.27882 13.2459 7.06686 13.0896 6.91058C12.9333 6.7543 12.7213 6.6665 12.5003 6.6665C12.2793 6.6665 12.0674 6.7543 11.9111 6.91058C11.7548 7.06686 11.667 7.27882 11.667 7.49984Z" stroke="#333333" stroke-width="1.25" stroke-linecap="round" stroke-linejoin="round"/>
</g>
<defs>
<clipPath id="clip0_13411_3287">
<rect width="20" height="20" fill="white"/>
</clipPath>
</defs>
</svg>
