<svg width="20" height="20" viewBox="0 0 20 20" fill="none" xmlns="http://www.w3.org/2000/svg">
<g clip-path="url(#clip0_7580_1776)">
<path d="M10 17.5H4.16667C3.72464 17.5 3.30072 17.3244 2.98816 17.0118C2.67559 16.6993 2.5 16.2754 2.5 15.8333V4.16667C2.5 3.72464 2.67559 3.30072 2.98816 2.98816C3.30072 2.67559 3.72464 2.5 4.16667 2.5H15.8333C16.2754 2.5 16.6993 2.67559 17.0118 2.98816C17.3244 3.30072 17.5 3.72464 17.5 4.16667V10" stroke="#333333" stroke-width="1.25" stroke-linecap="round" stroke-linejoin="round"/>
<path d="M2.5 8.3335H17.5" stroke="#333333" stroke-width="1.25" stroke-linecap="round" stroke-linejoin="round"/>
<path d="M8.33398 2.5V17.5" stroke="#333333" stroke-width="1.25" stroke-linecap="round" stroke-linejoin="round"/>
<path d="M14.167 15.8332C14.167 16.2752 14.3426 16.6991 14.6551 17.0117C14.9677 17.3242 15.3916 17.4998 15.8337 17.4998C16.2757 17.4998 16.6996 17.3242 17.0122 17.0117C17.3247 16.6991 17.5003 16.2752 17.5003 15.8332C17.5003 15.3911 17.3247 14.9672 17.0122 14.6547C16.6996 14.3421 16.2757 14.1665 15.8337 14.1665C15.3916 14.1665 14.9677 14.3421 14.6551 14.6547C14.3426 14.9672 14.167 15.3911 14.167 15.8332Z" stroke="#333333" stroke-width="1.25" stroke-linecap="round" stroke-linejoin="round"/>
<path d="M15.835 12.9165V14.1665" stroke="#333333" stroke-width="1.25" stroke-linecap="round" stroke-linejoin="round"/>
<path d="M15.835 17.5V18.75" stroke="#333333" stroke-width="1.25" stroke-linecap="round" stroke-linejoin="round"/>
<path d="M18.3598 14.375L17.2773 15" stroke="#333333" stroke-width="1.25" stroke-linecap="round" stroke-linejoin="round"/>
<path d="M14.3919 16.6665L13.3086 17.2915" stroke="#333333" stroke-width="1.25" stroke-linecap="round" stroke-linejoin="round"/>
<path d="M13.3086 14.375L14.3919 15" stroke="#333333" stroke-width="1.25" stroke-linecap="round" stroke-linejoin="round"/>
<path d="M17.2773 16.6665L18.3607 17.2915" stroke="#333333" stroke-width="1.25" stroke-linecap="round" stroke-linejoin="round"/>
</g>
<defs>
<clipPath id="clip0_7580_1776">
<rect width="20" height="20" fill="white"/>
</clipPath>
</defs>
</svg>
