<svg width="20" height="20" viewBox="0 0 20 20" fill="none" xmlns="http://www.w3.org/2000/svg">
<g clip-path="url(#clip0_13411_3296)">
<path d="M3.33301 10.8335H7.49967" stroke="#333333" stroke-width="1.25" stroke-linecap="round" stroke-linejoin="round"/>
<path d="M10 13.3332V6.6665H12.5C12.942 6.6665 13.366 6.8421 13.6785 7.15466C13.9911 7.46722 14.1667 7.89114 14.1667 8.33317V9.1665C14.1667 9.60853 13.9911 10.0325 13.6785 10.345C13.366 10.6576 12.942 10.8332 12.5 10.8332H10" stroke="#333333" stroke-width="1.25" stroke-linecap="round" stroke-linejoin="round"/>
<path d="M16.667 6.6665V13.3332" stroke="#333333" stroke-width="1.25" stroke-linecap="round" stroke-linejoin="round"/>
<path d="M7.49967 13.3332V8.74984C7.49967 8.1973 7.28018 7.6674 6.88948 7.2767C6.49878 6.886 5.96888 6.6665 5.41634 6.6665C4.86381 6.6665 4.3339 6.886 3.9432 7.2767C3.5525 7.6674 3.33301 8.1973 3.33301 8.74984V13.3332" stroke="#333333" stroke-width="1.25" stroke-linecap="round" stroke-linejoin="round"/>
</g>
<defs>
<clipPath id="clip0_13411_3296">
<rect width="20" height="20" fill="white"/>
</clipPath>
</defs>
</svg>
