<svg width="20" height="20" viewBox="0 0 20 20" fill="none" xmlns="http://www.w3.org/2000/svg">
<path d="M13.5992 5.41197L13.2542 5.77388L13.3843 5.89795L13.5637 5.91071L13.5992 5.41197ZM13.5992 5.41197L13.5637 5.91071L13.5637 5.91072L13.5639 5.91073L13.5645 5.91077L13.567 5.91095L13.5766 5.91163L13.6132 5.91424L13.7442 5.92357L14.1455 5.95218L14.4841 5.97639C14.6015 6.74062 14.9322 8.8884 15.261 11.0238L15.8202 14.6546L16.0018 15.8333M13.5992 5.41197L13.2542 5.77387L13.2541 5.77385L13.254 5.77374L13.2536 5.77333L13.2519 5.77169L13.2452 5.7653L13.2197 5.74098L13.128 5.65355L12.8437 5.38249C12.7059 5.2511 12.5627 5.11445 12.4678 5.02382L12.4041 5.04266L12.0823 5.13817L11.8136 5.21795L11.6107 5.27826L10.8885 5.49287L10.2427 5.68479V5.68477L8.89071 6.08678L8.03204 6.34217L8.03205 6.34211L7.12044 6.61318L6.79988 6.70854L6.71839 6.73278L6.52524 6.79025C5.77426 7.0137 5.24312 7.17182 5.17636 7.19198L5.17599 7.19209C5.12513 7.2074 5.08476 7.2197 5.05058 7.23074C5.04737 7.25128 5.0439 7.27478 5.03989 7.30242L16.0018 15.8333M16.0018 15.8333L11.9366 16.6778L3.96759 15.2441L4.07552 14.4428L4.45658 11.6155C4.73584 9.54441 5.01934 7.44462 5.03986 7.30262L16.0018 15.8333ZM4.96282 7.26278C4.96281 7.26278 4.96314 7.2626 4.96385 7.26226L4.96282 7.26278Z" stroke="#333333"/>
<path d="M13.5996 5.41192L13.2546 5.77382L13.3847 5.89789L13.5641 5.91066L13.5996 5.41192ZM13.5996 5.41192L13.2546 5.77381L13.2545 5.77379L13.2544 5.77368L13.254 5.77327L13.2523 5.77163L13.2456 5.76524L13.2201 5.74092L13.1284 5.65349L13.0367 5.56606L12.4766 16.5656L16.0022 15.8333L15.8206 14.6545L15.2614 11.0237C14.9326 8.88835 14.6019 6.74057 14.4845 5.97634L14.1459 5.95212L13.7446 5.92351L13.6136 5.91418L13.577 5.91157L13.5674 5.91089L13.5649 5.91071L13.5643 5.91067L13.5641 5.91066L13.5641 5.91066L13.5996 5.41192Z" stroke="#333333"/>
<path d="M10.3735 7.95142L9.80325 9.58015C9.80325 9.58015 9.3036 9.32411 8.69118 9.32411C7.79335 9.32411 7.74815 9.86517 7.74815 10.0015C7.74815 10.7454 9.76766 11.0304 9.76766 12.7729C9.76766 14.1437 8.86214 15.0265 7.64115 15.0265C6.17599 15.0265 5.42676 14.1509 5.42676 14.1509L5.81905 12.9063C5.81905 12.9063 6.5892 13.5412 7.23912 13.5412C7.66375 13.5412 7.83651 13.2202 7.83651 12.9856C7.83651 12.0152 6.17972 11.9719 6.17972 10.3775C6.17972 9.03551 7.18286 7.73682 9.20778 7.73682C9.98803 7.73682 10.3735 7.95142 10.3735 7.95142Z" fill="#333333"/>
<path d="M17.2224 3.889L18.3336 0.555664M19.4447 2.22233H16.1113" stroke="#333333" stroke-width="0.555556" stroke-linecap="round" stroke-linejoin="round"/>
</svg>
