<svg width="30" height="30" viewBox="0 0 30 30" fill="none" xmlns="http://www.w3.org/2000/svg">
<path d="M25.4417 5.79971C25.4211 5.65001 25.2899 5.56715 25.1815 5.55803C24.3824 5.49797 23.5831 5.4384 22.7839 5.3793C22.7839 5.3793 21.1938 3.80071 21.0193 3.62599C20.8447 3.45136 20.5036 3.50448 20.3712 3.54344C20.3517 3.54918 20.0238 3.65039 19.4814 3.81825C18.9502 2.2898 18.0128 0.88522 16.3637 0.88522C16.3182 0.88522 16.2713 0.887065 16.2244 0.889732C15.7554 0.269473 15.1744 0 14.6726 0C10.831 0 8.99565 4.80242 8.4202 7.24285C6.92743 7.7054 5.86697 8.03424 5.73152 8.0768C4.89829 8.33817 4.87193 8.36442 4.76252 9.14956C4.68019 9.74398 2.5 26.6044 2.5 26.6044L19.4885 29.7874L28.6934 27.7961C28.6934 27.7961 25.4621 5.94942 25.4418 5.79971H25.4417ZM18.5424 4.10864L17.1049 4.55356C17.1055 4.45225 17.106 4.35258 17.106 4.24358C17.106 3.29366 16.9741 2.52882 16.7626 1.92251C17.6123 2.02915 18.1782 2.99599 18.5424 4.10864ZM15.7085 2.11087C15.9447 2.70283 16.0983 3.55236 16.0983 4.69875C16.0983 4.7574 16.0978 4.81103 16.0973 4.86527C15.1624 5.15484 14.1466 5.46923 13.1285 5.78464C13.7001 3.57841 14.7717 2.51282 15.7085 2.11087ZM14.5671 1.03042C14.7329 1.03042 14.8999 1.08671 15.0598 1.19673C13.8286 1.77608 12.5089 3.23521 11.9516 6.14906L9.60493 6.87586C10.2577 4.65333 11.8077 1.03042 14.567 1.03042H14.5671Z" fill="#95BF46"/>
<path d="M25.1815 5.5584C24.3823 5.49835 23.5831 5.43878 22.7838 5.37968C22.7838 5.37968 21.1938 3.80109 21.0192 3.62636C20.9539 3.56135 20.8658 3.52803 20.7738 3.51367L19.4893 29.7876L28.6934 27.7965C28.6934 27.7965 25.462 5.9498 25.4417 5.80009C25.421 5.65038 25.2899 5.56753 25.1815 5.5584Z" fill="#5E8E3E"/>
<path d="M16.3625 10.644L15.2275 14.0202C15.2275 14.0202 14.2331 13.4895 13.0141 13.4895C11.227 13.4895 11.1371 14.611 11.1371 14.8936C11.1371 16.4355 15.1566 17.0264 15.1566 20.6382C15.1566 23.4799 13.3543 25.3097 10.9241 25.3097C8.00793 25.3097 6.5166 23.4947 6.5166 23.4947L7.29744 20.9149C7.29744 20.9149 8.8304 22.2309 10.1239 22.2309C10.9692 22.2309 11.313 21.5655 11.313 21.0792C11.313 19.0678 8.01531 18.9781 8.01531 15.673C8.01531 12.8912 10.012 10.1992 14.0424 10.1992C15.5953 10.1992 16.3625 10.644 16.3625 10.644Z" fill="white"/>
</svg>
