<svg width="32" height="32" viewBox="0 0 32 32" fill="none" xmlns="http://www.w3.org/2000/svg">
<g id="CSS3_logo_and_wordmark 1">
<g id="layer1">
<g id="g3013">
<path id="polygon2989" d="M27.7936 6.28879L25.7282 29.4262L16.4443 32L7.18593 29.4299L5.12274 6.28879H27.7936Z" fill="#264DE4"/>
<path id="polygon2991" d="M23.96 27.9528L25.725 8.18085H16.4581V30.0327L23.96 27.9528Z" fill="#2965F1"/>
<path id="polygon2993" d="M9.85254 16.7636L10.1069 19.6017H16.4582V16.7636H9.85254Z" fill="#EBEBEB"/>
<path id="polygon2995" d="M16.4581 11.0191H16.4483H9.34137L9.59937 13.8573H16.4581V11.0191Z" fill="#EBEBEB"/>
<path id="polygon2997" d="M16.4581 27.0874V24.1345L16.4457 24.1378L13.2848 23.2843L13.0828 21.0208H11.5468H10.2337L10.6313 25.4771L16.4451 27.091L16.4581 27.0874Z" fill="#EBEBEB"/>
<path id="path2999" d="M10.4581 0H13.8956V1.4375H11.8956V2.875H13.8956V4.3125H10.4581V0Z" fill="#EDEDED"/>
<path id="path3001" d="M14.5831 0H18.0206V1.25H16.0206V1.5H18.0206V4.375H14.5831V3.0625H16.5831V2.8125H14.5831V0Z" fill="#EDEDED"/>
<path id="path3003" d="M18.7081 0H22.1456V1.25H20.1456V1.5H22.1456V4.375H18.7081V3.0625H20.7081V2.8125H18.7081V0Z" fill="#EDEDED"/>
<path id="polygon3005" d="M19.9432 19.6017L19.6137 23.2826L16.4483 24.1369V27.0897L22.2667 25.4771L22.3094 24.9976L22.9763 17.5257L23.0456 16.7636L23.5579 11.0191H16.4483V13.8573H20.4476L20.1893 16.7636H16.4483V19.6017H19.9432Z" fill="white"/>
</g>
</g>
</g>
</svg>
