<svg width="31" height="21" viewBox="0 0 31 21" fill="none" xmlns="http://www.w3.org/2000/svg">
<g id="Group">
<path id="Vector" fill-rule="evenodd" clip-rule="evenodd" d="M25.1109 1.73649L25.7436 2.56953C25.9097 2.78939 25.8682 3.10453 25.6484 3.27064L24.9766 3.78121C25.0987 4.10612 25.1769 4.45302 25.2086 4.80724L25.9733 4.91229C26.2469 4.94893 26.4374 5.20299 26.4008 5.4766L26.2591 6.51484C26.2224 6.78845 25.9684 6.98144 25.6948 6.94235L24.8593 6.82753C24.7103 7.15244 24.5197 7.45048 24.295 7.71675L24.764 8.33237C24.9301 8.55223 24.8862 8.86737 24.6663 9.03349L23.8333 9.6662C23.6134 9.83232 23.2983 9.78835 23.1321 9.57093L22.6216 8.89913C22.2942 9.02127 21.9498 9.09945 21.5931 9.1312L21.4881 9.89584C21.4514 10.1694 21.1974 10.36 20.9238 10.3233L19.8855 10.1817C19.6119 10.145 19.4214 9.89095 19.458 9.61734L19.5728 8.78187C19.2504 8.63285 18.9499 8.4423 18.6836 8.22L18.068 8.68659C17.8481 8.85271 17.533 8.81118 17.3669 8.59132L16.7341 7.75828C16.568 7.53842 16.6096 7.22328 16.8294 7.05717L17.5012 6.5466C17.3791 6.21925 17.3009 5.87479 17.2691 5.52057L16.5045 5.41553C16.2309 5.37888 16.0379 5.12482 16.077 4.85121L16.2187 3.81297C16.2578 3.53937 16.5094 3.34882 16.783 3.38546L17.6185 3.50028C17.7675 3.17781 17.958 2.87734 18.1804 2.61106L17.7138 1.99544C17.5476 1.77802 17.5892 1.46289 17.809 1.29677L18.6421 0.664052C18.8619 0.497934 19.1771 0.539463 19.3432 0.759326L19.8538 1.43113C20.1787 1.30898 20.5256 1.23081 20.8798 1.19905L20.9848 0.434418C21.0215 0.160811 21.2755 -0.0321794 21.5491 0.00446435L22.5874 0.146154C22.861 0.182797 23.054 0.436861 23.0149 0.710467L22.9001 1.54595C23.225 1.69496 23.523 1.88551 23.7917 2.11026L24.4074 1.64366C24.6272 1.4751 24.9424 1.51663 25.1109 1.73649ZM14.7871 2.79916C14.3401 2.76496 13.8881 2.76985 13.4411 2.81382C12.0657 2.94574 10.7295 3.44653 9.62526 4.304C8.34761 5.29338 7.37777 6.77379 7.00401 8.73545L6.88675 9.34862L6.27602 9.45611C5.6775 9.56116 5.1425 9.70529 4.67346 9.88851C4.21908 10.0644 3.81356 10.2818 3.45933 10.5383C3.17596 10.7435 2.93166 10.9732 2.72402 11.2223C2.08153 11.9919 1.78349 12.9568 1.79082 13.934C1.79815 14.9258 2.12062 15.9274 2.71669 16.7507C2.93899 17.056 3.1955 17.337 3.48865 17.5813C3.78668 17.828 4.12136 18.0332 4.49757 18.1871C4.71011 18.275 4.9373 18.3483 5.17426 18.407V20.2367C4.68568 20.1488 4.23618 20.0168 3.816 19.8434C3.26146 19.6138 2.77043 19.3182 2.33803 18.9566C1.92762 18.6146 1.56852 18.2262 1.26315 17.8036C0.44966 16.6798 0.00993445 15.3069 0.000162781 13.9389C-0.00960889 12.5562 0.420345 11.1808 1.34865 10.0668C1.64913 9.70529 2.00336 9.37305 2.40888 9.0799C2.88036 8.73789 3.42025 8.44963 4.03098 8.21267C4.45116 8.04899 4.90066 7.91219 5.37458 7.80226C5.91202 5.66715 7.05775 4.02306 8.53083 2.88222C9.90864 1.81467 11.5674 1.19172 13.275 1.02805C14.1715 0.942545 15.0803 0.981631 15.9695 1.14775C15.95 1.22837 15.9329 1.30898 15.9231 1.39204L15.9207 1.4067C15.9036 1.54595 15.8962 1.68519 15.9036 1.82688C15.7155 1.90017 15.5396 2.00033 15.3808 2.12247L15.3734 2.12736C15.1365 2.30569 14.9362 2.53533 14.7871 2.79916ZM27.7126 7.48956C27.8494 7.61415 27.9813 7.74363 28.1108 7.88287C28.3722 8.16381 28.6189 8.48139 28.851 8.83561C29.6328 10.0375 30.0334 11.6425 30.0163 13.2133C29.9992 14.7548 29.5839 16.289 28.7338 17.4176C28.1792 18.1529 27.4683 18.7539 26.6157 19.2302C26.0319 19.5576 25.3747 19.8287 24.659 20.0486V18.1553C25.045 18.0112 25.4041 17.85 25.7339 17.6668C26.3763 17.3076 26.9016 16.8704 27.2949 16.3451C27.9056 15.5316 28.2061 14.381 28.2183 13.2011C28.233 11.9625 27.93 10.7191 27.3413 9.81522C27.1727 9.55383 26.9871 9.31931 26.7916 9.10922C26.7159 9.0286 26.6402 8.95287 26.562 8.87958C26.5742 8.75744 26.5791 8.63285 26.5718 8.50826C26.7599 8.43497 26.9358 8.33481 27.0946 8.21267L27.1019 8.20778C27.3535 8.01479 27.5636 7.7705 27.7126 7.48956ZM21.5174 3.12651C22.6436 3.28042 23.4302 4.31866 23.2763 5.44484C23.1224 6.57103 22.0841 7.36009 20.958 7.20618C19.8318 7.05228 19.0427 6.01404 19.1991 4.88786C19.3554 3.76167 20.3912 2.97261 21.5174 3.12651Z" fill="#408FCA"/>
</g>
</svg>
