<svg width="32" height="17" viewBox="0 0 32 17" fill="none" xmlns="http://www.w3.org/2000/svg">
<path fill-rule="evenodd" clip-rule="evenodd" d="M30 11.2003C30 11.3925 29.9833 11.8091 29.9833 11.9132H25.9083C26 12.8585 26.7167 13.1308 27.525 13.1308C28.35 13.1308 29 12.9626 29.5667 12.6903V14.2924C29 14.5968 28.25 14.8131 27.2583 14.8131C25.225 14.8131 23.8083 13.5955 23.8083 11.1842C23.8083 9.14953 25.0083 7.53138 26.9917 7.53138C28.9667 7.53138 30 9.14953 30 11.2003ZM25.8833 10.4393H28.0333C28.0333 9.53405 27.4917 9.15754 26.9833 9.15754C26.4583 9.15754 25.8833 9.53405 25.8833 10.4393ZM20.5917 7.53138C22.05 7.53138 23.425 8.79706 23.4333 11.1202C23.4333 13.6595 22.075 14.8131 20.5833 14.8131C19.85 14.8131 19.4083 14.5167 19.1083 14.3084L19.1 16.5754L17.0167 17V7.65955H18.85L18.9583 8.15621C19.25 7.89987 19.775 7.53138 20.5917 7.53138ZM20.0917 13.0507C20.8583 13.0507 21.375 12.2497 21.375 11.1762C21.375 10.1268 20.85 9.30975 20.0917 9.30975C19.6167 9.30975 19.3167 9.46996 19.1 9.70227L19.1083 12.6742C19.3083 12.8825 19.6 13.0507 20.0917 13.0507ZM14.15 7.05875V5.42457L16.2417 5V6.62617L14.15 7.05875ZM14.15 7.66756H16.2417V14.6769H14.15V7.66756ZM11.9083 8.26035C12.4 7.39519 13.375 7.57143 13.6417 7.66756V9.51001C13.3833 9.4219 12.55 9.30975 12.0583 9.92657V14.6769H9.975V7.66756H11.775L11.9083 8.26035ZM7.74167 5.92924L7.73333 7.66756H9.31667V9.37383H7.73333V12.2176C7.73333 13.4032 9.05 13.0347 9.31667 12.9306V14.5567C9.04167 14.7009 8.54167 14.8211 7.85833 14.8211C6.625 14.8211 5.7 13.9479 5.7 12.7624L5.70833 6.34579L7.74167 5.92924ZM2.10833 9.70227C2.10833 10.5995 5.28333 10.1749 5.29167 12.5621C5.29167 13.996 4.1 14.8211 2.36667 14.8211C1.65 14.8211 0.866667 14.6849 0.0916667 14.3645V12.4579C0.791667 12.8264 1.675 13.0988 2.36667 13.0988C2.83333 13.0988 3.16667 12.9786 3.16667 12.6101C3.16667 11.6569 0 12.0093 0 9.7984C0 8.38051 1.125 7.53138 2.81667 7.53138C3.50833 7.53138 4.19167 7.63551 4.88333 7.89987V9.78238C4.25 9.45394 3.45 9.26969 2.81667 9.26969C2.375 9.26969 2.10833 9.38985 2.10833 9.70227Z" fill="white"/>
<path d="M21.9357 0L20 5H21.0545L21.4663 3.92758H23.6042L24.0159 5H25.0922L23.1492 0H21.9357ZM22.528 1.1351L23.2648 3.0571H21.7985L22.528 1.1351ZM26.9535 3.16156H28.0153C29.2071 3.16156 29.9511 2.61142 29.9511 1.58078C29.9511 0.543176 29.2071 0 28.0153 0H25.8918V5H26.9535V3.16156ZM26.9535 2.29109V0.870474H27.9575C28.5787 0.870474 28.8965 1.12813 28.8965 1.58078C28.8965 2.02646 28.5787 2.29109 27.9575 2.29109H26.9535ZM32 0H30.9382V5H32V0Z" fill="#69B6E3"/>
</svg>
