<svg width="32" height="32" viewBox="0 0 32 32" fill="none" xmlns="http://www.w3.org/2000/svg">
<g id="HTML5_logo_and_wordmark 1" clip-path="url(#clip0_15088_1759)">
<path id="Vector" d="M6.77496 0H8.21246V1.425H9.53746V0H10.975V4.3125H9.53746V2.875H8.22496V4.3125H6.77496M12.875 1.4375H11.6062V0H15.5875V1.4375H14.3125V4.3125H12.875M16.2187 0H17.725L18.65 1.51875L19.575 0H21.0812V4.3125H19.6437V2.175L18.6375 3.725L17.6312 2.175V4.3125H16.2187M21.7937 0H23.2312V2.8875H25.2687V4.3125H21.7937" fill="#EDEDED"/>
<path id="Vector_2" d="M6.72504 29.4375L4.66254 6.28751H27.3375L25.275 29.425L15.9813 32" fill="#E44D26"/>
<path id="Vector_3" d="M16 30.0312V8.1875H25.2688L23.5 27.9375" fill="#F16529"/>
<path id="Vector_4" d="M8.875 11.0188H16V13.8563H11.9875L12.25 16.7625H16V19.5938H9.65M9.775 21.0188H12.625L12.825 23.2875L16 24.1375V27.1L10.175 25.475" fill="#EBEBEB"/>
<path id="Vector_5" d="M23.1 11.0188H15.9875V13.8563H22.8375M22.5812 16.7625H15.9875V19.6H19.4875L19.1562 23.2875L15.9875 24.1375V27.0875L21.8 25.475" fill="white"/>
</g>
<defs>
<clipPath id="clip0_15088_1759">
<rect width="32" height="32" fill="white"/>
</clipPath>
</defs>
</svg>
