<svg width="32" height="32" viewBox="0 0 32 32" fill="none" xmlns="http://www.w3.org/2000/svg">
<mask id="mask0_15088_1919" style="mask-type:luminance" maskUnits="userSpaceOnUse" x="0" y="3" width="31" height="26">
<path d="M30.5493 3.00232H0.335632V28.895H30.5493V3.00232Z" fill="white"/>
</mask>
<g mask="url(#mask0_15088_1919)">
<path d="M29.3605 22.9642C27.7509 23.8061 19.3979 27.2418 17.5986 28.1849C15.7992 29.1279 14.8355 29.101 13.4282 28.4283C12.0209 27.7556 3.16237 24.1528 1.55698 23.3852C0.748087 23.0055 0.335388 22.6815 0.335388 22.3782V19.3222C0.335388 19.3222 11.9075 16.8109 13.7749 16.1341C15.6424 15.4572 16.2882 15.4407 17.8751 16.0226C19.4619 16.6045 28.9746 18.3214 30.5449 18.8909V21.9036C30.5449 22.2172 30.1838 22.5226 29.3605 22.9622V22.9642Z" fill="#A32422"/>
<path d="M29.3605 19.9225C27.7509 20.7603 19.3979 24.196 17.5985 25.1225C15.7992 26.049 14.8355 26.0408 13.4282 25.3702C12.0209 24.6995 3.16236 21.0967 1.55696 20.3352C-0.0484367 19.5738 -0.0793891 19.0414 1.49506 18.4265C3.0695 17.8116 11.9074 14.3511 13.7749 13.6702C15.6424 12.9892 16.2882 12.9748 17.8751 13.5587C19.4619 14.1427 27.7798 17.4463 29.3419 18.0221C30.9039 18.5978 30.9762 19.0703 29.3605 19.906V19.9225Z" fill="#DC382C"/>
<path d="M29.3605 17.987C27.7509 18.8269 19.3979 22.2605 17.5986 23.187C15.7992 24.1135 14.8438 24.1053 13.4365 23.4305C12.0292 22.7558 3.16237 19.1736 1.55698 18.408C0.748087 18.0242 0.335388 17.7023 0.335388 17.3969V14.3512C0.335388 14.3512 11.9075 11.8316 13.7749 11.1548C15.6424 10.478 16.2882 10.4594 17.8751 11.0496C19.4619 11.6397 28.9746 13.3401 30.5449 13.9137V16.9264C30.5449 17.2401 30.1838 17.5537 29.3605 17.987Z" fill="#A32422"/>
<path d="M29.3605 14.931C27.7509 15.7729 19.3979 19.2066 17.5986 20.1331C15.7992 21.0596 14.8355 21.0534 13.4282 20.3807C12.0209 19.708 3.16237 16.1196 1.55697 15.352C-0.0484282 14.5844 -0.0773171 14.0623 1.49506 13.4474C3.06744 12.8325 11.9074 9.36373 13.7749 8.70135C15.6424 8.03897 16.2882 7.9977 17.8751 8.57341C19.4619 9.14913 27.7798 12.4817 29.3419 13.0409C30.904 13.6001 30.9762 14.0912 29.3605 14.9248V14.931Z" fill="#DC382C"/>
<path d="M29.3605 12.8221C27.7509 13.664 19.3979 17.0997 17.5986 18.0241C15.7992 18.9486 14.8438 18.9424 13.4365 18.2718C12.0292 17.6011 3.16237 14.0086 1.55698 13.243C0.748087 12.8634 0.335388 12.5394 0.335388 12.234V9.17796C0.335388 9.17796 11.9075 6.66669 13.7749 5.99192C15.6424 5.31716 16.2882 5.29653 17.8751 5.87843C19.4619 6.46034 28.9705 8.17716 30.5408 8.75081V11.7635C30.5449 12.0813 30.1838 12.3908 29.3605 12.8221Z" fill="#A32422"/>
<path d="M29.3604 9.76997C27.7509 10.5954 19.3979 14.0517 17.5985 14.97C15.7991 15.8882 14.8355 15.8862 13.4282 15.2176C12.0209 14.549 3.1623 10.9524 1.5569 10.1889C-0.0484978 9.42537 -0.0794502 8.89505 1.49499 8.28013C3.06944 7.66521 11.9074 4.19855 13.7748 3.52585C15.6423 2.85315 16.2882 2.83251 17.875 3.41442C19.4618 3.99632 27.7798 7.3041 29.3418 7.87775C30.9039 8.4514 30.9761 8.92807 29.3604 9.76378V9.76997Z" fill="#DC382C"/>
</g>
<path d="M15.9148 5.43078L17.9081 4.77665L17.3675 6.0684L19.3959 6.82777L16.7815 7.10015L16.1934 8.51157L15.2483 6.93713L12.2253 6.66475L14.4827 5.85173L13.8039 4.60126L15.9148 5.43078Z" fill="white"/>
<path d="M16.0406 13.6704L11.1542 11.6419L18.1536 10.5669L16.0406 13.6704Z" fill="white"/>
<path d="M9.26619 7.61194C11.3297 7.61194 13.0073 8.26194 13.0073 9.05638C13.0073 9.85083 11.3256 10.5008 9.26619 10.5008C7.20682 10.5008 5.52301 9.85083 5.52301 9.05638C5.52301 8.26194 7.20063 7.61194 9.26619 7.61194Z" fill="white"/>
<path d="M22.4932 7.21365L26.6346 8.85L22.4973 10.4864L22.4932 7.21365Z" fill="#741113"/>
<path d="M22.4932 7.21365L22.4973 10.4864L22.0475 10.6617L17.9081 9.0254L22.4932 7.21365Z" fill="#AC2724"/>
</svg>
