<svg width="32" height="32" viewBox="0 0 32 32" fill="none" xmlns="http://www.w3.org/2000/svg">
<path fill-rule="evenodd" clip-rule="evenodd" d="M25.6011 4.22722L26.2339 5.06025C26.4 5.28011 26.3584 5.59525 26.1386 5.76137L25.4668 6.27194C25.5889 6.59685 25.6671 6.94374 25.6989 7.29796L26.4635 7.40301C26.7371 7.43965 26.9277 7.69372 26.891 7.96732L26.7493 9.00556C26.7127 9.27917 26.4586 9.47216 26.185 9.43307L25.3495 9.31826C25.2005 9.64316 25.01 9.9412 24.7852 10.2075L25.2543 10.8231C25.4204 11.043 25.3764 11.3581 25.1565 11.5242L24.3235 12.1569C24.1036 12.323 23.7885 12.2791 23.6224 12.0617L23.1118 11.3898C22.7845 11.512 22.44 11.5902 22.0833 11.6219L21.9783 12.3866C21.9417 12.6602 21.6876 12.8507 21.414 12.8141L20.3757 12.6724C20.1021 12.6357 19.9116 12.3817 19.9482 12.1081L20.0631 11.2726C19.7406 11.1236 19.4401 10.933 19.1738 10.7107L18.5582 11.1773C18.3384 11.3434 18.0232 11.3019 17.8571 11.082L17.2244 10.249C17.0583 10.0291 17.0998 9.71401 17.3197 9.54789L17.9915 9.03732C17.8693 8.70997 17.7911 8.36552 17.7594 8.01129L16.9947 7.90625C16.7211 7.86961 16.5281 7.61554 16.5672 7.34194L16.7089 6.3037C16.748 6.03009 16.9996 5.83954 17.2732 5.87618L18.1087 5.991C18.2577 5.66854 18.4483 5.36806 18.6706 5.10178L18.204 4.48616C18.0379 4.26875 18.0794 3.95361 18.2993 3.78749L19.1323 3.15477C19.3522 2.98866 19.6673 3.03019 19.8334 3.25005L20.344 3.92185C20.6689 3.7997 21.0158 3.72153 21.37 3.68977L21.4751 2.92514C21.5117 2.65153 21.7658 2.45854 22.0394 2.49519L23.0776 2.63688C23.3512 2.67352 23.5442 2.92758 23.5051 3.20119L23.3903 4.03667C23.7152 4.18569 24.0132 4.37623 24.282 4.60098L24.8976 4.13438C25.1174 3.96582 25.4326 4.00735 25.6011 4.22722ZM7.73853 18.8872V14.8563H9.81501C10.201 14.8563 10.4941 14.8881 10.6969 14.9565C10.8997 15.0225 11.0658 15.1446 11.1879 15.3229C11.3125 15.5037 11.376 15.7211 11.376 15.9776C11.376 16.2 11.3272 16.3954 11.2319 16.5566C11.1366 16.7203 11.0047 16.8522 10.8386 16.9524C10.7336 17.0159 10.587 17.0696 10.4013 17.1112C10.5503 17.1625 10.6578 17.2089 10.7238 17.2602C10.7702 17.2944 10.8362 17.3652 10.9217 17.4727C11.0072 17.5802 11.0658 17.6657 11.0951 17.7243L11.7009 18.8896H10.2938L9.62935 17.6608C9.54385 17.502 9.47056 17.397 9.4046 17.3506C9.31422 17.2895 9.21161 17.2577 9.09924 17.2577H8.98931V18.8896H7.73853V18.8872ZM12.1309 25.9057H9.80524L9.47056 27.0001H7.37454L9.87364 20.3578H12.1211L14.6105 27.0001H12.4607L12.1309 25.9057ZM11.6961 24.4668L10.9705 22.0776L10.2425 24.4668H11.6961ZM15.0942 20.3578H18.5094C19.2544 20.3578 19.8114 20.5337 20.1803 20.8879C20.5492 21.2421 20.7349 21.7478 20.7349 22.4001C20.7349 23.0719 20.5321 23.5971 20.129 23.9758C19.7259 24.3544 19.1079 24.5425 18.2797 24.5425H17.1535V27.0001H15.0942V20.3578ZM17.1535 23.1965H17.6592C18.0574 23.1965 18.3384 23.1281 18.4996 22.9888C18.6608 22.852 18.7414 22.6737 18.7414 22.4612C18.7414 22.2535 18.6706 22.0752 18.5313 21.931C18.3921 21.7869 18.1283 21.7136 17.7423 21.7136H17.1535V23.1965ZM21.5654 20.3578H23.6248V27.0001H21.5654V20.3578ZM8.98931 16.4931H9.51453C9.57072 16.4931 9.68065 16.4736 9.84433 16.4369C9.92739 16.4198 9.99579 16.3783 10.0471 16.3099C10.1008 16.2415 10.1253 16.1633 10.1253 16.0754C10.1253 15.9459 10.0837 15.8433 10.0007 15.7749C9.91762 15.704 9.76371 15.6698 9.53652 15.6698H8.98931V16.4931ZM11.9404 14.8563H15.2749V15.7163H13.1911V16.3587H15.1235V17.1796H13.1911V17.9735H15.336V18.8847H11.9404V14.8563ZM15.6316 17.5533L16.814 17.48C16.8384 17.673 16.8921 17.8172 16.9703 17.9173C17.0998 18.0786 17.283 18.1616 17.52 18.1616C17.6959 18.1616 17.8351 18.1201 17.9304 18.037C18.0257 17.954 18.0745 17.8563 18.0745 17.7463C18.0745 17.6413 18.0281 17.5484 17.9377 17.4654C17.8473 17.3823 17.6348 17.3066 17.3001 17.2309C16.7553 17.1087 16.3669 16.945 16.1324 16.7423C15.8979 16.5395 15.7806 16.2806 15.7806 15.9654C15.7806 15.7578 15.8417 15.5624 15.9614 15.3791C16.0811 15.1959 16.2619 15.0493 16.5037 14.9443C16.7456 14.8392 17.0754 14.7879 17.4955 14.7879C18.011 14.7879 18.4019 14.8832 18.673 15.0762C18.9418 15.2692 19.103 15.5721 19.1543 15.9923L17.9841 16.0632C17.9524 15.8799 17.8864 15.7456 17.7887 15.665C17.6885 15.5819 17.5493 15.5404 17.3758 15.5404C17.2317 15.5404 17.1218 15.5721 17.0485 15.6332C16.9752 15.6943 16.9386 15.77 16.9386 15.8579C16.9386 15.9215 16.9703 15.9776 17.0289 16.0314C17.0876 16.0827 17.2244 16.134 17.4442 16.1804C17.989 16.2977 18.3799 16.4174 18.6144 16.5371C18.8489 16.6568 19.0224 16.8058 19.1274 16.9841C19.2349 17.16 19.2886 17.3603 19.2886 17.5802C19.2886 17.8392 19.2178 18.0761 19.0737 18.2935C18.932 18.511 18.7317 18.6771 18.4752 18.7894C18.2186 18.9018 17.8962 18.958 17.5053 18.958C16.8213 18.958 16.3449 18.8261 16.0811 18.5623C15.8173 18.2935 15.6682 17.9589 15.6316 17.5533ZM19.4694 14.8563H23.2584V15.8531H21.9881V18.8872H20.7422V15.8531H19.4694V14.8563ZM15.2774 5.28988C14.8303 5.25568 14.3784 5.26057 13.9313 5.30454C12.556 5.43646 11.2197 5.93726 10.1155 6.79472C8.83785 7.7841 7.86801 9.26451 7.49424 11.2262L7.37698 11.8393L6.76625 11.9468C6.16774 12.0519 5.63274 12.196 5.1637 12.3792C4.70932 12.5551 4.30379 12.7725 3.94957 13.029C3.66619 13.2343 3.4219 13.4639 3.21425 13.7131C2.57176 14.4826 2.27373 15.4475 2.28106 16.4247C2.28838 17.4165 2.61085 18.4181 3.20692 19.2414C3.42923 19.5468 3.68573 19.8277 3.97888 20.072C4.27692 20.3187 4.6116 20.5239 4.98781 20.6778C5.20034 20.7658 5.42753 20.8391 5.6645 20.8977V22.7274C5.17591 22.6395 4.72642 22.5076 4.30623 22.3341C3.75169 22.1045 3.26067 21.8089 2.82827 21.4473C2.41786 21.1053 2.05875 20.7169 1.75339 20.2943C0.939894 19.1705 0.500169 17.7976 0.490397 16.4296C0.480625 15.0469 0.910579 13.6715 1.83889 12.5576C2.13937 12.196 2.49359 11.8638 2.89911 11.5706C3.3706 11.2286 3.91048 10.9404 4.52121 10.7034C4.94139 10.5397 5.39089 10.4029 5.86482 10.293C6.40226 8.15787 7.54799 6.51379 9.02106 5.37294C10.3989 4.30539 12.0576 3.68244 13.7652 3.51877C14.6618 3.43327 15.5705 3.47235 16.4597 3.63847C16.4402 3.71909 16.4231 3.7997 16.4133 3.88276L16.4109 3.89742C16.3938 4.03667 16.3865 4.17591 16.3938 4.3176C16.2057 4.39089 16.0298 4.49105 15.871 4.6132L15.8637 4.61808C15.6267 4.79642 15.4264 5.02605 15.2774 5.28988ZM28.2029 9.98029C28.3397 10.1049 28.4716 10.2343 28.601 10.3736C28.8624 10.6545 29.1092 10.9721 29.3413 11.3263C30.123 12.5282 30.5236 14.1332 30.5065 15.704C30.4894 17.2455 30.0741 18.7797 29.224 19.9083C28.6695 20.6436 27.9586 21.2446 27.106 21.7209C26.5221 22.0483 25.865 22.3195 25.1492 22.5393V20.6461C25.5352 20.5019 25.8943 20.3407 26.2241 20.1575C26.8666 19.7984 27.3918 19.3611 27.7851 18.8359C28.3958 18.0224 28.6963 16.8718 28.7085 15.6918C28.7232 14.4533 28.4203 13.2098 27.8315 12.3059C27.663 12.0446 27.4773 11.81 27.2819 11.5999C27.2061 11.5193 27.1304 11.4436 27.0522 11.3703C27.0645 11.2482 27.0693 11.1236 27.062 10.999C27.2501 10.9257 27.426 10.8255 27.5848 10.7034L27.5921 10.6985C27.8437 10.5055 28.0538 10.2612 28.2029 9.98029ZM22.0076 5.61724C23.1338 5.77114 23.9204 6.80938 23.7665 7.93556C23.6126 9.06175 22.5744 9.85081 21.4482 9.69691C20.322 9.543 19.5329 8.50476 19.6893 7.37858C19.8456 6.25239 20.8814 5.46333 22.0076 5.61724Z" fill="#408FCA"/>
</svg>
