<?xml version="1.0" encoding="UTF-8" standalone="no"?>
<!DOCTYPE svg PUBLIC "-//W3C//DTD SVG 1.1//EN" "http://www.w3.org/Graphics/SVG/1.1/DTD/svg11.dtd">
<svg width="100%" height="100%" viewBox="0 0 195 191" version="1.1" xmlns="http://www.w3.org/2000/svg" xmlns:xlink="http://www.w3.org/1999/xlink" xml:space="preserve" xmlns:serif="http://www.serif.com/" style="fill-rule:evenodd;clip-rule:evenodd;stroke-linejoin:round;stroke-miterlimit:2;">
    <g transform="matrix(1,0,0,1,-3040,0)">
        <rect id="stellar-mark-black" x="3040" y="0" width="195" height="191" style="fill:none;"/>
        <g id="stellar-mark-black1" serif:id="stellar-mark-black">
            <g transform="matrix(0.0974372,0,0,0.0974372,568.613,-5318.95)">
                <path d="M25747.5,56541.9C25741.2,56545.2 25733.5,56545.1 25727.3,56541.4C25721.1,56537.8 25717.2,56531.2 25717,56524C25714.5,56321.3 25730.3,55246.7 26318.6,54613C26330.5,54600.2 26347.1,54592.9 26364.5,54592.9C26381.9,54593 26398.6,54600.2 26410.4,54613C26996.8,55247.1 27014.2,56321.1 27012,56523.9C27011.8,56531.1 27008,56537.7 27001.7,56541.4C26995.5,56545 26987.9,56545.2 26981.5,56541.8C26869.6,56483 26476,56276.1 26383.9,56227.7C26371.8,56221.3 26357.3,56221.3 26345.2,56227.7C26253,56276.1 25859.4,56483.1 25747.5,56541.9ZM26562.5,55611.6C26562.5,55502.2 26473.9,55413.6 26364.6,55413.6C26255.2,55413.6 26166.6,55502.2 26166.6,55611.6C26166.6,55720.9 26255.2,55809.5 26364.6,55809.5C26473.9,55809.5 26562.5,55720.9 26562.5,55611.6ZM25759.8,55262.1C25767,55261.1 25774.2,55263.9 25778.8,55269.5C25783.4,55275.1 25784.8,55282.7 25782.4,55289.6C25746.2,55394.6 25712.9,55511.1 25684.6,55639.9C25683,55647.3 25677.5,55653.3 25670.2,55655.4C25663,55657.6 25655.1,55655.7 25649.7,55650.4C25592.3,55594.4 25456.9,55462.5 25377.8,55385.4C25366.4,55374.3 25362.3,55357.7 25367.2,55342.7C25372.1,55327.6 25385.2,55316.6 25400.9,55314.3C25507.1,55298.9 25685.5,55272.9 25759.8,55262.1ZM27328.2,55314.3C27343.9,55316.6 27357,55327.6 27361.9,55342.7C27366.8,55357.7 27362.7,55374.3 27351.3,55385.4C27272.2,55462.5 27136.9,55594.4 27079.5,55650.3C27074.1,55655.6 27066.2,55657.6 27059,55655.4C27051.7,55653.2 27046.2,55647.3 27044.6,55639.9C27016.3,55511.1 26983,55394.6 26946.8,55289.6C26944.4,55282.8 26945.8,55275.1 26950.4,55269.5C26955,55263.9 26962.2,55261.1 26969.4,55262.2C27043.7,55273 27222.1,55298.9 27328.2,55314.3Z"/>
            </g>
        </g>
    </g>
</svg>
