<svg width="70" height="70" viewBox="0 0 70 70" fill="none" xmlns="http://www.w3.org/2000/svg">
<rect width="70" height="70" rx="12" fill="#6950FF"/>
<g clip-path="url(#clip0_3718_7865)">
<path d="M52.3333 29.667C52.3359 27.2076 51.814 24.7759 50.8023 22.5341C49.7907 20.2924 48.3126 18.2922 46.4666 16.667L44.7013 18.667C46.1477 19.9441 47.3278 21.4941 48.1741 23.2282C49.0204 24.9622 49.5163 26.8462 49.6332 28.7721C49.7502 30.6981 49.4859 32.6282 48.8557 34.4519C48.2254 36.2756 47.2414 37.957 45.9602 39.3998C44.679 40.8425 43.1257 42.0183 41.3893 42.8597C39.6529 43.7012 37.7675 44.1917 35.8412 44.3032C33.9149 44.4147 31.9856 44.1451 30.1637 43.5097C28.3418 42.8743 26.6631 41.8856 25.224 40.6003L23.4453 42.587C26.279 45.1268 29.8722 46.6595 33.6666 46.947V52.3337H25.6666V55.0003H44.3333V52.3337H36.3333V46.9497C40.6868 46.6138 44.7531 44.6472 47.7194 41.4431C50.6857 38.239 52.3335 34.0334 52.3333 29.667Z" fill="#E36B6B"/>
<path d="M35.0003 20.333C33.7747 20.333 32.561 20.5744 31.4286 21.0435C30.2962 21.5125 29.2673 22.2 28.4007 23.0667C27.534 23.9334 26.8465 24.9623 26.3775 26.0946C25.9084 27.227 25.667 28.4407 25.667 29.6663C25.667 30.892 25.9084 32.1057 26.3775 33.2381C26.8465 34.3704 27.534 35.3993 28.4007 36.266C29.2673 37.1327 30.2962 37.8202 31.4286 38.2892C32.561 38.7583 33.7747 38.9997 35.0003 38.9997C37.4757 38.9997 39.8496 38.0163 41.6 36.266C43.3503 34.5157 44.3337 32.1417 44.3337 29.6663C44.3337 27.191 43.3503 24.817 41.6 23.0667C39.8496 21.3163 37.4757 20.333 35.0003 20.333Z" fill="#E36B6B"/>
</g>
<defs>
<clipPath id="clip0_3718_7865">
<rect width="40" height="40" fill="white" transform="translate(15 15)"/>
</clipPath>
</defs>
</svg>
