<svg width="70" height="70" viewBox="0 0 70 70" fill="none" xmlns="http://www.w3.org/2000/svg">
<rect width="70" height="70" rx="12" fill="#D14747"/>
<path d="M44.5833 21.5583V19.375C44.5833 19.0435 44.4516 18.7255 44.2172 18.4911C43.9828 18.2567 43.6649 18.125 43.3333 18.125C43.0018 18.125 42.6839 18.2567 42.4494 18.4911C42.215 18.7255 42.0833 19.0435 42.0833 19.375V21.4583H27.9167V19.375C27.9167 19.0435 27.785 18.7255 27.5506 18.4911C27.3161 18.2567 26.9982 18.125 26.6667 18.125C26.3351 18.125 26.0172 18.2567 25.7828 18.4911C25.5484 18.7255 25.4167 19.0435 25.4167 19.375V21.5583C23.5589 21.8588 21.8684 22.8099 20.6472 24.2418C19.426 25.6737 18.7535 27.4931 18.75 29.375V43.9583C18.75 44.998 18.9548 46.0274 19.3526 46.9879C19.7505 47.9484 20.3336 48.8211 21.0687 49.5563C22.5534 51.0409 24.567 51.875 26.6667 51.875H43.3333C44.373 51.875 45.4024 51.6702 46.3629 51.2724C47.3234 50.8745 48.1961 50.2914 48.9313 49.5563C49.6664 48.8211 50.2495 47.9484 50.6474 46.9879C51.0452 46.0274 51.25 44.998 51.25 43.9583V29.375C51.2465 27.4931 50.574 25.6737 49.3528 24.2418C48.1316 22.8099 46.4411 21.8588 44.5833 21.5583ZM48.75 31.4583H21.25V29.375C21.2516 28.1585 21.664 26.9782 22.4202 26.0253C23.1765 25.0724 24.2323 24.4028 25.4167 24.125V26.0417C25.4167 26.3732 25.5484 26.6911 25.7828 26.9256C26.0172 27.16 26.3351 27.2917 26.6667 27.2917C26.9982 27.2917 27.3161 27.16 27.5506 26.9256C27.785 26.6911 27.9167 26.3732 27.9167 26.0417V23.9583H42.0833V26.0417C42.0833 26.3732 42.215 26.6911 42.4494 26.9256C42.6839 27.16 43.0018 27.2917 43.3333 27.2917C43.6649 27.2917 43.9828 27.16 44.2172 26.9256C44.4516 26.6911 44.5833 26.3732 44.5833 26.0417V24.125C45.7677 24.4028 46.8235 25.0724 47.5798 26.0253C48.336 26.9782 48.7484 28.1585 48.75 29.375V31.4583Z" fill="#4644AD"/>
</svg>
