<svg width="70" height="70" viewBox="0 0 70 70" fill="none" xmlns="http://www.w3.org/2000/svg">
<rect width="70" height="70" rx="12" fill="#E36B6B"/>
<g clip-path="url(#clip0_3718_7876)">
<path d="M30 23.1875C30 22.4688 29.5469 21.8359 28.9688 21.4062C28.0625 20.7266 27.5 19.7891 27.5 18.75C27.5 16.6797 29.7422 15 32.5 15C35.2578 15 37.5 16.6797 37.5 18.75C37.5 19.7891 36.9375 20.7266 36.0312 21.4062C35.4531 21.8359 35 22.4688 35 23.1875C35 24.1875 35.8125 25 36.8125 25H41.25C43.3203 25 45 26.6797 45 28.75V33.1875C45 34.1875 45.8125 35 46.8125 35C47.5312 35 48.1641 34.5469 48.5938 33.9688C49.2734 33.0625 50.2109 32.5 51.25 32.5C53.3203 32.5 55 34.7422 55 37.5C55 40.2578 53.3203 42.5 51.25 42.5C50.2109 42.5 49.2734 41.9375 48.5938 41.0312C48.1641 40.4531 47.5312 40 46.8125 40C45.8125 40 45 40.8125 45 41.8125V51.25C45 53.3203 43.3203 55 41.25 55H36.8125C35.8125 55 35 54.1875 35 53.1875C35 52.4688 35.4531 51.8359 36.0312 51.4062C36.9375 50.7266 37.5 49.7891 37.5 48.75C37.5 46.6797 35.2578 45 32.5 45C29.7422 45 27.5 46.6797 27.5 48.75C27.5 49.7891 28.0625 50.7266 28.9688 51.4062C29.5469 51.8359 30 52.4688 30 53.1875C30 54.1875 29.1875 55 28.1875 55H18.75C16.6797 55 15 53.3203 15 51.25V41.8125C15 40.8125 15.8125 40 16.8125 40C17.5312 40 18.1641 40.4531 18.5938 41.0312C19.2734 41.9375 20.2109 42.5 21.25 42.5C23.3203 42.5 25 40.2578 25 37.5C25 34.7422 23.3203 32.5 21.25 32.5C20.2109 32.5 19.2734 33.0625 18.5938 33.9688C18.1641 34.5469 17.5312 35 16.8125 35C15.8125 35 15 34.1875 15 33.1875V28.75C15 26.6797 16.6797 25 18.75 25H28.1875C29.1875 25 30 24.1875 30 23.1875Z" fill="#6CE9FC"/>
</g>
<defs>
<clipPath id="clip0_3718_7876">
<rect width="40" height="40" fill="white" transform="translate(15 15)"/>
</clipPath>
</defs>
</svg>
