<svg width="70" height="70" viewBox="0 0 70 70" fill="none" xmlns="http://www.w3.org/2000/svg">
<rect width="70" height="70" rx="12" fill="#8E44AD"/>
<path d="M19.1968 22.6705C19.1968 21.7605 19.5583 20.8877 20.2018 20.2442C20.8452 19.6008 21.718 19.2393 22.628 19.2393C23.5381 19.2393 24.4108 19.6008 25.0543 20.2442C25.6978 20.8877 26.0593 21.7605 26.0593 22.6705C26.0593 23.5805 25.6978 24.4533 25.0543 25.0968C24.4108 25.7403 23.5381 26.1018 22.628 26.1018C21.718 26.1018 20.8452 25.7403 20.2018 25.0968C19.5583 24.4533 19.1968 23.5805 19.1968 22.6705ZM18.7066 32.3332C18.0939 33.0194 17.7262 33.9324 17.7262 34.925C17.7262 35.9176 18.0939 36.8306 18.7066 37.5168V32.3332ZM27.5543 29.3124C25.7345 30.9239 24.5887 33.2829 24.5887 35.9054C24.5887 38.007 25.324 39.9371 26.5495 41.4505V42.7679C26.5495 43.8524 25.6733 44.7286 24.5887 44.7286H20.6673C19.5828 44.7286 18.7066 43.8524 18.7066 42.7679V41.1258C16.3905 40.0229 14.7852 37.6639 14.7852 34.925C14.7852 31.1322 17.8549 28.0625 21.6477 28.0625H23.6084C25.0789 28.0625 26.4392 28.522 27.5543 29.3063V29.3124ZM42.2352 42.7679V41.4505C43.4607 39.9371 44.1959 38.007 44.1959 35.9054C44.1959 33.2829 43.0501 30.9239 41.2303 29.3063C42.3455 28.522 43.7057 28.0625 45.1763 28.0625H47.137C50.9298 28.0625 53.9995 31.1322 53.9995 34.925C53.9995 37.6639 52.3942 40.0229 50.0781 41.1258V42.7679C50.0781 43.8524 49.2019 44.7286 48.1174 44.7286H44.1959C43.1114 44.7286 42.2352 43.8524 42.2352 42.7679ZM42.7254 22.6705C42.7254 21.7605 43.0869 20.8877 43.7304 20.2442C44.3739 19.6008 45.2466 19.2393 46.1566 19.2393C47.0667 19.2393 47.9394 19.6008 48.5829 20.2442C49.2264 20.8877 49.5879 21.7605 49.5879 22.6705C49.5879 23.5805 49.2264 24.4533 48.5829 25.0968C47.9394 25.7403 47.0667 26.1018 46.1566 26.1018C45.2466 26.1018 44.3739 25.7403 43.7304 25.0968C43.0869 24.4533 42.7254 23.5805 42.7254 22.6705ZM50.0781 32.3332V37.523C50.6908 36.8306 51.0584 35.9237 51.0584 34.9311C51.0584 33.9385 50.6908 33.0256 50.0781 32.3393V32.3332ZM34.3923 19.2393C35.4324 19.2393 36.4298 19.6524 37.1652 20.3878C37.9006 21.1232 38.3138 22.1207 38.3138 23.1607C38.3138 24.2007 37.9006 25.1982 37.1652 25.9336C36.4298 26.669 35.4324 27.0821 34.3923 27.0821C33.3523 27.0821 32.3549 26.669 31.6195 25.9336C30.8841 25.1982 30.4709 24.2007 30.4709 23.1607C30.4709 22.1207 30.8841 21.1232 31.6195 20.3878C32.3549 19.6524 33.3523 19.2393 34.3923 19.2393ZM29.4905 35.9054C29.4905 36.898 29.8582 37.8048 30.4709 38.4972V33.3135C29.8582 34.0059 29.4905 34.9127 29.4905 35.9054ZM38.3138 33.3135V38.5033C38.9265 37.8109 39.2941 36.9041 39.2941 35.9115C39.2941 34.9189 38.9265 34.0059 38.3138 33.3197V33.3135ZM42.2352 35.9054C42.2352 38.6442 40.6299 41.0032 38.3138 42.1061V44.7286C38.3138 45.8131 37.4376 46.6893 36.3531 46.6893H32.4316C31.3471 46.6893 30.4709 45.8131 30.4709 44.7286V42.1061C28.1548 41.0032 26.5495 38.6442 26.5495 35.9054C26.5495 32.1126 29.6192 29.0428 33.412 29.0428H35.3727C39.1655 29.0428 42.2352 32.1126 42.2352 35.9054Z" fill="#2ECC71"/>
</svg>
