<svg width="70" height="70" viewBox="0 0 70 70" fill="none" xmlns="http://www.w3.org/2000/svg">
<rect width="70" height="70" rx="12" fill="#3498DB"/>
<path d="M52.3154 17.9891C52.3011 17.92 52.2674 17.8564 52.2183 17.8058C52.1692 17.7552 52.1066 17.7196 52.038 17.7032C47.4622 16.5844 36.8896 20.5712 31.1615 26.2969C30.1398 27.3103 29.2084 28.4109 28.3779 29.586C26.6115 29.4298 24.845 29.5602 23.3396 30.2165C19.0919 32.086 17.8552 36.9641 17.5107 39.0626C17.4911 39.1774 17.4985 39.2953 17.5322 39.4068C17.5659 39.5183 17.625 39.6205 17.7049 39.7053C17.7848 39.7901 17.8833 39.8552 17.9926 39.8955C18.1019 39.9358 18.2191 39.9502 18.3349 39.9376L25.156 39.1852C25.1609 39.6995 25.1919 40.2132 25.249 40.7243C25.2833 41.0792 25.4408 41.4109 25.6943 41.6618L28.3357 44.2969C28.5868 44.55 28.9183 44.7075 29.2732 44.7423C29.7814 44.7991 30.2922 44.8301 30.8036 44.8352L30.0552 51.6477C30.0427 51.7635 30.0572 51.8806 30.0976 51.9898C30.1379 52.0991 30.2031 52.1975 30.2878 52.2773C30.3726 52.3572 30.4747 52.4163 30.5862 52.4501C30.6976 52.4838 30.8154 52.4913 30.9302 52.4719C33.0247 52.136 37.9115 50.8993 39.77 46.6516C40.4263 45.1462 40.5607 43.3884 40.4091 41.6305C41.5871 40.7999 42.6905 39.8683 43.7068 38.8462C49.4529 33.129 53.4169 22.7923 52.3154 17.9891ZM37.974 32.0259C37.4493 31.5015 37.0919 30.8333 36.947 30.1058C36.8021 29.3783 36.8762 28.6242 37.16 27.9388C37.4437 27.2535 37.9244 26.6677 38.5411 26.2555C39.1578 25.8433 39.8829 25.6233 40.6247 25.6233C41.3665 25.6233 42.0916 25.8433 42.7084 26.2555C43.3251 26.6677 43.8058 27.2535 44.0895 27.9388C44.3733 28.6242 44.4474 29.3783 44.3025 30.1058C44.1576 30.8333 43.8002 31.5015 43.2755 32.0259C42.9276 32.3743 42.5144 32.6507 42.0595 32.8393C41.6047 33.0279 41.1171 33.125 40.6247 33.125C40.1323 33.125 39.6448 33.0279 39.1899 32.8393C38.7351 32.6507 38.3219 32.3743 37.974 32.0259Z" fill="#4733FF"/>
<path d="M28.1562 46.2055C27.7281 46.6344 27.0414 46.8016 26.2148 46.9445C24.3578 47.2609 22.718 45.6563 23.0516 43.7789C23.1789 43.0672 23.5555 42.0695 23.7898 41.8352C23.8411 41.7849 23.8752 41.7198 23.8873 41.6491C23.8994 41.5784 23.889 41.5056 23.8574 41.4412C23.8258 41.3768 23.7748 41.3239 23.7114 41.2902C23.6481 41.2564 23.5758 41.2434 23.5047 41.2531C22.4662 41.3802 21.5001 41.851 20.7602 42.5906C18.9234 44.4289 18.75 51.25 18.75 51.25C18.75 51.25 25.575 51.0766 27.4117 49.2383C28.1536 48.4989 28.6251 47.5313 28.75 46.4914C28.7789 46.1648 28.3812 45.9703 28.1562 46.2055Z" fill="#4733FF"/>
</svg>
