<svg width="20" height="20" viewBox="0 0 20 20" fill="none" xmlns="http://www.w3.org/2000/svg">
<g clip-path="url(#clip0_13411_3390)">
<path d="M4.16667 10H2.5L10 2.5L17.5 10H15.8333" stroke="#333333" stroke-width="1.25" stroke-linecap="round" stroke-linejoin="round"/>
<path d="M4.16699 10V15.8333C4.16699 16.2754 4.34259 16.6993 4.65515 17.0118C4.96771 17.3244 5.39163 17.5 5.83366 17.5H14.167C14.609 17.5 15.0329 17.3244 15.3455 17.0118C15.6581 16.6993 15.8337 16.2754 15.8337 15.8333V10" stroke="#333333" stroke-width="1.25" stroke-linecap="round" stroke-linejoin="round"/>
<path d="M7.5 17.5002V12.5002C7.5 12.0581 7.6756 11.6342 7.98816 11.3217C8.30072 11.0091 8.72464 10.8335 9.16667 10.8335H10.8333C11.2754 10.8335 11.6993 11.0091 12.0118 11.3217C12.3244 11.6342 12.5 12.0581 12.5 12.5002V17.5002" stroke="#333333" stroke-width="1.25" stroke-linecap="round" stroke-linejoin="round"/>
</g>
<defs>
<clipPath id="clip0_13411_3390">
<rect width="20" height="20" fill="white"/>
</clipPath>
</defs>
</svg>
