<svg width="20" height="20" viewBox="0 0 20 20" fill="none" xmlns="http://www.w3.org/2000/svg">
<g clip-path="url(#clip0_13411_3399)">
<path d="M4.16699 4.16683C4.16699 3.94582 4.25479 3.73385 4.41107 3.57757C4.56735 3.42129 4.77931 3.3335 5.00033 3.3335H6.66699C6.88801 3.3335 7.09997 3.42129 7.25625 3.57757C7.41253 3.73385 7.50033 3.94582 7.50033 4.16683V15.8335C7.50033 16.0545 7.41253 16.2665 7.25625 16.4228C7.09997 16.579 6.88801 16.6668 6.66699 16.6668H5.00033C4.77931 16.6668 4.56735 16.579 4.41107 16.4228C4.25479 16.2665 4.16699 16.0545 4.16699 15.8335V4.16683Z" stroke="#333333" stroke-width="1.25" stroke-linecap="round" stroke-linejoin="round"/>
<path d="M7.5 4.16683C7.5 3.94582 7.5878 3.73385 7.74408 3.57757C7.90036 3.42129 8.11232 3.3335 8.33333 3.3335H10C10.221 3.3335 10.433 3.42129 10.5893 3.57757C10.7455 3.73385 10.8333 3.94582 10.8333 4.16683V15.8335C10.8333 16.0545 10.7455 16.2665 10.5893 16.4228C10.433 16.579 10.221 16.6668 10 16.6668H8.33333C8.11232 16.6668 7.90036 16.579 7.74408 16.4228C7.5878 16.2665 7.5 16.0545 7.5 15.8335V4.16683Z" stroke="#333333" stroke-width="1.25" stroke-linecap="round" stroke-linejoin="round"/>
<path d="M4.16699 6.6665H7.50033" stroke="#333333" stroke-width="1.25" stroke-linecap="round" stroke-linejoin="round"/>
<path d="M7.5 13.3335H10.8333" stroke="#333333" stroke-width="1.25" stroke-linecap="round" stroke-linejoin="round"/>
<path d="M11.5026 3.80012L13.3226 3.35845C13.7909 3.24595 14.2667 3.51678 14.3909 3.96845L17.4701 15.1501C17.5244 15.3548 17.5003 15.5724 17.4026 15.7603C17.3049 15.9482 17.1405 16.0929 16.9417 16.1659L16.8309 16.2001L15.0109 16.6418C14.5426 16.7543 14.0667 16.4835 13.9426 16.0318L10.8634 4.85012C10.8091 4.64541 10.8331 4.42779 10.9309 4.23989C11.0286 4.05199 11.1929 3.90735 11.3917 3.83428L11.5026 3.80012Z" stroke="#333333" stroke-width="1.25" stroke-linecap="round" stroke-linejoin="round"/>
<path d="M11.667 7.49984L15.0003 6.6665" stroke="#333333" stroke-width="1.25" stroke-linecap="round" stroke-linejoin="round"/>
<path d="M13.333 13.3333L16.6022 12.5166" stroke="#333333" stroke-width="1.25" stroke-linecap="round" stroke-linejoin="round"/>
</g>
<defs>
<clipPath id="clip0_13411_3399">
<rect width="20" height="20" fill="white"/>
</clipPath>
</defs>
</svg>
