<svg width="20" height="20" viewBox="0 0 20 20" fill="none" xmlns="http://www.w3.org/2000/svg">
<g clip-path="url(#clip0_13411_3382)">
<path d="M16.2502 11.3102L10.0002 17.5002L7.58689 15.1102M2.48939 8.35691C2.48242 7.47804 2.75355 6.61948 3.26399 5.904C3.77443 5.18852 4.49804 4.65278 5.33134 4.37338C6.16464 4.09397 7.06496 4.08523 7.90353 4.34839C8.7421 4.61156 9.47598 5.13315 10.0002 5.83858C10.3448 5.38026 10.7803 4.99801 11.2795 4.71575C11.7786 4.43349 12.3306 4.25729 12.901 4.19818C13.4714 4.13907 14.0478 4.19833 14.5942 4.37224C15.1406 4.54615 15.6452 4.83097 16.0765 5.20888C16.5078 5.58679 16.8564 6.04965 17.1006 6.56849C17.3447 7.08733 17.4792 7.65098 17.4955 8.22417C17.5118 8.79736 17.4096 9.36774 17.1953 9.89962C16.9811 10.4315 16.6593 10.9134 16.2502 11.3152" stroke="#333333" stroke-width="1.25" stroke-linecap="round" stroke-linejoin="round"/>
<path d="M2.5 10.8335H4.16667L5.83333 13.3335L7.5 8.3335L8.33333 10.8335H10.8333" stroke="#333333" stroke-width="1.25" stroke-linecap="round" stroke-linejoin="round"/>
</g>
<defs>
<clipPath id="clip0_13411_3382">
<rect width="20" height="20" fill="white"/>
</clipPath>
</defs>
</svg>
