<svg width="70" height="70" viewBox="0 0 70 70" fill="none" xmlns="http://www.w3.org/2000/svg">
<rect width="70" height="70" rx="12" fill="#6950FF"/>
<path d="M38.3335 18.333H31.6668C25.3814 18.333 22.2387 18.333 20.2861 20.2856C18.3335 22.2383 18.3335 25.3809 18.3335 31.6663V33.333C18.3335 34.2524 18.3335 35.0821 18.3444 35.833H36.0031C36.1757 34.7009 36.5628 33.5208 37.542 32.5416C38.5721 31.5115 39.8245 31.1367 41.0095 30.9773C42.0855 30.8327 43.4083 30.8328 44.851 30.833H45.1493C46.592 30.8328 47.9148 30.8327 48.9909 30.9773C49.886 31.0977 50.8196 31.341 51.6668 31.8969V31.6663C51.6668 25.3809 51.6668 22.2383 49.7142 20.2856C47.7616 18.333 44.6189 18.333 38.3335 18.333Z" fill="#FFD850"/>
<path d="M19.798 41.8685C21.2624 43.333 23.6195 43.333 28.3335 43.333H33.7502V49.9997H28.3335C27.6431 49.9997 27.0835 50.5593 27.0835 51.2497C27.0835 51.94 27.6431 52.4997 28.3335 52.4997H37.5844L37.542 52.4578C36.512 51.4277 36.1371 50.1753 35.9778 48.9904C35.8332 47.9143 35.8333 46.5916 35.8335 45.1488V39.8505C35.8334 39.019 35.8333 38.2273 35.8609 37.4997H18.3974C18.515 39.5962 18.8491 40.9197 19.798 41.8685Z" fill="#FFD850"/>
<path fill-rule="evenodd" clip-rule="evenodd" d="M51.6668 39.9997V44.9997C51.6668 48.1424 51.6668 49.7137 50.6905 50.69C49.7142 51.6663 48.1429 51.6663 45.0002 51.6663C41.8575 51.6663 40.2861 51.6663 39.3098 50.69C38.3335 49.7137 38.3335 48.1424 38.3335 44.9997V39.9997C38.3335 36.857 38.3335 35.2856 39.3098 34.3093C40.2861 33.333 41.8575 33.333 45.0002 33.333C48.1429 33.333 49.7142 33.333 50.6905 34.3093C51.6668 35.2856 51.6668 36.857 51.6668 39.9997ZM42.0835 48.333C42.0835 47.6427 42.6431 47.083 43.3335 47.083H46.6668C47.3572 47.083 47.9168 47.6427 47.9168 48.333C47.9168 49.0234 47.3572 49.583 46.6668 49.583H43.3335C42.6431 49.583 42.0835 49.0234 42.0835 48.333Z" fill="#FFD850"/>
</svg>
