<svg width="20" height="20" viewBox="0 0 20 20" fill="none" xmlns="http://www.w3.org/2000/svg">
<g clip-path="url(#clip0_4167_25336)">
<path d="M14.7255 3.70337H5.28111C4.41177 3.70337 3.70703 4.40811 3.70703 5.27744V14.7219C3.70703 15.5912 4.41177 16.296 5.28111 16.296H14.7255C15.5949 16.296 16.2996 15.5912 16.2996 14.7219V5.27744C16.2996 4.40811 15.5949 3.70337 14.7255 3.70337Z" stroke="#E3E3E3" stroke-width="1.18056" stroke-linecap="round" stroke-linejoin="round"/>
<path d="M6.84766 9.21338V13.1486" stroke="#E3E3E3" stroke-width="1.18056" stroke-linecap="round" stroke-linejoin="round"/>
<path d="M6.84766 6.85217V6.85981" stroke="#E3E3E3" stroke-width="1.18056" stroke-linecap="round" stroke-linejoin="round"/>
<path d="M10 13.1486V9.21338" stroke="#E3E3E3" stroke-width="1.18056" stroke-linecap="round" stroke-linejoin="round"/>
<path d="M13.1481 13.1486V10.7875C13.1481 10.37 12.9823 9.96961 12.6871 9.67441C12.3919 9.37922 11.9915 9.21338 11.5741 9.21338C11.1566 9.21338 10.7562 9.37922 10.461 9.67441C10.1658 9.96961 10 10.37 10 10.7875" stroke="#E3E3E3" stroke-width="1.18056" stroke-linecap="round" stroke-linejoin="round"/>
</g>
<defs>
<clipPath id="clip0_4167_25336">
<rect width="18.8889" height="18.8889" fill="white" transform="translate(0.554688 0.555542)"/>
</clipPath>
</defs>
</svg>
