<svg width="20" height="20" viewBox="0 0 20 20" fill="none" xmlns="http://www.w3.org/2000/svg">
<g clip-path="url(#clip0_4167_25332)">
<path d="M15.1602 4.99275C13.1356 5.00249 11.5967 6.34154 11.0206 8.47539C10.054 6.98789 9.29995 5.28642 8.86757 3.84998L6.73667 3.86001L6.76618 9.50838C6.76744 9.7743 6.71631 10.0379 6.61571 10.284C6.51511 10.5302 6.36701 10.7541 6.17987 10.943C5.99273 11.132 5.7702 11.2822 5.52501 11.3851C5.27981 11.488 5.01674 11.5417 4.75082 11.5429C4.21378 11.5455 3.69771 11.3346 3.31616 10.9566C3.12724 10.7695 2.97702 10.5469 2.8741 10.3017C2.77117 10.0566 2.71754 9.79348 2.71628 9.52756L2.68677 3.87919L0.554688 3.88952L0.584201 9.53819C0.592465 11.8822 2.46542 13.7395 4.75747 13.7277C7.04951 13.7159 8.90564 11.8429 8.89531 9.49834L8.89089 8.53914C9.32061 9.38914 9.85776 10.2923 10.448 11.0891L9.145 17.3296L11.329 17.3195L12.2676 12.7856C13.1223 13.3148 14.0827 13.6297 15.2013 13.6244C17.5458 13.6141 19.4554 11.6874 19.4436 9.23567C19.433 6.8905 17.5051 4.98183 15.1605 4.99246L15.1602 4.99275ZM15.1906 11.4404C14.3383 11.4442 13.4841 11.0756 12.7888 10.4921L12.9977 9.63617V9.58246C13.1536 8.6752 13.6252 7.12808 15.2237 7.121C15.7885 7.11997 16.3308 7.3425 16.7321 7.73999C17.1334 8.13749 17.3611 8.67763 17.3655 9.24246C17.3174 10.4682 16.3098 11.4324 15.1903 11.4374L15.1906 11.4404Z" fill="#E3E3E3"/>
</g>
<defs>
<clipPath id="clip0_4167_25332">
<rect width="18.8889" height="18.8889" fill="white" transform="translate(0.554688 0.555542)"/>
</clipPath>
</defs>
</svg>
